<svg width="80" height="102" viewBox="0 0 80 102" fill="none" xmlns="http://www.w3.org/2000/svg">
<path d="M79.0401 27.2168V40.4611L70.0819 40.0317V30.7544L79.0401 27.2168Z" fill="#C0CDE5"/>
<path d="M79.0401 40.4616L70.0819 68.5259L62.5065 62.8453L70.0819 40.0322L79.0401 40.4616Z" fill="#ADBBD9"/>
<path d="M70.082 68.5263L39.6422 101.29L39.5398 87.9555L62.5065 62.8457L70.082 68.5263Z" fill="#ADBBD9"/>
<path d="M39.5201 0V11.5346L24.0225 13.2561V1.72152L39.5201 0Z" fill="#E6F0FE"/>
<path d="M24.0225 1.72168L11.2825 7.31957L15.7576 16.7032L24.0225 13.2562V1.72168Z" fill="#DEEAF6"/>
<path d="M0 27.2168V40.4611L8.9582 40.0317V30.7544L0 27.2168Z" fill="#DEEAF6"/>
<path d="M0 40.4616L8.9582 68.5259L16.5337 62.8453L8.9582 40.0322L0 40.4616Z" fill="#E6F0FE"/>
<path d="M8.95825 68.5263L39.6423 101.29L39.5398 87.9555L16.5337 62.8457L8.95825 68.5263Z" fill="#DBEAFC"/>
<path d="M39.52 0V11.5346L55.0176 13.2561V1.72152L39.52 0Z" fill="#C0CDE5"/>
<path d="M55.0177 1.72168L67.7577 7.31957L63.2826 16.7032L55.0177 13.2562V1.72168Z" fill="#C0CDE5"/>
<path d="M11.2824 7.31934L0 12.0506L8.9582 19.7088L15.7576 16.703L11.2824 7.31934Z" fill="#DEEAF6"/>
<path d="M0 12.0508V27.2175L8.9582 30.7551V19.709L0 12.0508Z" fill="#DEEAF6"/>
<path d="M67.7578 7.31934L79.0402 12.0506L70.082 19.7088L63.2826 16.703L67.7578 7.31934Z" fill="#E6F0FE"/>
<path d="M79.0401 12.0508V27.2175L70.0819 30.7551V19.709L79.0401 12.0508Z" fill="#E6F0FE"/>
<path d="M8.95813 19.7086L26.8666 30.5498L24.0224 13.2559L15.7575 16.7028L8.95813 19.7086Z" fill="#4F81D9"/>
<path d="M39.449 11.6445L26.8666 30.5497L24.0223 13.2557L39.449 11.6445Z" fill="#95C0EF"/>
<path d="M8.95813 40.0314L26.8666 30.5492L8.95813 19.708V40.0314Z" fill="#4B84CF"/>
<path d="M55.0176 13.2557L48.3127 31.5267L39.4491 11.6445L55.0176 13.2557Z" fill="#B7DEF4"/>
<path d="M70.0819 19.708L56.4595 33.8386L70.0819 40.0314V30.7541V19.708Z" fill="#0D5EBB"/>
<path d="M55.0176 13.2559L48.3127 31.5268L70.0819 19.7086L63.2825 16.7028L55.0176 13.2559Z" fill="#3B70CA"/>
<path d="M56.4594 33.8386L48.3127 31.5262L70.0819 19.708L56.4594 33.8386Z" fill="#0959BC"/>
<path d="M26.8666 30.5497L48.3127 31.5267L39.449 11.6445L26.8666 30.5497Z" fill="#5D8EDA"/>
<path d="M8.95813 40.0319L16.5336 62.845L26.8666 30.5498L8.95813 40.0319Z" fill="#1153AF"/>
<path d="M48.3127 31.5268L37.5896 50.952L26.8666 30.5498L48.3127 31.5268Z" fill="#4580CD"/>
<path d="M37.5898 50.952L20.0043 51.9998L26.8667 30.5498L37.5898 50.952Z" fill="#3365BE"/>
<path d="M37.5897 50.9521L24.6409 71.6931L16.5336 62.8452L20.0042 52L37.5897 50.9521Z" fill="#1051A7"/>
<path d="M48.3127 31.5264L54.8128 50.991L70.0819 40.0315L56.4594 33.8388L48.3127 31.5264Z" fill="#0C53B0"/>
<path d="M62.5064 62.8443L54.8127 50.9907L70.0819 40.0312L62.5064 62.8443Z" fill="#1454AA"/>
<path d="M37.5897 50.9516L54.8128 50.991L48.3128 31.5264L37.5897 50.9516Z" fill="#013F9C"/>
<path d="M39.5397 87.9544L40.6821 68.0723L24.6409 71.6926L39.5397 87.9544Z" fill="#0D3A98"/>
<path d="M37.5897 50.9521L40.6821 68.0728L24.6409 71.6931L37.5897 50.9521Z" fill="#0D57AA"/>
<path d="M54.8128 50.9915L40.6822 68.0728L37.5897 50.9521L54.8128 50.9915Z" fill="#1050A7"/>
<path d="M62.5064 62.8449L40.6821 68.0725L54.8128 50.9912L62.5064 62.8449Z" fill="#0D57AA"/>
<path d="M39.5397 87.9545L62.5064 62.8447L40.6821 68.0723" fill="#0D4FA5"/>
<path d="M38.5588 55.6043L27.5442 44.5857L31.9878 40.1421L38.5588 46.717L52.2718 33.0039L56.7155 37.4476L38.5588 55.6043Z" fill="white"/>
<path d="M27.5442 44.5862L31.9878 40.1426L38.5588 46.7174L27.5442 44.5862Z" fill="#E6F0FE"/>
<path d="M38.5588 46.717L48.5689 42.1197L52.2719 33.0039L38.5588 46.717Z" fill="#E6F0FE"/>
<path d="M38.5588 46.7172V55.6044L27.5442 44.5859L38.5588 46.7172Z" fill="#D9E7F9"/>
<path d="M38.5588 46.7174L48.5689 42.1201L38.5588 55.6047V46.7174Z" fill="#D3DEF2"/>
<path d="M52.2719 33.0039L56.7155 37.4476L48.5688 42.1197L52.2719 33.0039Z" fill="#D9E7F9"/>
<path d="M56.7155 37.4482L38.5588 55.6049L48.5689 42.1204L56.7155 37.4482Z" fill="#B2C0D8"/>
</svg>
