<svg fill="none" xmlns="http://www.w3.org/2000/svg" viewBox="26 22 79.04 101.3"> <g filter="url(#filter0_d_2995_9493)"> <path d="M105.042 49.2178V62.4624L96.0837 62.033V52.7555L105.042 49.2178Z" fill="#C0CDE5"></path> <path d="M105.042 62.4626L96.084 90.5276L88.5083 84.8469L96.084 62.0332L105.042 62.4626Z" fill="#ADBBD9"></path> <path d="M96.084 90.5274L65.6474 123.296L65.541 109.957L88.5083 84.8467L96.084 90.5274Z" fill="#ADBBD9"></path> <path d="M65.5212 22V33.5349L50.0271 35.2564V23.7216L65.5212 22Z" fill="#E6F0FE"></path> <path d="M50.0273 23.7217L37.283 29.3197L41.7622 38.7036L50.0273 35.2565V23.7217Z" fill="#E6F0FE"></path> <path d="M26 49.2178V62.4624L34.9584 62.033V52.7555L26 49.2178Z" fill="#E6F0FE"></path> <path d="M26 62.4626L34.9584 90.5276L42.5341 84.8469L34.9584 62.0332L26 62.4626Z" fill="#E6F0FE"></path> <path d="M34.9585 90.5274L65.6472 123.296L65.5409 109.957L42.5342 84.8467L34.9585 90.5274Z" fill="#DBEAFC"></path> <path d="M65.5212 22V33.5349L81.0193 35.2564V23.7216L65.5212 22Z" fill="#C0CDE5"></path> <path d="M81.019 23.7217L93.7594 29.3197L89.2841 38.7036L81.019 35.2565V23.7217Z" fill="#C0CDE5"></path> <path d="M37.2827 29.3203L26 34.0556L34.9584 41.7101L41.762 38.7042L37.2827 29.3203Z" fill="#E6F0FE"></path> <path d="M26 34.0547V49.2178L34.9584 52.7555V41.7091L26 34.0547Z" fill="#E6F0FE"></path> <path d="M93.7595 29.3203L105.042 34.0556L96.0838 41.7101L89.2842 38.7042L93.7595 29.3203Z" fill="#E6F0FE"></path> <path d="M105.042 34.0547V49.2178L96.0837 52.7555V41.7091L105.042 34.0547Z" fill="#E6F0FE"></path> <path d="M34.9585 41.7107L52.8675 52.5522L50.0271 35.2578L41.762 38.7049L34.9585 41.7107Z" fill="#4F81D9"></path> <path d="M65.4503 33.6465L52.8675 52.5522L50.0271 35.2577L65.4503 33.6465Z" fill="#95C0EF"></path> <path d="M34.9585 62.0339L52.8675 52.5515L34.9585 41.71V62.0339Z" fill="#4B84CF"></path> <path d="M81.0191 35.2577L74.3141 53.5292L65.4502 33.6465L81.0191 35.2577Z" fill="#B7DEF4"></path> <path d="M96.0837 41.71L82.4609 55.841L96.0837 62.0339V52.7563V41.71Z" fill="#0D5EBB"></path> <path d="M81.019 35.2578L74.314 53.5292L96.0837 41.7107L89.2841 38.7049L81.019 35.2578Z" fill="#3B70CA"></path> <path d="M82.4609 55.841L74.314 53.5285L96.0837 41.71L82.4609 55.841Z" fill="#0959BC"></path> <path d="M52.8677 52.5522L74.3143 53.5292L65.4505 33.6465L52.8677 52.5522Z" fill="#5D8EDA"></path> <path d="M34.9585 62.0351L42.5342 84.8488L52.8675 52.5527L34.9585 62.0351Z" fill="#1153AF"></path> <path d="M74.3143 53.5297L63.591 72.9554L52.8677 52.5527L74.3143 53.5297Z" fill="#4580CD"></path> <path d="M63.5908 72.9554L46.0049 74.0033L52.8675 52.5527L63.5908 72.9554Z" fill="#3365BE"></path> <path d="M63.5908 72.9551L50.6417 93.6966L42.5342 84.8484L46.0049 74.003L63.5908 72.9551Z" fill="#1051A7"></path> <path d="M74.314 53.5293L80.8141 72.9944L96.0837 62.0347L82.4609 55.8418L74.314 53.5293Z" fill="#0C53B0"></path> <path d="M88.5081 84.8479L80.8142 72.9939L96.0837 62.0342L88.5081 84.8479Z" fill="#1454AA"></path> <path d="M63.5908 72.955L80.8143 72.9944L74.3142 53.5293L63.5908 72.955Z" fill="#013F9C"></path> <path d="M65.541 109.959L66.6835 90.0762L50.6418 93.6966L65.541 109.959Z" fill="#0D3A98"></path> <path d="M63.591 72.9551L66.6835 90.0762L50.6418 93.6966L63.591 72.9551Z" fill="#0D57AA"></path> <path d="M80.8143 72.9945L66.6833 90.0762L63.5908 72.9551L80.8143 72.9945Z" fill="#1050A7"></path> <path d="M88.5082 84.8481L66.6833 90.0758L80.8143 72.9941L88.5082 84.8481Z" fill="#0D57AA"></path> <path d="M65.5408 109.958L88.5081 84.8477L66.6832 90.0754" fill="#0D4FA5"></path> <path d="M66.6833 52.6533V66.5874L63.9414 63.8455V53.0906L66.6833 52.6533Z" fill="#E6F0FE"></path> <path d="M66.6833 52.6533L69.4292 53.0906V63.8455L66.6833 66.5874V52.6533Z" fill="#D3DEF2"></path> <path d="M66.6833 66.5876L69.4292 63.8457H80.1801L80.6174 66.5876H66.6833Z" fill="#C5D4EA"></path> <path d="M63.9414 63.8457L66.6833 66.5876H52.7532L53.1905 63.8457H63.9414Z" fill="#D9E7F9"></path> <path d="M52.7532 66.5869L53.1905 69.3327H63.9414L66.6833 66.5869H52.7532Z" fill="#C6D2E5"></path> <path d="M66.6833 66.5869L69.4292 69.3327H80.1801L80.6174 66.5869H66.6833Z" fill="#C0CDE5"></path> <path d="M66.6833 66.5869L69.4292 69.3327V80.0837L66.6833 80.5209V66.5869Z" fill="#B2C0D8"></path> <path d="M66.6833 66.5869L63.9414 69.3327V80.0837L66.6833 80.5209V66.5869Z" fill="#C8D9E8"></path> </g> <defs> <filter id="filter0_d_2995_9493" x="0" y="0" width="131.042" height="153.296" filterUnits="userSpaceOnUse" color-interpolation-filters="sRGB"> <feFlood flood-opacity="0" result="BackgroundImageFix"></feFlood> <feColorMatrix in="SourceAlpha" type="matrix" values="0 0 0 0 0 0 0 0 0 0 0 0 0 0 0 0 0 0 127 0" result="hardAlpha"></feColorMatrix> <feOffset dy="4"></feOffset> <feGaussianBlur stdDeviation="13"></feGaussianBlur> <feComposite in2="hardAlpha" operator="out"></feComposite> <feColorMatrix type="matrix" values="0 0 0 0 0.305882 0 0 0 0 0.490196 0 0 0 0 0.85098 0 0 0 0.05 0"></feColorMatrix> <feBlend mode="normal" in2="BackgroundImageFix" result="effect1_dropShadow_2995_9493"></feBlend> <feBlend mode="normal" in="SourceGraphic" in2="effect1_dropShadow_2995_9493" result="shape"></feBlend> </filter> </defs> </svg>