<svg width="84" height="83" viewBox="0 0 84 83" fill="none" xmlns="http://www.w3.org/2000/svg">
<path d="M15.4863 35.5568L40.9684 25.5395L37.1694 19.2588L16.8103 22.641L15.4863 35.5568Z" fill="#5D8EDA"/>
<path d="M1.05176 34.2385L15.4863 35.5567L16.8103 22.6409L7.35148 18.1621L3.4422 25.6576L1.05176 34.2385Z" fill="#3570C4"/>
<path d="M7.35156 18.1628L31.4031 9.72949L37.1695 19.2594L16.8103 22.6416L7.35156 18.1628Z" fill="#3B70CA"/>
<path d="M35.2057 0.416992L31.4031 9.72906L7.35156 18.1624L13.6072 10.7814L21.2786 5.33518L29.6415 1.46931L35.2057 0.416992Z" fill="#296BC4"/>
<path d="M1.05179 34.2393L0 40.2135L1.05179 48.9089L2.79865 55.5883L15.4864 35.5574L1.05179 34.2393Z" fill="#0956AA"/>
<path d="M40.9684 25.54L38.3904 46.9777L15.4863 35.5573L40.9684 25.54Z" fill="#598DD9"/>
<path d="M2.79871 55.5885L38.3905 46.978L15.4864 35.5576L2.79871 55.5885Z" fill="#1D5FBD"/>
<path d="M2.79871 55.5879L6.4763 62.991L12.4487 70.7523L29.6415 68.5886L2.79871 55.5879Z" fill="#003F9C"/>
<path d="M38.3905 46.9775L29.6415 68.5888L2.79871 55.5881L38.3905 46.9775Z" fill="#0450A9"/>
<path d="M40.9684 25.5403L48.9524 14.8252L61.4269 29.2327L40.9684 25.5403Z" fill="#598DD9"/>
<path d="M38.3904 46.9777L61.4268 29.2324L40.9684 25.54L38.3904 46.9777Z" fill="#065AB0"/>
<path d="M48.9524 14.8249L31.403 9.72949L40.9684 25.5401L48.9524 14.8249Z" fill="#4B84CF"/>
<path d="M35.2056 0.417234L44.1569 0L52.0858 1.11878L31.403 9.7293L35.2056 0.417234Z" fill="#3570C4"/>
<path d="M48.9524 14.8251L52.0858 1.11914L31.403 9.72967L48.9524 14.8251Z" fill="#5D8EDA"/>
<path d="M52.0858 1.11914L61.4269 4.10624L70.4922 11.1328L48.9525 14.8251L52.0858 1.11914Z" fill="#065AB0"/>
<path d="M61.4269 29.2326L70.4922 11.1328L48.9525 14.8251L61.4269 29.2326Z" fill="#0454AB"/>
<path d="M38.3905 46.9775L52.4867 62.9912L29.6415 68.5888L38.3905 46.9775Z" fill="#0450A8"/>
<path d="M61.4268 29.2324L52.4866 62.9914L38.3904 46.9778L61.4268 29.2324Z" fill="#1D63C1"/>
<path d="M70.4922 11.1328L77.2773 18.8572L82.426 29.2326H61.4269L70.4922 11.1328Z" fill="#01449F"/>
<path d="M61.4269 29.2324H82.426L84 37.6657V46.9778L61.4269 29.2324Z" fill="#0447A0"/>
<path d="M52.4867 62.9914L72.7135 38.1051L61.4269 29.2324L52.4867 62.9914Z" fill="#196BBB"/>
<path d="M12.4486 70.7526L20.6791 77.1994L33.0652 82.1176L29.6414 68.5889L12.4486 70.7526Z" fill="#003F9C"/>
<path d="M52.4867 62.9912L33.0653 82.1175L29.6415 68.5888L52.4867 62.9912Z" fill="#0449A3"/>
<path d="M59.7205 79.3072L46.2274 69.1533L33.0653 82.1171L42.8146 82.9996L51.6813 82.1171L59.7205 79.3072Z" fill="#044BA5"/>
<path d="M72.7135 38.1045L80.5688 58.3976L82.426 52.9034L84 46.9772L72.7135 38.1045Z" fill="#0447A0"/>
<path d="M80.5688 58.3976L59.9448 53.8117L72.7134 38.1045L80.5688 58.3976Z" fill="#0F52A8"/>
<path d="M46.2274 69.1538L74.2029 68.5889L67.0095 75.3532L59.7205 79.3077L46.2274 69.1538Z" fill="#003F9C"/>
<path d="M74.2029 68.5892L59.9449 53.8125L52.4867 62.9916L46.2274 69.1541L74.2029 68.5892Z" fill="#0F52A8"/>
<path d="M80.5688 58.3984L77.2773 64.0809L74.2029 68.5892L59.9448 53.8125L80.5688 58.3984Z" fill="#003F9C"/>
<path d="M43.7377 19.2588V43.6319L22.6172 55.9791C22.2973 55.4178 22.2532 54.6978 22.6209 54.059L42.0754 20.2225V20.2188C42.4505 19.5837 43.0904 19.2588 43.7377 19.2588Z" fill="#E6F0FE"/>
<path d="M64.8581 55.9791L43.734 43.6319V19.2588C44.3776 19.2588 45.0248 19.5837 45.3963 20.2225L64.8545 54.059V54.0627C65.2259 54.7015 65.1781 55.4178 64.8581 55.9791Z" fill="#C0CDE5"/>
<path d="M64.8581 55.979C64.5345 56.5476 63.9313 56.9464 63.1921 56.9464H24.2795C23.5403 56.9464 22.9372 56.5439 22.6135 55.979L43.734 43.6318L64.8581 55.979Z" fill="#BAC7DD"/>
<path d="M43.7377 45.1494V50.6215L46.0803 49.9753V45.4706L43.7377 45.1494Z" fill="#4E7DD9"/>
<path d="M43.7376 45.1494V50.6215L41.395 49.9753V45.4706L43.7376 45.1494Z" fill="#4E7DD9"/>
<path d="M43.7377 45.1494L46.0803 49.9753V45.4706L43.7377 45.1494Z" fill="#4E7DD9"/>
<path d="M43.7524 30.1328L43.7377 43.632L41.4944 43.3181V30.6276L43.7524 30.1328Z" fill="#6CA4FF"/>
<path d="M43.7377 43.632L43.7524 30.1328L46.0068 30.6276V43.3181L43.7377 43.632Z" fill="#4E7DD9"/>
<path d="M43.7377 43.6325L46.0068 36.126V43.3186L43.7377 43.6325Z" fill="#4E7DD9"/>
</svg>
