<svg width="41" height="110" viewBox="0 0 41 110" fill="none" xmlns="http://www.w3.org/2000/svg">
<path d="M2.5909 12.4837L4.8221 10.0293L9.20066 17.2082L0 25.3886V18.4822L2.5909 12.4837Z" fill="#DEEAF9"/>
<path d="M0 25.3885L1.04123 31.7804L2.94789 34.8099L9.20066 17.208L0 25.3885Z" fill="#E6F0FE"/>
<path d="M4.82202 10.0294L10.7178 6.30371H15.5318L9.20058 17.2082L4.82202 10.0294Z" fill="#E6F0FE"/>
<path d="M15.5319 6.30371H24.3837L9.20068 17.2082L15.5319 6.30371Z" fill="#D3DEF2"/>
<path d="M24.3835 6.30371H28.9406L34.3901 8.39491L24.8325 16.2094L24.3835 6.30371Z" fill="#D3DEF2"/>
<path d="M34.3902 8.39551L37.7843 12.3936L39.48 15.756L24.8325 16.21L34.3902 8.39551Z" fill="#C0CDE5"/>
<path d="M39.4802 15.7559L41.0001 21.4819L32.6919 26.011L39.4802 15.7559Z" fill="#ADBBD9"/>
<path d="M32.6918 26.011L24.8325 16.2099L39.48 15.7559L32.6918 26.011Z" fill="#CAD6E8"/>
<path d="M24.3837 6.30371L24.8326 16.2094L9.20068 17.2082L24.3837 6.30371Z" fill="#E6F0FE"/>
<path d="M24.8326 16.21L20.573 26.0111L9.20068 17.2088L24.8326 16.21Z" fill="#DEEAF9"/>
<path d="M2.948 34.8105L10.6882 45.1096L15.532 34.3262L2.948 34.8105Z" fill="#D3DEF2"/>
<path d="M2.948 34.8099L15.532 34.3256L9.20077 17.208L2.948 34.8099Z" fill="#DEEAF9"/>
<path d="M9.20068 17.208L20.573 26.0103L21.1707 34.3256H15.5319L9.20068 17.208Z" fill="#E6F0FE"/>
<path d="M20.573 26.0111H32.6918L24.8326 16.21L20.573 26.0111Z" fill="#D3DEF2"/>
<path d="M20.573 26.0107H28.5539L24.8326 40.3823L21.1707 34.326L20.573 26.0107Z" fill="#CAD6E8"/>
<path d="M41.0001 21.4814L40.4619 29.3565L35.6993 37.7185L32.6919 26.0105L41.0001 21.4814Z" fill="#CAD6E8"/>
<path d="M35.6991 37.7187L27.5992 47.5336L24.8325 40.3823L28.5539 26.0107H32.6918L35.6991 37.7187Z" fill="#BAC7DD"/>
<path d="M27.5994 47.5338L10.6882 45.1096L15.532 34.3262H21.1708L24.8327 40.3824L27.5994 47.5338Z" fill="#C0CDE5"/>
<path d="M10.6882 45.1094L17.0167 55.0453H23.9078L27.5994 47.5335L10.6882 45.1094Z" fill="#ADBBD9"/>
<path d="M38.4091 97.3951L36.1752 99.8468L31.7993 92.6679L41 84.4902V91.3967L38.4091 97.3951Z" fill="#DEEAF9"/>
<path d="M41 84.4898L39.956 78.0978L38.0521 75.0684L31.7993 92.6675L41 84.4898Z" fill="#E6F0FE"/>
<path d="M36.1751 99.8468L30.2793 103.575H25.4653L31.7992 92.668L36.1751 99.8468Z" fill="#E6F0FE"/>
<path d="M25.4656 103.575H16.6138L31.7995 92.668L25.4656 103.575Z" fill="#D3DEF2"/>
<path d="M16.6138 103.575H12.0594L6.60986 101.483L16.1675 93.6689L16.6138 103.575Z" fill="#D3DEF2"/>
<path d="M6.60988 101.483L3.21575 97.4854L1.51733 94.123L16.1675 93.6689L6.60988 101.483Z" fill="#C0CDE5"/>
<path d="M1.51722 94.1233L0 88.3973L8.30818 83.8682L1.51722 94.1233Z" fill="#ADBBD9"/>
<path d="M8.3083 83.8682L16.1675 93.6693L1.51733 94.1233L8.3083 83.8682Z" fill="#CAD6E8"/>
<path d="M16.6137 103.575L16.1675 93.6695L31.7994 92.668L16.6137 103.575Z" fill="#E6F0FE"/>
<path d="M16.1675 93.6693L20.4243 83.8682L31.7994 92.6677L16.1675 93.6693Z" fill="#DEEAF9"/>
<path d="M38.052 75.0687L30.3091 64.7695L25.4653 75.553L38.052 75.0687Z" fill="#D3DEF2"/>
<path d="M38.052 75.0684L25.4653 75.5526L31.7992 92.6675L38.052 75.0684Z" fill="#DEEAF9"/>
<path d="M31.7994 92.6676L20.4243 83.868L19.8293 75.5527H25.4655L31.7994 92.6676Z" fill="#E6F0FE"/>
<path d="M20.4242 83.8682H8.30811L16.1673 93.6693L20.4242 83.8682Z" fill="#D3DEF2"/>
<path d="M20.4243 83.8684H12.446L16.1674 69.4941L19.8293 75.5531L20.4243 83.8684Z" fill="#CAD6E8"/>
<path d="M0 88.3972L0.535488 80.5222L5.30079 72.1602L8.30818 83.8681L0 88.3972Z" fill="#CAD6E8"/>
<path d="M5.30078 72.1606L13.398 62.3457L16.1674 69.4943L12.446 83.8686H8.30817L5.30078 72.1606Z" fill="#BAC7DD"/>
<path d="M13.3979 62.3457L30.3091 64.7698L25.4654 75.5533H19.8292L16.1673 69.4943L13.3979 62.3457Z" fill="#C0CDE5"/>
<path d="M30.3091 64.7699L23.9833 54.834H17.0896L13.3979 62.3458L30.3091 64.7699Z" fill="#ADBBD9"/>
<path d="M2.948 34.8096L14.0093 37.718L10.6882 45.1087L2.948 34.8096Z" fill="#3A73C3"/>
<path d="M14.0093 37.7178L23.9835 38.978L12.2325 47.5327L10.6882 45.1085L14.0093 37.7178Z" fill="#2865BE"/>
<path d="M23.9835 38.9784L14.3663 34.5566L2.948 34.8098L14.0093 37.7182L23.9835 38.9784Z" fill="#004EA7"/>
<path d="M23.9834 38.978L35.6992 37.7178L27.5993 47.5327L23.9834 38.978Z" fill="#004EA7"/>
<path d="M23.9836 38.9785L27.5995 47.5332L14.3665 45.9785L23.9836 38.9785Z" fill="#2256AA"/>
<path d="M12.2324 47.5332L17.0167 55.045L27.5993 47.5332L14.3663 45.9785L12.2324 47.5332Z" fill="#1A449B"/>
<path d="M27.5995 47.5332L17.0168 55.045L24.0079 54.8607L27.5995 47.5332Z" fill="#1F4EAA"/>
<path d="M24.0079 54.8604L19.1453 67.6882L17.0168 55.0447L24.0079 54.8604Z" fill="#1F4EAA"/>
<path d="M21.3846 61.7363L23.9836 75.0677L19.1453 67.688L21.3846 61.7363Z" fill="#004EA7"/>
<path d="M23.9836 75.0682L19.1453 86.8147V67.6885L23.9836 75.0682Z" fill="#3A73C3"/>
<path d="M21.2412 81.7266L29.8415 91.3626L19.1453 86.8142L21.2412 81.7266Z" fill="#1F4EAA"/>
<path d="M19.1452 86.8145L1.51733 94.1227H23.4318L19.1452 86.8145Z" fill="#1F4EAA"/>
<path d="M29.8415 91.3628L23.4319 94.1227L19.1453 86.8145L29.8415 91.3628Z" fill="#004EA7"/>
<path d="M29.8413 91.3633L39.0447 95.9199L38.4091 97.3947L36.1752 99.8464L30.2794 103.575L29.8413 91.3633Z" fill="#01449F"/>
<path d="M29.8414 91.3633L30.2795 103.575H23.7292L29.8414 91.3633Z" fill="#2256AA"/>
<path d="M29.8413 91.3633L23.4317 94.1231L12.0593 103.575H23.7292L29.8413 91.3633Z" fill="#2865BE"/>
<path d="M23.4318 94.123H1.51733L17.0167 99.4529L23.4318 94.123Z" fill="#3A73C3"/>
<path d="M17.0167 99.4529L12.0594 103.575L6.60988 101.484L3.21575 97.4855L1.51733 94.123L17.0167 99.4529Z" fill="#1F4EAA"/>
<path d="M1.51733 94.1225L19.1452 80.2793V86.8143L1.51733 94.1225Z" fill="#3A73C3"/>
<path d="M21.2412 81.7266L41.0002 88.3964V91.3956L39.0448 95.9192L29.8415 91.3626L21.2412 81.7266Z" fill="#2865BE"/>
<path d="M41 88.3965L29.8413 91.3627L39.0447 95.9193L41 91.3957V88.3965Z" fill="#2256AA"/>
<path d="M33.1082 2.12695V4.94457C33.1082 5.69576 32.708 6.30385 32.2131 6.30385H26.1226L33.1082 2.12695Z" fill="#718FAD"/>
<path d="M10.1012 0L8.25676 6.30387C7.76184 6.30387 7.36157 5.69302 7.36157 4.94459V1.35928C7.36157 0.6081 7.76184 0 8.25676 0H10.1012Z" fill="#BAC7DD"/>
<path d="M8.25684 6.30387H13.9336L10.1013 0L8.25684 6.30387Z" fill="#A1B5D1"/>
<path d="M16.4758 0L18.3635 6.30387L10.0986 0H16.4758Z" fill="#BAC7DD"/>
<path d="M10.0986 0L18.3635 6.30387H13.9336L10.0986 0Z" fill="#8DA7C6"/>
<path d="M17.5925 3.7339L23.9021 0H16.4756L17.5925 3.7339Z" fill="#8DA7C6"/>
<path d="M18.3633 6.30387H26.1225L23.9021 0L17.5925 3.7339L18.3633 6.30387Z" fill="#A1B5D1"/>
<path d="M26.1225 6.30387L30.0548 0H23.9021L26.1225 6.30387Z" fill="#8DA7C6"/>
<path d="M33.1082 1.35928V2.12697L26.1226 6.30387L30.0576 0H32.2131C32.708 0 33.1082 0.6081 33.1082 1.35928Z" fill="#85A7C9"/>
<path d="M2.5909 12.4837L4.8221 10.0293L9.20066 17.2082L0 25.3886V18.4822L2.5909 12.4837Z" fill="url(#paint0_linear_2995_9733)"/>
<path d="M0 25.3885L1.04123 31.7804L2.94789 34.8099L9.20066 17.208L0 25.3885Z" fill="url(#paint1_linear_2995_9733)"/>
<path d="M4.82202 10.0294L10.7178 6.30371H15.5318L9.20058 17.2082L4.82202 10.0294Z" fill="url(#paint2_linear_2995_9733)"/>
<path d="M15.5319 6.30371H24.3837L9.20068 17.2082L15.5319 6.30371Z" fill="url(#paint3_linear_2995_9733)"/>
<path d="M24.3835 6.30371H28.9406L34.3901 8.39491L24.8325 16.2094L24.3835 6.30371Z" fill="url(#paint4_linear_2995_9733)"/>
<path d="M32.6918 26.011L24.8325 16.2099L39.48 15.7559L32.6918 26.011Z" fill="url(#paint5_linear_2995_9733)"/>
<path d="M24.8326 16.21L20.573 26.0111L9.20068 17.2088L24.8326 16.21Z" fill="url(#paint6_linear_2995_9733)"/>
<path d="M2.948 34.8105L10.6882 45.1096L15.532 34.3262L2.948 34.8105Z" fill="url(#paint7_linear_2995_9733)"/>
<path d="M2.948 34.8099L15.532 34.3256L9.20077 17.208L2.948 34.8099Z" fill="url(#paint8_linear_2995_9733)"/>
<path d="M9.20068 17.208L20.573 26.0103L21.1707 34.3256H15.5319L9.20068 17.208Z" fill="url(#paint9_linear_2995_9733)"/>
<path d="M20.573 26.0111H32.6918L24.8326 16.21L20.573 26.0111Z" fill="url(#paint10_linear_2995_9733)"/>
<path d="M20.573 26.0107H28.5539L24.8326 40.3823L21.1707 34.326L20.573 26.0107Z" fill="url(#paint11_linear_2995_9733)"/>
<path d="M41 84.4898L39.956 78.0978L38.0521 75.0684L31.7993 92.6675L41 84.4898Z" fill="url(#paint12_linear_2995_9733)"/>
<path d="M25.4656 103.575H16.6138L31.7995 92.668L25.4656 103.575Z" fill="url(#paint13_linear_2995_9733)"/>
<path d="M16.6138 103.575H12.0594L6.60986 101.483L16.1675 93.6689L16.6138 103.575Z" fill="url(#paint14_linear_2995_9733)"/>
<path d="M6.60988 101.483L3.21575 97.4854L1.51733 94.123L16.1675 93.6689L6.60988 101.483Z" fill="url(#paint15_linear_2995_9733)"/>
<path d="M1.51722 94.1233L0 88.3973L8.30818 83.8682L1.51722 94.1233Z" fill="url(#paint16_linear_2995_9733)"/>
<path d="M8.3083 83.8682L16.1675 93.6693L1.51733 94.1233L8.3083 83.8682Z" fill="url(#paint17_linear_2995_9733)"/>
<path d="M16.1675 93.6693L20.4243 83.8682L31.7994 92.6677L16.1675 93.6693Z" fill="url(#paint18_linear_2995_9733)"/>
<path d="M38.052 75.0687L30.3091 64.7695L25.4653 75.553L38.052 75.0687Z" fill="url(#paint19_linear_2995_9733)"/>
<path d="M20.4242 83.8682H8.30811L16.1673 93.6693L20.4242 83.8682Z" fill="url(#paint20_linear_2995_9733)"/>
<path d="M0 88.3972L0.535488 80.5222L5.30079 72.1602L8.30818 83.8681L0 88.3972Z" fill="url(#paint21_linear_2995_9733)"/>
<path d="M5.30078 72.1606L13.398 62.3457L16.1674 69.4943L12.446 83.8686H8.30817L5.30078 72.1606Z" fill="url(#paint22_linear_2995_9733)"/>
<path d="M13.3979 62.3457L30.3091 64.7698L25.4654 75.5533H19.8292L16.1673 69.4943L13.3979 62.3457Z" fill="url(#paint23_linear_2995_9733)"/>
<path d="M33.1082 105.823V108.641C33.1082 109.392 32.708 110 32.2131 110H26.1226L33.1082 105.823Z" fill="#718FAD"/>
<path d="M10.1012 103.696L8.25676 110C7.76184 110 7.36157 109.389 7.36157 108.641V105.056C7.36157 104.304 7.76184 103.699 8.25676 103.699H10.1012V103.696Z" fill="#BAC7DD"/>
<path d="M8.25684 110H13.9336L10.1013 103.696L8.25684 110Z" fill="#A1B5D1"/>
<path d="M16.4758 103.696L18.3635 110L10.0986 103.696H16.4758Z" fill="#BAC7DD"/>
<path d="M10.0986 103.696L18.3635 110H13.9336L10.0986 103.696Z" fill="#8DA7C6"/>
<path d="M17.5925 107.433L23.9021 103.696H16.4756L17.5925 107.433Z" fill="#8DA7C6"/>
<path d="M18.3633 110H26.1225L23.9021 103.696L17.5925 107.433L18.3633 110Z" fill="#A1B5D1"/>
<path d="M26.1225 110L30.0548 103.696H23.9021L26.1225 110Z" fill="#8DA7C6"/>
<path d="M33.1082 105.056V105.823L26.1226 110L30.0576 103.696H32.2131C32.708 103.696 33.1082 104.304 33.1082 105.056Z" fill="#85A7C9"/>
<defs>
<linearGradient id="paint0_linear_2995_9733" x1="-85.5109" y1="-17.8865" x2="18.2269" y2="22.6867" gradientUnits="userSpaceOnUse">
<stop stop-color="#F9D4F9"/>
<stop offset="1" stop-color="#4E7DD9" stop-opacity="0"/>
</linearGradient>
<linearGradient id="paint1_linear_2995_9733" x1="-87.8128" y1="-12.0011" x2="15.925" y2="28.5721" gradientUnits="userSpaceOnUse">
<stop stop-color="#F9D4F9"/>
<stop offset="1" stop-color="#4E7DD9" stop-opacity="0"/>
</linearGradient>
<linearGradient id="paint2_linear_2995_9733" x1="-82.1403" y1="-26.5045" x2="21.5975" y2="14.0687" gradientUnits="userSpaceOnUse">
<stop stop-color="#F9D4F9"/>
<stop offset="1" stop-color="#4E7DD9" stop-opacity="0"/>
</linearGradient>
<linearGradient id="paint3_linear_2995_9733" x1="-81.5352" y1="-28.0516" x2="22.2026" y2="12.5217" gradientUnits="userSpaceOnUse">
<stop stop-color="#F9D4F9"/>
<stop offset="1" stop-color="#4E7DD9" stop-opacity="0"/>
</linearGradient>
<linearGradient id="paint4_linear_2995_9733" x1="-79.9673" y1="-32.0608" x2="23.7706" y2="8.51245" gradientUnits="userSpaceOnUse">
<stop stop-color="#F9D4F9"/>
<stop offset="1" stop-color="#4E7DD9" stop-opacity="0"/>
</linearGradient>
<linearGradient id="paint5_linear_2995_9733" x1="-81.9791" y1="-26.9162" x2="21.7587" y2="13.657" gradientUnits="userSpaceOnUse">
<stop stop-color="#F9D4F9"/>
<stop offset="1" stop-color="#4E7DD9" stop-opacity="0"/>
</linearGradient>
<linearGradient id="paint6_linear_2995_9733" x1="-83.8853" y1="-22.0423" x2="19.8526" y2="18.5309" gradientUnits="userSpaceOnUse">
<stop stop-color="#F9D4F9"/>
<stop offset="1" stop-color="#4E7DD9" stop-opacity="0"/>
</linearGradient>
<linearGradient id="paint7_linear_2995_9733" x1="-91.4791" y1="-2.62634" x2="12.2587" y2="37.9469" gradientUnits="userSpaceOnUse">
<stop stop-color="#F9D4F9"/>
<stop offset="1" stop-color="#4E7DD9" stop-opacity="0"/>
</linearGradient>
<linearGradient id="paint8_linear_2995_9733" x1="-87.8127" y1="-12.0011" x2="15.9251" y2="28.572" gradientUnits="userSpaceOnUse">
<stop stop-color="#F9D4F9"/>
<stop offset="1" stop-color="#4E7DD9" stop-opacity="0"/>
</linearGradient>
<linearGradient id="paint9_linear_2995_9733" x1="-86.8708" y1="-14.4096" x2="16.867" y2="26.1635" gradientUnits="userSpaceOnUse">
<stop stop-color="#F9D4F9"/>
<stop offset="1" stop-color="#4E7DD9" stop-opacity="0"/>
</linearGradient>
<linearGradient id="paint10_linear_2995_9733" x1="-83.8853" y1="-22.0423" x2="19.8525" y2="18.5309" gradientUnits="userSpaceOnUse">
<stop stop-color="#F9D4F9"/>
<stop offset="1" stop-color="#4E7DD9" stop-opacity="0"/>
</linearGradient>
<linearGradient id="paint11_linear_2995_9733" x1="-87.421" y1="-13.0026" x2="16.3168" y2="27.5706" gradientUnits="userSpaceOnUse">
<stop stop-color="#F9D4F9"/>
<stop offset="1" stop-color="#4E7DD9" stop-opacity="0"/>
</linearGradient>
<linearGradient id="paint12_linear_2995_9733" x1="-103.405" y1="27.8648" x2="0.332927" y2="68.438" gradientUnits="userSpaceOnUse">
<stop stop-color="#F9D4F9"/>
<stop offset="1" stop-color="#4E7DD9" stop-opacity="0"/>
</linearGradient>
<linearGradient id="paint13_linear_2995_9733" x1="-109.682" y1="43.9159" x2="-5.94454" y2="84.4891" gradientUnits="userSpaceOnUse">
<stop stop-color="#F9D4F9"/>
<stop offset="1" stop-color="#4E7DD9" stop-opacity="0"/>
</linearGradient>
<linearGradient id="paint14_linear_2995_9733" x1="-111.25" y1="47.9245" x2="-7.5126" y2="88.4977" gradientUnits="userSpaceOnUse">
<stop stop-color="#F9D4F9"/>
<stop offset="1" stop-color="#4E7DD9" stop-opacity="0"/>
</linearGradient>
<linearGradient id="paint15_linear_2995_9733" x1="-111.25" y1="47.9246" x2="-7.51263" y2="88.4978" gradientUnits="userSpaceOnUse">
<stop stop-color="#F9D4F9"/>
<stop offset="1" stop-color="#4E7DD9" stop-opacity="0"/>
</linearGradient>
<linearGradient id="paint16_linear_2995_9733" x1="-109.239" y1="42.7808" x2="-5.5008" y2="83.354" gradientUnits="userSpaceOnUse">
<stop stop-color="#F9D4F9"/>
<stop offset="1" stop-color="#4E7DD9" stop-opacity="0"/>
</linearGradient>
<linearGradient id="paint17_linear_2995_9733" x1="-109.239" y1="42.7808" x2="-5.50069" y2="83.354" gradientUnits="userSpaceOnUse">
<stop stop-color="#F9D4F9"/>
<stop offset="1" stop-color="#4E7DD9" stop-opacity="0"/>
</linearGradient>
<linearGradient id="paint18_linear_2995_9733" x1="-107.332" y1="37.907" x2="-3.59453" y2="78.4802" gradientUnits="userSpaceOnUse">
<stop stop-color="#F9D4F9"/>
<stop offset="1" stop-color="#4E7DD9" stop-opacity="0"/>
</linearGradient>
<linearGradient id="paint19_linear_2995_9733" x1="-99.7386" y1="18.4909" x2="3.99924" y2="59.0641" gradientUnits="userSpaceOnUse">
<stop stop-color="#F9D4F9"/>
<stop offset="1" stop-color="#4E7DD9" stop-opacity="0"/>
</linearGradient>
<linearGradient id="paint20_linear_2995_9733" x1="-107.332" y1="37.907" x2="-3.59467" y2="78.4802" gradientUnits="userSpaceOnUse">
<stop stop-color="#F9D4F9"/>
<stop offset="1" stop-color="#4E7DD9" stop-opacity="0"/>
</linearGradient>
<linearGradient id="paint21_linear_2995_9733" x1="-106.605" y1="36.0466" x2="-2.86695" y2="76.6198" gradientUnits="userSpaceOnUse">
<stop stop-color="#F9D4F9"/>
<stop offset="1" stop-color="#4E7DD9" stop-opacity="0"/>
</linearGradient>
<linearGradient id="paint22_linear_2995_9733" x1="-103.062" y1="26.9887" x2="0.675859" y2="67.5619" gradientUnits="userSpaceOnUse">
<stop stop-color="#F9D4F9"/>
<stop offset="1" stop-color="#4E7DD9" stop-opacity="0"/>
</linearGradient>
<linearGradient id="paint23_linear_2995_9733" x1="-100.124" y1="19.4764" x2="3.61395" y2="60.0496" gradientUnits="userSpaceOnUse">
<stop stop-color="#F9D4F9"/>
<stop offset="1" stop-color="#4E7DD9" stop-opacity="0"/>
</linearGradient>
</defs>
</svg>
