<svg width="80" height="80" viewBox="0 0 80 80" fill="none" xmlns="http://www.w3.org/2000/svg">
<path d="M47.8305 36.9592L53.1688 27.9013L67.5573 50.3121L67.5641 54.6128L67.5172 25.0175C67.4831 24.2941 67.099 23.6322 66.4861 23.242L40.5813 8.34112C39.9754 8.04336 39.2068 8.04652 38.602 8.35037C38.5204 8.39143 38.4434 8.43587 38.3701 8.48437L38.2799 8.54121L13.1351 23.1125L13.0374 23.1567C12.912 23.2144 12.7852 23.2878 12.6661 23.373C12.1894 23.715 11.8727 24.2205 11.7703 24.7876C11.755 24.8736 11.7437 24.9611 11.7383 25.0493L11.7778 49.1666L25.1801 28.3937C26.8674 25.6392 30.5439 24.752 33.9567 24.8003L37.9623 24.9061L14.3613 62.7553L17.1434 64.3571L41.0272 24.9444L51.5839 24.9061L27.7616 65.3134L37.6889 71.0232L38.875 71.7054C39.3767 71.9093 39.9681 71.9194 40.4741 71.7369L66.743 56.5137L61.7207 59.4239L47.8305 36.9592ZM49.8672 66.2933L39.8405 50.5564L45.9611 40.1703L59.1293 60.9256L49.8672 66.2933Z" fill="#2D374B"/>
<path d="M39.8438 50.557L49.8705 66.2939L59.1328 60.9262L45.9646 40.1709L39.8438 50.557Z" fill="#28A0F0"/>
<path d="M67.5657 54.6119L67.5589 50.3112L53.1704 27.9004L47.832 36.9583L61.7223 59.423L66.7446 56.5128C67.2372 56.1129 67.5352 55.5257 67.5666 54.8921L67.5657 54.6119Z" fill="#28A0F0"/>
<path d="M7.26585 58.6652L14.3581 62.7518L37.959 24.9026L33.9534 24.7968C30.5407 24.7485 26.8644 25.6357 25.1768 28.3902L11.7745 49.1631L7.26562 56.0909V58.6652H7.26585Z" fill="white"/>
<path d="M51.5887 24.9023L41.0323 24.9407L17.1484 64.3534L25.4964 69.16L27.7667 65.3096L51.5887 24.9023Z" fill="white"/>
<path d="M72.0095 24.8503C71.9213 22.6426 70.726 20.6214 68.8535 19.4448L42.6091 4.35243C40.7569 3.41966 38.4429 3.41853 36.5878 4.35175C36.3685 4.46228 11.0655 19.1371 11.0655 19.1371C10.7154 19.3049 10.3782 19.505 10.0608 19.7319C8.38923 20.93 7.37029 22.7915 7.26562 24.8368V56.0932L11.7745 49.1655L11.735 25.0482C11.7404 24.96 11.7515 24.8733 11.7671 24.7876C11.8688 24.2201 12.1857 23.7139 12.6628 23.3719C12.7819 23.2866 38.5169 8.39029 38.5988 8.34924C39.2038 8.04538 39.9723 8.04222 40.578 8.33999L66.4829 23.2408C67.0958 23.6311 67.4799 24.2929 67.514 25.0164V54.8918C67.4826 55.5255 67.2322 56.1124 66.7396 56.5126L61.7173 59.4228L59.126 60.9245L49.8638 66.2921L40.4706 71.7358C39.9647 71.9185 39.3732 71.9083 38.8715 71.7042L27.7581 65.3122L25.4879 69.1624L35.4752 74.9126C35.8054 75.1003 36.0998 75.2668 36.3412 75.4026C36.7152 75.6124 36.9699 75.7524 37.0599 75.796C37.7698 76.1407 38.791 76.3414 39.7114 76.3414C40.5552 76.3414 41.3779 76.1864 42.1566 75.8815L69.4393 60.0812C71.0053 58.8681 71.9265 57.0384 72.0095 55.0563V24.8503Z" fill="#96BEDC"/>
</svg>
