<svg width="44" height="32" viewBox="0 0 44 32" fill="none" xmlns="http://www.w3.org/2000/svg">
<path fill-rule="evenodd" clip-rule="evenodd" d="M4.792 2.89799C4.792 2.89799 0.860583 -0.24422 0.590207 7.51631C0.31983 13.5304 0.327138 25.2077 3.11128 30.7248C4.28779 32.8001 5.85889 32.1644 8.78188 30.0964C11.3249 28.2184 20.525 19.7417 24.4199 16.0222C28.3147 12.3027 36.2141 1.6338 37.8583 8.88281C38.5087 11.93 39.3125 14.5169 38.6986 21.2763C38.5087 23.3589 37.6171 24.9373 33.5542 22.1166C30.4851 20.1436 27.5694 18.0244 27.5694 18.0244C27.5694 18.0244 27.0067 17.016 25.6767 18.6529C24.6318 19.9609 24.1056 20.2825 25.779 21.2763C27.4598 22.2701 35.9583 28.1307 39.2175 29.0441C41.9066 29.826 43.4412 29.8114 43.5216 24.5281C43.507 20.3336 43.2658 8.32744 41.7386 3.21221C40.584 0.0261568 38.8886 -1.42072 35.2276 2.15994C31.5666 5.7406 20.0208 16.9356 13.7071 22.007C9.51993 25.1492 7.7296 27.9845 6.15119 22.7451C5.04045 18.7771 3.60088 6.4275 8.14613 8.7805C10.9887 10.1397 12.4064 10.1324 11.2956 10.9874C10.1849 11.835 6.99155 14.7653 6.99155 14.7653C6.99155 14.7653 6.00504 15.5618 6.46541 17.2864C6.92578 18.4921 6.92578 19.0913 9.40301 16.7603C11.8802 14.4292 13.7071 12.6681 13.7071 12.6681C13.7071 12.6681 14.1017 12.0469 15.2782 13.1942C16.4547 14.3415 16.6447 14.663 16.6447 14.663C16.6447 14.663 16.9589 15.518 18.2158 14.0346C19.48 12.5512 20.2911 11.645 17.9016 10.2566C15.5194 8.85358 4.792 2.89799 4.792 2.89799Z" fill="#364253"/>
</svg>
