<svg width="22" height="17" viewBox="0 0 22 17" fill="none" xmlns="http://www.w3.org/2000/svg">
<path fill-rule="evenodd" clip-rule="evenodd" d="M2.20492 1.44825C2.20492 1.44825 0.195528 -0.157766 0.057336 3.80872C-0.0808561 6.88256 -0.0771211 12.851 1.34588 15.6708C1.94721 16.7315 2.75021 16.4066 4.24418 15.3496C5.54394 14.3898 10.2462 10.0572 12.2369 8.15617C14.2276 6.25509 18.2651 0.802109 19.1054 4.50715C19.4378 6.06461 19.8487 7.38678 19.535 10.8416C19.4378 11.906 18.9822 12.7128 16.9056 11.2711C15.3369 10.2627 13.8467 9.17954 13.8467 9.17954C13.8467 9.17954 13.5591 8.66412 12.8793 9.50074C12.3452 10.1693 12.0763 10.3336 12.9316 10.8416C13.7906 11.3495 18.1344 14.3449 19.8001 14.8118C21.1746 15.2114 21.9589 15.204 22 12.5036C21.9925 10.3598 21.8693 4.2233 21.0887 1.60885C20.4986 -0.0195736 19.6321 -0.759088 17.7609 1.07102C15.8897 2.90114 9.98849 8.62303 6.76152 11.2151C4.62141 12.8211 3.70635 14.2702 2.89961 11.5923C2.3319 9.56424 1.59612 3.25222 3.91924 4.45486C5.37213 5.14956 6.0967 5.14582 5.529 5.58281C4.96129 6.01606 3.32913 7.51376 3.32913 7.51376C3.32913 7.51376 2.82491 7.92087 3.06021 8.80231C3.29551 9.41857 3.29551 9.72484 4.56165 8.5334C5.82779 7.34196 6.76152 6.44184 6.76152 6.44184C6.76152 6.44184 6.96321 6.12437 7.56453 6.71076C8.16585 7.29714 8.26296 7.46147 8.26296 7.46147C8.26296 7.46147 8.42356 7.89846 9.06597 7.14027C9.71211 6.38208 10.1267 5.91895 8.90536 5.20932C7.68778 4.49221 2.20492 1.44825 2.20492 1.44825Z" fill="#364253"/>
</svg>
