<svg width="33" height="40" viewBox="0 0 33 40" fill="none" xmlns="http://www.w3.org/2000/svg">
<path fill-rule="evenodd" clip-rule="evenodd" d="M19.6479 34.8614C29.8836 34.4278 32.7269 27.2094 32.7269 27.2094L28.0353 24.6562C25.192 30.1882 19.6475 29.5462 19.6475 29.5462V34.7552C11.7605 34.5147 5.4409 28.0607 5.4409 20.1333C5.4409 12.2059 11.7605 5.75187 19.6475 5.51123V10.8259C19.6475 10.8259 25.192 10.184 28.0353 15.7159L32.7269 13.1623C32.7269 13.1623 29.8836 5.94428 19.6479 5.51076V0C8.76027 0.214222 0 9.08575 0 20C0 30.9143 8.76027 39.7858 19.6479 40V34.8614ZM10.6045 20.2237C10.6045 15.2034 14.544 11.1022 19.5061 10.8262V29.6213C14.5436 29.3453 10.6045 25.244 10.6045 20.2237Z" fill="#364253"/>
</svg>
