<svg width="17" height="27" viewBox="0 0 17 27" fill="none" xmlns="http://www.w3.org/2000/svg">
<path d="M11.0596 7.99962C11.0596 4.27265 9.26298 1.06173 7.88687 0.0105315C7.88687 0.0105315 7.79131 -0.0468065 7.79131 0.106095C7.67663 7.31156 4.02612 9.28016 2.00018 11.8986C-2.64419 17.9764 1.67526 24.6276 6.07117 25.8508C8.5367 26.5389 5.49779 24.6276 5.11554 20.614C4.65684 15.7402 11.0596 12.0324 11.0596 7.99962Z" fill="#364253"/>
<path d="M13.4673 10.4655C13.4482 10.4464 13.41 10.4464 13.3717 10.4655C13.3717 10.4655 13.3717 10.4655 13.3526 10.4846C13.2762 11.3829 12.2823 13.3324 11.04 15.1099C6.81609 21.1495 9.22428 24.0546 10.5813 25.6218C11.3649 26.5392 10.5813 25.6218 12.5499 24.6853C12.7028 24.6089 16.3724 22.6594 16.7738 18.2444C17.1751 13.944 14.442 11.2491 13.4673 10.4655Z" fill="#364253"/>
</svg>
