<svg width="28" height="44" viewBox="0 0 28 44" fill="none" xmlns="http://www.w3.org/2000/svg">
<path d="M18.4174 13.3217C18.4174 7.11521 15.4256 1.76808 13.1339 0.0175379C13.1339 0.0175379 12.9748 -0.0779464 12.9748 0.176679C12.7838 12.1759 6.70466 15.4542 3.33088 19.8146C-4.40335 29.936 2.7898 41.0122 10.1103 43.0492C14.2161 44.195 9.15543 41.0122 8.51887 34.3283C7.75499 26.2121 18.4174 20.0374 18.4174 13.3217Z" fill="#364253"/>
<path d="M22.4273 17.4262C22.3954 17.3944 22.3318 17.3944 22.2681 17.4262C22.2681 17.4262 22.2681 17.4262 22.2363 17.458C22.109 18.954 20.4539 22.2004 18.3851 25.1604C11.3511 35.2181 15.3614 40.056 17.6212 42.6659C18.9262 44.1937 17.6212 42.6659 20.8995 41.1063C21.1542 40.979 27.2652 37.7326 27.9335 30.3803C28.6019 23.2189 24.0505 18.7312 22.4273 17.4262Z" fill="#364253"/>
</svg>
