<svg width="40" height="40" viewBox="0 0 40 40" fill="none" xmlns="http://www.w3.org/2000/svg">
<circle cx="20" cy="20" r="19.5" fill="#01052D" stroke="#FEFEFF"/>
<mask id="path-2-inside-1_325_7588" fill="white">
<path fill-rule="evenodd" clip-rule="evenodd" d="M23.1201 8.5434L23.1953 8.46837L23.068 8.80313L22.3042 11.9257L16.6566 11.9257L15.7597 8.29233L17.3857 9.8536L16.4714 9.52749L17.2642 10.9185L18.4215 10.9185L18.9364 9.02246L18.1408 9.56212L19.4977 6.96482L20.7766 9.50152L20.0388 9.00803L20.5509 10.9416L21.7255 10.9416L22.4373 9.73239L21.5693 10.0383L23.1201 8.56072L23.1201 8.5434ZM16.0679 12.4275L15.5991 11.5906L14.4245 11.5906L13.0589 12.6526L14.5257 12.0004L16.0679 12.4275ZM23.9586 16.1651L24.9075 16.6384L24.4736 15.7553L23.811 15.7553L23.3539 14.5374L22.4859 13.8333L22.3181 13.5447L22.3181 13.1349L23.5419 13.3484L22.3036 12.702L16.5634 12.702L15.3396 13.36L16.5634 13.1464L16.5634 13.5562L15.9385 14.5374L15.49 15.7553L14.8275 15.7553L14.4166 16.6384L15.3396 16.1651L16.4245 14.4653L16.6097 15.1233L18.6089 15.8765L19.0834 15.4205L18.9532 14.7885L18.852 14.3239L19.2339 15.1896L19.3265 15.9429L19.9717 15.9429L20.0642 15.1896L20.449 14.3239L20.2234 15.4205L20.7008 15.8765L22.7 15.1319L22.8823 14.5028L22.8823 14.4653L23.9586 16.1651ZM21.0573 15.8507L21.0573 16.3788L21.6359 16.3788L21.6359 16.1652L22.2146 16.1652L22.747 15.588L22.1943 15.8391L21.0573 15.8507ZM18.2516 15.8507L18.2516 16.3788L17.6729 16.3788L17.6729 16.1652L17.0943 16.1652L16.5619 15.588L17.0943 15.8507L18.2516 15.8507ZM20.2765 21.7616L20.696 21.1585L18.607 21.1585L19.0266 21.7616L20.2765 21.7616ZM21.3358 23.0344L21.3358 25.0343L21.7003 23.2364L23.7082 25.8337L23.7082 28.0645L23.1845 26.5234L23.118 27.5451L21.8565 28.6994L21.8189 29.4065L21.6048 28.3675L22.4092 27.5018L22.4468 26.5177L21.8189 25.6894L21.8942 27.3661L21.0262 28.1944L21.8565 31.2044L20.7455 28.7225L20.3173 30.1654L20.3173 28.3791L19.785 31.6517L20.1871 33.314L19.1398 31.6517L18.5611 28.7225L17.4501 31.2044L18.1966 28.1338L17.4212 27.3806L17.4762 25.6894L16.8483 26.509L16.8773 27.4931L17.6816 28.3589L17.4646 29.3978L17.4385 28.6908L16.1684 27.5364L16.1105 26.5148L15.5898 28.0559L15.5898 25.8453L17.5861 23.248L17.9622 25.0343L17.9622 23.0344L18.7116 21.9666L19.3828 21.9666L20.1582 23.1008L20.1293 21.9666L20.5864 21.9666L21.3358 23.0344ZM14.8635 13.9338L15.7026 13.9338L16.0671 13.6192L15.1529 13.6192L14.6002 12.9208L13.8451 12.9208L12.7804 15.2815L14.1055 13.4894L14.8635 13.9338ZM14.2019 14.8928L13.7331 15.4498L12.6164 16.229L11.3086 15.8769L12.6019 15.8769L14.1093 14.3156L15.6022 14.2406L14.9483 14.8928L14.2019 14.8928ZM11.887 18.7309L13.1108 17.1408L14.2942 16.1653L14.5256 15.2823L12.9488 16.3616L11.887 18.7309ZM24.1076 13.6L24.6602 12.9045L25.4154 12.9045L26.4801 15.2651L25.155 13.4701L24.3883 13.9261L23.5579 13.9261L23.1934 13.6L24.1076 13.6ZM23.6585 14.2229L24.3269 14.8723L25.0502 14.8723L25.516 15.4321L26.6415 16.22L27.9637 15.8766L26.6415 15.8766L25.1457 14.3066L23.6585 14.2229ZM27.3677 18.7141L26.1525 17.1326L24.9576 16.1659L24.7319 15.2655L26.3116 16.3419L27.3677 18.7141ZM24.4552 12.0004L22.9218 12.4275L23.3789 11.5906L24.5565 11.5906L25.9192 12.6526L24.4552 12.0004ZM25.5294 17.94L26.2383 18.2707L26.2383 18.2488L27.7515 20.7826L26.2383 19.4753L26.2383 19.4926L25.6307 20.2833L25.4166 19.178L25.4166 20.5806L24.8669 20.9413L24.7454 21.6484L25.0607 21.8533L25.8361 21.6484L25.0549 22.3265L24.4011 21.9167L24.2333 22.7825L24.6181 23.5271L24.5284 24.0177L23.8282 23.0336L24.5284 24.3986L24.268 26.4793L24.268 25.2615L23.1367 23.7291L23.1367 20.95L22.6333 22.5574L22.1299 21.025L21.8405 21.8157L21.5975 20.8865L20.8019 20.4017L21.5975 21.3598L20.3187 20.4017L19.9541 20.6902L19.3379 20.6902L18.982 20.4017L17.7032 21.3598L18.5075 20.4132L17.7148 20.898L17.4717 21.8273L17.1824 21.0365L16.679 22.569L16.1727 20.9615L16.1727 23.7406L15.0443 25.273L15.0443 26.5024L14.781 24.4188L15.4812 23.0538L14.781 24.0379L14.6884 23.5444L15.0703 22.8027L14.891 21.9369L14.2458 22.3381L13.4733 21.6484L14.2458 21.8533L14.5553 21.6484L14.4367 20.9442L13.887 20.5806L13.887 19.1867L13.67 20.292L13.074 19.5013L11.5608 20.8028L13.074 18.2747L13.7915 17.94L13.8378 17.2445L14.1561 18.2286L13.5022 18.7769L13.5022 19.2011L14.6798 18.2459L14.2978 19.0164L14.4917 20.1708L15.2092 21.4059L14.7984 20.2054L14.8157 18.8837L16.0222 17.4696L15.1803 19.0511L15.2179 20.1708L16.3029 18.8058L16.3029 18.1997L15.9383 16.8809L16.0685 16.1652L16.6182 16.1652L18.2905 16.8635L17.0117 17.1031L18.2529 17.0309L17.5267 17.5677L18.3947 17.5417L19.1498 16.6038L20.1711 16.6038L20.9263 17.5417L21.7943 17.5677L21.0565 17.0309L22.2977 17.1031L21.0189 16.8635L22.7085 16.1652L23.2582 16.1652L23.3798 16.8837L23.0152 18.2026L23.0152 18.8086L24.0915 20.1737L24.1175 19.0511L23.2785 17.4552L24.4937 18.8692L24.5197 20.2054L24.1089 21.4175L24.8322 20.1737L25.0289 19.0193L24.6441 18.2488L25.8217 19.204L25.8217 18.7769L25.1678 18.2286L25.486 17.2445L25.5294 17.94ZM21.2156 19.4291L20.7845 19.4291L20.7672 19.6427L19.7863 20.3295L19.5231 20.3295L18.5422 19.6427L18.5249 19.4291L18.0938 19.4291L16.8728 20.5517L17.599 18.9356L17.9636 18.8894L18.739 18.2286L19.1498 18.2286L19.1498 18.4248L18.8605 18.4248L18.5249 18.7307L18.5249 19.3541L18.8605 19.3714L19.2337 19.66L20.0757 19.66L20.4489 19.3714L20.7845 19.3541L20.7845 18.7307L20.4489 18.4248L20.1596 18.4248L20.1596 18.2286L20.5675 18.2286L21.3429 18.8894L21.6959 18.9356L22.425 20.5517L21.2156 19.4291Z"/>
</mask>
<path fill-rule="evenodd" clip-rule="evenodd" d="M23.1201 8.5434L23.1953 8.46837L23.068 8.80313L22.3042 11.9257L16.6566 11.9257L15.7597 8.29233L17.3857 9.8536L16.4714 9.52749L17.2642 10.9185L18.4215 10.9185L18.9364 9.02246L18.1408 9.56212L19.4977 6.96482L20.7766 9.50152L20.0388 9.00803L20.5509 10.9416L21.7255 10.9416L22.4373 9.73239L21.5693 10.0383L23.1201 8.56072L23.1201 8.5434ZM16.0679 12.4275L15.5991 11.5906L14.4245 11.5906L13.0589 12.6526L14.5257 12.0004L16.0679 12.4275ZM23.9586 16.1651L24.9075 16.6384L24.4736 15.7553L23.811 15.7553L23.3539 14.5374L22.4859 13.8333L22.3181 13.5447L22.3181 13.1349L23.5419 13.3484L22.3036 12.702L16.5634 12.702L15.3396 13.36L16.5634 13.1464L16.5634 13.5562L15.9385 14.5374L15.49 15.7553L14.8275 15.7553L14.4166 16.6384L15.3396 16.1651L16.4245 14.4653L16.6097 15.1233L18.6089 15.8765L19.0834 15.4205L18.9532 14.7885L18.852 14.3239L19.2339 15.1896L19.3265 15.9429L19.9717 15.9429L20.0642 15.1896L20.449 14.3239L20.2234 15.4205L20.7008 15.8765L22.7 15.1319L22.8823 14.5028L22.8823 14.4653L23.9586 16.1651ZM21.0573 15.8507L21.0573 16.3788L21.6359 16.3788L21.6359 16.1652L22.2146 16.1652L22.747 15.588L22.1943 15.8391L21.0573 15.8507ZM18.2516 15.8507L18.2516 16.3788L17.6729 16.3788L17.6729 16.1652L17.0943 16.1652L16.5619 15.588L17.0943 15.8507L18.2516 15.8507ZM20.2765 21.7616L20.696 21.1585L18.607 21.1585L19.0266 21.7616L20.2765 21.7616ZM21.3358 23.0344L21.3358 25.0343L21.7003 23.2364L23.7082 25.8337L23.7082 28.0645L23.1845 26.5234L23.118 27.5451L21.8565 28.6994L21.8189 29.4065L21.6048 28.3675L22.4092 27.5018L22.4468 26.5177L21.8189 25.6894L21.8942 27.3661L21.0262 28.1944L21.8565 31.2044L20.7455 28.7225L20.3173 30.1654L20.3173 28.3791L19.785 31.6517L20.1871 33.314L19.1398 31.6517L18.5611 28.7225L17.4501 31.2044L18.1966 28.1338L17.4212 27.3806L17.4762 25.6894L16.8483 26.509L16.8773 27.4931L17.6816 28.3589L17.4646 29.3978L17.4385 28.6908L16.1684 27.5364L16.1105 26.5148L15.5898 28.0559L15.5898 25.8453L17.5861 23.248L17.9622 25.0343L17.9622 23.0344L18.7116 21.9666L19.3828 21.9666L20.1582 23.1008L20.1293 21.9666L20.5864 21.9666L21.3358 23.0344ZM14.8635 13.9338L15.7026 13.9338L16.0671 13.6192L15.1529 13.6192L14.6002 12.9208L13.8451 12.9208L12.7804 15.2815L14.1055 13.4894L14.8635 13.9338ZM14.2019 14.8928L13.7331 15.4498L12.6164 16.229L11.3086 15.8769L12.6019 15.8769L14.1093 14.3156L15.6022 14.2406L14.9483 14.8928L14.2019 14.8928ZM11.887 18.7309L13.1108 17.1408L14.2942 16.1653L14.5256 15.2823L12.9488 16.3616L11.887 18.7309ZM24.1076 13.6L24.6602 12.9045L25.4154 12.9045L26.4801 15.2651L25.155 13.4701L24.3883 13.9261L23.5579 13.9261L23.1934 13.6L24.1076 13.6ZM23.6585 14.2229L24.3269 14.8723L25.0502 14.8723L25.516 15.4321L26.6415 16.22L27.9637 15.8766L26.6415 15.8766L25.1457 14.3066L23.6585 14.2229ZM27.3677 18.7141L26.1525 17.1326L24.9576 16.1659L24.7319 15.2655L26.3116 16.3419L27.3677 18.7141ZM24.4552 12.0004L22.9218 12.4275L23.3789 11.5906L24.5565 11.5906L25.9192 12.6526L24.4552 12.0004ZM25.5294 17.94L26.2383 18.2707L26.2383 18.2488L27.7515 20.7826L26.2383 19.4753L26.2383 19.4926L25.6307 20.2833L25.4166 19.178L25.4166 20.5806L24.8669 20.9413L24.7454 21.6484L25.0607 21.8533L25.8361 21.6484L25.0549 22.3265L24.4011 21.9167L24.2333 22.7825L24.6181 23.5271L24.5284 24.0177L23.8282 23.0336L24.5284 24.3986L24.268 26.4793L24.268 25.2615L23.1367 23.7291L23.1367 20.95L22.6333 22.5574L22.1299 21.025L21.8405 21.8157L21.5975 20.8865L20.8019 20.4017L21.5975 21.3598L20.3187 20.4017L19.9541 20.6902L19.3379 20.6902L18.982 20.4017L17.7032 21.3598L18.5075 20.4132L17.7148 20.898L17.4717 21.8273L17.1824 21.0365L16.679 22.569L16.1727 20.9615L16.1727 23.7406L15.0443 25.273L15.0443 26.5024L14.781 24.4188L15.4812 23.0538L14.781 24.0379L14.6884 23.5444L15.0703 22.8027L14.891 21.9369L14.2458 22.3381L13.4733 21.6484L14.2458 21.8533L14.5553 21.6484L14.4367 20.9442L13.887 20.5806L13.887 19.1867L13.67 20.292L13.074 19.5013L11.5608 20.8028L13.074 18.2747L13.7915 17.94L13.8378 17.2445L14.1561 18.2286L13.5022 18.7769L13.5022 19.2011L14.6798 18.2459L14.2978 19.0164L14.4917 20.1708L15.2092 21.4059L14.7984 20.2054L14.8157 18.8837L16.0222 17.4696L15.1803 19.0511L15.2179 20.1708L16.3029 18.8058L16.3029 18.1997L15.9383 16.8809L16.0685 16.1652L16.6182 16.1652L18.2905 16.8635L17.0117 17.1031L18.2529 17.0309L17.5267 17.5677L18.3947 17.5417L19.1498 16.6038L20.1711 16.6038L20.9263 17.5417L21.7943 17.5677L21.0565 17.0309L22.2977 17.1031L21.0189 16.8635L22.7085 16.1652L23.2582 16.1652L23.3798 16.8837L23.0152 18.2026L23.0152 18.8086L24.0915 20.1737L24.1175 19.0511L23.2785 17.4552L24.4937 18.8692L24.5197 20.2054L24.1089 21.4175L24.8322 20.1737L25.0289 19.0193L24.6441 18.2488L25.8217 19.204L25.8217 18.7769L25.1678 18.2286L25.486 17.2445L25.5294 17.94ZM21.2156 19.4291L20.7845 19.4291L20.7672 19.6427L19.7863 20.3295L19.5231 20.3295L18.5422 19.6427L18.5249 19.4291L18.0938 19.4291L16.8728 20.5517L17.599 18.9356L17.9636 18.8894L18.739 18.2286L19.1498 18.2286L19.1498 18.4248L18.8605 18.4248L18.5249 18.7307L18.5249 19.3541L18.8605 19.3714L19.2337 19.66L20.0757 19.66L20.4489 19.3714L20.7845 19.3541L20.7845 18.7307L20.4489 18.4248L20.1596 18.4248L20.1596 18.2286L20.5675 18.2286L21.3429 18.8894L21.6959 18.9356L22.425 20.5517L21.2156 19.4291Z" fill="#EEEEEE"/>
<path d="M23.1953 8.46837L24.13 8.82381L22.4891 7.76036L23.1953 8.46837ZM23.1201 8.5434L22.4139 7.83539L22.1201 8.12844L22.1201 8.5434L23.1201 8.5434ZM23.068 8.80313L22.1333 8.44768L22.1113 8.50547L22.0966 8.56552L23.068 8.80313ZM22.3042 11.9257L22.3042 12.9257L23.0891 12.9257L23.2756 12.1633L22.3042 11.9257ZM16.6566 11.9257L15.6857 12.1653L15.8734 12.9257L16.6566 12.9257L16.6566 11.9257ZM15.7597 8.29233L16.4523 7.57101L13.9611 5.17904L14.7888 8.53199L15.7597 8.29233ZM17.3857 9.8536L17.0497 10.7955L18.0783 9.13228L17.3857 9.8536ZM16.4714 9.52749L16.8074 8.58561L14.2673 7.6796L15.6026 10.0226L16.4714 9.52749ZM17.2642 10.9185L16.3953 11.4136L16.6831 11.9185L17.2642 11.9185L17.2642 10.9185ZM18.4215 10.9185L18.4215 11.9185L19.1861 11.9185L19.3865 11.1806L18.4215 10.9185ZM18.9364 9.02246L19.9015 9.28458L20.609 6.67967L18.3751 8.19487L18.9364 9.02246ZM18.1408 9.56212L17.2545 9.09907L18.7021 10.3897L18.1408 9.56212ZM19.4977 6.96482L20.3907 6.51466L19.5136 4.77486L18.6114 6.50176L19.4977 6.96482ZM20.7766 9.50152L20.2206 10.3327L23.3813 12.4468L21.6695 9.05136L20.7766 9.50152ZM20.0388 9.00803L20.5948 8.17683L18.3943 6.70501L19.0721 9.26405L20.0388 9.00803ZM20.5509 10.9416L19.5842 11.1976L19.7813 11.9416L20.5509 11.9416L20.5509 10.9416ZM21.7255 10.9416L21.7255 11.9416L22.2973 11.9416L22.5873 11.4488L21.7255 10.9416ZM22.4373 9.73239L23.2991 10.2396L24.6888 7.87858L22.1049 8.78925L22.4373 9.73239ZM21.5693 10.0383L20.8795 9.31431L21.9017 10.9814L21.5693 10.0383ZM23.1201 8.56072L23.8099 9.2847L24.1201 8.98916L24.1201 8.56072L23.1201 8.56072ZM15.5991 11.5906L16.4716 11.102L16.1852 10.5906L15.5991 10.5906L15.5991 11.5906ZM16.0679 12.4275L15.8009 13.3912L18.1122 14.0314L16.9403 11.9389L16.0679 12.4275ZM14.4245 11.5906L14.4245 10.5906L14.0814 10.5906L13.8106 10.8012L14.4245 11.5906ZM13.0589 12.6526L12.445 11.8632L13.4651 13.5664L13.0589 12.6526ZM14.5257 12.0004L14.7927 11.0367L14.4471 10.941L14.1195 11.0867L14.5257 12.0004ZM24.9075 16.6384L24.4612 17.5332L27.111 18.8548L25.805 16.1973L24.9075 16.6384ZM23.9586 16.1651L23.1137 16.7L23.2628 16.9356L23.5123 17.06L23.9586 16.1651ZM24.4736 15.7553L25.371 15.3142L25.0963 14.7553L24.4736 14.7553L24.4736 15.7553ZM23.811 15.7553L22.8748 16.1067L23.1182 16.7553L23.811 16.7553L23.811 15.7553ZM23.3539 14.5374L24.2901 14.186L24.1947 13.9319L23.9839 13.7609L23.3539 14.5374ZM22.4859 13.8333L21.6214 14.336L21.7135 14.4944L21.8559 14.6099L22.4859 13.8333ZM22.3181 13.5447L21.3181 13.5447L21.3181 13.8143L21.4536 14.0474L22.3181 13.5447ZM22.3181 13.1349L22.49 12.1498L21.3181 11.9453L21.3181 13.1349L22.3181 13.1349ZM23.5419 13.3484L23.37 14.3336L24.0047 12.462L23.5419 13.3484ZM22.3036 12.702L22.7664 11.8155L22.5489 11.702L22.3036 11.702L22.3036 12.702ZM16.5634 12.702L16.5634 11.702L16.3116 11.702L16.0899 11.8212L16.5634 12.702ZM15.3396 13.36L14.866 12.4792L15.5115 14.3451L15.3396 13.36ZM16.5634 13.1464L17.5634 13.1464L17.5634 11.9568L16.3915 12.1613L16.5634 13.1464ZM16.5634 13.5562L17.4069 14.0934L17.5634 13.8476L17.5634 13.5562L16.5634 13.5562ZM15.9385 14.5374L15.095 14.0002L15.0372 14.091L15.0001 14.1919L15.9385 14.5374ZM15.49 15.7553L15.49 16.7553L16.1874 16.7553L16.4284 16.1008L15.49 15.7553ZM14.8275 15.7553L14.8275 14.7553L14.1898 14.7553L13.9208 15.3335L14.8275 15.7553ZM14.4166 16.6384L13.5099 16.2165L12.2815 18.8571L14.8729 17.5282L14.4166 16.6384ZM15.3396 16.1651L15.7959 17.0549L16.0368 16.9314L16.1825 16.7031L15.3396 16.1651ZM16.4245 14.4653L17.3871 14.1944L16.7825 12.0458L15.5816 13.9273L16.4245 14.4653ZM16.6097 15.1233L15.6471 15.3942L15.784 15.8808L16.2571 16.0591L16.6097 15.1233ZM18.6089 15.8765L18.2564 16.8123L18.8469 17.0347L19.3018 16.5975L18.6089 15.8765ZM19.0834 15.4205L19.7763 16.1416L20.1742 15.7592L20.0629 15.2188L19.0834 15.4205ZM18.9532 14.7885L19.9327 14.5867L19.9303 14.5756L18.9532 14.7885ZM18.852 14.3239L19.7669 13.9203L17.8749 14.5368L18.852 14.3239ZM19.2339 15.1896L20.2264 15.0676L20.2084 14.9211L20.1488 14.786L19.2339 15.1896ZM19.3265 15.9429L18.3339 16.0649L18.4419 16.9429L19.3265 16.9429L19.3265 15.9429ZM19.9717 15.9429L19.9717 16.9429L20.8563 16.9429L20.9642 16.0649L19.9717 15.9429ZM20.0642 15.1896L19.1504 14.7835L19.0899 14.9197L19.0717 15.0676L20.0642 15.1896ZM20.449 14.3239L21.4285 14.5254L19.5352 13.9177L20.449 14.3239ZM20.2234 15.4205L19.2439 15.219L19.1323 15.7612L19.5327 16.1437L20.2234 15.4205ZM20.7008 15.8765L20.0101 16.5996L20.4629 17.0322L21.0498 16.8136L20.7008 15.8765ZM22.7 15.1319L23.049 16.0691L23.5205 15.8935L23.6605 15.4102L22.7 15.1319ZM22.8823 14.5028L23.8428 14.7811L23.8823 14.6448L23.8823 14.5028L22.8823 14.5028ZM22.8823 14.4653L23.7271 13.9303L21.8823 11.0167L21.8823 14.4653L22.8823 14.4653ZM21.0573 16.3788L20.0573 16.3788L20.0573 17.3788L21.0573 17.3788L21.0573 16.3788ZM21.0573 15.8507L21.0471 14.8507L20.0573 14.8608L20.0573 15.8507L21.0573 15.8507ZM21.6359 16.3788L21.6359 17.3788L22.6359 17.3788L22.6359 16.3788L21.6359 16.3788ZM21.6359 16.1652L21.6359 15.1652L20.6359 15.1652L20.6359 16.1652L21.6359 16.1652ZM22.2146 16.1652L22.2146 17.1652L22.6527 17.1652L22.9497 16.8432L22.2146 16.1652ZM22.747 15.588L23.482 16.266L22.3333 14.6776L22.747 15.588ZM22.1943 15.8391L22.2045 16.8391L22.4157 16.8369L22.608 16.7495L22.1943 15.8391ZM18.2516 16.3788L18.2516 17.3788L19.2516 17.3788L19.2516 16.3788L18.2516 16.3788ZM18.2516 15.8507L19.2516 15.8507L19.2516 14.8507L18.2516 14.8507L18.2516 15.8507ZM17.6729 16.3788L16.6729 16.3788L16.6729 17.3788L17.6729 17.3788L17.6729 16.3788ZM17.6729 16.1652L18.6729 16.1652L18.6729 15.1652L17.6729 15.1652L17.6729 16.1652ZM17.0943 16.1652L16.3592 16.8432L16.6562 17.1652L17.0943 17.1652L17.0943 16.1652ZM16.5619 15.588L17.0043 14.6912L15.8268 16.266L16.5619 15.588ZM17.0943 15.8507L16.6519 16.7475L16.861 16.8507L17.0943 16.8507L17.0943 15.8507ZM20.696 21.1585L21.5169 21.7295L22.6096 20.1585L20.696 20.1585L20.696 21.1585ZM20.2765 21.7616L20.2765 22.7616L20.799 22.7616L21.0974 22.3326L20.2765 21.7616ZM18.607 21.1585L18.607 20.1585L16.6934 20.1585L17.7861 21.7295L18.607 21.1585ZM19.0266 21.7616L18.2056 22.3326L18.504 22.7616L19.0266 22.7616L19.0266 21.7616ZM21.3358 25.0343L20.3358 25.0343L22.3158 25.233L21.3358 25.0343ZM21.3358 23.0344L22.3358 23.0344L22.3358 22.7185L22.1543 22.46L21.3358 23.0344ZM21.7003 23.2364L22.4915 22.6248L21.1546 20.8955L20.7203 23.0377L21.7003 23.2364ZM23.7082 25.8337L24.7082 25.8337L24.7082 25.4922L24.4994 25.2221L23.7082 25.8337ZM23.7082 28.0645L22.7614 28.3863L24.7082 28.0645L23.7082 28.0645ZM23.1845 26.5234L24.1314 26.2017L22.1867 26.4584L23.1845 26.5234ZM23.118 27.5451L23.7931 28.2828L24.0897 28.0113L24.1159 27.6101L23.118 27.5451ZM21.8565 28.6994L21.1814 27.9617L20.8797 28.2378L20.858 28.6463L21.8565 28.6994ZM21.8189 29.4065L20.8395 29.6083L22.8175 29.4596L21.8189 29.4065ZM21.6048 28.3675L20.8722 27.6869L20.5214 28.0645L20.6254 28.5694L21.6048 28.3675ZM22.4092 27.5018L23.1418 28.1824L23.3943 27.9106L23.4084 27.54L22.4092 27.5018ZM22.4468 26.5177L23.446 26.5559L23.4597 26.1985L23.2437 25.9136L22.4468 26.5177ZM21.8189 25.6894L22.6159 25.0853L20.676 22.5263L20.8199 25.7342L21.8189 25.6894ZM21.8942 27.3661L22.5845 28.0896L22.9135 27.7756L22.8932 27.3213L21.8942 27.3661ZM21.0262 28.1944L20.3358 27.4709L19.9031 27.8838L20.0622 28.4603L21.0262 28.1944ZM21.8565 31.2044L20.9438 31.6129L22.8205 30.9384L21.8565 31.2044ZM20.7455 28.7225L21.6583 28.3139L20.555 25.8494L19.7869 28.438L20.7455 28.7225ZM20.3173 30.1654L19.3173 30.1654L21.276 30.4499L20.3173 30.1654ZM20.3173 28.3791L21.3173 28.3791L19.3303 28.2185L20.3173 28.3791ZM19.785 31.6517L18.7979 31.4911L18.7655 31.6905L18.813 31.8868L19.785 31.6517ZM20.1871 33.314L19.3411 33.847L21.1591 33.0788L20.1871 33.314ZM19.1398 31.6517L18.1587 31.8455L18.1947 32.0277L18.2937 32.1848L19.1398 31.6517ZM18.5611 28.7225L19.5422 28.5287L18.9329 25.4445L17.6484 28.3139L18.5611 28.7225ZM17.4501 31.2044L16.4784 30.9681L18.3628 31.6129L17.4501 31.2044ZM18.1966 28.1338L19.1683 28.37L19.3033 27.8147L18.8934 27.4165L18.1966 28.1338ZM17.4212 27.3806L16.4217 27.3481L16.4074 27.7899L16.7244 28.0978L17.4212 27.3806ZM17.4762 25.6894L18.4756 25.7219L18.5768 22.6081L16.6823 25.0813L17.4762 25.6894ZM16.8483 26.509L16.0545 25.9009L15.8383 26.1831L15.8488 26.5384L16.8483 26.509ZM16.8773 27.4931L15.8777 27.5225L15.8887 27.8983L16.1446 28.1737L16.8773 27.4931ZM17.6816 28.3589L18.6605 28.5633L18.7662 28.0571L18.4142 27.6782L17.6816 28.3589ZM17.4646 29.3978L16.4653 29.4346L18.4435 29.6022L17.4646 29.3978ZM17.4385 28.6908L18.4379 28.654L18.4224 28.2336L18.1111 27.9507L17.4385 28.6908ZM16.1684 27.5364L15.17 27.5929L15.1931 28.0013L15.4958 28.2764L16.1684 27.5364ZM16.1105 26.5148L17.1089 26.4582L15.1632 26.1946L16.1105 26.5148ZM15.5898 28.0559L14.5898 28.0559L16.5371 28.376L15.5898 28.0559ZM15.5898 25.8453L14.7969 25.2359L14.5898 25.5054L14.5898 25.8453L15.5898 25.8453ZM17.5861 23.248L18.5646 23.0419L18.1171 20.9162L16.7932 22.6385L17.5861 23.248ZM17.9622 25.0343L16.9837 25.2404L18.9622 25.0343L17.9622 25.0343ZM17.9622 23.0344L17.1437 22.46L16.9622 22.7185L16.9622 23.0344L17.9622 23.0344ZM18.7116 21.9666L18.7116 20.9666L18.1917 20.9666L17.893 21.3922L18.7116 21.9666ZM19.3828 21.9666L20.2083 21.4022L19.9105 20.9666L19.3828 20.9666L19.3828 21.9666ZM20.1582 23.1008L19.3327 23.6652L21.2443 26.4612L21.1579 23.0753L20.1582 23.1008ZM20.1293 21.9666L20.1293 20.9666L19.1034 20.9666L19.1296 21.9921L20.1293 21.9666ZM20.5864 21.9666L21.405 21.3922L21.1063 20.9666L20.5864 20.9666L20.5864 21.9666ZM15.7026 13.9338L15.7026 14.9338L16.0744 14.9338L16.3559 14.6909L15.7026 13.9338ZM14.8635 13.9338L14.3578 14.7965L14.592 14.9338L14.8635 14.9338L14.8635 13.9338ZM16.0671 13.6192L16.7204 14.3763L18.7567 12.6192L16.0671 12.6192L16.0671 13.6192ZM15.1529 13.6192L14.3687 14.2397L14.6689 14.6192L15.1529 14.6192L15.1529 13.6192ZM14.6002 12.9208L15.3844 12.3003L15.0842 11.9208L14.6002 11.9208L14.6002 12.9208ZM13.8451 12.9208L13.8451 11.9208L13.1991 11.9208L12.9335 12.5097L13.8451 12.9208ZM12.7804 15.2815L11.8688 14.8704L13.5845 15.876L12.7804 15.2815ZM14.1055 13.4894L14.6113 12.6267L13.8358 12.1721L13.3014 12.8948L14.1055 13.4894ZM13.7331 15.4498L14.3053 16.2699L14.4134 16.1945L14.4983 16.0936L13.7331 15.4498ZM14.2019 14.8928L14.2019 13.8928L13.7364 13.8928L13.4367 14.2489L14.2019 14.8928ZM12.6164 16.229L12.3564 17.1946L12.8064 17.3157L13.1886 17.0491L12.6164 16.229ZM11.3086 15.8769L11.3086 14.8769L11.0486 16.8425L11.3086 15.8769ZM12.6019 15.8769L12.6019 16.8769L13.0264 16.8769L13.3213 16.5715L12.6019 15.8769ZM14.1093 14.3156L14.0591 13.3169L13.6644 13.3367L13.3899 13.621L14.1093 14.3156ZM15.6022 14.2406L16.3084 14.9486L18.1504 13.1112L15.552 13.2418L15.6022 14.2406ZM14.9483 14.8928L14.9483 15.8928L15.3618 15.8928L15.6545 15.6008L14.9483 14.8928ZM13.1108 17.1408L12.4748 16.3691L12.3874 16.4411L12.3184 16.5309L13.1108 17.1408ZM11.887 18.7309L10.9744 18.3219L12.6794 19.3408L11.887 18.7309ZM14.2942 16.1653L14.9302 16.937L15.1796 16.7314L15.2615 16.4189L14.2942 16.1653ZM14.5256 15.2823L15.493 15.5358L16.1725 12.9432L13.9608 14.4571L14.5256 15.2823ZM12.9488 16.3616L12.384 15.5364L12.1515 15.6955L12.0363 15.9526L12.9488 16.3616ZM24.6602 12.9045L24.6602 11.9045L24.1776 11.9045L23.8773 12.2824L24.6602 12.9045ZM24.1076 13.6L24.1076 14.6L24.5903 14.6L24.8906 14.2221L24.1076 13.6ZM25.4154 12.9045L26.3269 12.4933L26.0614 11.9045L25.4154 11.9045L25.4154 12.9045ZM26.4801 15.2651L25.6756 15.859L27.3917 14.854L26.4801 15.2651ZM25.155 13.4701L25.9595 12.8762L25.4219 12.1479L24.6438 12.6106L25.155 13.4701ZM24.3883 13.9261L24.3883 14.9261L24.6632 14.9261L24.8994 14.7856L24.3883 13.9261ZM23.5579 13.9261L22.8912 14.6714L23.1759 14.9261L23.5579 14.9261L23.5579 13.9261ZM23.1934 13.6L23.1934 12.6L20.5756 12.6L22.5266 14.3453L23.1934 13.6ZM24.3269 14.8723L23.6301 15.5895L23.9211 15.8723L24.3269 15.8723L24.3269 14.8723ZM23.6585 14.2229L23.7147 13.2245L21.0409 13.074L22.9617 14.9402L23.6585 14.2229ZM25.0502 14.8723L25.8189 14.2327L25.519 13.8723L25.0502 13.8723L25.0502 14.8723ZM25.516 15.4321L24.7473 16.0717L24.8329 16.1746L24.9425 16.2514L25.516 15.4321ZM26.6415 16.22L26.068 17.0392L26.4461 17.3039L26.8929 17.1879L26.6415 16.22ZM27.9637 15.8766L28.2151 16.8444L27.9637 14.8766L27.9637 15.8766ZM26.6415 15.8766L25.9175 16.5664L26.213 16.8766L26.6415 16.8766L26.6415 15.8766ZM25.1457 14.3066L25.8697 13.6168L25.5968 13.3304L25.2019 13.3082L25.1457 14.3066ZM26.1525 17.1326L26.9455 16.5233L26.8734 16.4296L26.7815 16.3552L26.1525 17.1326ZM27.3677 18.7141L26.5747 19.3234L28.2812 18.3074L27.3677 18.7141ZM24.9576 16.1659L23.9876 16.409L24.0688 16.7331L24.3286 16.9433L24.9576 16.1659ZM24.7319 15.2655L25.295 14.4391L23.1229 12.9589L23.7619 15.5086L24.7319 15.2655ZM26.3116 16.3419L27.2252 15.9352L27.1096 15.6756L26.8748 15.5155L26.3116 16.3419ZM22.9218 12.4275L22.0442 11.9482L20.9091 14.0262L23.1901 13.3908L22.9218 12.4275ZM24.4552 12.0004L24.8622 11.087L24.5335 10.9405L24.1869 11.0371L24.4552 12.0004ZM23.3789 11.5906L23.3789 10.5906L22.7857 10.5906L22.5013 11.1112L23.3789 11.5906ZM24.5565 11.5906L25.1712 10.8018L24.9001 10.5906L24.5565 10.5906L24.5565 11.5906ZM25.9192 12.6526L25.5123 13.5661L26.5339 11.8639L25.9192 12.6526ZM26.2383 18.2707L25.8155 19.1769L27.2383 19.8407L27.2383 18.2707L26.2383 18.2707ZM25.5294 17.94L24.5314 18.0023L24.5684 18.5951L25.1066 18.8462L25.5294 17.94ZM26.2383 18.2488L27.0968 17.7361L25.2383 14.6239L25.2383 18.2488L26.2383 18.2488ZM27.7515 20.7826L27.0977 21.5393L28.61 20.2699L27.7515 20.7826ZM26.2383 19.4753L26.892 18.7186L25.2383 17.2898L25.2383 19.4753L26.2383 19.4753ZM26.2383 19.4926L27.0312 20.1019L27.2383 19.8324L27.2383 19.4926L26.2383 19.4926ZM25.6307 20.2833L24.649 20.4735L25.0711 22.6529L26.4237 20.8926L25.6307 20.2833ZM25.4166 19.178L26.3984 18.9879L24.4166 19.178L25.4166 19.178ZM25.4166 20.5806L25.9652 21.4166L26.4166 21.1204L26.4166 20.5806L25.4166 20.5806ZM24.8669 20.9413L24.3182 20.1053L23.9549 20.3437L23.8813 20.7719L24.8669 20.9413ZM24.7454 21.6484L23.7598 21.479L23.6483 22.1281L24.2005 22.4869L24.7454 21.6484ZM25.0607 21.8533L24.5159 22.6918L24.8876 22.9333L25.3162 22.8201L25.0607 21.8533ZM25.8361 21.6484L26.4917 22.4035L25.5806 20.6815L25.8361 21.6484ZM25.0549 22.3265L24.5239 23.1739L25.1514 23.5671L25.7105 23.0817L25.0549 22.3265ZM24.4011 21.9167L24.9321 21.0694L23.6968 20.2952L23.4193 21.7265L24.4011 21.9167ZM24.2333 22.7825L23.2515 22.5922L23.1855 22.9331L23.3449 23.2416L24.2333 22.7825ZM24.6181 23.5271L25.6018 23.7069L25.6631 23.3712L25.5064 23.0679L24.6181 23.5271ZM24.5284 24.0177L23.7136 24.5974L25.0863 26.5267L25.5121 24.1975L24.5284 24.0177ZM23.8282 23.0336L24.643 22.4539L22.9384 23.49L23.8282 23.0336ZM24.5284 24.3986L25.5206 24.5228L25.5589 24.2167L25.4182 23.9422L24.5284 24.3986ZM24.268 26.4793L23.268 26.4793L25.2602 26.6035L24.268 26.4793ZM24.268 25.2615L25.268 25.2615L25.268 24.9324L25.0725 24.6676L24.268 25.2615ZM23.1367 23.7291L22.1367 23.7291L22.1367 24.0582L22.3322 24.323L23.1367 23.7291ZM23.1367 20.95L24.1367 20.95L22.1824 20.6511L23.1367 20.95ZM22.6333 22.5574L21.6833 22.8695L22.6561 25.8307L23.5876 22.8563L22.6333 22.5574ZM22.1299 21.025L23.0799 20.7129L22.1807 17.9758L21.1908 20.6814L22.1299 21.025ZM21.8405 21.8157L20.8731 22.0688L21.6816 25.1603L22.7797 22.1594L21.8405 21.8157ZM21.5975 20.8865L22.565 20.6335L22.4628 20.2427L22.1179 20.0325L21.5975 20.8865ZM20.8019 20.4017L21.3222 19.5477L20.0325 21.0405L20.8019 20.4017ZM21.5975 21.3598L20.9979 22.1601L22.3668 20.7209L21.5975 21.3598ZM20.3187 20.4017L20.9183 19.6014L20.3019 19.1395L19.698 19.6176L20.3187 20.4017ZM19.9541 20.6902L19.9541 21.6902L20.3021 21.6902L20.5748 21.4743L19.9541 20.6902ZM19.3379 20.6902L18.708 21.4669L18.9834 21.6902L19.3379 21.6902L19.3379 20.6902ZM18.982 20.4017L19.6119 19.6249L19.0063 19.1339L18.3824 19.6014L18.982 20.4017ZM17.7032 21.3598L16.9412 20.7122L18.3028 22.1601L17.7032 21.3598ZM18.5075 20.4132L19.2696 21.0607L17.9858 19.5601L18.5075 20.4132ZM17.7148 20.898L17.193 20.0449L16.8493 20.2552L16.7473 20.645L17.7148 20.898ZM17.4717 21.8273L16.5326 22.1709L17.6307 25.1718L18.4392 22.0803L17.4717 21.8273ZM17.1824 21.0365L18.1215 20.6929L17.1316 17.9873L16.2324 20.7244L17.1824 21.0365ZM16.679 22.569L15.7252 22.8694L16.659 25.8339L17.629 22.8811L16.679 22.569ZM16.1727 20.9615L17.1265 20.6611L15.1727 20.9615L16.1727 20.9615ZM16.1727 23.7406L16.9779 24.3336L17.1727 24.0691L17.1727 23.7406L16.1727 23.7406ZM15.0443 25.273L14.2391 24.6801L14.0443 24.9446L14.0443 25.273L15.0443 25.273ZM15.0443 26.5024L14.0522 26.6278L16.0443 26.5024L15.0443 26.5024ZM14.781 24.4188L13.8912 23.9624L13.7502 24.2375L13.7889 24.5442L14.781 24.4188ZM15.4812 23.0538L16.371 23.5102L14.6664 22.4741L15.4812 23.0538ZM14.781 24.0379L13.7982 24.2223L14.232 26.5345L15.5958 24.6176L14.781 24.0379ZM14.6884 23.5444L13.7994 23.0866L13.6423 23.3916L13.7056 23.7288L14.6884 23.5444ZM15.0703 22.8027L15.9594 23.2605L16.1213 22.9461L16.0495 22.5998L15.0703 22.8027ZM14.891 21.9369L15.8702 21.7341L15.5795 20.3313L14.363 21.0877L14.891 21.9369ZM14.2458 22.3381L13.5798 23.084L14.1381 23.5826L14.7738 23.1873L14.2458 22.3381ZM13.4733 21.6484L13.7296 20.6818L12.8073 22.3943L13.4733 21.6484ZM14.2458 21.8533L13.9894 22.8198L14.4233 22.9349L14.7977 22.6872L14.2458 21.8533ZM14.5553 21.6484L15.1073 22.4823L15.6495 22.1234L15.5415 21.4822L14.5553 21.6484ZM14.4367 20.9442L15.4228 20.7781L15.3507 20.3498L14.9884 20.1102L14.4367 20.9442ZM13.887 20.5806L12.887 20.5806L12.887 21.1181L13.3353 21.4146L13.887 20.5806ZM13.887 19.1867L14.887 19.1867L12.9057 18.994L13.887 19.1867ZM13.67 20.292L12.8714 20.8939L14.2197 22.6827L14.6513 20.4846L13.67 20.292ZM13.074 19.5013L13.8726 18.8993L13.2305 18.0476L12.4219 18.7431L13.074 19.5013ZM11.5608 20.8028L10.7028 20.2892L12.2129 21.5609L11.5608 20.8028ZM13.074 18.2747L12.6512 17.3685L12.3734 17.4981L12.216 17.7612L13.074 18.2747ZM13.7915 17.94L14.2143 18.8462L14.7501 18.5963L14.7893 18.0064L13.7915 17.94ZM13.8378 17.2445L14.7893 16.9368L12.84 17.1781L13.8378 17.2445ZM14.1561 18.2286L14.7986 18.9948L15.3149 18.5619L15.1076 17.9209L14.1561 18.2286ZM13.5022 18.7769L12.8597 18.0106L12.5022 18.3104L12.5022 18.7769L13.5022 18.7769ZM13.5022 19.2011L12.5022 19.2011L12.5022 21.3L14.1322 19.9777L13.5022 19.2011ZM14.6798 18.2459L15.5757 18.69L14.0498 17.4693L14.6798 18.2459ZM14.2978 19.0164L13.4019 18.5723L13.258 18.8626L13.3117 19.182L14.2978 19.0164ZM14.4917 20.1708L13.5055 20.3364L13.5356 20.5158L13.627 20.6731L14.4917 20.1708ZM15.2092 21.4059L14.3445 21.9083L16.1554 21.0822L15.2092 21.4059ZM14.7984 20.2054L13.7985 20.1923L13.7962 20.3654L13.8522 20.5292L14.7984 20.2054ZM14.8157 18.8837L14.055 18.2346L13.8206 18.5094L13.8158 18.8705L14.8157 18.8837ZM16.0222 17.4696L16.9049 17.9395L15.2615 16.8205L16.0222 17.4696ZM15.1803 19.0511L14.2976 18.5811L14.1719 18.8173L14.1809 19.0846L15.1803 19.0511ZM15.2179 20.1708L14.2185 20.2044L14.3097 22.9205L16.0007 20.793L15.2179 20.1708ZM16.3029 18.8058L17.0857 19.428L17.3029 19.1548L17.3029 18.8058L16.3029 18.8058ZM16.3029 18.1997L17.3029 18.1997L17.3029 18.064L17.2667 17.9333L16.3029 18.1997ZM15.9383 16.8809L14.9545 16.7019L14.9135 16.9269L14.9745 17.1473L15.9383 16.8809ZM16.0685 16.1652L16.0685 15.1652L15.234 15.1652L15.0847 15.9862L16.0685 16.1652ZM16.6182 16.1652L17.0036 15.2424L16.8187 15.1652L16.6182 15.1652L16.6182 16.1652ZM18.2905 16.8635L18.4746 17.8464L21.7638 17.2304L18.6759 15.9408L18.2905 16.8635ZM17.0117 17.1031L16.8276 16.1202L17.0697 18.1014L17.0117 17.1031ZM18.2529 17.0309L18.8473 17.8351L21.5497 15.8376L18.1949 16.0326L18.2529 17.0309ZM17.5267 17.5677L16.9323 16.7635L14.3628 18.6628L17.5566 18.5673L17.5267 17.5677ZM18.3947 17.5417L18.4246 18.5413L18.8848 18.5275L19.1736 18.1689L18.3947 17.5417ZM19.1498 16.6038L19.1498 15.6038L18.6711 15.6038L18.3709 15.9767L19.1498 16.6038ZM20.1711 16.6038L20.9501 15.9767L20.6499 15.6038L20.1711 15.6038L20.1711 16.6038ZM20.9263 17.5417L20.1474 18.1689L20.4361 18.5275L20.8964 18.5413L20.9263 17.5417ZM21.7943 17.5677L21.7643 18.5673L25.001 18.6641L22.3826 16.7591L21.7943 17.5677ZM21.0565 17.0309L21.1145 16.0326L17.7128 15.8349L20.4682 17.8396L21.0565 17.0309ZM22.2977 17.1031L22.2397 18.1014L22.4818 16.1202L22.2977 17.1031ZM21.0189 16.8635L20.6369 15.9394L17.5235 17.2262L20.8348 17.8464L21.0189 16.8635ZM22.7085 16.1652L22.7085 15.1652L22.51 15.1652L22.3265 15.241L22.7085 16.1652ZM23.2582 16.1652L24.2442 15.9984L24.1033 15.1652L23.2582 15.1652L23.2582 16.1652ZM23.3798 16.8837L24.3436 17.1502L24.4028 16.936L24.3658 16.717L23.3798 16.8837ZM23.0152 18.2026L22.0513 17.9362L22.0152 18.0669L22.0152 18.2026L23.0152 18.2026ZM23.0152 18.8086L22.0152 18.8086L22.0152 19.1555L22.2299 19.4278L23.0152 18.8086ZM24.0915 20.1737L23.3062 20.7928L25.0268 22.975L25.0912 20.1969L24.0915 20.1737ZM24.1175 19.0511L25.1173 19.0742L25.1233 18.8151L25.0027 18.5857L24.1175 19.0511ZM23.2785 17.4552L24.0369 16.8034L22.3934 17.9205L23.2785 17.4552ZM24.4937 18.8692L25.4935 18.8498L25.4865 18.4902L25.2521 18.2175L24.4937 18.8692ZM24.5197 20.2054L25.4668 20.5264L25.5229 20.3608L25.5195 20.1859L24.5197 20.2054ZM24.1089 21.4175L23.1618 21.0965L24.9733 21.9202L24.1089 21.4175ZM24.8322 20.1737L25.6966 20.6764L25.7876 20.52L25.818 20.3417L24.8322 20.1737ZM25.0289 19.0193L26.0147 19.1873L26.0696 18.865L25.9235 18.5725L25.0289 19.0193ZM24.6441 18.2488L25.2741 17.4722L23.7495 18.6956L24.6441 18.2488ZM25.8217 19.204L25.1917 19.9806L26.8217 21.3029L26.8217 19.204L25.8217 19.204ZM25.8217 18.7769L26.8217 18.7769L26.8217 18.3104L26.4642 18.0106L25.8217 18.7769ZM25.1678 18.2286L24.2163 17.9209L24.009 18.5619L24.5252 18.9948L25.1678 18.2286ZM25.486 17.2445L26.4841 17.1822L24.5346 16.9368L25.486 17.2445ZM20.7845 19.4291L20.7845 18.4291L19.8625 18.4291L19.7878 19.3481L20.7845 19.4291ZM21.2156 19.4291L21.8959 18.6962L21.6082 18.4291L21.2156 18.4291L21.2156 19.4291ZM20.7672 19.6427L21.3408 20.4618L21.7258 20.1922L21.7639 19.7237L20.7672 19.6427ZM19.7863 20.3295L19.7863 21.3295L20.1017 21.3295L20.36 21.1486L19.7863 20.3295ZM19.5231 20.3295L18.9494 21.1486L19.2077 21.3295L19.5231 21.3295L19.5231 20.3295ZM18.5422 19.6427L17.5455 19.7237L17.5836 20.1922L17.9686 20.4618L18.5422 19.6427ZM18.5249 19.4291L19.5216 19.3481L19.4469 18.4291L18.5249 18.4291L18.5249 19.4291ZM18.0938 19.4291L18.0938 18.4291L17.7039 18.4291L17.4169 18.693L18.0938 19.4291ZM16.8728 20.5517L15.9607 20.1418L17.5497 21.2878L16.8728 20.5517ZM17.599 18.9356L17.4734 17.9435L16.9168 18.014L16.6869 18.5257L17.599 18.9356ZM17.9636 18.8894L18.0892 19.8815L18.3852 19.844L18.6123 19.6505L17.9636 18.8894ZM18.739 18.2286L18.739 17.2286L18.3706 17.2286L18.0903 17.4675L18.739 18.2286ZM19.1498 18.2286L20.1498 18.2286L20.1498 17.2286L19.1498 17.2286L19.1498 18.2286ZM19.1498 18.4248L19.1498 19.4248L20.1498 19.4248L20.1498 18.4248L19.1498 18.4248ZM18.8605 18.4248L18.8605 17.4248L18.4731 17.4248L18.1869 17.6857L18.8605 18.4248ZM18.5249 18.7307L17.8512 17.9917L17.5249 18.2891L17.5249 18.7307L18.5249 18.7307ZM18.5249 19.3541L17.5249 19.3541L17.5249 20.3038L18.4734 20.3527L18.5249 19.3541ZM18.8605 19.3714L19.4722 18.5803L19.2246 18.3888L18.912 18.3727L18.8605 19.3714ZM19.2337 19.66L18.622 20.4511L18.8922 20.66L19.2337 20.66L19.2337 19.66ZM20.0757 19.66L20.0757 20.66L20.4172 20.66L20.6874 20.4511L20.0757 19.66ZM20.4489 19.3714L20.3974 18.3727L20.0848 18.3888L19.8372 18.5803L20.4489 19.3714ZM20.7845 19.3541L20.836 20.3527L21.7845 20.3038L21.7845 19.3541L20.7845 19.3541ZM20.7845 18.7307L21.7845 18.7307L21.7845 18.2891L21.4581 17.9917L20.7845 18.7307ZM20.4489 18.4248L21.1225 17.6857L20.8362 17.4248L20.4489 17.4248L20.4489 18.4248ZM20.1596 18.4248L19.1596 18.4248L19.1596 19.4248L20.1596 19.4248L20.1596 18.4248ZM20.1596 18.2286L20.1596 17.2286L19.1596 17.2286L19.1596 18.2286L20.1596 18.2286ZM20.5675 18.2286L21.2162 17.4675L20.9359 17.2286L20.5675 17.2286L20.5675 18.2286ZM21.3429 18.8894L20.6942 19.6505L20.9196 19.8426L21.2132 19.881L21.3429 18.8894ZM21.6959 18.9356L22.6074 18.5244L22.3782 18.0164L21.8256 17.9441L21.6959 18.9356ZM22.425 20.5517L21.7447 21.2846L23.3365 20.1405L22.425 20.5517ZM22.4891 7.76036L22.4139 7.83539L23.8263 9.25141L23.9015 9.17638L22.4891 7.76036ZM24.0027 9.15858L24.13 8.82381L22.2606 8.11292L22.1333 8.44768L24.0027 9.15858ZM23.2756 12.1633L24.0394 9.04074L22.0966 8.56552L21.3328 11.6881L23.2756 12.1633ZM16.6566 12.9257L22.3042 12.9257L22.3042 10.9257L16.6566 10.9257L16.6566 12.9257ZM14.7888 8.53199L15.6857 12.1653L17.6274 11.686L16.7305 8.05267L14.7888 8.53199ZM18.0783 9.13228L16.4523 7.57101L15.0671 9.01365L16.6931 10.5749L18.0783 9.13228ZM16.1354 10.4694L17.0497 10.7955L17.7216 8.91172L16.8074 8.58561L16.1354 10.4694ZM18.133 10.4233L17.3402 9.03234L15.6026 10.0226L16.3953 11.4136L18.133 10.4233ZM18.4215 9.91849L17.2642 9.91849L17.2642 11.9185L18.4215 11.9185L18.4215 9.91849ZM17.9714 8.76034L17.4564 10.6564L19.3865 11.1806L19.9015 9.28458L17.9714 8.76034ZM18.7021 10.3897L19.4978 9.85005L18.3751 8.19487L17.5795 8.73453L18.7021 10.3897ZM18.6114 6.50176L17.2545 9.09907L19.0271 10.0252L20.3841 7.42787L18.6114 6.50176ZM21.6695 9.05136L20.3907 6.51466L18.6048 7.41497L19.8836 9.95168L21.6695 9.05136ZM19.4828 9.83923L20.2206 10.3327L21.3325 8.67032L20.5948 8.17683L19.4828 9.83923ZM21.5176 10.6856L21.0054 8.75201L19.0721 9.26405L19.5842 11.1976L21.5176 10.6856ZM21.7255 9.94158L20.5509 9.94158L20.5509 11.9416L21.7255 11.9416L21.7255 9.94158ZM21.5755 9.22513L20.8637 10.4343L22.5873 11.4488L23.2991 10.2396L21.5755 9.22513ZM21.9017 10.9814L22.7697 10.6755L22.1049 8.78925L21.2369 9.09516L21.9017 10.9814ZM22.4303 7.83673L20.8795 9.31431L22.2591 10.7623L23.8099 9.2847L22.4303 7.83673ZM22.1201 8.5434L22.1201 8.56072L24.1201 8.56072L24.1201 8.5434L22.1201 8.5434ZM14.7267 12.0792L15.1954 12.9162L16.9403 11.9389L16.4716 11.102L14.7267 12.0792ZM14.4245 12.5906L15.5991 12.5906L15.5991 10.5906L14.4245 10.5906L14.4245 12.5906ZM13.6728 13.442L15.0384 12.38L13.8106 10.8012L12.445 11.8632L13.6728 13.442ZM14.1195 11.0867L12.6526 11.7389L13.4651 13.5664L14.932 12.9142L14.1195 11.0867ZM16.3348 11.4638L14.7927 11.0367L14.2588 12.9641L15.8009 13.3912L16.3348 11.4638ZM25.3538 15.7435L24.4049 15.2702L23.5123 17.06L24.4612 17.5332L25.3538 15.7435ZM23.5761 16.1963L24.0101 17.0794L25.805 16.1973L25.371 15.3142L23.5761 16.1963ZM23.811 16.7553L24.4736 16.7553L24.4736 14.7553L23.811 14.7553L23.811 16.7553ZM22.4176 14.8889L22.8748 16.1067L24.7472 15.4039L24.2901 14.186L22.4176 14.8889ZM21.8559 14.6099L22.7238 15.314L23.9839 13.7609L23.1159 13.0567L21.8559 14.6099ZM21.4536 14.0474L21.6214 14.336L23.3504 13.3306L23.1826 13.042L21.4536 14.0474ZM21.3181 13.1349L21.3181 13.5447L23.3181 13.5447L23.3181 13.1349L21.3181 13.1349ZM23.7138 12.3633L22.49 12.1498L22.1462 14.12L23.37 14.3336L23.7138 12.3633ZM21.8408 13.5885L23.0792 14.2349L24.0047 12.462L22.7664 11.8155L21.8408 13.5885ZM16.5634 13.702L22.3036 13.702L22.3036 11.702L16.5634 11.702L16.5634 13.702ZM15.8131 14.2408L17.0369 13.5828L16.0899 11.8212L14.866 12.4792L15.8131 14.2408ZM16.3915 12.1613L15.1677 12.3749L15.5115 14.3451L16.7353 14.1315L16.3915 12.1613ZM17.5634 13.5562L17.5634 13.1464L15.5634 13.1464L15.5634 13.5562L17.5634 13.5562ZM16.7819 15.0746L17.4069 14.0934L15.72 13.019L15.095 14.0002L16.7819 15.0746ZM16.4284 16.1008L16.8769 14.883L15.0001 14.1919L14.5516 15.4097L16.4284 16.1008ZM14.8275 16.7553L15.49 16.7553L15.49 14.7553L14.8275 14.7553L14.8275 16.7553ZM15.3233 17.0602L15.7341 16.1771L13.9208 15.3335L13.5099 16.2165L15.3233 17.0602ZM14.8833 15.2753L13.9603 15.7485L14.8729 17.5282L15.7959 17.0549L14.8833 15.2753ZM15.5816 13.9273L14.4966 15.627L16.1825 16.7031L17.2675 15.0033L15.5816 13.9273ZM17.5723 14.8524L17.3871 14.1944L15.4619 14.7362L15.6471 15.3942L17.5723 14.8524ZM18.9615 14.9407L16.9623 14.1875L16.2571 16.0591L18.2564 16.8123L18.9615 14.9407ZM18.3905 14.6995L17.916 15.1555L19.3018 16.5975L19.7763 16.1416L18.3905 14.6995ZM17.9738 14.9903L18.104 15.6223L20.0629 15.2188L19.9327 14.5867L17.9738 14.9903ZM17.8749 14.5368L17.9762 15.0015L19.9303 14.5756L19.829 14.1109L17.8749 14.5368ZM20.1488 14.786L19.7669 13.9203L17.937 14.7275L18.3189 15.5932L20.1488 14.786ZM20.319 15.8209L20.2264 15.0676L18.2413 15.3116L18.3339 16.0649L20.319 15.8209ZM19.9717 14.9429L19.3265 14.9429L19.3265 16.9429L19.9717 16.9429L19.9717 14.9429ZM19.0717 15.0676L18.9791 15.8209L20.9642 16.0649L21.0568 15.3116L19.0717 15.0676ZM19.5352 13.9177L19.1504 14.7835L20.978 15.5958L21.3628 14.73L19.5352 13.9177ZM21.2028 15.6221L21.4285 14.5254L19.4696 14.1223L19.2439 15.219L21.2028 15.6221ZM21.3915 15.1534L20.9141 14.6974L19.5327 16.1437L20.0101 16.5996L21.3915 15.1534ZM22.351 14.1948L20.3517 14.9394L21.0498 16.8136L23.049 16.0691L22.351 14.1948ZM21.9218 14.2245L21.7395 14.8536L23.6605 15.4102L23.8428 14.7811L21.9218 14.2245ZM21.8823 14.4653L21.8823 14.5028L23.8823 14.5028L23.8823 14.4653L21.8823 14.4653ZM24.8034 15.6301L23.7271 13.9303L22.0374 15.0003L23.1137 16.7L24.8034 15.6301ZM22.0573 16.3788L22.0573 15.8507L20.0573 15.8507L20.0573 16.3788L22.0573 16.3788ZM21.6359 15.3788L21.0573 15.3788L21.0573 17.3788L21.6359 17.3788L21.6359 15.3788ZM20.6359 16.1652L20.6359 16.3788L22.6359 16.3788L22.6359 16.1652L20.6359 16.1652ZM22.2146 15.1652L21.6359 15.1652L21.6359 17.1652L22.2146 17.1652L22.2146 15.1652ZM22.0119 14.91L21.4795 15.4872L22.9497 16.8432L23.482 16.266L22.0119 14.91ZM22.608 16.7495L23.1606 16.4985L22.3333 14.6776L21.7807 14.9287L22.608 16.7495ZM21.0674 16.8506L22.2045 16.8391L22.1842 14.8392L21.0471 14.8507L21.0674 16.8506ZM19.2516 16.3788L19.2516 15.8507L17.2516 15.8507L17.2516 16.3788L19.2516 16.3788ZM17.6729 17.3788L18.2516 17.3788L18.2516 15.3788L17.6729 15.3788L17.6729 17.3788ZM16.6729 16.1652L16.6729 16.3788L18.6729 16.3788L18.6729 16.1652L16.6729 16.1652ZM17.0943 17.1652L17.6729 17.1652L17.6729 15.1652L17.0943 15.1652L17.0943 17.1652ZM15.8268 16.266L16.3592 16.8432L17.8293 15.4872L17.297 14.91L15.8268 16.266ZM17.5367 14.9538L17.0043 14.6912L16.1195 16.4848L16.6519 16.7475L17.5367 14.9538ZM18.2516 14.8507L17.0943 14.8507L17.0943 16.8507L18.2516 16.8507L18.2516 14.8507ZM19.875 20.5875L19.4555 21.1906L21.0974 22.3326L21.5169 21.7295L19.875 20.5875ZM18.607 22.1585L20.696 22.1585L20.696 20.1585L18.607 20.1585L18.607 22.1585ZM19.8475 21.1906L19.428 20.5875L17.7861 21.7295L18.2056 22.3326L19.8475 21.1906ZM20.2765 20.7616L19.0266 20.7616L19.0266 22.7616L20.2765 22.7616L20.2765 20.7616ZM22.3358 25.0343L22.3358 23.0344L20.3358 23.0344L20.3358 25.0343L22.3358 25.0343ZM20.7203 23.0377L20.3557 24.8356L22.3158 25.233L22.6804 23.4351L20.7203 23.0377ZM24.4994 25.2221L22.4915 22.6248L20.9092 23.848L22.9171 26.4453L24.4994 25.2221ZM24.7082 28.0645L24.7082 25.8337L22.7082 25.8337L22.7082 28.0645L24.7082 28.0645ZM22.2377 26.8452L22.7614 28.3863L24.6551 27.7428L24.1314 26.2017L22.2377 26.8452ZM24.1159 27.6101L24.1824 26.5884L22.1867 26.4584L22.1201 27.4801L24.1159 27.6101ZM22.5316 29.4371L23.7931 28.2828L22.4429 26.8073L21.1814 27.9617L22.5316 29.4371ZM22.8175 29.4596L22.8551 28.7525L20.858 28.6463L20.8203 29.3533L22.8175 29.4596ZM20.6254 28.5694L20.8395 29.6083L22.7984 29.2046L22.5842 28.1657L20.6254 28.5694ZM21.6765 26.8211L20.8722 27.6869L22.3375 29.0482L23.1418 28.1824L21.6765 26.8211ZM21.4475 26.4795L21.4099 27.4636L23.4084 27.54L23.446 26.5559L21.4475 26.4795ZM21.022 26.2935L21.6498 27.1218L23.2437 25.9136L22.6159 25.0853L21.022 26.2935ZM22.8932 27.3213L22.8179 25.6446L20.8199 25.7342L20.8952 27.4109L22.8932 27.3213ZM21.7165 28.9178L22.5845 28.0896L21.2038 26.6427L20.3358 27.4709L21.7165 28.9178ZM22.8205 30.9384L21.9902 27.9284L20.0622 28.4603L20.8926 31.4703L22.8205 30.9384ZM19.8328 29.1311L20.9438 31.6129L22.7693 30.7958L21.6583 28.3139L19.8328 29.1311ZM21.276 30.4499L21.7042 29.007L19.7869 28.438L19.3587 29.881L21.276 30.4499ZM19.3173 28.3791L19.3173 30.1654L21.3173 30.1654L21.3173 28.3791L19.3173 28.3791ZM20.772 31.8122L21.3044 28.5396L19.3303 28.2185L18.7979 31.4911L20.772 31.8122ZM21.1591 33.0788L20.7569 31.4165L18.813 31.8868L19.2152 33.5491L21.1591 33.0788ZM18.2937 32.1848L19.3411 33.847L21.0332 32.7809L19.9858 31.1186L18.2937 32.1848ZM17.5801 28.9163L18.1587 31.8455L20.1208 31.4579L19.5422 28.5287L17.5801 28.9163ZM18.3628 31.6129L19.4739 29.1311L17.6484 28.3139L16.5374 30.7958L18.3628 31.6129ZM17.2249 27.8976L16.4784 30.9681L18.4218 31.4406L19.1683 28.37L17.2249 27.8976ZM16.7244 28.0978L17.4998 28.8511L18.8934 27.4165L18.118 26.6633L16.7244 28.0978ZM16.4767 25.6569L16.4217 27.3481L18.4207 27.413L18.4756 25.7219L16.4767 25.6569ZM17.6422 27.1171L18.27 26.2975L16.6823 25.0813L16.0545 25.9009L17.6422 27.1171ZM17.8768 27.4637L17.8479 26.4796L15.8488 26.5384L15.8777 27.5225L17.8768 27.4637ZM18.4142 27.6782L17.6099 26.8125L16.1446 28.1737L16.949 29.0395L18.4142 27.6782ZM18.4435 29.6022L18.6605 28.5633L16.7027 28.1544L16.4857 29.1933L18.4435 29.6022ZM16.4392 28.7276L16.4653 29.4346L18.4639 29.361L18.4379 28.654L16.4392 28.7276ZM15.4958 28.2764L16.766 29.4308L18.1111 27.9507L16.841 26.7964L15.4958 28.2764ZM15.1121 26.5713L15.17 27.5929L17.1668 27.4798L17.1089 26.4582L15.1121 26.5713ZM16.5371 28.376L17.0579 26.8349L15.1632 26.1946L14.6424 27.7357L16.5371 28.376ZM14.5898 25.8453L14.5898 28.0559L16.5898 28.0559L16.5898 25.8453L14.5898 25.8453ZM16.7932 22.6385L14.7969 25.2359L16.3826 26.4547L18.379 23.8574L16.7932 22.6385ZM18.9408 24.8283L18.5646 23.0419L16.6076 23.454L16.9837 25.2404L18.9408 24.8283ZM16.9622 23.0344L16.9622 25.0343L18.9622 25.0343L18.9622 23.0344L16.9622 23.0344ZM17.893 21.3922L17.1437 22.46L18.7808 23.6088L19.5301 22.5411L17.893 21.3922ZM19.3828 20.9666L18.7116 20.9666L18.7116 22.9666L19.3828 22.9666L19.3828 20.9666ZM20.9837 22.5364L20.2083 21.4022L18.5573 22.531L19.3327 23.6652L20.9837 22.5364ZM19.1296 21.9921L19.1585 23.1263L21.1579 23.0753L21.1289 21.9411L19.1296 21.9921ZM20.5864 20.9666L20.1293 20.9666L20.1293 22.9666L20.5864 22.9666L20.5864 20.9666ZM22.1543 22.46L21.405 21.3922L19.7679 22.5411L20.5172 23.6088L22.1543 22.46ZM15.7026 12.9338L14.8635 12.9338L14.8635 14.9338L15.7026 14.9338L15.7026 12.9338ZM15.4138 12.8621L15.0493 13.1767L16.3559 14.6909L16.7204 14.3763L15.4138 12.8621ZM15.1529 14.6192L16.0671 14.6192L16.0671 12.6192L15.1529 12.6192L15.1529 14.6192ZM13.816 13.5414L14.3687 14.2397L15.9371 12.9987L15.3844 12.3003L13.816 13.5414ZM13.8451 13.9208L14.6002 13.9208L14.6002 11.9208L13.8451 11.9208L13.8451 13.9208ZM13.692 15.6926L14.7567 13.332L12.9335 12.5097L11.8688 14.8704L13.692 15.6926ZM13.3014 12.8948L11.9763 14.687L13.5845 15.876L14.9096 14.0839L13.3014 12.8948ZM15.3693 13.0711L14.6113 12.6267L13.5997 14.352L14.3578 14.7965L15.3693 13.0711ZM14.4983 16.0936L14.967 15.5367L13.4367 14.2489L12.968 14.8059L14.4983 16.0936ZM13.1886 17.0491L14.3053 16.2699L13.1609 14.6297L12.0442 15.4089L13.1886 17.0491ZM11.0486 16.8425L12.3564 17.1946L12.8763 15.2633L11.5686 14.9113L11.0486 16.8425ZM12.6019 14.8769L11.3086 14.8769L11.3086 16.8769L12.6019 16.8769L12.6019 14.8769ZM13.3899 13.621L11.8825 15.1823L13.3213 16.5715L14.8287 15.0102L13.3899 13.621ZM15.552 13.2418L14.0591 13.3169L14.1595 15.3144L15.6524 15.2393L15.552 13.2418ZM15.6545 15.6008L16.3084 14.9486L14.896 13.5326L14.2421 14.1848L15.6545 15.6008ZM14.2019 15.8928L14.9483 15.8928L14.9483 13.8928L14.2019 13.8928L14.2019 15.8928ZM12.3184 16.5309L11.0945 18.121L12.6794 19.3408L13.9033 17.7507L12.3184 16.5309ZM13.6581 15.3937L12.4748 16.3691L13.7469 17.9124L14.9302 16.937L13.6581 15.3937ZM13.5583 15.0287L13.3268 15.9118L15.2615 16.4189L15.493 15.5358L13.5583 15.0287ZM13.5137 17.1868L15.0905 16.1075L13.9608 14.4571L12.384 15.5364L13.5137 17.1868ZM12.7995 19.1399L13.8614 16.7705L12.0363 15.9526L10.9744 18.3219L12.7995 19.1399ZM23.8773 12.2824L23.3247 12.9779L24.8906 14.2221L25.4432 13.5266L23.8773 12.2824ZM25.4154 11.9045L24.6602 11.9045L24.6602 13.9045L25.4154 13.9045L25.4154 11.9045ZM27.3917 14.854L26.3269 12.4933L24.5038 13.3156L25.5685 15.6763L27.3917 14.854ZM24.3504 14.064L25.6756 15.859L27.2846 14.6712L25.9595 12.8762L24.3504 14.064ZM24.8994 14.7856L25.6661 14.3296L24.6438 12.6106L23.8771 13.0666L24.8994 14.7856ZM23.5579 14.9261L24.3883 14.9261L24.3883 12.9261L23.5579 12.9261L23.5579 14.9261ZM22.5266 14.3453L22.8912 14.6714L24.2246 13.1808L23.8601 12.8547L22.5266 14.3453ZM24.1076 12.6L23.1934 12.6L23.1934 14.6L24.1076 14.6L24.1076 12.6ZM25.0237 14.155L24.3554 13.5057L22.9617 14.9402L23.6301 15.5895L25.0237 14.155ZM25.0502 13.8723L24.3269 13.8723L24.3269 15.8723L25.0502 15.8723L25.0502 13.8723ZM26.2847 14.7925L25.8189 14.2327L24.2815 15.5118L24.7473 16.0717L26.2847 14.7925ZM27.215 15.4008L26.0895 14.6129L24.9425 16.2514L26.068 17.0392L27.215 15.4008ZM27.7123 14.9087L26.3901 15.2521L26.8929 17.1879L28.2151 16.8444L27.7123 14.9087ZM26.6415 16.8766L27.9637 16.8766L27.9637 14.8766L26.6415 14.8766L26.6415 16.8766ZM24.4217 14.9964L25.9175 16.5664L27.3655 15.1867L25.8697 13.6168L24.4217 14.9964ZM23.6024 15.2214L25.0895 15.305L25.2019 13.3082L23.7147 13.2245L23.6024 15.2214ZM25.3596 17.7419L26.5747 19.3234L28.1606 18.1048L26.9455 16.5233L25.3596 17.7419ZM24.3286 16.9433L25.5235 17.91L26.7815 16.3552L25.5866 15.3884L24.3286 16.9433ZM23.7619 15.5086L23.9876 16.409L25.9276 15.9227L25.7019 15.0223L23.7619 15.5086ZM26.8748 15.5155L25.295 14.4391L24.1688 16.0918L25.7485 17.1683L26.8748 15.5155ZM28.2812 18.3074L27.2252 15.9352L25.3981 16.7486L26.4541 19.1208L28.2812 18.3074ZM23.1901 13.3908L24.7236 12.9637L24.1869 11.0371L22.6535 11.4642L23.1901 13.3908ZM22.5013 11.1112L22.0442 11.9482L23.7994 12.9069L24.2566 12.07L22.5013 11.1112ZM24.5565 10.5906L23.3789 10.5906L23.3789 12.5906L24.5565 12.5906L24.5565 10.5906ZM26.5339 11.8639L25.1712 10.8018L23.9418 12.3794L25.3045 13.4414L26.5339 11.8639ZM24.0483 12.9139L25.5123 13.5661L26.3262 11.7392L24.8622 11.087L24.0483 12.9139ZM26.6611 17.3645L25.9522 17.0338L25.1066 18.8462L25.8155 19.1769L26.6611 17.3645ZM25.2383 18.2488L25.2383 18.2707L27.2383 18.2707L27.2383 18.2488L25.2383 18.2488ZM28.61 20.2699L27.0968 17.7361L25.3797 18.7615L26.8929 21.2953L28.61 20.2699ZM25.5845 20.232L27.0977 21.5393L28.4052 20.0259L26.892 18.7186L25.5845 20.232ZM27.2383 19.4926L27.2383 19.4753L25.2383 19.4753L25.2383 19.4926L27.2383 19.4926ZM26.4237 20.8926L27.0312 20.1019L25.4453 18.8833L24.8378 19.674L26.4237 20.8926ZM24.4349 19.3682L24.649 20.4735L26.6125 20.0932L26.3984 18.9879L24.4349 19.3682ZM26.4166 20.5806L26.4166 19.178L24.4166 19.178L24.4166 20.5806L26.4166 20.5806ZM25.4155 21.7774L25.9652 21.4166L24.868 19.7445L24.3182 20.1053L25.4155 21.7774ZM25.7309 21.8177L25.8524 21.1107L23.8813 20.7719L23.7598 21.479L25.7309 21.8177ZM25.6056 21.0147L25.2902 20.8098L24.2005 22.4869L24.5159 22.6918L25.6056 21.0147ZM25.5806 20.6815L24.8053 20.8864L25.3162 22.8201L26.0916 22.6152L25.5806 20.6815ZM25.7105 23.0817L26.4917 22.4035L25.1806 20.8932L24.3994 21.5714L25.7105 23.0817ZM23.87 22.7641L24.5239 23.1739L25.586 21.4792L24.9321 21.0694L23.87 22.7641ZM25.215 22.9728L25.3828 22.107L23.4193 21.7265L23.2515 22.5922L25.215 22.9728ZM25.5064 23.0679L25.1216 22.3234L23.3449 23.2416L23.7297 23.9862L25.5064 23.0679ZM25.5121 24.1975L25.6018 23.7069L23.6344 23.3472L23.5447 23.8378L25.5121 24.1975ZM23.0134 23.6133L23.7136 24.5974L25.3432 23.438L24.643 22.4539L23.0134 23.6133ZM25.4182 23.9422L24.718 22.5772L22.9384 23.49L23.6386 24.855L25.4182 23.9422ZM25.2602 26.6035L25.5206 24.5228L23.5361 24.2744L23.2757 26.3552L25.2602 26.6035ZM23.268 25.2615L23.268 26.4793L25.268 26.4793L25.268 25.2615L23.268 25.2615ZM22.3322 24.323L23.4635 25.8554L25.0725 24.6676L23.9412 23.1352L22.3322 24.323ZM22.1367 20.95L22.1367 23.7291L24.1367 23.7291L24.1367 20.95L22.1367 20.95ZM23.5876 22.8563L24.091 21.2488L22.1824 20.6511L21.679 22.2585L23.5876 22.8563ZM21.1798 21.3371L21.6833 22.8695L23.5833 22.2453L23.0799 20.7129L21.1798 21.3371ZM22.7797 22.1594L23.069 21.3686L21.1908 20.6814L20.9014 21.4721L22.7797 22.1594ZM20.6301 21.1395L20.8731 22.0688L22.808 21.5627L22.565 20.6335L20.6301 21.1395ZM20.2815 21.2556L21.0772 21.7404L22.1179 20.0325L21.3222 19.5477L20.2815 21.2556ZM22.3668 20.7209L21.5712 19.7628L20.0325 21.0405L20.8282 21.9986L22.3668 20.7209ZM19.7191 21.202L20.9979 22.1601L22.1971 20.5595L20.9183 19.6014L19.7191 21.202ZM20.5748 21.4743L20.9394 21.1857L19.698 19.6176L19.3335 19.9062L20.5748 21.4743ZM19.3379 21.6902L19.9541 21.6902L19.9541 19.6902L19.3379 19.6902L19.3379 21.6902ZM18.3522 21.1784L18.708 21.4669L19.9677 19.9135L19.6119 19.6249L18.3522 21.1784ZM18.3028 22.1601L19.5816 21.202L18.3824 19.6014L17.1036 20.5595L18.3028 22.1601ZM17.7455 19.7657L16.9412 20.7122L18.4652 22.0073L19.2696 21.0607L17.7455 19.7657ZM18.2365 21.7511L19.0293 21.2663L17.9858 19.5601L17.193 20.0449L18.2365 21.7511ZM18.4392 22.0803L18.6822 21.1511L16.7473 20.645L16.5043 21.5743L18.4392 22.0803ZM16.2433 21.3802L16.5326 22.1709L18.4109 21.4837L18.1215 20.6929L16.2433 21.3802ZM17.629 22.8811L18.1325 21.3487L16.2324 20.7244L15.7289 22.2569L17.629 22.8811ZM15.2189 21.2619L15.7252 22.8694L17.6328 22.2685L17.1265 20.6611L15.2189 21.2619ZM17.1727 23.7406L17.1727 20.9615L15.1727 20.9615L15.1727 23.7406L17.1727 23.7406ZM15.8496 25.866L16.9779 24.3336L15.3674 23.1477L14.2391 24.6801L15.8496 25.866ZM16.0443 26.5024L16.0443 25.273L14.0443 25.273L14.0443 26.5024L16.0443 26.5024ZM13.7889 24.5442L14.0522 26.6278L16.0364 26.3771L15.7731 24.2935L13.7889 24.5442ZM14.5914 22.5974L13.8912 23.9624L15.6708 24.8752L16.371 23.5102L14.5914 22.5974ZM15.5958 24.6176L16.296 23.6335L14.6664 22.4741L13.9662 23.4582L15.5958 24.6176ZM13.7056 23.7288L13.7982 24.2223L15.7639 23.8535L15.6713 23.36L13.7056 23.7288ZM14.1813 22.3449L13.7994 23.0866L15.5775 24.0022L15.9594 23.2605L14.1813 22.3449ZM13.9118 22.1398L14.0911 23.0056L16.0495 22.5998L15.8702 21.7341L13.9118 22.1398ZM14.7738 23.1873L15.419 22.7862L14.363 21.0877L13.7178 21.4888L14.7738 23.1873ZM12.8073 22.3943L13.5798 23.084L14.9118 21.5922L14.1393 20.9024L12.8073 22.3943ZM14.5021 20.8867L13.7296 20.6818L13.2169 22.6149L13.9894 22.8198L14.5021 20.8867ZM14.0034 20.8145L13.6938 21.0194L14.7977 22.6872L15.1073 22.4823L14.0034 20.8145ZM13.4506 21.1103L13.5692 21.8145L15.5415 21.4822L15.4228 20.7781L13.4506 21.1103ZM13.3353 21.4146L13.885 21.7782L14.9884 20.1102L14.4387 19.7465L13.3353 21.4146ZM12.887 19.1867L12.887 20.5806L14.887 20.5806L14.887 19.1867L12.887 19.1867ZM14.6513 20.4846L14.8683 19.3793L12.9057 18.994L12.6887 20.0993L14.6513 20.4846ZM12.2754 20.1032L12.8714 20.8939L14.4686 19.6901L13.8726 18.8993L12.2754 20.1032ZM12.2129 21.5609L13.7261 20.2594L12.4219 18.7431L10.9087 20.0447L12.2129 21.5609ZM12.216 17.7612L10.7028 20.2892L12.4189 21.3164L13.932 18.7883L12.216 17.7612ZM13.3687 17.0338L12.6512 17.3685L13.4968 19.181L14.2143 18.8462L13.3687 17.0338ZM12.84 17.1781L12.7937 17.8736L14.7893 18.0064L14.8356 17.3109L12.84 17.1781ZM15.1076 17.9209L14.7893 16.9368L12.8863 17.5522L13.2046 18.5363L15.1076 17.9209ZM14.1448 19.5431L14.7986 18.9948L13.5135 17.4623L12.8597 18.0106L14.1448 19.5431ZM14.5022 19.2011L14.5022 18.7769L12.5022 18.7769L12.5022 19.2011L14.5022 19.2011ZM14.0498 17.4693L12.8722 18.4245L14.1322 19.9777L15.3097 19.0225L14.0498 17.4693ZM15.1938 19.4605L15.5757 18.69L13.7838 17.8018L13.4019 18.5723L15.1938 19.4605ZM15.4779 20.0052L15.284 18.8508L13.3117 19.182L13.5055 20.3364L15.4779 20.0052ZM16.0739 20.9036L15.3564 19.6685L13.627 20.6731L14.3445 21.9083L16.0739 20.9036ZM13.8522 20.5292L14.2631 21.7297L16.1554 21.0822L15.7445 19.8816L13.8522 20.5292ZM13.8158 18.8705L13.7985 20.1923L15.7983 20.2185L15.8157 18.8968L13.8158 18.8705ZM15.2615 16.8205L14.055 18.2346L15.5765 19.5327L16.783 18.1186L15.2615 16.8205ZM16.063 19.521L16.9049 17.9395L15.1395 16.9997L14.2976 18.5811L16.063 19.521ZM16.2173 20.1372L16.1797 19.0175L14.1809 19.0846L14.2185 20.2044L16.2173 20.1372ZM15.52 18.1835L14.4351 19.5486L16.0007 20.793L17.0857 19.428L15.52 18.1835ZM15.3029 18.1997L15.3029 18.8058L17.3029 18.8058L17.3029 18.1997L15.3029 18.1997ZM14.9745 17.1473L15.339 18.4661L17.2667 17.9333L16.9022 16.6144L14.9745 17.1473ZM15.0847 15.9862L14.9545 16.7019L16.9222 17.0598L17.0524 16.3441L15.0847 15.9862ZM16.6182 15.1652L16.0685 15.1652L16.0685 17.1652L16.6182 17.1652L16.6182 15.1652ZM18.6759 15.9408L17.0036 15.2424L16.2329 17.0879L17.9052 17.7863L18.6759 15.9408ZM17.1958 18.086L18.4746 17.8464L18.1064 15.8806L16.8276 16.1202L17.1958 18.086ZM18.1949 16.0326L16.9537 16.1048L17.0697 18.1014L18.3109 18.0292L18.1949 16.0326ZM18.1211 18.3719L18.8473 17.8351L17.6585 16.2268L16.9323 16.7635L18.1211 18.3719ZM18.3648 16.5422L17.4968 16.5681L17.5566 18.5673L18.4246 18.5413L18.3648 16.5422ZM18.3709 15.9767L17.6158 16.9146L19.1736 18.1689L19.9287 17.2309L18.3709 15.9767ZM20.1711 15.6038L19.1498 15.6038L19.1498 17.6038L20.1711 17.6038L20.1711 15.6038ZM21.7052 16.9146L20.9501 15.9767L19.3922 17.2309L20.1474 18.1689L21.7052 16.9146ZM21.8242 16.5681L20.9562 16.5422L20.8964 18.5413L21.7643 18.5673L21.8242 16.5681ZM20.4682 17.8396L21.2059 18.3763L22.3826 16.7591L21.6448 16.2223L20.4682 17.8396ZM22.3557 16.1048L21.1145 16.0326L20.9984 18.0292L22.2397 18.1014L22.3557 16.1048ZM20.8348 17.8464L22.1136 18.086L22.4818 16.1202L21.203 15.8806L20.8348 17.8464ZM22.3265 15.241L20.6369 15.9394L21.4009 17.7877L23.0905 17.0893L22.3265 15.241ZM23.2582 15.1652L22.7085 15.1652L22.7085 17.1652L23.2582 17.1652L23.2582 15.1652ZM24.3658 16.717L24.2442 15.9984L22.2722 16.3319L22.3938 17.0505L24.3658 16.717ZM23.9791 18.469L24.3436 17.1502L22.4159 16.6173L22.0513 17.9362L23.9791 18.469ZM24.0152 18.8086L24.0152 18.2026L22.0152 18.2026L22.0152 18.8086L24.0152 18.8086ZM24.8768 19.5545L23.8005 18.1895L22.2299 19.4278L23.3062 20.7928L24.8768 19.5545ZM23.1178 19.0279L23.0918 20.1505L25.0912 20.1969L25.1173 19.0742L23.1178 19.0279ZM22.3934 17.9205L23.2324 19.5164L25.0027 18.5857L24.1636 16.9898L22.3934 17.9205ZM25.2521 18.2175L24.0369 16.8034L22.5201 18.1069L23.7352 19.521L25.2521 18.2175ZM25.5195 20.1859L25.4935 18.8498L23.4938 18.8887L23.5199 20.2249L25.5195 20.1859ZM25.0559 21.7385L25.4668 20.5264L23.5726 19.8844L23.1618 21.0965L25.0559 21.7385ZM23.9677 19.671L23.2444 20.9148L24.9733 21.9202L25.6966 20.6764L23.9677 19.671ZM24.0431 18.8513L23.8464 20.0057L25.818 20.3417L26.0147 19.1873L24.0431 18.8513ZM23.7495 18.6956L24.1343 19.4661L25.9235 18.5725L25.5387 17.802L23.7495 18.6956ZM26.4516 18.4274L25.2741 17.4722L24.0141 19.0254L25.1917 19.9806L26.4516 18.4274ZM24.8217 18.7769L24.8217 19.204L26.8217 19.204L26.8217 18.7769L24.8217 18.7769ZM24.5252 18.9948L25.1791 19.5431L26.4642 18.0106L25.8103 17.4623L24.5252 18.9948ZM24.5346 16.9368L24.2163 17.9209L26.1193 18.5363L26.4375 17.5522L24.5346 16.9368ZM26.5275 17.8777L26.4841 17.1822L24.488 17.3068L24.5314 18.0023L26.5275 17.8777ZM20.7845 20.4291L21.2156 20.4291L21.2156 18.4291L20.7845 18.4291L20.7845 20.4291ZM21.7639 19.7237L21.7812 19.5101L19.7878 19.3481L19.7704 19.5616L21.7639 19.7237ZM20.36 21.1486L21.3408 20.4618L20.1935 18.8235L19.2127 19.5104L20.36 21.1486ZM19.5231 21.3295L19.7863 21.3295L19.7863 19.3295L19.5231 19.3295L19.5231 21.3295ZM17.9686 20.4618L18.9494 21.1486L20.0967 19.5104L19.1159 18.8235L17.9686 20.4618ZM17.5282 19.5101L17.5455 19.7237L19.539 19.5616L19.5216 19.3481L17.5282 19.5101ZM18.0938 20.4291L18.5249 20.4291L18.5249 18.4291L18.0938 18.4291L18.0938 20.4291ZM17.5497 21.2878L18.7706 20.1652L17.4169 18.693L16.196 19.8156L17.5497 21.2878ZM16.6869 18.5257L15.9607 20.1418L17.785 20.9616L18.5112 19.3455L16.6869 18.5257ZM17.8379 17.8974L17.4734 17.9435L17.7247 19.9277L18.0892 19.8815L17.8379 17.8974ZM18.0903 17.4675L17.3149 18.1284L18.6123 19.6505L19.3877 18.9896L18.0903 17.4675ZM19.1498 17.2286L18.739 17.2286L18.739 19.2286L19.1498 19.2286L19.1498 17.2286ZM20.1498 18.4248L20.1498 18.2286L18.1498 18.2286L18.1498 18.4248L20.1498 18.4248ZM18.8605 19.4248L19.1498 19.4248L19.1498 17.4248L18.8605 17.4248L18.8605 19.4248ZM19.1985 19.4698L19.5341 19.1639L18.1869 17.6857L17.8512 17.9917L19.1985 19.4698ZM19.5249 19.3541L19.5249 18.7307L17.5249 18.7307L17.5249 19.3541L19.5249 19.3541ZM18.912 18.3727L18.5764 18.3554L18.4734 20.3527L18.809 20.3701L18.912 18.3727ZM19.8454 18.8689L19.4722 18.5803L18.2488 20.1625L18.622 20.4511L19.8454 18.8689ZM20.0757 18.66L19.2337 18.66L19.2337 20.66L20.0757 20.66L20.0757 18.66ZM19.8372 18.5803L19.464 18.8689L20.6874 20.4511L21.0606 20.1625L19.8372 18.5803ZM20.733 18.3554L20.3974 18.3727L20.5004 20.3701L20.836 20.3527L20.733 18.3554ZM19.7845 18.7307L19.7845 19.3541L21.7845 19.3541L21.7845 18.7307L19.7845 18.7307ZM19.7753 19.1639L20.1109 19.4698L21.4581 17.9917L21.1225 17.6857L19.7753 19.1639ZM20.1596 19.4248L20.4489 19.4248L20.4489 17.4248L20.1596 17.4248L20.1596 19.4248ZM19.1596 18.2286L19.1596 18.4248L21.1596 18.4248L21.1596 18.2286L19.1596 18.2286ZM20.5675 17.2286L20.1596 17.2286L20.1596 19.2286L20.5675 19.2286L20.5675 17.2286ZM21.9916 18.1284L21.2162 17.4675L19.9189 18.9896L20.6942 19.6505L21.9916 18.1284ZM21.8256 17.9441L21.4726 17.8979L21.2132 19.881L21.5662 19.9272L21.8256 17.9441ZM23.3365 20.1405L22.6074 18.5244L20.7844 19.3468L21.5135 20.963L23.3365 20.1405ZM20.5353 20.162L21.7447 21.2846L23.1053 19.8188L21.8959 18.6962L20.5353 20.162Z" fill="#FEFEFF" mask="url(#path-2-inside-1_325_7588)"/>
</svg>
