<svg width="26" height="26" viewBox="0 0 26 26" fill="none" xmlns="http://www.w3.org/2000/svg">
<path d="M11.6004 11.6003C12.5199 11.8255 13.4803 11.8255 14.3998 11.6003C14.9235 9.47058 16.5867 7.8074 18.7164 7.28373C19.4886 4.12674 17.5549 0.941208 14.3972 0.169645C11.2396 -0.601917 8.0547 1.33121 7.28314 4.48884C7.05861 5.40706 7.05861 6.36616 7.28314 7.28438C9.41354 7.80675 11.0767 9.46993 11.6004 11.6003Z" fill="#364253"/>
<path d="M14.3999 14.3993C13.4804 14.1742 12.52 14.1742 11.6005 14.3993C11.0768 16.5291 9.41362 18.1923 7.28387 18.7159C6.51166 21.8729 8.44543 25.0585 11.6031 25.83C14.76 26.6022 17.9456 24.6685 18.7171 21.5108C18.9417 20.5926 18.9417 19.6335 18.7171 18.7153C16.5867 18.1929 14.9236 16.5297 14.3999 14.3993Z" fill="#364253"/>
<path d="M20.1161 7.11458C19.645 7.11458 19.1751 7.17103 18.717 7.2833C18.194 9.41304 16.5308 11.0762 14.4011 11.5992C14.1759 12.5188 14.1759 13.4792 14.4011 14.3987C16.5308 14.9224 18.194 16.5855 18.717 18.7153C21.8746 19.4862 25.0589 17.5524 25.8304 14.3948C26.602 11.2372 24.6676 8.05291 21.51 7.28135C21.0538 7.16974 20.5859 7.11328 20.1161 7.11328V7.11458Z" fill="#364253"/>
<path d="M11.6003 14.3985C11.8255 13.479 11.8255 12.5186 11.6003 11.5991C9.47058 11.0761 7.8074 9.41288 7.28373 7.28314C4.12674 6.51092 0.941208 8.4447 0.169645 11.6023C-0.601917 14.76 1.33121 17.9448 4.48884 18.7164C5.40706 18.9409 6.36616 18.9409 7.28438 18.7164C7.80675 16.586 9.46993 14.9222 11.6003 14.3985Z" fill="#364253"/>
<path d="M14.3998 11.5998C16.5295 11.0761 18.1927 9.41295 18.7164 7.2832C16.5866 7.80688 14.9235 9.47005 14.3998 11.5998Z" fill="#A0A0A0"/>
<path d="M14.3998 14.3984C14.9235 16.5288 16.586 18.1914 18.7164 18.715C18.1927 16.5853 16.5295 14.9221 14.3998 14.3984Z" fill="#A0A0A0"/>
<path d="M11.6004 11.5998C11.0767 9.47005 9.41356 7.80688 7.28381 7.2832C7.80749 9.41295 9.47067 11.0761 11.6004 11.5998Z" fill="#A0A0A0"/>
<path d="M11.6004 14.3984C9.47067 14.9221 7.80749 16.5853 7.28381 18.715C9.41356 18.1914 11.0767 16.5282 11.6004 14.3984Z" fill="#A0A0A0"/>
</svg>
