<svg width="512" height="512" viewBox="0 0 512 512" fill="none" xmlns="http://www.w3.org/2000/svg">
<rect x="0.5" y="0.5" width="511" height="511" rx="255.5" fill="#DEEAF6"/>
<path d="M384.041 317.075L383.653 315.919L382.878 314.763L317.376 226.715V164.291C326.291 157.741 332.105 147.144 332.105 135.391C332.105 115.74 316.02 99.5557 296.059 99.5557H254.2C255.557 100.134 256.526 101.482 256.526 103.216C256.526 104.565 255.944 105.721 254.975 106.492C254.975 106.684 254.975 106.877 254.975 106.877V115.74C259.239 119.4 268.347 128.263 273.579 144.061H231.527C236.759 128.263 245.867 119.208 250.131 115.74V106.877C250.131 106.684 250.131 106.684 250.131 106.492C249.162 105.721 248.386 104.565 248.386 103.216C248.386 101.675 249.355 100.326 250.712 99.5557H209.24C189.474 99.5557 173.195 115.74 173.195 135.391C173.195 147.144 179.009 157.741 187.923 164.291V226.715L122.422 314.763L121.646 315.919L120.871 317.075C109.437 337.112 109.437 361.003 120.871 380.655C132.111 400.307 152.266 411.867 174.745 412.445C176.49 403.389 184.047 396.453 193.543 395.683C193.349 395.297 193.349 394.912 193.349 394.527C193.349 389.132 197.613 385.086 202.845 385.086C205.752 385.086 208.465 386.435 210.016 388.554C213.891 383.737 219.899 380.655 226.488 380.655C227.263 380.655 228.038 380.847 229.007 380.847L238.891 222.669C240.441 225.752 243.542 228.064 247.418 228.064H257.688C261.371 228.064 264.665 225.944 266.215 222.669L272.61 381.618C273.386 381.425 274.161 381.425 275.324 381.425C282.3 381.425 288.695 384.893 292.377 390.288C293.346 389.517 294.897 388.939 296.253 388.939C298.772 388.939 300.71 390.481 301.679 392.6C304.392 391.637 307.299 391.251 310.012 391.251C322.609 391.251 333.267 400.499 335.205 412.252C355.554 410.133 373.382 398.573 383.847 380.847C395.475 360.618 395.475 336.92 384.041 317.075ZM285.207 233.651C277.843 219.972 267.959 219.008 266.022 219.008C254.394 225.174 250.518 225.174 238.697 219.008C236.759 219.008 226.876 219.972 219.511 233.651C219.511 233.651 201.489 209.568 229.201 196.659L234.821 209.375C225.907 183.365 226.1 163.328 229.976 148.493H274.548C278.424 163.328 278.618 183.365 269.704 209.375L275.324 196.659C303.23 209.375 285.207 233.651 285.207 233.651Z" fill="#364253"/>
<path d="M251.739 147.127C243.864 147.127 237.479 153.512 237.479 161.388C237.479 169.263 243.864 175.649 251.739 175.649C259.615 175.649 266 169.263 266 161.388C266 153.512 259.615 147.127 251.739 147.127Z" fill="#364253"/>
<path d="M251.739 183.742C248.546 183.742 245.779 186.296 245.779 189.702C245.779 192.895 248.333 195.662 251.739 195.662C254.932 195.662 257.699 193.108 257.699 189.702C257.699 186.296 255.145 183.742 251.739 183.742Z" fill="#364253"/>
<rect x="0.5" y="0.5" width="511" height="511" rx="255.5" stroke="white"/>
</svg>
