<svg width="512" height="512" viewBox="0 0 512 512" fill="none" xmlns="http://www.w3.org/2000/svg">
<rect x="0.5" y="0.5" width="511" height="511" rx="255.5" fill="#DEEAF6"/>
<path d="M258.792 85.3311C304.894 85.3311 348.775 103.481 381.399 136.105C414.023 168.729 432.173 212.61 432.173 258.712C432.173 304.814 414.023 348.772 381.399 381.396C348.775 414.02 304.894 432.17 258.792 432.17C212.613 432.17 168.808 414.02 136.184 381.396C103.56 348.772 85.334 304.891 85.334 258.789C85.334 212.686 103.484 168.729 136.108 136.105C168.732 103.481 212.613 85.3311 258.792 85.3311ZM161.763 248.986C164.06 226.318 174.169 205.181 190.404 189.176C208.707 171.179 233.137 161.224 258.792 161.224C284.753 161.224 309.412 171.409 327.792 189.789C343.721 205.718 353.6 226.548 355.897 248.91C376.881 246.076 398.247 247.301 419.077 250.901C417.163 211.002 400.544 173.553 372.286 145.295C342.036 115.121 301.448 98.35 258.715 98.35C215.982 98.35 175.471 115.121 145.297 145.371C117.039 173.63 100.421 211.078 98.506 250.977C119.336 247.301 140.703 246.076 161.763 248.986ZM342.955 251.207C341.194 231.449 332.54 212.993 318.525 198.978C302.596 183.049 281.23 174.242 258.715 174.242C236.506 174.242 215.293 182.896 199.441 198.442C185.043 212.533 176.237 231.219 174.475 251.284C181.291 252.815 188.03 254.806 194.616 257.18C219.046 266.217 238.651 280.538 258.715 296.62C284.983 275.56 309.489 258.636 342.955 251.207ZM248.453 304.967C230.303 290.494 212.153 277.475 190.174 269.357C160.384 258.329 129.292 258.406 98.4295 264.073C99.3484 293.48 108.309 321.815 124.391 346.475C149.203 350.457 172.867 349.002 196.148 339.123C215.676 330.929 232.141 318.14 248.453 304.967ZM419.077 264.073C386.683 258.176 354.366 258.559 323.503 270.965C299.457 280.614 280.235 295.854 260.323 312.013C243.322 325.721 226.398 339.506 206.563 348.925C183.588 359.8 160.231 363.246 135.036 360.872C138.252 364.778 141.698 368.607 145.297 372.206C175.088 401.997 214.91 418.768 257.03 419.151C266.756 406.132 274.567 391.658 282.226 377.337C295.168 353.367 307.727 330.622 327.409 311.324C352.911 286.358 384.539 272.88 419.077 265.298V264.073ZM417.928 278.853C386.607 286.205 358.271 299.071 335.297 322.045C317.3 340.119 305.583 361.255 293.636 383.464C287.203 395.334 280.847 407.281 273.342 418.462C310.791 415.092 345.635 398.704 372.209 372.13C397.405 347.011 413.487 314.234 417.928 278.853Z" fill="#364253"/>
<path fill-rule="evenodd" clip-rule="evenodd" d="M260.094 311.784C225.939 339.43 192.932 366.157 134.271 360.49C137.64 364.625 141.239 368.607 145.069 372.436C173.787 401.154 213.379 419.075 257.184 419.534C266.91 406.592 274.645 392.194 282.533 377.567C307.116 332.001 332.694 284.597 419.384 265.681L419.461 263.92C337.748 248.987 298.155 280.998 260.094 311.784Z" fill="#8D98A8"/>
<path fill-rule="evenodd" clip-rule="evenodd" d="M418.311 278.472C340.121 296.775 316.305 340.962 293.407 383.389C286.821 395.565 280.388 407.588 272.729 418.923C311.556 415.553 346.401 398.475 372.439 372.437C397.098 347.702 413.87 315.001 418.311 278.472Z" fill="#8D98A8"/>
<path fill-rule="evenodd" clip-rule="evenodd" d="M248.913 304.969C231.452 291.031 213.073 277.553 190.251 269.129C166.281 260.245 137.027 256.722 98.0469 263.844C98.9659 294.401 108.462 322.812 124.161 346.782C183.129 356.202 215.906 331.619 248.913 304.969Z" fill="#8D98A8"/>
<path fill-rule="evenodd" clip-rule="evenodd" d="M194.54 257.486C220.041 266.905 239.876 281.839 258.792 297.002C282.609 277.856 307.881 259.17 343.338 251.436C341.577 230.912 332.54 212.456 318.832 198.747C303.439 183.355 282.226 173.858 258.792 173.858C235.664 173.858 214.604 183.125 199.288 198.211C185.273 211.996 175.93 230.682 174.169 251.512C181.368 253.12 188.107 255.112 194.54 257.486Z" fill="url(#paint0_linear_5180_15839)"/>
<mask id="mask0_5180_15839" style="mask-type:alpha" maskUnits="userSpaceOnUse" x="189" y="177" width="155" height="121">
<path d="M343.799 177.232H189.334V297.542H343.799V177.232Z" fill="url(#paint1_linear_5180_15839)"/>
</mask>
<g mask="url(#mask0_5180_15839)">
<path fill-rule="evenodd" clip-rule="evenodd" d="M211.673 264.28C229.824 273.463 245.176 285.348 259.923 297.464C283.443 278.171 308.4 259.341 343.415 251.547C341.676 230.865 332.752 212.266 319.214 198.453C309.761 188.806 298.039 181.398 284.88 177.23C283.67 184.33 281.779 191.199 279.283 197.835C282.838 199.456 285.409 203.083 285.409 207.327C285.409 213.038 280.872 217.746 275.2 217.746C273.385 217.746 271.721 217.283 270.284 216.434C266.956 221.913 263.175 227.16 259.015 232.022C260.15 234.26 260.831 236.807 260.831 239.431C260.831 248.306 253.797 255.405 245.176 255.405C241.697 255.405 238.521 254.248 235.949 252.318C228.311 257.257 220.219 261.27 211.673 264.28ZM198.892 228.164C202.825 228.164 206.001 231.405 206.001 235.418C206.001 239.431 202.825 242.672 198.892 242.672C194.96 242.672 191.783 239.431 191.783 235.418C191.783 231.405 194.96 228.164 198.892 228.164ZM214.698 206.17C217.269 206.17 219.387 208.331 219.387 210.954C219.387 213.578 217.269 215.739 214.698 215.739C212.127 215.739 210.009 213.578 210.009 210.954C210.009 208.331 212.127 206.17 214.698 206.17ZM245.025 188.575C248.125 188.575 250.621 191.121 250.621 194.285C250.621 197.449 248.125 199.996 245.025 199.996C241.924 199.996 239.428 197.449 239.428 194.285C239.428 191.121 241.924 188.575 245.025 188.575ZM245.025 227.238C251.604 227.238 256.898 232.64 256.898 239.354C256.898 246.068 251.604 251.47 245.025 251.47C238.445 251.47 233.151 246.068 233.151 239.354C233.151 232.717 238.445 227.238 245.025 227.238ZM275.124 199.996C279.057 199.996 282.309 203.314 282.309 207.327C282.309 211.34 279.057 214.659 275.124 214.659C271.191 214.659 267.939 211.417 267.939 207.327C267.939 203.237 271.191 199.996 275.124 199.996Z" fill="#6C7A89"/>
</g>
<rect x="0.5" y="0.5" width="511" height="511" rx="255.5" stroke="white"/>
<defs>
<linearGradient id="paint0_linear_5180_15839" x1="258.738" y1="296.64" x2="258.744" y2="174.65" gradientUnits="userSpaceOnUse">
<stop stop-color="#C5D3E2"/>
<stop offset="1" stop-color="white"/>
</linearGradient>
<linearGradient id="paint1_linear_5180_15839" x1="378.191" y1="346.324" x2="167.909" y2="141.089" gradientUnits="userSpaceOnUse">
<stop stop-color="white"/>
<stop offset="1" stop-color="white" stop-opacity="0"/>
</linearGradient>
</defs>
</svg>
