<svg width="512" height="512" viewBox="0 0 512 512" fill="none" xmlns="http://www.w3.org/2000/svg">
<circle cx="256" cy="256" r="256" fill="url(#paint0_linear_908_5702)"/>
<path d="M50 265.707C50 258.031 51.5487 251.336 54.646 245.623C57.7433 239.821 62.0352 235.358 67.5219 232.234C73.0085 229.021 79.2916 227.414 86.3712 227.414C95.4861 227.414 103.008 229.735 108.937 234.377C114.955 238.929 118.981 245.356 121.017 253.657H100.973C99.9108 250.444 98.0967 247.944 95.5304 246.159C93.0525 244.285 89.9552 243.347 86.2384 243.347C80.9288 243.347 76.7253 245.311 73.628 249.238C70.5307 253.077 68.982 258.566 68.982 265.707C68.982 272.759 70.5307 278.248 73.628 282.176C76.7253 286.014 80.9288 287.933 86.2384 287.933C93.7605 287.933 98.6719 284.541 100.973 277.757H121.017C118.981 285.791 114.955 292.173 108.937 296.904C102.92 301.635 95.3976 304 86.3712 304C79.2916 304 73.0085 302.438 67.5219 299.314C62.0352 296.1 57.7433 291.637 54.646 285.925C51.5487 280.123 50 273.384 50 265.707Z" fill="white"/>
<path d="M175.25 302.795L160.117 279.766L146.711 302.795H126.799L150.826 265.573L126.534 228.619H147.507L162.507 251.515L176.046 228.619H195.958L171.799 265.573L196.223 302.795H175.25Z" fill="white"/>
<path d="M224.635 209.339V267.18C224.635 273.517 226.272 278.382 229.546 281.774C232.821 285.077 237.422 286.728 243.352 286.728C249.369 286.728 254.015 285.077 257.289 281.774C260.564 278.382 262.201 273.517 262.201 267.18V209.339H280.917V267.046C280.917 274.99 279.192 281.729 275.74 287.264C272.378 292.709 267.82 296.815 262.068 299.582C256.404 302.349 250.077 303.732 243.086 303.732C236.184 303.732 229.9 302.349 224.237 299.582C218.662 296.815 214.237 292.709 210.963 287.264C207.688 281.729 206.051 274.99 206.051 267.046V209.339H224.635Z" fill="white"/>
<path d="M330.863 303.732C324.403 303.732 318.563 302.616 313.342 300.385C308.209 298.153 304.138 294.94 301.129 290.745C298.121 286.55 296.572 281.596 296.483 275.883H316.395C316.66 279.721 317.988 282.756 320.377 284.987C322.855 287.219 326.218 288.335 330.465 288.335C334.801 288.335 338.209 287.308 340.686 285.255C343.164 283.113 344.403 280.346 344.403 276.954C344.403 274.187 343.562 271.911 341.881 270.126C340.2 268.34 338.076 266.957 335.509 265.975C333.032 264.904 329.58 263.743 325.156 262.494C319.138 260.709 314.227 258.968 310.421 257.272C306.705 255.487 303.474 252.854 300.731 249.372C298.076 245.802 296.749 241.071 296.749 235.18C296.749 229.646 298.121 224.826 300.864 220.72C303.607 216.614 307.457 213.49 312.412 211.347C317.368 209.116 323.032 208 329.403 208C338.961 208 346.704 210.365 352.633 215.096C358.651 219.738 361.969 226.254 362.589 234.644H342.147C341.97 231.431 340.598 228.798 338.032 226.745C335.554 224.603 332.235 223.531 328.076 223.531C324.448 223.531 321.527 224.469 319.315 226.343C317.191 228.218 316.129 230.94 316.129 234.51C316.129 237.01 316.926 239.107 318.519 240.803C320.2 242.41 322.235 243.749 324.625 244.82C327.102 245.802 330.554 246.962 334.978 248.301C340.996 250.086 345.908 251.872 349.713 253.657C353.518 255.442 356.792 258.12 359.536 261.69C362.279 265.261 363.651 269.947 363.651 275.749C363.651 280.748 362.368 285.389 359.801 289.674C357.235 293.958 353.474 297.395 348.518 299.983C343.562 302.483 337.678 303.732 330.863 303.732Z" fill="white"/>
<path d="M412.151 209.339C421.885 209.339 430.425 211.258 437.77 215.096C445.204 218.934 450.912 224.424 454.894 231.565C458.965 238.616 461 246.828 461 256.201C461 265.573 458.965 273.785 454.894 280.837C450.912 287.799 445.204 293.199 437.77 297.038C430.425 300.876 421.885 302.795 412.151 302.795H379.762V209.339H412.151ZM411.487 286.862C421.222 286.862 428.744 284.184 434.053 278.828C439.363 273.473 442.018 265.93 442.018 256.201C442.018 246.471 439.363 238.884 434.053 233.439C428.744 227.905 421.222 225.138 411.487 225.138H398.346V286.862H411.487Z" fill="white"/>
<defs>
<linearGradient id="paint0_linear_908_5702" x1="256" y1="0" x2="256" y2="512" gradientUnits="userSpaceOnUse">
<stop stop-color="#83D9C5"/>
<stop offset="1" stop-color="#21AD8C"/>
</linearGradient>
</defs>
</svg>
