<svg width="512" height="512" viewBox="0 0 512 512" fill="none" xmlns="http://www.w3.org/2000/svg">
<rect x="0.5" y="0.5" width="511" height="511" rx="255.5" fill="#DEEAF6"/>
<path fill-rule="evenodd" clip-rule="evenodd" d="M253.031 391.579H276.24V275.535C276.24 262.876 265.69 252.326 253.031 252.326H229.822V368.37C229.822 381.029 240.372 391.579 253.031 391.579Z" fill="#8D98A8"/>
<path fill-rule="evenodd" clip-rule="evenodd" d="M229.822 253.03H253.031C265.69 253.03 276.24 242.481 276.24 229.821V113.777H253.031C240.372 113.777 229.822 124.327 229.822 136.986V253.03Z" fill="#8D98A8"/>
<path fill-rule="evenodd" clip-rule="evenodd" d="M369.073 393.691H392.282V272.021C392.282 262.878 381.732 255.141 369.073 255.141C381.732 255.141 392.282 247.405 392.282 238.262V115.889H369.073C356.414 115.889 345.864 123.625 345.864 132.768V254.438V376.812C346.568 385.955 356.414 393.691 369.073 393.691Z" fill="#8D98A8"/>
<path fill-rule="evenodd" clip-rule="evenodd" d="M362.745 393.691H391.58L304.372 276.24C295.229 264.284 274.833 254.438 259.361 254.438C275.537 254.438 295.932 244.592 304.372 232.636L392.284 115.889H363.449C347.273 115.889 326.877 125.735 318.438 137.691L229.822 254.438L317.734 371.889C326.174 383.845 347.273 393.691 362.745 393.691Z" fill="#364253"/>
<path fill-rule="evenodd" clip-rule="evenodd" d="M246.7 392.283H275.536L188.327 274.832C179.184 262.876 158.788 253.03 143.316 253.03C159.492 253.03 179.887 243.184 188.327 231.228L275.536 113.777H246.7C230.525 113.777 210.129 123.623 201.689 135.58L113.777 253.03L201.689 370.481C210.129 382.437 230.525 392.283 246.7 392.283Z" fill="#364253"/>
<rect x="0.5" y="0.5" width="511" height="511" rx="255.5" stroke="white"/>
</svg>
