<svg width="72" height="72" viewBox="0 0 72 72" fill="none" xmlns="http://www.w3.org/2000/svg">
<rect width="72" height="72" rx="36" fill="#DEEAF6"/>
<path fill-rule="evenodd" clip-rule="evenodd" d="M35.5826 55.0658H38.8463V38.7471C38.8463 36.9669 37.3628 35.4834 35.5826 35.4834H32.3188V51.8021C32.3188 53.5823 33.8024 55.0658 35.5826 55.0658Z" fill="#8D98A8"/>
<path fill-rule="evenodd" clip-rule="evenodd" d="M32.3188 35.5824H35.5826C37.3628 35.5824 38.8463 34.0989 38.8463 32.3187V16H35.5826C33.8024 16 32.3188 17.4835 32.3188 19.2637V35.5824Z" fill="#8D98A8"/>
<path fill-rule="evenodd" clip-rule="evenodd" d="M51.9009 55.3628H55.1647V38.2529C55.1647 36.9672 53.6812 35.8793 51.9009 35.8793C53.6812 35.8793 55.1647 34.7914 55.1647 33.5057V16.2969H51.9009C50.1207 16.2969 48.6372 17.3848 48.6372 18.6705V35.7804V52.9892C48.7361 54.2749 50.1207 55.3628 51.9009 55.3628Z" fill="#8D98A8"/>
<path fill-rule="evenodd" clip-rule="evenodd" d="M51.0112 55.3628H55.0661L42.8024 38.8463C41.5166 37.165 38.6485 35.7804 36.4727 35.7804C38.7474 35.7804 41.6155 34.3958 42.8024 32.7145L55.165 16.2969H51.1101C48.8353 16.2969 45.9672 17.6815 44.7804 19.3628L32.3188 35.7804L44.6815 52.2969C45.8683 53.9782 48.8353 55.3628 51.0112 55.3628Z" fill="#364253"/>
<path fill-rule="evenodd" clip-rule="evenodd" d="M34.6923 55.1648H38.7472L26.4835 38.6484C25.1978 36.967 22.3297 35.5824 20.1538 35.5824C22.4286 35.5824 25.2967 34.1978 26.4835 32.5165L38.7472 16H34.6923C32.4176 16 29.5494 17.3846 28.3626 19.0659L16 35.5824L28.3626 52.0989C29.5494 53.7802 32.4176 55.1648 34.6923 55.1648Z" fill="#364253"/>
</svg>
