<svg width="32" height="32" viewBox="0 0 32 32" fill="none" xmlns="http://www.w3.org/2000/svg">
<circle cx="16" cy="16" r="16" fill="url(#paint0_linear_5308_16014)"/>
<path d="M7.62935 17.5379V16.4942H8.90519C9.16275 16.4942 9.37838 16.4462 9.55209 16.35C9.73179 16.2538 9.86656 16.1209 9.95641 15.9512C10.0522 15.7815 10.1002 15.5864 10.1002 15.3658C10.1002 15.1452 10.0522 14.95 9.95641 14.7803C9.86656 14.6106 9.73179 14.4805 9.55209 14.39C9.37838 14.2939 9.16275 14.2458 8.90519 14.2458H7.62935V13.2022H8.79737C9.34844 13.2022 9.81564 13.287 10.199 13.4567C10.5883 13.6264 10.8848 13.8696 11.0885 14.1864C11.2921 14.4975 11.394 14.868 11.394 15.2979V15.4336C11.394 15.8635 11.2921 16.2369 11.0885 16.5536C10.8848 16.8647 10.5883 17.108 10.199 17.2833C9.81564 17.453 9.34844 17.5379 8.79737 17.5379H7.62935ZM6.5332 19.4384V13.2022H7.80904V19.4384H6.5332Z" fill="white"/>
<path d="M15.5288 19.5997C14.9358 19.5997 14.4207 19.5007 13.9834 19.3027C13.5521 19.1047 13.1928 18.8473 12.9052 18.5306C12.6237 18.2082 12.4111 17.8631 12.2673 17.4954C12.1296 17.1221 12.0607 16.7629 12.0607 16.4179V16.2312C12.0607 15.8522 12.1325 15.4761 12.2763 15.1027C12.4201 14.7238 12.6357 14.3815 12.9232 14.0761C13.2167 13.7706 13.5791 13.5274 14.0104 13.3464C14.4416 13.1597 14.9478 13.0664 15.5288 13.0664C16.1038 13.0664 16.607 13.1597 17.0382 13.3464C17.4695 13.5274 17.8289 13.7706 18.1164 14.0761C18.4099 14.3815 18.6285 14.7238 18.7723 15.1027C18.9161 15.4761 18.9879 15.8522 18.9879 16.2312V16.4179C18.9879 16.7629 18.9161 17.1221 18.7723 17.4954C18.6345 17.8631 18.4219 18.2082 18.1344 18.5306C17.8529 18.8473 17.4935 19.1047 17.0562 19.3027C16.6249 19.5007 16.1158 19.5997 15.5288 19.5997ZM15.5288 18.4797C15.8642 18.4797 16.1637 18.4231 16.4273 18.31C16.6968 18.1968 16.9244 18.0413 17.1101 17.8433C17.3018 17.6397 17.4455 17.4106 17.5414 17.156C17.6432 16.8959 17.6941 16.6215 17.6941 16.333C17.6941 16.0219 17.6432 15.7363 17.5414 15.4761C17.4455 15.2159 17.3018 14.9896 17.1101 14.7973C16.9244 14.605 16.6968 14.4551 16.4273 14.3476C16.1577 14.2401 15.8582 14.1864 15.5288 14.1864C15.1934 14.1864 14.8909 14.2401 14.6213 14.3476C14.3518 14.4551 14.1212 14.605 13.9295 14.7973C13.7438 14.9896 13.6001 15.2159 13.4982 15.4761C13.4024 15.7363 13.3545 16.0219 13.3545 16.333C13.3545 16.6215 13.4024 16.8959 13.4982 17.156C13.6001 17.4106 13.7438 17.6397 13.9295 17.8433C14.1212 18.0413 14.3518 18.1968 14.6213 18.31C14.8909 18.4231 15.1934 18.4797 15.5288 18.4797Z" fill="white"/>
<path d="M21.3171 19.4724V18.3524H22.6738C23.0152 18.3524 23.3177 18.3043 23.5813 18.2082C23.8508 18.1063 24.0784 17.9649 24.2641 17.7839C24.4498 17.6029 24.5906 17.3908 24.6864 17.1476C24.7882 16.8987 24.8391 16.6243 24.8391 16.3245C24.8391 16.0134 24.7882 15.7363 24.6864 15.493C24.5906 15.2442 24.4498 15.032 24.2641 14.8567C24.0784 14.6813 23.8508 14.5484 23.5813 14.4579C23.3177 14.3674 23.0152 14.3221 22.6738 14.3221H21.3171V13.2022H22.5929C23.1859 13.2022 23.7041 13.2842 24.1473 13.4482C24.5906 13.6123 24.9589 13.8385 25.2524 14.127C25.5459 14.4098 25.7646 14.7351 25.9083 15.1027C26.0581 15.4648 26.1329 15.8409 26.1329 16.2312V16.4179C26.1329 16.7912 26.0581 17.1589 25.9083 17.5209C25.7646 17.8829 25.5459 18.211 25.2524 18.5051C24.9589 18.7993 24.5906 19.034 24.1473 19.2094C23.7041 19.3847 23.1859 19.4724 22.5929 19.4724H21.3171ZM20.221 19.4724V13.2022H21.4968V19.4724H20.221Z" fill="white"/>
<defs>
<linearGradient id="paint0_linear_5308_16014" x1="16" y1="0" x2="16" y2="32" gradientUnits="userSpaceOnUse">
<stop stop-color="#87AEFB"/>
<stop offset="1" stop-color="#4B7CDA"/>
</linearGradient>
</defs>
</svg>
