<svg width="40" height="40" viewBox="0 0 40 40" fill="none" xmlns="http://www.w3.org/2000/svg">
<circle cx="20" cy="20" r="19.5" fill="#364253" stroke="#01052D"/>
<path fill-rule="evenodd" clip-rule="evenodd" d="M23.1202 8.54343L23.1954 8.4684L23.0681 8.80316L22.3043 11.9257L16.6567 11.9257L15.7598 8.29236L17.3858 9.85363L16.4715 9.52752L17.2643 10.9185L18.4216 10.9185L18.9366 9.02249L18.1409 9.56215L19.4978 6.96484L20.7767 9.50155L20.0389 9.00806L20.551 10.9416L21.7256 10.9416L22.4374 9.73242L21.5694 10.0383L23.1202 8.56074L23.1202 8.54343ZM16.0681 12.4268L15.5994 11.5898L14.4247 11.5898L13.0591 12.6519L14.526 11.9996L16.0681 12.4268ZM23.9584 16.1642L24.9074 16.6375L24.4734 15.7544L23.8109 15.7544L23.3538 14.5366L22.4858 13.8324L22.318 13.5439L22.318 13.1341L23.5418 13.3476L22.3035 12.7012L16.5633 12.7012L15.3395 13.3592L16.5633 13.1456L16.5633 13.5554L15.9384 14.5366L15.4899 15.7544L14.8273 15.7544L14.4165 16.6375L15.3395 16.1642L16.4244 14.4645L16.6096 15.1224L18.6088 15.8757L19.0833 15.4197L18.9531 14.7877L18.8519 14.323L19.2338 15.1888L19.3263 15.942L19.9715 15.942L20.0641 15.1888L20.4489 14.323L20.2233 15.4197L20.7006 15.8757L22.6999 15.1311L22.8822 14.502L22.8822 14.4645L23.9584 16.1642ZM21.0571 15.8505L21.0571 16.3786L21.6358 16.3786L21.6358 16.1651L22.2144 16.1651L22.7468 15.5879L22.1942 15.839L21.0571 15.8505ZM18.2517 15.8505L18.2517 16.3786L17.673 16.3786L17.673 16.1651L17.0944 16.1651L16.562 15.5879L17.0944 15.8505L18.2517 15.8505ZM20.2763 21.7614L20.6959 21.1582L18.6069 21.1582L19.0265 21.7614L20.2763 21.7614ZM21.3358 23.0346L21.3358 25.0345L21.7004 23.2366L23.7083 25.8339L23.7083 28.0647L23.1846 26.5236L23.1181 27.5452L21.8566 28.6996L21.819 29.4066L21.6049 28.3677L22.4092 27.5019L22.4468 26.5179L21.819 25.6896L21.8942 27.3663L21.0263 28.1946L21.8566 31.2046L20.7456 28.7227L20.3174 30.1656L20.3174 28.3793L19.7851 31.6519L20.1872 33.3141L19.1399 31.6519L18.5612 28.7227L17.4502 31.2046L18.1967 28.134L17.4213 27.3807L17.4762 25.6896L16.8484 26.5092L16.8773 27.4933L17.6817 28.3591L17.4647 29.398L17.4386 28.6909L16.1685 27.5366L16.1106 26.515L15.5898 28.056L15.5898 25.8454L17.5862 23.2481L17.9623 25.0345L17.9623 23.0346L18.7117 21.9668L19.3829 21.9668L20.1583 23.101L20.1294 21.9668L20.5865 21.9668L21.3358 23.0346ZM14.8634 13.9329L15.7025 13.9329L16.067 13.6183L15.1527 13.6183L14.6001 12.9199L13.845 12.9199L12.7803 15.2806L14.1054 13.4884L14.8634 13.9329ZM14.2018 14.8924L13.7331 15.4494L12.6163 16.2286L11.3086 15.8765L12.6019 15.8765L14.1093 14.3153L15.6022 14.2402L14.9483 14.8924L14.2018 14.8924ZM11.8872 18.7319L13.1111 17.1417L14.2944 16.1663L14.5258 15.2832L12.949 16.3625L11.8872 18.7319ZM24.1076 13.5998L24.6602 12.9043L25.4154 12.9043L26.4801 15.265L25.155 13.4699L24.3883 13.9259L23.5579 13.9259L23.1934 13.5998L24.1076 13.5998ZM23.6587 14.2227L24.327 14.872L25.0503 14.872L25.5162 15.4318L26.6416 16.2197L27.9639 15.8763L26.6416 15.8763L25.1458 14.3063L23.6587 14.2227ZM27.3677 18.7143L26.1525 17.1328L24.9576 16.166L24.7319 15.2656L26.3116 16.3421L27.3677 18.7143ZM24.4553 11.9996L22.9219 12.4268L23.379 11.5898L24.5566 11.5898L25.9193 12.6519L24.4553 11.9996ZM25.5296 17.9408L26.2385 18.2716L26.2385 18.2496L27.7517 20.7834L26.2385 19.4761L26.2385 19.4935L25.6309 20.2842L25.4168 19.1789L25.4168 20.5814L24.8671 20.9422L24.7456 21.6492L25.0609 21.8541L25.8363 21.6492L25.0552 22.3274L24.4013 21.9176L24.2335 22.7834L24.6183 23.5279L24.5286 24.0185L23.8284 23.0344L24.5286 24.3995L24.2682 26.4802L24.2682 25.2624L23.1369 23.7299L23.1369 20.9508L22.6335 22.5583L22.1301 21.0259L21.8408 21.8166L21.5977 20.8873L20.8021 20.4025L21.5977 21.3606L20.3189 20.4025L19.9544 20.6911L19.3381 20.6911L18.9822 20.4025L17.7034 21.3606L18.5077 20.4141L17.715 20.8989L17.4719 21.8281L17.1826 21.0374L16.6792 22.5698L16.1729 20.9624L16.1729 23.7415L15.0445 25.2739L15.0445 26.5033L14.7812 24.4197L15.4814 23.0546L14.7812 24.0387L14.6886 23.5453L15.0705 22.8036L14.8912 21.9378L14.246 22.3389L13.4735 21.6492L14.246 21.8541L14.5555 21.6492L14.4369 20.9451L13.8872 20.5814L13.8872 19.1875L13.6702 20.2928L13.0742 19.5021L11.561 20.8037L13.0742 18.2756L13.7917 17.9408L13.838 17.2453L14.1563 18.2294L13.5024 18.7778L13.5024 19.202L14.68 18.2467L14.298 19.0173L14.4919 20.1716L15.2094 21.4068L14.7986 20.2063L14.8159 18.8845L16.0224 17.4704L15.1805 19.0519L15.2181 20.1716L16.3031 18.8066L16.3031 18.2006L15.9385 16.8817L16.0687 16.166L16.6184 16.166L18.2907 16.8644L17.0119 17.1039L18.2531 17.0318L17.5269 17.5686L18.3949 17.5426L19.15 16.6047L20.1713 16.6047L20.9265 17.5426L21.7945 17.5686L21.0567 17.0318L22.2979 17.1039L21.0191 16.8644L22.7087 16.166L23.2584 16.166L23.38 16.8846L23.0154 18.2035L23.0154 18.8095L24.0917 20.1745L24.1177 19.0519L23.2787 17.456L24.4939 18.8701L24.5199 20.2063L24.1091 21.4183L24.8324 20.1745L25.0291 19.0202L24.6443 18.2496L25.8219 19.2049L25.8219 18.7778L25.168 18.2294L25.4862 17.2453L25.5296 17.9408ZM21.2158 19.43L20.7847 19.43L20.7674 19.6435L19.7865 20.3304L19.5233 20.3304L18.5424 19.6435L18.5251 19.43L18.094 19.43L16.873 20.5526L17.5992 18.9365L17.9638 18.8903L18.7392 18.2294L19.15 18.2294L19.15 18.4257L18.8607 18.4257L18.5251 18.7316L18.5251 19.3549L18.8607 19.3722L19.2339 19.6608L20.0759 19.6608L20.4491 19.3722L20.7847 19.3549L20.7847 18.7316L20.4491 18.4257L20.1598 18.4257L20.1598 18.2294L20.5677 18.2294L21.3431 18.8903L21.6961 18.9365L22.4252 20.5526L21.2158 19.43Z" fill="#EEEEEE"/>
</svg>
