<svg width="512" height="512" viewBox="0 0 512 512" fill="none" xmlns="http://www.w3.org/2000/svg">
<path d="M255.31 510.619C396.313 510.619 510.619 396.313 510.619 255.31C510.619 114.306 396.313 0 255.31 0C114.306 0 0 114.306 0 255.31C0 396.313 114.306 510.619 255.31 510.619Z" fill="#364253"/>
<path d="M178.337 151.471C203.519 143.366 229.835 139.346 256.288 139.563C282.025 139.438 307.624 143.319 332.167 151.068L333.433 148.882C335.562 145.086 337.633 141.461 339.646 137.779L365.016 93.6554L317.383 105.679L326.012 110.339C328.217 111.445 329.942 113.318 330.863 115.606C331.785 117.894 331.839 120.439 331.017 122.765C330.045 125.11 328.199 126.986 325.869 127.995C323.54 129.004 320.909 129.068 318.533 128.172C305.154 122.837 291.163 119.185 276.883 117.299C274.622 116.953 272.562 115.802 271.083 114.058C269.603 112.314 268.803 110.094 268.829 107.807C268.829 104.985 269.95 102.278 271.946 100.282C273.942 98.2859 276.649 97.1646 279.472 97.1646H286.318L255.08 58.4482L223.784 97.1646H230.63C232.038 97.1187 233.44 97.3524 234.756 97.8522C236.072 98.3521 237.276 99.1082 238.298 100.077C239.32 101.045 240.14 102.207 240.71 103.494C241.28 104.782 241.589 106.17 241.618 107.577C241.645 109.864 240.844 112.084 239.365 113.828C237.885 115.572 235.825 116.723 233.564 117.069C218.083 119.038 202.957 123.183 188.635 129.38H187.829C185.535 128.919 183.435 127.769 181.811 126.083C180.187 124.397 179.115 122.256 178.74 119.946C178.546 118.033 178.93 116.106 179.842 114.413C180.755 112.721 182.155 111.342 183.86 110.454L193.064 105.449L145.489 93.4253L170.686 137.434C173.217 142.209 175.921 146.754 178.337 151.471Z" fill="white"/>
<path d="M275.042 335.043C271.944 333.107 268.495 331.8 264.892 331.198C261.289 330.596 257.603 330.71 254.044 331.534C250.479 330.67 246.776 330.535 243.158 331.138C239.54 331.741 236.081 333.069 232.989 335.043C239.939 337.406 247.176 338.819 254.504 339.243C261.519 338.854 268.438 337.439 275.042 335.043V335.043Z" fill="white"/>
<path d="M292.933 378.88C295.934 374.863 298.052 370.255 299.146 365.361C299.848 359.151 298.274 352.896 294.717 347.758C292.507 344.393 289.222 341.878 285.397 340.624C283.434 339.931 281.513 339.124 279.644 338.208C276.283 341.437 272.315 343.968 267.971 345.656C263.627 347.345 258.991 348.157 254.332 348.045C244.666 347.984 235.288 344.75 227.639 338.841C226.258 339.416 224.82 339.934 223.324 340.452C221.007 341.282 218.904 342.619 217.169 344.364C214.589 347.261 212.622 350.651 211.386 354.329C210.15 358.007 209.671 361.896 209.978 365.764C211.072 370.658 213.189 375.265 216.191 379.283C219.043 383.037 220.98 387.404 221.849 392.038C222.718 396.671 222.494 401.444 221.196 405.976C220.579 407.729 219.769 409.408 218.779 410.981C221.56 414.819 224.785 418.314 228.387 421.394C234.935 427.679 243.32 431.71 252.318 432.899C251.505 432.023 250.985 430.915 250.83 429.729C250.675 428.544 250.894 427.339 251.455 426.283C252.073 425.28 252.807 424.354 253.641 423.522C256.863 419.61 262.271 413.34 260.372 407.472L259.739 405.343L261.638 406.551C261.638 406.551 266.93 410.463 260.602 424.27C259.763 425.796 259.261 427.485 259.132 429.222C259.003 430.959 259.25 432.704 259.855 434.337C261.253 437.291 263.69 439.626 266.7 440.896C267.161 436.984 269.807 423.637 280.335 423.637C285.73 423.047 290.732 420.535 294.429 416.561C290.34 411.194 288.003 404.699 287.735 397.957C287.468 391.215 289.282 384.554 292.933 378.88V378.88Z" fill="white"/>
<path d="M290.46 300.181L281.888 292.472C281.888 294.141 280.277 296.212 276.595 298.225L275.502 298.858C269.566 301.944 263.237 304.209 256.691 305.589C255.03 305.817 253.346 305.817 251.686 305.589H250.477C244.272 304.247 238.274 302.08 232.644 299.146C227.236 296.269 226.028 293.393 226.028 291.609C224.36 293.163 222.404 295.176 220.275 297.362C214.522 303.115 207.216 310.191 200.486 315.944C187.312 327.449 180.006 365.533 184.78 383.712C186.713 390.085 189.989 395.97 194.388 400.97C198.817 406.723 202.672 411.901 200.716 418.229C200.322 419.151 200.154 420.153 200.224 421.154C200.294 422.154 200.6 423.123 201.118 423.981C204.262 427.831 208.739 430.357 213.66 431.057C210.38 428.469 204.052 420.3 211.128 404.479C213.487 397.461 211.128 393.377 206.469 386.013C202.515 380.655 199.803 374.485 198.53 367.949C195.596 348.447 212.854 333.662 213.429 333.26C214.005 332.857 215.5 330.613 217.169 330.383C222.922 329.635 232.644 320.201 241.1 323.307C245.13 324.854 249.386 325.729 253.699 325.896V325.896C253.985 325.938 254.276 325.938 254.562 325.896C255.117 325.948 255.675 325.948 256.23 325.896C259.965 325.666 263.637 324.831 267.103 323.422C275.387 320.316 286.433 330.096 292.415 330.844C293.056 330.932 293.666 331.171 294.196 331.541C294.726 331.911 295.161 332.401 295.464 332.972L296.04 333.605C299.204 336.424 313.011 350 310.537 367.144C309.264 373.679 306.552 379.85 302.598 385.208C300.774 388.009 299.582 391.173 299.105 394.482C298.628 397.79 298.878 401.162 299.837 404.364C300.249 405.669 300.595 406.994 300.872 408.334C300.872 408.334 300.872 408.334 300.872 408.679C302.035 412.275 302.182 416.121 301.299 419.796C300.416 423.47 298.537 426.829 295.867 429.504L294.832 430.54C299.579 429.787 303.881 427.308 306.913 423.579C307.454 422.73 307.778 421.763 307.859 420.76C307.939 419.757 307.772 418.749 307.373 417.826C305.359 411.613 309.214 406.32 313.643 400.568C318.078 395.583 321.375 389.694 323.308 383.309C328.025 365.13 320.719 327.104 307.603 315.541C302.138 311.169 295.982 305.301 290.46 300.181Z" fill="white"/>
<path d="M353.05 308.638C353.075 307.667 353.21 306.702 353.453 305.761C353.453 305.761 353.453 305.761 353.453 305.359C354.222 301.918 354.665 298.412 354.776 294.889C354.921 288.562 354.165 282.248 352.532 276.134C351.137 271.037 349.208 266.101 346.779 261.407V261.407C342.201 268.785 338.145 276.474 334.641 284.418C331.629 291.104 329.316 298.083 327.738 305.244C326.862 308.902 326.38 312.643 326.299 316.404C326.612 324.722 328.794 332.862 332.685 340.221C338.72 351.098 340.504 363.828 337.69 375.946C342.419 371.075 345.591 364.906 346.8 358.226C348.009 351.546 347.201 344.656 344.478 338.437C346.612 338.98 348.52 340.186 349.925 341.882C351.331 343.577 352.163 345.674 352.302 347.872C354.828 345.74 356.88 343.103 358.327 340.131C359.773 337.159 360.582 333.917 360.701 330.614C360.88 326.036 359.456 321.54 356.674 317.9C354.453 315.311 353.175 312.046 353.05 308.638V308.638Z" fill="white"/>
<path d="M159.525 242.884C160.595 242.527 161.633 242.084 162.632 241.561C162.855 241.383 163.108 241.247 163.38 241.158V241.158C163.711 241.009 164.021 240.815 164.3 240.583C179.2 229.825 181.558 191.109 196.918 181.271C202.957 176.867 209.796 173.682 217.053 171.894C220.723 170.811 224.139 169.006 227.103 166.586C230.066 164.166 232.517 161.179 234.312 157.8C210.846 159.631 187.866 165.468 166.371 175.058C164.588 177.762 160.618 183.63 158.375 186.564C151.184 196.286 142.957 207.216 141.116 219.988C144.263 219.035 147.154 217.383 149.573 215.155L151.356 213.89L150.781 216.018C149.532 221.008 147.798 225.863 145.603 230.515C140.815 241.536 139.433 253.737 141.634 265.55C142.299 270.554 143.279 275.511 144.568 280.392C144.568 279.414 144.913 278.206 145.143 276.998C145.143 274.582 145.488 271.82 145.891 268.829C147.214 258.244 150.838 245.933 159.525 242.884Z" fill="white"/>
<path d="M357.364 216.018L356.674 213.89L358.4 215.155C361.855 217.625 365.765 219.385 369.905 220.333C367.834 208.137 359.09 197.322 351.324 187.715C348.537 183.528 346.093 179.122 344.018 174.541C321.813 164.726 298.058 158.885 273.833 157.282C275.955 161.916 279.126 165.993 283.096 169.191V169.191C285.502 170.418 288.083 171.272 290.747 171.722C292.4 172.011 294.074 172.165 295.752 172.182C296.633 172.128 297.517 172.128 298.398 172.182C302.349 172.883 305.941 174.913 308.58 177.935C309.098 178.453 309.789 179.028 310.364 179.718C310.508 179.883 310.642 180.056 310.767 180.236C323.94 195.423 328.6 229.02 343.673 239.778C343.922 240.021 344.215 240.216 344.536 240.353C344.65 240.816 344.866 241.249 345.168 241.618C346.14 242.225 347.183 242.708 348.275 243.057C357.422 246.278 360.989 259.74 362.254 270.498C362.254 272.856 362.657 275.1 362.772 277.056C362.772 278.264 363.232 279.472 363.347 280.45C364.095 277.458 365.131 273.029 365.936 267.794C367.662 256.288 368.295 241.331 362.312 230.573C360.148 225.912 358.489 221.033 357.364 216.018V216.018Z" fill="white"/>
<path d="M172.584 283.326C169.259 275.781 165.414 268.477 161.079 261.465V261.465C158.703 265.742 156.775 270.253 155.326 274.926C153.549 280.903 152.62 287.1 152.564 293.335C152.562 297.323 153.006 301.298 153.888 305.186C153.888 305.186 153.888 305.474 153.888 305.589C154.13 306.529 154.265 307.494 154.29 308.465C154.213 311.853 152.998 315.116 150.839 317.727C148.046 321.282 146.563 325.691 146.639 330.211C146.758 333.514 147.567 336.756 149.013 339.728C150.46 342.701 152.512 345.337 155.038 347.469C155.177 345.271 156.009 343.174 157.415 341.479C158.821 339.784 160.728 338.578 162.862 338.035C160.14 344.254 159.331 351.143 160.54 357.823C161.749 364.504 164.921 370.673 169.65 375.543C166.837 363.426 168.62 350.696 174.655 339.818C178.648 332.619 180.987 324.621 181.501 316.404C181.454 312.531 180.991 308.673 180.12 304.899C178.35 297.47 175.824 290.241 172.584 283.326Z" fill="white"/>
<path d="M265.032 225.682C264.973 225.476 264.973 225.256 265.032 225.05C265.377 224.187 267.736 222.921 271.187 221.425C283.707 216.366 296.642 212.401 309.846 209.575C311.943 209.693 313.953 210.456 315.599 211.761C309.846 198.069 302.77 186.218 290.919 186.218C275.732 186.218 266.24 170.973 260.602 156.879C258.761 156.879 256.92 156.879 254.849 156.879H253.469C251.11 156.879 248.809 156.879 246.508 156.879C240.755 170.973 231.378 186.218 216.133 186.218C204.282 186.218 197.091 198.069 191.453 211.761C193.1 210.456 195.109 209.693 197.206 209.575C210.411 212.401 223.345 216.366 235.865 221.425C239.317 222.921 241.618 224.187 242.021 225.05C242.062 225.297 242.062 225.55 242.021 225.798V265.377C238.914 262.27 237.188 253.238 236.268 246.105L235.865 245.817L233.794 244.782H233.046C232.259 244.545 231.449 244.391 230.63 244.322V244.322C224.813 245.424 218.934 246.173 213.026 246.565C211.82 246.647 210.609 246.647 209.402 246.565C204.603 245.965 200.032 244.165 196.113 241.33L191.799 238.396C194.002 236.069 196.69 234.254 199.672 233.081C202.655 231.908 205.859 231.405 209.057 231.608C210.986 231.658 212.909 231.85 214.81 232.183L222.231 233.449C226.941 233.902 231.526 235.228 235.75 237.361V237.361C234.903 236.083 233.961 234.872 232.931 233.736C232.463 233.172 231.963 232.635 231.435 232.126C231.09 231.78 230.803 231.378 230.4 231.033C225.752 227.076 220.296 224.182 214.414 222.553C208.532 220.923 202.364 220.597 196.343 221.598C193.383 221.927 190.444 222.426 187.541 223.094C181.789 239.029 178.97 253.929 170.686 253.986C170.097 253.874 169.492 253.874 168.902 253.986V253.986L183.169 276.998C183.675 278.103 184.117 279.236 184.492 280.392C185.261 283.643 186.461 286.777 188.059 289.711C188.577 290.747 189.152 291.667 189.67 292.53C190.188 293.393 190.821 294.256 191.396 295.004L192.892 296.96L195.48 299.894C199.089 299.164 202.576 297.925 205.835 296.212L208.942 294.601C210.15 293.911 211.416 293.278 212.739 292.645C216.708 290.862 225.798 287.698 225.855 287.698C226.603 283.441 228.501 276.192 233.794 275.214C234.593 275.076 235.411 275.076 236.21 275.214C237.318 275.595 238.307 276.257 239.084 277.134C239.86 278.011 240.396 279.074 240.64 280.219C240.513 280.093 240.359 279.996 240.19 279.936C240.021 279.877 239.84 279.855 239.662 279.874V279.874C238.343 280.027 237.011 280.027 235.692 279.874H234.945C231.09 279.874 231.378 284.361 231.781 287.64L237.073 290.056L239.834 291.322L243.689 293.048C246.896 294.493 250.18 295.761 253.526 296.845V296.845C260.848 294.373 267.981 291.374 274.869 287.87V287.87C275.272 284.591 275.559 280.104 271.705 280.104H270.957C269.638 279.957 268.307 279.957 266.988 280.104V280.104C266.809 280.085 266.629 280.107 266.46 280.166C266.291 280.226 266.137 280.323 266.01 280.449C266.254 279.304 266.79 278.241 267.566 277.364C268.342 276.487 269.332 275.826 270.439 275.444C271.239 275.306 272.056 275.306 272.856 275.444C278.148 276.135 280.047 283.671 280.794 287.928C280.794 287.928 289.941 291.092 293.911 292.875L296.96 294.429L300.814 296.442C304.074 298.155 307.56 299.394 311.169 300.124L313.758 297.19L315.254 295.234C315.829 294.486 316.404 293.681 316.98 292.76C317.555 291.84 318.073 290.977 318.59 289.941L319.108 288.963C319.415 288.388 319.703 287.755 319.971 287.065C320.274 286.408 320.543 285.736 320.777 285.051C321.064 284.361 321.294 283.671 321.524 282.923C321.754 282.175 321.985 281.427 322.157 280.622C322.533 279.466 322.974 278.333 323.48 277.228L338.265 254.216C337.676 254.104 337.071 254.104 336.482 254.216V254.216C328.198 254.216 324.976 238.971 319.223 223.036C316.321 222.369 313.382 221.869 310.421 221.54C304.4 220.54 298.233 220.866 292.351 222.495C286.469 224.125 281.013 227.019 276.365 230.975C275.962 231.32 275.674 231.723 275.329 232.068C274.801 232.577 274.302 233.115 273.834 233.679C272.804 234.814 271.861 236.026 271.015 237.303H271.302C275.527 235.171 280.111 233.844 284.821 233.391L292.243 232.126C294.143 231.793 296.066 231.601 297.995 231.55C301.194 231.348 304.398 231.851 307.38 233.024C310.363 234.197 313.051 236.011 315.254 238.339L310.939 241.273C307.02 244.107 302.45 245.908 297.65 246.508C296.444 246.59 295.233 246.59 294.026 246.508H293.393C285.684 246.508 280.449 244.264 276.595 244.264C275.776 244.334 274.966 244.488 274.179 244.724H273.431L271.36 245.76L270.957 246.047C270.037 253.181 268.311 262.213 265.204 265.319V225.625L265.032 225.682Z" fill="white"/>
<rect x="0.5" y="0.5" width="511" height="511" stroke="white"/>
</svg>
