<svg width="512" height="512" viewBox="0 0 512 512" fill="none" xmlns="http://www.w3.org/2000/svg">
<rect x="0.5" y="0.5" width="511" height="511" rx="255.5" fill="#DEEAF6"/>
<path d="M173.458 267.894C172.761 267.506 171.831 267.661 171.289 268.281C168.345 271.922 168.19 280.133 172.141 284.161C173.148 285.168 174.62 285.71 176.014 285.555C179.422 285.245 186.239 285.4 191.817 287.337C192.591 287.569 193.211 286.795 192.978 286.097C189.105 276.724 177.176 269.83 173.458 267.894Z" fill="white"/>
<path d="M312.348 397.786C310.644 399.335 308.475 400.962 306.151 401.891C288.413 394.842 272.61 391.976 260.294 391.046C256.266 390.737 252.625 390.582 249.371 390.582C236.435 390.582 216.14 392.596 192.592 401.891C190.268 400.962 188.099 399.335 186.395 397.786C191.894 394.687 197.704 392.053 203.669 389.884L208.084 388.335C209.091 388.025 212.577 387.018 213.661 386.708C214.204 386.554 216.527 386.011 217.07 385.856C219.394 385.237 222.724 384.617 225.281 384.152C225.59 384.075 225.9 384.075 226.133 383.997C233.802 382.758 241.625 382.293 249.371 382.371C257.118 382.293 265.019 382.758 272.61 383.997C275.244 384.462 279.117 385.159 281.673 385.856C282.37 386.011 284.384 386.476 285.082 386.708C285.934 386.941 289.729 388.103 290.659 388.335L295.074 389.884C300.961 391.976 306.849 394.61 312.348 397.786Z" fill="#8D98A8"/>
<path d="M325.283 267.894C321.564 269.908 309.635 276.724 305.762 286.097C305.452 286.795 306.149 287.569 306.924 287.337C312.501 285.4 319.395 285.245 322.726 285.555C324.198 285.71 325.592 285.168 326.599 284.161C330.55 280.21 330.395 271.999 327.451 268.281C326.909 267.661 325.98 267.506 325.283 267.894Z" fill="white"/>
<path d="M376.486 263.009C374.318 245.503 364.092 233.186 358.128 227.299C362.001 223.968 364.867 220.095 366.726 215.757C371.606 204.448 368.275 192.364 363.55 184.85C361.071 180.977 359.677 160.372 362.466 124.274C362.698 121.64 361.304 119.162 358.98 117.922C356.656 116.683 353.79 116.993 351.776 118.619L302.51 158.668C299.954 160.759 299.024 164.245 300.263 167.266C302.897 173.928 304.834 183.533 301.658 188.491C300.031 191.047 296.855 192.519 292.052 192.828C282.912 193.371 281.363 188.568 280.898 187.019C277.954 177.568 286.32 159.984 302.975 149.914L305.918 148.133L305.531 144.647C302.122 113.817 263.701 90.9653 252.004 84.7683L249.448 83.374L246.892 84.7683C235.195 91.0428 196.774 113.817 193.365 144.647L192.978 148.133L195.921 149.914C212.653 159.984 220.942 177.568 217.998 187.019C217.533 188.568 215.984 193.448 206.844 192.828C202.041 192.519 198.865 191.124 197.238 188.491C194.062 183.533 195.999 173.928 198.633 167.266C199.872 164.167 198.942 160.759 196.386 158.668L147.12 118.619C145.106 116.993 142.24 116.683 139.916 117.922C137.592 119.162 136.198 121.64 136.43 124.274C138.754 155.182 138.367 180.125 135.346 184.85C130.621 192.364 127.29 204.37 132.17 215.757C134.029 220.095 136.895 223.968 140.768 227.299C134.804 233.109 124.579 245.426 122.41 263.009C120.396 278.889 125.431 295.234 137.36 311.501C135.268 313.283 133.332 315.219 131.705 317.311C126.283 324.282 122.487 333.655 124.269 342.641C125.431 348.451 129.536 353.331 133.874 356.739C137.825 360.147 142.55 362.704 144.951 366.577C146.5 369.056 146.5 371.922 146.113 374.788C142.705 393.921 156.106 404.378 174.077 403.604C174.852 403.604 175.859 403.449 176.788 403.371C179.732 406.547 184.922 411.273 191.661 412.977L193.365 413.442L194.992 412.744C218.85 402.984 239.378 401.512 249.448 401.512C259.518 401.512 280.046 402.984 303.904 412.744L305.531 413.442L307.235 412.977C313.974 411.273 319.242 406.547 322.108 403.371C323.037 403.449 324.044 403.526 324.819 403.604C342.403 404.456 355.881 394.231 352.86 375.485C352.473 373.239 352.241 370.992 352.938 368.823C353.867 365.957 355.494 364.33 358.205 362.007C360.142 360.38 362.466 358.831 365.022 356.739C370.832 352.169 375.247 345.739 375.092 337.993C374.937 330.479 371.761 323.198 367.191 317.311C365.487 315.219 363.628 313.283 361.536 311.501C373.388 295.156 378.423 278.889 376.486 263.009ZM150.064 204.603C155.718 208.321 162.07 210.955 168.577 212.581C174.387 213.898 180.661 214.673 186.471 213.821C182.52 211.342 178.492 209.173 174.697 206.617C172.838 205.455 170.204 203.518 167.338 201.349C155.409 192.209 148.592 177.956 148.824 162.928C148.979 153.632 148.592 143.33 147.972 133.337L187.71 165.639C185.309 172.533 182.288 185.237 188.098 194.378C191.661 200.033 197.781 203.208 206.224 203.673C217.456 204.37 225.59 199.49 228.456 190.272C230.78 182.913 229.308 173.463 224.428 164.245C220.012 155.879 213.118 148.288 204.752 142.555C209.632 120.091 238.836 101.733 249.448 95.768C260.06 101.81 289.264 120.091 294.144 142.555C285.778 148.288 278.884 155.879 274.468 164.245C269.588 173.463 268.116 182.913 270.44 190.272C273.306 199.49 281.44 204.448 292.672 203.673C301.115 203.131 307.158 200.033 310.798 194.378C316.608 185.237 313.587 172.533 311.186 165.639L350.924 133.337C350.304 143.407 349.917 153.865 350.072 163.16C350.304 178.73 342.945 193.448 330.319 202.434C330.086 202.589 329.854 202.744 329.622 202.899C324.044 206.849 318.235 210.103 312.348 213.743V213.821C313.509 213.976 314.749 214.053 315.911 214.053C326.756 214.363 338.917 211.032 348.6 204.603C353.093 201.582 358.903 206.152 356.811 211.187C356.811 211.265 356.734 211.265 356.734 211.342C352.938 220.25 341.551 226.757 323.889 230.165C291.433 236.517 263.314 237.602 249.371 237.679C235.505 237.602 207.386 236.517 174.852 230.165C157.19 226.757 145.803 220.173 142.008 211.342C142.008 211.265 141.93 211.265 141.93 211.187C139.839 206.307 145.571 201.659 150.064 204.603ZM306.151 401.9C282.602 392.604 262.384 390.59 249.371 390.59C236.434 390.59 216.139 392.604 192.591 401.9C190.267 400.97 188.098 399.343 186.394 397.794C191.893 394.696 197.703 392.062 203.668 389.893L208.083 388.421C209.09 388.111 212.576 387.104 213.66 386.795C214.203 386.64 216.526 386.097 217.069 386.02C219.625 385.323 223.498 384.703 226.132 384.161C233.801 382.921 241.624 382.457 249.371 382.534C257.117 382.457 265.018 382.921 272.609 384.161C275.243 384.626 279.116 385.323 281.672 386.02C282.37 386.175 284.384 386.64 285.081 386.795C285.933 387.027 289.729 388.189 290.658 388.421L295.073 389.893C301.038 392.062 306.848 394.696 312.348 397.794C310.566 399.343 308.474 400.97 306.151 401.9ZM352.318 305.614C346.199 302.903 339.382 302.051 332.875 304.452C337.523 308.402 341.938 311.346 346.663 314.677C350.769 317.466 354.797 320.487 357.508 324.592C360.064 328.233 361.769 332.726 362.001 337.141V337.838L361.924 338.458C361.924 338.923 361.769 339.233 361.691 339.62C360.839 342.409 359.212 343.803 356.424 346.049C354.41 347.599 352.008 349.225 349.53 351.239C345.192 354.648 341.164 359.373 339.692 364.95C338.607 368.668 338.685 372.774 339.304 376.492C339.459 377.576 339.769 378.893 339.769 379.978C340.699 388.344 333.572 391.132 326.523 392.062C325.826 392.139 324.974 392.217 324.199 392.294C313.2 384.703 300.651 379.668 287.792 376.105C287.172 375.95 284.693 375.33 284.151 375.253C281.363 374.478 277.102 373.781 274.236 373.239C266.025 371.922 257.582 371.457 249.293 371.534C239.3 371.457 229.153 372.232 219.393 374.168C205.372 376.957 191.661 381.914 179.344 389.196C177.64 390.203 176.014 391.21 174.387 392.372C173.612 392.294 172.838 392.217 172.14 392.139C165.091 391.21 157.965 388.421 158.894 380.055C159.204 377.034 159.979 374.168 159.824 370.992C159.901 365.028 157.19 358.985 153.007 354.803C149.831 351.472 145.416 348.606 142.24 346.049C138.909 343.416 136.973 341.556 136.74 337.761C136.895 330.634 140.691 323.818 146.036 319.17C152.465 313.902 159.359 310.107 165.866 304.452C159.359 302.051 152.542 302.903 146.423 305.614C135.966 291.438 131.395 277.65 133.022 264.481C135.036 248.292 145.803 237.214 149.909 233.496C156.106 236.672 163.775 239.151 172.76 240.933C206.146 247.44 235.04 248.524 249.293 248.601C263.546 248.524 292.44 247.44 325.826 240.933C334.812 239.151 342.403 236.672 348.677 233.496C352.783 237.137 363.55 248.059 365.564 264.326C367.268 277.572 362.776 291.438 352.318 305.614Z" fill="#364253"/>
<path d="M278.344 303.837C268.738 301.513 258.901 300.738 249.063 300.273C229.775 301.28 209.48 303.914 193.6 315.998C188.487 320.026 183.53 324.984 181.283 331.258L181.438 331.336C184.304 329.167 187.325 327.618 190.346 325.991C197.783 322.428 206.304 319.407 214.282 317.393C225.669 314.372 237.444 312.203 249.218 311.428C252.161 311.66 255.028 311.893 257.971 312.203C260.915 312.59 263.936 313.055 266.879 313.52C281.055 316.231 295.153 319.717 308.167 326.068C311.265 327.618 314.209 329.244 317.075 331.413L317.23 331.336C315.913 327.463 313.279 324.054 310.491 321.033C301.97 311.97 290.273 306.78 278.344 303.837Z" fill="#364253"/>
<path d="M200.186 298.716C202.122 299.026 221.023 301.582 227.065 300.265C227.22 300.265 227.375 300.11 227.452 300.033C233.494 293.139 232.72 283.378 231.79 278.498C231.635 277.724 230.551 277.646 230.319 278.421C229.776 280.202 228.924 282.526 227.762 284.773C225.206 289.885 218.777 291.744 213.974 288.723C207.854 284.928 200.728 278.034 197.242 271.217C192.129 261.302 170.363 240.154 150.3 246.816C149.603 247.049 149.603 248.133 150.377 248.288C156.187 249.915 158.898 254.95 159.673 256.576C159.828 256.886 159.75 257.274 159.44 257.506C156.807 259.83 142.863 273.308 156.574 287.716C157.116 288.259 158.046 287.794 157.891 287.097C157.349 283.378 157.426 279.505 158.201 276.717C158.433 275.865 159.673 276.019 159.75 276.949C159.905 283.069 164.475 290.195 170.13 292.984C170.208 293.061 170.363 293.061 170.517 293.061C190.038 292.984 198.791 298.019 199.953 298.716C199.953 298.638 200.031 298.716 200.186 298.716ZM191.82 287.329C186.242 285.392 179.348 285.237 176.017 285.547C174.545 285.702 173.151 285.16 172.144 284.153C168.194 280.202 168.348 271.991 171.292 268.273C171.834 267.654 172.686 267.499 173.461 267.886C177.179 269.9 189.108 276.717 192.982 286.09C193.291 286.787 192.594 287.561 191.82 287.329Z" fill="#364253"/>
<path d="M348.441 246.745C328.379 240.161 306.612 261.231 301.499 271.146C297.936 278.04 290.887 284.857 284.767 288.652C279.887 291.674 273.535 289.814 270.979 284.702C269.817 282.455 268.965 280.054 268.423 278.35C268.19 277.575 267.106 277.653 266.951 278.427C266.021 283.308 265.247 293.068 271.289 299.962C271.366 300.117 271.521 300.194 271.676 300.194C277.718 301.511 296.619 298.955 298.556 298.645C298.633 298.645 298.788 298.568 298.865 298.568C300.027 297.871 308.781 292.835 328.301 292.913C328.456 292.913 328.534 292.913 328.688 292.835C334.343 290.047 338.914 282.92 339.068 276.801C339.068 275.949 340.385 275.716 340.618 276.568C341.392 279.357 341.47 283.23 340.928 286.948C340.85 287.723 341.702 288.11 342.244 287.568C355.955 273.16 342.09 259.759 339.378 257.358C339.146 257.125 339.068 256.738 339.146 256.428C339.921 254.801 342.632 249.689 348.441 248.14C349.139 248.062 349.139 246.978 348.441 246.745ZM326.597 284.16C325.59 285.167 324.118 285.709 322.724 285.554C319.316 285.244 312.499 285.399 306.922 287.336C306.147 287.568 305.527 286.793 305.76 286.096C309.633 276.801 321.562 269.907 325.28 267.893C325.977 267.505 326.907 267.66 327.449 268.28C330.393 271.921 330.47 280.132 326.597 284.16Z" fill="#364253"/>
<rect x="0.5" y="0.5" width="511" height="511" rx="255.5" stroke="white"/>
</svg>
