<svg width="512" height="512" viewBox="0 0 512 512" fill="none" xmlns="http://www.w3.org/2000/svg">
<rect x="0.5" y="0.5" width="511" height="511" rx="255.5" fill="#DEEAF6"/>
<path fill-rule="evenodd" clip-rule="evenodd" d="M433.778 254.342C433.778 353.492 353.377 433.778 254.342 433.778C155.192 433.778 74.9053 353.377 74.9053 254.342C74.9053 155.192 155.307 74.9053 254.342 74.9053C353.492 74.9053 433.778 155.192 433.778 254.342Z" stroke="#122C33" stroke-miterlimit="10"/>
<path fill-rule="evenodd" clip-rule="evenodd" d="M387.272 251.917C387.272 326.743 326.615 387.275 251.913 387.275C177.086 387.275 116.554 326.619 116.554 251.917C116.554 177.09 177.21 116.558 251.913 116.558C326.739 116.558 387.272 177.09 387.272 251.917Z" stroke="#122C33" stroke-miterlimit="10"/>
<path fill-rule="evenodd" clip-rule="evenodd" d="M212.968 197.976C213.313 196.595 212.968 195.33 212.508 193.95C211.703 191.419 212.163 189.004 213.083 186.588C213.313 185.898 214.463 185.093 214.808 185.438C215.268 185.783 215.728 186.243 215.843 186.703C216.073 187.854 216.303 189.004 216.303 190.154C216.419 192.8 217.454 194.985 219.064 197.055C220.904 199.241 222.86 201.426 224.93 203.497C225.16 203.727 225.62 203.612 225.965 203.612V203.957L225.85 203.727C226.311 200.736 225.045 198.091 224.01 195.33C223.78 194.64 223.55 193.835 223.435 193.145C223.32 192.685 224.125 191.994 224.585 192.109C225.16 192.224 225.735 192.339 226.195 192.569C227.691 193.605 228.611 195.1 229.186 196.71C230.106 199.471 230.911 202.231 231.717 204.992C232.062 206.142 232.177 207.292 232.407 208.328C233.327 211.318 234.592 214.079 236.893 216.264C237.928 217.184 238.733 218.22 239.653 219.255C240.113 219.715 240.573 219.945 241.149 219.715C241.379 219.6 241.609 219.14 241.724 218.795C242.529 215.459 241.609 212.354 240.228 209.248C239.768 208.213 239.078 207.177 238.618 206.142C236.318 201.771 235.972 197.285 237.583 192.685C238.388 190.499 238.963 188.314 239.423 186.013C240.113 182.447 241.494 178.997 244.254 176.351C246.44 174.166 248.28 171.52 250.695 169.68C253.111 167.839 254.951 165.884 256.677 163.584C258.287 161.283 260.932 160.248 263.003 158.523C263.693 157.947 265.648 158.178 266.224 158.983C269.099 162.778 271.055 166.919 270.364 171.865C270.134 173.476 270.134 174.856 270.94 176.351C271.4 177.156 271.745 178.192 271.63 179.112C271.17 182.562 271.86 186.128 270.709 189.464C270.249 190.959 269.904 192.339 270.249 193.95C270.709 195.905 270.364 197.746 269.444 199.586C268.984 200.621 268.409 201.656 268.179 202.807C267.604 206.832 264.958 209.363 261.853 211.433C259.322 213.159 256.447 214.424 253.341 214.999C252.421 215.229 251.386 215.344 250.465 215.689C247.935 216.494 245.749 219.6 245.749 222.361C245.749 223.511 245.864 224.661 246.095 225.811C246.21 226.386 246.555 226.846 247.475 226.846C248.05 225.581 248.51 224.086 249.2 222.706C249.775 221.555 250.58 220.405 251.501 219.37C251.846 218.91 252.421 218.68 252.996 218.565C253.341 218.45 253.801 218.68 254.031 218.795C254.261 219.025 254.606 219.485 254.491 219.715C253.801 221.325 252.996 222.821 252.306 224.431C250.58 228.687 250.005 233.058 251.501 237.429C252.766 241.109 253.916 244.79 254.951 248.471C255.296 249.736 255.411 251.116 256.792 251.807C257.942 250.541 257.942 248.931 257.827 247.436C257.827 246.285 257.482 245.135 257.252 243.985C256.562 241.109 255.987 238.349 257.367 235.703C256.562 234.208 255.986 232.943 255.411 231.677C254.606 229.607 254.491 227.537 254.951 225.466C255.296 223.856 256.332 222.706 257.827 222.131C259.552 221.44 261.163 221.325 262.888 222.131C263.578 222.476 264.153 222.821 264.843 223.281C266.109 222.591 267.259 221.785 268.409 221.325C270.134 220.635 271.86 220.98 273.24 222.476C274.16 223.396 274.735 224.661 275.655 225.926C276.346 225.811 277.151 225.696 277.841 225.696C278.646 225.696 279.336 225.581 280.141 225.696C281.982 226.041 283.477 226.846 284.167 228.572C284.972 230.412 284.167 232.023 282.902 233.288C281.867 234.438 280.486 235.243 279.221 236.278C278.761 238.234 279.451 240.419 278.186 242.375C277.036 244.215 275.195 245.365 273.815 246.861C273.01 248.241 274.045 249.161 274.275 250.311C274.62 252.727 273.7 254.452 271.86 255.832C269.559 257.443 266.914 258.133 264.153 257.788C262.773 257.673 261.508 257.328 260.127 257.098C259.207 256.983 258.287 257.558 258.057 258.593C257.827 259.513 257.482 260.548 257.597 261.353C258.172 265.954 257.942 270.555 257.942 275.271C257.942 275.616 258.172 275.961 258.287 276.307C258.632 276.191 259.092 276.191 259.207 275.961C260.702 273.891 262.198 271.936 263.463 269.75C266.454 264.689 270.825 260.778 275.425 257.328C278.531 254.912 281.177 252.152 283.707 249.276C286.123 246.63 287.158 243.295 287.043 239.614C287.043 238.234 286.698 236.969 286.813 235.588C286.813 235.128 287.388 234.553 287.848 234.438C288.308 234.323 288.998 234.668 289.343 235.013C289.688 235.358 289.918 236.048 290.033 236.508C290.378 237.774 290.723 239.039 291.069 240.419C291.529 240.304 291.989 240.304 292.219 240.074C294.404 237.889 295.439 235.358 295.324 232.253C295.324 230.987 294.749 229.952 293.484 229.492C291.874 228.802 290.148 228.342 288.538 227.767C287.503 227.422 286.353 226.961 285.317 226.386C283.247 225.121 281.752 223.281 281.637 220.865C281.637 218.795 280.832 217.184 279.681 215.574C279.451 215.229 279.221 214.884 279.106 214.539C277.956 211.893 278.071 208.788 275.886 206.602C275.08 204.072 274.045 201.541 273.47 198.896C272.78 195.445 272.665 191.879 274.965 188.889C275.77 187.854 276.001 186.818 276.231 185.783C277.036 182.793 278.071 179.917 278.991 176.926C279.221 176.121 280.601 175.546 281.407 176.006C282.442 176.581 283.362 177.156 284.167 177.962C285.317 179.112 286.353 180.032 288.193 179.572C288.538 179.457 288.883 179.687 289.228 179.917C289.573 180.147 289.918 180.377 290.148 180.607C291.069 181.527 292.334 182.447 292.794 183.598C294.519 187.278 298.315 189.579 299.35 193.72C299.465 194.065 299.465 194.525 299.695 194.87C302.341 199.241 302.456 204.072 302.801 208.788C303.031 211.778 302.341 214.539 300.961 217.185C300.04 218.91 299.235 220.635 298.315 222.361C297.28 224.201 297.28 226.041 298.315 227.882C298.545 228.227 298.775 228.572 298.89 228.802C300.04 228.572 300.27 227.652 300.616 226.846C302.801 220.865 304.526 214.769 305.331 208.328C305.446 207.523 305.446 206.832 305.561 206.027C305.677 205.337 306.712 204.532 307.287 204.877C307.747 205.107 308.437 205.567 308.437 206.027C308.897 208.443 309.012 210.973 308.667 213.504C308.437 215.229 308.207 216.954 307.977 218.68C307.862 219.255 307.977 219.945 308.552 220.06C309.012 220.175 309.587 219.83 310.162 219.485C310.853 219.14 311.198 218.335 311.198 217.53C311.198 214.194 312.923 211.663 315.108 209.363C316.029 208.443 317.064 207.408 318.099 206.602C318.674 206.142 319.594 205.682 320.169 205.797C322.47 206.257 324.31 205.567 326.151 204.417C326.496 204.187 326.841 204.072 327.186 203.957C328.451 203.497 329.831 203.957 330.637 205.337C331.212 206.142 331.557 207.062 331.902 207.753C333.052 208.558 334.202 207.983 335.353 207.983C336.733 207.983 337.998 208.213 339.263 208.788C341.219 209.823 341.909 211.548 340.759 213.619C340.068 214.769 339.263 215.919 338.113 216.609C336.848 217.53 335.698 218.335 335.468 220.175C335.353 220.98 334.547 221.9 333.742 222.361C332.707 223.166 331.442 223.856 330.176 224.201C328.681 224.661 327.301 225.351 326.381 226.616C326.036 227.077 325.576 227.422 325.115 227.767C323.275 229.032 321.205 229.377 319.134 228.342C317.294 227.422 315.453 226.271 313.613 225.121C312.808 224.661 312.118 223.971 311.313 223.281C309.357 224.086 308.092 225.581 306.712 226.846C305.677 227.767 304.986 228.917 304.641 230.297C304.526 230.642 304.756 230.987 304.756 231.447C307.172 231.677 309.702 230.527 312.118 231.332C312.348 231.447 312.693 231.792 312.693 232.138C312.693 232.483 312.463 232.828 312.233 233.058C312.003 233.288 311.543 233.403 311.198 233.518C309.702 233.978 308.207 234.323 306.827 234.898C303.721 236.163 300.961 237.774 298.66 240.189C294.289 244.79 289.918 249.391 285.547 254.107C284.857 254.797 284.282 255.602 283.707 256.292C283.477 256.522 283.477 257.098 283.592 257.328C283.822 257.558 284.282 257.673 284.627 257.673C286.123 257.328 287.503 256.522 288.538 255.372C289.228 254.682 289.803 253.877 290.378 253.187C291.414 252.037 292.334 250.771 293.369 249.621C296.475 246.17 300.385 244.33 304.986 243.985C306.712 243.87 308.437 243.64 310.047 243.065C311.313 242.72 312.808 242.375 314.073 242.72C318.214 243.985 322.47 243.64 326.496 245.02C327.531 245.365 328.106 245.94 328.451 246.861C328.681 247.321 329.141 247.896 329.601 248.011C333.512 248.701 336.618 251.231 339.723 253.302C340.644 253.992 341.679 254.567 342.599 255.257C343.634 255.947 343.519 257.328 342.484 258.133C341.219 259.053 339.838 259.628 338.343 260.088C335.698 260.778 333.167 261.353 330.291 261.353C328.336 264.804 325.115 266.414 321.435 266.99C320.054 267.22 318.789 267.565 317.754 268.485C316.834 269.175 315.914 269.865 314.878 270.44C313.728 271.13 312.463 271.706 311.083 271.706C309.472 271.706 308.092 272.166 306.712 272.856C304.296 274.236 301.881 274.006 299.465 272.971C296.82 271.821 294.289 270.325 292.104 268.37C291.414 267.795 290.724 266.99 290.033 266.414C285.778 262.504 280.716 261.929 275.77 265.034C273.815 266.299 272.09 267.91 270.479 269.52C269.329 270.555 268.524 271.821 267.604 273.086C267.029 273.891 266.684 274.696 266.224 275.501C267.489 276.652 268.984 275.846 270.134 276.652C270.594 276.882 270.824 277.457 271.055 278.032C271.17 278.262 270.709 278.722 270.364 278.837C269.674 279.182 268.984 279.412 268.179 279.527C266.224 279.872 264.498 280.792 263.003 281.943C262.428 282.403 261.738 282.978 261.508 283.668C258.517 289.879 255.641 296.206 254.261 303.107C254.146 303.452 254.491 303.797 254.721 304.142C255.987 303.682 256.217 302.532 256.447 301.382C256.907 298.851 258.172 296.781 259.782 294.71C261.738 292.18 264.498 290.799 267.489 289.879C268.294 288.729 268.984 287.579 269.789 286.544C272.205 283.553 275.54 282.863 279.221 283.438C279.911 283.553 280.716 284.013 281.292 284.358C282.097 284.933 282.672 285.623 283.362 286.314C284.512 286.774 285.662 286.198 286.813 286.314C287.963 286.314 289.113 286.429 290.263 286.659C293.024 287.349 294.519 290.339 293.484 293.1C293.024 294.365 292.219 295.515 291.529 296.666C291.299 297.701 292.219 298.391 292.334 299.311C293.254 303.107 291.069 306.098 287.618 307.593C286.008 308.283 284.282 308.628 282.557 309.203C282.212 309.548 281.867 310.008 281.522 310.468C278.416 314.264 274.39 314.609 270.019 313.459C268.869 313.114 267.949 312.654 266.684 312.654C260.933 312.424 260.933 312.424 256.217 309.663C255.641 310.008 255.066 310.468 254.491 310.928C254.031 311.274 253.801 311.849 254.146 312.539C255.641 312.769 257.367 312.999 258.977 313.344C259.667 313.459 260.357 314.034 260.817 314.609C261.048 314.954 261.048 315.644 260.933 316.22C260.933 316.45 260.357 316.68 260.012 316.68C259.667 316.795 259.207 316.68 258.862 316.565C257.252 315.99 255.756 316.45 254.261 316.795C252.421 317.255 251.156 318.405 250.925 320.36C250.465 323.236 250.12 326.112 249.775 328.987C249.43 331.518 248.97 333.933 248.395 336.349C247.59 339.684 246.67 343.135 245.749 346.471C244.829 349.806 243.679 353.142 241.724 356.018C240.918 357.168 239.998 357.513 238.733 357.283C237.583 357.053 236.433 356.823 235.397 356.363C233.442 355.673 232.637 353.602 233.557 351.532C233.902 350.842 234.247 350.151 234.707 349.461C238.043 343.135 240.228 336.349 242.184 329.447C242.299 328.872 242.414 328.297 242.529 327.722C242.759 323.696 243.449 319.67 244.484 315.759C244.829 314.379 244.599 313.114 244.139 311.849C243.334 309.663 242.184 307.708 240.343 306.098C239.768 305.637 239.193 305.062 238.848 304.372C238.733 304.142 238.848 303.567 238.963 303.337C239.193 303.107 239.653 302.877 239.883 302.877C240.458 302.877 241.033 303.107 241.494 303.337C242.299 303.682 242.989 304.372 244.024 304.487C244.714 302.877 243.909 301.727 243.334 300.576C243.219 300.346 242.759 300.116 242.414 300.001C242.069 299.886 241.609 300.001 241.264 300.116C238.388 301.037 235.512 300.922 232.752 299.886C231.026 299.196 229.416 299.196 227.691 299.656C225.735 300.116 223.895 300.116 221.94 299.656C218.259 298.851 215.498 297.011 214.808 292.985C214.693 292.295 214.463 291.49 214.348 290.799C212.623 289.764 210.897 288.844 209.632 287.349C206.872 284.013 206.527 280.562 208.597 276.652C208.942 275.961 209.402 275.386 209.862 274.696C209.057 273.546 208.252 272.511 207.562 271.36C206.181 269.29 206.066 266.99 206.527 264.689C206.872 262.734 208.597 261.353 210.667 261.238C212.508 261.123 214.118 261.583 215.613 262.619C216.994 263.654 218.374 264.689 219.869 265.839C220.329 265.724 220.904 265.609 221.365 265.264C224.125 263.539 226.541 264.229 228.841 266.184C229.761 266.875 230.451 267.795 231.141 268.83C231.832 269.98 232.407 271.245 232.982 272.396C234.247 273.316 235.627 272.856 236.893 272.971C240.113 273.201 242.299 274.696 243.794 277.572C245.979 282.058 246.095 286.429 243.219 290.799C243.449 292.525 244.369 294.02 245.634 295.17C245.749 295.285 246.44 295.17 246.67 295.055C246.9 294.825 247.015 294.365 247.13 294.02C247.82 289.074 248.51 284.128 249.2 279.067C249.43 277.687 249.315 276.422 248.855 275.041C247.59 270.785 246.095 266.645 242.989 263.194C242.759 262.964 242.414 262.619 242.184 262.274C241.609 261.468 241.609 260.548 242.184 260.203C242.989 259.743 243.679 259.858 244.369 260.318C245.864 261.468 247.245 262.734 248.74 263.999C249.085 263.654 249.43 263.424 249.43 263.194C249.545 260.893 249.085 258.593 248.165 256.292C246.325 254.567 244.254 253.302 241.954 252.267C241.033 251.807 239.998 251.922 239.193 252.497C238.043 253.417 236.893 254.567 235.857 255.602C234.592 256.868 233.327 257.903 231.717 258.708C229.301 259.858 227.001 260.203 224.47 258.938C223.09 258.248 221.595 257.673 220.214 257.098C218.834 256.522 217.454 255.832 216.303 254.682C214.693 252.957 212.623 251.922 210.322 251.346C209.632 251.116 208.827 250.886 208.137 250.541C206.527 249.736 205.031 248.816 204.226 247.206C203.076 244.79 201.35 242.605 199.74 240.534C198.475 238.809 198.59 238.004 200.43 236.163C200.545 236.048 200.66 235.818 200.775 235.703C201.12 234.668 200.545 233.863 200.085 232.943C198.82 230.527 198.36 227.882 197.785 225.236C197.67 224.661 197.67 224.086 197.555 223.511C197.21 220.635 198.59 219.255 201.581 219.255C203.766 219.255 205.951 219.37 207.792 220.405C211.473 222.476 215.498 222.591 219.524 223.166C223.09 223.626 226.195 224.891 228.956 227.192C230.336 228.227 231.832 229.147 233.327 229.952C237.468 232.253 239.883 235.818 241.033 240.304C241.379 241.569 241.494 242.95 241.839 244.33C242.414 246.515 243.679 248.126 245.634 249.161C245.979 249.276 246.44 249.391 246.785 249.276C247.015 249.161 247.36 248.701 247.36 248.356C247.36 247.436 247.245 246.4 246.9 245.48C245.404 241.569 243.909 237.544 242.069 233.748C240.113 229.492 237.353 225.811 233.672 222.821C231.141 220.75 228.726 218.45 226.886 215.804C225.735 214.194 224.125 213.044 222.17 212.699C221.48 212.584 220.559 212.699 219.984 213.159C218.949 213.964 218.029 214.999 216.994 215.919C214.578 218.335 211.818 219.025 208.482 218.45C205.376 217.875 202.616 216.839 200.43 214.424C199.165 213.044 197.555 211.778 196.059 210.628C194.334 209.248 193.184 207.523 192.264 205.567C192.149 205.222 191.919 204.877 191.804 204.532C191.343 202.922 192.724 201.311 191.689 199.471C190.883 198.206 190.883 196.48 190.768 194.985C190.653 193.26 190.653 191.534 190.653 189.809C190.653 188.659 191.919 187.739 193.184 188.084C196.174 188.889 199.05 190.039 201.235 192.454C201.696 193.03 202.386 193.835 202.961 193.835C206.757 193.605 209.287 196.48 212.508 197.4C212.508 197.516 212.508 197.746 212.623 197.861C212.623 197.976 212.853 197.976 212.853 197.976C213.313 198.321 213.083 198.206 212.968 197.976ZM285.778 201.656L286.008 201.541L285.662 201.886C286.353 200.851 285.893 199.931 285.087 199.471C282.787 198.091 280.486 196.71 278.186 195.445C277.726 195.215 277.036 195.675 277.036 196.25C277.036 199.471 277.841 200.621 280.716 201.196C282.327 201.311 284.052 201.426 285.778 201.656ZM225.045 238.119L224.93 238.234C224.24 236.048 223.55 233.863 222.745 231.677C221.825 229.262 220.559 227.192 218.029 226.271C217.914 226.156 217.684 226.271 217.454 226.271C217.339 226.386 217.109 226.501 217.109 226.616C217.454 231.447 219.869 235.243 223.435 238.234C223.78 238.579 224.585 238.234 225.045 238.119ZM337.193 257.903C337.308 257.443 337.538 256.983 337.423 256.753C334.317 252.842 329.716 251.461 325.23 252.727C324.885 252.842 324.655 253.187 324.31 253.302C323.85 253.647 323.735 254.452 324.08 254.682C325.115 255.257 326.266 255.602 327.071 256.407C329.371 258.708 332.132 258.823 335.007 258.248C335.698 258.133 336.503 258.018 337.193 257.903ZM311.888 259.858C313.268 261.929 315.338 262.504 317.064 263.539C319.594 265.034 322.125 264.919 324.655 263.654C325.115 263.424 325.345 262.504 325.115 262.274C324.08 261.468 323.045 260.663 321.895 259.858C320.63 258.938 319.364 258.248 317.754 258.248C315.684 258.363 313.728 258.593 311.888 259.858ZM246.21 178.882C244.599 180.377 244.484 182.217 245.289 184.058C245.749 185.093 246.44 186.013 247.13 186.933C248.74 189.349 250.35 191.649 251.961 194.065C252.191 194.295 252.536 194.525 252.881 194.64C253.226 194.755 253.571 193.95 253.571 193.375C253.686 191.994 253.341 190.729 252.651 189.464C250.81 186.128 248.97 182.793 247.015 179.457C247.015 179.227 246.555 179.112 246.21 178.882ZM224.47 243.755C222.975 242.835 221.595 242.26 219.984 242.95C218.259 243.755 216.534 244.675 214.808 245.365C213.083 246.055 211.242 246.515 209.287 247.091C210.092 248.931 211.473 249.506 213.083 249.506C217.569 249.391 221.365 247.551 224.47 243.755ZM263.233 175.661C266.109 174.741 266.454 174.396 266.684 172.44C266.799 171.52 266.914 170.485 266.684 169.68C266.224 168.07 265.648 166.459 264.958 164.849C264.728 164.389 264.268 164.044 263.808 163.699C263.463 163.354 262.543 164.044 262.083 164.849C261.278 165.999 261.163 167.264 261.163 168.645C261.393 171.06 262.198 173.361 263.233 175.661ZM302.686 256.753C303.721 257.558 304.871 257.443 305.907 256.868C307.172 256.062 308.437 255.142 309.357 253.992C311.083 251.922 312.578 249.736 314.073 247.551C314.188 247.321 314.073 246.861 313.958 246.515C313.958 246.4 313.613 246.17 313.498 246.17C311.198 246.285 308.897 246.861 307.517 248.931C305.792 251.461 304.296 254.107 302.686 256.753ZM314.533 266.875C313.958 265.494 312.578 265.034 311.543 264.344C310.277 263.424 309.012 262.619 307.632 261.929C306.022 261.008 304.296 261.123 302.571 261.468C302.341 261.468 301.996 261.929 301.881 262.159C301.766 262.274 301.766 262.619 301.881 262.734C304.066 264.574 306.252 266.415 308.552 268.255C309.472 268.945 310.738 268.945 311.888 268.715C313.038 268.485 314.188 268.14 314.533 266.875ZM238.043 249.621C237.123 248.241 236.203 247.896 235.282 248.241C234.362 248.471 233.442 248.931 232.752 249.506C231.832 250.196 231.026 251.001 230.221 251.922C229.071 253.417 227.461 254.682 226.656 256.407C227.116 256.753 227.346 257.098 227.576 257.098C229.416 257.443 231.026 256.983 232.407 255.717C234.362 253.762 236.087 251.807 238.043 249.621ZM219.064 286.774C218.719 285.738 218.374 284.818 218.259 283.898C218.144 282.748 218.259 281.598 218.259 280.447C218.259 279.412 217.684 278.722 216.649 278.377C216.073 278.262 215.498 278.032 214.923 278.032C213.083 277.917 211.588 279.527 211.933 281.368C212.508 284.473 214.348 286.544 217.454 287.349C217.914 287.464 218.489 287.004 219.064 286.774ZM195.369 193.145C195.024 193.375 194.564 193.49 194.564 193.72C193.874 198.321 196.635 202.001 201.235 202.692C201.465 202.692 201.696 202.807 201.811 202.692C202.041 202.462 202.616 202.116 202.501 201.886C201.696 197.976 199.97 194.64 196.059 193.145C195.714 193.145 195.484 193.145 195.369 193.145ZM242.874 188.199C242.759 188.314 242.529 188.544 242.529 188.659C242.644 189.579 242.759 190.499 243.104 191.419C244.599 195.56 247.245 199.126 248.625 203.382C248.625 203.612 249.2 203.612 249.545 203.612C249.66 203.612 249.89 203.497 250.005 203.267C250.235 202.577 250.695 201.771 250.58 201.081C249.775 196.02 246.9 191.994 243.449 188.314C243.334 188.314 243.104 188.314 242.874 188.199ZM281.982 180.952C280.256 182.908 280.256 184.863 280.026 186.818C279.796 189.119 280.601 190.959 282.442 192.339C283.017 192.8 283.707 193.145 284.627 192.569C284.857 190.959 285.087 189.349 285.202 187.624C285.317 184.863 284.282 182.793 281.982 180.952ZM220.444 276.191C220.214 270.555 217.339 267.565 213.083 265.609C212.508 265.379 211.933 265.494 211.588 266.069C211.357 266.414 211.242 266.76 211.357 267.105C211.588 268.715 212.393 270.095 213.543 271.13C215.383 272.971 217.454 274.696 220.444 276.191ZM304.296 270.555C304.181 270.21 304.296 269.75 304.066 269.52C301.651 266.99 298.775 265.034 295.9 263.079C295.094 262.504 294.174 262.274 293.254 262.044C292.564 261.929 291.874 261.699 291.299 262.619C293.944 265.954 297.165 268.6 301.076 270.555C302.111 271.015 303.261 271.245 304.296 270.555ZM263.003 205.107C259.667 205.797 257.252 206.142 254.836 206.947C252.536 207.638 250.81 209.133 249.545 210.973C249.43 211.088 249.43 211.433 249.545 211.548C249.775 211.778 250.12 212.123 250.35 212.123C251.846 212.008 253.456 211.893 254.836 211.548C257.942 210.513 260.702 208.903 263.003 205.107ZM233.097 287.004C233.097 286.544 233.212 286.314 233.097 286.198C231.257 282.978 228.151 281.598 224.815 280.677C224.585 280.677 224.47 280.677 224.24 280.677C223.665 280.677 222.515 281.368 222.515 281.943C222.515 282.518 222.515 283.093 222.745 283.553C223.55 285.163 225.045 286.083 226.656 286.774C228.726 287.579 230.911 287.579 233.097 287.004ZM275.54 239.499C275.655 238.349 274.16 237.314 273.125 237.889C270.134 239.384 267.719 241.454 266.569 244.675C266.454 245.02 266.569 245.48 266.799 245.71C267.029 245.94 267.489 246.17 267.834 246.055C271.285 245.48 273.7 243.525 275.425 240.649C275.54 240.304 275.425 239.844 275.54 239.499ZM232.752 291.605C232.177 291.72 231.947 291.72 231.832 291.72C231.372 291.95 230.796 292.18 230.451 292.525C230.106 292.985 230.451 294.02 231.026 294.595C233.442 296.666 236.087 297.816 239.423 297.356C239.998 297.241 240.458 297.011 240.918 296.666C241.149 296.551 241.264 296.091 241.264 295.745C241.264 295.63 241.149 295.4 241.033 295.285C238.503 293.1 235.742 291.49 232.752 291.605ZM273.24 303.797C274.62 303.567 276.001 303.452 277.266 303.107C278.531 302.762 279.681 302.072 280.486 300.921C280.832 300.346 280.716 299.311 280.141 298.966C279.681 298.736 279.106 298.391 278.531 298.276C275.31 297.816 272.55 298.966 270.594 301.612C270.364 301.957 270.594 302.877 271.17 303.107C271.86 303.337 272.665 303.567 273.24 303.797ZM231.026 245.71C230.911 245.595 230.681 245.48 230.566 245.48C229.876 245.48 228.956 245.48 228.381 245.825C225.39 247.781 222.4 249.851 219.409 251.922C219.294 252.037 219.294 252.727 219.524 252.842C220.904 253.992 223.09 254.222 224.24 253.072C226.656 250.886 228.841 248.586 231.026 246.285C231.141 246.17 231.026 245.94 231.026 245.71ZM275.08 294.02C275.31 294.02 275.425 293.905 275.655 293.905C278.186 293.905 279.451 292.41 280.141 290.224C280.601 288.959 279.451 287.464 278.071 287.464C276.116 287.579 274.275 288.154 273.01 289.764C272.55 290.339 272.205 291.029 272.32 291.835C272.435 293.33 273.47 294.135 275.08 294.02ZM258.287 195.445C260.817 194.41 263.693 193.835 265.994 191.994C266.914 191.304 267.374 190.269 267.489 189.004C267.489 188.429 267.029 187.624 266.569 187.854C264.153 188.889 261.623 189.809 259.207 191.074C257.942 191.649 257.482 193.03 257.367 194.41C257.482 194.755 257.942 195.1 258.287 195.445ZM240.343 287.809C241.494 286.889 242.069 285.623 241.724 284.243C241.264 282.403 240.458 280.677 239.653 278.952C239.193 277.917 237.353 277.112 236.778 277.572C235.972 278.262 235.857 279.182 235.972 280.217C235.972 280.792 236.087 281.368 236.318 281.943C237.238 283.783 238.388 285.623 239.423 287.349C239.538 287.579 239.998 287.579 240.343 287.809ZM245.404 207.868C245.634 203.842 243.909 200.506 241.724 197.285C241.494 197.055 241.149 196.94 240.803 196.825C240.343 196.71 239.883 197.285 239.998 198.091C240.228 202.231 241.954 205.797 244.139 209.248C244.254 209.363 244.484 209.363 244.714 209.248C244.829 209.248 245.059 209.133 245.174 209.133C245.174 208.673 245.289 208.328 245.404 207.868ZM323.505 248.241C321.435 247.321 319.709 248.356 318.099 249.276C316.144 250.426 314.418 251.922 313.843 254.337C317.179 255.257 319.594 254.452 321.32 251.576C322.125 250.541 323.39 249.736 323.505 248.241ZM290.724 291.72C290.493 291.375 290.378 291.029 290.033 290.799C289.228 290.339 288.308 290.109 287.273 290.339C284.857 290.914 283.247 292.41 282.212 294.48C281.867 295.055 282.442 295.63 282.787 295.86C283.247 296.206 283.822 296.436 284.397 296.436C287.043 296.206 288.998 295.055 290.493 292.87C290.723 292.525 290.724 292.065 290.724 291.72ZM203.536 228.227C203.766 231.677 204.226 233.058 205.491 234.438C206.296 235.358 207.332 235.818 208.482 236.048C209.632 236.278 210.782 236.163 211.818 235.588C212.048 234.323 211.012 233.978 210.322 233.403C209.632 232.828 208.827 232.253 208.137 231.562C207.447 230.987 206.642 230.297 205.951 229.722C205.146 229.147 204.571 228.227 203.536 228.227ZM278.991 205.452C279.681 207.292 281.292 207.868 282.902 208.328C285.202 209.018 287.618 209.823 290.033 210.513C290.608 210.628 291.069 210.628 291.414 209.938C290.148 207.983 288.538 206.487 286.238 205.682C283.477 204.762 282.212 204.647 278.991 205.452ZM226.656 295.745C226.311 294.135 225.965 292.525 225.62 290.914C224.7 290.684 224.01 290.339 223.205 290.224C222.63 290.109 222.055 290.224 221.48 290.339C219.409 290.684 218.719 292.525 219.984 294.135C220.904 295.285 221.94 295.86 223.32 296.321C224.355 296.551 225.505 296.666 226.656 295.745ZM205.376 224.086C206.872 227.997 209.977 230.297 213.313 232.368C213.428 232.368 213.658 232.368 213.773 232.253C213.888 232.138 214.118 231.907 214.118 231.792C213.888 230.872 213.658 229.952 213.313 229.147C212.048 226.156 209.632 224.431 206.527 223.741C206.066 223.626 205.721 223.971 205.376 224.086ZM226.541 229.722C225.735 230.067 225.62 230.757 225.85 231.217C227.001 233.863 228.151 236.393 229.416 238.924C229.761 239.499 230.451 239.959 231.026 240.419C231.141 240.534 231.372 240.534 231.602 240.419C231.717 240.419 231.947 240.189 231.947 240.074C232.292 235.473 230.106 232.138 226.541 229.722ZM302.916 249.391C302.801 249.276 302.801 249.046 302.686 248.931C302.571 248.816 302.341 248.701 302.226 248.701C297.97 249.621 295.439 252.612 293.369 256.062C293.369 256.177 293.484 256.407 293.484 256.522C293.599 256.638 293.829 256.753 293.944 256.753C297.855 255.717 300.5 252.957 302.801 249.966C302.916 249.736 302.916 249.506 302.916 249.391ZM226.195 269.52C225.275 269.29 224.7 269.865 224.7 270.44C224.47 274.121 225.965 276.191 229.761 277.572C229.991 277.687 230.451 277.342 230.796 277.227C230.911 277.112 231.026 276.882 231.026 276.767C230.681 274.006 229.531 271.706 227.346 269.98C226.886 269.75 226.311 269.635 226.195 269.52ZM322.47 217.3C326.611 215.804 328.336 212.814 328.451 208.788C328.451 208.673 328.336 208.328 328.221 208.328C327.876 208.213 327.416 207.983 327.186 208.098C326.266 208.788 325.345 209.478 324.655 210.398C324.08 211.088 323.85 212.123 323.505 213.044C323.16 214.309 322.01 215.229 322.47 217.3ZM207.102 199.011C206.987 199.356 206.642 199.586 206.642 199.931C207.217 202.922 208.712 205.222 211.242 206.832C211.818 207.177 212.623 207.408 213.428 207.523C213.543 207.523 213.888 207.062 214.003 206.717C214.118 206.602 214.003 206.372 214.003 206.142C212.508 203.497 211.012 200.851 208.252 199.241C207.907 199.126 207.447 199.126 207.102 199.011ZM265.763 309.663C266.224 309.548 267.374 309.433 268.409 309.088C268.869 308.973 269.444 308.628 269.559 307.938C269.559 307.363 269.099 306.213 268.524 306.098C267.259 305.752 265.994 305.407 264.613 305.292C262.888 305.292 261.163 305.407 260.127 307.018C259.552 307.938 262.083 309.433 264.613 309.548C264.728 309.663 264.843 309.663 265.763 309.663ZM295.785 195.33C294.059 196.135 292.794 197.055 292.794 198.781C292.679 200.506 292.794 202.231 292.909 203.957C292.909 204.187 293.024 204.417 293.139 204.532C293.484 204.877 293.944 205.337 294.404 205.567C294.519 205.682 295.094 205.337 295.209 204.992C296.935 202.001 297.05 198.896 295.785 195.33ZM260.933 244.79C261.163 244.675 261.278 244.675 261.393 244.56C263.233 242.375 263.808 239.844 263.463 237.084C263.463 236.853 263.348 236.738 263.233 236.508C263.003 235.818 261.853 235.588 261.278 235.933C259.897 236.853 259.207 238.119 259.322 239.844C259.667 241.569 260.012 243.295 260.933 244.79ZM266.684 233.978C266.799 234.553 266.799 235.013 267.029 235.243C267.259 235.473 267.604 235.818 267.834 235.818C268.179 235.818 268.639 235.588 268.754 235.358C270.019 232.828 271.055 230.067 270.94 227.192C270.94 226.846 270.709 226.156 270.479 226.156C270.019 226.156 269.214 226.271 268.984 226.501C267.144 228.802 267.029 231.562 266.684 233.978ZM267.834 179.572C265.763 180.262 263.923 181.182 262.313 182.447C261.393 183.138 260.587 183.943 260.587 185.323C260.587 185.553 260.932 186.128 261.163 186.128C263.348 186.013 265.303 185.208 266.914 183.943C268.294 182.908 268.754 181.412 267.834 179.572ZM288.538 196.135C288.998 196.02 289.458 196.135 289.573 195.905C290.263 194.985 290.954 194.065 291.414 193.03C292.449 190.844 292.219 188.544 290.954 186.473C290.724 186.128 290.148 185.783 289.688 185.668C289.573 185.668 289.113 186.128 288.998 186.473C288.653 189.119 288.308 191.764 287.963 194.41C288.193 194.985 288.423 195.56 288.538 196.135ZM263.348 228.342C263.233 227.767 263.118 226.961 262.773 226.386C262.428 225.811 261.738 225.351 261.048 225.006C260.357 224.661 259.092 225.581 258.747 226.271C258.632 226.616 258.402 226.961 258.402 227.307C258.172 228.917 258.402 230.297 259.437 231.562C259.782 232.023 260.127 232.368 260.817 232.253C261.623 232.138 262.428 231.907 262.658 231.217C263.003 230.412 263.003 229.377 263.348 228.342ZM264.038 254.337C265.763 253.992 267.604 253.762 269.444 253.302C270.134 253.072 270.594 252.382 271.17 251.807C271.63 251.346 271.17 250.196 270.479 249.966C267.259 249.391 264.383 250.311 262.083 252.612C261.968 252.727 262.083 253.417 262.198 253.532C262.658 253.992 263.233 254.107 264.038 254.337ZM254.261 183.253C254.836 182.447 254.721 181.412 254.491 180.492C253.916 178.307 253.111 176.236 251.961 174.281C251.731 173.936 251.386 173.821 250.925 174.051C250.81 174.166 250.58 174.166 250.465 174.281C249.66 175.431 249.43 176.811 250.12 178.077C251.041 179.687 252.191 181.297 253.226 182.793C253.456 183.023 253.916 183.023 254.261 183.253ZM204.571 241.109C204.801 242.145 205.376 242.72 206.066 242.95C209.057 243.985 211.703 242.95 214.118 241.224C214.233 241.109 214.233 240.764 214.233 240.764C214.003 240.534 213.773 240.074 213.543 240.074C210.437 239.384 207.447 240.074 204.571 241.109ZM256.332 201.886C256.447 202.001 256.677 202.231 256.792 202.116C259.667 201.886 262.428 201.196 265.073 200.046C265.533 199.816 265.994 199.356 266.224 198.896C266.454 198.436 266.454 197.746 266.339 197.285C266.109 196.595 265.418 196.71 264.958 196.825C262.658 197.746 260.357 198.666 258.057 199.586C257.022 200.161 256.332 200.851 256.332 201.886ZM337.653 212.123C336.388 212.008 335.122 211.893 333.742 211.893C332.707 211.893 331.902 212.354 331.442 213.274C330.982 214.079 330.522 214.884 330.176 215.689C332.247 217.069 333.972 216.034 335.583 215.229C336.618 214.654 337.883 213.964 337.653 212.123ZM257.367 178.767C258.632 177.616 259.092 176.581 258.862 175.316C258.517 173.246 258.172 171.175 257.712 169.22C257.712 169.105 257.022 168.99 256.792 169.105C255.181 170.485 254.721 171.865 255.296 173.591C255.987 175.201 256.677 176.811 257.367 178.767ZM282.442 212.123C282.212 212.238 281.982 212.354 281.867 212.469C281.752 212.814 281.637 213.389 281.752 213.504C282.442 214.079 283.247 214.884 284.052 215.114C286.353 215.919 288.768 216.724 290.839 218.105C290.954 218.22 291.414 217.76 291.529 217.53C291.644 217.415 291.644 217.069 291.529 216.954C291.069 216.379 290.608 215.689 290.033 215.229C288.193 213.849 286.123 212.929 283.822 212.238C283.592 212.123 283.017 212.238 282.442 212.123ZM298.545 208.328C298.2 208.443 297.74 208.443 297.625 208.673C296.36 211.433 295.554 214.309 295.554 217.415C295.554 217.645 295.67 217.76 295.785 217.99C295.9 218.105 296.015 218.22 296.13 218.22C296.36 218.22 296.59 218.105 296.705 217.99C298.66 214.999 299.005 212.929 298.545 208.328ZM262.888 301.267C263.233 301.267 263.693 301.267 264.038 301.152C266.109 300.231 267.719 298.621 268.869 296.666C268.984 296.436 268.869 295.86 268.754 295.63C268.524 295.4 268.064 295.17 267.834 295.285C265.188 296.206 263.348 297.931 262.428 300.576C262.198 300.691 262.658 300.921 262.888 301.267ZM285.662 300.231C284.512 302.187 283.592 303.567 282.787 305.062C283.132 305.292 283.477 305.637 283.707 305.637C285.893 305.522 287.618 304.372 288.883 302.532C289.228 301.957 288.883 301.037 288.078 300.691C287.388 300.576 286.583 300.461 285.662 300.231ZM205.951 209.018C204.111 207.062 201.811 206.487 199.165 206.947C199.05 206.947 198.705 207.177 198.705 207.292C198.705 207.638 198.59 208.098 198.82 208.328C199.395 209.018 200.085 209.823 200.89 210.283C202.501 211.203 204.341 210.743 205.951 209.018ZM213.313 211.548C210.782 211.088 208.827 212.239 206.987 213.504C206.872 213.619 206.987 214.194 207.102 214.424C207.332 214.654 207.677 214.884 208.022 214.999C210.322 215.459 212.508 214.884 214.348 213.504C214.578 213.274 214.693 212.929 214.808 212.584C214.923 212.238 214.693 211.893 214.233 211.778C214.003 211.778 213.543 211.663 213.313 211.548ZM292.794 225.581C292.334 225.236 292.679 225.236 292.794 224.776C292.909 224.431 292.794 223.971 292.564 223.741C290.608 222.015 288.538 220.29 285.893 219.485C285.662 219.37 285.317 219.715 284.972 219.945C284.857 220.06 284.972 220.29 284.972 220.52C285.202 221.67 286.123 222.476 287.158 223.051C288.653 223.856 290.263 224.431 292.794 225.581ZM331.557 220.865C331.327 220.52 331.212 220.175 330.867 219.945C328.911 218.795 326.841 219.14 325 220.29C324.77 220.405 324.655 220.865 324.54 221.21C324.425 221.67 324.655 221.9 325.115 222.015C327.531 222.706 329.601 222.246 331.557 220.865ZM274.735 233.403C275.08 233.633 275.425 233.978 275.655 233.978C277.956 233.748 279.451 232.483 280.486 230.527C280.716 230.067 280.141 229.377 279.566 229.377C278.876 229.492 277.956 229.492 277.381 229.837C276.001 230.642 274.965 231.792 274.735 233.403ZM274.045 310.814C275.195 310.929 276.346 310.583 277.381 310.008C277.841 309.778 278.416 309.318 278.646 308.858C278.876 308.398 278.991 307.823 278.876 307.248C278.876 307.018 278.301 306.788 277.956 306.673C277.381 306.558 276.806 306.673 276.231 306.673C275.425 306.788 274.62 306.788 274.16 307.478C273.585 308.628 273.125 309.778 274.045 310.814ZM235.627 237.314C235.512 237.659 235.167 237.889 235.167 238.234C235.052 240.534 236.087 242.605 237.238 244.445C237.353 244.675 237.813 244.675 238.158 244.675C238.273 244.675 238.388 244.445 238.388 244.215C238.618 242.72 238.158 241.224 237.468 239.844C237.123 238.924 236.893 237.774 235.627 237.314ZM319.134 211.203C316.259 213.159 315.914 213.619 315.108 216.149C315.108 216.264 315.108 216.494 315.108 216.724C315.223 216.839 315.338 217.069 315.454 217.185C315.569 217.3 315.799 217.3 315.914 217.185C317.984 215.919 319.019 214.079 319.364 211.663C319.479 211.548 319.249 211.318 319.134 211.203ZM323.045 225.121C320.63 223.396 320.63 223.281 317.064 223.281C319.364 225.466 320.86 225.926 323.045 225.121ZM220.559 207.868C219.984 206.372 218.949 205.222 217.799 204.302C217.684 204.187 217.224 204.302 216.994 204.302C216.879 204.302 216.764 204.647 216.879 204.762C217.224 205.682 217.454 206.487 217.914 207.292C218.144 207.753 218.719 208.098 219.179 208.213C219.524 208.328 220.099 207.983 220.559 207.868Z" fill="#122C33"/>
<rect x="0.5" y="0.5" width="511" height="511" rx="255.5" stroke="white"/>
</svg>
