<svg width="512" height="512" viewBox="0 0 512 512" fill="none" xmlns="http://www.w3.org/2000/svg">
<path d="M188.574 468.148C275.6 468.148 346.148 397.6 346.148 310.574C346.148 223.548 275.6 153 188.574 153C101.548 153 31 223.548 31 310.574C31 397.6 101.548 468.148 188.574 468.148Z" fill="#01052D"/>
<path d="M141.068 246.487C156.609 241.484 172.852 239.003 189.178 239.137C205.062 239.06 220.862 241.456 236.01 246.238L236.791 244.889C238.104 242.546 239.383 240.309 240.625 238.036L256.283 210.804L226.885 218.224L232.211 221.1C233.571 221.783 234.636 222.939 235.205 224.351C235.773 225.763 235.807 227.334 235.3 228.77C234.7 230.217 233.56 231.375 232.123 231.997C230.685 232.62 229.061 232.66 227.595 232.107C219.337 228.814 210.702 226.56 201.889 225.396C200.493 225.183 199.222 224.472 198.309 223.396C197.396 222.32 196.902 220.95 196.918 219.538C196.918 217.796 197.61 216.125 198.842 214.893C200.074 213.662 201.744 212.97 203.486 212.97H207.712L188.432 189.074L169.117 212.97H173.342C174.211 212.941 175.076 213.085 175.889 213.394C176.701 213.702 177.444 214.169 178.075 214.767C178.706 215.364 179.212 216.081 179.563 216.876C179.915 217.671 180.105 218.527 180.124 219.396C180.14 220.808 179.646 222.177 178.733 223.254C177.82 224.33 176.548 225.041 175.153 225.254C165.598 226.469 156.263 229.027 147.423 232.853H146.926C145.51 232.568 144.214 231.858 143.211 230.818C142.209 229.777 141.548 228.456 141.316 227.03C141.196 225.849 141.433 224.66 141.997 223.615C142.56 222.571 143.424 221.719 144.476 221.171L150.157 218.082L120.794 210.662L136.345 237.823C137.908 240.77 139.576 243.575 141.068 246.487Z" fill="white"/>
<path d="M200.752 359.785C198.841 358.59 196.712 357.784 194.488 357.412C192.265 357.04 189.989 357.111 187.793 357.62C185.593 357.086 183.307 357.003 181.074 357.375C178.841 357.747 176.706 358.567 174.798 359.785C179.087 361.244 183.554 362.115 188.077 362.377C192.406 362.137 196.677 361.264 200.752 359.785Z" fill="white"/>
<path d="M211.795 386.841C213.647 384.361 214.954 381.518 215.629 378.497C216.062 374.664 215.091 370.804 212.895 367.632C211.532 365.556 209.504 364.004 207.143 363.23C205.932 362.801 204.747 362.304 203.593 361.738C201.518 363.731 199.07 365.293 196.388 366.335C193.707 367.377 190.846 367.878 187.97 367.81C182.005 367.772 176.217 365.776 171.496 362.129C170.644 362.484 169.756 362.803 168.833 363.123C167.403 363.636 166.105 364.46 165.034 365.537C163.441 367.326 162.227 369.418 161.465 371.688C160.702 373.958 160.406 376.358 160.596 378.745C161.271 381.766 162.578 384.61 164.43 387.089C166.191 389.406 167.386 392.101 167.923 394.961C168.459 397.821 168.321 400.767 167.519 403.564C167.139 404.646 166.639 405.682 166.028 406.653C167.744 409.021 169.734 411.179 171.957 413.079C175.999 416.959 181.174 419.446 186.728 420.18C186.226 419.64 185.904 418.956 185.809 418.224C185.714 417.492 185.849 416.749 186.195 416.097C186.576 415.478 187.029 414.906 187.544 414.393C189.533 411.979 192.87 408.109 191.698 404.487L191.308 403.173L192.48 403.919C192.48 403.919 195.746 406.333 191.84 414.855C191.322 415.797 191.013 416.839 190.933 417.911C190.853 418.983 191.006 420.06 191.379 421.068C192.242 422.891 193.746 424.332 195.604 425.116C195.888 422.701 197.521 414.464 204.019 414.464C207.349 414.1 210.436 412.55 212.718 410.097C210.194 406.785 208.752 402.775 208.587 398.614C208.421 394.454 209.541 390.343 211.795 386.841Z" fill="white"/>
<path d="M210.268 338.269L204.978 333.511C204.978 334.541 203.984 335.819 201.711 337.062L201.037 337.452C197.373 339.357 193.467 340.755 189.426 341.606C188.402 341.747 187.362 341.747 186.337 341.606H185.592C181.762 340.778 178.06 339.441 174.585 337.63C171.247 335.854 170.502 334.079 170.502 332.979C169.472 333.937 168.265 335.18 166.951 336.529C163.401 340.08 158.892 344.447 154.737 347.997C146.607 355.099 142.097 378.603 145.044 389.823C146.237 393.756 148.259 397.389 150.974 400.475C153.708 404.025 156.087 407.221 154.879 411.126C154.637 411.696 154.533 412.314 154.576 412.932C154.619 413.549 154.808 414.147 155.128 414.677C157.068 417.053 159.831 418.612 162.868 419.044C160.844 417.446 156.939 412.405 161.306 402.64C162.762 398.309 161.306 395.788 158.43 391.243C155.99 387.937 154.316 384.128 153.53 380.094C151.719 368.058 162.371 358.933 162.726 358.685C163.081 358.436 164.004 357.051 165.034 356.909C168.585 356.448 174.585 350.625 179.804 352.542C182.291 353.497 184.918 354.037 187.58 354.14C187.757 354.166 187.936 354.166 188.113 354.14C188.455 354.172 188.8 354.172 189.142 354.14C191.447 353.998 193.714 353.482 195.853 352.613C200.966 350.696 207.783 356.732 211.475 357.193C211.871 357.248 212.247 357.395 212.574 357.624C212.902 357.852 213.17 358.155 213.357 358.507L213.712 358.898C215.665 360.637 224.186 369.017 222.66 379.597C221.874 383.631 220.2 387.439 217.76 390.746C216.634 392.475 215.899 394.428 215.604 396.47C215.31 398.512 215.464 400.593 216.056 402.569C216.31 403.375 216.523 404.192 216.695 405.019C216.695 405.019 216.695 405.019 216.695 405.232C217.412 407.452 217.503 409.826 216.958 412.093C216.413 414.361 215.253 416.435 213.606 418.085L212.967 418.725C215.896 418.26 218.552 416.73 220.423 414.428C220.757 413.905 220.957 413.307 221.007 412.688C221.056 412.069 220.953 411.448 220.707 410.878C219.464 407.043 221.843 403.777 224.577 400.226C227.314 397.15 229.349 393.515 230.542 389.574C233.453 378.355 228.944 354.885 220.849 347.749C217.476 345.05 213.677 341.429 210.268 338.269Z" fill="white"/>
<path d="M248.898 343.488C248.913 342.889 248.997 342.293 249.146 341.713C249.146 341.713 249.146 341.713 249.146 341.464C249.621 339.341 249.894 337.177 249.963 335.002C250.053 331.098 249.586 327.2 248.578 323.427C247.717 320.281 246.527 317.235 245.028 314.338C242.202 318.891 239.699 323.637 237.536 328.54C235.677 332.666 234.249 336.974 233.275 341.393C232.735 343.651 232.438 345.96 232.388 348.281C232.58 353.415 233.928 358.439 236.329 362.981C240.054 369.694 241.154 377.551 239.418 385.03C242.337 382.024 244.294 378.216 245.04 374.093C245.787 369.97 245.288 365.718 243.607 361.88C244.925 362.215 246.102 362.959 246.969 364.006C247.837 365.052 248.351 366.346 248.436 367.703C249.995 366.387 251.262 364.76 252.155 362.925C253.047 361.091 253.547 359.09 253.62 357.051C253.73 354.226 252.851 351.451 251.135 349.204C249.764 347.607 248.975 345.592 248.898 343.488Z" fill="white"/>
<path d="M129.457 302.905C130.117 302.685 130.759 302.412 131.375 302.089C131.513 301.979 131.669 301.895 131.836 301.84C132.041 301.748 132.232 301.629 132.404 301.485C141.6 294.846 143.056 270.95 152.536 264.879C156.263 262.161 160.484 260.195 164.963 259.091C167.228 258.423 169.336 257.309 171.165 255.815C172.994 254.322 174.507 252.478 175.615 250.393C161.132 251.523 146.949 255.126 133.683 261.044C132.582 262.713 130.132 266.335 128.747 268.145C124.309 274.146 119.232 280.892 118.096 288.774C120.038 288.186 121.822 287.167 123.315 285.792L124.416 285.011L124.061 286.324C123.29 289.404 122.22 292.401 120.865 295.272C117.91 302.074 117.057 309.604 118.415 316.895C118.825 319.983 119.43 323.043 120.226 326.055C120.226 325.451 120.439 324.706 120.581 323.96C120.581 322.469 120.794 320.765 121.043 318.918C121.859 312.385 124.096 304.787 129.457 302.905Z" fill="white"/>
<path d="M251.561 286.323L251.135 285.01L252.2 285.791C254.332 287.315 256.746 288.401 259.301 288.986C258.023 281.459 252.626 274.784 247.833 268.855C246.113 266.271 244.605 263.552 243.324 260.724C229.619 254.667 214.958 251.062 200.007 250.072C201.316 252.932 203.273 255.449 205.723 257.422C207.209 258.18 208.801 258.706 210.446 258.984C211.466 259.162 212.499 259.257 213.534 259.268C214.078 259.235 214.624 259.235 215.168 259.268C217.606 259.701 219.823 260.954 221.452 262.819C221.772 263.138 222.198 263.493 222.553 263.919C222.642 264.021 222.725 264.128 222.801 264.239C230.932 273.612 233.808 294.348 243.111 300.987C243.265 301.138 243.445 301.258 243.643 301.342C243.714 301.628 243.847 301.895 244.034 302.123C244.633 302.498 245.278 302.796 245.951 303.011C251.597 304.999 253.798 313.308 254.579 319.947C254.579 321.403 254.828 322.788 254.899 323.995C254.899 324.741 255.183 325.486 255.254 326.09C255.715 324.243 256.354 321.51 256.851 318.279C257.917 311.177 258.307 301.946 254.615 295.306C253.279 292.43 252.255 289.418 251.561 286.323Z" fill="white"/>
<path d="M137.517 327.865C135.464 323.209 133.092 318.701 130.416 314.373C128.949 317.013 127.759 319.797 126.865 322.681C125.768 326.37 125.195 330.195 125.161 334.043C125.159 336.504 125.433 338.957 125.977 341.357C125.977 341.357 125.977 341.535 125.977 341.606C126.127 342.186 126.211 342.782 126.226 343.381C126.179 345.472 125.428 347.486 124.096 349.098C122.372 351.292 121.457 354.013 121.504 356.802C121.577 358.841 122.076 360.842 122.969 362.676C123.862 364.511 125.128 366.138 126.687 367.454C126.773 366.097 127.287 364.803 128.154 363.757C129.022 362.71 130.199 361.966 131.516 361.631C129.836 365.469 129.337 369.721 130.083 373.844C130.83 377.967 132.787 381.775 135.706 384.781C133.969 377.302 135.07 369.445 138.795 362.732C141.26 358.289 142.703 353.352 143.02 348.281C142.991 345.89 142.706 343.509 142.168 341.18C141.075 336.595 139.517 332.133 137.517 327.865Z" fill="white"/>
<path d="M194.574 292.289C194.538 292.161 194.538 292.026 194.574 291.898C194.787 291.366 196.243 290.585 198.373 289.662C206.1 286.539 214.083 284.092 222.233 282.347C223.527 282.42 224.767 282.891 225.784 283.697C222.233 275.246 217.866 267.932 210.552 267.932C201.178 267.932 195.32 258.523 191.84 249.824C190.704 249.824 189.568 249.824 188.29 249.824H187.437C185.982 249.824 184.561 249.824 183.141 249.824C179.591 258.523 173.803 267.932 164.394 267.932C157.08 267.932 152.642 275.246 149.162 283.697C150.178 282.891 151.419 282.42 152.713 282.347C160.863 284.092 168.846 286.539 176.573 289.662C178.703 290.585 180.123 291.366 180.372 291.898C180.398 292.051 180.398 292.207 180.372 292.36V316.788C178.454 314.87 177.389 309.296 176.821 304.893L176.573 304.716L175.294 304.077H174.833C174.347 303.931 173.847 303.836 173.342 303.793C169.751 304.473 166.123 304.936 162.477 305.177C161.732 305.228 160.985 305.228 160.24 305.177C157.278 304.807 154.457 303.696 152.038 301.946L149.375 300.136C150.735 298.699 152.394 297.579 154.235 296.855C156.076 296.131 158.053 295.821 160.027 295.946C161.218 295.977 162.404 296.096 163.578 296.301L168.158 297.082C171.065 297.362 173.895 298.18 176.502 299.497C175.979 298.708 175.398 297.96 174.762 297.26C174.473 296.912 174.165 296.58 173.839 296.266C173.626 296.053 173.448 295.804 173.2 295.591C170.331 293.149 166.964 291.363 163.333 290.357C159.703 289.352 155.897 289.151 152.18 289.768C150.353 289.971 148.539 290.279 146.748 290.691C143.197 300.526 141.458 309.722 136.345 309.758C135.981 309.689 135.608 309.689 135.244 309.758L144.05 323.96C144.362 324.642 144.634 325.341 144.866 326.055C145.34 328.062 146.081 329.996 147.068 331.807C147.387 332.446 147.742 333.014 148.062 333.546C148.381 334.079 148.772 334.612 149.127 335.073L150.05 336.28L151.648 338.091C153.875 337.641 156.027 336.876 158.039 335.819L159.956 334.825C160.702 334.399 161.483 334.008 162.299 333.617C164.749 332.517 170.359 330.564 170.395 330.564C170.856 327.937 172.028 323.463 175.294 322.859C175.788 322.774 176.292 322.774 176.786 322.859C177.469 323.095 178.08 323.503 178.559 324.044C179.038 324.585 179.369 325.241 179.52 325.948C179.441 325.87 179.346 325.811 179.242 325.774C179.137 325.737 179.026 325.724 178.916 325.735C178.102 325.829 177.28 325.829 176.466 325.735H176.005C173.626 325.735 173.803 328.505 174.052 330.528L177.318 332.02L179.023 332.801L181.401 333.866C183.381 334.758 185.408 335.541 187.473 336.209C191.992 334.684 196.394 332.833 200.646 330.671C200.894 328.647 201.072 325.877 198.693 325.877H198.231C197.417 325.786 196.595 325.786 195.781 325.877C195.671 325.866 195.56 325.879 195.455 325.916C195.351 325.953 195.256 326.012 195.178 326.09C195.328 325.383 195.659 324.727 196.138 324.186C196.617 323.645 197.228 323.237 197.912 323.001C198.405 322.916 198.909 322.916 199.403 323.001C202.669 323.427 203.841 328.079 204.303 330.706C204.303 330.706 209.948 332.659 212.398 333.759L214.28 334.718L216.659 335.961C218.67 337.018 220.822 337.783 223.05 338.233L224.647 336.422L225.57 335.215C225.926 334.754 226.281 334.257 226.636 333.688C226.991 333.12 227.31 332.588 227.63 331.949L227.949 331.345C228.139 330.99 228.316 330.599 228.482 330.173C228.669 329.768 228.835 329.353 228.979 328.931C229.157 328.505 229.299 328.079 229.441 327.617C229.583 327.155 229.725 326.694 229.831 326.197C230.063 325.483 230.336 324.784 230.648 324.102L239.773 309.9C239.409 309.831 239.036 309.831 238.672 309.9C233.559 309.9 231.571 300.491 228.02 290.656C226.229 290.244 224.415 289.936 222.588 289.733C218.872 289.115 215.065 289.316 211.435 290.322C207.805 291.328 204.437 293.114 201.569 295.555C201.32 295.768 201.143 296.017 200.93 296.23C200.604 296.544 200.296 296.876 200.006 297.224C199.371 297.925 198.789 298.673 198.267 299.461H198.444C201.051 298.145 203.881 297.326 206.788 297.047L211.368 296.266C212.541 296.06 213.728 295.942 214.919 295.91C216.893 295.785 218.87 296.096 220.711 296.82C222.552 297.544 224.211 298.664 225.57 300.1L222.908 301.911C220.489 303.66 217.668 304.772 214.706 305.142C213.961 305.193 213.214 305.193 212.469 305.142H212.078C207.321 305.142 204.09 303.757 201.711 303.757C201.205 303.8 200.705 303.895 200.219 304.041H199.758L198.48 304.68L198.231 304.858C197.663 309.261 196.598 314.835 194.681 316.752V292.253L194.574 292.289Z" fill="white"/>
<circle cx="351.937" cy="171.937" r="128.937" fill="url(#paint0_linear_5316_16085)"/>
<path d="M294.592 211.403V133.01H309.841V211.403H294.592ZM307.693 211.403V197.98H341.521V211.403H307.693Z" fill="white"/>
<path d="M367.051 187.348V174.14H382.3C385.378 174.14 387.956 173.531 390.032 172.314C392.18 171.097 393.791 169.414 394.864 167.267C396.01 165.119 396.583 162.649 396.583 159.857C396.583 157.065 396.01 154.595 394.864 152.447C393.791 150.299 392.18 148.653 390.032 147.507C387.956 146.29 385.378 145.681 382.3 145.681H367.051V132.473H381.011C387.598 132.473 393.182 133.547 397.764 135.694C402.418 137.842 405.961 140.921 408.395 144.93C410.83 148.867 412.047 153.557 412.047 158.998V160.716C412.047 166.157 410.83 170.882 408.395 174.891C405.961 178.829 402.418 181.907 397.764 184.127C393.182 186.274 387.598 187.348 381.011 187.348H367.051ZM353.949 211.403V132.473H369.199V211.403H353.949Z" fill="white"/>
<defs>
<linearGradient id="paint0_linear_5316_16085" x1="351.937" y1="43" x2="351.937" y2="300.875" gradientUnits="userSpaceOnUse">
<stop stop-color="#87AEFB"/>
<stop offset="1" stop-color="#4B7CDA"/>
</linearGradient>
</defs>
</svg>
