<svg width="209" height="209" viewBox="0 0 209 209" fill="none" xmlns="http://www.w3.org/2000/svg">
<circle cx="104.5" cy="104.5" r="104.5" fill="#DEEAF6"/>
<path d="M115.149 64.1982L130.602 103.662L154.995 88.8458L135.074 66.2416L115.149 64.1982Z" fill="#8BB1E8"/>
<path d="M117.185 41.8359L115.149 64.198L135.074 66.2414L141.984 51.5932L130.421 45.5411L117.185 41.8359Z" fill="#3570C3"/>
<path d="M141.984 51.5928L154.995 88.8451L135.074 66.241L141.984 51.5928Z" fill="#5482CD"/>
<path d="M169.356 94.7372L154.995 88.8451L141.984 51.5928L153.366 61.2844L161.769 73.1629L167.731 86.1165L169.356 94.7372Z" fill="#296BC3"/>
<path d="M117.184 41.8358L107.969 40.2109L94.5515 41.8358L84.2527 44.5479L115.149 64.1978L117.184 41.8358Z" fill="#0956AA"/>
<path d="M130.602 103.662L97.5344 99.6698L115.149 64.1982L130.602 103.662Z" fill="#598DD9"/>
<path d="M84.2527 44.5479L97.5345 99.6693L115.149 64.1978L84.2527 44.5479Z" fill="#1D5FBC"/>
<path d="M84.2528 44.5479L72.8297 50.2389L60.8608 59.4915L64.1967 86.1167L84.2528 44.5479Z" fill="#003F9C"/>
<path d="M97.5345 99.6693L64.1965 86.1167L84.2526 44.5479L97.5345 99.6693Z" fill="#0450A9"/>
<path d="M130.602 103.662L147.133 116.025L124.906 135.342L130.602 103.662Z" fill="#2E7DCD"/>
<path d="M97.5344 99.6699L124.906 135.343L130.602 103.662L97.5344 99.6699Z" fill="#39AEE7"/>
<path d="M147.133 116.025L154.995 88.8457L130.602 103.662L147.133 116.025Z" fill="#4582CE"/>
<path d="M169.356 94.7378L170 108.594L168.273 120.879L154.995 88.8457L169.356 94.7378Z" fill="#3570C3"/>
<path d="M147.133 116.025L168.273 120.879L154.995 88.8457L147.133 116.025Z" fill="#3A79BF"/>
<path d="M168.273 120.878L163.665 135.342L152.824 149.383L147.133 116.024L168.273 120.878Z" fill="#065AB0"/>
<path d="M124.906 135.342L152.824 149.383L147.133 116.024L124.906 135.342Z" fill="#0454AB"/>
<path d="M97.5345 99.6689L72.8295 121.498L64.1965 86.1162L97.5345 99.6689Z" fill="#0450A8"/>
<path d="M124.907 135.343L72.8296 121.499L97.5345 99.6699L124.907 135.343Z" fill="#1D63C0"/>
<path d="M152.824 149.383L140.913 159.891L124.906 167.867V135.342L152.824 149.383Z" fill="#01449F"/>
<path d="M124.906 135.342V167.867L111.899 170.305H97.5344L124.906 135.342Z" fill="#0447A0"/>
<path d="M72.8296 121.499L111.223 152.826L124.907 135.343L72.8296 121.499Z" fill="#196BBB"/>
<path d="M60.8608 59.4912L50.9148 72.2396L43.3281 91.4177L64.1967 86.1164L60.8608 59.4912Z" fill="#003F9C"/>
<path d="M72.8296 121.498L43.3281 91.4175L64.1967 86.1162L72.8296 121.498Z" fill="#0449A3"/>
<path d="M47.6651 132.704L63.3268 111.806L43.3281 91.418L41.97 106.522L43.3281 120.251L47.6651 132.704Z" fill="#044BA5"/>
<path d="M111.223 152.825L79.9158 164.991L88.3887 167.867L97.5346 170.305L111.223 152.825Z" fill="#0447A0"/>
<path d="M79.9158 164.992L86.9896 133.053L111.223 152.826L79.9158 164.992Z" fill="#0F52A8"/>
<path d="M63.3267 111.807L64.1966 155.128L53.7623 143.992L47.665 132.704L63.3267 111.807Z" fill="#003F9C"/>
<path d="M64.1965 155.128L86.9894 133.053L72.8295 121.498L63.3267 111.807L64.1965 155.128Z" fill="#0F52A8"/>
<path d="M79.9156 164.992L71.1554 159.891L64.1965 155.128L86.9894 133.053L79.9156 164.992Z" fill="#003F9C"/>
</svg>
