<svg width="290" height="290" viewBox="0 0 290 290" fill="none" xmlns="http://www.w3.org/2000/svg">
<circle cx="145" cy="145" r="145" fill="#E6F0FE" fill-opacity="0.6"/>
<circle cx="145" cy="145" r="113" fill="#E6F0FE"/>
<path d="M97.0229 133.689L143.133 115.464L136.259 104.038L99.4186 110.191L97.0229 133.689Z" fill="#5D8EDA"/>
<path d="M70.9033 131.29L97.023 133.689L99.4187 110.191L82.3028 102.043L75.2289 115.679L70.9033 131.29Z" fill="#3570C4"/>
<path d="M82.3027 102.043L125.824 86.7002L136.259 104.038L99.4186 110.191L82.3027 102.043Z" fill="#3B70CA"/>
<path d="M132.705 69.7588L125.824 86.7L82.3027 102.043L93.6224 88.6145L107.504 78.7063L122.637 71.6732L132.705 69.7588Z" fill="#296BC4"/>
<path d="M70.9032 131.29L69 142.159L70.9032 157.978L74.0642 170.13L97.0229 133.688L70.9032 131.29Z" fill="#0956AA"/>
<path d="M143.133 115.464L138.468 154.465L97.0229 133.688L143.133 115.464Z" fill="#598DD9"/>
<path d="M74.0645 170.13L138.469 154.465L97.0232 133.688L74.0645 170.13Z" fill="#1D5FBD"/>
<path d="M74.0645 170.13L80.7192 183.598L91.5264 197.718L122.637 193.782L74.0645 170.13Z" fill="#003F9C"/>
<path d="M138.469 154.465L122.637 193.782L74.0645 170.13L138.469 154.465Z" fill="#0450A9"/>
<path d="M143.133 115.465L157.581 95.9707L180.153 122.182L143.133 115.465Z" fill="#598DD9"/>
<path d="M138.468 154.465L180.153 122.181L143.133 115.464L138.468 154.465Z" fill="#065AB0"/>
<path d="M157.581 95.9702L125.825 86.7002L143.134 115.464L157.581 95.9702Z" fill="#4B84CF"/>
<path d="M132.706 69.7591L148.903 69L163.251 71.0354L125.825 86.7003L132.706 69.7591Z" fill="#3570C4"/>
<path d="M157.581 95.9701L163.251 71.0352L125.825 86.7001L157.581 95.9701Z" fill="#5D8EDA"/>
<path d="M163.25 71.0352L180.153 76.4695L196.557 89.2527L157.581 95.9701L163.25 71.0352Z" fill="#065AB0"/>
<path d="M180.153 122.182L196.557 89.2529L157.581 95.9703L180.153 122.182Z" fill="#0454AB"/>
<path d="M138.468 154.465L163.976 183.598L122.637 193.782L138.468 154.465Z" fill="#0450A8"/>
<path d="M180.153 122.182L163.976 183.599L138.468 154.465L180.153 122.182Z" fill="#1D63C1"/>
<path d="M196.557 89.2529L208.835 103.306L218.152 122.182H180.153L196.557 89.2529Z" fill="#01449F"/>
<path d="M180.153 122.182H218.152L221 137.524V154.465L180.153 122.182Z" fill="#0447A0"/>
<path d="M163.976 183.599L200.577 138.324L180.154 122.182L163.976 183.599Z" fill="#196BBB"/>
<path d="M91.5264 197.719L106.42 209.447L128.833 218.395L122.637 193.782L91.5264 197.719Z" fill="#003F9C"/>
<path d="M163.976 183.599L128.832 218.395L122.637 193.782L163.976 183.599Z" fill="#0449A3"/>
<path d="M177.066 213.282L152.65 194.81L128.833 218.394L146.474 220L162.519 218.394L177.066 213.282Z" fill="#044BA5"/>
<path d="M200.577 138.323L214.791 175.242L218.152 165.247L221 154.465L200.577 138.323Z" fill="#0447A0"/>
<path d="M214.791 175.242L177.472 166.899L200.577 138.323L214.791 175.242Z" fill="#0F52A8"/>
<path d="M152.649 194.81L203.272 193.782L190.255 206.088L177.066 213.283L152.649 194.81Z" fill="#003F9C"/>
<path d="M203.272 193.782L177.471 166.899L163.976 183.599L152.649 194.81L203.272 193.782Z" fill="#0F52A8"/>
<path d="M214.791 175.242L208.835 185.58L203.272 193.782L177.472 166.899L214.791 175.242Z" fill="#003F9C"/>
<path d="M148.145 104.038V148.38L109.927 170.842C109.348 169.821 109.268 168.512 109.933 167.349L145.137 105.791V105.785C145.815 104.629 146.973 104.038 148.145 104.038Z" fill="#E6F0FE"/>
<path d="M186.362 170.842L148.138 148.38V104.038C149.302 104.038 150.473 104.629 151.146 105.791L186.356 167.349V167.356C187.028 168.518 186.941 169.821 186.362 170.842Z" fill="#C0CDE5"/>
<path d="M186.362 170.842C185.777 171.876 184.685 172.602 183.348 172.602H112.934C111.597 172.602 110.506 171.87 109.92 170.842L148.138 148.379L186.362 170.842Z" fill="#BAC7DD"/>
<path d="M148.145 151.141V161.096L152.384 159.92V151.725L148.145 151.141Z" fill="#4E7DD9"/>
<path d="M148.144 151.141V161.096L143.905 159.92V151.725L148.144 151.141Z" fill="#4E7DD9"/>
<path d="M148.145 151.141L152.384 159.92V151.725L148.145 151.141Z" fill="#4E7DD9"/>
<path d="M148.171 123.82L148.144 148.379L144.085 147.808V124.72L148.171 123.82Z" fill="#6CA4FF"/>
<path d="M148.145 148.379L148.171 123.82L152.251 124.72V147.808L148.145 148.379Z" fill="#4E7DD9"/>
<path d="M148.145 148.379L152.251 134.723V147.808L148.145 148.379Z" fill="#4E7DD9"/>
</svg>
