<svg width="210" height="34" viewBox="0 0 210 34" fill="none" xmlns="http://www.w3.org/2000/svg">
<path d="M40.8008 23.2431V10.9629H42.8271L48.9174 17.2524L48.8331 10.9629H52.1196V23.2431H50.1125L44.0222 16.9536L44.0873 23.2431H40.8008Z" fill="#01052D"/>
<path d="M58.808 20.5389H63.9675V23.2431H55.5215V10.9629H63.8679V13.6671H58.808V15.6934H63.2742V18.3977H58.808V20.5389Z" fill="#01052D"/>
<path d="M74.0678 11.4761C74.7266 11.817 75.2361 12.3073 75.6038 12.9355C75.9677 13.5675 76.1516 14.2953 76.1516 15.1265C76.1516 15.9998 75.9639 16.7697 75.5885 17.4324C75.2131 18.095 74.6807 18.6121 73.995 18.976C73.3094 19.3399 72.5127 19.5238 71.6049 19.5238H70.2259V23.2392H66.9395V10.959H71.7849C72.6467 10.9628 73.409 11.1352 74.0678 11.4761ZM72.4399 16.3982C72.6659 16.1147 72.7808 15.7317 72.7808 15.2452C72.7808 14.7702 72.662 14.3872 72.4246 14.0999C72.1871 13.8126 71.8615 13.6671 71.4555 13.6671H70.2259V16.8195H71.4555C71.8845 16.8195 72.2139 16.6816 72.4399 16.3982Z" fill="#01052D"/>
<path d="M87.5197 10.9629V13.6671H84.3826V23.2431H81.0961V13.6671H77.959V10.9629H87.5197Z" fill="#01052D"/>
<path d="M92.4451 22.8371C91.6599 22.4541 91.0509 21.9178 90.618 21.2283C90.1852 20.5389 89.9707 19.7383 89.9707 18.8305V10.9629H93.238V18.6811C93.238 19.2902 93.4142 19.7805 93.7705 20.152C94.1229 20.5236 94.594 20.7074 95.1801 20.7074C95.7431 20.7074 96.1989 20.5236 96.5475 20.152C96.8961 19.7805 97.0684 19.2902 97.0684 18.6811V10.9629H100.355V18.8305C100.355 19.7383 100.14 20.5389 99.7076 21.2283C99.2748 21.9178 98.6657 22.4579 97.8805 22.8371C97.0952 23.2202 96.1875 23.4117 95.1609 23.4117C94.1382 23.4117 93.2304 23.2202 92.4451 22.8371Z" fill="#01052D"/>
<path d="M103.631 23.2431V10.9629H105.657L111.747 17.2524L111.663 10.9629H114.95V23.2431H112.943L106.852 16.9536L106.917 23.2431H103.631Z" fill="#01052D"/>
<path d="M121.638 20.5389H126.798V23.2431H118.352V10.9629H126.698V13.6671H121.634V15.6934H126.1V18.3977H121.634V20.5389H121.638Z" fill="#01052D"/>
<path d="M147.761 23.2431H144.474L144.141 16.8196L141.736 23.2431H140.027L137.622 16.854L137.288 23.2431H134.002L134.848 10.9629H138.533L140.874 17.8002L143.229 10.9629H146.914L147.761 23.2431Z" fill="#01052D"/>
<path d="M153.139 22.8371C152.353 22.4541 151.744 21.9178 151.311 21.2283C150.879 20.5389 150.664 19.7383 150.664 18.8305V10.9629H153.931V18.6811C153.931 19.2902 154.108 19.7805 154.464 20.152C154.816 20.5236 155.287 20.7074 155.873 20.7074C156.436 20.7074 156.892 20.5236 157.241 20.152C157.589 19.7805 157.762 19.2902 157.762 18.6811V10.9629H161.048V18.8305C161.048 19.7383 160.834 20.5389 160.401 21.2283C159.968 21.9178 159.359 22.4579 158.574 22.8371C157.789 23.2202 156.881 23.4117 155.854 23.4117C154.832 23.4117 153.924 23.2202 153.139 22.8371Z" fill="#01052D"/>
<path d="M173.053 10.9629V13.6671H169.916V23.2431H166.629V13.6671H163.492V10.9629H173.053Z" fill="#01052D"/>
<path d="M177.982 22.8371C177.197 22.4541 176.588 21.9178 176.155 21.2283C175.722 20.5389 175.508 19.7383 175.508 18.8305V10.9629H178.775V18.6811C178.775 19.2902 178.951 19.7805 179.308 20.152C179.66 20.5236 180.131 20.7074 180.717 20.7074C181.28 20.7074 181.736 20.5236 182.085 20.152C182.433 19.7805 182.606 19.2902 182.606 18.6811V10.9629H185.892V18.8305C185.892 19.7383 185.678 20.5389 185.245 21.2283C184.812 21.9178 184.203 22.4579 183.418 22.8371C182.632 23.2202 181.725 23.4117 180.698 23.4117C179.675 23.4117 178.767 23.2202 177.982 22.8371Z" fill="#01052D"/>
<path d="M196.173 23.2431L195.625 21.4658H191.607L191.044 23.2431H187.543L192.09 10.9629H195.127L199.674 23.2431H196.173ZM192.454 18.7616H194.775L193.614 15.0614L192.454 18.7616Z" fill="#01052D"/>
<path d="M205.148 20.5389H209.614V23.2431H201.865V10.9629H205.152V20.5389H205.148Z" fill="#01052D"/>
<path d="M17 34C26.3888 34 34 26.3888 34 17C34 7.61116 26.3888 0 17 0C7.61116 0 0 7.61116 0 17C0 26.3888 7.61116 34 17 34Z" fill="#01052D"/>
<path d="M18.2162 22.7204C17.9213 22.4638 17.3927 22.4102 16.8181 22.4829C16.2435 22.4025 15.6996 22.46 15.4199 22.7204C15.5617 22.7664 16.2895 23.0001 16.8487 23.0001C17.4118 23.0001 18.1051 22.7587 18.2162 22.7204Z" fill="white"/>
<path d="M19.4068 25.6398C19.5945 25.3449 19.7707 25.0691 19.8205 24.7397C19.8894 24.2723 19.7056 23.8548 19.5255 23.5675C19.38 23.3415 19.1578 23.1806 18.905 23.0925H18.9012C18.7594 23.0427 18.6177 22.9891 18.5028 22.9316C18.3113 23.1232 17.7597 23.5867 16.8173 23.5867C15.9401 23.5867 15.3043 23.1806 15.04 22.9738C14.948 23.0121 14.8523 23.0466 14.7527 23.081C14.5994 23.1385 14.4577 23.2228 14.3428 23.3415C14.1436 23.5828 13.772 24.1306 13.864 24.7665C13.9138 25.0959 14.09 25.3717 14.2777 25.6667C14.5573 26.0995 14.8599 26.7469 14.6109 27.444C14.5726 27.5551 14.519 27.6662 14.4501 27.7773C14.5037 27.8654 14.745 28.168 15.0898 28.4706C15.4958 28.8307 16.0627 29.1908 16.6833 29.2367C16.6105 29.1333 16.5224 28.9494 16.6258 28.7962C16.6526 28.7426 16.7063 28.6851 16.7714 28.6124C16.9859 28.3519 17.346 27.9343 17.2195 27.5436L17.1774 27.4019L17.3038 27.4823C17.3153 27.4977 17.6562 27.7428 17.2349 28.6621C17.1161 28.9111 17.1046 29.141 17.1851 29.3325C17.2885 29.5815 17.5222 29.7156 17.6409 29.7692C17.6716 29.5087 17.8478 28.6392 18.5487 28.6315C18.7939 28.6315 19.2268 28.4476 19.4872 28.1603C18.7479 27.264 19.0812 26.1416 19.4068 25.6398Z" fill="white"/>
<path d="M19.2435 20.3998C19.029 20.2083 18.8298 20.0244 18.6728 19.8865C18.6536 19.9976 18.5655 20.1355 18.3203 20.2849C18.2974 20.2964 18.2705 20.3117 18.2476 20.327C17.9947 20.4764 17.604 20.622 16.995 20.7752C16.9413 20.7905 16.7077 20.7982 16.6617 20.7828C16.6349 20.7752 16.6043 20.7713 16.5813 20.7637C16.0067 20.6143 15.6313 20.4687 15.3938 20.327C15.0337 20.1355 14.9533 19.9593 14.9533 19.8252C14.8422 19.9286 14.712 20.0627 14.5549 20.2083C14.1642 20.5836 13.6854 21.0625 13.2372 21.4455C12.36 22.2155 11.8735 24.7475 12.1915 25.9579C12.3102 26.4291 12.5898 26.7891 12.8312 27.0994C13.1261 27.4901 13.3828 27.8272 13.2525 28.2409C13.2066 28.3788 13.2142 28.4976 13.2793 28.6087C13.3904 28.8078 13.6854 28.9687 14.1144 29.0798C13.8961 28.9074 13.4747 28.3635 13.9459 27.3101C14.1029 26.8428 13.9535 26.5708 13.6356 26.0805C13.4211 25.7472 13.1797 25.3718 13.107 24.8777C12.9231 23.6136 14.0723 22.6445 14.1144 22.6023C14.1144 22.6023 14.2523 22.4261 14.3634 22.4108C14.7618 22.361 15.3938 21.7328 15.9569 21.9397C16.3016 22.0737 16.6119 22.1044 16.7958 22.112V22.1044C16.7958 22.1044 16.8188 22.112 16.8532 22.112C16.8839 22.112 16.9222 22.112 16.9643 22.1044C17.1137 22.0967 17.3627 22.0661 17.6883 21.9397C18.2399 21.7328 18.9754 22.384 19.3737 22.4338C19.4657 22.4453 19.5308 22.4989 19.5768 22.5755C19.5844 22.5832 19.5959 22.5947 19.6151 22.6177C19.8258 22.8054 20.7451 23.7094 20.5804 24.8509C20.5076 25.345 20.2663 25.7204 20.0518 26.0537C19.776 26.4789 19.7606 26.8658 19.8679 27.3292C19.8947 27.4135 19.9177 27.5016 19.9368 27.5936C19.9407 27.6012 19.9407 27.6089 19.9445 27.6165C20.0479 28.0685 20.0479 28.5857 19.6112 29.0032C19.5883 29.03 19.5653 29.053 19.5423 29.0722C19.8028 29.0147 20.205 28.8615 20.3467 28.6087C20.4118 28.4976 20.4271 28.3788 20.3774 28.2409C20.2433 27.8272 20.4999 27.4901 20.7949 27.0994C21.04 26.7891 21.3197 26.4291 21.4384 25.9579C21.7525 24.7475 21.266 22.2155 20.3927 21.4455C20.0211 21.1314 19.6112 20.7407 19.2435 20.3998Z" fill="white"/>
<path d="M23.4101 20.9623C23.4101 20.9011 23.4216 20.8359 23.4369 20.7708C23.4408 20.7632 23.4408 20.7517 23.4446 20.744C23.4982 20.5065 23.525 20.2728 23.5327 20.0468C23.5442 19.5872 23.4676 19.1658 23.3756 18.8134C23.2224 18.2733 23.0194 17.8979 22.9849 17.8328C22.9811 17.8251 22.9773 17.8213 22.9773 17.8213C22.8547 18.0166 22.4908 18.6257 22.169 19.3688C21.9775 19.8055 21.8051 20.2882 21.7093 20.7555C21.6596 20.9968 21.6289 21.2343 21.6289 21.4603C21.6289 22.0962 21.8434 22.575 22.0541 23.0462C22.3414 23.6935 22.6363 24.3639 22.3874 25.4249C22.9313 24.7929 23.2684 23.9502 22.8394 22.9274C22.8394 22.9274 23.276 23.0002 23.3603 23.5556C23.5212 23.4139 23.9196 23.0079 23.9196 22.4103C23.9196 21.9928 23.7778 21.7859 23.6399 21.5791C23.5212 21.4029 23.4101 21.242 23.4101 20.9623Z" fill="white"/>
<path d="M10.5244 16.5842C10.5971 16.565 10.6623 16.5267 10.7312 16.4961C10.7465 16.4808 10.7657 16.4769 10.781 16.4693V16.4616C10.804 16.4539 10.8193 16.4386 10.8423 16.4233C11.8344 15.707 11.9876 13.129 13.0142 12.474C13.2364 12.2786 13.6578 12.0641 14.3549 11.8496C14.8491 11.7002 15.2666 11.3631 15.5002 10.9111C13.7995 11.0567 12.2366 11.4627 10.9764 12.045C10.8576 12.225 10.5856 12.6157 10.4439 12.7996C9.9651 13.447 9.41733 14.1748 9.27943 15.0251C9.36753 15.0098 9.5514 14.9562 9.85401 14.7379L9.97276 14.6536L9.93445 14.7953C9.82337 15.163 9.7276 15.5155 9.5897 15.7606C9.22197 16.431 9.22963 17.3541 9.32539 18.0934C9.37902 18.4995 9.45946 18.8519 9.52075 19.0817C9.52841 19.0166 9.54373 18.9361 9.55906 18.8557C9.55906 18.8557 9.55906 18.8557 9.55906 18.848C9.56672 18.6872 9.58204 18.5033 9.60885 18.3041C9.70462 17.6069 9.94594 16.7872 10.5244 16.5842Z" fill="white"/>
<path d="M11.9427 10.4974C13.4557 9.99178 15.2254 9.70449 17.1331 9.70449C18.987 9.70449 20.707 9.97646 22.1856 10.4553C22.2162 10.4055 22.243 10.3557 22.2698 10.3097C22.4116 10.0569 22.5495 9.81558 22.6835 9.57042L24.3728 6.63239L21.2011 7.43297L21.7757 7.74325C22.086 7.91179 22.2277 8.26803 22.1089 8.57065C21.9749 8.89241 21.6071 9.05713 21.2777 8.93072C20.4082 8.57831 19.4774 8.34081 18.5044 8.20674C18.1979 8.16461 17.9681 7.89264 17.9681 7.5747C17.9681 7.18399 18.286 6.86605 18.6768 6.86605H19.1326L17.0526 4.28809L14.9688 6.86605H15.4246C15.8153 6.86605 16.1333 7.18399 16.1333 7.5747C16.1333 7.89264 15.9034 8.16461 15.597 8.20674C14.5628 8.34081 13.5553 8.61278 12.6053 9.02648H12.5517C12.207 8.92306 11.9771 8.68556 11.9465 8.39827C11.9273 8.13396 12.0499 7.88498 12.2874 7.76623L12.9003 7.43297L9.73242 6.63239L11.4102 9.56276C11.5864 9.8807 11.7664 10.1833 11.9427 10.4974Z" fill="white"/>
<path d="M23.6967 14.7951L23.6622 14.6534L23.7771 14.7376C24.118 14.979 24.4053 15.0517 24.5279 15.0824C24.39 14.2703 23.8077 13.5502 23.2906 12.9105C23.1374 12.7189 22.9574 12.3359 22.8041 12.0333C21.5094 11.4395 19.8929 11.0297 18.1309 10.8994C18.2879 11.2097 18.4794 11.4932 18.7476 11.6923C18.7514 11.6923 18.7591 11.7 18.7591 11.7C18.9238 11.7804 19.0923 11.8417 19.2685 11.8685C19.3643 11.8839 19.4754 11.8992 19.6018 11.8992C19.6593 11.8992 19.7167 11.9069 19.778 11.9145C20.0423 11.9566 20.2645 12.0984 20.456 12.3052C20.4905 12.3397 20.5364 12.378 20.5748 12.424C20.5786 12.4316 20.5939 12.4431 20.6016 12.4585C21.4788 13.4697 21.789 15.7068 22.7926 16.4231C22.8118 16.4384 22.8271 16.4537 22.8501 16.4614C22.8654 16.4767 22.8884 16.4805 22.8999 16.4882C22.9688 16.5265 23.034 16.5648 23.1067 16.584C23.7158 16.7985 23.9533 17.6948 24.0376 18.4111C24.0529 18.5682 24.0644 18.7176 24.072 18.8478C24.072 18.8555 24.072 18.8555 24.072 18.8555C24.0874 18.9359 24.1027 19.0164 24.1104 19.0815C24.1602 18.8823 24.2291 18.5873 24.2827 18.2388C24.3976 17.4765 24.4398 16.4767 24.0414 15.7604C23.9112 15.5306 23.8231 15.2279 23.6967 14.7951Z" fill="white"/>
<path d="M11.4057 19.2769C11.0992 18.5759 10.7545 18.0052 10.6396 17.8213C10.6396 17.8213 10.6358 17.8251 10.6319 17.8328C10.5974 17.8979 10.4136 18.235 10.268 18.7291C10.1684 19.0739 10.0842 19.4952 10.0842 19.9549C10.0842 20.2116 10.111 20.472 10.1723 20.744C10.1761 20.7517 10.1761 20.7632 10.1799 20.7708C10.1952 20.8359 10.2067 20.9011 10.2067 20.9623C10.2067 21.242 10.0956 21.4029 9.9769 21.5791C9.839 21.7859 9.69727 21.9928 9.69727 22.4103C9.69727 23.0079 10.0956 23.4139 10.2565 23.5556C10.3408 23.0002 10.7775 22.9274 10.7775 22.9274C10.3485 23.9502 10.6855 24.7929 11.2295 25.4249C10.9805 24.3639 11.2755 23.6935 11.5627 23.0462C11.7734 22.575 11.9879 22.0962 11.9879 21.4603C11.9879 21.2152 11.9535 20.9547 11.896 20.6942C11.7887 20.2116 11.6049 19.7174 11.4057 19.2769Z" fill="white"/>
<path d="M17.5497 15.4387C17.5497 15.4234 17.5497 15.408 17.5574 15.3966C17.5804 15.3391 17.7374 15.2548 17.9673 15.1552C18.7296 14.8335 20.2082 14.3968 20.5414 14.3661C20.6487 14.3623 20.7827 14.4159 20.9206 14.5117V14.5079C20.9245 14.5117 20.9321 14.5155 20.936 14.5194C20.5606 13.6077 20.0817 12.8186 19.2926 12.8186C18.2814 12.8186 17.6493 11.8035 17.2739 10.865H17.2701V10.8612C17.1475 10.8535 17.025 10.8535 16.9024 10.8535C16.8717 10.8535 16.8411 10.8535 16.8105 10.8573C16.6534 10.8535 16.5002 10.8573 16.347 10.865C15.9677 11.8035 15.3395 12.8186 14.3244 12.8186C13.5353 12.8186 13.0565 13.6077 12.6811 14.5194C12.6849 14.5155 12.6926 14.5117 12.6964 14.5079V14.5117C12.8343 14.4159 12.9684 14.3623 13.0757 14.3661C13.4089 14.3968 14.8875 14.8335 15.6498 15.1552C15.8796 15.2548 16.0367 15.3391 16.0597 15.3966C16.0635 15.408 16.0673 15.4234 16.0673 15.4464L16.0712 18.0818C15.8643 17.8749 15.7494 17.2735 15.6881 16.7985C15.6804 16.7909 15.6689 16.787 15.6613 16.7794V16.7756C15.6536 16.7717 15.646 16.7679 15.6421 16.7641C15.5962 16.7372 15.5502 16.7143 15.5042 16.6951C15.4851 16.6913 15.4698 16.6836 15.4544 16.6798C15.4008 16.6645 15.3472 16.653 15.2936 16.6491C15.2897 16.6491 15.2897 16.6491 15.2859 16.6491C15.2859 16.6491 15.2859 16.6491 15.2821 16.6491C15.0178 16.6491 14.65 16.81 14.1099 16.7985C14.0333 16.7985 13.9529 16.7947 13.8686 16.7832C13.5545 16.7449 13.2442 16.6223 12.9837 16.4346L12.6964 16.2393C12.6964 16.2393 13.0527 15.7796 13.8494 15.7873C13.9605 15.7911 14.0831 15.8026 14.2133 15.8256C14.3895 15.8562 14.5504 15.883 14.7075 15.9098C15.0714 15.9711 15.3817 16.0286 15.6077 16.1703C15.6115 16.1742 15.6191 16.1742 15.6268 16.178C15.5694 16.0899 15.5042 16.0094 15.4391 15.9367C15.4085 15.8984 15.374 15.8639 15.3395 15.8294C15.3165 15.8064 15.2974 15.7796 15.2706 15.7566C14.6041 15.1284 13.7154 15.0518 13.0029 15.1284C12.7884 15.1514 12.5853 15.1897 12.4168 15.228C12.0337 16.2891 11.8461 17.2812 11.2945 17.285H11.2906C11.2523 17.285 11.2102 17.285 11.1719 17.3003V17.3042C11.1719 17.3042 11.1795 17.3118 11.1834 17.3157L12.1333 18.8555C12.1678 18.9322 12.1985 19.0088 12.2214 19.0815C12.2789 19.3229 12.3632 19.5259 12.4589 19.7021C12.4934 19.771 12.5317 19.8323 12.5662 19.8898C12.6045 19.9511 12.6428 20.0047 12.6811 20.0545C12.7156 20.1005 12.7501 20.1464 12.7807 20.1847C12.8497 20.2652 12.9071 20.3303 12.9531 20.3801C12.9761 20.3993 13.4281 20.2537 13.6426 20.1349C13.7077 20.1005 13.7767 20.0622 13.8494 20.0277C13.9299 19.9817 14.0141 19.9396 14.1022 19.8975C14.3666 19.7787 14.9718 19.568 14.9756 19.568C15.0254 19.2846 15.1518 18.7828 15.5042 18.7368C15.554 18.733 15.6077 18.733 15.6651 18.7483C15.849 18.7904 15.9256 18.9743 15.9601 19.0815C15.9409 19.0624 15.9218 19.0586 15.8949 19.0586C15.8949 19.0586 15.8911 19.0586 15.8873 19.0586C15.8375 19.0624 15.7609 19.0739 15.623 19.0586C15.6191 19.0586 15.6153 19.0586 15.6153 19.0586C15.6 19.0586 15.5847 19.0547 15.5732 19.0547C15.3165 19.0547 15.3357 19.3535 15.3625 19.5719V19.5757C15.3625 19.5757 15.5119 19.6446 15.7149 19.7366C15.7724 19.7634 15.8337 19.7902 15.8988 19.8208C15.9831 19.8591 16.0673 19.8975 16.1554 19.9358C16.4465 20.0583 16.73 20.1733 16.8105 20.1886C16.8143 20.1886 16.8181 20.1886 16.8181 20.1886C16.9752 20.1962 18.1013 19.6561 18.2392 19.591C18.2507 19.5872 18.2546 19.5833 18.2546 19.5833C18.2546 19.5833 18.2546 19.5795 18.2546 19.5757V19.5719C18.2814 19.3535 18.3005 19.0547 18.0439 19.0547C18.0324 19.0547 18.0171 19.0586 18.0018 19.0586C17.9979 19.0586 17.9979 19.0586 17.9941 19.0586C17.9558 19.0547 17.8217 19.0432 17.7298 19.0586C17.726 19.0586 17.726 19.0586 17.7221 19.0586C17.6953 19.0586 17.6762 19.0624 17.657 19.0815C17.6915 18.9743 17.7681 18.7904 17.952 18.7483C18.0094 18.733 18.063 18.733 18.1128 18.7368C18.4652 18.7828 18.5917 19.2846 18.6415 19.568C18.6453 19.568 19.2505 19.7787 19.5148 19.8975C19.5838 19.9319 19.6527 19.9664 19.7178 20.0009C19.8098 20.0468 19.8979 20.0928 19.9745 20.1349C20.189 20.2537 20.641 20.3993 20.664 20.3801C20.71 20.3303 20.7674 20.2652 20.8364 20.1847C20.867 20.1464 20.9015 20.1005 20.936 20.0545C20.9743 20.0047 21.0126 19.9511 21.0509 19.8898C21.0853 19.8323 21.1237 19.771 21.1581 19.7021C21.1696 19.6829 21.1811 19.66 21.1926 19.637C21.2118 19.5987 21.2309 19.5565 21.2501 19.5106C21.2692 19.4684 21.2884 19.4225 21.3037 19.3765C21.3228 19.3305 21.3382 19.2846 21.3535 19.2348C21.3688 19.185 21.3841 19.1352 21.3956 19.0815C21.4186 19.0088 21.4492 18.9322 21.4837 18.8555L22.4682 17.3348C22.472 17.331 22.4797 17.3233 22.4797 17.3233V17.3195C22.4414 17.3042 22.3992 17.3042 22.3609 17.3042H22.3571C21.8055 17.3003 21.5833 16.2891 21.2003 15.228C21.0317 15.1897 20.8287 15.1514 20.6142 15.1284C19.9017 15.0518 19.013 15.1284 18.3465 15.7566C18.3197 15.7796 18.3005 15.8064 18.2776 15.8294C18.2431 15.8639 18.2086 15.8984 18.178 15.9367C18.1128 16.0094 18.0477 16.0899 17.9903 16.178C17.9979 16.1742 18.0056 16.1742 18.0094 16.1703C18.2354 16.0286 18.5457 15.9711 18.9096 15.9098C19.0666 15.883 19.2275 15.8562 19.4037 15.8256C19.534 15.8026 19.6566 15.7911 19.7676 15.7873C20.5644 15.7796 20.9206 16.2393 20.9206 16.2393L20.6333 16.4346C20.3729 16.6223 20.0626 16.7449 19.7485 16.7832C19.6642 16.7947 19.5838 16.7985 19.5072 16.7985H19.4535C18.9402 16.7985 18.5917 16.6491 18.335 16.6491C18.3312 16.6491 18.3312 16.6491 18.3312 16.6491C18.3273 16.6491 18.3273 16.6491 18.3235 16.6491C18.2699 16.653 18.2163 16.6645 18.1626 16.6798C18.1473 16.6836 18.132 16.6913 18.1128 16.6951C18.0669 16.7143 18.0209 16.7372 17.9749 16.7641C17.9711 16.7679 17.9634 16.7717 17.9558 16.7756V16.7794C17.9481 16.787 17.9366 16.7909 17.929 16.7985C17.8677 17.2735 17.7528 17.8749 17.5459 18.0818L17.5497 15.4464V15.4387Z" fill="white"/>
</svg>
