<svg width="172" height="28" viewBox="0 0 172 28" fill="none" xmlns="http://www.w3.org/2000/svg">
<path d="M27.3994 14.0002C27.3994 21.253 21.3884 27.1508 13.9507 27.1508C6.51291 27.1508 0.501953 21.253 0.501953 14.0002C0.501953 6.74747 6.51291 0.849609 13.9507 0.849609C21.3884 0.849609 27.3994 6.74747 27.3994 14.0002Z" stroke="white"/>
<path d="M14.7934 18.2656C14.5514 18.0596 14.1177 18.0165 13.6462 18.0749C13.1748 18.0103 12.7285 18.0565 12.499 18.2656C12.6153 18.3025 13.2125 18.4902 13.6714 18.4902C14.1334 18.4902 14.7023 18.2964 14.7934 18.2656Z" fill="white"/>
<path d="M15.7712 20.6102C15.9252 20.3733 16.0697 20.1519 16.1106 19.8874C16.1672 19.5121 16.0163 19.1768 15.8686 18.9461C15.7492 18.7647 15.5669 18.6355 15.3594 18.5647H15.3563C15.24 18.5247 15.1237 18.4817 15.0294 18.4355C14.8723 18.5893 14.4197 18.9615 13.6465 18.9615C12.9267 18.9615 12.405 18.6355 12.1881 18.4694C12.1127 18.5001 12.0341 18.5278 11.9524 18.5555C11.8267 18.6016 11.7104 18.6693 11.6161 18.7647C11.4527 18.9584 11.1478 19.3983 11.2232 19.9089C11.2641 20.1734 11.4087 20.3949 11.5627 20.6317C11.7921 20.9793 12.0404 21.4991 11.8361 22.0589C11.8047 22.1481 11.7607 22.2373 11.7041 22.3265C11.7481 22.3972 11.9461 22.6402 12.229 22.8832C12.5621 23.1724 13.0273 23.4615 13.5365 23.4984C13.4768 23.4153 13.4045 23.2677 13.4893 23.1447C13.5113 23.1016 13.5553 23.0555 13.6088 22.997C13.7848 22.7879 14.0802 22.4526 13.9765 22.1389L13.9419 22.0251L14.0457 22.0897C14.0551 22.102 14.3348 22.2988 13.9891 23.037C13.8916 23.237 13.8822 23.4215 13.9482 23.5753C14.0331 23.7752 14.2248 23.8829 14.3222 23.9259C14.3474 23.7168 14.492 23.0186 15.0671 23.0124C15.2683 23.0124 15.6234 22.8648 15.8372 22.6341C15.2306 21.9143 15.504 21.0131 15.7712 20.6102Z" fill="white"/>
<path d="M15.6355 16.4018C15.4595 16.248 15.2961 16.1004 15.1672 15.9896C15.1515 16.0788 15.0792 16.1896 14.878 16.3095C14.8592 16.3188 14.8372 16.3311 14.8183 16.3434C14.6109 16.4633 14.2903 16.5802 13.7906 16.7032C13.7466 16.7155 13.5548 16.7217 13.5171 16.7094C13.4951 16.7032 13.47 16.7002 13.4511 16.694C12.9797 16.5741 12.6716 16.4572 12.4768 16.3434C12.1813 16.1896 12.1153 16.0481 12.1153 15.9404C12.0242 16.0235 11.9173 16.1311 11.7885 16.248C11.4679 16.5494 11.075 16.9339 10.7073 17.2415C9.9875 17.8598 9.58835 19.8929 9.84922 20.8649C9.94665 21.2432 10.1761 21.5323 10.3741 21.7815C10.6161 22.0952 10.8267 22.3659 10.7198 22.6981C10.6821 22.8088 10.6884 22.9041 10.7418 22.9933C10.833 23.1533 11.075 23.2825 11.427 23.3717C11.2479 23.2333 10.9021 22.7965 11.2887 21.9506C11.4176 21.5754 11.295 21.357 11.0341 20.9633C10.8581 20.6957 10.6601 20.3943 10.6004 19.9975C10.4495 18.9824 11.3924 18.2043 11.427 18.1704C11.427 18.1704 11.5402 18.0289 11.6313 18.0166C11.9582 17.9766 12.4768 17.4722 12.9388 17.6383C13.2217 17.7459 13.4763 17.7705 13.6271 17.7767V17.7706C13.6271 17.7706 13.646 17.7767 13.6743 17.7767C13.6994 17.7767 13.7309 17.7767 13.7654 17.7706C13.888 17.7644 14.0923 17.7398 14.3595 17.6383C14.8121 17.4722 15.4155 17.9951 15.7424 18.0351C15.8178 18.0443 15.8713 18.0874 15.909 18.1489C15.9153 18.155 15.9247 18.1643 15.9404 18.1827C16.1133 18.3334 16.8676 19.0593 16.7324 19.9759C16.6727 20.3727 16.4747 20.6742 16.2987 20.9418C16.0724 21.2832 16.0598 21.5938 16.1478 21.966C16.1698 22.0337 16.1887 22.1044 16.2044 22.1782C16.2076 22.1844 16.2075 22.1905 16.2107 22.1967C16.2955 22.5596 16.2955 22.9749 15.9372 23.3101C15.9184 23.3317 15.8995 23.3501 15.8807 23.3655C16.0944 23.3194 16.4244 23.1964 16.5407 22.9933C16.5941 22.9041 16.6067 22.8088 16.5658 22.6981C16.4558 22.3659 16.6664 22.0952 16.9084 21.7815C17.1096 21.5323 17.339 21.2432 17.4365 20.8649C17.6942 19.8929 17.295 17.8598 16.5784 17.2415C16.2736 16.9893 15.9373 16.6756 15.6355 16.4018Z" fill="white"/>
<path d="M19.0528 16.8533C19.0528 16.804 19.0622 16.7518 19.0748 16.6995C19.0779 16.6933 19.078 16.6841 19.0811 16.6779C19.1251 16.4872 19.1471 16.2996 19.1534 16.1181C19.1628 15.749 19.1 15.4107 19.0245 15.1277C18.8988 14.694 18.7322 14.3926 18.7039 14.3403C18.7008 14.3341 18.6977 14.3311 18.6977 14.3311C18.5971 14.4879 18.2985 14.977 18.0345 15.5737C17.8773 15.9244 17.7359 16.3119 17.6573 16.6872C17.6165 16.8809 17.5913 17.0716 17.5913 17.2531C17.5913 17.7637 17.7673 18.1482 17.9402 18.5265C18.1759 19.0463 18.4179 19.5846 18.2136 20.4366C18.6599 19.9291 18.9365 19.2524 18.5845 18.4312C18.5845 18.4312 18.9428 18.4896 19.012 18.9356C19.144 18.8218 19.4708 18.4958 19.4708 18.0159C19.4708 17.6807 19.3545 17.5146 19.2414 17.3485C19.144 17.207 19.0528 17.0778 19.0528 16.8533Z" fill="white"/>
<path d="M8.48174 13.3385C8.54146 13.3232 8.59489 13.2924 8.65147 13.2678C8.66404 13.2555 8.67975 13.2524 8.69233 13.2463V13.2401C8.71119 13.234 8.72376 13.2217 8.74262 13.2094C9.55666 12.6342 9.68238 10.5641 10.5247 10.0382C10.707 9.88129 11.0527 9.70904 11.6248 9.53679C12.0302 9.41683 12.3728 9.14615 12.5645 8.7832C11.169 8.90009 9.88668 9.22613 8.85262 9.69366C8.75519 9.83823 8.53203 10.152 8.41574 10.2996C8.02286 10.8194 7.57341 11.4038 7.46026 12.0867C7.53255 12.0744 7.68341 12.0313 7.93171 11.856L8.02915 11.7883L7.99772 11.9021C7.90657 12.1974 7.828 12.4804 7.71485 12.6772C7.41312 13.2155 7.41941 13.9568 7.49798 14.5504C7.54199 14.8765 7.60798 15.1594 7.65827 15.344C7.66456 15.2917 7.67713 15.2271 7.6897 15.1625C7.6897 15.1625 7.6897 15.1625 7.6897 15.1564C7.69599 15.0272 7.70856 14.8795 7.73056 14.7196C7.80914 14.1598 8.00714 13.5016 8.48174 13.3385Z" fill="white"/>
<path d="M9.45756 8.45078C10.6991 8.04477 12.1511 7.8141 13.7163 7.8141C15.2376 7.8141 16.6488 8.03247 17.862 8.41695C17.8871 8.37697 17.9091 8.33698 17.9311 8.30007C18.0474 8.09706 18.1606 7.90329 18.2706 7.70643L19.6567 5.34726L17.0542 5.9901L17.5257 6.23925C17.7803 6.37458 17.8966 6.66065 17.7991 6.90364C17.6891 7.16201 17.3874 7.29427 17.1171 7.19277C16.4036 6.90979 15.6399 6.71908 14.8416 6.61143C14.5901 6.5776 14.4015 6.3592 14.4015 6.10391C14.4015 5.79017 14.6624 5.53488 14.983 5.53488H15.357L13.6504 3.46484L11.9406 5.53488H12.3146C12.6352 5.53488 12.896 5.79017 12.896 6.10391C12.896 6.3592 12.7074 6.5776 12.456 6.61143C11.6074 6.71908 10.7808 6.93747 10.0013 7.26967H9.95731C9.67444 7.18662 9.48585 6.99591 9.46071 6.76522C9.44499 6.55299 9.54557 6.35305 9.74044 6.2577L10.2433 5.9901L7.64404 5.34726L9.02069 7.70027C9.16527 7.95557 9.31298 8.19856 9.45756 8.45078Z" fill="white"/>
<path d="M19.2909 11.9016L19.2626 11.7878L19.3569 11.8554C19.6367 12.0492 19.8724 12.1077 19.973 12.1323C19.8598 11.4802 19.3821 10.9019 18.9578 10.3883C18.832 10.2345 18.6843 9.92687 18.5586 9.68388C17.4963 9.20712 16.1699 8.87802 14.7241 8.77344C14.853 9.02258 15.0101 9.25018 15.2301 9.41012C15.2333 9.41012 15.2396 9.41628 15.2396 9.41628C15.3747 9.48087 15.513 9.53009 15.6576 9.55162C15.7362 9.56392 15.8273 9.57623 15.931 9.57623C15.9782 9.57623 16.0253 9.58237 16.0756 9.58853C16.2925 9.62236 16.4748 9.73617 16.6319 9.90227C16.6602 9.92995 16.6979 9.96071 16.7294 9.99762C16.7325 10.0038 16.7451 10.013 16.7514 10.0253C17.4711 10.8373 17.7257 12.6336 18.5492 13.2088C18.5649 13.2211 18.5775 13.2334 18.5963 13.2396C18.6089 13.2519 18.6278 13.2549 18.6372 13.2611C18.6938 13.2918 18.7472 13.3226 18.8069 13.338C19.3066 13.5102 19.5015 14.23 19.5707 14.8052C19.5832 14.9313 19.5927 15.0512 19.5989 15.1558C19.5989 15.162 19.5989 15.162 19.5989 15.162C19.6115 15.2266 19.6241 15.2912 19.6304 15.3434C19.6712 15.1835 19.7278 14.9467 19.7718 14.6668C19.8661 14.0547 19.9007 13.2519 19.5738 12.6767C19.4669 12.4921 19.3946 12.2491 19.2909 11.9016Z" fill="white"/>
<path d="M9.20452 15.4999C8.95308 14.937 8.67021 14.4787 8.57591 14.3311C8.57591 14.3311 8.57277 14.3341 8.56962 14.3403C8.54134 14.3926 8.39048 14.6633 8.27104 15.06C8.18932 15.3369 8.12017 15.6752 8.12017 16.0443C8.12017 16.2504 8.14218 16.4595 8.19247 16.6779C8.19561 16.6841 8.19561 16.6933 8.19875 16.6995C8.21132 16.7518 8.22075 16.804 8.22075 16.8533C8.22075 17.0778 8.1296 17.207 8.03217 17.3485C7.91902 17.5146 7.80273 17.6807 7.80273 18.0159C7.80273 18.4958 8.12961 18.8218 8.26161 18.9356C8.33076 18.4896 8.68906 18.4312 8.68906 18.4312C8.33704 19.2524 8.61363 19.9291 9.05994 20.4366C8.85565 19.5846 9.09765 19.0463 9.33337 18.5265C9.50624 18.1482 9.68226 17.7637 9.68226 17.2531C9.68226 17.0563 9.65396 16.8471 9.60681 16.6379C9.51881 16.2504 9.36796 15.8536 9.20452 15.4999Z" fill="white"/>
<path d="M14.2448 12.4181C14.2448 12.4058 14.2449 12.3935 14.2511 12.3843C14.27 12.3381 14.3989 12.2705 14.5874 12.1905C15.2129 11.9321 16.4261 11.5815 16.6995 11.5569C16.7875 11.5538 16.8975 11.5969 17.0107 11.6738V11.6707C17.0138 11.6738 17.0201 11.6768 17.0233 11.6799C16.7153 10.9478 16.3224 10.3142 15.6749 10.3142C14.8452 10.3142 14.3266 9.49913 14.0186 8.74555H14.0154V8.74247C13.9148 8.73632 13.8142 8.73633 13.7137 8.73633C13.6885 8.73633 13.6634 8.73631 13.6382 8.73939C13.5094 8.73631 13.3837 8.73939 13.258 8.74555C12.9468 9.49913 12.4313 10.3142 11.5984 10.3142C10.951 10.3142 10.5581 10.9478 10.2501 11.6799C10.2532 11.6768 10.2595 11.6738 10.2626 11.6707V11.6738C10.3758 11.5969 10.4858 11.5538 10.5738 11.5569C10.8472 11.5815 12.0605 11.9321 12.6859 12.1905C12.8745 12.2705 13.0034 12.3381 13.0222 12.3843C13.0254 12.3935 13.0285 12.4058 13.0285 12.4243L13.0316 14.5404C12.8619 14.3744 12.7676 13.8914 12.7173 13.51C12.7111 13.5039 12.7016 13.5008 12.6953 13.4947V13.4916C12.6891 13.4885 12.6828 13.4854 12.6796 13.4824C12.6419 13.4608 12.6042 13.4424 12.5665 13.427C12.5508 13.4239 12.5382 13.4178 12.5256 13.4147C12.4816 13.4024 12.4376 13.3931 12.3936 13.3901C12.3905 13.3901 12.3905 13.3901 12.3873 13.3901C12.3873 13.3901 12.3873 13.3901 12.3842 13.3901C12.1673 13.3901 11.8656 13.5193 11.4224 13.51C11.3596 13.51 11.2936 13.507 11.2244 13.4977C10.9667 13.467 10.7121 13.3685 10.4984 13.2178L10.2626 13.061C10.2626 13.061 10.5549 12.6918 11.2087 12.698C11.2998 12.7011 11.4004 12.7103 11.5073 12.7288C11.6519 12.7534 11.7839 12.7749 11.9127 12.7964C12.2113 12.8456 12.4659 12.8918 12.6513 13.0056C12.6545 13.0087 12.6608 13.0087 12.6671 13.0117C12.6199 12.941 12.5665 12.8764 12.513 12.818C12.4879 12.7872 12.4596 12.7595 12.4313 12.7318C12.4125 12.7134 12.3967 12.6919 12.3747 12.6734C11.8279 12.169 11.0987 12.1074 10.5141 12.169C10.3381 12.1874 10.1715 12.2182 10.0332 12.2489C9.71891 13.1009 9.56489 13.8976 9.1123 13.9007H9.10915C9.07772 13.9007 9.04315 13.9007 9.01172 13.913V13.916C9.01172 13.916 9.018 13.9222 9.02115 13.9253L9.80063 15.1618C9.82892 15.2233 9.85405 15.2848 9.87291 15.3432C9.92006 15.537 9.9892 15.7 10.0678 15.8415C10.0961 15.8969 10.1275 15.9461 10.1558 15.9922C10.1872 16.0415 10.2186 16.0845 10.2501 16.1245C10.2784 16.1614 10.3066 16.1983 10.3318 16.2291C10.3884 16.2937 10.4355 16.346 10.4732 16.386C10.4921 16.4013 10.863 16.2845 11.039 16.1891C11.0924 16.1614 11.149 16.1306 11.2087 16.103C11.2747 16.0661 11.3438 16.0322 11.4161 15.9984C11.633 15.903 12.1296 15.7339 12.1327 15.7339C12.1736 15.5063 12.2773 15.1033 12.5665 15.0664C12.6073 15.0633 12.6513 15.0633 12.6985 15.0756C12.8493 15.1095 12.9122 15.2571 12.9405 15.3432C12.9248 15.3279 12.9091 15.3248 12.8871 15.3248C12.8871 15.3248 12.8839 15.3248 12.8808 15.3248C12.8399 15.3279 12.7771 15.3371 12.6639 15.3248C12.6608 15.3248 12.6576 15.3248 12.6576 15.3248C12.6451 15.3248 12.6325 15.3217 12.6231 15.3217C12.4125 15.3217 12.4282 15.5616 12.4502 15.7369V15.74C12.4502 15.74 12.5728 15.7954 12.7393 15.8692C12.7865 15.8907 12.8368 15.9123 12.8902 15.9369C12.9593 15.9676 13.0285 15.9984 13.1008 16.0291C13.3397 16.1276 13.5722 16.2199 13.6382 16.2322C13.6414 16.2322 13.6445 16.2322 13.6445 16.2322C13.7734 16.2383 14.6974 15.8046 14.8106 15.7523C14.82 15.7493 14.8232 15.7462 14.8232 15.7462C14.8232 15.7462 14.8232 15.7431 14.8232 15.74V15.7369C14.8452 15.5616 14.8609 15.3217 14.6503 15.3217C14.6409 15.3217 14.6283 15.3248 14.6157 15.3248C14.6126 15.3248 14.6126 15.3248 14.6094 15.3248C14.578 15.3217 14.468 15.3125 14.3926 15.3248C14.3894 15.3248 14.3894 15.3248 14.3863 15.3248C14.3643 15.3248 14.3486 15.3279 14.3329 15.3432C14.3611 15.2571 14.424 15.1095 14.5749 15.0756C14.622 15.0633 14.666 15.0633 14.7069 15.0664C14.996 15.1033 15.0998 15.5063 15.1406 15.7339C15.1438 15.7339 15.6403 15.903 15.8572 15.9984C15.9138 16.0261 15.9704 16.0538 16.0238 16.0814C16.0992 16.1183 16.1715 16.1553 16.2344 16.1891C16.4104 16.2845 16.7813 16.4013 16.8001 16.386C16.8378 16.346 16.885 16.2937 16.9416 16.2291C16.9667 16.1983 16.995 16.1614 17.0233 16.1245C17.0547 16.0845 17.0861 16.0415 17.1176 15.9922C17.1459 15.9461 17.1773 15.8969 17.2056 15.8415C17.215 15.8261 17.2244 15.8077 17.2339 15.7892C17.2496 15.7585 17.2653 15.7246 17.281 15.6877C17.2967 15.6539 17.3124 15.617 17.325 15.5801C17.3407 15.5432 17.3533 15.5062 17.3659 15.4663C17.3784 15.4263 17.391 15.3863 17.4004 15.3432C17.4193 15.2848 17.4444 15.2233 17.4727 15.1618L18.2805 13.9407C18.2836 13.9376 18.2899 13.9314 18.2899 13.9314V13.9283C18.2585 13.916 18.2239 13.916 18.1925 13.916H18.1893C17.7367 13.913 17.5545 13.1009 17.2402 12.2489C17.1019 12.2182 16.9353 12.1874 16.7593 12.169C16.1747 12.1074 15.4455 12.169 14.8986 12.6734C14.8766 12.6919 14.8609 12.7134 14.842 12.7318C14.8137 12.7595 14.7854 12.7872 14.7603 12.818C14.7069 12.8764 14.6534 12.941 14.6063 13.0117C14.6126 13.0087 14.6189 13.0087 14.622 13.0056C14.8074 12.8918 15.062 12.8456 15.3606 12.7964C15.4895 12.7749 15.6215 12.7534 15.7661 12.7288C15.8729 12.7103 15.9735 12.7011 16.0647 12.698C16.7184 12.6918 17.0107 13.061 17.0107 13.061L16.775 13.2178C16.5612 13.3685 16.3067 13.467 16.0489 13.4977C15.9798 13.507 15.9138 13.51 15.8509 13.51H15.8069C15.3858 13.51 15.0997 13.3901 14.8892 13.3901C14.886 13.3901 14.886 13.3901 14.886 13.3901C14.8829 13.3901 14.8829 13.3901 14.8797 13.3901C14.8357 13.3931 14.7917 13.4024 14.7477 13.4147C14.7352 13.4178 14.7226 13.4239 14.7069 13.427C14.6692 13.4424 14.6315 13.4608 14.5937 13.4824C14.5906 13.4854 14.5843 13.4885 14.578 13.4916V13.4947C14.5717 13.5008 14.5623 13.5039 14.556 13.51C14.5057 13.8914 14.4114 14.3744 14.2417 14.5404L14.2448 12.4243V12.4181Z" fill="white"/>
<path d="M33.4834 18.867V9.00586H35.1461L40.1435 14.0564L40.0743 9.00586H42.771V18.867H41.1241L36.1267 13.8165L36.1801 18.867H33.4834Z" fill="white"/>
<path d="M48.2592 16.6955H52.4929V18.867H45.5625V9.00586H52.4112V11.1774H48.2561V12.8045H51.9208V14.9761H48.2561V16.6955H48.2592Z" fill="white"/>
<path d="M60.7818 9.41801C61.3224 9.69176 61.7404 10.0855 62.0421 10.5899C62.3407 11.0974 62.4916 11.6818 62.4916 12.3493C62.4916 13.0506 62.3376 13.6688 62.0296 14.201C61.7215 14.7331 61.2847 15.1483 60.7221 15.4405C60.1595 15.7327 59.5057 15.8804 58.7608 15.8804H57.6293V18.8639H54.9326V9.00586H58.9085C59.6189 9.00586 60.2412 9.14119 60.7818 9.41801ZM59.4491 13.3705C59.6346 13.1429 59.7289 12.8353 59.7289 12.4447C59.7289 12.0632 59.6314 11.7557 59.4366 11.525C59.2417 11.2943 58.9746 11.1774 58.6414 11.1774H57.6325V13.7088H58.6414C58.9903 13.7088 59.2606 13.595 59.4491 13.3705Z" fill="white"/>
<path d="M71.8181 9.00586V11.1774H69.244V18.867H66.5473V11.1774H63.9731V9.00586H71.8181Z" fill="white"/>
<path d="M75.8605 18.541C75.2162 18.2334 74.7164 17.8028 74.3612 17.2491C74.0061 16.6955 73.8301 16.0526 73.8301 15.3236V9.00586H76.5111V15.2037C76.5111 15.6927 76.6557 16.0865 76.948 16.3848C77.2371 16.6832 77.6237 16.8308 78.1046 16.8308C78.5666 16.8308 78.9406 16.6832 79.2267 16.3848C79.5127 16.0865 79.6541 15.6927 79.6541 15.2037V9.00586H82.3508V15.3236C82.3508 16.0526 82.1748 16.6955 81.8196 17.2491C81.4645 17.8028 80.9647 18.2365 80.3204 18.541C79.6761 18.8486 78.9312 19.0024 78.0889 19.0024C77.2497 18.9993 76.5048 18.8455 75.8605 18.541Z" fill="white"/>
<path d="M85.041 18.867V9.00586H86.7037L91.7011 14.0564L91.6319 9.00586H94.3286V18.867H92.6817L87.6843 13.8165L87.7377 18.867H85.041Z" fill="white"/>
<path d="M99.8139 16.6955H104.048V18.867H97.1172V9.00586H103.966V11.1774H99.8139V12.8045H103.479V14.9761H99.8139V16.6955Z" fill="white"/>
<path d="M121.25 18.867H118.553L118.28 13.7088L116.306 18.867H114.904L112.93 13.7365L112.657 18.867H109.96L110.655 9.00586H113.678L115.599 14.4962L117.532 9.00586H120.555L121.25 18.867Z" fill="white"/>
<path d="M125.66 18.541C125.015 18.2334 124.516 17.8028 124.161 17.2491C123.805 16.6955 123.629 16.0526 123.629 15.3236V9.00586H126.31V15.2037C126.31 15.6927 126.455 16.0865 126.747 16.3848C127.036 16.6832 127.423 16.8308 127.904 16.8308C128.366 16.8308 128.74 16.6832 129.026 16.3848C129.312 16.0865 129.453 15.6927 129.453 15.2037V9.00586H132.15V15.3236C132.15 16.0526 131.974 16.6955 131.619 17.2491C131.264 17.8028 130.764 18.2365 130.12 18.541C129.475 18.8486 128.731 19.0024 127.888 19.0024C127.049 18.9993 126.304 18.8455 125.66 18.541Z" fill="white"/>
<path d="M142.003 9.00586V11.1774H139.429V18.867H136.732V11.1774H134.158V9.00586H142.003Z" fill="white"/>
<path d="M146.047 18.541C145.402 18.2334 144.902 17.8028 144.547 17.2491C144.192 16.6955 144.016 16.0526 144.016 15.3236V9.00586H146.697V15.2037C146.697 15.6927 146.842 16.0865 147.134 16.3848C147.423 16.6832 147.81 16.8308 148.291 16.8308C148.753 16.8308 149.127 16.6832 149.413 16.3848C149.699 16.0865 149.84 15.6927 149.84 15.2037V9.00586H152.537V15.3236C152.537 16.0526 152.361 16.6955 152.006 17.2491C151.651 17.8028 151.151 18.2365 150.506 18.541C149.862 18.8486 149.117 19.0024 148.275 19.0024C147.436 18.9993 146.691 18.8455 146.047 18.541Z" fill="white"/>
<path d="M160.975 18.867L160.526 17.4398H157.229L156.767 18.867H153.894L157.625 9.00586H160.117L163.848 18.867H160.975ZM157.923 15.2683H159.828L158.876 12.297L157.923 15.2683Z" fill="white"/>
<path d="M168.336 16.6955H172.001V18.867H165.643V9.00586H168.339V16.6955H168.336Z" fill="white"/>
</svg>
