<svg width="241" height="40" viewBox="0 0 241 40" fill="none" xmlns="http://www.w3.org/2000/svg">
<path d="M46.9111 26.6254V12.4805H49.2408L56.243 19.725L56.1461 12.4805H59.9247V26.6254H57.617L50.6148 19.3808L50.6897 26.6254H46.9111Z" fill="#01052D"/>
<path d="M67.6145 23.5105H73.5466V26.6254H63.8359V12.4805H73.4321V15.5953H67.6101V17.9293H72.745V21.0442H67.6101V23.5105H67.6145Z" fill="#01052D"/>
<path d="M85.1586 13.0717C85.916 13.4643 86.5018 14.0291 86.9245 14.7527C87.3429 15.4806 87.5543 16.3189 87.5543 17.2763C87.5543 18.2823 87.3385 19.1691 86.9069 19.9324C86.4753 20.6956 85.8632 21.2912 85.0749 21.7104C84.2866 22.1295 83.3706 22.3413 82.3269 22.3413H80.7414V26.621H76.9629V12.4805H82.5338C83.5247 12.4805 84.4011 12.679 85.1586 13.0717ZM83.2869 18.7411C83.5467 18.4146 83.6788 17.9734 83.6788 17.4131C83.6788 16.866 83.5423 16.4248 83.2693 16.0939C82.9962 15.763 82.6219 15.5953 82.1551 15.5953H80.7414V19.2264H82.1551C82.6483 19.2264 83.0271 19.0632 83.2869 18.7411Z" fill="#01052D"/>
<path d="M100.621 12.4805V15.5953H97.0143V26.6254H93.2357V15.5953H89.6289V12.4805H100.621Z" fill="#01052D"/>
<path d="M106.289 26.1577C105.386 25.7165 104.686 25.0988 104.189 24.3046C103.691 23.5105 103.444 22.5884 103.444 21.5427V12.4805H107.201V21.3707C107.201 22.0722 107.403 22.6369 107.813 23.0649C108.218 23.4928 108.76 23.7046 109.434 23.7046C110.081 23.7046 110.605 23.4928 111.006 23.0649C111.407 22.6369 111.605 22.0722 111.605 21.3707V12.4805H115.383V21.5427C115.383 22.5884 115.137 23.5105 114.639 24.3046C114.141 25.0988 113.441 25.7209 112.538 26.1577C111.636 26.5989 110.592 26.8195 109.412 26.8195C108.236 26.8151 107.192 26.5945 106.289 26.1577Z" fill="#01052D"/>
<path d="M119.147 26.6254V12.4805H121.477L128.479 19.725L128.382 12.4805H132.161V26.6254H129.853L122.851 19.3808L122.926 26.6254H119.147Z" fill="#01052D"/>
<path d="M139.851 23.5105H145.783V26.6254H136.072V12.4805H145.668V15.5953H139.846V17.9293H144.981V21.0442H139.846V23.5105H139.851Z" fill="#01052D"/>
<path d="M169.886 26.6254H166.108L165.725 19.2264L162.959 26.6254H160.995L158.229 19.2661L157.846 26.6254H154.067L155.041 12.4805H159.277L161.968 20.3559L164.676 12.4805H168.913L169.886 26.6254Z" fill="#01052D"/>
<path d="M176.069 26.1577C175.166 25.7165 174.466 25.0988 173.968 24.3046C173.47 23.5105 173.224 22.5884 173.224 21.5427V12.4805H176.98V21.3707C176.98 22.0722 177.183 22.6369 177.592 23.0649C177.997 23.4928 178.539 23.7046 179.213 23.7046C179.86 23.7046 180.384 23.4928 180.785 23.0649C181.186 22.6369 181.384 22.0722 181.384 21.3707V12.4805H185.163V21.5427C185.163 22.5884 184.916 23.5105 184.418 24.3046C183.921 25.0988 183.22 25.7209 182.318 26.1577C181.415 26.5945 180.371 26.8195 179.191 26.8195C178.011 26.8151 176.971 26.5945 176.069 26.1577Z" fill="#01052D"/>
<path d="M198.964 12.4805V15.5953H195.357V26.6254H191.578V15.5953H187.972V12.4805H198.964Z" fill="#01052D"/>
<path d="M204.633 26.1577C203.73 25.7165 203.03 25.0988 202.532 24.3046C202.035 23.5105 201.788 22.5884 201.788 21.5427V12.4805H205.545V21.3707C205.545 22.0722 205.747 22.6369 206.157 23.0649C206.562 23.4928 207.104 23.7046 207.777 23.7046C208.425 23.7046 208.949 23.4928 209.35 23.0649C209.75 22.6369 209.949 22.0722 209.949 21.3707V12.4805H213.727V21.5427C213.727 22.5884 213.48 23.5105 212.983 24.3046C212.485 25.0988 211.785 25.7209 210.882 26.1577C209.979 26.5989 208.936 26.8195 207.755 26.8195C206.575 26.8151 205.536 26.5945 204.633 26.1577Z" fill="#01052D"/>
<path d="M225.542 26.6254L224.912 24.5782H220.293L219.645 26.6254H215.62L220.848 12.4805H224.34L229.567 26.6254H225.542ZM221.27 21.4633H223.939L222.605 17.2013L221.27 21.4633Z" fill="#01052D"/>
<path d="M235.865 23.5105H241V26.6254H232.087V12.4805H235.865V23.5105Z" fill="#01052D"/>
<path d="M19.5028 39.0774C30.274 39.0774 39.0057 30.3297 39.0057 19.5387C39.0057 8.74778 30.274 0 19.5028 0C8.73172 0 0 8.74778 0 19.5387C0 30.3297 8.73172 39.0774 19.5028 39.0774Z" fill="#01052D"/>
<path d="M20.8974 25.6418C20.5591 25.3468 19.9526 25.2852 19.2934 25.3688C18.6343 25.2764 18.0103 25.3424 17.6895 25.6418C17.8521 25.6946 18.687 25.9632 19.3286 25.9632C19.9746 25.9632 20.77 25.6858 20.8974 25.6418Z" fill="white"/>
<path d="M22.264 28.9974C22.4793 28.6584 22.6815 28.3414 22.7386 27.9628C22.8177 27.4257 22.6068 26.9458 22.4002 26.6156C22.2333 26.3558 21.9784 26.1709 21.6883 26.0697H21.6839C21.5213 26.0124 21.3587 25.9508 21.2269 25.8848C21.0072 26.1049 20.3744 26.6376 19.2933 26.6376C18.287 26.6376 17.5575 26.1709 17.2543 25.9332C17.1488 25.9772 17.0389 26.0168 16.9247 26.0565C16.7489 26.1225 16.5863 26.2194 16.4545 26.3558C16.226 26.6332 15.7997 27.2628 15.9052 27.9936C15.9623 28.3722 16.1644 28.6892 16.3798 29.0282C16.7006 29.5257 17.0477 30.2697 16.7621 31.071C16.7181 31.1987 16.6566 31.3264 16.5775 31.454C16.639 31.5553 16.9159 31.9031 17.3114 32.2509C17.7772 32.6648 18.4276 33.0786 19.1395 33.1314C19.056 33.0126 18.9549 32.8012 19.0736 32.6251C19.1044 32.5635 19.1659 32.4975 19.2406 32.4138C19.4867 32.1144 19.8998 31.6346 19.7547 31.1855L19.7064 31.0226L19.8514 31.115C19.8646 31.1327 20.2557 31.4144 19.7723 32.471C19.6361 32.7572 19.6229 33.0214 19.7152 33.2415C19.8339 33.5277 20.1019 33.6818 20.2381 33.7434C20.2733 33.444 20.4754 32.4446 21.2796 32.4358C21.5609 32.4358 22.0575 32.2245 22.3563 31.8943C21.5082 30.8641 21.8905 29.5741 22.264 28.9974Z" fill="white"/>
<path d="M22.0754 22.9748C21.8293 22.7547 21.6008 22.5434 21.4207 22.3849C21.3987 22.5126 21.2976 22.6711 21.0164 22.8428C20.99 22.856 20.9592 22.8736 20.9329 22.8912C20.6428 23.0629 20.1946 23.2302 19.4959 23.4063C19.4343 23.4239 19.1663 23.4327 19.1135 23.4151C19.0828 23.4063 19.0476 23.4019 19.0212 23.3931C18.3621 23.2214 17.9314 23.0541 17.659 22.8912C17.2459 22.6711 17.1536 22.4685 17.1536 22.3145C17.0261 22.4333 16.8767 22.5874 16.6966 22.7547C16.2483 23.1862 15.699 23.7365 15.1848 24.1768C14.1785 25.0617 13.6204 27.9718 13.9851 29.363C14.1214 29.9045 14.4422 30.3184 14.719 30.675C15.0574 31.124 15.3518 31.5115 15.2024 31.987C15.1497 32.1454 15.1585 32.2819 15.2332 32.4096C15.3606 32.6385 15.699 32.8234 16.1912 32.9511C15.9407 32.753 15.4573 32.1278 15.9978 30.9171C16.178 30.38 16.0066 30.0674 15.6419 29.5039C15.3958 29.1209 15.1189 28.6894 15.0354 28.1215C14.8245 26.6686 16.1428 25.5548 16.1912 25.5063C16.1912 25.5063 16.3494 25.3038 16.4768 25.2862C16.9339 25.229 17.659 24.5069 18.3049 24.7447C18.7004 24.8988 19.0564 24.934 19.2673 24.9428V24.934C19.2673 24.934 19.2937 24.9428 19.3333 24.9428C19.3684 24.9428 19.4124 24.9428 19.4607 24.934C19.6321 24.9252 19.9177 24.89 20.2913 24.7447C20.9241 24.5069 21.7678 25.2554 22.2248 25.3126C22.3303 25.3258 22.405 25.3875 22.4578 25.4755C22.4665 25.4843 22.4797 25.4975 22.5017 25.5239C22.7434 25.7397 23.7981 26.7787 23.6091 28.0907C23.5256 28.6586 23.2488 29.09 23.0027 29.4731C22.6863 29.9618 22.6687 30.4064 22.7917 30.9391C22.8225 31.036 22.8489 31.1372 22.8708 31.2429C22.8752 31.2517 22.8752 31.2605 22.8796 31.2693C22.9983 31.7888 22.9983 32.3832 22.4973 32.8631C22.4709 32.8939 22.4446 32.9203 22.4182 32.9423C22.717 32.8763 23.1785 32.7002 23.3411 32.4096C23.4158 32.2819 23.4333 32.1454 23.3762 31.987C23.2224 31.5115 23.5168 31.124 23.8552 30.675C24.1365 30.3184 24.4573 29.9045 24.5935 29.363C24.9538 27.9718 24.3957 25.0617 23.3938 24.1768C22.9675 23.8157 22.4973 23.3667 22.0754 22.9748Z" fill="white"/>
<path d="M26.8569 23.6218C26.8569 23.5514 26.8701 23.4766 26.8877 23.4017C26.8921 23.3929 26.8921 23.3797 26.8965 23.3709C26.958 23.0979 26.9888 22.8294 26.9975 22.5696C27.0107 22.0413 26.9228 21.557 26.8174 21.152C26.6416 20.5312 26.4087 20.0998 26.3691 20.0249C26.3647 20.0161 26.3603 20.0117 26.3603 20.0117C26.2197 20.2363 25.8022 20.9363 25.4331 21.7904C25.2134 22.2923 25.0156 22.847 24.9058 23.3841C24.8486 23.6615 24.8135 23.9344 24.8135 24.1942C24.8135 24.925 25.0596 25.4753 25.3013 26.0169C25.6309 26.7609 25.9692 27.5314 25.6836 28.7509C26.3076 28.0244 26.6943 27.0559 26.2021 25.8804C26.2021 25.8804 26.7031 25.964 26.7998 26.6024C26.9844 26.4395 27.4414 25.9728 27.4414 25.286C27.4414 24.8061 27.2788 24.5684 27.1206 24.3307C26.9844 24.1281 26.8569 23.9432 26.8569 23.6218Z" fill="white"/>
<path d="M12.0734 18.5906C12.1569 18.5685 12.2316 18.5245 12.3107 18.4893C12.3282 18.4717 12.3502 18.4673 12.3678 18.4585V18.4497C12.3942 18.4409 12.4117 18.4233 12.4381 18.4056C13.5763 17.5824 13.7521 14.6194 14.9298 13.8666C15.1847 13.642 15.6681 13.3955 16.4679 13.1489C17.0348 12.9772 17.5138 12.5898 17.7818 12.0703C15.8307 12.2376 14.0377 12.7043 12.5919 13.3735C12.4557 13.5804 12.1437 14.0295 11.9811 14.2408C11.4318 14.9848 10.8033 15.8213 10.6451 16.7987C10.7462 16.7811 10.9572 16.7195 11.3043 16.4685L11.4405 16.3716L11.3966 16.5345C11.2692 16.9572 11.1593 17.3622 11.0011 17.644C10.5792 18.4144 10.588 19.4755 10.6979 20.3252C10.7594 20.7919 10.8517 21.1969 10.922 21.461C10.9308 21.3862 10.9484 21.2937 10.9659 21.2013C10.9659 21.2013 10.9659 21.2013 10.9659 21.1925C10.9747 21.0076 10.9923 20.7963 11.0231 20.5673C11.1329 19.766 11.4098 18.8239 12.0734 18.5906Z" fill="white"/>
<path d="M13.7007 11.5936C15.4365 11.0125 17.4668 10.6823 19.6552 10.6823C21.7822 10.6823 23.7553 10.9949 25.4516 11.5452C25.4867 11.488 25.5175 11.4307 25.5483 11.3779C25.7109 11.0873 25.8691 10.81 26.0229 10.5282L27.9609 7.15142L24.3222 8.07156L24.9814 8.42817C25.3373 8.62189 25.4999 9.03133 25.3637 9.37913C25.2099 9.74895 24.788 9.93826 24.4101 9.79298C23.4125 9.38794 22.3447 9.11498 21.2285 8.96089C20.8769 8.91246 20.6132 8.59987 20.6132 8.23446C20.6132 7.78539 20.978 7.41998 21.4262 7.41998H21.9492L19.5629 4.45703L17.1723 7.41998H17.6953C18.1435 7.41998 18.5083 7.78539 18.5083 8.23446C18.5083 8.59987 18.2446 8.91246 17.893 8.96089C16.7065 9.11498 15.5508 9.42756 14.4609 9.90304H14.3994C14.0039 9.78417 13.7402 9.51121 13.7051 9.18102C13.6831 8.87724 13.8237 8.59107 14.0962 8.45459L14.7993 8.07156L11.165 7.15142L13.0898 10.5194C13.292 10.8848 13.4985 11.2326 13.7007 11.5936Z" fill="white"/>
<path d="M27.186 16.5341L27.1465 16.3712L27.2783 16.468C27.6694 16.7454 27.999 16.8291 28.1396 16.8643C27.9814 15.9309 27.3134 15.1032 26.7202 14.368C26.5444 14.1479 26.3379 13.7076 26.1621 13.3598C24.6767 12.6774 22.8223 12.2063 20.8008 12.0566C20.981 12.4133 21.2007 12.739 21.5083 12.968C21.5127 12.968 21.5215 12.9768 21.5215 12.9768C21.7104 13.0692 21.9038 13.1397 22.106 13.1705C22.2158 13.1881 22.3433 13.2057 22.4883 13.2057C22.5542 13.2057 22.6201 13.2145 22.6904 13.2233C22.9936 13.2718 23.2485 13.4347 23.4682 13.6724C23.5078 13.712 23.5605 13.756 23.6045 13.8089C23.6089 13.8177 23.6265 13.8309 23.6352 13.8485C24.6416 15.0108 24.9975 17.5819 26.1489 18.4052C26.1709 18.4228 26.1884 18.4404 26.2148 18.4492C26.2324 18.4668 26.2588 18.4712 26.2719 18.48C26.351 18.5241 26.4258 18.5681 26.5092 18.5901C27.208 18.8366 27.4804 19.8668 27.5771 20.6901C27.5947 20.8706 27.6079 21.0423 27.6167 21.192C27.6167 21.2008 27.6167 21.2008 27.6167 21.2008C27.6342 21.2933 27.6518 21.3857 27.6606 21.4606C27.7177 21.2316 27.7968 20.8926 27.8584 20.492C27.9902 19.6159 28.0385 18.4668 27.5815 17.6435C27.4321 17.3794 27.331 17.0316 27.186 16.5341Z" fill="white"/>
<path d="M13.084 21.6847C12.7324 20.879 12.3369 20.223 12.2051 20.0117C12.2051 20.0117 12.2007 20.0161 12.1963 20.0249C12.1567 20.0998 11.9458 20.4872 11.7788 21.0551C11.6645 21.4514 11.5679 21.9357 11.5679 22.464C11.5679 22.7589 11.5986 23.0583 11.6689 23.3709C11.6733 23.3797 11.6733 23.3929 11.6777 23.4017C11.6953 23.4766 11.7085 23.5514 11.7085 23.6218C11.7085 23.9432 11.5811 24.1281 11.4448 24.3307C11.2866 24.5684 11.124 24.8061 11.124 25.286C11.124 25.9728 11.5811 26.4395 11.7656 26.6024C11.8623 25.964 12.3633 25.8804 12.3633 25.8804C11.8711 27.0559 12.2578 28.0244 12.8818 28.7509C12.5962 27.5314 12.9346 26.7609 13.2641 26.0169C13.5058 25.4753 13.7519 24.925 13.7519 24.1942C13.7519 23.9124 13.7124 23.613 13.6465 23.3137C13.5234 22.7589 13.3125 22.191 13.084 21.6847Z" fill="white"/>
<path d="M20.1333 17.2719C20.1333 17.2542 20.1333 17.2366 20.1421 17.2234C20.1684 17.1574 20.3486 17.0605 20.6123 16.9461C21.4868 16.5763 23.1831 16.0744 23.5654 16.0391C23.6884 16.0347 23.8422 16.0964 24.0004 16.2064V16.202C24.0048 16.2064 24.0136 16.2108 24.018 16.2152C23.5873 15.1674 23.038 14.2605 22.1328 14.2605C20.9726 14.2605 20.2475 13.0938 19.8169 12.0152H19.8125V12.0108C19.6718 12.002 19.5312 12.002 19.3906 12.002C19.3554 12.002 19.3203 12.002 19.2851 12.0064C19.1049 12.002 18.9292 12.0064 18.7534 12.0152C18.3183 13.0938 17.5976 14.2605 16.4331 14.2605C15.5278 14.2605 14.9785 15.1674 14.5478 16.2152C14.5522 16.2108 14.561 16.2064 14.5654 16.202V16.2064C14.7236 16.0964 14.8774 16.0347 15.0005 16.0391C15.3828 16.0744 17.0791 16.5763 17.9536 16.9461C18.2173 17.0605 18.3974 17.1574 18.4238 17.2234C18.4282 17.2366 18.4326 17.2542 18.4326 17.2807L18.437 20.3097C18.1997 20.0719 18.0678 19.3807 17.9975 18.8348C17.9887 18.826 17.9756 18.8216 17.9668 18.8128V18.8084C17.958 18.804 17.9492 18.7996 17.9448 18.7952C17.8921 18.7643 17.8393 18.7379 17.7866 18.7159C17.7646 18.7115 17.747 18.7027 17.7295 18.6983C17.6679 18.6807 17.6064 18.6675 17.5449 18.6631C17.5405 18.6631 17.5405 18.6631 17.5361 18.6631C17.5361 18.6631 17.5361 18.6631 17.5317 18.6631C17.2285 18.6631 16.8066 18.848 16.187 18.8348C16.0991 18.8348 16.0068 18.8304 15.9101 18.8172C15.5498 18.7731 15.1938 18.6323 14.895 18.4165L14.5654 18.192C14.5654 18.192 14.9741 17.6637 15.8882 17.6725C16.0156 17.6769 16.1562 17.6901 16.3056 17.7165C16.5078 17.7517 16.6924 17.7826 16.8725 17.8134C17.29 17.8838 17.646 17.9499 17.9052 18.1128C17.9096 18.1172 17.9184 18.1172 17.9272 18.1216C17.8613 18.0203 17.7866 17.9278 17.7119 17.8442C17.6767 17.8002 17.6372 17.7605 17.5976 17.7209C17.5713 17.6945 17.5493 17.6637 17.5185 17.6373C16.7539 16.9152 15.7344 16.8272 14.917 16.9152C14.6709 16.9417 14.438 16.9857 14.2446 17.0297C13.8052 18.2492 13.5898 19.3895 12.957 19.3939H12.9526C12.9087 19.3939 12.8604 19.3939 12.8164 19.4115V19.4159C12.8164 19.4159 12.8252 19.4247 12.8296 19.4291L13.9194 21.199C13.959 21.287 13.9941 21.3751 14.0205 21.4587C14.0864 21.7361 14.1831 21.9694 14.293 22.1719C14.3325 22.2512 14.3765 22.3216 14.416 22.3877C14.46 22.4581 14.5039 22.5198 14.5478 22.577C14.5874 22.6298 14.6269 22.6826 14.6621 22.7267C14.7412 22.8191 14.8071 22.894 14.8599 22.9512C14.8862 22.9732 15.4048 22.8059 15.6509 22.6694C15.7256 22.6298 15.8047 22.5858 15.8882 22.5462C15.9805 22.4933 16.0771 22.4449 16.1782 22.3965C16.4814 22.26 17.1758 22.0179 17.1802 22.0179C17.2373 21.6921 17.3823 21.1153 17.7866 21.0625C17.8437 21.0581 17.9052 21.0581 17.9712 21.0757C18.1821 21.1241 18.27 21.3355 18.3095 21.4587C18.2876 21.4367 18.2656 21.4323 18.2348 21.4323C18.2348 21.4323 18.2304 21.4323 18.226 21.4323C18.1689 21.4367 18.081 21.4499 17.9228 21.4323C17.9184 21.4323 17.914 21.4323 17.914 21.4323C17.8965 21.4323 17.8789 21.4279 17.8657 21.4279C17.5713 21.4279 17.5932 21.7713 17.624 22.0223V22.0267C17.624 22.0267 17.7954 22.1059 18.0283 22.2116C18.0942 22.2424 18.1645 22.2732 18.2392 22.3084C18.3359 22.3525 18.4326 22.3965 18.5337 22.4405C18.8676 22.5814 19.1928 22.7135 19.2851 22.7311C19.2895 22.7311 19.2939 22.7311 19.2939 22.7311C19.4741 22.7399 20.7661 22.1191 20.9243 22.0443C20.9375 22.0399 20.9419 22.0355 20.9419 22.0355C20.9419 22.0355 20.9419 22.0311 20.9419 22.0267V22.0223C20.9726 21.7713 20.9946 21.4279 20.7002 21.4279C20.687 21.4279 20.6694 21.4323 20.6518 21.4323C20.6474 21.4323 20.6474 21.4323 20.643 21.4323C20.5991 21.4279 20.4453 21.4147 20.3398 21.4323C20.3354 21.4323 20.3354 21.4323 20.331 21.4323C20.3003 21.4323 20.2783 21.4367 20.2563 21.4587C20.2959 21.3355 20.3838 21.1241 20.5947 21.0757C20.6606 21.0581 20.7221 21.0581 20.7793 21.0625C21.1836 21.1153 21.3286 21.6921 21.3857 22.0179C21.3901 22.0179 22.0844 22.26 22.3876 22.3965C22.4667 22.4361 22.5459 22.4757 22.6206 22.5154C22.726 22.5682 22.8271 22.621 22.915 22.6694C23.1611 22.8059 23.6796 22.9732 23.706 22.9512C23.7587 22.894 23.8247 22.8191 23.9038 22.7267C23.9389 22.6826 23.9785 22.6298 24.018 22.577C24.062 22.5198 24.1059 22.4581 24.1498 22.3877C24.1894 22.3216 24.2333 22.2512 24.2729 22.1719C24.2861 22.1499 24.2993 22.1235 24.3124 22.0971C24.3344 22.0531 24.3564 22.0046 24.3784 21.9518C24.4003 21.9034 24.4223 21.8506 24.4399 21.7977C24.4619 21.7449 24.4794 21.6921 24.497 21.6348C24.5146 21.5776 24.5322 21.5204 24.5454 21.4587C24.5717 21.3751 24.6069 21.287 24.6464 21.199L25.7758 19.4511C25.7802 19.4467 25.789 19.4379 25.789 19.4379V19.4335C25.7451 19.4159 25.6967 19.4159 25.6528 19.4159H25.6484C25.0156 19.4115 24.7607 18.2492 24.3212 17.0297C24.1279 16.9857 23.895 16.9417 23.6489 16.9152C22.8315 16.8272 21.812 16.9152 21.0473 17.6373C21.0166 17.6637 20.9946 17.6945 20.9682 17.7209C20.9287 17.7605 20.8891 17.8002 20.854 17.8442C20.7793 17.9278 20.7046 18.0203 20.6386 18.1216C20.6474 18.1172 20.6562 18.1172 20.6606 18.1128C20.9199 17.9499 21.2758 17.8838 21.6933 17.8134C21.8735 17.7826 22.0581 17.7517 22.2602 17.7165C22.4096 17.6901 22.5502 17.6769 22.6777 17.6725C23.5917 17.6637 24.0004 18.192 24.0004 18.192L23.6708 18.4165C23.372 18.6323 23.0161 18.7731 22.6557 18.8172C22.559 18.8304 22.4667 18.8348 22.3789 18.8348H22.3173C21.7285 18.8348 21.3286 18.6631 21.0341 18.6631C21.0297 18.6631 21.0297 18.6631 21.0297 18.6631C21.0253 18.6631 21.0253 18.6631 21.021 18.6631C20.9594 18.6675 20.8979 18.6807 20.8364 18.6983C20.8188 18.7027 20.8012 18.7115 20.7793 18.7159C20.7265 18.7379 20.6738 18.7643 20.6211 18.7952C20.6167 18.7996 20.6079 18.804 20.5991 18.8084V18.8128C20.5903 18.8216 20.5771 18.826 20.5683 18.8348C20.498 19.3807 20.3662 20.0719 20.1289 20.3097L20.1333 17.2807V17.2719Z" fill="white"/>
</svg>
