<svg width="187" height="32" viewBox="0 0 187 32" fill="none" xmlns="http://www.w3.org/2000/svg">
<path d="M31.8649 15.8553C31.8649 24.3038 24.8632 31.1723 16.2015 31.1723C7.53989 31.1723 0.538211 24.3038 0.538211 15.8553C0.538211 7.4068 7.53989 0.538211 16.2015 0.538211C24.8632 0.538211 31.8649 7.4068 31.8649 15.8553Z" stroke="white" stroke-width="1.07642"/>
<path d="M17.1796 20.809C16.8985 20.5696 16.3947 20.5196 15.8471 20.5875C15.2995 20.5125 14.7811 20.566 14.5146 20.809C14.6497 20.8519 15.3434 21.0698 15.8764 21.0698C16.413 21.0698 17.0737 20.8447 17.1796 20.809Z" fill="white"/>
<path d="M18.3128 23.5328C18.4917 23.2577 18.6596 23.0005 18.707 22.6932C18.7727 22.2574 18.5975 21.8679 18.426 21.6C18.2872 21.3892 18.0755 21.2392 17.8346 21.157H17.8309C17.6958 21.1106 17.5607 21.0605 17.4512 21.007C17.2687 21.1856 16.743 21.6179 15.8449 21.6179C15.009 21.6179 14.4029 21.2392 14.151 21.0463C14.0634 21.082 13.9722 21.1141 13.8772 21.1463C13.7312 21.1999 13.5961 21.2785 13.4866 21.3892C13.2968 21.6143 12.9427 22.1252 13.0303 22.7182C13.0778 23.0255 13.2457 23.2827 13.4246 23.5578C13.6911 23.9615 13.9795 24.5653 13.7422 25.2155C13.7057 25.3191 13.6546 25.4227 13.5889 25.5263C13.64 25.6085 13.8699 25.8907 14.1985 26.173C14.5855 26.5088 15.1258 26.8446 15.7172 26.8875C15.6478 26.791 15.5638 26.6195 15.6624 26.4766C15.688 26.4266 15.7391 26.373 15.8011 26.3052C16.0056 26.0622 16.3487 25.6728 16.2283 25.3084L16.1881 25.1762L16.3086 25.2512C16.3195 25.2655 16.6444 25.4942 16.2429 26.3516C16.1297 26.5838 16.1187 26.7982 16.1954 26.9768C16.294 27.209 16.5167 27.3341 16.6298 27.3841C16.659 27.1411 16.827 26.3302 17.495 26.323C17.7287 26.323 18.1412 26.1515 18.3894 25.8836C17.6849 25.0476 18.0025 24.0008 18.3128 23.5328Z" fill="white"/>
<path d="M18.1577 18.6448C17.9533 18.4661 17.7634 18.2947 17.6137 18.166C17.5955 18.2696 17.5115 18.3983 17.2779 18.5376C17.256 18.5483 17.2304 18.5626 17.2085 18.5769C16.9676 18.7162 16.5952 18.852 16.0148 18.9949C15.9637 19.0092 15.741 19.0163 15.6972 19.002C15.6716 18.9949 15.6424 18.9913 15.6205 18.9842C15.0729 18.8449 14.7151 18.7091 14.4888 18.5769C14.1456 18.3983 14.069 18.2339 14.069 18.1089C13.9631 18.2053 13.839 18.3304 13.6893 18.4661C13.3169 18.8163 12.8606 19.2628 12.4335 19.6201C11.5975 20.3382 11.1339 22.6997 11.4369 23.8287C11.55 24.2681 11.8165 24.6039 12.0465 24.8933C12.3276 25.2577 12.5722 25.5721 12.4481 25.9579C12.4043 26.0865 12.4116 26.1973 12.4737 26.3009C12.5795 26.4867 12.8606 26.6367 13.2695 26.7403C13.0614 26.5796 12.6598 26.0722 13.1089 25.0898C13.2585 24.6539 13.1162 24.4003 12.8132 23.943C12.6087 23.6322 12.3787 23.282 12.3094 22.8212C12.1341 21.6422 13.2293 20.7383 13.2695 20.699C13.2695 20.699 13.4009 20.5347 13.5068 20.5204C13.8864 20.474 14.4888 19.888 15.0255 20.081C15.354 20.206 15.6497 20.2346 15.8249 20.2417V20.2346C15.8249 20.2346 15.8468 20.2417 15.8797 20.2417C15.9089 20.2417 15.9454 20.2417 15.9856 20.2346C16.128 20.2275 16.3652 20.1989 16.6756 20.081C17.2012 19.888 17.9022 20.4954 18.2818 20.5418C18.3694 20.5526 18.4315 20.6026 18.4753 20.674C18.4826 20.6812 18.4936 20.6919 18.5118 20.7133C18.7126 20.8884 19.5888 21.7315 19.4318 22.7962C19.3624 23.257 19.1324 23.6071 18.928 23.918C18.6651 24.3145 18.6505 24.6753 18.7527 25.1076C18.7783 25.1862 18.8002 25.2684 18.8185 25.3541C18.8221 25.3613 18.8221 25.3684 18.8258 25.3756C18.9243 25.7971 18.9243 26.2794 18.5082 26.6689C18.4863 26.6939 18.4644 26.7153 18.4424 26.7332C18.6907 26.6796 19.074 26.5367 19.2091 26.3009C19.2711 26.1973 19.2857 26.0865 19.2383 25.9579C19.1105 25.5721 19.3551 25.2577 19.6362 24.8933C19.8699 24.6039 20.1363 24.2681 20.2495 23.8287C20.5489 22.6997 20.0852 20.3382 19.2529 19.6201C18.8988 19.3271 18.5082 18.9627 18.1577 18.6448Z" fill="white"/>
<path d="M22.1272 19.1694C22.1272 19.1123 22.1382 19.0515 22.1528 18.9908C22.1564 18.9836 22.1564 18.9729 22.1601 18.9658C22.2112 18.7443 22.2367 18.5264 22.244 18.3156C22.255 17.8869 22.182 17.4939 22.0944 17.1652C21.9484 16.6614 21.7549 16.3113 21.722 16.2506C21.7184 16.2435 21.7147 16.2399 21.7147 16.2399C21.5979 16.4221 21.2511 16.9901 20.9444 17.6832C20.7619 18.0905 20.5976 18.5406 20.5064 18.9765C20.4589 19.2016 20.4297 19.4231 20.4297 19.6339C20.4297 20.2269 20.6341 20.6735 20.8349 21.1129C21.1087 21.7167 21.3898 22.3419 21.1525 23.3315C21.6709 22.742 21.9922 21.9561 21.5833 21.0022C21.5833 21.0022 21.9995 21.0701 22.0798 21.5881C22.2331 21.4559 22.6128 21.0772 22.6128 20.5199C22.6128 20.1305 22.4777 19.9375 22.3463 19.7446C22.2331 19.5803 22.1272 19.4302 22.1272 19.1694Z" fill="white"/>
<path d="M9.84822 15.086C9.91758 15.0681 9.97965 15.0324 10.0454 15.0038C10.06 14.9895 10.0782 14.9859 10.0928 14.9788V14.9716C10.1147 14.9645 10.1293 14.9502 10.1512 14.9359C11.0967 14.2678 11.2428 11.8635 12.2211 11.2526C12.4329 11.0704 12.8345 10.8703 13.4989 10.6702C13.9698 10.5309 14.3677 10.2165 14.5904 9.79492C12.9695 9.93068 11.4801 10.3094 10.279 10.8524C10.1658 11.0203 9.90664 11.3847 9.77156 11.5562C9.31523 12.16 8.79319 12.8388 8.66176 13.6319C8.74573 13.6176 8.92096 13.5676 9.20936 13.364L9.32254 13.2854L9.28603 13.4176C9.18016 13.7605 9.0889 14.0892 8.95748 14.3179C8.60701 14.9431 8.61432 15.8041 8.70558 16.4936C8.75669 16.8723 8.83335 17.201 8.89176 17.4153C8.89906 17.3546 8.91366 17.2796 8.92826 17.2045C8.92826 17.2045 8.92826 17.2045 8.92826 17.1974C8.93557 17.0473 8.95017 16.8758 8.97573 16.6901C9.06699 16.0399 9.29698 15.2753 9.84822 15.086Z" fill="white"/>
<path d="M10.9814 9.40936C12.4234 8.93778 14.11 8.66985 15.928 8.66985C17.6949 8.66985 19.3341 8.92349 20.7432 9.37007C20.7724 9.32363 20.798 9.27718 20.8235 9.23431C20.9586 8.99852 21.09 8.77344 21.2178 8.5448L22.8277 5.8046L19.805 6.55127L20.3526 6.84065C20.6483 6.99785 20.7834 7.33011 20.6702 7.61235C20.5424 7.91245 20.192 8.06607 19.878 7.94818C19.0493 7.61949 18.1622 7.39799 17.235 7.27295C16.9429 7.23365 16.7239 6.97998 16.7239 6.68345C16.7239 6.31905 17.0269 6.02253 17.3992 6.02253H17.8337L15.8514 3.61816L13.8654 6.02253H14.2999C14.6722 6.02253 14.9752 6.31905 14.9752 6.68345C14.9752 6.97998 14.7562 7.23365 14.4641 7.27295C13.4784 7.39799 12.5183 7.65165 11.613 8.03749H11.5619C11.2333 7.94103 11.0143 7.71952 10.9851 7.45158C10.9668 7.20507 11.0836 6.97284 11.31 6.86209L11.8941 6.55127L8.875 5.8046L10.474 8.53764C10.6419 8.83417 10.8135 9.11641 10.9814 9.40936Z" fill="white"/>
<path d="M22.401 13.4179L22.3682 13.2857L22.4777 13.3643C22.8026 13.5894 23.0764 13.6573 23.1933 13.6858C23.0618 12.9284 22.5069 12.2568 22.0141 11.6602C21.8681 11.4815 21.6965 11.1243 21.5505 10.842C20.3165 10.2883 18.776 9.90601 17.0967 9.78455C17.2464 10.0739 17.4289 10.3383 17.6844 10.5241C17.6881 10.5241 17.6954 10.5312 17.6954 10.5312C17.8524 10.6062 18.013 10.6634 18.1809 10.6884C18.2722 10.7027 18.3781 10.717 18.4985 10.717C18.5533 10.717 18.608 10.7241 18.6665 10.7313C18.9183 10.7706 19.1301 10.9028 19.3126 11.0957C19.3455 11.1278 19.3893 11.1636 19.4258 11.2064C19.4294 11.2136 19.444 11.2243 19.4513 11.2386C20.2873 12.1818 20.583 14.2682 21.5395 14.9363C21.5578 14.9505 21.5724 14.9648 21.5943 14.972C21.6089 14.9863 21.6308 14.9898 21.6417 14.997C21.7074 15.0327 21.7695 15.0684 21.8389 15.0863C22.4193 15.2864 22.6456 16.1224 22.726 16.7904C22.7406 16.9369 22.7515 17.0763 22.7588 17.1977C22.7588 17.2049 22.7588 17.2049 22.7588 17.2049C22.7734 17.2799 22.788 17.3549 22.7953 17.4157C22.8428 17.2299 22.9085 16.9548 22.9596 16.6297C23.0691 15.9187 23.1093 14.9863 22.7296 14.3182C22.6055 14.1038 22.5215 13.8216 22.401 13.4179Z" fill="white"/>
<path d="M10.6878 17.5975C10.3957 16.9437 10.0671 16.4114 9.95762 16.2399C9.95762 16.2399 9.95397 16.2435 9.95032 16.2506C9.91746 16.3113 9.74224 16.6257 9.60351 17.0866C9.5086 17.4081 9.42828 17.8011 9.42828 18.2298C9.42828 18.4692 9.45384 18.7121 9.51225 18.9658C9.5159 18.9729 9.51589 18.9836 9.51954 18.9908C9.53415 19.0515 9.5451 19.1123 9.5451 19.1694C9.5451 19.4302 9.43923 19.5803 9.32606 19.7446C9.19464 19.9375 9.05957 20.1305 9.05957 20.5199C9.05957 21.0772 9.43923 21.4559 9.59256 21.5881C9.67287 21.0701 10.089 21.0022 10.089 21.0022C9.68017 21.9561 10.0014 22.742 10.5198 23.3315C10.2825 22.3419 10.5636 21.7167 10.8374 21.1129C11.0382 20.6735 11.2427 20.2269 11.2427 19.6339C11.2427 19.4052 11.2098 19.1623 11.155 18.9193C11.0528 18.4692 10.8776 18.0083 10.6878 17.5975Z" fill="white"/>
<path d="M16.5402 14.0177C16.5402 14.0035 16.5402 13.9892 16.5475 13.9785C16.5694 13.9249 16.7191 13.8463 16.9382 13.7534C17.6646 13.4533 19.0738 13.046 19.3914 13.0174C19.4936 13.0138 19.6214 13.0639 19.7528 13.1532V13.1496C19.7564 13.1532 19.7637 13.1567 19.7674 13.1603C19.4096 12.31 18.9533 11.5741 18.2013 11.5741C17.2375 11.5741 16.6352 10.6273 16.2774 9.75204H16.2737V9.74846C16.1569 9.74132 16.0401 9.74133 15.9233 9.74133C15.8941 9.74133 15.8649 9.74131 15.8357 9.74489C15.686 9.74131 15.54 9.74489 15.3939 9.75204C15.0325 10.6273 14.4338 11.5741 13.4664 11.5741C12.7144 11.5741 12.258 12.31 11.9003 13.1603C11.9039 13.1567 11.9112 13.1532 11.9149 13.1496V13.1532C12.0463 13.0639 12.1741 13.0138 12.2763 13.0174C12.5939 13.046 14.003 13.4533 14.7295 13.7534C14.9486 13.8463 15.0982 13.9249 15.1201 13.9785C15.1238 13.9892 15.1274 14.0035 15.1274 14.0249L15.1311 16.4829C14.9339 16.2899 14.8244 15.729 14.766 15.286C14.7587 15.2789 14.7478 15.2753 14.7405 15.2682V15.2646C14.7332 15.261 14.7259 15.2575 14.7222 15.2539C14.6784 15.2289 14.6346 15.2074 14.5908 15.1896C14.5725 15.186 14.5579 15.1788 14.5433 15.1753C14.4922 15.161 14.4411 15.1503 14.39 15.1467C14.3864 15.1467 14.3864 15.1467 14.3827 15.1467C14.3827 15.1467 14.3827 15.1467 14.3791 15.1467C14.1272 15.1467 13.7767 15.2967 13.262 15.286C13.1889 15.286 13.1123 15.2825 13.032 15.2717C12.7326 15.236 12.4369 15.1217 12.1887 14.9466L11.9149 14.7644C11.9149 14.7644 12.2544 14.3357 13.0137 14.3428C13.1196 14.3464 13.2364 14.3571 13.3605 14.3786C13.5285 14.4072 13.6818 14.4322 13.8315 14.4572C14.1783 14.5143 14.474 14.5679 14.6893 14.7001C14.693 14.7037 14.7003 14.7037 14.7076 14.7073C14.6529 14.6251 14.5908 14.5501 14.5287 14.4822C14.4995 14.4465 14.4667 14.4143 14.4338 14.3822C14.4119 14.3607 14.3936 14.3357 14.3681 14.3143C13.7329 13.7284 12.8859 13.6569 12.2069 13.7284C12.0025 13.7498 11.809 13.7855 11.6484 13.8213C11.2833 14.8109 11.1044 15.7362 10.5787 15.7397H10.5751C10.5386 15.7397 10.4984 15.7397 10.4619 15.754V15.7576C10.4619 15.7576 10.4692 15.7648 10.4729 15.7683L11.3782 17.2045C11.4111 17.276 11.4403 17.3474 11.4622 17.4153C11.517 17.6404 11.5973 17.8297 11.6885 17.9941C11.7214 18.0584 11.7579 18.1155 11.7907 18.1691C11.8272 18.2263 11.8638 18.2763 11.9003 18.3227C11.9331 18.3656 11.966 18.4085 11.9952 18.4442C12.0609 18.5192 12.1157 18.58 12.1595 18.6264C12.1814 18.6443 12.6121 18.5085 12.8166 18.3978C12.8786 18.3656 12.9444 18.3299 13.0137 18.2977C13.0904 18.2549 13.1707 18.2156 13.2547 18.1763C13.5065 18.0655 14.0834 17.869 14.087 17.869C14.1345 17.6047 14.2549 17.1366 14.5908 17.0938C14.6383 17.0902 14.6894 17.0902 14.7441 17.1045C14.9193 17.1438 14.9924 17.3153 15.0252 17.4153C15.007 17.3974 14.9887 17.3939 14.9631 17.3939C14.9631 17.3939 14.9595 17.3939 14.9559 17.3939C14.9084 17.3974 14.8354 17.4082 14.704 17.3939C14.7003 17.3939 14.6967 17.3939 14.6967 17.3939C14.6821 17.3939 14.6675 17.3903 14.6565 17.3903C14.4119 17.3903 14.4302 17.669 14.4557 17.8726V17.8762C14.4557 17.8762 14.5981 17.9405 14.7916 18.0262C14.8463 18.0512 14.9047 18.0762 14.9668 18.1048C15.0471 18.1405 15.1274 18.1763 15.2114 18.212C15.4889 18.3263 15.759 18.4335 15.8357 18.4478C15.8393 18.4478 15.843 18.4478 15.843 18.4478C15.9926 18.4549 17.0659 17.9512 17.1973 17.8905C17.2083 17.8869 17.212 17.8833 17.212 17.8833C17.212 17.8833 17.212 17.8797 17.212 17.8762V17.8726C17.2375 17.669 17.2558 17.3903 17.0112 17.3903C17.0002 17.3903 16.9856 17.3939 16.971 17.3939C16.9673 17.3939 16.9674 17.3939 16.9637 17.3939C16.9272 17.3903 16.7994 17.3796 16.7118 17.3939C16.7082 17.3939 16.7082 17.3939 16.7045 17.3939C16.679 17.3939 16.6607 17.3974 16.6425 17.4153C16.6753 17.3153 16.7483 17.1438 16.9235 17.1045C16.9783 17.0902 17.0294 17.0902 17.0769 17.0938C17.4127 17.1366 17.5332 17.6047 17.5807 17.869C17.5843 17.869 18.1611 18.0655 18.413 18.1763C18.4787 18.2084 18.5444 18.2406 18.6065 18.2727C18.6941 18.3156 18.7781 18.3585 18.8511 18.3978C19.0555 18.5085 19.4863 18.6443 19.5082 18.6264C19.552 18.58 19.6068 18.5192 19.6725 18.4442C19.7017 18.4085 19.7345 18.3656 19.7674 18.3227C19.8039 18.2763 19.8404 18.2263 19.8769 18.1691C19.9098 18.1155 19.9463 18.0584 19.9791 17.9941C19.9901 17.9762 20.001 17.9548 20.012 17.9333C20.0302 17.8976 20.0485 17.8583 20.0668 17.8154C20.085 17.7761 20.1032 17.7333 20.1178 17.6904C20.1361 17.6475 20.1507 17.6046 20.1653 17.5582C20.1799 17.5118 20.1945 17.4653 20.2055 17.4153C20.2274 17.3474 20.2566 17.276 20.2894 17.2045L21.2277 15.7862C21.2313 15.7826 21.2386 15.7755 21.2386 15.7755V15.7719C21.2021 15.7576 21.1619 15.7576 21.1254 15.7576H21.1218C20.5961 15.754 20.3844 14.8109 20.0193 13.8213C19.8587 13.7855 19.6652 13.7498 19.4607 13.7284C18.7817 13.6569 17.9348 13.7284 17.2996 14.3143C17.274 14.3357 17.2558 14.3607 17.2339 14.3822C17.201 14.4143 17.1681 14.4465 17.1389 14.4822C17.0769 14.5501 17.0148 14.6251 16.9601 14.7073C16.9674 14.7037 16.9747 14.7037 16.9783 14.7001C17.1937 14.5679 17.4894 14.5143 17.8362 14.4572C17.9859 14.4322 18.1392 14.4072 18.3071 14.3786C18.4313 14.3571 18.5481 14.3464 18.654 14.3428C19.4133 14.3357 19.7528 14.7644 19.7528 14.7644L19.479 14.9466C19.2307 15.1217 18.935 15.236 18.6357 15.2717C18.5554 15.2825 18.4787 15.286 18.4057 15.286H18.3546C17.8654 15.286 17.5332 15.1467 17.2886 15.1467C17.285 15.1467 17.285 15.1467 17.285 15.1467C17.2813 15.1467 17.2813 15.1467 17.2777 15.1467C17.2266 15.1503 17.1754 15.161 17.1243 15.1753C17.1097 15.1788 17.0951 15.186 17.0769 15.1896C17.0331 15.2074 16.9893 15.2289 16.9455 15.2539C16.9418 15.2575 16.9345 15.261 16.9272 15.2646V15.2682C16.9199 15.2753 16.9089 15.2789 16.9016 15.286C16.8432 15.729 16.7337 16.2899 16.5366 16.4829L16.5402 14.0249V14.0177Z" fill="white"/>
<path d="M37.2285 21.094V10.4792H39.0183L44.3976 15.9158L44.3231 10.4792H47.2259V21.094H45.4531L40.0738 15.6575L40.1313 21.094H37.2285Z" fill="white"/>
<path d="M53.1323 18.7565H57.6895V21.094H50.2295V10.4792H57.6015V12.8167H53.1289V14.5682H57.0738V16.9057H53.1289V18.7565H53.1323Z" fill="white"/>
<path d="M66.6136 10.9229C67.1955 11.2176 67.6454 11.6414 67.9702 12.1844C68.2916 12.7307 68.454 13.3597 68.454 14.0782C68.454 14.8331 68.2882 15.4986 67.9567 16.0714C67.6251 16.6441 67.1549 17.0911 66.5493 17.4057C65.9437 17.7202 65.24 17.8791 64.4382 17.8791H63.2202V21.0907H60.3174V10.4792H64.5972C65.3618 10.4792 66.0316 10.6249 66.6136 10.9229ZM65.1791 15.1774C65.3787 14.9324 65.4802 14.6013 65.4802 14.1808C65.4802 13.7703 65.3753 13.4392 65.1655 13.1909C64.9558 12.9426 64.6682 12.8168 64.3096 12.8168H63.2236V15.5416H64.3096C64.6851 15.5416 64.9761 15.4191 65.1791 15.1774Z" fill="white"/>
<path d="M78.4933 10.4792V12.8167H75.7225V21.094H72.8197V12.8167H70.0488V10.4792H78.4933Z" fill="white"/>
<path d="M82.8428 20.7431C82.1492 20.412 81.6113 19.9484 81.229 19.3525C80.8467 18.7565 80.6572 18.0645 80.6572 17.2798V10.4792H83.5431V17.1507C83.5431 17.6772 83.6988 18.101 84.0134 18.4221C84.3246 18.7433 84.7408 18.9022 85.2584 18.9022C85.7557 18.9022 86.1584 18.7433 86.4662 18.4221C86.7741 18.101 86.9263 17.6772 86.9263 17.1507V10.4792H89.8291V17.2798C89.8291 18.0645 89.6397 18.7565 89.2574 19.3525C88.8751 19.9484 88.3371 20.4153 87.6436 20.7431C86.95 21.0742 86.1482 21.2397 85.2415 21.2397C84.3382 21.2364 83.5364 21.0708 82.8428 20.7431Z" fill="white"/>
<path d="M92.7275 21.094V10.4792H94.5173L99.8966 15.9158L99.8221 10.4792H102.725V21.094H100.952L95.5728 15.6575L95.6303 21.094H92.7275Z" fill="white"/>
<path d="M108.628 18.7565H113.186V21.094H105.726V10.4792H113.098V12.8167H108.628V14.5682H112.573V16.9057H108.628V18.7565Z" fill="white"/>
<path d="M131.701 21.094H128.799L128.504 15.5416L126.38 21.094H124.871L122.746 15.5714L122.452 21.094H119.549L120.297 10.4792H123.551L125.618 16.3892L127.699 10.4792H130.954L131.701 21.094Z" fill="white"/>
<path d="M136.449 20.7431C135.756 20.412 135.218 19.9484 134.835 19.3525C134.453 18.7565 134.264 18.0645 134.264 17.2798V10.4792H137.15V17.1507C137.15 17.6772 137.305 18.101 137.62 18.4221C137.931 18.7433 138.347 18.9022 138.865 18.9022C139.362 18.9022 139.765 18.7433 140.073 18.4221C140.381 18.101 140.533 17.6772 140.533 17.1507V10.4792H143.436V17.2798C143.436 18.0645 143.246 18.7565 142.864 19.3525C142.481 19.9484 141.944 20.4153 141.25 20.7431C140.556 21.0742 139.755 21.2397 138.848 21.2397C137.945 21.2364 137.143 21.0708 136.449 20.7431Z" fill="white"/>
<path d="M154.04 10.4792V12.8167H151.269V21.094H148.367V12.8167H145.596V10.4792H154.04Z" fill="white"/>
<path d="M158.392 20.7431C157.698 20.412 157.16 19.9484 156.778 19.3525C156.396 18.7565 156.206 18.0645 156.206 17.2798V10.4792H159.092V17.1507C159.092 17.6772 159.248 18.101 159.562 18.4221C159.873 18.7433 160.29 18.9022 160.807 18.9022C161.305 18.9022 161.707 18.7433 162.015 18.4221C162.323 18.101 162.475 17.6772 162.475 17.1507V10.4792H165.378V17.2798C165.378 18.0645 165.189 18.7565 164.806 19.3525C164.424 19.9484 163.886 20.4153 163.192 20.7431C162.499 21.0742 161.697 21.2397 160.79 21.2397C159.887 21.2364 159.085 21.0708 158.392 20.7431Z" fill="white"/>
<path d="M174.463 21.094L173.979 19.5578H170.43L169.933 21.094H166.841L170.857 10.4792H173.54L177.555 21.094H174.463ZM171.178 17.2203H173.228L172.203 14.0219L171.178 17.2203Z" fill="white"/>
<path d="M182.386 18.7565H186.331V21.094H179.486V10.4792H182.389V18.7565H182.386Z" fill="white"/>
<rect x="101.204" y="23.3901" width="85.0149" height="8.60989" rx="2.15284" fill="white"/>
<path d="M107.717 29.8472C107.282 29.8472 106.896 29.7584 106.558 29.581C106.225 29.3998 105.967 29.1468 105.784 28.8221C105.601 28.4974 105.51 28.1217 105.51 27.6951C105.51 27.2684 105.601 26.8928 105.784 26.568C105.967 26.2433 106.225 25.9923 106.558 25.8148C106.896 25.6336 107.282 25.543 107.717 25.543C108.05 25.543 108.351 25.6204 108.619 25.7752V26.636C108.522 26.5378 108.398 26.4642 108.247 26.4151C108.101 26.3623 107.934 26.3358 107.747 26.3358C107.516 26.3358 107.31 26.3925 107.132 26.5058C106.953 26.619 106.814 26.7795 106.717 26.9871C106.619 27.191 106.571 27.427 106.571 27.6951C106.571 27.9631 106.619 28.201 106.717 28.4087C106.814 28.6125 106.953 28.7711 107.132 28.8844C107.31 28.9977 107.516 29.0543 107.747 29.0543C107.93 29.0543 108.097 29.0279 108.247 28.975C108.398 28.9221 108.522 28.8485 108.619 28.7541V29.615C108.351 29.7698 108.05 29.8472 107.717 29.8472Z" fill="#01052D"/>
<path d="M111.998 29.8472C111.563 29.8472 111.177 29.7584 110.84 29.581C110.507 29.3998 110.249 29.1468 110.066 28.8221C109.883 28.4974 109.791 28.1217 109.791 27.6951C109.791 27.2684 109.883 26.8928 110.066 26.568C110.249 26.2433 110.507 25.9923 110.84 25.8148C111.177 25.6336 111.563 25.543 111.998 25.543C112.433 25.543 112.817 25.6336 113.151 25.8148C113.484 25.9923 113.742 26.2433 113.925 26.568C114.108 26.8928 114.199 27.2684 114.199 27.6951C114.199 28.1217 114.108 28.4974 113.925 28.8221C113.742 29.1468 113.484 29.3998 113.151 29.581C112.817 29.7584 112.433 29.8472 111.998 29.8472ZM111.998 29.0543C112.222 29.0543 112.419 28.9977 112.59 28.8844C112.764 28.7711 112.899 28.6125 112.992 28.4087C113.09 28.201 113.138 27.9631 113.138 27.6951C113.138 27.427 113.09 27.191 112.992 26.9871C112.899 26.7795 112.764 26.619 112.59 26.5058C112.419 26.3925 112.222 26.3358 111.998 26.3358C111.775 26.3358 111.576 26.3925 111.401 26.5058C111.226 26.619 111.09 26.7795 110.992 26.9871C110.899 27.191 110.852 27.427 110.852 27.6951C110.852 27.9631 110.899 28.201 110.992 28.4087C111.09 28.6125 111.226 28.7711 111.401 28.8844C111.576 28.9977 111.775 29.0543 111.998 29.0543Z" fill="#01052D"/>
<path d="M120.431 29.7905H119.4L119.266 27.2986L118.236 29.7905H117.687L116.663 27.3213L116.523 29.7905H115.492L115.785 25.5883H116.937L117.961 28.2104L118.986 25.5883H120.138L120.431 29.7905Z" fill="#01052D"/>
<path d="M126.76 29.7905H125.73L125.596 27.2986L124.565 29.7905H124.017L122.992 27.3213L122.852 29.7905H121.822L122.114 25.5883H123.267L124.291 28.2104L125.315 25.5883H126.468L126.76 29.7905Z" fill="#01052D"/>
<path d="M130.096 29.8472C129.726 29.8472 129.401 29.7849 129.121 29.6603C128.84 29.5319 128.623 29.3526 128.469 29.1223C128.314 28.8882 128.237 28.6201 128.237 28.318V25.5996H129.267V28.2784C129.267 28.5125 129.342 28.7013 129.493 28.8447C129.647 28.9844 129.85 29.0543 130.102 29.0543C130.346 29.0543 130.543 28.9826 130.694 28.8391C130.844 28.6956 130.919 28.5087 130.919 28.2784V25.5996H131.95V28.318C131.95 28.6201 131.873 28.8882 131.718 29.1223C131.564 29.3526 131.346 29.5319 131.066 29.6603C130.785 29.7849 130.462 29.8472 130.096 29.8472Z" fill="#01052D"/>
<path d="M133.561 29.7905V25.5996H134.196L136.567 28.0405L136.543 25.5996H137.567V29.7905H136.939L134.567 27.3496L134.592 29.7905H133.561Z" fill="#01052D"/>
<path d="M139.224 29.7905V25.5996H140.255V29.7905H139.224Z" fill="#01052D"/>
<path d="M144.965 25.5996V26.3925H143.776V29.7905H142.746V26.3925H141.557V25.5996H144.965Z" fill="#01052D"/>
<path d="M148.647 25.5996H149.744L148.324 28.3124V29.7905H147.299V28.3124L145.885 25.5996H146.976L147.818 27.4629L148.647 25.5996Z" fill="#01052D"/>
<path d="M153.939 28.9977H155.89V29.7905H152.909V25.5996H155.848V26.3925H153.939V27.276H155.647V28.0689H153.939V28.9977Z" fill="#01052D"/>
<path d="M159.064 25.5996C159.475 25.5996 159.836 25.6864 160.149 25.8601C160.466 26.0338 160.71 26.2792 160.881 26.5964C161.056 26.9097 161.143 27.2741 161.143 27.6894C161.143 28.1047 161.056 28.471 160.881 28.7881C160.71 29.1053 160.466 29.3526 160.149 29.53C159.836 29.7037 159.475 29.7905 159.064 29.7905H157.369V25.5996H159.064ZM159.082 28.9977C159.282 28.9977 159.454 28.9448 159.601 28.8391C159.751 28.7296 159.867 28.5767 159.948 28.3803C160.034 28.1802 160.076 27.9499 160.076 27.6894C160.076 27.4327 160.034 27.2061 159.948 27.0098C159.867 26.8135 159.751 26.6624 159.601 26.5567C159.454 26.4472 159.282 26.3925 159.082 26.3925H158.4V28.9977H159.082Z" fill="#01052D"/>
<path d="M162.574 29.7905V25.5996H163.604V29.7905H162.574Z" fill="#01052D"/>
<path d="M168.314 25.5996V26.3925H167.125V29.7905H166.095V26.3925H164.906V25.5996H168.314Z" fill="#01052D"/>
<path d="M169.624 29.7905V25.5996H170.655V29.7905H169.624Z" fill="#01052D"/>
<path d="M174.28 29.8472C173.845 29.8472 173.459 29.7584 173.121 29.581C172.788 29.3998 172.53 29.1468 172.347 28.8221C172.164 28.4974 172.073 28.1217 172.073 27.6951C172.073 27.2684 172.164 26.8928 172.347 26.568C172.53 26.2433 172.788 25.9923 173.121 25.8148C173.459 25.6336 173.845 25.543 174.28 25.543C174.715 25.543 175.099 25.6336 175.432 25.8148C175.765 25.9923 176.023 26.2433 176.206 26.568C176.389 26.8928 176.481 27.2684 176.481 27.6951C176.481 28.1217 176.389 28.4974 176.206 28.8221C176.023 29.1468 175.765 29.3998 175.432 29.581C175.099 29.7584 174.715 29.8472 174.28 29.8472ZM174.28 29.0543C174.503 29.0543 174.7 28.9977 174.871 28.8844C175.046 28.7711 175.18 28.6125 175.274 28.4087C175.371 28.201 175.42 27.9631 175.42 27.6951C175.42 27.427 175.371 27.191 175.274 26.9871C175.18 26.7795 175.046 26.619 174.871 26.5058C174.7 26.3925 174.503 26.3358 174.28 26.3358C174.056 26.3358 173.857 26.3925 173.682 26.5058C173.508 26.619 173.371 26.7795 173.274 26.9871C173.18 27.191 173.134 27.427 173.134 27.6951C173.134 27.9631 173.18 28.201 173.274 28.4087C173.371 28.6125 173.508 28.7711 173.682 28.8844C173.857 28.9977 174.056 29.0543 174.28 29.0543Z" fill="#01052D"/>
<path d="M177.908 29.7905V25.5996H178.542L180.913 28.0405L180.889 25.5996H181.913V29.7905H181.285L178.914 27.3496L178.938 29.7905H177.908Z" fill="#01052D"/>
</svg>
