<svg width="466" height="80" viewBox="0 0 466 80" fill="none" xmlns="http://www.w3.org/2000/svg">
  <path d="M79.6584 39.6364C79.6584 60.7566 62.155 77.9273 40.5019 77.9273C18.8489 77.9273 1.34547 60.7566 1.34547 39.6364C1.34547 18.5161 18.8489 1.34547 40.5019 1.34547C62.155 1.34547 79.6584 18.5161 79.6584 39.6364Z" stroke="white" stroke-width="2.69093"/>
  <path d="M42.9473 52.0202C42.2445 51.4218 40.9852 51.2968 39.6162 51.4664C38.2473 51.2789 36.9514 51.4129 36.2852 52.0202C36.6228 52.1273 38.3568 52.6721 39.6893 52.6721C41.0308 52.6721 42.6826 52.1095 42.9473 52.0202Z" fill="white"/>
  <path d="M45.7828 58.8295C46.23 58.1418 46.6498 57.4988 46.7684 56.7307C46.9327 55.6411 46.4946 54.6676 46.0657 53.9977C45.7189 53.4708 45.1896 53.0957 44.5873 52.8903H44.5781C44.2405 52.7742 43.9028 52.6492 43.629 52.5152C43.1727 52.9618 41.8585 54.0424 39.6135 54.0424C37.5236 54.0424 36.0087 53.0957 35.3789 52.6134C35.1599 52.7027 34.9318 52.7831 34.6945 52.8635C34.3294 52.9975 33.9918 53.194 33.718 53.4708C33.2434 54.0335 32.3582 55.3106 32.5772 56.7932C32.6958 57.5613 33.1157 58.2043 33.5628 58.892C34.2291 59.9013 34.95 61.4106 34.3568 63.0361C34.2656 63.2951 34.1378 63.5541 33.9735 63.8131C34.1013 64.0185 34.6762 64.7241 35.4976 65.4296C36.465 66.2692 37.8156 67.1087 39.2941 67.2159C39.1207 66.9747 38.9108 66.546 39.1572 66.1888C39.2211 66.0637 39.3489 65.9298 39.504 65.7601C40.0151 65.1528 40.8729 64.1792 40.5717 63.2683L40.4714 62.9378L40.7725 63.1254C40.7999 63.1611 41.6121 63.7327 40.6082 65.8762C40.3253 66.4567 40.2979 66.9926 40.4896 67.4391C40.736 68.0197 41.2927 68.3322 41.5756 68.4572C41.6486 67.8499 42.0685 65.8226 43.7386 65.8047C44.3226 65.8047 45.3538 65.376 45.9744 64.7062C44.2131 62.6163 45.0071 59.9995 45.7828 58.8295Z" fill="white"/>
  <path d="M45.3935 46.6099C44.8824 46.1633 44.4078 45.7346 44.0336 45.4131C43.988 45.6721 43.7781 45.9936 43.194 46.3419C43.1393 46.3687 43.0754 46.4045 43.0206 46.4402C42.4183 46.7885 41.4874 47.1279 40.0364 47.4851C39.9086 47.5208 39.3519 47.5387 39.2424 47.503C39.1785 47.4851 39.1055 47.4762 39.0508 47.4583C37.6819 47.11 36.7875 46.7706 36.2216 46.4402C35.3638 45.9936 35.1722 45.5828 35.1722 45.2702C34.9075 45.5113 34.5972 45.8239 34.223 46.1633C33.2921 47.0386 32.1514 48.1549 31.0836 49.0481C28.9937 50.8432 27.8347 56.7467 28.5922 59.569C28.8751 60.6675 29.5413 61.507 30.1162 62.2304C30.8189 63.1414 31.4304 63.9273 31.1201 64.8919C31.0106 65.2134 31.0289 65.4903 31.184 65.7493C31.4487 66.2137 32.1514 66.5888 33.1735 66.8478C32.6533 66.4459 31.6495 65.1777 32.772 62.7216C33.1461 61.632 32.7902 60.9979 32.0328 59.8548C31.5217 59.0777 30.9467 58.2025 30.7733 57.0504C30.3353 54.1031 33.0731 51.8435 33.1735 51.7453C33.1735 51.7453 33.502 51.3344 33.7667 51.2987C34.7158 51.1826 36.2217 49.7179 37.5632 50.2001C38.3846 50.5127 39.1238 50.5842 39.5618 50.6021V50.5842C39.5618 50.5842 39.6166 50.6021 39.6987 50.6021C39.7717 50.6021 39.863 50.6021 39.9634 50.5842C40.3193 50.5664 40.9125 50.4949 41.6883 50.2001C43.0024 49.7179 44.7546 51.2362 45.7037 51.3523C45.9228 51.3791 46.0779 51.5041 46.1875 51.6827C46.2057 51.7006 46.2331 51.7274 46.2787 51.781C46.7806 52.2186 48.9709 54.3264 48.5785 56.9878C48.4051 58.14 47.8302 59.0152 47.3191 59.7922C46.662 60.7836 46.6255 61.6856 46.881 62.7663C46.9449 62.9627 46.9997 63.1682 47.0453 63.3825C47.0544 63.4004 47.0544 63.4182 47.0635 63.4361C47.3099 64.49 47.3099 65.6957 46.2696 66.6692C46.2148 66.7317 46.1601 66.7853 46.1053 66.83C46.7259 66.696 47.6841 66.3387 48.0218 65.7493C48.1769 65.4903 48.2134 65.2134 48.0948 64.8919C47.7754 63.9273 48.3869 63.1414 49.0896 62.2304C49.6737 61.507 50.3399 60.6675 50.6228 59.569C51.3711 56.7467 50.2121 50.8432 48.1313 49.0481C47.2461 48.3157 46.2696 47.4047 45.3935 46.6099Z" fill="white"/>
  <path d="M55.3179 47.9214C55.3179 47.7785 55.3452 47.6267 55.3817 47.4748C55.3909 47.457 55.3909 47.4302 55.4 47.4123C55.5278 46.8586 55.5916 46.3138 55.6099 45.7869C55.6373 44.7151 55.4548 43.7327 55.2358 42.911C54.8707 41.6517 54.387 40.7765 54.3049 40.6247C54.2957 40.6068 54.2866 40.5978 54.2866 40.5978C53.9946 41.0533 53.1276 42.4734 52.361 44.2061C51.9047 45.2242 51.494 46.3495 51.2659 47.4391C51.1472 48.0018 51.0742 48.5555 51.0742 49.0824C51.0742 50.565 51.5853 51.6814 52.0872 52.7799C52.7717 54.2893 53.4744 55.8522 52.8812 58.3262C54.1771 56.8525 54.9802 54.8877 53.9581 52.5031C53.9581 52.5031 54.9985 52.6728 55.1993 53.9678C55.5826 53.6373 56.5317 52.6906 56.5317 51.2974C56.5317 50.3239 56.194 49.8416 55.8655 49.3593C55.5825 48.9485 55.3179 48.5734 55.3179 47.9214Z" fill="white"/>
  <path d="M24.6214 37.7135C24.7948 37.6688 24.9499 37.5795 25.1142 37.5081C25.1507 37.4723 25.1964 37.4634 25.2329 37.4455V37.4277C25.2876 37.4098 25.3241 37.3741 25.3789 37.3384C27.7426 35.6682 28.1076 29.6576 30.5534 28.1304C31.0828 27.6749 32.0866 27.1747 33.7476 26.6746C34.9249 26.3263 35.9196 25.5403 36.4763 24.4865C32.4243 24.8258 28.7008 25.7726 25.6983 27.1301C25.4154 27.5498 24.7674 28.4608 24.4298 28.8895C23.289 30.3989 21.9839 32.0958 21.6554 34.0785C21.8653 34.0428 22.3033 33.9177 23.0243 33.4086L23.3072 33.2122L23.216 33.5426C22.9513 34.4 22.7232 35.2217 22.3946 35.7933C21.5185 37.3562 21.5368 39.5086 21.7649 41.2323C21.8927 42.179 22.0843 43.0007 22.2303 43.5366C22.2486 43.3847 22.2851 43.1972 22.3216 43.0096C22.3216 43.0096 22.3216 43.0096 22.3216 42.9918C22.3399 42.6167 22.3764 42.1879 22.4403 41.7235C22.6684 40.0981 23.2433 38.1868 24.6214 37.7135Z" fill="white"/>
  <path d="M27.4543 23.5224C31.0591 22.3435 35.2754 21.6737 39.8202 21.6737C44.2373 21.6737 48.3349 22.3078 51.8577 23.4242C51.9307 23.3081 51.9946 23.192 52.0585 23.0848C52.3961 22.4954 52.7246 21.9327 53.044 21.3611L57.0687 14.511L49.5122 16.3775L50.8811 17.1009C51.6204 17.4939 51.958 18.3245 51.6751 19.0301C51.3557 19.7803 50.4796 20.1644 49.6948 19.8696C47.6231 19.048 45.4055 18.4942 43.0874 18.1816C42.3573 18.0834 41.8097 17.4493 41.8097 16.708C41.8097 15.797 42.5672 15.0557 43.4981 15.0557H44.5841L39.6286 9.0451L34.664 15.0557H35.75C36.6809 15.0557 37.4383 15.797 37.4383 16.708C37.4383 17.4493 36.8907 18.0834 36.1606 18.1816C33.6966 18.4942 31.2964 19.1283 29.0331 20.0929H28.9054C28.084 19.8518 27.5364 19.298 27.4634 18.6282C27.4178 18.0119 27.7098 17.4314 28.2756 17.1545L29.7358 16.3775L22.1885 14.511L26.1857 21.3432C26.6055 22.0845 27.0345 22.7901 27.4543 23.5224Z" fill="white"/>
  <path d="M55.9996 33.5431L55.9175 33.2126L56.1912 33.4091C57.0035 33.9718 57.6879 34.1415 57.98 34.2129C57.6514 32.3195 56.2642 30.6405 55.0322 29.149C54.6671 28.7024 54.2382 27.8093 53.8732 27.1037C50.7886 25.7194 46.9373 24.7638 42.7393 24.4601C43.1134 25.1836 43.5697 25.8444 44.2086 26.3088C44.2177 26.3088 44.236 26.3267 44.236 26.3267C44.6284 26.5143 45.0299 26.6572 45.4497 26.7197C45.6779 26.7554 45.9426 26.7912 46.2437 26.7912C46.3806 26.7912 46.5175 26.809 46.6635 26.8269C47.2932 26.9251 47.8225 27.2556 48.2789 27.7379C48.361 27.8182 48.4705 27.9075 48.5618 28.0147C48.5709 28.0326 48.6074 28.0593 48.6257 28.0951C50.7155 30.4529 51.4547 35.6687 53.8458 37.3388C53.8914 37.3745 53.928 37.4102 53.9827 37.4281C54.0192 37.4638 54.074 37.4728 54.1014 37.4906C54.2656 37.5799 54.4208 37.6693 54.5941 37.7139C56.0452 38.2141 56.611 40.304 56.8118 41.9741C56.8483 42.3403 56.8757 42.6886 56.894 42.9922C56.894 43.0101 56.894 43.0101 56.894 43.0101C56.9305 43.1976 56.967 43.3852 56.9852 43.537C57.1038 43.0726 57.2681 42.3849 57.3959 41.5722C57.6697 39.7949 57.7701 37.4639 56.8209 35.7938C56.5106 35.2579 56.3007 34.5523 55.9996 33.5431Z" fill="white"/>
  <path d="M26.7216 43.9917C25.9915 42.3573 25.1702 41.0265 24.8964 40.5978C24.8964 40.5978 24.8873 40.6068 24.8781 40.6247C24.796 40.7765 24.358 41.5625 24.0112 42.7146C23.7739 43.5184 23.5731 44.5008 23.5731 45.5725C23.5731 46.1709 23.637 46.7782 23.783 47.4123C23.7921 47.4302 23.7921 47.457 23.8012 47.4748C23.8378 47.6267 23.8651 47.7785 23.8651 47.9214C23.8651 48.5734 23.6005 48.9485 23.3176 49.3593C22.989 49.8416 22.6514 50.3239 22.6514 51.2974C22.6514 52.6906 23.6005 53.6373 23.9838 53.9678C24.1846 52.6728 25.2249 52.5031 25.2249 52.5031C24.2028 54.8877 25.0059 56.8525 26.3018 58.3262C25.7086 55.8522 26.4113 54.2893 27.0958 52.7799C27.5977 51.6814 28.1088 50.565 28.1088 49.0824C28.1088 48.5108 28.0266 47.9035 27.8898 47.2962C27.6342 46.1709 27.1962 45.0188 26.7216 43.9917Z" fill="white"/>
  <path d="M41.3523 35.043C41.3523 35.0072 41.3523 34.9715 41.3706 34.9447C41.4253 34.8108 41.7995 34.6143 42.3471 34.3821C44.1632 33.6318 47.6859 32.6137 48.4798 32.5422C48.7354 32.5333 49.0548 32.6584 49.3833 32.8816V32.8727C49.3924 32.8816 49.4107 32.8905 49.4199 32.8995C48.5255 30.7739 47.3847 28.934 45.5047 28.934C43.0954 28.934 41.5896 26.5673 40.6952 24.3792H40.6861V24.3702C40.3941 24.3524 40.102 24.3524 39.81 24.3524C39.737 24.3524 39.664 24.3524 39.591 24.3613C39.2168 24.3524 38.8518 24.3613 38.4867 24.3792C37.5832 26.5673 36.0865 28.934 33.6681 28.934C31.7881 28.934 30.6473 30.7739 29.753 32.8995C29.7621 32.8905 29.7803 32.8816 29.7895 32.8727V32.8816C30.118 32.6584 30.4374 32.5333 30.6929 32.5422C31.4869 32.6137 35.0096 33.6318 36.8258 34.3821C37.3733 34.6143 37.7475 34.8108 37.8023 34.9447C37.8114 34.9715 37.8205 35.0072 37.8205 35.0608L37.8296 41.2055C37.3368 40.7232 37.063 39.321 36.917 38.2135C36.8987 38.1956 36.8714 38.1867 36.8531 38.1688V38.1599C36.8349 38.151 36.8166 38.1421 36.8075 38.1331C36.698 38.0706 36.5885 38.017 36.479 37.9724C36.4333 37.9635 36.3968 37.9456 36.3603 37.9366C36.2325 37.9009 36.1048 37.8741 35.977 37.8652C35.9679 37.8652 35.9679 37.8652 35.9588 37.8652C35.9588 37.8652 35.9587 37.8652 35.9496 37.8652C35.3199 37.8652 34.4438 38.2403 33.157 38.2135C32.9745 38.2135 32.7828 38.2046 32.5821 38.1778C31.8337 38.0885 31.0945 37.8026 30.4739 37.365L29.7895 36.9096C29.7895 36.9096 30.6382 35.8378 32.5364 35.8557C32.8011 35.8646 33.0931 35.8914 33.4034 35.945C33.8232 36.0165 34.2065 36.0789 34.5807 36.1415C35.4477 36.2844 36.1869 36.4183 36.7253 36.7488C36.7344 36.7577 36.7527 36.7577 36.771 36.7667C36.6341 36.5612 36.4789 36.3737 36.3238 36.204C36.2508 36.1147 36.1687 36.0343 36.0865 35.9539C36.0318 35.9004 35.9861 35.8378 35.9222 35.7843C34.3343 34.3195 32.217 34.1409 30.5195 34.3195C30.0085 34.3731 29.5248 34.4624 29.1233 34.5518C28.2106 37.0257 27.7634 39.3388 26.4493 39.3478H26.4401C26.3489 39.3478 26.2485 39.3477 26.1572 39.3835V39.3924C26.1572 39.3924 26.1755 39.4103 26.1846 39.4192L28.4479 43.0095C28.5301 43.1881 28.6031 43.3668 28.6578 43.5365C28.7947 44.0991 28.9955 44.5725 29.2236 44.9833C29.3058 45.1441 29.397 45.287 29.4791 45.4209C29.5704 45.5638 29.6617 45.6888 29.753 45.805C29.8351 45.9121 29.9172 46.0193 29.9902 46.1086C30.1545 46.2962 30.2914 46.448 30.4009 46.5641C30.4556 46.6088 31.5325 46.2694 32.0436 45.9925C32.1987 45.9121 32.363 45.8228 32.5364 45.7424C32.7281 45.6353 32.9288 45.537 33.1387 45.4388C33.7684 45.1619 35.2104 44.6707 35.2195 44.6707C35.3382 44.0098 35.6393 42.8398 36.479 42.7326C36.5976 42.7237 36.7253 42.7237 36.8622 42.7595C37.3003 42.8577 37.4828 43.2864 37.565 43.5365C37.5193 43.4918 37.4737 43.4829 37.4098 43.4829C37.4098 43.4829 37.4007 43.4829 37.3916 43.4829C37.2729 43.4918 37.0904 43.5186 36.7619 43.4829C36.7527 43.4829 36.7436 43.4829 36.7436 43.4829C36.7071 43.4829 36.6706 43.4739 36.6432 43.4739C36.0318 43.4739 36.0774 44.1705 36.1413 44.6796V44.6886C36.1413 44.6886 36.4972 44.8493 36.9809 45.0637C37.1178 45.1262 37.2638 45.1887 37.4189 45.2602C37.6197 45.3495 37.8205 45.4388 38.0304 45.5281C38.724 45.8139 39.3993 46.0819 39.591 46.1176C39.6001 46.1176 39.6092 46.1176 39.6092 46.1176C39.9834 46.1354 42.6665 44.8762 42.995 44.7243C43.0224 44.7154 43.0315 44.7064 43.0315 44.7064C43.0315 44.7064 43.0315 44.6975 43.0315 44.6886V44.6796C43.0954 44.1705 43.1411 43.4739 42.5296 43.4739C42.5022 43.4739 42.4657 43.4829 42.4292 43.4829C42.4201 43.4829 42.4201 43.4829 42.411 43.4829C42.3197 43.4739 42.0003 43.4472 41.7813 43.4829C41.7721 43.4829 41.7721 43.4829 41.763 43.4829C41.6991 43.4829 41.6535 43.4918 41.6079 43.5365C41.69 43.2864 41.8725 42.8577 42.3105 42.7595C42.4474 42.7237 42.5752 42.7237 42.6939 42.7326C43.5335 42.8398 43.8347 44.0098 43.9533 44.6707C43.9624 44.6707 45.4043 45.1619 46.034 45.4388C46.1983 45.5192 46.3626 45.5995 46.5177 45.6799C46.7368 45.7871 46.9467 45.8943 47.1292 45.9925C47.6402 46.2694 48.7171 46.6088 48.7719 46.5641C48.8814 46.448 49.0183 46.2962 49.1826 46.1086C49.2556 46.0193 49.3377 45.9121 49.4199 45.805C49.5111 45.6888 49.6024 45.5638 49.6936 45.4209C49.7758 45.287 49.8671 45.1441 49.9492 44.9833C49.9766 44.9386 50.0039 44.8851 50.0313 44.8315C50.0769 44.7422 50.1226 44.6439 50.1682 44.5367C50.2138 44.4385 50.2594 44.3314 50.2959 44.2242C50.3416 44.117 50.3781 44.0098 50.4146 43.8937C50.4511 43.7776 50.4876 43.6615 50.515 43.5365C50.5698 43.3668 50.6428 43.1881 50.7249 43.0095L53.0703 39.4639C53.0795 39.4549 53.0977 39.4371 53.0977 39.4371V39.4281C53.0064 39.3924 52.906 39.3924 52.8148 39.3924H52.8056C51.4915 39.3835 50.9622 37.0257 50.0496 34.5518C49.648 34.4624 49.1643 34.3731 48.6532 34.3195C46.9558 34.1409 44.8385 34.3195 43.2506 35.7843C43.1867 35.8378 43.1411 35.9004 43.0863 35.9539C43.0042 36.0343 42.922 36.1147 42.849 36.204C42.6939 36.3737 42.5387 36.5612 42.4018 36.7667C42.4201 36.7577 42.4383 36.7577 42.4475 36.7488C42.9859 36.4183 43.7251 36.2844 44.5921 36.1415C44.9663 36.0789 45.3496 36.0165 45.7694 35.945C46.0797 35.8914 46.3717 35.8646 46.6364 35.8557C48.5346 35.8378 49.3833 36.9096 49.3833 36.9096L48.6989 37.365C48.0783 37.8026 47.3391 38.0885 46.5907 38.1778C46.3899 38.2046 46.1983 38.2135 46.0158 38.2135H45.888C44.6651 38.2135 43.8346 37.8652 43.2232 37.8652C43.214 37.8652 43.2141 37.8652 43.2141 37.8652C43.205 37.8652 43.2049 37.8652 43.1958 37.8652C43.068 37.8741 42.9403 37.9009 42.8125 37.9366C42.776 37.9456 42.7395 37.9635 42.6939 37.9724C42.5844 38.017 42.4749 38.0706 42.3653 38.1331C42.3562 38.1421 42.3379 38.151 42.3197 38.1599V38.1688C42.3014 38.1867 42.274 38.1956 42.2558 38.2135C42.1098 39.321 41.836 40.7232 41.3432 41.2055L41.3523 35.0608V35.043Z" fill="white"/>
  <path d="M93.0684 52.7329V26.1971H97.5425L110.99 39.7878L110.804 26.1971H118.061V52.7329H113.629L100.181 39.1422L100.325 52.7329H93.0684Z" fill="white"/>
  <path d="M132.826 46.8894H144.218V52.7329H125.569V26.1971H143.999V32.0406H132.818V36.4191H142.679V42.2626H132.818V46.8894H132.826Z" fill="white"/>
  <path d="M166.527 27.3062C167.982 28.0429 169.106 29.1023 169.918 30.4597C170.722 31.8254 171.128 33.398 171.128 35.1941C171.128 37.0813 170.713 38.7449 169.884 40.1768C169.056 41.6087 167.88 42.7261 166.366 43.5124C164.852 44.2987 163.093 44.696 161.089 44.696H158.044V52.7246H150.787V26.1971H161.486C163.397 26.1971 165.072 26.5613 166.527 27.3062ZM162.941 37.9421C163.44 37.3296 163.693 36.5019 163.693 35.4507C163.693 34.4244 163.431 33.5967 162.907 32.9759C162.383 32.3552 161.664 32.0406 160.767 32.0406H158.052V38.8525H160.767C161.706 38.8525 162.433 38.5463 162.941 37.9421Z" fill="white"/>
  <path d="M196.226 26.1971V32.0406H189.299V52.7329H182.042V32.0406H175.115V26.1971H196.226Z" fill="white"/>
  <path d="M207.099 51.8555C205.366 51.0278 204.021 49.869 203.065 48.3792C202.109 46.8894 201.636 45.1595 201.636 43.1979V26.1971H208.85V42.875C208.85 44.1911 209.239 45.2505 210.026 46.0534C210.804 46.8563 211.844 47.2536 213.138 47.2536C214.381 47.2536 215.388 46.8563 216.158 46.0534C216.927 45.2505 217.308 44.1911 217.308 42.875V26.1971H224.564V43.1979C224.564 45.1595 224.091 46.8894 223.135 48.3792C222.179 49.869 220.835 51.0361 219.101 51.8555C217.367 52.6832 215.363 53.097 213.096 53.097C210.838 53.0888 208.833 52.6749 207.099 51.8555Z" fill="white"/>
  <path d="M231.809 52.7329V26.1971H236.283L249.73 39.7878L249.544 26.1971H256.801V52.7329H252.369L238.921 39.1422L239.065 52.7329H231.809Z" fill="white"/>
  <path d="M271.561 46.8894H282.954V52.7329H264.305V26.1971H282.734V32.0406H271.561V36.4191H281.423V42.2626H271.561V46.8894Z" fill="white"/>
  <path d="M329.241 52.7329H321.985L321.249 38.8525L315.937 52.7329H312.165L306.854 38.927L306.118 52.7329H298.861L300.73 26.1971H308.867L314.034 40.9714L319.236 26.1971H327.372L329.241 52.7329Z" fill="white"/>
  <path d="M341.11 51.8555C339.376 51.0278 338.032 49.869 337.076 48.3792C336.12 46.8894 335.646 45.1595 335.646 43.1979V26.1971H342.861V42.875C342.861 44.1911 343.25 45.2505 344.036 46.0534C344.815 46.8563 345.855 47.2536 347.149 47.2536C348.392 47.2536 349.399 46.8563 350.168 46.0534C350.938 45.2505 351.319 44.1911 351.319 42.875V26.1971H358.575V43.1979C358.575 45.1595 358.102 46.8894 357.146 48.3792C356.19 49.869 354.845 51.0361 353.112 51.8555C351.378 52.6832 349.373 53.097 347.107 53.097C344.848 53.0888 342.844 52.6749 341.11 51.8555Z" fill="white"/>
  <path d="M385.085 26.1971V32.0406H378.158V52.7329H370.901V32.0406H363.975V26.1971H385.085Z" fill="white"/>
  <path d="M395.964 51.8555C394.23 51.0278 392.885 49.869 391.929 48.3792C390.974 46.8894 390.5 45.1595 390.5 43.1979V26.1971H397.714V42.875C397.714 44.1911 398.103 45.2505 398.89 46.0534C399.668 46.8563 400.708 47.2536 402.002 47.2536C403.246 47.2536 404.252 46.8563 405.022 46.0534C405.791 45.2505 406.172 44.1911 406.172 42.875V26.1971H413.429V43.1979C413.429 45.1595 412.955 46.8894 411.999 48.3792C411.044 49.869 409.699 51.0361 407.965 51.8555C406.231 52.6832 404.227 53.097 401.96 53.097C399.702 53.0888 397.697 52.6749 395.964 51.8555Z" fill="white"/>
  <path d="M436.139 52.7329L434.93 48.8924H426.058L424.814 52.7329H417.084L427.123 26.1971H433.83L443.869 52.7329H436.139ZM427.927 43.0489H433.052L430.489 35.0534L427.927 43.0489Z" fill="white"/>
  <path d="M455.945 46.8894H465.807V52.7329H448.697V26.1971H455.954V46.8894H455.945Z" fill="white"/>
  <rect x="253" y="58.4725" width="212.527" height="21.5237" rx="5.38186" fill="white"/>
  <path d="M269.281 74.6144C268.194 74.6144 267.229 74.3926 266.385 73.9489C265.552 73.4959 264.907 72.8635 264.45 72.0518C263.992 71.2401 263.764 70.3009 263.764 69.2344C263.764 68.1678 263.992 67.2287 264.45 66.4169C264.907 65.6052 265.552 64.9776 266.385 64.5339C267.229 64.0809 268.194 63.8544 269.281 63.8544C270.114 63.8544 270.866 64.0479 271.537 64.4348V66.5868C271.293 66.3414 270.983 66.1574 270.607 66.0347C270.241 65.9025 269.825 65.8365 269.357 65.8365C268.778 65.8365 268.265 65.9781 267.818 66.2612C267.371 66.5444 267.025 66.9455 266.781 67.4646C266.538 67.9743 266.416 68.5642 266.416 69.2344C266.416 69.9045 266.538 70.4991 266.781 71.0183C267.025 71.5279 267.371 71.9244 267.818 72.2075C268.265 72.4907 268.778 72.6323 269.357 72.6323C269.814 72.6323 270.231 72.5662 270.607 72.4341C270.983 72.3019 271.293 72.1179 271.537 71.8819V74.0339C270.866 74.4209 270.114 74.6144 269.281 74.6144Z" fill="black"/>
  <path d="M279.984 74.6144C278.897 74.6144 277.932 74.3926 277.089 73.9489C276.255 73.4959 275.61 72.8635 275.153 72.0518C274.696 71.2401 274.467 70.3009 274.467 69.2344C274.467 68.1678 274.696 67.2287 275.153 66.4169C275.61 65.6052 276.255 64.9776 277.089 64.5339C277.932 64.0809 278.897 63.8544 279.984 63.8544C281.072 63.8544 282.032 64.0809 282.865 64.5339C283.698 64.9776 284.343 65.6052 284.801 66.4169C285.258 67.2287 285.486 68.1678 285.486 69.2344C285.486 70.3009 285.258 71.2401 284.801 72.0518C284.343 72.8635 283.698 73.4959 282.865 73.9489C282.032 74.3926 281.072 74.6144 279.984 74.6144ZM279.984 72.6323C280.543 72.6323 281.036 72.4907 281.463 72.2075C281.9 71.9244 282.235 71.5279 282.469 71.0183C282.713 70.4991 282.834 69.9045 282.834 69.2344C282.834 68.5642 282.713 67.9743 282.469 67.4646C282.235 66.9455 281.9 66.5444 281.463 66.2612C281.036 65.9781 280.543 65.8365 279.984 65.8365C279.425 65.8365 278.928 65.9781 278.491 66.2612C278.054 66.5444 277.713 66.9455 277.47 67.4646C277.236 67.9743 277.119 68.5642 277.119 69.2344C277.119 69.9045 277.236 70.4991 277.47 71.0183C277.713 71.5279 278.054 71.9244 278.491 72.2075C278.928 72.4907 279.425 72.6323 279.984 72.6323Z" fill="black"/>
  <path d="M301.064 74.4728H298.488L298.153 68.2433L295.577 74.4728H294.205L291.645 68.2999L291.294 74.4728H288.718L289.45 63.9676H292.331L294.891 70.5227L297.452 63.9676H300.332L301.064 74.4728Z" fill="black"/>
  <path d="M316.887 74.4728H314.312L313.976 68.2433L311.4 74.4728H310.029L307.468 68.2999L307.118 74.4728H304.542L305.274 63.9676H308.154L310.715 70.5227L313.275 63.9676H316.156L316.887 74.4728Z" fill="black"/>
  <path d="M325.227 74.6144C324.303 74.6144 323.49 74.4586 322.789 74.1472C322.088 73.8262 321.544 73.3779 321.158 72.8022C320.772 72.217 320.579 71.5468 320.579 70.7917V63.9959H323.155V70.6926C323.155 71.2778 323.342 71.7498 323.718 72.1084C324.105 72.4577 324.613 72.6323 325.243 72.6323C325.852 72.6323 326.345 72.4529 326.721 72.0943C327.097 71.7356 327.285 71.2684 327.285 70.6926V63.9959H329.861V70.7917C329.861 71.5468 329.668 72.217 329.281 72.8022C328.895 73.3779 328.352 73.8262 327.651 74.1472C326.95 74.4586 326.142 74.6144 325.227 74.6144Z" fill="black"/>
  <path d="M333.89 74.4728V63.9959H335.475L341.404 70.098L341.343 63.9959H343.903V74.4728H342.333L336.404 68.3707L336.465 74.4728H333.89Z" fill="black"/>
  <path d="M348.046 74.4728V63.9959H350.622V74.4728H348.046Z" fill="black"/>
  <path d="M362.397 63.9959V65.9781H359.425V74.4728H356.849V65.9781H353.877V63.9959H362.397Z" fill="black"/>
  <path d="M371.601 63.9959H374.345L370.793 70.7776V74.4728H368.233V70.7776L364.697 63.9959H367.425L369.528 68.6539L371.601 63.9959Z" fill="black"/>
  <path d="M384.832 72.4907H389.71V74.4728H382.257V63.9959H389.603V65.9781H384.832V68.1867H389.1V70.1688H384.832V72.4907Z" fill="black"/>
  <path d="M397.644 63.9959C398.67 63.9959 399.574 64.213 400.356 64.6472C401.149 65.0814 401.759 65.6949 402.185 66.4877C402.622 67.2711 402.841 68.182 402.841 69.2202C402.841 70.2585 402.622 71.174 402.185 71.9668C401.759 72.7597 401.149 73.3779 400.356 73.8215C399.574 74.2557 398.67 74.4728 397.644 74.4728H393.406V63.9959H397.644ZM397.689 72.4907C398.187 72.4907 398.619 72.3585 398.985 72.0943C399.361 71.8205 399.65 71.4383 399.854 70.9475C400.067 70.4472 400.174 69.8715 400.174 69.2202C400.174 68.5784 400.067 68.0121 399.854 67.5213C399.65 67.0305 399.361 66.6529 398.985 66.3886C398.619 66.1149 398.187 65.9781 397.689 65.9781H395.982V72.4907H397.689Z" fill="black"/>
  <path d="M406.417 74.4728V63.9959H408.993V74.4728H406.417Z" fill="black"/>
  <path d="M420.767 63.9959V65.9781H417.795V74.4728H415.22V65.9781H412.248V63.9959H420.767Z" fill="black"/>
  <path d="M424.043 74.4728V63.9959H426.619V74.4728H424.043Z" fill="black"/>
  <path d="M435.681 74.6144C434.594 74.6144 433.628 74.3926 432.785 73.9489C431.952 73.4959 431.307 72.8635 430.849 72.0518C430.392 71.2401 430.163 70.3009 430.163 69.2344C430.163 68.1678 430.392 67.2287 430.849 66.4169C431.307 65.6052 431.952 64.9776 432.785 64.5339C433.628 64.0809 434.594 63.8544 435.681 63.8544C436.768 63.8544 437.728 64.0809 438.561 64.5339C439.395 64.9776 440.04 65.6052 440.497 66.4169C440.954 67.2287 441.183 68.1678 441.183 69.2344C441.183 70.3009 440.954 71.2401 440.497 72.0518C440.04 72.8635 439.395 73.4959 438.561 73.9489C437.728 74.3926 436.768 74.6144 435.681 74.6144ZM435.681 72.6323C436.24 72.6323 436.732 72.4907 437.159 72.2075C437.596 71.9244 437.931 71.5279 438.165 71.0183C438.409 70.4991 438.531 69.9045 438.531 69.2344C438.531 68.5642 438.409 67.9743 438.165 67.4646C437.931 66.9455 437.596 66.5444 437.159 66.2612C436.732 65.9781 436.24 65.8365 435.681 65.8365C435.122 65.8365 434.624 65.9781 434.187 66.2612C433.75 66.5444 433.41 66.9455 433.166 67.4646C432.932 67.9743 432.815 68.5642 432.815 69.2344C432.815 69.9045 432.932 70.4991 433.166 71.0183C433.41 71.5279 433.75 71.9244 434.187 72.2075C434.624 72.4907 435.122 72.6323 435.681 72.6323Z" fill="black"/>
  <path d="M444.75 74.4728V63.9959H446.335L452.264 70.098L452.203 63.9959H454.764V74.4728H453.194L447.265 68.3707L447.326 74.4728H444.75Z" fill="black"/>
</svg>
