<svg width="175" height="30" viewBox="0 0 175 30" fill="none" xmlns="http://www.w3.org/2000/svg">
<path d="M30.501 14.9991C30.501 22.8478 23.9964 29.2288 15.9497 29.2288C7.90302 29.2288 1.39844 22.8478 1.39844 14.9991C1.39844 7.15047 7.90302 0.769531 15.9497 0.769531C23.9964 0.769531 30.501 7.15048 30.501 14.9991Z" stroke="white"/>
<path d="M16.86 19.6022C16.5989 19.3798 16.1309 19.3333 15.6222 19.3964C15.1134 19.3267 14.6319 19.3765 14.3843 19.6022C14.5098 19.642 15.1542 19.8445 15.6493 19.8445C16.1478 19.8445 16.7617 19.6354 16.86 19.6022Z" fill="white"/>
<path d="M17.9133 22.1317C18.0795 21.8761 18.2355 21.6372 18.2796 21.3517C18.3406 20.9468 18.1779 20.585 18.0185 20.3361C17.8896 20.1403 17.6929 20.0009 17.4691 19.9245H17.4657C17.3402 19.8814 17.2147 19.8349 17.1129 19.7852C16.9434 19.9511 16.455 20.3527 15.6207 20.3527C14.8441 20.3527 14.2811 20.0009 14.0471 19.8217C13.9657 19.8548 13.8809 19.8847 13.7927 19.9146C13.657 19.9644 13.5316 20.0374 13.4298 20.1403C13.2535 20.3494 12.9245 20.824 13.0059 21.3749C13.05 21.6604 13.206 21.8993 13.3722 22.1549C13.6197 22.53 13.8877 23.0909 13.6672 23.6949C13.6333 23.7912 13.5858 23.8874 13.5248 23.9837C13.5723 24.06 13.7859 24.3222 14.0912 24.5844C14.4507 24.8964 14.9526 25.2084 15.502 25.2482C15.4376 25.1586 15.3596 24.9993 15.4511 24.8665C15.4749 24.82 15.5224 24.7703 15.58 24.7072C15.7699 24.4815 16.0887 24.1197 15.9768 23.7812L15.9395 23.6584L16.0514 23.7281C16.0616 23.7414 16.3634 23.9538 15.9904 24.7503C15.8852 24.9661 15.8751 25.1652 15.9463 25.3312C16.0378 25.5469 16.2447 25.6631 16.3499 25.7095C16.377 25.4838 16.533 24.7304 17.1537 24.7238C17.3707 24.7238 17.7539 24.5645 17.9845 24.3156C17.33 23.5389 17.6251 22.5665 17.9133 22.1317Z" fill="white"/>
<path d="M17.7682 17.5896C17.5783 17.4237 17.4019 17.2644 17.2628 17.1449C17.2459 17.2411 17.1679 17.3606 16.9508 17.4901C16.9305 17.5 16.9067 17.5133 16.8864 17.5266C16.6626 17.656 16.3166 17.7821 15.7774 17.9149C15.7299 17.9282 15.523 17.9348 15.4823 17.9215C15.4586 17.9149 15.4315 17.9116 15.4111 17.9049C14.9024 17.7755 14.57 17.6494 14.3598 17.5266C14.041 17.3606 13.9697 17.208 13.9697 17.0918C13.8714 17.1814 13.7561 17.2976 13.617 17.4237C13.2711 17.749 12.8472 18.1638 12.4504 18.4957C11.6737 19.1628 11.243 21.3567 11.5245 22.4055C11.6296 22.8137 11.8772 23.1257 12.0909 23.3945C12.352 23.7331 12.5792 24.0251 12.4639 24.3836C12.4232 24.5031 12.43 24.606 12.4877 24.7022C12.586 24.8748 12.8472 25.0142 13.227 25.1104C13.0337 24.9611 12.6606 24.4898 13.0778 23.5771C13.2168 23.1722 13.0846 22.9365 12.8031 22.5117C12.6132 22.2229 12.3995 21.8977 12.3351 21.4695C12.1723 20.3743 13.1897 19.5346 13.227 19.4981C13.227 19.4981 13.3491 19.3454 13.4474 19.3321C13.8002 19.289 14.3598 18.7446 14.8583 18.9239C15.1635 19.04 15.4382 19.0666 15.601 19.0732V19.0666C15.601 19.0666 15.6214 19.0732 15.6519 19.0732C15.679 19.0732 15.713 19.0732 15.7503 19.0666C15.8825 19.06 16.103 19.0334 16.3913 18.9239C16.8796 18.7446 17.5308 19.3089 17.8835 19.352C17.9649 19.362 18.0225 19.4084 18.0632 19.4748C18.07 19.4815 18.0802 19.4914 18.0971 19.5113C18.2837 19.674 19.0976 20.4572 18.9518 21.4463C18.8874 21.8744 18.6737 22.1997 18.4838 22.4885C18.2396 22.8569 18.226 23.1921 18.321 23.5937C18.3447 23.6667 18.3651 23.743 18.382 23.8227C18.3854 23.8293 18.3854 23.8359 18.3888 23.8426C18.4804 24.2342 18.4804 24.6823 18.0937 25.044C18.0734 25.0673 18.0531 25.0872 18.0327 25.1038C18.2633 25.054 18.6194 24.9213 18.7449 24.7022C18.8026 24.606 18.8161 24.5031 18.772 24.3836C18.6533 24.0251 18.8806 23.7331 19.1417 23.3945C19.3588 23.1257 19.6063 22.8137 19.7115 22.4055C19.9896 21.3567 19.5589 19.1628 18.7856 18.4957C18.4566 18.2236 18.0938 17.885 17.7682 17.5896Z" fill="white"/>
<path d="M21.4579 18.077C21.4579 18.0239 21.4681 17.9675 21.4816 17.9111C21.485 17.9044 21.485 17.8945 21.4884 17.8878C21.5359 17.6821 21.5596 17.4796 21.5664 17.2838C21.5766 16.8855 21.5088 16.5204 21.4274 16.2151C21.2917 15.7471 21.112 15.4219 21.0814 15.3654C21.078 15.3588 21.0747 15.3555 21.0747 15.3555C20.9661 15.5247 20.6439 16.0525 20.359 16.6963C20.1895 17.0747 20.0369 17.4929 19.9521 17.8978C19.908 18.1069 19.8809 18.3127 19.8809 18.5085C19.8809 19.0594 20.0708 19.4743 20.2573 19.8826C20.5117 20.4435 20.7728 21.0243 20.5524 21.9436C21.0339 21.396 21.3324 20.6658 20.9526 19.7797C20.9526 19.7797 21.3392 19.8427 21.4138 20.324C21.5562 20.2012 21.9089 19.8494 21.9089 19.3316C21.9089 18.9698 21.7835 18.7906 21.6614 18.6114C21.5562 18.4587 21.4579 18.3193 21.4579 18.077Z" fill="white"/>
<path d="M10.0495 14.2845C10.1139 14.2679 10.1715 14.2348 10.2326 14.2082C10.2462 14.1949 10.2631 14.1916 10.2767 14.185V14.1783C10.297 14.1717 10.3106 14.1584 10.3309 14.1452C11.2093 13.5245 11.345 11.2908 12.2539 10.7233C12.4506 10.554 12.8237 10.3682 13.4409 10.1823C13.8784 10.0529 14.2481 9.76078 14.455 9.36914C12.9492 9.49526 11.5654 9.84708 10.4497 10.3516C10.3445 10.5076 10.1037 10.8461 9.97823 11.0054C9.5543 11.5663 9.06932 12.1969 8.94723 12.9337C9.02523 12.9204 9.18802 12.874 9.45595 12.6848L9.56109 12.6118L9.52717 12.7346C9.42882 13.0532 9.34404 13.3586 9.22195 13.571C8.89637 14.1518 8.90315 14.9517 8.98793 15.5922C9.03541 15.944 9.10663 16.2494 9.16089 16.4485C9.16767 16.3921 9.18124 16.3224 9.19481 16.2527C9.19481 16.2527 9.19481 16.2527 9.19481 16.2461C9.20159 16.1067 9.21516 15.9473 9.2389 15.7748C9.32369 15.1707 9.53734 14.4604 10.0495 14.2845Z" fill="white"/>
<path d="M11.1019 9.01091C12.4415 8.5728 14.0084 8.3239 15.6973 8.3239C17.3388 8.3239 18.8615 8.55953 20.1706 8.9744C20.1978 8.93125 20.2215 8.88811 20.2453 8.84828C20.3707 8.62923 20.4928 8.42013 20.6115 8.20772L22.1072 5.66207L19.299 6.35573L19.8077 6.62456C20.0825 6.7706 20.2079 7.07927 20.1028 7.34147C19.9841 7.62027 19.6585 7.76298 19.3669 7.65346C18.597 7.34811 17.7729 7.14233 16.9115 7.02616C16.6401 6.98966 16.4366 6.754 16.4366 6.47853C16.4366 6.13999 16.7181 5.86452 17.0641 5.86452H17.4677L15.6261 3.63086L13.7811 5.86452H14.1847C14.5307 5.86452 14.8121 6.13999 14.8121 6.47853C14.8121 6.754 14.6086 6.98966 14.3373 7.02616C13.4216 7.14233 12.5297 7.37798 11.6886 7.73643H11.6411C11.3359 7.64682 11.1324 7.44104 11.1053 7.19211C11.0883 6.9631 11.1969 6.74736 11.4071 6.64447L11.9498 6.35573L9.14502 5.66207L10.6305 8.20107C10.7865 8.47655 10.9459 8.73875 11.1019 9.01091Z" fill="white"/>
<path d="M21.7105 12.7348L21.68 12.612L21.7817 12.685C22.0836 12.8941 22.3379 12.9571 22.4465 12.9837C22.3244 12.2801 21.8088 11.6561 21.351 11.1018C21.2153 10.9359 21.056 10.604 20.9203 10.3418C19.774 9.82734 18.3428 9.47222 16.7827 9.35938C16.9218 9.62821 17.0913 9.8738 17.3287 10.0464C17.3321 10.0464 17.3389 10.053 17.3389 10.053C17.4848 10.1227 17.634 10.1758 17.79 10.1991C17.8748 10.2123 17.9731 10.2256 18.085 10.2256C18.1359 10.2256 18.1868 10.2323 18.241 10.2389C18.475 10.2754 18.6718 10.3982 18.8413 10.5774C18.8719 10.6073 18.9126 10.6405 18.9465 10.6803C18.9499 10.687 18.9634 10.6969 18.9702 10.7102C19.7469 11.5864 20.0216 13.5247 20.9101 14.1453C20.9271 14.1586 20.9406 14.1719 20.961 14.1785C20.9746 14.1918 20.9949 14.1951 21.0051 14.2017C21.0661 14.2349 21.1238 14.2681 21.1882 14.2847C21.7275 14.4706 21.9377 15.2472 22.0123 15.8679C22.0259 16.004 22.0361 16.1334 22.0429 16.2462C22.0429 16.2529 22.0429 16.2529 22.0429 16.2529C22.0564 16.3226 22.07 16.3923 22.0768 16.4487C22.1209 16.2761 22.1819 16.0205 22.2294 15.7185C22.3311 15.058 22.3684 14.1918 22.0157 13.5712C21.9004 13.372 21.8224 13.1098 21.7105 12.7348Z" fill="white"/>
<path d="M10.8305 16.6167C10.5591 16.0093 10.2539 15.5148 10.1522 15.3555C10.1522 15.3555 10.1488 15.3588 10.1454 15.3654C10.1149 15.4219 9.95207 15.7139 9.82319 16.1421C9.73502 16.4408 9.6604 16.8059 9.6604 17.2041C9.6604 17.4265 9.68415 17.6522 9.73841 17.8878C9.7418 17.8945 9.7418 17.9044 9.74519 17.9111C9.75875 17.9675 9.76893 18.0239 9.76893 18.077C9.76893 18.3193 9.67058 18.4587 9.56544 18.6114C9.44335 18.7906 9.31787 18.9698 9.31787 19.3316C9.31787 19.8494 9.67058 20.2012 9.81302 20.324C9.88763 19.8427 10.2743 19.7797 10.2743 19.7797C9.89441 20.6658 10.1929 21.396 10.6745 21.9436C10.454 21.0243 10.7151 20.4435 10.9695 19.8826C11.156 19.4743 11.346 19.0594 11.346 18.5085C11.346 18.2961 11.3154 18.0704 11.2646 17.8447C11.1696 17.4265 11.0068 16.9984 10.8305 16.6167Z" fill="white"/>
<path d="M16.2669 13.2912C16.2669 13.2779 16.2669 13.2646 16.2737 13.2547C16.294 13.2049 16.4331 13.1319 16.6366 13.0456C17.3115 12.7668 18.6206 12.3884 18.9156 12.3619C19.0106 12.3585 19.1293 12.405 19.2514 12.488V12.4847C19.2548 12.488 19.2616 12.4913 19.2649 12.4946C18.9326 11.7047 18.5086 11.021 17.81 11.021C16.9147 11.021 16.3551 10.1415 16.0227 9.32831H16.0193V9.32498C15.9108 9.31835 15.8023 9.31836 15.6937 9.31836C15.6666 9.31836 15.6395 9.31834 15.6123 9.32166C15.4733 9.31834 15.3376 9.32167 15.202 9.32831C14.8662 10.1415 14.31 11.021 13.4113 11.021C12.7126 11.021 12.2887 11.7047 11.9564 12.4946C11.9598 12.4913 11.9665 12.488 11.9699 12.4847V12.488C12.092 12.405 12.2107 12.3585 12.3057 12.3619C12.6007 12.3884 13.9098 12.7668 14.5847 13.0456C14.7882 13.1319 14.9273 13.2049 14.9476 13.2547C14.951 13.2646 14.9544 13.2779 14.9544 13.2978L14.9578 15.5813C14.7747 15.402 14.6729 14.8809 14.6186 14.4694C14.6119 14.4628 14.6017 14.4594 14.5949 14.4528V14.4495C14.5881 14.4462 14.5813 14.4429 14.578 14.4395C14.5373 14.4163 14.4966 14.3964 14.4559 14.3798C14.4389 14.3765 14.4253 14.3698 14.4118 14.3665C14.3643 14.3532 14.3168 14.3433 14.2693 14.3399C14.2659 14.3399 14.2659 14.3399 14.2625 14.3399C14.2625 14.3399 14.2625 14.3399 14.2592 14.3399C14.0251 14.3399 13.6996 14.4794 13.2214 14.4694C13.1535 14.4694 13.0823 14.4661 13.0077 14.4561C12.7296 14.4229 12.4549 14.3167 12.2243 14.1541L11.9699 13.9848C11.9699 13.9848 12.2853 13.5865 12.9908 13.5932C13.0891 13.5965 13.1976 13.6065 13.3129 13.6264C13.469 13.6529 13.6114 13.6762 13.7504 13.6994C14.0726 13.7525 14.3473 13.8023 14.5474 13.9251C14.5508 13.9284 14.5576 13.9284 14.5644 13.9317C14.5135 13.8554 14.4558 13.7857 14.3982 13.7226C14.3711 13.6894 14.3406 13.6596 14.31 13.6297C14.2897 13.6098 14.2727 13.5866 14.249 13.5666C13.6589 13.0223 12.872 12.9559 12.2412 13.0223C12.0513 13.0422 11.8716 13.0754 11.7224 13.1086C11.3832 14.028 11.217 14.8876 10.7286 14.8909H10.7253C10.6913 14.8909 10.654 14.8909 10.6201 14.9042V14.9075C10.6201 14.9075 10.6269 14.9141 10.6303 14.9175L11.4714 16.2517C11.5019 16.3181 11.529 16.3844 11.5494 16.4475C11.6003 16.6566 11.6749 16.8325 11.7597 16.9852C11.7902 17.0449 11.8241 17.098 11.8546 17.1478C11.8885 17.2009 11.9224 17.2474 11.9564 17.2905C11.9869 17.3303 12.0174 17.3702 12.0445 17.4034C12.1056 17.4731 12.1564 17.5295 12.1971 17.5726C12.2175 17.5892 12.6177 17.4631 12.8076 17.3602C12.8653 17.3304 12.9263 17.2972 12.9908 17.2673C13.062 17.2275 13.1366 17.191 13.2146 17.1545C13.4486 17.0516 13.9844 16.869 13.9878 16.869C14.0319 16.6234 14.1438 16.1886 14.4559 16.1488C14.5 16.1455 14.5474 16.1455 14.5983 16.1588C14.7611 16.1953 14.8289 16.3546 14.8594 16.4475C14.8425 16.4309 14.8255 16.4276 14.8018 16.4276C14.8018 16.4276 14.7984 16.4276 14.795 16.4276C14.7509 16.4309 14.6831 16.4409 14.561 16.4276C14.5576 16.4276 14.5542 16.4276 14.5542 16.4276C14.5406 16.4276 14.5271 16.4243 14.5169 16.4243C14.2897 16.4243 14.3066 16.6831 14.3304 16.8723V16.8757C14.3304 16.8757 14.4626 16.9354 14.6424 17.015C14.6933 17.0383 14.7475 17.0615 14.8052 17.0881C14.8798 17.1213 14.9544 17.1544 15.0324 17.1876C15.2902 17.2938 15.5411 17.3934 15.6123 17.4067C15.6157 17.4067 15.6191 17.4067 15.6191 17.4067C15.7582 17.4133 16.7553 16.9454 16.8773 16.8889C16.8875 16.8856 16.8909 16.8823 16.8909 16.8823C16.8909 16.8823 16.8909 16.879 16.8909 16.8757V16.8723C16.9147 16.6831 16.9316 16.4243 16.7044 16.4243C16.6942 16.4243 16.6806 16.4276 16.6671 16.4276C16.6637 16.4276 16.6637 16.4276 16.6603 16.4276C16.6264 16.4243 16.5077 16.4143 16.4263 16.4276C16.4229 16.4276 16.4229 16.4276 16.4195 16.4276C16.3958 16.4276 16.3788 16.4309 16.3619 16.4475C16.3924 16.3546 16.4602 16.1953 16.623 16.1588C16.6739 16.1455 16.7214 16.1455 16.7654 16.1488C17.0775 16.1886 17.1894 16.6234 17.2335 16.869C17.2369 16.869 17.7727 17.0516 18.0067 17.1545C18.0678 17.1843 18.1288 17.2142 18.1865 17.2441C18.2679 17.2839 18.3459 17.3237 18.4137 17.3602C18.6036 17.4631 19.0038 17.5892 19.0241 17.5726C19.0648 17.5295 19.1157 17.4731 19.1768 17.4034C19.2039 17.3702 19.2344 17.3303 19.2649 17.2905C19.2989 17.2474 19.3328 17.2009 19.3667 17.1478C19.3972 17.098 19.4311 17.0449 19.4617 16.9852C19.4718 16.9686 19.482 16.9487 19.4922 16.9288C19.5091 16.8956 19.5261 16.8591 19.543 16.8192C19.56 16.7827 19.5769 16.7429 19.5905 16.7031C19.6075 16.6632 19.621 16.6234 19.6346 16.5803C19.6482 16.5371 19.6618 16.494 19.6719 16.4475C19.6923 16.3844 19.7194 16.3181 19.7499 16.2517L20.6215 14.9341C20.6249 14.9307 20.6317 14.9241 20.6317 14.9241V14.9208C20.5978 14.9075 20.5605 14.9075 20.5266 14.9075H20.5232C20.0348 14.9042 19.8381 14.028 19.499 13.1086C19.3497 13.0754 19.17 13.0422 18.9801 13.0223C18.3492 12.9559 17.5624 13.0223 16.9723 13.5666C16.9486 13.5866 16.9316 13.6098 16.9113 13.6297C16.8808 13.6596 16.8502 13.6894 16.8231 13.7226C16.7654 13.7857 16.7078 13.8554 16.6569 13.9317C16.6637 13.9284 16.6705 13.9284 16.6739 13.9251C16.874 13.8023 17.1487 13.7525 17.4709 13.6994C17.6099 13.6762 17.7524 13.6529 17.9084 13.6264C18.0237 13.6065 18.1322 13.5965 18.2306 13.5932C18.936 13.5865 19.2514 13.9848 19.2514 13.9848L18.997 14.1541C18.7664 14.3167 18.4917 14.4229 18.2136 14.4561C18.139 14.4661 18.0678 14.4694 17.9999 14.4694H17.9525C17.498 14.4694 17.1894 14.3399 16.9621 14.3399C16.9587 14.3399 16.9588 14.3399 16.9588 14.3399C16.9554 14.3399 16.9554 14.3399 16.952 14.3399C16.9045 14.3433 16.857 14.3532 16.8095 14.3665C16.796 14.3698 16.7824 14.3765 16.7654 14.3798C16.7247 14.3964 16.6841 14.4163 16.6434 14.4395C16.64 14.4429 16.6332 14.4462 16.6264 14.4495V14.4528C16.6196 14.4594 16.6094 14.4628 16.6026 14.4694C16.5484 14.8809 16.4466 15.402 16.2635 15.5813L16.2669 13.2978V13.2912Z" fill="white"/>
<path d="M35.4844 19.8651V10.0039H37.147L42.1444 15.0544L42.0753 10.0039H44.772V19.8651H43.1251L38.1277 14.8145L38.1811 19.8651H35.4844Z" fill="white"/>
<path d="M50.2602 17.6935H54.4939V19.8651H47.5635V10.0039H54.4121V12.1755H50.257V13.8026H53.9218V15.9741H50.257V17.6935H50.2602Z" fill="white"/>
<path d="M62.7828 10.4161C63.3234 10.6898 63.7414 11.0835 64.0431 11.588C64.3417 12.0955 64.4926 12.6799 64.4926 13.3474C64.4926 14.0486 64.3386 14.6669 64.0305 15.199C63.7225 15.7311 63.2856 16.1464 62.723 16.4386C62.1604 16.7308 61.5067 16.8784 60.7618 16.8784H59.6303V19.862H56.9336V10.0039H60.9095C61.6198 10.0039 62.2422 10.1392 62.7828 10.4161ZM61.4501 14.3685C61.6355 14.1409 61.7298 13.8333 61.7298 13.4427C61.7298 13.0613 61.6324 12.7537 61.4375 12.523C61.2427 12.2923 60.9755 12.1755 60.6424 12.1755H59.6335V14.7069H60.6424C60.9912 14.7069 61.2615 14.5931 61.4501 14.3685Z" fill="white"/>
<path d="M73.8196 10.0039V12.1755H71.2455V19.8651H68.5487V12.1755H65.9746V10.0039H73.8196Z" fill="white"/>
<path d="M77.8615 19.539C77.2171 19.2314 76.7174 18.8008 76.3622 18.2472C76.0071 17.6935 75.8311 17.0507 75.8311 16.3217V10.0039H78.5121V16.2017C78.5121 16.6908 78.6566 17.0845 78.9489 17.3829C79.2381 17.6812 79.6247 17.8289 80.1056 17.8289C80.5676 17.8289 80.9416 17.6812 81.2276 17.3829C81.5136 17.0845 81.6551 16.6908 81.6551 16.2017V10.0039H84.3518V16.3217C84.3518 17.0507 84.1758 17.6935 83.8206 18.2472C83.4655 18.8008 82.9657 19.2345 82.3214 19.539C81.6771 19.8466 80.9322 20.0004 80.0899 20.0004C79.2507 19.9973 78.5058 19.8435 77.8615 19.539Z" fill="white"/>
<path d="M87.042 19.8651V10.0039H88.7046L93.7021 15.0544L93.6329 10.0039H96.3296V19.8651H94.6827L89.6853 14.8145L89.7387 19.8651H87.042Z" fill="white"/>
<path d="M101.815 17.6935H106.049V19.8651H99.1182V10.0039H105.967V12.1755H101.815V13.8026H105.48V15.9741H101.815V17.6935Z" fill="white"/>
<path d="M123.251 19.8651H120.554L120.281 14.7069L118.307 19.8651H116.905L114.931 14.7346L114.658 19.8651H111.961L112.656 10.0039H115.679L117.6 15.4943L119.532 10.0039H122.556L123.251 19.8651Z" fill="white"/>
<path d="M127.661 19.539C127.017 19.2314 126.517 18.8008 126.162 18.2472C125.807 17.6935 125.631 17.0507 125.631 16.3217V10.0039H128.312V16.2017C128.312 16.6908 128.456 17.0845 128.749 17.3829C129.038 17.6812 129.424 17.8289 129.905 17.8289C130.367 17.8289 130.741 17.6812 131.027 17.3829C131.313 17.0845 131.455 16.6908 131.455 16.2017V10.0039H134.152V16.3217C134.152 17.0507 133.976 17.6935 133.62 18.2472C133.265 18.8008 132.766 19.2345 132.121 19.539C131.477 19.8466 130.732 20.0004 129.89 20.0004C129.05 19.9973 128.306 19.8435 127.661 19.539Z" fill="white"/>
<path d="M144.004 10.0039V12.1755H141.43V19.8651H138.733V12.1755H136.159V10.0039H144.004Z" fill="white"/>
<path d="M148.047 19.539C147.403 19.2314 146.903 18.8008 146.548 18.2472C146.193 17.6935 146.017 17.0507 146.017 16.3217V10.0039H148.698V16.2017C148.698 16.6908 148.842 17.0845 149.134 17.3829C149.424 17.6812 149.81 17.8289 150.291 17.8289C150.753 17.8289 151.127 17.6812 151.413 17.3829C151.699 17.0845 151.841 16.6908 151.841 16.2017V10.0039H154.537V16.3217C154.537 17.0507 154.361 17.6935 154.006 18.2472C153.651 18.8008 153.151 19.2345 152.507 19.539C151.863 19.8466 151.118 20.0004 150.275 20.0004C149.436 19.9973 148.691 19.8435 148.047 19.539Z" fill="white"/>
<path d="M162.977 19.8651L162.527 18.4379H159.23L158.768 19.8651H155.896L159.626 10.0039H162.119L165.849 19.8651H162.977ZM159.925 16.2663H161.83L160.877 13.295L159.925 16.2663Z" fill="white"/>
<path d="M170.337 17.6935H174.002V19.8651H167.644V10.0039H170.34V17.6935H170.337Z" fill="white"/>
<rect x="151" y="22" width="23" height="8" rx="2" fill="white"/>
<path d="M157.317 25.9487C157.539 25.9981 157.717 26.114 157.852 26.2963C157.986 26.4748 158.053 26.68 158.053 26.9117C158.053 27.246 157.941 27.5119 157.715 27.7094C157.494 27.9031 157.183 28 156.783 28H155V24H156.723C157.112 24 157.415 24.0931 157.634 24.2792C157.855 24.4653 157.966 24.7179 157.966 25.037C157.966 25.2726 157.906 25.4682 157.786 25.6239C157.67 25.7797 157.514 25.8879 157.317 25.9487ZM155.932 25.6182H156.543C156.696 25.6182 156.812 25.584 156.892 25.5157C156.976 25.4435 157.017 25.339 157.017 25.2023C157.017 25.0655 156.976 24.9611 156.892 24.8889C156.812 24.8167 156.696 24.7806 156.543 24.7806H155.932V25.6182ZM156.619 27.2137C156.776 27.2137 156.896 27.1776 156.979 27.1054C157.067 27.0294 157.11 26.9212 157.11 26.7806C157.11 26.6401 157.065 26.5299 156.974 26.4501C156.887 26.3704 156.765 26.3305 156.608 26.3305H155.932V27.2137H156.619Z" fill="#01052D"/>
<path d="M160.072 24.7806V25.5897H161.32V26.3419H160.072V27.2194H161.484V28H159.139V24H161.484V24.7806H160.072Z" fill="#01052D"/>
<path d="M165.388 24V24.7806H164.374V28H163.442V24.7806H162.427V24H165.388Z" fill="#01052D"/>
<path d="M168.784 27.2934H167.356L167.127 28H166.151L167.535 24H168.615L170 28H169.013L168.784 27.2934ZM168.544 26.5413L168.07 25.0769L167.601 26.5413H168.544Z" fill="#01052D"/>
</svg>
