<svg width="242" height="41" viewBox="0 0 242 41" fill="none" xmlns="http://www.w3.org/2000/svg">
<path d="M46.9111 26.6254V12.4805H49.2408L56.243 19.725L56.1461 12.4805H59.9247V26.6254H57.617L50.6148 19.3808L50.6897 26.6254H46.9111Z" fill="#01052D"/>
<path d="M67.6145 23.5105H73.5466V26.6254H63.8359V12.4805H73.4321V15.5953H67.6101V17.9293H72.745V21.0442H67.6101V23.5105H67.6145Z" fill="#01052D"/>
<path d="M85.1586 13.0717C85.916 13.4643 86.5018 14.0291 86.9245 14.7527C87.3429 15.4806 87.5543 16.3189 87.5543 17.2763C87.5543 18.2823 87.3385 19.1691 86.9069 19.9324C86.4753 20.6956 85.8632 21.2912 85.0749 21.7104C84.2866 22.1295 83.3706 22.3413 82.3269 22.3413H80.7414V26.621H76.9629V12.4805H82.5338C83.5247 12.4805 84.4011 12.679 85.1586 13.0717ZM83.2869 18.7411C83.5467 18.4146 83.6788 17.9734 83.6788 17.4131C83.6788 16.866 83.5423 16.4248 83.2693 16.0939C82.9962 15.763 82.6219 15.5953 82.1551 15.5953H80.7414V19.2264H82.1551C82.6483 19.2264 83.0271 19.0632 83.2869 18.7411Z" fill="#01052D"/>
<path d="M100.621 12.4805V15.5953H97.0143V26.6254H93.2357V15.5953H89.6289V12.4805H100.621Z" fill="#01052D"/>
<path d="M106.289 26.1577C105.386 25.7165 104.686 25.0988 104.189 24.3046C103.691 23.5105 103.444 22.5884 103.444 21.5427V12.4805H107.201V21.3707C107.201 22.0722 107.403 22.6369 107.813 23.0649C108.218 23.4928 108.76 23.7046 109.434 23.7046C110.081 23.7046 110.605 23.4928 111.006 23.0649C111.407 22.6369 111.605 22.0722 111.605 21.3707V12.4805H115.383V21.5427C115.383 22.5884 115.137 23.5105 114.639 24.3046C114.141 25.0988 113.441 25.7209 112.538 26.1577C111.636 26.5989 110.592 26.8195 109.412 26.8195C108.236 26.8151 107.192 26.5945 106.289 26.1577Z" fill="#01052D"/>
<path d="M119.147 26.6254V12.4805H121.477L128.479 19.725L128.382 12.4805H132.161V26.6254H129.853L122.851 19.3808L122.926 26.6254H119.147Z" fill="#01052D"/>
<path d="M139.851 23.5105H145.783V26.6254H136.072V12.4805H145.668V15.5953H139.846V17.9293H144.981V21.0442H139.846V23.5105H139.851Z" fill="#01052D"/>
<path d="M169.886 26.6254H166.108L165.725 19.2264L162.959 26.6254H160.995L158.229 19.2661L157.846 26.6254H154.067L155.041 12.4805H159.277L161.968 20.3559L164.676 12.4805H168.913L169.886 26.6254Z" fill="#01052D"/>
<path d="M176.069 26.1577C175.166 25.7165 174.466 25.0988 173.968 24.3046C173.47 23.5105 173.224 22.5884 173.224 21.5427V12.4805H176.98V21.3707C176.98 22.0722 177.183 22.6369 177.592 23.0649C177.997 23.4928 178.539 23.7046 179.213 23.7046C179.86 23.7046 180.384 23.4928 180.785 23.0649C181.186 22.6369 181.384 22.0722 181.384 21.3707V12.4805H185.163V21.5427C185.163 22.5884 184.916 23.5105 184.418 24.3046C183.921 25.0988 183.22 25.7209 182.318 26.1577C181.415 26.5945 180.371 26.8195 179.191 26.8195C178.011 26.8151 176.971 26.5945 176.069 26.1577Z" fill="#01052D"/>
<path d="M198.964 12.4805V15.5953H195.357V26.6254H191.578V15.5953H187.972V12.4805H198.964Z" fill="#01052D"/>
<path d="M204.633 26.1577C203.73 25.7165 203.03 25.0988 202.532 24.3046C202.035 23.5105 201.788 22.5884 201.788 21.5427V12.4805H205.545V21.3707C205.545 22.0722 205.747 22.6369 206.157 23.0649C206.562 23.4928 207.104 23.7046 207.777 23.7046C208.425 23.7046 208.949 23.4928 209.35 23.0649C209.75 22.6369 209.949 22.0722 209.949 21.3707V12.4805H213.727V21.5427C213.727 22.5884 213.48 23.5105 212.983 24.3046C212.485 25.0988 211.785 25.7209 210.882 26.1577C209.979 26.5989 208.936 26.8195 207.755 26.8195C206.575 26.8151 205.536 26.5945 204.633 26.1577Z" fill="#01052D"/>
<path d="M225.542 26.6254L224.912 24.5782H220.293L219.645 26.6254H215.62L220.848 12.4805H224.34L229.567 26.6254H225.542ZM221.27 21.4633H223.939L222.605 17.2013L221.27 21.4633Z" fill="#01052D"/>
<path d="M235.865 23.5105H241V26.6254H232.087V12.4805H235.865V23.5105Z" fill="#01052D"/>
<rect x="209" y="29" width="32.0213" height="11.1379" rx="2.78446" fill="#01052D"/>
<path d="M217.796 34.4982C218.104 34.567 218.352 34.7283 218.54 34.9821C218.727 35.2307 218.82 35.5163 218.82 35.8389C218.82 36.3043 218.664 36.6745 218.35 36.9495C218.041 37.2192 217.608 37.3541 217.052 37.3541H214.569V31.7852H216.968C217.51 31.7852 217.932 31.9147 218.236 32.1739C218.545 32.433 218.699 32.7847 218.699 33.229C218.699 33.5568 218.615 33.8292 218.448 34.046C218.286 34.2629 218.069 34.4136 217.796 34.4982ZM215.867 34.0381H216.718C216.93 34.0381 217.092 33.9905 217.203 33.8953C217.32 33.7948 217.378 33.6494 217.378 33.459C217.378 33.2686 217.32 33.1232 217.203 33.0227C217.092 32.9222 216.93 32.872 216.718 32.872H215.867V34.0381ZM216.824 36.2593C217.042 36.2593 217.209 36.2091 217.325 36.1086C217.446 36.0028 217.507 35.8521 217.507 35.6564C217.507 35.4608 217.444 35.3074 217.317 35.1963C217.196 35.0853 217.026 35.0297 216.809 35.0297H215.867V36.2593H216.824Z" fill="white"/>
<path d="M221.631 32.872V33.9984H223.369V35.0456H221.631V36.2673H223.597V37.3541H220.332V31.7852H223.597V32.872H221.631Z" fill="white"/>
<path d="M229.032 31.7852V32.872H227.62V37.3541H226.322V32.872H224.91V31.7852H229.032Z" fill="white"/>
<path d="M233.76 36.3704H231.771L231.452 37.3541H230.093L232.022 31.7852H233.525L235.453 37.3541H234.079L233.76 36.3704ZM233.426 35.3233L232.766 33.2845L232.113 35.3233H233.426Z" fill="white"/>
<path d="M20 40.0736C31.0457 40.0736 40 31.1028 40 20.0368C40 8.97078 31.0457 0 20 0C8.9543 0 0 8.97078 0 20.0368C0 31.1028 8.9543 40.0736 20 40.0736Z" fill="#01052D"/>
<path d="M21.4294 26.2943C21.0824 25.9918 20.4605 25.9286 19.7845 26.0144C19.1086 25.9195 18.4686 25.9873 18.1396 26.2943C18.3064 26.3485 19.1626 26.6239 19.8206 26.6239C20.483 26.6239 21.2987 26.3394 21.4294 26.2943Z" fill="white"/>
<path d="M22.8308 29.7369C23.0517 29.3893 23.259 29.0642 23.3175 28.6759C23.3987 28.1251 23.1823 27.633 22.9705 27.2944C22.7993 27.028 22.5379 26.8384 22.2405 26.7345H22.236C22.0692 26.6759 21.9025 26.6126 21.7673 26.5449C21.542 26.7707 20.893 27.317 19.7844 27.317C18.7524 27.317 18.0043 26.8384 17.6934 26.5946C17.5852 26.6397 17.4726 26.6804 17.3554 26.721C17.1751 26.7887 17.0084 26.888 16.8732 27.028C16.6389 27.3124 16.2017 27.9581 16.3099 28.7075C16.3685 29.0958 16.5758 29.4209 16.7966 29.7685C17.1256 30.2787 17.4816 31.0417 17.1886 31.8634C17.1436 31.9943 17.0805 32.1252 16.9994 32.2562C17.0625 32.36 17.3464 32.7167 17.752 33.0734C18.2297 33.4978 18.8966 33.9221 19.6267 33.9763C19.5411 33.8544 19.4374 33.6377 19.5591 33.4571C19.5906 33.3939 19.6537 33.3262 19.7303 33.2404C19.9827 32.9334 20.4063 32.4413 20.2576 31.9808L20.208 31.8137L20.3567 31.9085C20.3703 31.9266 20.7713 32.2155 20.2756 33.2991C20.1359 33.5926 20.1224 33.8635 20.217 34.0892C20.3387 34.3827 20.6136 34.5407 20.7533 34.6039C20.7894 34.2969 20.9967 33.272 21.8214 33.263C22.1098 33.263 22.619 33.0463 22.9255 32.7077C22.0557 31.6512 22.4478 30.3283 22.8308 29.7369Z" fill="white"/>
<path d="M22.638 23.56C22.3857 23.3343 22.1513 23.1176 21.9666 22.955C21.944 23.086 21.8404 23.2485 21.552 23.4246C21.5249 23.4381 21.4934 23.4562 21.4663 23.4743C21.1689 23.6503 20.7092 23.8219 19.9927 24.0025C19.9296 24.0205 19.6547 24.0296 19.6006 24.0115C19.5691 24.0025 19.533 23.998 19.506 23.9889C18.83 23.8129 18.3884 23.6413 18.109 23.4743C17.6854 23.2485 17.5907 23.0408 17.5907 22.8828C17.46 23.0047 17.3068 23.1627 17.122 23.3343C16.6624 23.7767 16.0991 24.3411 15.5718 24.7926C14.5398 25.7001 13.9675 28.6844 14.3415 30.111C14.4812 30.6664 14.8102 31.0908 15.0941 31.4565C15.4411 31.917 15.743 32.3143 15.5898 32.8019C15.5357 32.9644 15.5448 33.1044 15.6214 33.2353C15.7521 33.4701 16.0991 33.6597 16.6038 33.7906C16.3469 33.5875 15.8512 32.9464 16.4055 31.7048C16.5903 31.154 16.4145 30.8334 16.0405 30.2555C15.7881 29.8627 15.5042 29.4203 15.4186 28.8379C15.2023 27.348 16.5542 26.2057 16.6038 26.1561C16.6038 26.1561 16.766 25.9484 16.8967 25.9303C17.3654 25.8716 18.109 25.1312 18.7714 25.375C19.177 25.533 19.5421 25.5691 19.7584 25.5782V25.5691C19.7584 25.5691 19.7854 25.5782 19.826 25.5782C19.862 25.5782 19.9071 25.5782 19.9567 25.5691C20.1324 25.5601 20.4253 25.524 20.8084 25.375C21.4573 25.1312 22.3226 25.8987 22.7913 25.9574C22.8994 25.971 22.976 26.0342 23.0301 26.1245C23.0391 26.1335 23.0526 26.147 23.0752 26.1741C23.323 26.3953 24.4046 27.4608 24.2108 28.8063C24.1252 29.3887 23.8413 29.8311 23.5889 30.2239C23.2645 30.7251 23.2464 31.1811 23.3726 31.7274C23.4042 31.8267 23.4312 31.9305 23.4537 32.0389C23.4582 32.0479 23.4582 32.0569 23.4627 32.066C23.5844 32.5987 23.5844 33.2082 23.0707 33.7003C23.0436 33.7319 23.0166 33.759 22.9896 33.7816C23.296 33.7139 23.7692 33.5333 23.9359 33.2353C24.0125 33.1044 24.0306 32.9644 23.972 32.8019C23.8142 32.3143 24.1162 31.917 24.4632 31.4565C24.7516 31.0908 25.0806 30.6664 25.2203 30.111C25.5898 28.6844 25.0175 25.7001 23.99 24.7926C23.5529 24.4224 23.0707 23.9619 22.638 23.56Z" fill="white"/>
<path d="M27.5409 24.2236C27.5409 24.1514 27.5544 24.0747 27.5724 23.9979C27.5769 23.9889 27.5769 23.9753 27.5814 23.9663C27.6445 23.6864 27.676 23.411 27.6851 23.1446C27.6986 22.6028 27.6085 22.1062 27.5003 21.6908C27.32 21.0542 27.0812 20.6118 27.0406 20.535C27.0361 20.526 27.0316 20.5215 27.0316 20.5215C26.8874 20.7517 26.4593 21.4696 26.0807 22.3455C25.8554 22.8602 25.6526 23.429 25.5399 23.9798C25.4814 24.2643 25.4453 24.5442 25.4453 24.8106C25.4453 25.56 25.6977 26.1244 25.9455 26.6797C26.2835 27.4427 26.6305 28.2328 26.3376 29.4834C26.9775 28.7385 27.3741 27.7452 26.8694 26.5397C26.8694 26.5397 27.3831 26.6255 27.4823 27.2802C27.6715 27.1131 28.1402 26.6346 28.1402 25.9302C28.1402 25.4381 27.9735 25.1943 27.8112 24.9505C27.6715 24.7428 27.5409 24.5532 27.5409 24.2236Z" fill="white"/>
<path d="M12.3806 19.0634C12.4662 19.0408 12.5428 18.9957 12.6239 18.9596C12.6419 18.9415 12.6645 18.937 12.6825 18.928V18.9189C12.7095 18.9099 12.7276 18.8918 12.7546 18.8738C13.9218 18.0295 14.1021 14.991 15.3098 14.219C15.5712 13.9887 16.0669 13.7359 16.8871 13.4831C17.4684 13.307 17.9597 12.9097 18.2345 12.377C16.2336 12.5485 14.395 13.0271 12.9123 13.7133C12.7726 13.9255 12.4527 14.386 12.2859 14.6028C11.7226 15.3658 11.0782 16.2236 10.9159 17.2259C11.0196 17.2078 11.2359 17.1446 11.5919 16.8873L11.7316 16.7879L11.6866 16.955C11.5559 17.3884 11.4432 17.8038 11.281 18.0927C10.8483 18.8828 10.8574 19.9709 10.97 20.8422C11.0331 21.3208 11.1277 21.7362 11.1998 22.0071C11.2089 21.9303 11.2269 21.8355 11.2449 21.7407C11.2449 21.7407 11.2449 21.7407 11.2449 21.7317C11.2539 21.542 11.272 21.3253 11.3035 21.0906C11.4162 20.2689 11.7001 19.3027 12.3806 19.0634Z" fill="white"/>
<path d="M14.0495 11.8888C15.8296 11.2929 17.9116 10.9543 20.1558 10.9543C22.337 10.9543 24.3604 11.2748 26.1 11.8392C26.136 11.7805 26.1676 11.7218 26.1991 11.6676C26.3658 11.3696 26.5281 11.0852 26.6858 10.7963L28.6732 7.33339L24.9418 8.27698L25.6178 8.64268C25.9828 8.84134 26.1495 9.26122 26.0098 9.61789C25.8521 9.99713 25.4195 10.1913 25.0319 10.0423C24.0089 9.62692 22.9138 9.347 21.7692 9.18898C21.4087 9.13932 21.1383 8.81876 21.1383 8.44403C21.1383 7.98352 21.5123 7.60879 21.972 7.60879H22.5083L20.0612 4.57031L17.6097 7.60879H18.1459C18.6056 7.60879 18.9796 7.98352 18.9796 8.44403C18.9796 8.81876 18.7092 9.13932 18.3487 9.18898C17.132 9.347 15.9467 9.66755 14.8291 10.1552H14.766C14.3604 10.0333 14.09 9.75333 14.054 9.41472C14.0315 9.1032 14.1757 8.80973 14.4551 8.66977L15.1761 8.27698L11.4492 7.33339L13.4231 10.7872C13.6304 11.162 13.8422 11.5186 14.0495 11.8888Z" fill="white"/>
<path d="M27.8781 16.9549L27.8375 16.7878L27.9727 16.8871C28.3738 17.1716 28.7118 17.2574 28.856 17.2935C28.6938 16.3363 28.0088 15.4875 27.4004 14.7336C27.2201 14.5078 27.0083 14.0563 26.828 13.6997C25.3048 12.9999 23.4031 12.5168 21.3301 12.3633C21.5148 12.729 21.7402 13.0631 22.0556 13.2979C22.0601 13.2979 22.0692 13.3069 22.0692 13.3069C22.2629 13.4017 22.4612 13.4739 22.6685 13.5055C22.7812 13.5236 22.9119 13.5417 23.0606 13.5417C23.1282 13.5417 23.1958 13.5507 23.2679 13.5597C23.5788 13.6094 23.8402 13.7764 24.0655 14.0202C24.1061 14.0609 24.1602 14.106 24.2052 14.1602C24.2098 14.1692 24.2278 14.1828 24.2368 14.2008C25.2688 15.3927 25.6338 18.0294 26.8145 18.8737C26.8371 18.8917 26.8551 18.9098 26.8821 18.9188C26.9002 18.9369 26.9272 18.9414 26.9407 18.9504C27.0218 18.9956 27.0984 19.0407 27.1841 19.0633C27.9006 19.3161 28.18 20.3726 28.2792 21.2169C28.2972 21.402 28.3107 21.578 28.3197 21.7315C28.3197 21.7406 28.3197 21.7406 28.3197 21.7406C28.3377 21.8354 28.3558 21.9302 28.3648 22.0069C28.4234 21.7722 28.5045 21.4245 28.5676 21.0137C28.7028 20.1152 28.7523 18.9369 28.2837 18.0926C28.1304 17.8217 28.0268 17.465 27.8781 16.9549Z" fill="white"/>
<path d="M13.4171 22.2371C13.0566 21.4109 12.651 20.7382 12.5158 20.5215C12.5158 20.5215 12.5113 20.526 12.5068 20.535C12.4663 20.6118 12.2499 21.0091 12.0787 21.5915C11.9615 21.9978 11.8624 22.4945 11.8624 23.0362C11.8624 23.3387 11.8939 23.6457 11.966 23.9663C11.9705 23.9753 11.9705 23.9889 11.975 23.9979C11.9931 24.0747 12.0066 24.1514 12.0066 24.2236C12.0066 24.5532 11.8759 24.7428 11.7362 24.9505C11.574 25.1943 11.4072 25.4381 11.4072 25.9302C11.4072 26.6346 11.8759 27.1131 12.0652 27.2802C12.1643 26.6255 12.6781 26.5397 12.6781 26.5397C12.1733 27.7452 12.5699 28.7385 13.2098 29.4834C12.9169 28.2328 13.2639 27.4427 13.6019 26.6797C13.8498 26.1244 14.1021 25.56 14.1021 24.8106C14.1021 24.5216 14.0616 24.2146 13.994 23.9076C13.8678 23.3387 13.6515 22.7563 13.4171 22.2371Z" fill="white"/>
<path d="M20.646 17.7109C20.646 17.6928 20.646 17.6748 20.655 17.6612C20.682 17.5935 20.8668 17.4942 21.1372 17.3768C22.034 16.9975 23.7735 16.4829 24.1656 16.4467C24.2917 16.4422 24.4495 16.5054 24.6117 16.6183V16.6138C24.6162 16.6183 24.6252 16.6228 24.6297 16.6273C24.1881 15.5528 23.6248 14.6227 22.6964 14.6227C21.5067 14.6227 20.7631 13.4263 20.3215 12.3202H20.317V12.3157C20.1728 12.3066 20.0286 12.3066 19.8844 12.3066C19.8483 12.3066 19.8122 12.3066 19.7762 12.3112C19.5914 12.3066 19.4112 12.3112 19.2309 12.3202C18.7848 13.4263 18.0457 14.6227 16.8515 14.6227C15.9231 14.6227 15.3598 15.5528 14.9182 16.6273C14.9227 16.6228 14.9317 16.6183 14.9362 16.6138V16.6183C15.0984 16.5054 15.2561 16.4422 15.3823 16.4467C15.7744 16.4829 17.5139 16.9975 18.4107 17.3768C18.6811 17.4942 18.8659 17.5935 18.8929 17.6612C18.8974 17.6748 18.9019 17.6928 18.9019 17.7199L18.9064 20.8261C18.6631 20.5823 18.5279 19.8735 18.4558 19.3136C18.4468 19.3046 18.4332 19.3001 18.4242 19.2911V19.2866C18.4152 19.282 18.4062 19.2775 18.4017 19.273C18.3476 19.2414 18.2935 19.2143 18.2395 19.1917C18.2169 19.1872 18.1989 19.1782 18.1809 19.1737C18.1178 19.1556 18.0547 19.1421 17.9916 19.1376C17.9871 19.1376 17.9871 19.1376 17.9826 19.1376C17.9826 19.1376 17.9826 19.1376 17.9781 19.1376C17.6671 19.1376 17.2345 19.3272 16.5991 19.3136C16.509 19.3136 16.4143 19.3091 16.3152 19.2956C15.9456 19.2504 15.5806 19.106 15.2742 18.8847L14.9362 18.6545C14.9362 18.6545 15.3553 18.1127 16.2926 18.1217C16.4233 18.1263 16.5675 18.1398 16.7208 18.1669C16.9281 18.203 17.1173 18.2346 17.3021 18.2662C17.7302 18.3384 18.0953 18.4062 18.3611 18.5732C18.3657 18.5777 18.3747 18.5777 18.3837 18.5822C18.3161 18.4784 18.2395 18.3836 18.1629 18.2978C18.1268 18.2527 18.0862 18.212 18.0457 18.1714C18.0186 18.1443 17.9961 18.1127 17.9646 18.0856C17.1804 17.3452 16.1349 17.2549 15.2967 17.3452C15.0443 17.3723 14.8055 17.4174 14.6072 17.4626C14.1565 18.7132 13.9357 19.8825 13.2868 19.887H13.2823C13.2372 19.887 13.1876 19.887 13.1426 19.9051V19.9096C13.1426 19.9096 13.1516 19.9186 13.1561 19.9232L14.2737 21.7381C14.3143 21.8284 14.3503 21.9187 14.3774 22.0045C14.445 22.2889 14.5441 22.5282 14.6568 22.7359C14.6973 22.8172 14.7424 22.8894 14.783 22.9571C14.828 23.0294 14.8731 23.0926 14.9182 23.1513C14.9587 23.2054 14.9993 23.2596 15.0353 23.3048C15.1164 23.3996 15.184 23.4763 15.2381 23.535C15.2652 23.5576 15.7969 23.386 16.0493 23.2461C16.1259 23.2054 16.207 23.1603 16.2926 23.1196C16.3873 23.0655 16.4864 23.0158 16.5901 22.9661C16.901 22.8262 17.6131 22.5779 17.6176 22.5779C17.6762 22.2438 17.8249 21.6523 18.2395 21.5982C18.2981 21.5936 18.3611 21.5936 18.4287 21.6117C18.6451 21.6614 18.7352 21.8781 18.7757 22.0045C18.7532 21.9819 18.7307 21.9774 18.6991 21.9774C18.6991 21.9774 18.6946 21.9774 18.6901 21.9774C18.6315 21.9819 18.5414 21.9955 18.3792 21.9774C18.3747 21.9774 18.3702 21.9774 18.3702 21.9774C18.3521 21.9774 18.3341 21.9729 18.3206 21.9729C18.0186 21.9729 18.0412 22.325 18.0727 22.5824V22.5869C18.0727 22.5869 18.2485 22.6682 18.4873 22.7765C18.5549 22.8081 18.627 22.8397 18.7036 22.8758C18.8028 22.921 18.9019 22.9661 19.0056 23.0113C19.3481 23.1558 19.6816 23.2912 19.7762 23.3093C19.7807 23.3093 19.7852 23.3093 19.7852 23.3093C19.97 23.3183 21.2949 22.6817 21.4571 22.605C21.4707 22.6004 21.4752 22.5959 21.4752 22.5959C21.4752 22.5959 21.4752 22.5914 21.4752 22.5869V22.5824C21.5067 22.325 21.5292 21.9729 21.2273 21.9729C21.2138 21.9729 21.1958 21.9774 21.1777 21.9774C21.1732 21.9774 21.1732 21.9774 21.1687 21.9774C21.1237 21.9729 20.9659 21.9593 20.8578 21.9774C20.8533 21.9774 20.8533 21.9774 20.8488 21.9774C20.8172 21.9774 20.7947 21.9819 20.7721 22.0045C20.8127 21.8781 20.9028 21.6614 21.1191 21.6117C21.1867 21.5936 21.2498 21.5936 21.3084 21.5982C21.723 21.6523 21.8717 22.2438 21.9303 22.5779C21.9348 22.5779 22.6469 22.8262 22.9578 22.9661C23.0389 23.0068 23.12 23.0474 23.1967 23.088C23.3048 23.1422 23.4085 23.1964 23.4986 23.2461C23.751 23.386 24.2827 23.5576 24.3098 23.535C24.3638 23.4763 24.4314 23.3996 24.5126 23.3048C24.5486 23.2596 24.5892 23.2054 24.6297 23.1513C24.6748 23.0926 24.7199 23.0294 24.7649 22.9571C24.8055 22.8894 24.8506 22.8172 24.8911 22.7359C24.9046 22.7133 24.9182 22.6862 24.9317 22.6591C24.9542 22.614 24.9767 22.5643 24.9993 22.5101C25.0218 22.4605 25.0443 22.4063 25.0624 22.3521C25.0849 22.2979 25.1029 22.2438 25.1209 22.1851C25.139 22.1264 25.157 22.0677 25.1705 22.0045C25.1976 21.9187 25.2336 21.8284 25.2742 21.7381L26.4323 19.9457C26.4369 19.9412 26.4459 19.9322 26.4459 19.9322V19.9277C26.4008 19.9096 26.3512 19.9096 26.3062 19.9096H26.3017C25.6527 19.9051 25.3913 18.7132 24.9407 17.4626C24.7424 17.4174 24.5036 17.3723 24.2512 17.3452C23.413 17.2549 22.3675 17.3452 21.5833 18.0856C21.5518 18.1127 21.5292 18.1443 21.5022 18.1714C21.4616 18.212 21.4211 18.2527 21.385 18.2978C21.3084 18.3836 21.2318 18.4784 21.1642 18.5822C21.1732 18.5777 21.1822 18.5777 21.1867 18.5732C21.4526 18.4062 21.8177 18.3384 22.2458 18.2662C22.4305 18.2346 22.6198 18.203 22.8271 18.1669C22.9803 18.1398 23.1246 18.1263 23.2552 18.1217C24.1926 18.1127 24.6117 18.6545 24.6117 18.6545L24.2737 18.8847C23.9673 19.106 23.6022 19.2504 23.2327 19.2956C23.1336 19.3091 23.0389 19.3136 22.9488 19.3136H22.8857C22.2818 19.3136 21.8717 19.1376 21.5698 19.1376C21.5653 19.1376 21.5653 19.1376 21.5653 19.1376C21.5608 19.1376 21.5608 19.1376 21.5563 19.1376C21.4932 19.1421 21.4301 19.1556 21.367 19.1737C21.349 19.1782 21.3309 19.1872 21.3084 19.1917C21.2543 19.2143 21.2003 19.2414 21.1462 19.273C21.1417 19.2775 21.1327 19.282 21.1236 19.2866V19.2911C21.1146 19.3001 21.1011 19.3046 21.0921 19.3136C21.02 19.8735 20.8848 20.5823 20.6415 20.8261L20.646 17.7199V17.7109Z" fill="white"/>
</svg>
