<svg width="24" height="24" viewBox="0 0 24 24" fill="none" xmlns="http://www.w3.org/2000/svg">
<rect width="24" height="24" rx="12" fill="#364253"/>
<path d="M11.5022 3C10.9094 3 10.3263 3.14418 9.77234 3.39926C9.22812 3.66543 8.7325 4.04251 8.31462 4.53049C7.89674 5.01847 7.56632 5.58409 7.3428 6.21625C7.11929 6.84841 7.0017 7.52493 7.01239 8.20145V9.92048H10.6567V7.42512C10.6567 7.30312 10.6761 7.19222 10.715 7.08131C10.7539 6.97041 10.8122 6.87059 10.8802 6.79296C10.9482 6.71532 11.0357 6.64878 11.1329 6.60442C11.2301 6.56006 11.3272 6.53788 11.4341 6.53788H11.5702C11.6674 6.53788 11.7743 6.56006 11.8715 6.60442C11.9686 6.64878 12.0561 6.71532 12.1241 6.79296C12.1921 6.87059 12.2505 6.97041 12.2893 7.08131C12.3282 7.19222 12.3476 7.30312 12.3476 7.42512V14.1016C12.8238 14.1016 13.3 13.9907 13.747 13.78C14.1941 13.5693 14.5925 13.2587 14.9327 12.8706C15.2728 12.4824 15.5449 12.0166 15.7198 11.5175C15.9045 11.0074 16.0017 10.4639 16.0017 9.92048V8.20145C16.0017 6.82623 15.5352 5.49537 14.6897 4.5194C14.2718 4.03142 13.7762 3.65434 13.232 3.38817C12.6781 3.13309 12.095 3 11.5022 3Z" fill="white"/>
<path d="M11.5691 17.4856H11.433C11.3358 17.4856 11.2289 17.4634 11.1317 17.4191C11.0346 17.3747 10.9568 17.3082 10.8791 17.2305C10.811 17.1529 10.7527 17.0531 10.7139 16.9422C10.675 16.8313 10.6555 16.7204 10.6555 16.5984V9.92188C10.1794 9.92188 9.70317 10.0328 9.25614 10.2435C8.8091 10.4542 8.41066 10.7648 8.07053 11.1529C7.73039 11.5411 7.45829 12.0069 7.28336 12.506C7.09871 13.0161 7.00056 13.5596 7.00056 14.103V15.7998C6.99084 16.4764 7.10746 17.1529 7.33098 17.7851C7.55449 18.4172 7.88491 18.9939 8.30279 19.4708C8.72067 19.9588 9.21629 20.3359 9.76051 20.602C10.3047 20.8682 10.8975 21.0013 11.4903 21.0013C12.0831 21.0013 12.6759 20.8682 13.2202 20.602C13.7644 20.3359 14.2697 19.9588 14.6779 19.4708C15.0958 18.9828 15.4262 18.4172 15.6497 17.7851C15.8732 17.1529 15.9801 16.4764 15.9801 15.7998V14.103H12.3358V16.5984C12.3358 16.7204 12.3164 16.8313 12.2775 16.9422C12.2386 17.0531 12.1803 17.1529 12.1123 17.2305C12.0443 17.3082 11.9568 17.3747 11.8596 17.4191C11.7722 17.4634 11.675 17.4856 11.5681 17.4856H11.5691Z" fill="white"/>
</svg>
