<svg width="72" height="72" viewBox="0 0 72 72" fill="none" xmlns="http://www.w3.org/2000/svg">
<path d="M72 36C72 16.1177 55.8823 0 36 0C16.1177 0 0 16.1177 0 36C0 55.8823 16.1177 72 36 72C55.8823 72 72 55.8823 72 36Z" fill="#DEEAF6"/>
<g clip-path="url(#clip0_401_96)">
<path d="M25.1062 38.04L26.2293 29.5882L16.4883 22.8147L25.3885 25.8345L27.4904 22.6042L35.1655 17.8339L52.083 27.17L52.9598 41.4147L45.4229 51.9057L39.4654 52.8201L42.5462 47.1715V41.7335L40.3062 37.4866L38.0301 35.9767L34.5289 39.592V43.4178L31.7964 45.9805L28.3252 46.4015L26.7878 47.2738L24.2655 46.4677L23.2145 42.6779L25.1062 40.0131V38.04Z" fill="white"/>
<path d="M40.6606 22.7422C38.8049 22.3572 36.775 22.4595 36.775 22.4595C36.775 22.4595 36.1084 25.5454 31.9766 26.3575C32.0066 26.3575 37.4356 28.2163 40.6606 22.7422V22.7422Z" fill="#A0ABB7"/>
<path d="M42.3421 50.7446C44.5822 48.9881 46.2637 46.5698 47.0384 43.8328C47.0745 43.7305 47.3868 43.55 47.597 43.4117C47.9453 43.2011 48.2996 43.0267 48.3657 42.744C48.5038 41.9379 48.5758 41.0957 48.5758 40.2535C48.5758 39.9407 48.2576 39.6219 47.9453 39.3091C47.699 39.0986 47.4528 38.8519 47.4528 38.6775C47.1045 35.4832 45.6331 32.4995 43.285 30.3279L43.0388 30.5746C45.3149 32.7161 46.7862 35.6276 47.1045 38.7136C47.1405 38.9963 47.4168 39.273 47.699 39.5557C47.9453 39.7663 48.2275 40.0851 48.2275 40.2235C48.2275 41.0295 48.1555 41.8356 48.0173 42.6417C47.9813 42.78 47.669 42.9244 47.4228 43.0628C47.0745 43.2372 46.7562 43.4117 46.6901 43.6944C45.8493 46.6781 43.9216 49.2768 41.3632 50.9611C41.8196 49.9806 43.255 46.7864 44.0237 45.1682L43.8855 39.9768L39.4355 35.6637L36.9131 36.0126L34.1446 40.5062C34.1446 40.5062 35.4418 42.1544 33.6161 44.0854C31.8325 45.9803 30.4272 46.4014 30.4272 46.4014L29.13 45.6976C29.5144 45.2043 30.2891 44.4704 30.8836 43.9771C31.8985 43.135 32.9135 43.0628 32.9135 42.1544C32.9555 40.2535 30.9197 40.7769 30.9197 40.7769L30.181 41.4807L29.8687 44.0794L28.3313 46.0104L28.1571 45.9743L25.6348 45.4148C25.6348 45.4148 27.1782 44.6088 27.4244 43.6944C27.6707 42.8161 26.932 39.9046 26.896 39.7302C26.932 39.7663 27.6346 40.3618 27.9469 41.3423C28.5054 39.7964 29.2441 38.3226 29.4543 38.1842C29.6645 38.0458 32.4991 36.5359 32.4991 36.5359L31.5562 39.0264L32.2589 38.6414L33.9404 34.5027C33.9404 34.5027 35.5859 33.6966 36.8111 33.6966C39.0151 33.6605 42.2761 30.9596 40.8047 26.1171C41.2251 26.2915 48.5098 29.9429 49.7709 37.1014C50.7138 42.6056 47.597 47.7609 42.3421 50.7446V50.7446Z" fill="#A0ABB7"/>
<path d="M34.0074 23.5121C34.8121 22.5616 34.4998 21.16 34.4998 21.16L32.1517 24.637C32.1157 24.637 32.9864 24.6731 34.0074 23.5121V23.5121Z" fill="#1B314F"/>
<path d="M26.1227 42.4972L26.405 41.0956C26.405 41.0956 25.2459 43.1288 25.1438 43.4116C25.0357 43.7304 25.2159 44.2898 25.6663 44.2537C26.1227 44.2176 26.6813 43.5499 26.6813 43.0627C26.6813 42.431 26.1227 42.4972 26.1227 42.4972V42.4972Z" fill="#1B314F"/>
<path d="M46.9312 20.1795C46.9312 20.1795 48.6848 20.2517 50.5045 20.4622C46.4028 17.2319 42.5172 16.2874 39.3643 16.2874C35.0223 16.2874 32.0796 18.0801 31.8995 18.1823L33.2687 16.0047C33.2687 16.0047 27.8037 15.4754 25.8759 21.2683C25.3835 20.0411 24.9331 18.2485 24.9331 18.2485C24.9331 18.2485 22.0925 20.7449 23.4257 24.8836C20.1647 23.6925 15.5104 22.0383 15.3303 22.0082C15.084 21.9721 15.012 22.0804 15.012 22.0804C15.012 22.0804 14.9399 22.1827 15.1501 22.3631C15.5404 22.6699 22.8972 28.1139 24.5127 29.1667C24.1644 30.4299 24.1644 31.0255 24.5127 31.621C25.0051 32.4271 25.0352 32.8482 24.9691 33.4437C24.897 34.0392 24.2665 39.2005 24.1283 39.8322C23.9902 40.4638 22.5188 42.7076 22.5849 43.3753C22.657 44.043 23.5638 46.8823 24.3746 47.2012C24.9691 47.4117 26.4404 47.8689 27.4193 47.8689C27.7677 47.8689 28.086 47.7967 28.2241 47.6583C28.8186 47.135 28.9928 47.0267 29.4132 47.0267H29.5153C29.6894 47.0267 29.8996 47.0628 30.1458 47.0628C30.7044 47.0628 31.443 46.9545 31.9655 46.4673C32.7342 45.6973 34.0674 44.6446 34.4878 44.1513C35.0163 43.4836 35.2926 42.5752 35.1544 41.6609C35.0463 40.8187 35.5028 40.0788 36.0312 39.3449C36.6979 38.4666 37.923 36.8906 37.923 36.8906C40.3432 38.7073 41.8506 41.4804 41.8506 44.5664C41.8506 50.0405 37.0882 54.4619 31.2028 54.4619C30.29 54.4619 29.4192 54.3596 28.5424 54.1491C31.2388 55.0935 33.5149 55.4123 35.3766 55.4123C39.3343 55.4123 41.4362 53.9746 41.4362 53.9746C41.4362 53.9746 40.7035 54.9251 39.5084 56.0079H39.5445C46.0965 55.0935 49.2854 49.6916 49.2854 49.6916C49.2854 49.6916 49.0392 51.4481 48.7269 52.6392C57.4409 46.0763 55.9695 37.8651 55.9335 37.5884C56.0056 37.6906 56.8824 38.7434 57.3328 39.3088C58.7381 24.8475 46.9312 20.1795 46.9312 20.1795V20.1795ZM33.5149 43.273C33.3768 43.4475 32.7823 43.9769 32.3619 44.3618C31.9415 44.7468 31.4851 45.1318 31.1368 45.4867C30.9986 45.6251 30.7164 45.6973 30.296 45.6973H29.245C29.7735 44.9935 31.3109 43.3813 31.8394 43.0324C32.47 42.6113 32.7883 42.1902 32.3979 41.4564C32.0136 40.7164 30.9986 40.8969 30.9986 40.8969C30.9986 40.8969 31.5932 40.6503 32.1217 40.6503C31.455 40.4758 30.6143 40.6503 30.2299 41.0353C29.8095 41.4203 29.8816 42.7918 29.7074 43.664C29.5333 44.5784 28.9387 45.0356 28.0259 45.8778C27.5334 46.3349 27.1851 46.4733 26.9029 46.4733C26.3083 46.371 25.6057 46.1906 25.1132 46.0161C24.7649 45.5589 24.2364 44.049 24.0983 43.4174C24.2004 43.0685 24.6208 42.3286 24.831 41.9075C25.2514 41.1014 25.4976 40.6443 25.5696 40.2232C25.7078 39.6276 26.1642 35.9401 26.3384 34.4002C26.7948 34.9957 27.4253 35.9822 27.2812 36.6139C28.2961 35.1762 27.5635 33.7685 27.2092 33.2091C26.8969 32.6496 26.4765 31.5247 26.8248 30.3337C27.1731 29.1426 28.4343 25.8401 28.4343 25.8401C28.4343 25.8401 28.8547 26.58 29.4492 26.4356C30.0438 26.2973 34.8422 19.0666 34.8422 19.0666C34.8422 19.0666 36.1393 21.9059 34.7701 23.9813C33.3708 26.0506 32.0015 26.4356 32.0015 26.4356C32.0015 26.4356 33.9293 26.7845 35.713 25.4852C36.4456 27.2056 37.1483 28.9922 37.1843 29.2388C37.0762 29.4855 35.6769 32.8542 35.5388 33.0647C35.4667 33.1369 34.9803 33.2753 34.626 33.3474C34.0314 33.5219 33.6831 33.6302 33.539 33.7324C33.2927 33.943 32.1697 37.0289 31.6472 38.5388C31.0166 38.7133 30.3861 39.0682 29.9296 39.766C30.1759 39.5915 30.9446 39.4833 31.5091 39.4171C32.0015 39.381 33.5029 40.1871 33.8933 41.697V41.7692C33.9714 42.3226 33.7972 42.8519 33.5149 43.273V43.273ZM30.2239 43.6941C30.5422 43.2369 30.5062 42.467 30.5422 42.2203C30.5782 41.9737 30.6443 41.5165 30.9266 41.4503C31.2088 41.3781 31.8754 41.4864 31.8754 41.9737C31.8754 42.4309 31.383 42.5331 31.0347 42.8519C30.7824 43.0926 30.29 43.6219 30.2239 43.6941ZM44.1987 36.9868C44.5471 35.2002 44.5831 33.6542 44.481 32.391C45.8442 34.2137 46.685 36.4274 46.9312 38.7073C46.9673 38.99 47.2435 39.2667 47.5258 39.5494C47.772 39.76 48.0543 40.0427 48.0543 40.2172C48.0543 41.0232 47.9822 41.8293 47.8441 42.6414C47.808 42.7437 47.4958 42.9241 47.2495 43.0625C46.9012 43.2369 46.5829 43.4114 46.5169 43.6941C45.7482 46.3951 44.0966 48.7832 41.8926 50.4676C45.1476 47.0628 46.7211 41.4443 44.1987 36.9868V36.9868ZM41.9947 50.7804C44.2708 49.0239 46.0244 46.5695 46.7931 43.7964C46.8291 43.6941 47.1414 43.5137 47.3516 43.3753C47.6999 43.2008 48.0543 42.9903 48.1203 42.7076C48.2585 41.9015 48.3305 41.0593 48.3305 40.2172C48.3305 39.9043 48.0122 39.5855 47.6999 39.2727C47.5258 39.0622 47.2435 38.8155 47.2435 38.6411C46.9613 36.0785 45.9463 33.6602 44.3729 31.6571C43.6703 27.4462 40.8717 26.1469 40.7996 26.1108C40.8717 26.2191 42.6914 28.8478 41.4302 31.9338C40.133 35.0558 36.806 34.5686 36.5237 34.5987C36.2414 34.5987 35.1604 36.0003 33.7912 38.599C33.617 38.5268 32.8784 38.3523 32.0376 38.4967C32.6682 36.7402 33.617 34.2498 33.7912 34.0392C33.8633 33.967 34.3857 33.8287 34.7401 33.7264C35.4067 33.552 35.719 33.4437 35.8271 33.3053C35.8991 33.1971 36.2474 32.391 36.5958 31.5488C36.9141 31.5488 37.7188 31.4766 37.7849 31.4405C37.8569 31.3683 38.5235 29.6539 38.5235 29.4434C38.5235 29.2689 37.1543 25.8641 36.6318 24.5648C36.878 24.2821 37.1242 23.9332 37.3645 23.5482C44.5471 24.3242 50.1562 30.4299 50.1562 37.829C50.1562 43.5137 46.8291 48.4644 41.9947 50.7804V50.7804Z" fill="#364253"/>
<path d="M32.6735 31.8318C33.3401 31.0619 32.9918 29.6241 31.7607 29.3775C32.079 28.6436 32.5294 27.1698 32.5294 27.1698C32.5294 27.1698 28.9561 32.7823 28.6438 32.8906C28.3255 32.9988 28.0132 31.7657 28.0132 31.7657C27.3466 34.3283 29.1363 34.6772 29.3465 33.8711C30.3254 33.6184 32.0069 32.5657 32.6735 31.8318Z" fill="#1B314F"/>
<path d="M29.6231 33.1962L31.4428 30.0741C31.4428 30.0741 32.4937 30.6035 31.9652 31.4456C31.3046 32.4262 29.6231 33.1962 29.6231 33.1962V33.1962Z" fill="#A0ABB7"/>
<path d="M52.1496 47.6585C51.6211 48.3623 51.0266 49.0962 50.3299 49.8C54.8461 41.0956 50.5401 33.1311 50.366 32.8183C50.6843 33.1371 50.9965 33.486 51.2788 33.7988C54.744 37.6547 55.1644 43.4477 52.1496 47.6585V47.6585Z" fill="#8D98A8"/>
<path d="M56.3545 36.4635C54.7751 32.2166 52.535 28.6013 47.5985 25.3409C42.8361 22.1827 37.7194 22.4293 37.4372 22.4654H37.3651C37.5392 22.3933 37.7134 22.3572 37.8876 22.3271C38.9746 21.9782 40.3738 21.6955 41.7791 21.521C45.4965 20.9856 49.244 22.2489 51.8023 24.9559C51.8384 24.992 51.8384 24.992 51.8744 25.028C54.7811 28.114 56.2884 31.9699 56.3545 36.4635V36.4635Z" fill="#8D98A8"/>
<path d="M46.4744 19.0912C41.2557 18.1107 37.8926 18.5979 35.4724 19.5123C35.4003 19.2295 35.1541 18.6701 34.9439 18.2129C34.2172 19.0912 33.4425 20.1439 32.956 20.8116C31.6228 21.726 31.0643 22.6042 31.0643 22.6042C31.833 19.9695 34.0791 18.0084 36.8116 17.5151C37.5803 17.3768 38.4211 17.3046 39.3339 17.3046C41.7481 17.3407 44.1623 17.9362 46.4744 19.0912Z" fill="#8D98A8"/>
<path d="M27.1731 25.828C23.0774 25.6896 24.4406 20.9133 24.5127 20.6366C24.5127 20.6727 24.789 24.3903 27.1731 25.828V25.828Z" fill="#8D98A8"/>
<path d="M31.202 17.2323C28.0491 19.1272 28.6797 23.6509 28.6797 23.6509C25.6649 19.061 30.9558 17.3406 31.202 17.2323V17.2323Z" fill="#8D98A8"/>
<path d="M26.0201 27.0913C26.2303 27.2658 26.4404 27.5846 26.1942 28.0418C26.0561 28.2884 25.8459 28.2523 25.5276 28.1139C25.1072 27.9034 22.5849 26.4296 20.3088 24.9197C22.9032 25.8341 25.5276 26.8146 25.948 27.0251C25.948 27.0251 25.984 27.0612 26.0201 27.0913Z" fill="white"/>
</g>
<defs>
<clipPath id="clip0_401_96">
<rect width="42.449" height="40" fill="white" transform="translate(15 16)"/>
</clipPath>
</defs>
</svg>
