<svg width="72" height="72" viewBox="0 0 72 72" fill="none" xmlns="http://www.w3.org/2000/svg">
<path d="M25.1072 38.0479L26.2302 29.5961L16.4893 22.8226L25.3894 25.8424L27.4914 22.6121L35.1664 17.8418L52.0839 27.1779L52.9607 41.4226L45.4238 51.9137L39.4663 52.828L42.5472 47.1794V41.7414L40.3071 37.4945L38.031 35.9846L34.5298 39.5999V43.4258L31.7973 45.9884L28.3261 46.4095L26.7887 47.2817L24.2664 46.4756L23.2154 42.6859L25.1072 40.021V38.0479Z" fill="white"/>
<path d="M40.6615 22.7501C38.8058 22.3651 36.7759 22.4674 36.7759 22.4674C36.7759 22.4674 36.1093 25.5533 31.9775 26.3654C32.0076 26.3654 37.4365 28.2242 40.6615 22.7501Z" fill="#A0ABB7"/>
<path d="M42.3431 50.7525C44.5831 48.996 46.2647 46.5777 47.0394 43.8407C47.0754 43.7384 47.3877 43.558 47.5979 43.4196C47.9462 43.2091 48.3005 43.0346 48.3666 42.7519C48.5047 41.9458 48.5768 41.1036 48.5768 40.2615C48.5768 39.9486 48.2585 39.6298 47.9462 39.317C47.7 39.1065 47.4538 38.8598 47.4538 38.6854C47.1054 35.4912 45.6341 32.5075 43.2859 30.3359L43.0397 30.5825C45.3158 32.724 46.7871 35.6355 47.1054 38.7215C47.1415 39.0042 47.4177 39.2809 47.7 39.5637C47.9462 39.7742 48.2285 40.093 48.2285 40.2314C48.2285 41.0375 48.1564 41.8435 48.0183 42.6496C47.9822 42.788 47.67 42.9323 47.4237 43.0707C47.0754 43.2451 46.7571 43.4196 46.6911 43.7023C45.8503 46.686 43.9225 49.2847 41.3642 50.9691C41.8206 49.9885 43.2559 46.7943 44.0246 45.1761L43.8865 39.9847L39.4364 35.6716L36.9141 36.0205L34.1455 40.5141C34.1455 40.5141 35.4427 42.1624 33.6171 44.0933C31.8334 45.9882 30.4281 46.4093 30.4281 46.4093L29.1309 45.7055C29.5153 45.2122 30.29 44.4783 30.8846 43.9851C31.8995 43.1429 32.9144 43.0707 32.9144 42.1624C32.9565 40.2615 30.9206 40.7848 30.9206 40.7848L30.1819 41.4886L29.8696 44.0873L28.3322 46.0183L28.1581 45.9822L25.6357 45.4228C25.6357 45.4228 27.1792 44.6167 27.4254 43.7023C27.6716 42.8241 26.9329 39.9126 26.8969 39.7381C26.9329 39.7742 27.6356 40.3697 27.9479 41.3503C28.5064 39.8043 29.2451 38.3305 29.4552 38.1921C29.6654 38.0538 32.5 36.5439 32.5 36.5439L31.5572 39.0343L32.2598 38.6493L33.9414 34.5106C33.9414 34.5106 35.5869 33.7045 36.812 33.7045C39.016 33.6685 42.277 30.9675 40.8057 26.125C41.226 26.2994 48.5107 29.9509 49.7719 37.1093C50.7147 42.6135 47.5979 47.7688 42.3431 50.7525Z" fill="#A0ABB7"/>
<path d="M34.0072 23.52C34.8119 22.5696 34.4996 21.168 34.4996 21.168L32.1515 24.6449C32.1154 24.6449 32.9862 24.681 34.0072 23.52Z" fill="#1B314F"/>
<path d="M26.1217 42.5051L26.404 41.1035C26.404 41.1035 25.2449 43.1368 25.1428 43.4195C25.0347 43.7383 25.2149 44.2978 25.6653 44.2617C26.1217 44.2256 26.6802 43.5578 26.6802 43.0706C26.6802 42.439 26.1217 42.5051 26.1217 42.5051Z" fill="#1B314F"/>
<path d="M46.9312 20.1874C46.9312 20.1874 48.6848 20.2596 50.5045 20.4701C46.4027 17.2398 42.5172 16.2954 39.3643 16.2954C35.0223 16.2954 32.0796 18.088 31.8994 18.1903L33.2687 16.0126C33.2687 16.0126 27.8037 15.4833 25.8759 21.2762C25.3834 20.049 24.933 18.2564 24.933 18.2564C24.933 18.2564 22.0924 20.7529 23.4256 24.8915C20.1647 23.7005 15.5104 22.0462 15.3302 22.0161C15.084 21.98 15.0119 22.0883 15.0119 22.0883C15.0119 22.0883 14.9399 22.1906 15.1501 22.371C15.5404 22.6778 22.8972 28.1219 24.5126 29.1746C24.1643 30.4378 24.1643 31.0334 24.5126 31.6289C25.0051 32.435 25.0351 32.8561 24.9691 33.4516C24.897 34.0471 24.2664 39.2085 24.1283 39.8401C23.9902 40.4717 22.5188 42.7155 22.5849 43.3832C22.6569 44.0509 23.5638 46.8903 24.3745 47.2091C24.9691 47.4196 26.4404 47.8768 27.4193 47.8768C27.7676 47.8768 28.0859 47.8046 28.224 47.6663C28.8186 47.1429 28.9927 47.0346 29.4131 47.0346H29.5152C29.6894 47.0346 29.8996 47.0707 30.1458 47.0707C30.7043 47.0707 31.443 46.9624 31.9655 46.4752C32.7342 45.7052 34.0674 44.6525 34.4878 44.1592C35.0163 43.4915 35.2925 42.5832 35.1544 41.6688C35.0463 40.8266 35.5027 40.0867 36.0312 39.3528C36.6978 38.4746 37.9229 36.8985 37.9229 36.8985C40.3432 38.7152 41.8505 41.4883 41.8505 44.5743C41.8505 50.0484 37.0882 54.4698 31.2028 54.4698C30.2899 54.4698 29.4191 54.3675 28.5423 54.157C31.2388 55.1014 33.5149 55.4203 35.3766 55.4203C39.3342 55.4203 41.4362 53.9826 41.4362 53.9826C41.4362 53.9826 40.7035 54.933 39.5084 56.0158H39.5444C46.0964 55.1014 49.2854 49.6995 49.2854 49.6995C49.2854 49.6995 49.0391 51.456 48.7269 52.6471C57.4408 46.0842 55.9695 37.873 55.9335 37.5963C56.0055 37.6986 56.8823 38.7513 57.3327 39.3167C58.738 24.8554 46.9312 20.1874 46.9312 20.1874ZM33.5149 43.281C33.3768 43.4554 32.7822 43.9848 32.3618 44.3698C31.9415 44.7548 31.485 45.1397 31.1367 45.4947C30.9986 45.633 30.7163 45.7052 30.2959 45.7052H29.245C29.7735 45.0014 31.3109 43.3892 31.8394 43.0403C32.4699 42.6192 32.7882 42.1982 32.3979 41.4643C32.0135 40.7244 30.9986 40.9048 30.9986 40.9048C30.9986 40.9048 31.5931 40.6582 32.1216 40.6582C31.455 40.4837 30.6142 40.6582 30.2299 41.0432C29.8095 41.4282 29.8816 42.7997 29.7074 43.672C29.5332 44.5863 28.9387 45.0435 28.0259 45.8857C27.5334 46.3428 27.1851 46.4812 26.9028 46.4812C26.3083 46.3789 25.6056 46.1985 25.1132 46.024C24.7649 45.5668 24.2364 44.057 24.0983 43.4253C24.2004 43.0764 24.6207 42.3365 24.8309 41.9154C25.2513 41.1094 25.4975 40.6522 25.5696 40.2311C25.7077 39.6356 26.1642 35.948 26.3383 34.4081C26.7947 35.0036 27.4253 35.9902 27.2812 36.6218C28.2961 35.1841 27.5634 33.7764 27.2091 33.217C26.8968 32.6576 26.4764 31.5327 26.8248 30.3416C27.1731 29.1505 28.4342 25.848 28.4342 25.848C28.4342 25.848 28.8546 26.5879 29.4492 26.4435C30.0437 26.3052 34.8421 19.0745 34.8421 19.0745C34.8421 19.0745 36.1393 21.9139 34.7701 23.9892C33.3708 26.0585 32.0015 26.4435 32.0015 26.4435C32.0015 26.4435 33.9293 26.7924 35.7129 25.4931C36.4456 27.2135 37.1482 29.0001 37.1843 29.2468C37.0762 29.4934 35.6769 32.8621 35.5388 33.0726C35.4667 33.1448 34.9802 33.2832 34.6259 33.3554C34.0314 33.5298 33.6831 33.6381 33.5389 33.7404C33.2927 33.9509 32.1697 37.0369 31.6472 38.5467C31.0166 38.7212 30.386 39.0761 29.9296 39.7739C30.1758 39.5995 30.9445 39.4912 31.5091 39.425C32.0015 39.3889 33.5029 40.195 33.8932 41.7049V41.7771C33.9713 42.3305 33.7972 42.8599 33.5149 43.281ZM30.2239 43.702C30.5422 43.2449 30.5061 42.4749 30.5422 42.2282C30.5782 41.9816 30.6443 41.5244 30.9265 41.4583C31.2088 41.3861 31.8754 41.4943 31.8754 41.9816C31.8754 42.4388 31.3829 42.541 31.0346 42.8599C30.7824 43.1005 30.2899 43.6299 30.2239 43.702ZM44.1987 36.9947C44.547 35.2081 44.583 33.6622 44.481 32.3989C45.8442 34.2216 46.685 36.4353 46.9312 38.7152C46.9672 38.9979 47.2435 39.2746 47.5257 39.5574C47.772 39.7679 48.0542 40.0506 48.0542 40.2251C48.0542 41.0312 47.9822 41.8372 47.844 42.6493C47.808 42.7516 47.4957 42.9321 47.2495 43.0704C46.9012 43.2449 46.5829 43.4193 46.5168 43.702C45.7481 46.403 44.0966 48.7912 41.8926 50.4755C45.1476 47.0707 46.721 41.4522 44.1987 36.9947ZM41.9947 50.7883C44.2708 49.0318 46.0244 46.5775 46.7931 43.8043C46.8291 43.702 47.1414 43.5216 47.3516 43.3832C47.6999 43.2088 48.0542 42.9982 48.1203 42.7155C48.2584 41.9094 48.3305 41.0672 48.3305 40.2251C48.3305 39.9123 48.0122 39.5934 47.6999 39.2806C47.5258 39.0701 47.2435 38.8235 47.2435 38.649C46.9612 36.0864 45.9463 33.6682 44.3729 31.665C43.6702 27.4541 40.8716 26.1548 40.7996 26.1187C40.8716 26.227 42.6913 28.8558 41.4302 31.9417C40.133 35.0638 36.8059 34.5765 36.5237 34.6066C36.2414 34.6066 35.1604 36.0082 33.7912 38.6069C33.617 38.5347 32.8783 38.3603 32.0375 38.5046C32.6681 36.7481 33.617 34.2577 33.7912 34.0471C33.8632 33.975 34.3857 33.8366 34.74 33.7343C35.4066 33.5599 35.7189 33.4516 35.827 33.3133C35.8991 33.205 36.2474 32.3989 36.5957 31.5567C36.914 31.5567 37.7188 31.4845 37.7848 31.4484C37.8569 31.3763 38.5235 29.6618 38.5235 29.4513C38.5235 29.2768 37.1542 25.8721 36.6318 24.5727C36.878 24.29 37.1242 23.9411 37.3644 23.5561C44.547 24.3321 50.1562 30.4378 50.1562 37.8369C50.1562 43.5216 46.8291 48.4723 41.9947 50.7883Z" fill="#364253"/>
<path d="M32.6745 31.8398C33.3411 31.0698 32.9927 29.6321 31.7616 29.3854C32.0799 28.6515 32.5303 27.1777 32.5303 27.1777C32.5303 27.1777 28.957 32.7902 28.6448 32.8985C28.3265 33.0068 28.0142 31.7736 28.0142 31.7736C27.3476 34.3362 29.1372 34.6851 29.3474 33.879C30.3263 33.6264 32.0078 32.5736 32.6745 31.8398Z" fill="#1B314F"/>
<path d="M29.623 33.2051L31.4427 30.083C31.4427 30.083 32.4937 30.6124 31.9652 31.4545C31.3046 32.4351 29.623 33.2051 29.623 33.2051Z" fill="#A0ABB7"/>
<path d="M52.1497 47.6664C51.6213 48.3703 51.0267 49.1041 50.3301 49.808C54.8462 41.1035 50.5403 33.139 50.3661 32.8262C50.6844 33.145 50.9967 33.4939 51.2789 33.8067C54.7441 37.6626 55.1645 43.4556 52.1497 47.6664Z" fill="#8D98A8"/>
<path d="M56.3537 36.4715C54.7742 32.2245 52.5342 28.6092 47.5976 25.3488C42.8353 22.1906 37.7186 22.4373 37.4363 22.4734H37.3643C37.5384 22.4012 37.7126 22.3651 37.8867 22.335C38.9737 21.9861 40.373 21.7034 41.7783 21.5289C45.4957 20.9935 49.2432 22.2568 51.8015 24.9638C51.8375 24.9999 51.8375 24.9999 51.8736 25.036C54.7802 28.1219 56.2876 31.9779 56.3537 36.4715Z" fill="#8D98A8"/>
<path d="M46.4746 19.0991C41.2558 18.1186 37.8927 18.6058 35.4725 19.5202C35.4004 19.2375 35.1542 18.678 34.944 18.2208C34.2173 19.0991 33.4426 20.1518 32.9562 20.8195C31.623 21.7339 31.0645 22.6122 31.0645 22.6122C31.8332 19.9774 34.0792 18.0163 36.8117 17.523C37.5804 17.3847 38.4212 17.3125 39.334 17.3125C41.7483 17.3486 44.1625 17.9441 46.4746 19.0991Z" fill="#8D98A8"/>
<path d="M27.1733 25.8359C23.0775 25.6976 24.4408 20.9212 24.5128 20.6445C24.5128 20.6806 24.7891 24.3982 27.1733 25.8359Z" fill="#8D98A8"/>
<path d="M31.2031 17.2402C28.0502 19.1351 28.6808 23.6588 28.6808 23.6588C25.666 19.069 30.9569 17.3485 31.2031 17.2402Z" fill="#8D98A8"/>
<path d="M26.0198 27.0993C26.23 27.2738 26.4402 27.5926 26.194 28.0498C26.0559 28.2964 25.8457 28.2603 25.5274 28.122C25.107 27.9114 22.5847 26.4376 20.3086 24.9277C22.903 25.8421 25.5274 26.8226 25.9478 27.0332C25.9478 27.0332 25.9838 27.0693 26.0198 27.0993Z" fill="white"/>
</svg>
