<svg width="128" height="128" viewBox="0 0 128 128" fill="none" xmlns="http://www.w3.org/2000/svg">
<g clip-path="url(#clip0_9494_69163)">
<g clip-path="url(#clip1_9494_69163)">
<path d="M28.34 70.5279L31.9337 43.4822L0.762695 21.8071L29.2432 31.4704L35.9694 21.1334L60.5295 5.86841L114.666 35.7438L117.471 81.327L93.3532 114.898L74.2893 117.824L84.148 99.7489V82.3472L76.9798 68.757L69.6963 63.9253L58.4925 75.4943V87.7371L49.7484 95.9375L38.6406 97.2849L33.7209 100.076L25.6495 97.4967L22.2864 85.3694L28.34 76.8418V70.5279Z" fill="white"/>
<path d="M78.1139 21.575C72.1756 20.343 65.6801 20.6702 65.6801 20.6702C65.6801 20.6702 63.5469 30.5453 50.3252 33.144C50.4213 33.144 67.794 39.0922 78.1139 21.575Z" fill="#A0ABB7"/>
<path d="M83.4949 111.183C90.6631 105.562 96.0441 97.8234 98.5231 89.0648C98.6384 88.7376 99.6377 88.1601 100.31 87.7173C101.425 87.0436 102.559 86.4854 102.77 85.5806C103.212 83.0012 103.443 80.3062 103.443 77.6113C103.443 76.6103 102.424 75.5901 101.425 74.5891C100.637 73.9154 99.8491 73.1261 99.8491 72.5679C98.7345 62.3463 94.0262 52.7985 86.5121 45.8494L85.7242 46.6386C93.0077 53.4915 97.716 62.8083 98.7345 72.6834C98.8498 73.5881 99.7338 74.4736 100.637 75.3783C101.425 76.0521 102.328 77.0723 102.328 77.515C102.328 80.0945 102.098 82.6739 101.656 85.2534C101.54 85.6961 100.541 86.1581 99.7531 86.6009C98.6384 87.1591 97.6199 87.7173 97.4085 88.6221C94.718 98.1699 88.5492 106.486 80.3625 111.876C81.823 108.738 86.416 98.5164 88.8759 93.3382L88.4339 76.7258L74.1936 62.9238L66.1222 64.0403L57.2629 78.4198C57.2629 78.4198 61.4139 83.6942 55.5717 89.8733C49.8641 95.9369 45.3672 97.2844 45.3672 97.2844L41.2162 95.0322C42.4461 93.4537 44.9252 91.1053 46.8277 89.5268C50.0755 86.8319 53.3233 86.6009 53.3233 83.6942C53.4578 77.6113 46.943 79.286 46.943 79.286L44.5792 81.5382L43.5799 89.854L38.6602 96.0332L38.1029 95.9177L30.0315 94.1275C30.0315 94.1275 34.9704 91.548 35.7583 88.6221C36.5463 85.8116 34.1825 76.4948 34.0672 75.9366C34.1825 76.0521 36.431 77.9578 37.4303 81.0955C39.2175 76.1483 41.5813 71.4321 42.2539 70.9894C42.9265 70.5467 51.9972 65.715 51.9972 65.715L48.9801 73.6844L51.2285 72.4524L56.6095 59.2086C56.6095 59.2086 61.8751 56.6292 65.7955 56.6292C72.8484 56.5137 83.2835 47.8706 78.5752 32.3746C79.9205 32.9329 103.231 44.6174 107.267 67.5245C110.284 85.1379 100.31 101.635 83.4949 111.183Z" fill="#A0ABB7"/>
<path d="M56.8238 24.0386C59.3989 20.9971 58.3996 16.512 58.3996 16.512L50.8855 27.6383C50.7702 27.6383 53.5568 27.7538 56.8238 24.0386Z" fill="#1B314F"/>
<path d="M31.5929 84.7911L32.4962 80.3059C32.4962 80.3059 28.7872 86.8123 28.4605 87.717C28.1145 88.7373 28.6911 90.5275 30.1324 90.412C31.5929 90.2965 33.3802 88.1598 33.3802 86.6005C33.3802 84.5793 31.5929 84.7911 31.5929 84.7911Z" fill="#1B314F"/>
<path d="M98.1801 13.3743C98.1801 13.3743 103.792 13.6053 109.615 14.279C96.4889 3.94198 84.0551 0.919789 73.9659 0.919789C60.0715 0.919789 50.6549 6.65618 50.0784 6.98343L54.46 0.0150561C54.46 0.0150561 36.972 -1.67891 30.8031 16.8585C29.2272 12.9316 27.7859 7.19517 27.7859 7.19517C27.7859 7.19517 18.696 15.1838 22.9623 28.4275C12.5271 24.6161 -2.36653 19.3224 -2.94306 19.2262C-3.73099 19.1107 -3.9616 19.4572 -3.9616 19.4572C-3.9616 19.4572 -4.19221 19.7844 -3.51959 20.3619C-2.27045 21.3437 21.2711 38.7646 26.4407 42.1333C25.3261 46.1757 25.3261 48.0814 26.4407 49.9871C28.0165 52.5666 28.1126 53.914 27.9012 55.8198C27.6706 57.7255 25.6528 74.2417 25.2108 76.2629C24.7688 78.2841 20.0604 85.4642 20.2718 87.6009C20.5024 89.7376 23.4043 98.8234 25.9987 99.8437C27.9012 100.517 32.6095 101.98 35.742 101.98C36.8566 101.98 37.8752 101.749 38.3172 101.307C40.2197 99.6319 40.777 99.2854 42.1223 99.2854H42.449C43.0063 99.2854 43.6789 99.4009 44.4668 99.4009C46.2541 99.4009 48.6178 99.0544 50.2898 97.4952C52.7496 95.0313 57.0159 91.6626 58.3612 90.0841C60.0523 87.9474 60.9363 85.0407 60.4943 82.1148C60.1484 79.4198 61.609 77.0521 63.3001 74.7037C65.4333 71.8932 69.3537 66.8498 69.3537 66.8498C77.0984 72.6632 81.922 81.5373 81.922 91.4123C81.922 108.93 66.6824 123.078 47.8491 123.078C44.9281 123.078 42.1415 122.751 39.3357 122.077C47.9644 125.099 55.2479 126.119 61.2054 126.119C73.8698 126.119 80.596 121.519 80.596 121.519C80.596 121.519 78.2514 124.56 74.4271 128.025H74.5424C95.5089 125.099 105.713 107.813 105.713 107.813C105.713 107.813 104.925 113.434 103.926 117.245C131.811 96.244 127.103 69.9682 126.987 69.0828C127.218 69.41 130.024 72.7787 131.465 74.5882C135.962 28.312 98.1801 13.3743 98.1801 13.3743ZM55.2479 87.2737C54.8059 87.8319 52.9034 89.5259 51.5581 90.7579C50.2129 91.9898 48.7524 93.2218 47.6377 94.3575C47.1957 94.8003 46.2925 95.0313 44.9473 95.0313H41.5842C43.2753 92.7791 48.195 87.6202 49.8862 86.5037C51.904 85.1562 52.9226 83.8087 51.6734 81.4603C50.4435 79.0926 47.1957 79.6701 47.1957 79.6701C47.1957 79.6701 49.0983 78.8808 50.7894 78.8808C48.6563 78.3226 45.9658 78.8808 44.7359 80.1128C43.3906 81.3448 43.6213 85.7337 43.0639 88.5249C42.5066 91.4508 40.6041 92.9138 37.683 95.6088C36.1072 97.0717 34.9925 97.5145 34.0893 97.5145C32.1868 97.1872 29.9383 96.6097 28.3625 96.0515C27.2478 94.5885 25.5567 89.7569 25.1147 87.7357C25.4414 86.6192 26.7866 84.2515 27.4592 82.904C28.8045 80.3245 29.5924 78.8616 29.823 77.5141C30.265 75.6084 31.7255 63.8084 32.2828 58.8805C33.7434 60.7862 35.7612 63.9431 35.3 65.9643C38.5478 61.3637 36.2032 56.8592 35.0694 55.069C34.0701 53.2788 32.7249 49.6791 33.8395 45.8677C34.9541 42.0563 38.9898 31.4882 38.9898 31.4882C38.9898 31.4882 40.335 33.8559 42.2376 33.3939C44.1401 32.9512 59.495 9.81312 59.495 9.81312C59.495 9.81312 63.646 18.899 59.2644 25.5401C54.7867 32.162 50.4051 33.3939 50.4051 33.3939C50.4051 33.3939 56.5739 34.5104 62.2816 30.3525C64.6261 35.8579 66.8746 41.575 66.9899 42.3643C66.644 43.1535 62.1663 53.9333 61.7243 54.607C61.4936 54.838 59.937 55.2808 58.8032 55.5118C56.9006 56.07 55.786 56.4165 55.3248 56.7437C54.5369 57.4175 50.9432 67.2925 49.2712 72.1242C47.2534 72.6824 45.2355 73.8182 43.775 76.0511C44.5629 75.4929 47.0228 75.1464 48.8292 74.9346C50.4051 74.8191 55.2095 77.3986 56.4586 82.2303V82.4613C56.7085 84.2322 56.1511 85.9262 55.2479 87.2737ZM44.7167 88.6211C45.7352 87.1582 45.6199 84.6942 45.7352 83.905C45.8505 83.1157 46.0619 81.6528 46.9651 81.441C47.8684 81.21 50.0015 81.5565 50.0015 83.1157C50.0015 84.5787 48.4257 84.906 47.311 85.9262C46.5039 86.6962 44.928 88.3901 44.7167 88.6211ZM89.4361 67.1578C90.5507 61.4407 90.666 56.4935 90.3393 52.4511C94.7017 58.2837 97.3922 65.3676 98.1801 72.6632C98.2954 73.5679 99.1794 74.4534 100.083 75.3581C100.871 76.0319 101.774 76.9366 101.774 77.4949C101.774 80.0743 101.543 82.6538 101.101 85.2525C100.986 85.5797 99.9866 86.1572 99.1986 86.5999C98.084 87.1582 97.0655 87.7164 96.8541 88.6211C94.3942 97.2642 89.1094 104.906 82.0565 110.296C92.4725 99.4009 97.5075 81.4218 89.4361 67.1578ZM82.3832 111.297C89.6667 105.676 95.2782 97.8225 97.7381 88.9484C97.8534 88.6211 98.8527 88.0437 99.5253 87.6009C100.64 87.0427 101.774 86.3689 101.985 85.4642C102.427 82.8848 102.658 80.1898 102.658 77.4949C102.658 76.4939 101.639 75.4736 100.64 74.4727C100.083 73.7989 99.1794 73.0097 99.1794 72.4514C98.2762 64.2511 95.0284 56.5127 89.9934 50.1026C87.7449 36.6279 78.7895 32.4699 78.5589 32.3544C78.7895 32.7009 84.6125 41.113 80.5768 50.9881C76.4257 60.9787 65.7792 59.4194 64.8759 59.5157C63.9727 59.5157 60.5135 64.0009 56.1319 72.3167C55.5746 72.0857 53.2108 71.5275 50.5204 71.9895C52.5382 66.3686 55.5746 58.3992 56.1319 57.7255C56.3625 57.4945 58.0345 57.0517 59.1683 56.7245C61.3015 56.1662 62.3008 55.8198 62.6467 55.377C62.8773 55.0305 63.9919 52.4511 65.1066 49.7561C66.1251 49.7561 68.7003 49.5251 68.9117 49.4096C69.1423 49.1786 71.2754 43.6925 71.2754 43.0187C71.2754 42.4605 66.8938 31.5652 65.2219 27.4073C66.0098 26.5026 66.7977 25.3861 67.5664 24.1541C90.5507 26.6373 108.5 46.1757 108.5 69.8527C108.5 88.0436 97.8534 103.886 82.3832 111.297Z" fill="#364253"/>
<path d="M52.5553 50.6619C54.6885 48.1979 53.5739 43.5973 49.6342 42.808C50.6528 40.4596 52.0941 35.7434 52.0941 35.7434C52.0941 35.7434 40.6596 53.7033 39.6603 54.0498C38.6418 54.3963 37.6424 50.4501 37.6424 50.4501C35.5093 58.6505 41.2361 59.767 41.9088 57.1875C45.0412 56.379 50.4222 53.0103 52.5553 50.6619Z" fill="#1B314F"/>
<path d="M42.7939 55.0277L48.6169 45.0371C48.6169 45.0371 51.98 46.7311 50.2888 49.426C48.1749 52.5637 42.7939 55.0277 42.7939 55.0277Z" fill="#A0ABB7"/>
<path d="M114.879 101.307C113.188 103.559 111.285 105.908 109.056 108.16C123.508 80.3059 109.729 54.8193 109.171 53.8184C110.19 54.8386 111.189 55.9551 112.092 56.956C123.181 69.2951 124.526 87.8325 114.879 101.307Z" fill="#8D98A8"/>
<path d="M128.335 65.4833C123.281 51.893 116.112 40.324 100.315 29.8907C85.0759 19.7846 68.7024 20.5739 67.7992 20.6894H67.5686C68.1259 20.4584 68.6832 20.3429 69.2405 20.2466C72.7189 19.1302 77.1966 18.2254 81.6936 17.6672C93.5893 15.954 105.581 19.9964 113.768 28.6587C113.883 28.7742 113.883 28.7742 113.998 28.8897C123.3 38.7648 128.123 51.1038 128.335 65.4833Z" fill="#8D98A8"/>
<path d="M96.7184 9.8917C80.0183 6.75401 69.2564 8.31323 61.5117 11.2392C61.2811 10.3344 60.4932 8.54423 59.8206 7.08126C57.4953 9.8917 55.0162 13.2604 53.4596 15.3971C49.1932 18.323 47.406 21.1335 47.406 21.1335C49.8659 12.7022 57.0533 6.42677 65.7973 4.8483C68.2571 4.40556 70.9476 4.17456 73.8687 4.17456C81.5942 4.29006 89.3197 6.19577 96.7184 9.8917Z" fill="#8D98A8"/>
<path d="M34.9543 31.4496C21.8478 31.0069 26.2102 15.7226 26.4409 14.8372C26.4409 14.9527 27.3249 26.8489 34.9543 31.4496Z" fill="#8D98A8"/>
<path d="M47.8466 3.94336C37.7574 10.007 39.7752 24.4827 39.7752 24.4827C30.128 9.79525 47.0587 4.28985 47.8466 3.94336Z" fill="#8D98A8"/>
<path d="M31.2642 35.4921C31.9369 36.0503 32.6095 37.0706 31.8216 38.5335C31.3796 39.3228 30.7069 39.2073 29.6884 38.7645C28.3432 38.0908 20.2718 33.3746 12.9883 28.543C21.2903 31.4689 29.6884 34.6066 31.0336 35.2803C31.0336 35.2803 31.1489 35.3958 31.2642 35.4921Z" fill="white"/>
</g>
</g>
<defs>
<clipPath id="clip0_9494_69163">
<rect width="128" height="128" fill="white"/>
</clipPath>
<clipPath id="clip1_9494_69163">
<rect width="135.837" height="128" fill="white" transform="translate(-4)"/>
</clipPath>
</defs>
</svg>