<svg width="128" height="128" viewBox="0 0 128 128" fill="none" xmlns="http://www.w3.org/2000/svg">
<path d="M64.0013 126.77C98.751 126.77 126.921 98.667 126.921 64.0005C126.921 29.334 98.751 1.2312 64.0013 1.2312C29.2515 1.2312 1.0813 29.334 1.0813 64.0005C1.0813 98.667 29.2515 126.77 64.0013 126.77Z" fill="#364253"/>
<path d="M91.5291 89.0084L70.2428 37.7046C69.0504 35.047 67.2491 33.7562 64.9149 33.7562H63.0375C60.678 33.7562 58.902 35.047 57.7096 37.7046L48.4492 60.0535H41.4468C39.3664 60.0788 37.6412 61.7493 37.6412 63.85V63.9007C37.6665 65.9761 39.3664 67.6972 41.4468 67.6972H45.2017L36.3726 89.0084C36.2204 89.4893 36.1189 89.9702 36.1189 90.4764C36.1189 91.6659 36.4995 92.6024 37.1591 93.3364C37.8187 94.0704 38.7828 94.4248 39.9753 94.4248C40.7618 94.3994 41.5229 94.1716 42.1572 93.6908C42.8422 93.2099 43.2989 92.5518 43.6794 91.7672L53.4219 67.6972H60.1706C62.251 67.6719 63.9762 66.0014 63.9762 63.9007V63.7994C63.9508 61.724 62.251 60.0029 60.1706 60.0029H56.5679L64.0016 41.5518L84.2476 91.7672C84.6282 92.5518 85.0848 93.2352 85.7699 93.6908C86.4041 94.1716 87.1906 94.3994 87.9518 94.4248C89.1442 94.4248 90.0829 94.0704 90.7679 93.3364C91.4529 92.6024 91.8081 91.6659 91.8081 90.4764C91.8081 89.9702 91.732 89.4639 91.5291 89.0084Z" fill="white"/>
</svg>
