<svg width="72" height="72" viewBox="0 0 72 72" fill="none" xmlns="http://www.w3.org/2000/svg">
<path d="M36.0004 55.6156C46.8597 55.6156 55.6629 46.8334 55.6629 36.0002C55.6629 25.1669 46.8597 16.3848 36.0004 16.3848C25.1411 16.3848 16.3379 25.1669 16.3379 36.0002C16.3379 46.8334 25.1411 55.6156 36.0004 55.6156Z" fill="#364253"/>
<path d="M44.6028 43.8151L37.9508 27.7827C37.5782 26.9522 37.0153 26.5488 36.2859 26.5488H35.6992C34.9618 26.5488 34.4068 26.9522 34.0342 27.7827L31.1403 34.7667H28.9521C28.3019 34.7746 27.7628 35.2967 27.7628 35.9531V35.969C27.7707 36.6175 28.3019 37.1554 28.9521 37.1554H30.1255L27.3664 43.8151C27.3188 43.9654 27.2871 44.1157 27.2871 44.2739C27.2871 44.6456 27.406 44.9383 27.6122 45.1676C27.8183 45.397 28.1196 45.5077 28.4922 45.5077C28.738 45.4998 28.9759 45.4286 29.1741 45.2784C29.3881 45.1281 29.5309 44.9224 29.6498 44.6772L32.6943 37.1554H34.8033C35.4534 37.1475 35.9925 36.6254 35.9925 35.969V35.9373C35.9846 35.2888 35.4534 34.7509 34.8033 34.7509H33.6774L36.0004 28.9849L42.3273 44.6772C42.4463 44.9224 42.589 45.136 42.803 45.2784C43.0012 45.4286 43.247 45.4998 43.4849 45.5077C43.8575 45.5077 44.1509 45.397 44.3649 45.1676C44.579 44.9383 44.69 44.6456 44.69 44.2739C44.69 44.1157 44.6662 43.9575 44.6028 43.8151Z" fill="white"/>
</svg>
