<svg width="128" height="128" viewBox="0 0 128 128" fill="none" xmlns="http://www.w3.org/2000/svg">
<g clip-path="url(#clip0_13525_138130)">
<path d="M64 128C99.3462 128 128 99.3462 128 64C128 28.6538 99.3462 0 64 0C28.6538 0 0 28.6538 0 64C0 99.3462 28.6538 128 64 128Z" fill="#364253"/>
<g clip-path="url(#clip1_13525_138130)">
<path d="M114.068 64.534C114.068 92.4431 91.4429 115.068 63.5338 115.068C35.6248 115.068 13 92.4431 13 64.534C13 36.6248 35.6248 14 63.5338 14C91.4429 14 114.068 36.6248 114.068 64.534Z" stroke="white" stroke-width="4.16175"/>
<mask id="mask0_13525_138130" style="mask-type:alpha" maskUnits="userSpaceOnUse" x="10" y="11" width="107" height="107">
<path d="M109.768 64.5341C109.768 90.0682 89.068 110.767 63.5339 110.767C37.9998 110.767 17.3005 90.0682 17.3005 64.5341C17.3005 39 37.9998 18.3005 63.5339 18.3005C89.068 18.3005 109.768 39 109.768 64.5341Z" fill="#31C77F" stroke="#31C77F" stroke-width="13.8725"/>
</mask>
<g mask="url(#mask0_13525_138130)">
<path d="M41.0688 112.871C41.4603 109.055 46.2472 101.975 46.04 98.1589C46.0168 97.5152 46.04 96.8715 46.1319 96.2281C46.5233 93.5382 46.4083 90.8487 46.2011 88.182C46.109 87.0786 46.2011 85.9983 46.3851 84.8949C46.7765 82.5272 47.0065 80.1824 46.7304 77.7686C46.4772 75.4928 46.7533 73.2169 47.2137 70.9871C47.6048 69.1021 47.559 67.217 47.2597 65.332C47.1908 64.9183 47.1215 64.4814 47.1908 64.0906C47.4437 62.6885 47.5819 61.2632 47.6279 59.6768C48.9858 60.8724 50.4355 60.9414 51.9777 60.5963C53.2434 60.3205 54.0028 59.4932 54.5092 58.3665C54.6703 57.9989 54.7392 57.5392 55.3607 57.6771C55.6599 57.746 56.005 57.6999 56.051 57.2863C56.0971 56.8955 55.7978 56.7805 55.4757 56.7115C53.5656 56.2746 51.6323 55.8149 49.7223 55.4012C49.1008 55.2633 48.4565 55.1022 47.8351 55.0333C47.2826 54.9644 47.1676 54.7114 47.2137 54.2056C47.4897 51.8611 47.9272 49.5621 48.8708 47.3784C49.7912 45.2633 50.9648 43.2635 52.6449 41.6314C52.852 41.4246 53.1052 41.1945 52.967 40.8498C52.8291 40.5048 52.5531 40.4129 52.2306 40.5279C51.8856 40.643 51.7474 40.459 51.5863 40.229C51.2641 39.7235 50.9188 39.2176 50.6198 38.6888C49.6073 37.0337 48.3873 35.5395 47.1676 34.0223C46.9144 33.7004 46.5922 33.4246 46.2472 33.1717C45.2114 32.4361 44.2907 32.8499 44.1757 34.1372C44.0839 34.9648 44.1528 35.8153 44.4521 36.5969C45.5336 39.3327 46.3622 42.183 47.9272 44.7117C48.3183 45.3554 47.7661 45.6541 47.559 46.1138C47.1676 45.8381 46.9604 45.4473 46.7765 45.1025C44.6361 41.3324 42.841 37.4245 42.0814 33.1027C41.8745 31.9763 41.8745 30.8269 41.9203 29.7005C41.9896 28.4591 42.5417 28.1373 43.7386 28.4362C44.6132 28.666 45.2804 29.2178 45.925 29.8154C48.1112 31.8384 49.9755 34.1142 51.9545 36.3211C52.4838 36.9188 53.0131 37.5165 53.5195 38.1141C53.8417 38.482 54.141 38.8268 54.187 39.3784C54.2328 39.9992 54.6703 40.1832 55.2456 39.9532C55.3835 39.9071 55.5217 39.8382 55.6599 39.7463C56.6264 39.0798 57.7082 38.8498 58.8586 38.6659C62.0116 38.0912 65.1184 38.321 68.2253 38.9647C68.7089 39.0798 69.1232 39.3327 69.5603 39.5853C70.5039 40.16 70.849 40.0221 71.1254 38.9647C71.1943 38.6659 71.3783 38.413 71.5854 38.1831C74.1401 35.3326 76.5105 32.3211 79.3181 29.7005C79.9396 29.1258 80.561 28.5741 81.3896 28.3212C82.7472 27.8844 83.3225 28.2983 83.4147 29.7005C83.5757 32.3671 82.9314 34.8958 82.08 37.3785C81.2285 39.8614 80.0546 42.2062 78.812 44.5049C78.5356 45.0107 78.1906 45.4473 77.8452 46.022C76.7177 44.3438 76.7177 44.367 77.5691 42.7577C78.6277 40.7808 79.7095 38.8498 80.446 36.7119C80.745 35.8153 80.9982 34.8958 80.9753 33.9303C80.9521 33.3326 80.8371 32.8039 80.2388 32.5051C79.6635 32.2292 79.2031 32.4821 78.7888 32.8269C78.2827 33.2637 77.7534 33.7234 77.293 34.2292C75.7051 35.9533 73.9558 37.5624 72.9433 39.7235C72.7593 40.1371 72.0458 40.3211 72.3219 40.9416C72.5061 41.3556 72.9433 41.6082 73.2194 41.9532C74.8534 43.9301 76.1652 46.091 76.9709 48.5276C77.477 50.0679 77.8223 51.6772 78.0295 53.2861C78.1216 54.1138 78.1216 54.1138 77.2699 54.3438C75.1758 54.8954 73.1044 55.4473 71.01 55.9989C70.8261 56.0449 70.6418 56.0678 70.4579 56.1596C70.0207 56.3668 69.9746 56.7576 70.3889 57.0102C70.665 57.1713 70.8261 57.2631 70.9182 57.631C71.2633 59.1024 72.2068 60.0447 73.7029 60.2516C75.1987 60.4816 76.6027 60.2287 77.477 58.8034C77.5231 58.7116 77.5462 58.6655 77.7073 58.7573C77.6613 60.4584 77.7992 62.1827 78.1216 63.8838C78.1906 64.2057 78.1445 64.5733 78.0984 64.8951C77.6613 67.056 77.7534 69.1939 78.1906 71.3319C78.6509 73.6996 78.7888 76.0675 78.5127 78.4581C78.3056 80.2053 78.4667 81.9524 78.7888 83.6535C79.157 85.5843 79.2492 87.4926 79.042 89.4234C78.8349 91.4006 78.9038 93.3546 79.111 95.3315C79.2492 96.5728 84.6575 101.745 84.5886 103.01C85.624 104.802 86.959 108.228 88.2476 109.883L85.5624 113.95L65.5739 117.466L47.6279 115.801L41.0688 112.871Z" fill="white"/>
<path d="M165.549 69.3321C164.468 68.5047 163.225 67.9068 162.005 67.2863C158.139 65.3323 154.18 63.6312 150.222 61.9301C146.586 60.3669 143.364 58.2289 140.671 55.3094C140.257 54.8728 139.797 54.4588 139.336 54.068C138.761 53.5625 138.117 53.5164 137.426 53.8612C136.46 54.3438 135.493 54.8496 134.572 55.4244C133.261 56.2289 131.051 57.4244 129.648 58.0681C122.352 61.4703 114.803 64.2288 107.255 66.9873C100.558 69.4471 94.0677 72.3667 87.785 75.7228C85.4606 76.9641 83.3431 78.5044 81.3641 80.2055C81.0419 80.4813 80.7198 80.8032 80.3973 81.0561C80.3744 81.0332 80.3516 81.0332 80.3284 81.01C80.2362 81.2858 80.0291 81.5387 79.753 81.6537C79.638 82.1135 79.2926 82.5043 78.6715 82.5043C78.6254 82.5043 78.5794 82.5043 78.5333 82.5043C78.4872 85.217 78.5794 87.9294 78.8787 90.6421C78.9937 91.6306 78.7405 92.2972 78.0501 93.033C74.6439 96.6649 70.8006 99.7224 66.8651 102.711C66.7501 102.803 66.589 102.872 66.4969 102.987C66.1287 103.539 65.7144 103.492 65.1622 103.217C64.1497 102.711 63.1368 102.987 62.2393 103.515C61.7332 103.814 61.365 103.791 60.9046 103.561C58.6031 102.389 56.3248 101.217 54.2076 99.6995C51.3536 97.6765 48.5 95.6765 45.9914 93.2398C45.6924 92.9637 45.4852 92.6651 45.3702 92.3661C45.3242 92.3432 45.2549 92.3203 45.2092 92.2972C45.186 92.2972 45.186 92.2972 45.1631 92.2743C44.6567 92.0674 45.4852 91.3548 44.9328 91.2626C44.8177 91.3087 44.7256 91.3316 44.6106 91.3777C44.4727 91.5156 43.437 91.6766 42.7234 92.2972C42.6773 92.3432 42.6084 92.3893 42.5394 92.435C40.4222 94.1133 39.8926 96.527 41.1355 98.9179C41.3655 99.3544 41.2966 99.6534 41.1126 100.044C40.1458 102.021 40.238 103.929 41.6419 105.676C42.0101 106.159 42.3552 106.665 42.8616 107.033L44.0123 107.837C44.6795 108.205 45.6463 108.573 46.1524 108.711C48.2928 109.286 50.4561 109.653 52.6655 109.745C53.6783 109.791 54.7137 109.63 55.7263 109.538C57.6827 109.354 59.6617 109.193 61.595 108.918C62.3314 108.803 63.0218 109.009 63.7122 109.033C64.3336 109.055 64.978 109.124 65.4844 108.803C66.474 108.205 67.5787 108.182 68.6373 108.09C70.9846 107.883 73.286 107.354 75.5186 106.642C77.7969 105.929 80.0752 105.24 82.2616 104.228C84.4478 103.217 86.3582 101.929 87.4628 99.6995C87.5778 99.4926 87.6929 99.3544 87.8771 99.2397C89.5572 98.2281 92.2958 97.7223 93.7916 97.1018C96.1159 95.8144 98.4174 94.5269 100.765 93.2856C104.079 91.5387 107.416 89.8145 111.006 88.6421C117.082 86.6191 123.365 85.6078 129.693 84.8262C132.018 84.5272 134.365 84.3433 136.667 83.7688C140.648 82.7572 144.492 81.3779 148.381 80.1366C149.67 79.7229 150.981 79.3089 152.224 78.7574C156.114 77.0563 159.842 75.0101 163.57 73.0104C164.261 72.6425 164.928 72.1827 165.572 71.7001C166.677 70.8263 166.654 70.1826 165.549 69.3321Z" fill="#364253"/>
<path d="M84.7069 29.3787C84.6148 27.6316 83.418 26.689 81.6919 27.0339C80.9094 27.1948 80.1729 27.4706 79.5057 27.9534C77.8718 29.1488 76.4907 30.62 75.1789 32.1372C73.637 33.9073 72.072 35.6774 70.5762 37.4934C70.1159 38.0451 69.7016 38.0681 69.1262 37.8153C68.2287 37.4015 67.2851 37.0796 66.2957 37.0107C62.8435 36.7578 59.3913 36.6429 56.0773 37.9302C55.3869 38.2061 54.9958 38.0681 54.5354 37.5164C53.0625 35.7463 51.5436 33.9992 50.0017 32.2522C48.6438 30.712 47.2631 29.2177 45.583 28.0224C44.7776 27.4477 43.903 27.1718 42.9365 27.1258C41.7165 27.0798 40.9111 27.6775 40.6118 28.8729C40.52 29.2407 40.4968 29.6315 40.4968 29.9993C40.4968 32.0912 40.8882 34.1372 41.3025 36.1831C41.9008 39.1485 43.2587 41.838 44.4323 44.5736C44.8926 45.6542 45.5141 46.6655 46.3195 47.5161C46.6187 47.8379 46.6877 48.114 46.5727 48.5277C46.3884 49.1714 46.2273 49.838 46.0663 50.5046C45.4219 52.9183 45.1916 55.3781 45.5598 57.838C45.767 59.1483 45.7212 60.3896 45.583 61.6767C45.4219 63.0791 45.3759 64.4584 45.698 65.8608C46.0894 67.5158 45.9973 69.1709 45.583 70.8262C45.1459 72.573 44.9155 74.3202 45.0077 76.1134C45.1227 78.0214 44.8926 79.9064 44.8234 81.7915C44.8005 82.8949 44.8234 83.9984 44.5705 85.0786C44.2483 86.4579 44.2712 87.8603 44.4783 89.2624C44.8695 91.998 44.6165 90.6648 44.7316 92.3199C45.2377 92.3199 45.8362 93.9059 46.3655 93.8831C46.3423 92.5957 46.2045 89.4924 46.0894 88.205C45.9973 87.1016 46.0894 86.0213 46.2734 84.9179C46.6645 82.5499 46.8948 80.2051 46.6187 77.7913C46.3655 75.5158 46.6416 73.2399 47.102 71.0101C47.4931 69.1251 47.447 67.24 47.1481 65.355C47.0788 64.9413 47.0099 64.5044 47.0788 64.1136C47.332 62.7112 47.4702 61.2862 47.5163 59.6998C48.8739 60.8954 50.3239 60.9644 51.8657 60.6193C53.1315 60.3435 53.8911 59.5159 54.3972 58.3895C54.5586 58.0216 54.6276 57.5619 55.249 57.7001C55.548 57.769 55.8933 57.7229 55.9394 57.3093C55.9854 56.9185 55.6862 56.8034 55.364 56.7345C53.4539 56.2976 51.5207 55.8379 49.6103 55.4242C48.9892 55.2863 48.3446 55.1252 47.7234 55.0563C47.1709 54.9873 47.0559 54.7344 47.102 54.2286C47.3781 51.8838 47.8152 49.5851 48.7588 47.4014C49.6796 45.2863 50.8532 43.2865 52.5332 41.6544C52.7404 41.4472 52.9936 41.2175 52.8554 40.8728C52.7175 40.5277 52.4411 40.4359 52.1189 40.5509C51.7739 40.6656 51.6357 40.482 51.4746 40.252C51.1525 39.7461 50.8071 39.2406 50.5081 38.7118C49.4953 37.0566 48.2756 35.5624 47.0559 34.0452C46.8027 33.7234 46.4805 33.4475 46.1352 33.1947C45.0998 32.4591 44.1791 32.8728 44.0641 34.1601C43.9719 34.9877 44.0412 35.8383 44.3401 36.6199C45.4219 39.3553 46.2505 42.206 47.8152 44.7347C48.2067 45.3784 47.6542 45.6771 47.447 46.1368C47.0559 45.861 46.8488 45.4703 46.6645 45.1255C44.5244 41.3554 42.7294 37.4474 41.9697 33.1257C41.7626 31.9993 41.7626 30.8499 41.8086 29.7235C41.8776 28.4821 42.4301 28.1603 43.6269 28.4591C44.5012 28.689 45.1687 29.2407 45.813 29.8384C47.9995 31.8614 49.8635 34.1372 51.8428 36.344C52.3721 36.9417 52.9014 37.5394 53.4079 38.1371C53.73 38.5049 54.029 38.8497 54.0751 39.4014C54.1211 40.0222 54.5586 40.2059 55.1337 39.9762C55.2719 39.9301 55.4101 39.8612 55.548 39.7693C56.5147 39.1027 57.5962 38.8727 58.747 38.6888C61.8999 38.1141 65.0068 38.344 68.1137 38.9877C68.5969 39.1024 69.0112 39.3553 69.4487 39.6083C70.3923 40.183 70.7373 40.0451 71.0134 38.9877C71.0826 38.6888 71.2666 38.4359 71.4737 38.2061C74.0284 35.3555 76.3989 32.3441 79.2065 29.7235C79.8279 29.1488 80.4493 28.5971 81.2776 28.3442C82.6355 27.9074 83.2109 28.3212 83.303 29.7235C83.4641 32.3901 82.8198 34.9188 81.9683 37.4015C81.1165 39.884 79.9429 42.2288 78.7 44.5279C78.4239 45.0334 78.0789 45.4702 77.7336 46.045C76.606 44.3668 76.606 44.39 77.4575 42.7807C78.5161 40.8038 79.5976 38.8727 80.334 36.7348C80.6333 35.8383 80.8865 34.9188 80.8636 33.9533C80.8404 33.3556 80.7254 32.8268 80.1272 32.528C79.5518 32.2522 79.0914 32.505 78.6772 32.8499C78.1707 33.2866 77.6414 33.7464 77.1814 34.2521C75.5932 35.9762 73.8442 37.5854 72.8316 39.7461C72.6474 40.1601 71.9341 40.3441 72.2102 40.9646C72.3945 41.3783 72.8316 41.6312 73.1077 41.9762C74.7417 43.9531 76.0535 46.114 76.8589 48.5506C77.3653 50.0909 77.7107 51.7002 77.9178 53.3091C78.0097 54.1368 78.0097 54.1368 77.1582 54.3665C75.0639 54.9184 72.9927 55.47 70.8984 56.0218C70.7144 56.0679 70.5302 56.0908 70.3462 56.1826C69.9087 56.3895 69.8627 56.7803 70.2769 57.0332C70.5533 57.1942 70.7144 57.2861 70.8062 57.654C71.1516 59.1251 72.0952 60.0677 73.591 60.2746C75.087 60.5046 76.4907 60.2517 77.3653 58.8264C77.4114 58.7343 77.4343 58.6885 77.5954 58.7803C77.5496 60.4814 77.6875 62.2057 78.0097 63.9068C78.0789 64.2286 78.0328 64.5963 77.9868 64.9181C77.5496 67.079 77.6414 69.2169 78.0789 71.3549C78.539 73.7226 78.6772 76.0902 78.4011 78.4811C78.1939 80.2283 78.355 81.9754 78.6772 83.6765C79.0454 85.6073 79.1375 87.5156 78.9304 89.4464C78.8614 90.0901 78.8154 90.7338 78.8154 91.3775C79.3447 91.4004 79.874 91.4233 80.4033 91.4464C80.4261 91.1246 80.4493 90.7799 80.4954 90.458C80.7022 88.6187 80.9555 86.8029 80.6104 84.9179C80.104 82.1591 80.1729 79.3316 80.1272 76.5271C80.104 74.5042 80.0579 72.5273 79.5518 70.5504C79.1604 69.033 79.0454 67.4698 79.3907 65.9297C79.7818 64.2286 79.7358 62.5504 79.5057 60.8493C79.3907 60.0677 79.2293 59.2633 79.4365 58.4817C79.8279 56.9413 79.7818 55.401 79.7129 53.8378C79.6207 51.9988 79.1143 50.2517 78.6543 48.5048C78.5161 47.9761 78.539 47.6082 78.9533 47.1945C79.4826 46.6655 79.92 46.0221 80.2422 45.3324C82.1751 41.4015 83.9012 37.4245 84.4077 33.0338C84.5916 31.8844 84.7759 30.643 84.7069 29.3787Z" fill="#364253"/>
<path d="M164.169 70.7572C162.535 71.6306 161.085 72.4354 159.612 73.1938C157.127 74.4812 154.595 75.6997 152.041 76.8489C150.729 77.4465 149.371 77.9063 147.99 78.3203C144.722 79.3316 141.477 80.3661 138.232 81.3545C135.218 82.274 132.065 82.5959 128.958 82.9867C124.999 83.4696 121.064 84.0212 117.197 84.9639C113.814 85.7912 110.431 86.6418 107.186 87.9521C104.678 88.9637 102.307 90.2279 99.9369 91.4693C97.2443 92.8717 94.6207 94.3888 92.0199 95.952C91.0074 96.5728 89.8567 96.8486 88.752 97.2394C88.3838 97.3544 88.1077 97.3084 87.9698 96.8715C87.5784 95.6991 86.7269 94.8946 85.6222 94.3659C85.2079 94.1591 85.139 93.883 85.1619 93.4464C85.2079 92.8027 85.1851 92.159 84.9547 91.5382C84.6786 90.7566 84.1722 90.2511 83.3897 90.0211C82.6533 89.7913 81.9168 89.6074 81.1575 89.6992C80.6511 89.7682 80.4671 89.5842 80.4439 89.1245C80.421 88.7568 80.375 88.366 80.3521 87.9981C80.306 87.0097 80.421 85.9984 80.2368 85.0557C80.0299 83.9062 80.3981 83.1706 81.2496 82.4122C84.1261 79.8145 87.3944 77.8834 90.8463 76.1823C98.234 72.5272 105.921 69.6076 113.653 66.8263C120.442 64.3894 127.071 61.5848 133.537 58.4126C135.033 57.6768 136.46 56.8034 137.887 55.9528C138.324 55.6999 138.6 55.6999 138.923 56.1368C141.569 59.585 145.16 61.7459 149.049 63.447C153.329 65.3088 157.541 67.3089 161.706 69.3547C162.489 69.7227 163.249 70.2285 164.169 70.7572Z" fill="white"/>
<path d="M42.5411 100.641C42.9093 100.802 43.1625 100.894 43.3925 100.986C43.8068 101.147 44.2443 101.17 44.5204 100.756C44.8197 100.319 44.5433 99.9746 44.2211 99.6756C43.8529 99.3538 43.4847 99.0319 43.1164 98.6872C41.6207 97.308 42.265 94.8021 43.6689 93.9287C44.014 93.7218 44.2672 93.6297 44.5433 93.9747C44.6125 94.0666 44.7044 94.1355 44.7736 94.2273C47.6733 97.4916 51.3095 99.8596 54.9457 102.181C56.6029 103.239 58.3058 104.25 60.1469 104.986C60.6073 105.17 60.8144 105.4 60.7223 105.905C60.6301 106.319 60.6533 106.733 60.8144 107.147C60.9755 107.583 60.7452 107.698 60.3769 107.721C59.7787 107.79 59.1804 107.882 58.559 107.882C56.2575 107.928 53.956 108.411 51.6549 108.204C49.3073 107.974 47.029 107.468 44.8886 106.411C44.129 106.043 43.4618 105.561 42.9554 104.871C41.9657 103.584 41.9428 102.204 42.5411 100.641Z" fill="white"/>
<path d="M69.0005 106.435C68.6555 106.389 68.1951 106.757 67.873 106.458C67.6429 106.228 67.6197 105.768 67.4815 105.423C67.4358 105.286 67.3665 105.125 67.2747 105.01C66.9522 104.619 67.1826 104.412 67.5047 104.205C69.5069 102.964 71.2791 101.424 73.1892 100.044C75.5135 98.3201 77.5618 96.2972 79.4951 94.1592C80.1165 93.4926 80.5765 92.6882 80.5308 91.7226C80.5076 91.3318 80.6919 91.171 81.083 91.2168C81.4512 91.2629 81.8423 91.3089 82.2105 91.4008C83.3613 91.6765 83.8445 92.6421 83.3384 93.7227C83.1312 94.1592 82.8551 94.5732 82.6248 95.0098C82.4637 95.3316 82.3948 95.6535 82.7169 95.9296C83.0162 96.1822 83.3384 96.1364 83.6605 95.9753C83.6834 95.9525 83.7295 95.9525 83.7527 95.9296C84.0288 95.7914 84.1898 95.3548 84.4659 95.4467C84.8802 95.5845 85.2716 95.8606 85.6167 96.1364C86.4453 96.803 86.7445 97.5846 86.4453 98.4123C86.0999 99.3318 85.5477 100.159 84.8113 100.849C83.3613 102.205 81.6355 103.056 79.8172 103.7C76.7793 104.757 73.7414 105.791 70.5427 106.32C70.0591 106.389 69.553 106.435 69.0005 106.435Z" fill="white"/>
<path d="M48.748 44.0911C47.6204 42.9876 46.9761 41.7002 46.4926 40.367C45.8943 38.7348 45.319 37.1026 44.9279 35.4015C44.8357 35.0337 44.8128 34.6659 44.7897 34.2751C44.7897 34.0223 44.7436 33.7234 45.0429 33.5855C45.3422 33.4705 45.5722 33.6544 45.7561 33.8383C46.7229 34.6889 47.5515 35.6774 48.2187 36.7808C49.0244 38.0911 49.8298 39.4015 50.6813 40.7118C51.0034 41.2176 51.0034 41.5852 50.5202 41.9302C49.7837 42.4589 49.3926 43.2863 48.748 44.0911Z" fill="#364253"/>
<path d="M76.1151 43.493C75.5858 42.5506 74.7804 41.8837 73.9979 41.1714C73.6068 40.8035 73.6297 40.5506 73.8829 40.1137C74.9875 38.2977 76.3683 36.6886 77.7723 35.0794C78.1865 34.5966 78.5548 34.045 79.0841 33.6772C79.6594 33.2864 80.0045 33.4473 80.0966 34.1369C80.1198 34.3208 80.1198 34.5277 80.0737 34.7116C79.7284 36.1369 79.4291 37.6081 78.6927 38.8954C77.9562 40.1369 77.3119 41.4011 76.6676 42.6885C76.5294 42.9643 76.4604 43.2862 76.1151 43.493Z" fill="#364253"/>
<path d="M64.0598 107.63C63.9448 107.607 63.7377 107.607 63.5537 107.583C62.748 107.469 62.2648 107.078 62.1726 106.457C62.0808 105.836 62.5869 105.009 63.2544 104.756C64.4973 104.25 65.6477 104.618 66.177 105.676C66.5224 106.342 66.4303 106.687 65.8549 107.147C65.4177 107.468 64.7963 107.652 64.0598 107.63Z" fill="white"/>
<path d="M49.9284 57.9299C49.3991 57.9531 49.0309 57.6541 49.0309 57.1715C49.008 56.6656 49.2841 56.3438 49.7216 56.3438C50.2509 56.3206 50.5959 56.6196 50.6191 57.1254C50.6191 57.6312 50.4119 57.907 49.9284 57.9299Z" fill="white"/>
<path d="M74.2545 57.171C74.1395 57.5389 74.0702 57.9297 73.633 58.0215C73.2187 58.1137 72.8276 57.7229 72.8276 57.286C72.8505 56.8262 73.1266 56.5962 73.5409 56.5733C73.9091 56.5505 74.1855 56.7802 74.2545 57.171Z" fill="white"/>
<path d="M63.3889 58.8027C63.9643 58.113 64.7007 57.814 65.5754 57.8372C66.9562 57.8601 67.9687 58.7567 68.0837 60.1359C68.1298 60.8025 68.1758 61.5152 67.9226 62.1589C67.6926 62.7336 67.7616 63.0555 68.314 63.4692C69.4416 64.3658 70.017 65.561 69.9248 67.0553C69.8788 67.6529 69.7409 68.2277 69.3266 68.6185C68.7744 69.1243 68.4751 69.7909 68.199 70.4117C67.5544 71.8138 66.3808 72.4347 65 72.6644C63.4579 72.8944 61.985 72.5036 60.6732 71.6531C59.9828 71.2162 59.4995 70.5725 59.2695 69.7909C59.1545 69.4001 58.9934 69.1472 58.6481 68.9175C57.3363 68.0209 56.9912 66.5266 57.7734 65.1474C58.0266 64.6876 58.3259 64.2047 58.717 63.8828C59.3156 63.4231 59.3616 62.9633 59.1545 62.3199C58.8781 61.4462 59.0624 60.5957 59.3616 59.768C59.9599 58.0901 61.3407 57.6072 62.8828 58.5038C63.0207 58.5727 63.1818 58.6877 63.3889 58.8027Z" fill="#364253"/>
<path d="M66.884 68.5966C66.0097 68.5277 65.1811 67.999 64.5597 67.1024C63.685 65.8149 63.685 65.8149 62.8796 67.1484C62.2582 68.1597 61.3146 68.6655 60.1181 68.5966C58.5299 68.4816 57.7705 66.9645 58.6452 65.6081C58.9674 65.1023 59.4274 64.6886 59.9109 64.3207C60.6703 63.7462 60.7163 63.6312 60.3942 62.6885C60.187 62.068 60.0028 61.4704 60.0488 60.8035C60.1639 59.3553 61.2917 58.7577 62.5346 59.4474C62.7414 59.5621 62.9025 59.7232 63.0868 59.8382C63.5471 60.114 63.9382 60.1369 64.2143 59.5853C64.5597 58.9187 65.1579 58.8956 65.7794 58.9645C66.4697 59.0334 66.8611 59.4474 67.1144 60.068C67.2523 60.4127 67.2294 60.7345 67.0912 61.0564C66.9072 61.5161 66.7001 61.953 66.5158 62.4128C66.0786 63.3554 66.1247 63.5623 67.0912 63.976C67.8966 64.3207 68.518 64.8265 68.8633 65.6542C69.4848 67.0795 68.6101 68.5505 66.884 68.5966Z" fill="white"/>
<path d="M60.3743 69.6082C62.0311 69.4245 62.1233 69.3785 63.8494 67.7231C64.7698 68.9187 65.9205 69.6543 67.4855 69.5392C67.0252 70.9185 66.0126 71.6083 64.4705 71.6543C62.7676 71.6772 60.7883 71.2403 60.3743 69.6082Z" fill="white"/>
<path d="M61.7614 60.8269C61.8304 60.873 62.0143 60.8962 62.0836 60.988C62.3825 61.3788 62.6357 61.8156 62.6818 62.3212C62.7047 62.5512 62.5897 62.758 62.3365 62.8502C62.1296 62.9191 61.9682 62.827 61.8304 62.6891C61.4621 62.2983 61.186 61.8385 61.255 61.2638C61.2779 61.034 61.4161 60.873 61.7614 60.8269Z" fill="#364253"/>
<path d="M64.4988 61.8144C64.5678 61.6304 64.6599 61.2857 64.821 60.9867C64.936 60.7341 65.1432 60.5502 65.4653 60.688C65.6953 60.8031 65.7875 61.0099 65.7414 61.2396C65.6725 61.5615 65.5574 61.8833 65.4421 62.2052C65.3271 62.5042 65.12 62.7339 64.7517 62.596C64.4296 62.5041 64.4296 62.2052 64.4988 61.8144Z" fill="#364253"/>
<path d="M42.1494 105.354L40.0322 111.147L41.4591 111.859C41.4591 111.859 43.4384 107.055 43.6684 106.595C43.8755 106.112 42.1494 105.354 42.1494 105.354Z" fill="#364253"/>
<path d="M84.4513 101.584L83.5767 102.526C83.5767 102.526 87.2128 111.032 88.2946 111.055C89.3761 111.055 88.6857 109.331 88.6857 109.331C88.6857 109.331 85.5099 102.687 84.9574 101.515C84.5434 100.572 84.4513 101.584 84.4513 101.584Z" fill="#364253"/>
</g>
</g>
</g>
<defs>
<clipPath id="clip0_13525_138130">
<rect width="128" height="128" fill="white"/>
</clipPath>
<clipPath id="clip1_13525_138130">
<rect width="106" height="105" fill="white" transform="translate(11 12)"/>
</clipPath>
</defs>
</svg>
