<svg width="72" height="72" viewBox="0 0 72 72" fill="none" xmlns="http://www.w3.org/2000/svg">
<rect width="72" height="72" rx="36" transform="matrix(-1 0 0 1 72 0)" fill="#DEEAF6"/>
<path d="M35.922 16L54.7505 48.7021H46.8869L35.922 29.662L28.889 41.871H37.5478L35.922 39.0447L34.6939 36.9095L35.922 34.7831L41.2322 44.0063H25.2045L35.922 25.3915L48.115 46.5668H51.0661L35.922 20.2705L19.5498 48.7021H17.0936L35.922 16Z" fill="#364253"/>
<path d="M19.2601 54.9643L19.5899 56H20.1177L18.7926 52H18.348L17 56H17.5306L17.8662 54.9643H19.2601ZM18.0096 54.522L18.5689 52.7857L19.1196 54.522H18.0096Z" fill="#364253"/>
<path d="M24.8788 56V52H24.3424L24.3338 54.9835L22.7133 52H22.1741V56H22.7105L22.7191 53.011L24.3396 56H24.8788Z" fill="#364253"/>
<path d="M27.2593 52V52.4423H28.2374V55.5604H27.2593V56H29.7833V55.5604H28.7823V52.4423H29.7833V52H27.2593Z" fill="#364253"/>
<path d="M32.8379 52H32.1811V56H32.6973V54.4038L32.6543 52.7912L33.3627 54.8874H33.6668L34.4383 52.7335L34.3953 54.4038V56H34.9115V52H34.2519L33.5176 54L32.8379 52Z" fill="#364253"/>
<path d="M39.2453 54.9643L39.5751 56H40.1029L38.7778 52H38.3332L36.9852 56H37.5158L37.8514 54.9643H39.2453ZM37.9948 54.522L38.5541 52.7857L39.1048 54.522H37.9948Z" fill="#364253"/>
<path d="M45.0648 52.4341V52H41.9672V52.4341H43.2578V56H43.7741V52.4341H45.0648Z" fill="#364253"/>
<path d="M49.5419 54.1511V53.7198H47.7981V52.4341H49.8058V52H47.2675V56H49.8316V55.5687H47.7981V54.1511H49.5419Z" fill="#364253"/>
<path d="M52.1864 56H53.1529C53.3537 55.9982 53.5401 55.9753 53.7122 55.9313C53.8862 55.8874 54.042 55.8242 54.1797 55.7418C54.3097 55.663 54.4273 55.5678 54.5325 55.456C54.6377 55.3443 54.7247 55.2198 54.7935 55.0824C54.8604 54.9505 54.9111 54.8059 54.9455 54.6484C54.9818 54.4908 55 54.3242 55 54.1484V53.8544C54.9981 53.6712 54.978 53.4991 54.9398 53.3379C54.9034 53.1767 54.8499 53.0284 54.7792 52.8929C54.7008 52.7335 54.5956 52.5934 54.4637 52.4725C54.3336 52.3498 54.1835 52.2509 54.0134 52.1758C53.891 52.1209 53.7571 52.0788 53.6118 52.0495C53.4684 52.0183 53.3154 52.0018 53.1529 52H52.1864V56ZM52.7256 52.4176H53.1529C53.2849 52.4194 53.4063 52.4341 53.5172 52.4615C53.6281 52.4872 53.7285 52.5238 53.8183 52.5714C53.9445 52.6355 54.0506 52.7198 54.1367 52.8242C54.2246 52.9267 54.2944 53.0421 54.3461 53.1703C54.3862 53.2692 54.4159 53.3764 54.435 53.4918C54.456 53.6053 54.4675 53.7244 54.4694 53.8489V54.1484C54.4675 54.2711 54.457 54.3892 54.4378 54.5027C54.4187 54.6145 54.39 54.7189 54.3518 54.8159C54.3078 54.935 54.2476 55.043 54.1711 55.1401C54.0965 55.2353 54.0076 55.3159 53.9044 55.3819C53.8069 55.446 53.695 55.4954 53.5688 55.5302C53.4445 55.565 53.3059 55.5833 53.1529 55.5852H52.7256V52.4176Z" fill="#364253"/>
</svg>
