<svg width="72" height="72" viewBox="0 0 72 72" fill="none" xmlns="http://www.w3.org/2000/svg">
<rect width="72" height="72" rx="36" transform="matrix(-1 0 0 1 72 0)" fill="#DEEAF6"/>
<path d="M35.922 16L54.7505 48.7021H46.8869L35.922 29.662L28.889 41.871H37.5478L35.922 39.0447L34.6939 36.9095L35.922 34.7831L41.2322 44.0063H25.2045L35.922 25.3915L48.115 46.5668H51.0661L35.922 20.2705L19.5498 48.7021H17.0936L35.922 16Z" fill="#364253"/>
<path d="M18.8721 55.0796L19.1528 56H19.6021L18.4741 52.4453H18.0957L16.9482 56H17.3999L17.6855 55.0796H18.8721ZM17.8076 54.6865L18.2837 53.1436L18.7524 54.6865H17.8076Z" fill="#364253"/>
<path d="M22.305 54.5498L23.0032 56H23.4793L23.4817 55.9707L22.7273 54.4521C22.825 54.4098 22.9145 54.3586 22.9959 54.2983C23.0773 54.2381 23.1473 54.1689 23.2059 54.0908C23.2645 54.0127 23.31 53.9256 23.3426 53.8296C23.3768 53.7336 23.3938 53.6278 23.3938 53.5122C23.3938 53.3332 23.3621 53.1777 23.2986 53.0459C23.2368 52.9124 23.1513 52.8018 23.0423 52.7139C22.9316 52.626 22.803 52.5601 22.6565 52.5161C22.5101 52.4722 22.3538 52.4486 22.1878 52.4453H21.1453V56H21.5945V54.5498H22.305ZM21.5945 54.1787V52.8164H22.1878C22.2968 52.818 22.3969 52.8335 22.4881 52.8628C22.5809 52.8921 22.6606 52.9352 22.7273 52.9922C22.7941 53.0508 22.8462 53.1232 22.8836 53.2095C22.921 53.2941 22.9397 53.3934 22.9397 53.5073C22.9397 53.6147 22.9202 53.71 22.8812 53.793C22.8421 53.8743 22.7892 53.9435 22.7225 54.0005C22.6541 54.0575 22.5752 54.1014 22.4856 54.1323C22.3961 54.1616 22.3009 54.1771 22.2 54.1787H21.5945Z" fill="#364253"/>
<path d="M27.4786 52.8311V52.4453H24.8419V52.8311H25.9405V56H26.38V52.8311H27.4786Z" fill="#364253"/>
<path d="M29.0341 52.4453V52.8384H29.8666V55.6094H29.0341V56H31.1825V55.6094H30.3305V52.8384H31.1825V52.4453H29.0341Z" fill="#364253"/>
<path d="M34.9646 54.4302V54.0469H33.4851V52.8311H35.2111V52.4453H33.0285V56H33.4851V54.4302H34.9646Z" fill="#364253"/>
<path d="M36.9399 52.4453V52.8384H37.7725V55.6094H36.9399V56H39.0884V55.6094H38.2363V52.8384H39.0884V52.4453H36.9399Z" fill="#364253"/>
<path d="M43.1951 54.9307H42.7435C42.7288 55.0381 42.7036 55.1382 42.6678 55.231C42.632 55.3221 42.584 55.401 42.5237 55.4678C42.4635 55.5361 42.3895 55.589 42.3016 55.6265C42.2153 55.6639 42.1128 55.6826 41.9939 55.6826C41.8849 55.6826 41.7897 55.6655 41.7083 55.6313C41.6269 55.5955 41.5561 55.5467 41.4959 55.4849C41.4357 55.4246 41.386 55.3547 41.347 55.2749C41.3079 55.1951 41.2762 55.1097 41.2518 55.0186C41.2273 54.929 41.2094 54.8379 41.198 54.7451C41.1883 54.6507 41.1834 54.5596 41.1834 54.4717V53.9712C41.1834 53.8833 41.1883 53.793 41.198 53.7002C41.2094 53.6058 41.2273 53.5138 41.2518 53.4243C41.2762 53.3348 41.3079 53.2502 41.347 53.1704C41.3877 53.0907 41.4381 53.0207 41.4983 52.9604C41.5569 52.9002 41.6269 52.853 41.7083 52.8188C41.7913 52.783 41.8865 52.7651 41.9939 52.7651C42.1128 52.7651 42.2153 52.7855 42.3016 52.8262C42.3895 52.8652 42.4635 52.9198 42.5237 52.9897C42.584 53.0597 42.632 53.1411 42.6678 53.2339C42.7036 53.3267 42.7288 53.4268 42.7435 53.5342H43.1951C43.1756 53.3649 43.1349 53.2103 43.073 53.0703C43.0128 52.9303 42.9323 52.8099 42.8313 52.709C42.7304 52.6097 42.61 52.5332 42.47 52.4795C42.33 52.4242 42.1714 52.3965 41.9939 52.3965C41.8458 52.3965 41.7124 52.4176 41.5936 52.46C41.4747 52.5007 41.3689 52.5576 41.2762 52.6309C41.1818 52.7041 41.1004 52.7912 41.032 52.8921C40.9653 52.9914 40.91 53.0996 40.866 53.2168C40.8204 53.334 40.7863 53.4569 40.7635 53.5854C40.7423 53.714 40.7309 53.8442 40.7293 53.9761V54.4717C40.7309 54.6035 40.7423 54.7337 40.7635 54.8623C40.7863 54.9909 40.8204 55.1138 40.866 55.231C40.91 55.3481 40.9653 55.4564 41.032 55.5557C41.1004 55.6549 41.1818 55.7412 41.2762 55.8145C41.3689 55.8877 41.4747 55.9455 41.5936 55.9878C41.714 56.0285 41.8475 56.0488 41.9939 56.0488C42.1648 56.0488 42.3195 56.022 42.4578 55.9683C42.5978 55.9129 42.719 55.8356 42.8216 55.7363C42.9225 55.6387 43.0047 55.5215 43.0682 55.3848C43.1316 55.2464 43.174 55.0951 43.1951 54.9307Z" fill="#364253"/>
<path d="M44.8458 52.4453V52.8384H45.6783V55.6094H44.8458V56H46.9942V55.6094H46.1422V52.8384H46.9942V52.4453H44.8458Z" fill="#364253"/>
<path d="M50.4955 55.0796L50.7763 56H51.2255L50.0976 52.4453H49.7191L48.5717 56H49.0233L49.309 55.0796H50.4955ZM49.4311 54.6865L49.9071 53.1436L50.3759 54.6865H49.4311Z" fill="#364253"/>
<path d="M53.2619 55.6167V52.4453H52.8103V56H55.0002V55.6167H53.2619Z" fill="#364253"/>
</svg>
