
<svg width="89" height="59" viewBox="0 0 89 59" fill="none" xmlns="http://www.w3.org/2000/svg">
<path d="M68.8608 33.0238C67.0592 30.8368 64.1827 30.0204 61.447 30.8368C61.0776 30.9317 60.0615 31.1994 59.6824 31.2981C56.3077 32.1752 52.8352 33.1453 49.4741 34.0945C47.395 34.6754 45.3256 33.0769 45.2689 30.9981C45.2533 30.7324 45.2396 30.4666 45.2239 30.2008V9.84012C47.7682 13.1434 52.7258 19.5848 55.9637 23.7898C57.8514 26.2426 61.0307 27.412 64.1182 26.7912C64.1182 26.7912 44.3993 1.28389 44.116 0.96875L42.2811 3.35128L4.90481 51.9018L0 58.271C4.68986 56.4295 35.4651 44.3669 40.8761 42.2407L12.4946 49.4718C18.1165 42.1704 38.1677 16.1239 42.9943 9.85531V30.402C42.9826 30.5995 42.9728 30.7988 42.9611 30.9981C42.9064 31.8524 43.0393 32.7162 43.3695 33.5155C44.3837 36.0821 47.3031 37.6768 50.1014 37.2136C52.757 36.7713 55.6139 36.2777 58.2539 35.7917C59.6414 35.543 61.5662 35.169 62.9731 34.907C63.7919 34.7836 64.6322 35.1405 65.0953 35.7499C66.7328 37.9901 69.0738 41.1604 70.7212 43.3398C72.216 45.3237 73.7461 47.2905 75.3016 49.2364C65.7734 46.6925 56.1376 44.2397 46.498 42.2141C57.7068 46.9905 88.7537 59 88.7537 59C88.7537 59 73.8712 39.1557 68.8608 33.0238ZM44.796 9.28388H44.794V9.28198C44.794 9.28198 44.794 9.28198 44.796 9.28388Z" fill="black"/>
</svg>
