<svg width="128" height="128" viewBox="0 0 128 128" fill="none" xmlns="http://www.w3.org/2000/svg">
<g clip-path="url(#clip0_9494_70731)">
<path fill-rule="evenodd" clip-rule="evenodd" d="M64.0026 -0.181274C99.5277 -0.181274 128.336 28.5584 128.336 63.9985C128.336 99.4386 99.5277 128.178 64.0026 128.178C28.4774 128.178 -0.331299 99.4386 -0.331299 63.9985C-0.331299 28.5584 28.4774 -0.181274 64.0026 -0.181274Z" fill="#364253"/>
<path d="M64.9676 90.8269C44.3936 90.8269 27.7183 84.8967 27.7183 76.9513C27.7183 72.8052 32.2602 69.07 39.53 66.4386C45.2042 70.0712 54.7256 71.9324 65.5208 71.9324C76.0587 71.9324 85.3743 69.6604 91.1 66.1819C97.958 68.7876 102.217 72.4202 102.217 76.425C102.217 84.3833 85.5415 90.8269 64.9676 90.8269Z" fill="white"/>
<path d="M65.1864 70.1467C49.5919 70.1467 36.9438 65.269 36.9438 59.249C36.9438 55.9116 40.8425 52.9208 46.9542 50.9313C51.316 53.2032 57.8524 54.6537 65.1864 54.6537C72.5205 54.6537 79.0568 53.2032 83.4186 50.9313C89.5432 52.9337 93.429 55.9116 93.429 59.249C93.4419 65.269 80.7938 70.1467 65.1864 70.1467Z" fill="white"/>
<path d="M65.0844 52.8453C53.0283 52.8453 43.2495 48.8148 43.2495 43.8602C43.2495 38.9055 53.0283 34.875 65.0844 34.875C77.1406 34.875 86.9193 38.9055 86.9193 43.8602C86.9193 48.8148 77.1406 52.8453 65.0844 52.8453Z" fill="white"/>
</g>
<defs>
<clipPath id="clip0_9494_70731">
<rect width="128" height="128" fill="white"/>
</clipPath>
</defs>
</svg>
