<svg width="72" height="72" viewBox="0 0 72 72" fill="none" xmlns="http://www.w3.org/2000/svg">
<path fill-rule="evenodd" clip-rule="evenodd" d="M36.1043 16C47.2059 16 56.2087 24.9812 56.2087 36.0562C56.2087 47.1312 47.2059 56.1124 36.1043 56.1124C25.0027 56.1124 16 47.1312 16 36.0562C16 24.9812 25.0027 16 36.1043 16Z" fill="#364253"/>
<path d="M36.406 44.4399C29.9767 44.4399 24.7656 42.5867 24.7656 40.1037C24.7656 38.8081 26.185 37.6408 28.4568 36.8185C30.23 37.9537 33.2054 38.5353 36.5789 38.5353C39.872 38.5353 42.7831 37.8253 44.5724 36.7383C46.7155 37.5526 48.0464 38.6877 48.0464 39.9392C48.0464 42.4262 42.8354 44.4399 36.406 44.4399Z" fill="white"/>
<path d="M36.4742 37.9775C31.6009 37.9775 27.6484 36.4532 27.6484 34.5719C27.6484 33.529 28.8668 32.5944 30.7767 31.9727C32.1397 32.6826 34.1823 33.1359 36.4742 33.1359C38.7661 33.1359 40.8087 32.6826 42.1718 31.9727C44.0857 32.5984 45.3 33.529 45.3 34.5719C45.3041 36.4532 41.3516 37.9775 36.4742 37.9775Z" fill="white"/>
<path d="M36.4426 32.5708C32.675 32.5708 29.6191 31.3113 29.6191 29.7629C29.6191 28.2146 32.675 26.9551 36.4426 26.9551C40.2101 26.9551 43.266 28.2146 43.266 29.7629C43.266 31.3113 40.2101 32.5708 36.4426 32.5708Z" fill="white"/>
</svg>
