<svg width="128" height="128" viewBox="0 0 128 128" fill="none" xmlns="http://www.w3.org/2000/svg">
<g clip-path="url(#clip0_904_5703)">
<path d="M64 128C99.3462 128 128 99.3462 128 64C128 28.6538 99.3462 0 64 0C28.6538 0 0 28.6538 0 64C0 99.3462 28.6538 128 64 128Z" fill="#364253"/>
<path d="M63.6818 23.5186L45.6098 34.1067L63.6818 44.6987L82.0936 34.1067L63.6818 23.5186ZM66.6536 80.0546V101.235L91.2018 87.2306V66.0466L66.6536 80.0546ZM85.0658 40.7666V61.9506L66.6498 72.5426V51.3586L85.0658 40.7666ZM40.7378 61.9506L59.1538 72.5426V51.3586L40.7378 40.7666V61.9506ZM40.7378 90.6466L59.1538 101.235V80.0546L40.7378 69.4667V90.6466Z" fill="white"/>
</g>
<defs>
<clipPath id="clip0_904_5703">
<rect width="128" height="128" fill="white"/>
</clipPath>
</defs>
</svg>
