<svg width="72" height="72" viewBox="0 0 72 72" fill="none" xmlns="http://www.w3.org/2000/svg">
<path d="M36 56C47.0457 56 56 47.0457 56 36C56 24.9543 47.0457 16 36 16C24.9543 16 16 24.9543 16 36C16 47.0457 24.9543 56 36 56Z" fill="#364253"/>
<path d="M35.9005 23.3496L30.253 26.6584L35.9005 29.9684L41.6542 26.6584L35.9005 23.3496ZM36.8292 41.0171V47.6359L44.5005 43.2596V36.6396L36.8292 41.0171ZM42.583 28.7396V35.3596L36.828 38.6696V32.0496L42.583 28.7396ZM28.7305 35.3596L34.4855 38.6696V32.0496L28.7305 28.7396V35.3596ZM28.7305 44.3271L34.4855 47.6359V41.0171L28.7305 37.7084V44.3271Z" fill="white"/>
</svg>
