<svg width="72" height="72" viewBox="0 0 72 72" fill="none" xmlns="http://www.w3.org/2000/svg">
<rect width="72" height="72" rx="36" fill="#DEEAF6"/>
<path d="M54.0057 44.5887L53.9511 44.4261L53.8421 44.2635L44.631 31.8818V23.1034C45.8846 22.1823 46.7021 20.6921 46.7021 19.0394C46.7021 16.2759 44.4402 14 41.6332 14H35.7468C35.9376 14.0813 36.0738 14.2709 36.0738 14.5148C36.0738 14.7044 35.9921 14.867 35.8558 14.9754C35.8558 15.0025 35.8558 15.0296 35.8558 15.0296V16.2759C36.4554 16.7906 37.7362 18.0369 38.472 20.2586H32.5583C33.2941 18.0369 34.575 16.7635 35.1745 16.2759V15.0296C35.1745 15.0025 35.1745 15.0025 35.1745 14.9754C35.0382 14.867 34.9292 14.7044 34.9292 14.5148C34.9292 14.298 35.0655 14.1084 35.2563 14H29.4243C26.6446 14 24.3555 16.2759 24.3555 19.0394C24.3555 20.6921 25.173 22.1823 26.4266 23.1034V31.8818L17.2154 44.2635L17.1064 44.4261L16.9974 44.5887C15.3895 47.4064 15.3895 50.766 16.9974 53.5296C18.578 56.2931 21.4122 57.9187 24.5735 58C24.8187 56.7266 25.8816 55.7512 27.2169 55.6429C27.1897 55.5887 27.1897 55.5345 27.1897 55.4803C27.1897 54.7217 27.7892 54.1527 28.525 54.1527C28.9338 54.1527 29.3153 54.3424 29.5333 54.6404C30.0784 53.9631 30.9232 53.5296 31.8498 53.5296C31.9588 53.5296 32.0678 53.5567 32.204 53.5567L33.5939 31.3128C33.8119 31.7463 34.2479 32.0714 34.793 32.0714H36.2373C36.7551 32.0714 37.2184 31.7734 37.4364 31.3128L38.3357 53.665C38.4448 53.6379 38.5538 53.6379 38.7173 53.6379C39.6983 53.6379 40.5977 54.1256 41.1154 54.8842C41.2517 54.7759 41.4697 54.6946 41.6605 54.6946C42.0148 54.6946 42.2873 54.9113 42.4235 55.2094C42.8051 55.0739 43.2139 55.0197 43.5954 55.0197C45.3668 55.0197 46.8656 56.3202 47.1381 57.9729C49.9996 57.6749 52.5068 56.0493 53.9784 53.5567C55.6135 50.7118 55.6135 47.3793 54.0057 44.5887ZM40.1071 32.8571C39.0715 30.9335 37.6817 30.798 37.4092 30.798C35.7741 31.665 35.229 31.665 33.5666 30.798C33.2941 30.798 31.9043 30.9335 30.8687 32.8571C30.8687 32.8571 28.3342 29.4704 32.2313 27.6552L33.0216 29.4434C31.768 25.7857 31.7953 22.968 32.3403 20.8818H38.6083C39.1533 22.968 39.1806 25.7857 37.927 29.4434L38.7173 27.6552C42.6416 29.4434 40.1071 32.8571 40.1071 32.8571Z" fill="#364253"/>
<path d="M35.401 20.6895C34.2935 20.6895 33.3955 21.5874 33.3955 22.6949C33.3955 23.8024 34.2935 24.7003 35.401 24.7003C36.5084 24.7003 37.4064 23.8024 37.4064 22.6949C37.4064 21.5874 36.5084 20.6895 35.401 20.6895Z" fill="#364253"/>
<path d="M35.4006 25.8389C34.9516 25.8389 34.5625 26.1981 34.5625 26.677C34.5625 27.1259 34.9217 27.5151 35.4006 27.5151C35.8496 27.5151 36.2387 27.1559 36.2387 26.677C36.2387 26.1981 35.8795 25.8389 35.4006 25.8389Z" fill="#364253"/>
</svg>
