<svg width="128" height="128" viewBox="0 0 128 128" fill="none" xmlns="http://www.w3.org/2000/svg">
<path d="M102.662 38.895L88.5514 53.0387L63.8576 28.2874L39.1638 53.0387L25.053 38.895L63.8575 0L102.662 38.895Z" fill="#364253"/>
<path d="M14.1108 49.6449L28.2216 63.7886L14.1108 77.9322L0 63.7886L14.1108 49.6449Z" fill="#364253"/>
<path d="M63.8577 49.6449L77.9685 63.7886L63.8577 77.9322L49.7469 63.7886L63.8577 49.6449Z" fill="#364253"/>
<path d="M128 63.7886L113.889 49.6449L99.7784 63.7886L113.889 77.9322L128 63.7886Z" fill="#364253"/>
<path d="M89.2574 74.9614L103.368 89.105L64.5635 128L25.0535 88.3979L39.1643 74.2542L64.5636 99.7126L89.2574 74.9614Z" fill="#364253"/>
</svg>
