<svg width="40" height="40" viewBox="0 0 40 40" fill="none" xmlns="http://www.w3.org/2000/svg">
<g clip-path="url(#clip0_12624_66113)">
<path fill-rule="evenodd" clip-rule="evenodd" d="M40 20C40 31.0457 31.0457 40 20 40C8.9543 40 0 31.0457 0 20C0 8.9543 8.9543 0 20 0C31.0457 0 40 8.9543 40 20ZM20.5 12.4532L15.1269 17.9955L12 14.7711L20.5 6L29 14.7734L25.8753 18L20.5 12.4532ZM6 20.502L9.2765 17.2254L12.553 20.502L9.2765 23.7785L6 20.502ZM15.13 23.0023L20.5011 28.5478L25.8743 23L29 26.2227L28.9978 26.225L20.5011 35L12.0044 26.2295L12 26.225L15.13 23.0023ZM28.4453 20.502L31.7218 17.2254L34.9983 20.502L31.7218 23.7785L28.4453 20.502ZM23.9976 20.4988L20.5012 17L17.9157 19.5855L17.6169 19.8819L17.0048 20.494L17 20.5012L17.0048 20.506L20.5012 24L23.9976 20.5012H24L23.9976 20.4988Z" fill="#364253"/>
</g>
<defs>
<clipPath id="clip0_12624_66113">
<rect width="40" height="40" fill="white"/>
</clipPath>
</defs>
</svg>
