<svg width="128" height="128" viewBox="0 0 128 128" fill="none" xmlns="http://www.w3.org/2000/svg">
<path d="M64 128C99.3462 128 128 99.3462 128 64C128 28.6538 99.3462 0 64 0C28.6538 0 0 28.6538 0 64C0 99.3462 28.6538 128 64 128Z" fill="#364253"/>
<path d="M83.7888 67.5094H104.193C102.417 88.1146 85.128 104.279 64.0645 104.279C41.8192 104.279 23.7852 86.2453 23.7852 64C23.7852 41.7547 41.8192 23.7207 64.0645 23.7207C86.3098 23.7207 102.525 39.9929 104.208 60.684H83.8174C82.2418 51.2015 73.9982 43.975 64.0645 43.975C53.0063 43.975 44.0323 52.9418 44.0323 64C44.0323 75.0582 52.9991 84.0323 64.0645 84.0323C73.9266 84.0323 82.1272 76.8989 83.7888 67.5094Z" fill="white"/>
</svg>
