<svg width="72" height="72" viewBox="0 0 72 72" fill="none" xmlns="http://www.w3.org/2000/svg">
<g clip-path="url(#clip0_7303_34385)">
<path d="M35.7827 55.5621C46.5219 55.5621 55.2315 46.8004 55.2315 35.9968C55.2315 25.1933 46.5219 16.4395 35.7827 16.4395C25.0435 16.4395 16.334 25.1933 16.334 36.0047C16.334 46.8082 25.0435 55.5621 35.7827 55.5621Z" fill="#364253"/>
<path fill-rule="evenodd" clip-rule="evenodd" d="M27.5718 42.5608C26.9886 42.2009 26.6309 41.5673 26.6309 40.8789V37.0534C26.6309 36.9048 26.6697 36.764 26.7397 36.6388C26.9652 36.2477 27.4707 36.1147 27.8595 36.3415L36.4369 41.3717C36.9346 41.669 37.2456 42.2088 37.2456 42.7877V46.7461C37.2456 46.926 37.199 47.1059 37.1057 47.2624C36.8257 47.724 36.2191 47.8726 35.7603 47.591L27.5718 42.5608ZM40.3562 35.3011C40.8539 35.5984 41.1649 36.1382 41.1649 36.7171V44.7512C41.1649 44.9859 41.0405 45.205 40.8305 45.3223L38.9564 46.394C38.9331 46.4097 38.9098 46.4175 38.8787 46.4253V41.9663C38.8787 41.3874 38.5754 40.8554 38.0855 40.5581L30.5579 36.0286V30.9828C30.5579 30.8342 30.5968 30.6934 30.6668 30.5682C30.8923 30.1771 31.3978 30.0441 31.7866 30.2709L40.3562 35.3011ZM44.1044 29.3713C44.6099 29.6607 44.9209 30.2084 44.9209 30.7951V42.5295C44.9209 42.772 44.7887 42.9911 44.5788 43.1084L42.798 44.0785V35.9035C42.798 35.3246 42.4947 34.7926 42.0048 34.4953L34.3062 29.8485V25.0687C34.3062 24.92 34.345 24.7792 34.415 24.6541C34.6405 24.2629 35.146 24.1299 35.5348 24.3568L44.1044 29.3713Z" fill="white"/>
</g>
<defs>
<clipPath id="clip0_7303_34385">
<rect width="39.5652" height="40" fill="white" transform="translate(16 16)"/>
</clipPath>
</defs>
</svg>
