<svg width="128" height="128" viewBox="0 0 128 128" fill="none" xmlns="http://www.w3.org/2000/svg">
<path d="M64 128C99.3515 128 128 99.3443 128 64C128 28.6556 99.3443 0 64 0C28.6556 0 0 28.6556 0 64C0 99.3443 28.6556 128 64 128Z" fill="#364253"/>
<path fill-rule="evenodd" clip-rule="evenodd" d="M36.9736 85.4524C35.0584 84.2804 33.8865 82.2009 33.8865 79.9642V67.4586C33.8865 65.9722 35.0942 64.7717 36.5805 64.7789C37.0522 64.7789 37.5238 64.9075 37.9312 65.1433L66.1509 81.6007C67.8016 82.5582 68.8164 84.3304 68.8164 86.2384V99.1942C68.8164 100.974 67.38 102.417 65.6006 102.417C65.0075 102.417 64.4144 102.253 63.9142 101.945L36.9664 85.4595L36.9736 85.4524ZM79.0352 61.7132C80.6859 62.6708 81.7007 64.443 81.7007 66.351V92.6413C81.7007 93.4131 81.2862 94.1348 80.6073 94.5136L74.4332 97.9865C74.3546 98.0294 74.2759 98.0651 74.183 98.0866V83.4872C74.183 81.6007 73.1898 79.8427 71.5676 78.8709L46.7851 64.05V47.5712C46.7851 46.0848 47.9928 44.8843 49.4792 44.8914C49.9508 44.8914 50.4224 45.02 50.8298 45.2559L79.0352 61.7132ZM91.3907 42.2974C93.0486 43.255 94.0634 45.0272 94.0634 46.9423V85.3452C94.0634 86.1312 93.6203 86.853 92.9271 87.2317L87.0674 90.3903V63.6569C87.0674 61.7704 86.0741 60.0196 84.4591 59.0477L59.1263 43.8552V28.2268C59.1263 27.7552 59.2549 27.2836 59.4836 26.8762C60.234 25.5971 61.8776 25.1612 63.1567 25.9044L91.3764 42.2974H91.3907Z" fill="white"/>
</svg>
