<svg width="128" height="128" viewBox="0 0 128 128" fill="none" xmlns="http://www.w3.org/2000/svg">
<path d="M81.863 24.9409H72.9556V38.3912H81.863V24.9409Z" fill="#8D98A8"/>
<path d="M56.2986 0H47.3911V13.4502H56.2986V0Z" fill="#8D98A8"/>
<path d="M30.7341 12.8267H21.8267V26.2769H30.7341V12.8267Z" fill="#C3CBD3"/>
<path d="M17.9965 63.9556H9V102.347H17.9965V63.9556Z" fill="#C3CBD3"/>
<path d="M17.9965 25.5642H9V63.9553H17.9965V25.5642Z" fill="#C3CBD3"/>
<path d="M94.6006 37.7676H85.6931V51.2178H94.6006V37.7676Z" fill="#8D98A8"/>
<path d="M94.6006 76.6931H85.6931V90.1434H94.6006V76.6931Z" fill="#8D98A8"/>
<path d="M81.863 89.5198H72.9556V102.97H81.863V89.5198Z" fill="#8D98A8"/>
<path d="M56.2986 114.461H47.3911V127.911H56.2986V114.461Z" fill="#8D98A8"/>
<path d="M30.7341 101.634H21.8267V115.084H30.7341V101.634Z" fill="#C3CBD3"/>
<path d="M119.63 51.1287V25.5644H106.804V12.8267H81.2394V0H55.675V12.8267H30.1107V25.6534H17.2839V102.347H30.1107V115.173H55.675V128H81.2394V115.173H106.804V102.347H119.63V76.6931H94.0661V89.5198H81.2394V102.347H55.675V89.5198H42.9374V38.3911H55.7641V25.5644H81.3285V38.3911H94.1552V51.2178H119.63V51.1287Z" fill="#364253"/>
</svg>