<svg width="72" height="72" viewBox="0 0 72 72" fill="none" xmlns="http://www.w3.org/2000/svg">
<rect width="72" height="72" rx="36" fill="#DEEAF6"/>
<path d="M36.3925 12C42.8756 12 49.0464 14.5523 53.6341 19.1401C58.2219 23.7278 60.7742 29.8986 60.7742 36.3817C60.7742 42.8648 58.2219 49.0464 53.6341 53.6341C49.0464 58.2219 42.8756 60.7742 36.3925 60.7742C29.8986 60.7742 23.7385 58.2219 19.1508 53.6341C14.5631 49.0464 12 42.8756 12 36.3925C12 29.9094 14.5523 23.7278 19.1401 19.1401C23.7278 14.5523 29.8986 12 36.3925 12ZM22.7478 35.014C23.0708 31.8263 24.4924 28.854 26.7755 26.6032C29.3494 24.0724 32.7848 22.6724 36.3925 22.6724C40.0433 22.6724 43.511 24.1047 46.0956 26.6893C48.3356 28.9293 49.7249 31.8586 50.048 35.0032C52.9988 34.6048 56.0034 34.7771 58.9326 35.2832C58.6634 29.6724 56.3265 24.4062 52.3526 20.4324C48.0987 16.1893 42.391 13.8308 36.3817 13.8308C30.3724 13.8308 24.6755 16.1893 20.4324 20.4431C16.4585 24.417 14.1216 29.6832 13.8523 35.294C16.7816 34.7771 19.7862 34.6048 22.7478 35.014ZM48.228 35.3263C47.9803 32.5478 46.7633 29.9524 44.7925 27.9817C42.5525 25.7416 39.5479 24.5032 36.3817 24.5032C33.2586 24.5032 30.2755 25.7201 28.0463 27.9063C26.0216 29.8878 24.7832 32.5155 24.5355 35.3371C25.4939 35.5525 26.4416 35.8325 27.3678 36.1663C30.8032 37.4371 33.5602 39.451 36.3817 41.7125C40.0756 38.751 43.5218 36.3709 48.228 35.3263ZM34.9386 42.8864C32.3863 40.851 29.834 39.0202 26.7432 37.8786C22.5539 36.3279 18.1816 36.3386 13.8416 37.1356C13.9708 41.271 15.2308 45.2556 17.4923 48.7233C20.9816 49.2833 24.3093 49.0787 27.5832 47.6895C30.3294 46.5372 32.6448 44.7387 34.9386 42.8864ZM58.9326 37.1356C54.3772 36.3063 49.8326 36.3602 45.4925 38.1048C42.111 39.4617 39.4079 41.6048 36.6079 43.8772C34.2171 45.8049 31.8371 47.7433 29.0478 49.068C25.817 50.5972 22.5324 51.0818 18.9893 50.748C19.4416 51.2972 19.9262 51.8357 20.4324 52.3418C24.6216 56.5311 30.2217 58.8896 36.1448 58.9434C37.5125 57.1126 38.611 55.0772 39.6879 53.0634C41.5079 49.6926 43.2741 46.4941 46.0418 43.7802C49.628 40.2694 54.0757 38.374 58.9326 37.3079V37.1356ZM58.7711 39.214C54.3665 40.2479 50.3818 42.0571 47.151 45.2879C44.6202 47.8295 42.9725 50.8018 41.2925 53.9249C40.3879 55.5942 39.494 57.2742 38.4387 58.8465C43.7048 58.3726 48.6049 56.068 52.3418 52.3311C55.8849 48.7987 58.1465 44.1895 58.7711 39.214Z" fill="#364253"/>
<path fill-rule="evenodd" clip-rule="evenodd" d="M36.5758 43.8451C31.7727 47.7329 27.1311 51.4913 18.8818 50.6944C19.3557 51.276 19.8618 51.836 20.4003 52.3744C24.4388 56.4129 30.0065 58.9329 36.1666 58.9976C37.5343 57.1775 38.622 55.1529 39.7312 53.096C43.1882 46.6882 46.7851 40.022 58.976 37.362L58.9867 37.1143C47.4959 35.0143 41.9282 39.5159 36.5758 43.8451Z" fill="#8D98A8"/>
<path fill-rule="evenodd" clip-rule="evenodd" d="M58.825 39.1602C47.8295 41.734 44.4803 47.9479 41.2603 53.9141C40.3341 55.6264 39.4295 57.3172 38.3525 58.9111C43.8126 58.4372 48.7126 56.0357 52.3742 52.3741C55.8419 48.8956 58.2004 44.2971 58.825 39.1602Z" fill="#8D98A8"/>
<path fill-rule="evenodd" clip-rule="evenodd" d="M35.0031 42.887C32.5477 40.927 29.9631 39.0316 26.7538 37.847C23.383 36.5978 19.2692 36.1024 13.7876 37.1039C13.9168 41.4009 15.2522 45.3963 17.4599 48.7671C25.7523 50.0917 30.3616 46.6348 35.0031 42.887Z" fill="#8D98A8"/>
<path fill-rule="evenodd" clip-rule="evenodd" d="M27.3568 36.2093C30.943 37.5339 33.7323 39.6339 36.3923 41.7663C39.7415 39.0739 43.2954 36.4462 48.2816 35.3585C48.0339 32.4724 46.7631 29.8769 44.8354 27.9492C42.6708 25.7846 39.6877 24.4492 36.3923 24.4492C33.1399 24.4492 30.1784 25.7523 28.0245 27.8739C26.0537 29.8123 24.7399 32.44 24.4922 35.3693C25.5045 35.5955 26.4522 35.8755 27.3568 36.2093Z" fill="url(#paint0_linear_4698_15318)"/>
<mask id="mask0_4698_15318" style="mask-type:alpha" maskUnits="userSpaceOnUse" x="26" y="24" width="23" height="18">
<path d="M48.3467 24.9238H26.625V41.8424H48.3467V24.9238Z" fill="url(#paint1_linear_4698_15318)"/>
</mask>
<g mask="url(#mask0_4698_15318)">
<path fill-rule="evenodd" clip-rule="evenodd" d="M29.7663 37.1652C32.3187 38.4566 34.4776 40.1278 36.5514 41.8316C39.8589 39.1186 43.3685 36.4706 48.2925 35.3746C48.0479 32.4661 46.7929 29.8508 44.8893 27.9082C43.5599 26.5517 41.9115 25.5099 40.061 24.9238C39.8908 25.9222 39.6249 26.8881 39.274 27.8214C39.7738 28.0493 40.1354 28.5593 40.1354 29.1562C40.1354 29.9593 39.4973 30.6213 38.6997 30.6213C38.4444 30.6213 38.2105 30.5562 38.0084 30.4368C37.5405 31.2073 37.0087 31.9452 36.4238 32.6289C36.5833 32.9436 36.679 33.3018 36.679 33.6707C36.679 34.9188 35.69 35.9172 34.4776 35.9172C33.9884 35.9172 33.5417 35.7544 33.1801 35.4831C32.106 36.1776 30.968 36.7419 29.7663 37.1652ZM27.9689 32.0863C28.522 32.0863 28.9686 32.5421 28.9686 33.1064C28.9686 33.6707 28.522 34.1265 27.9689 34.1265C27.4159 34.1265 26.9692 33.6707 26.9692 33.1064C26.9692 32.5421 27.4159 32.0863 27.9689 32.0863ZM30.1917 28.9934C30.5532 28.9934 30.851 29.2973 30.851 29.6663C30.851 30.0352 30.5532 30.3391 30.1917 30.3391C29.8301 30.3391 29.5323 30.0352 29.5323 29.6663C29.5323 29.2973 29.8301 28.9934 30.1917 28.9934ZM34.4563 26.5191C34.8923 26.5191 35.2433 26.8772 35.2433 27.3222C35.2433 27.7671 34.8923 28.1252 34.4563 28.1252C34.0203 28.1252 33.6693 27.7671 33.6693 27.3222C33.6693 26.8772 34.0203 26.5191 34.4563 26.5191ZM34.4563 31.9561C35.3815 31.9561 36.126 32.7157 36.126 33.6599C36.126 34.604 35.3815 35.3637 34.4563 35.3637C33.5311 35.3637 32.7866 34.604 32.7866 33.6599C32.7866 32.7266 33.5311 31.9561 34.4563 31.9561ZM38.689 28.1252C39.2421 28.1252 39.6994 28.5919 39.6994 29.1562C39.6994 29.7205 39.2421 30.1872 38.689 30.1872C38.136 30.1872 37.6787 29.7314 37.6787 29.1562C37.6787 28.581 38.136 28.1252 38.689 28.1252Z" fill="#6C7A89"/>
</g>
<defs>
<linearGradient id="paint0_linear_4698_15318" x1="36.3847" y1="41.7154" x2="36.3855" y2="24.5606" gradientUnits="userSpaceOnUse">
<stop stop-color="#C5D3E2"/>
<stop offset="1" stop-color="white"/>
</linearGradient>
<linearGradient id="paint1_linear_4698_15318" x1="53.183" y1="48.7024" x2="23.6122" y2="19.8412" gradientUnits="userSpaceOnUse">
<stop stop-color="white"/>
<stop offset="1" stop-color="white" stop-opacity="0"/>
</linearGradient>
</defs>
</svg>
