<svg width="128" height="128" viewBox="0 0 128 128" fill="none" xmlns="http://www.w3.org/2000/svg">
<g clip-path="url(#clip0_13525_138117)">
<path d="M64 128C99.3462 128 128 99.3462 128 64C128 28.6538 99.3462 0 64 0C28.6538 0 0 28.6538 0 64C0 99.3462 28.6538 128 64 128Z" fill="#364253"/>
<path fill-rule="evenodd" clip-rule="evenodd" d="M74.0914 27.9621C74.5171 26.9213 74.7537 25.9279 74.801 24.9817C75.0375 22.9948 74.5644 21.4337 73.3818 20.9607C72.2464 20.4876 70.7799 21.2445 69.5026 22.711V22.4272C69.5026 18.3588 67.6103 15 65.245 15C62.8797 15 60.9874 18.3115 60.9874 22.4272C60.9874 22.711 60.9874 22.9948 61.0347 23.2787C59.6155 21.3864 57.7232 20.393 56.3986 21.008C54.7429 21.8122 54.5064 24.7925 55.9256 27.7255C56.1621 28.1986 56.6825 29.0501 57.0136 29.4759C38.8005 32.3143 28.4403 46.6955 27.1157 70.3489H37.2867C38.3747 50.8585 48.4511 39.7888 65.245 39.7888C80.2885 39.7888 91.5476 50.3855 91.4057 70.3489H101.577C101.766 46.7902 88.4253 31.5574 73.1452 29.5705C73.5237 29.0974 73.8075 28.577 74.0914 27.9621Z" fill="white"/>
<path fill-rule="evenodd" clip-rule="evenodd" d="M52.4722 53.3657V59.9414C52.4722 61.4079 53.986 62.5906 55.831 62.5906C57.6759 62.5906 59.1897 61.4079 59.1897 59.9414V53.3657C59.1897 51.8992 57.6759 50.7166 55.831 50.7166C53.986 50.7166 52.4722 51.8992 52.4722 53.3657ZM73.1926 50.7166C71.4895 50.7166 70.0703 51.8992 70.0703 53.3657V59.9414C70.0703 61.4079 71.4422 62.5906 73.1926 62.5906C74.8956 62.5906 76.3148 61.4079 76.3148 59.9414V53.3657C76.3148 51.8992 74.8956 50.7166 73.1926 50.7166Z" fill="white"/>
<path fill-rule="evenodd" clip-rule="evenodd" d="M57.7705 87.9944C57.4866 88.7513 57.1555 89.3663 56.6824 89.8867C56.2094 90.4071 55.689 90.8328 55.0267 91.1167C54.4117 91.4005 53.7021 91.5897 52.9925 91.5897C52.2829 91.5897 51.5733 91.4478 50.9583 91.1167C50.3433 90.8328 49.7756 90.4071 49.3026 89.8867C48.8295 89.319 48.451 88.704 48.2145 87.9944C47.9307 87.2375 47.8361 86.4333 47.8361 85.6291C47.8361 84.7776 47.978 84.0207 48.2145 83.2637C48.4984 82.5068 48.8295 81.8918 49.3026 81.3715C49.7756 80.8511 50.296 80.4253 50.9583 80.1415C51.6206 79.8577 52.2829 79.6684 52.9925 79.6684C53.7021 79.6684 54.4117 79.8103 55.0267 80.1415C55.6417 80.4253 56.2094 80.8511 56.6824 81.3715C57.1555 81.8918 57.4866 82.5068 57.7705 83.2637C58.007 84.0207 58.1489 84.7776 58.1489 85.6291C58.1962 86.4806 58.0543 87.2848 57.7705 87.9944ZM62.5958 81.7026C62.1227 80.5199 61.3658 79.4319 60.467 78.4858C58.5747 76.5935 55.9728 75.5527 53.3237 75.5527C50.6272 75.5527 48.0726 76.5935 46.133 78.4858C45.2342 79.3846 44.4773 80.5199 44.0042 81.7026C43.4838 82.9326 43.2 84.3045 43.2 85.6764C43.2 87.0956 43.4838 88.3729 44.0042 89.6502C44.5246 90.8801 45.2342 91.9682 46.133 92.867C48.0253 94.7593 50.6272 95.8 53.3237 95.8C56.0201 95.8 58.5747 94.7593 60.467 92.867C61.3658 91.9682 62.0754 90.8801 62.5958 89.6502C63.1162 88.4202 63.4 87.0956 63.4 85.6764C63.4 84.2572 63.1162 82.9326 62.5958 81.7026ZM35.0632 87.9944C34.8267 88.6567 34.4955 89.319 34.0698 89.8867C33.644 90.4071 33.171 90.8328 32.556 91.1167C31.9883 91.4005 31.3733 91.5897 30.711 91.5897H27.6361V79.6684H30.711C31.3733 79.6684 31.9883 79.8103 32.556 80.1415C33.1237 80.4726 33.644 80.8984 34.0698 81.4188C34.4955 81.9391 34.8267 82.6014 35.0632 83.311C35.2998 84.068 35.4417 84.8249 35.4417 85.6764C35.4417 86.5279 35.2998 87.2848 35.0632 87.9944ZM40.3143 81.7026C39.8412 80.5199 39.0843 79.4319 38.1855 78.4858C37.2867 77.5869 36.1986 76.83 35.0159 76.3569C33.7859 75.8366 32.4614 75.5527 31.0895 75.5527H23V95.7527H31.0895C32.4614 95.7527 33.7859 95.5162 35.0159 94.9958C36.2459 94.4755 37.2867 93.7659 38.1855 92.867C39.0843 91.9682 39.7939 90.8801 40.3143 89.6502C40.8347 88.4202 41.0712 87.0956 41.0712 85.7237C41.1185 84.2572 40.8347 82.9326 40.3143 81.7026ZM100.205 87.9944C99.9208 88.7513 99.5897 89.3663 99.1166 89.8867C98.6436 90.4071 98.1232 90.8328 97.4609 91.1167C96.8459 91.4005 96.1363 91.5897 95.4267 91.5897C94.7171 91.5897 94.0075 91.4478 93.3925 91.1167C92.7775 90.8328 92.2098 90.4071 91.7368 89.8867C91.2637 89.319 90.8852 88.704 90.6487 87.9944C90.3649 87.2375 90.2703 86.4333 90.2703 85.6291C90.2703 84.7776 90.4122 84.0207 90.6487 83.2637C90.9325 82.5068 91.2637 81.8918 91.7368 81.3715C92.2098 80.8511 92.7775 80.4253 93.3925 80.1415C94.0075 79.8577 94.7171 79.6684 95.4267 79.6684C96.1836 79.6684 96.8459 79.8103 97.4609 80.1415C98.1232 80.4253 98.6436 80.8511 99.1166 81.3715C99.5897 81.8918 99.9208 82.5068 100.205 83.2637C100.489 84.0207 100.583 84.7776 100.583 85.6291C100.63 86.4806 100.489 87.2848 100.205 87.9944ZM104.983 81.7026C104.51 80.5199 103.753 79.4319 102.854 78.4858C100.962 76.5935 98.3597 75.5527 95.7105 75.5527C93.0141 75.5527 90.4595 76.5935 88.5199 78.4858C87.6211 79.3846 86.8642 80.5199 86.3911 81.7026C85.8707 82.9326 85.5869 84.3045 85.6342 85.6764C85.6342 87.0956 85.8707 88.3729 86.3911 89.6502C86.9115 90.8801 87.6211 91.9682 88.5199 92.867C90.4122 94.7593 93.0141 95.8 95.7105 95.8C98.407 95.8 100.962 94.7593 102.854 92.867C103.753 91.9682 104.462 90.8801 104.983 89.6502C105.503 88.4202 105.787 87.0956 105.787 85.6764C105.787 84.2572 105.55 82.9326 104.983 81.7026ZM77.4974 87.9944C77.2609 88.6567 76.9297 89.319 76.504 89.8867C76.0782 90.4071 75.6051 90.8328 74.9902 91.1167C74.4225 91.4005 73.8075 91.5897 73.1452 91.5897H70.0703V79.6684H73.1452C73.8075 79.6684 74.4225 79.8103 74.9902 80.1415C75.5578 80.4726 76.0782 80.8984 76.504 81.4188C76.9297 81.9391 77.2609 82.6014 77.4974 83.311C77.734 84.068 77.8759 84.8249 77.8759 85.6764C77.8286 86.5279 77.734 87.2848 77.4974 87.9944ZM82.7485 81.7026C82.2754 80.5199 81.5185 79.4319 80.6197 78.4858C79.7208 77.5869 78.6328 76.83 77.4501 76.3569C76.2201 75.8366 74.8955 75.5527 73.5236 75.5527H65.4342V95.7527H73.5236C74.8955 95.7527 76.2201 95.5162 77.4501 94.9958C78.6801 94.4755 79.7208 93.7659 80.6197 92.867C81.5185 91.9682 82.2281 90.8801 82.7485 89.6502C83.2688 88.4202 83.5054 87.0956 83.5054 85.7237C83.5527 84.2572 83.2688 82.9326 82.7485 81.7026Z" fill="white"/>
</g>
<defs>
<clipPath id="clip0_13525_138117">
<rect width="128" height="128" fill="white"/>
</clipPath>
</defs>
</svg>
