<svg width="128" height="128" viewBox="0 0 128 128" fill="none" xmlns="http://www.w3.org/2000/svg">
<mask id="mask0_904_5713" style="mask-type:luminance" maskUnits="userSpaceOnUse" x="5" y="46" width="118" height="36">
<path d="M122.2 46H5V81.16H122.2V46Z" fill="white"/>
</mask>
<g mask="url(#mask0_904_5713)">
<path d="M96.9624 45.9985L104.398 56.2124L100.337 61.8605L88.8916 45.9985H96.9624Z" fill="#8D98A8"/>
<path d="M114.425 80.8293L106.158 69.4858L110.072 64.0259L122.202 80.8293H114.425Z" fill="#8D98A8"/>
<path d="M42.3241 45.9985L50.2483 56.5889L45.8951 62.4724L34.1064 45.9985H42.3241Z" fill="#8D98A8"/>
<path d="M113.642 45.9985L88.4014 80.829H96.1299L121.566 45.9985H113.642ZM79.4012 45.9985H86.1515V80.829H79.3523V79.7465C77.5225 80.7208 75.4847 81.2788 73.3958 81.378C71.3069 81.4769 69.2224 81.1143 67.3014 80.3179C65.3809 79.5215 63.6753 78.3124 62.3154 76.7833C60.9558 75.2543 59.978 73.4459 59.4572 71.4969C58.9361 69.5478 58.8861 67.5099 59.3107 65.5393C59.7354 63.5687 60.6234 61.7179 61.9063 60.1288C63.1897 58.5396 64.834 57.2543 66.7135 56.3715C68.5926 55.4886 70.6573 55.0316 72.7489 55.0356C75.055 55.0236 77.3271 55.5742 79.3523 56.636L79.4012 45.9985ZM72.6997 75.3691C74.2381 75.3691 75.7418 74.9302 77.0208 74.1079C78.2999 73.2855 79.2965 72.1167 79.8852 70.7492C80.4739 69.3817 80.6279 67.877 80.3278 66.4252C80.0278 64.9735 79.2871 63.64 78.1995 62.5934C77.1115 61.5468 75.7258 60.834 74.217 60.5452C72.7087 60.2565 71.1448 60.4046 69.7236 60.9711C68.3023 61.5375 67.0877 62.4967 66.233 63.7275C65.3786 64.9582 64.9223 66.4051 64.9223 67.8853C64.9223 69.862 65.7349 71.7584 67.1831 73.1606C68.6309 74.5628 70.5967 75.3567 72.6508 75.3691H72.6997ZM59.6885 45.9985L34.4484 80.829H42.3726L67.564 45.9985H59.6885ZM25.4481 45.9985H32.2473V80.829H25.3503V79.7465C23.2647 80.8472 20.9171 81.4062 18.5387 81.3687C16.1603 81.3308 13.8331 80.6978 11.7863 79.5317C9.73942 78.3656 8.04346 76.7066 6.86542 74.7181C5.68738 72.7296 5.06787 70.4801 5.06787 68.1912C5.06787 65.9023 5.68738 63.6529 6.86542 61.6643C8.04346 59.6759 9.73942 58.0169 11.7863 56.8507C13.8331 55.6846 16.1603 55.0515 18.5387 55.0139C20.9171 54.9762 23.2647 55.5353 25.3503 56.636L25.4481 45.9985ZM18.7957 75.3691C20.3318 75.3598 21.8306 74.913 23.1032 74.085C24.3758 73.2571 25.365 72.085 25.9461 70.7168C26.5273 69.3485 26.6744 67.8452 26.3688 66.3966C26.0632 64.948 25.3186 63.6189 24.229 62.577C23.1394 61.535 21.7535 60.827 20.2462 60.542C18.7388 60.257 17.1776 60.4079 15.7593 60.9757C14.341 61.5435 13.1292 62.5027 12.2767 63.7324C11.4242 64.9621 10.9693 66.4071 10.9693 67.8853C10.9692 69.862 11.7819 71.7584 13.2299 73.1606C14.6779 74.5628 16.6436 75.3567 18.6978 75.3691H18.7957Z" fill="#364253"/>
</g>
</svg>
