<svg width="31" height="10" viewBox="0 0 31 10" fill="none" xmlns="http://www.w3.org/2000/svg">
<g clip-path="url(#clip0_10518_77299)">
<path d="M23.6199 0.974609L25.5231 3.58907L24.4838 5.03485L21.554 0.974609H23.6199Z" fill="#8D98A8"/>
<path d="M28.0897 9.89032L25.9736 6.9867L26.9753 5.58911L30.0805 9.89032H28.0897Z" fill="#8D98A8"/>
<path d="M9.63402 0.974609L11.6624 3.68545L10.5481 5.19148L7.53052 0.974609H9.63402Z" fill="#8D98A8"/>
<path d="M27.8893 0.974609L21.4285 9.89027H23.4068L29.9177 0.974609H27.8893ZM19.1247 0.974609H20.8526V9.89027H19.1122V9.61316C18.6438 9.86255 18.1222 10.0054 17.5875 10.0308C17.0528 10.0561 16.5192 9.96329 16.0275 9.75943C15.5359 9.55557 15.0993 9.24608 14.7512 8.85468C14.4032 8.46329 14.1529 8.00039 14.0196 7.50149C13.8862 7.00258 13.8734 6.48092 13.9821 5.97651C14.0908 5.4721 14.3181 4.99834 14.6465 4.59156C14.975 4.18478 15.3959 3.85578 15.877 3.6298C16.358 3.40381 16.8865 3.28684 17.4219 3.28786C18.0122 3.28477 18.5938 3.42571 19.1122 3.6975L19.1247 0.974609ZM17.4093 8.49268C17.8031 8.49268 18.188 8.38033 18.5154 8.16983C18.8428 7.95934 19.0979 7.66015 19.2486 7.31011C19.3993 6.96007 19.4387 6.57489 19.3619 6.20329C19.2851 5.83169 19.0955 5.49035 18.8171 5.22244C18.5386 4.95453 18.1839 4.77208 17.7977 4.69816C17.4116 4.62425 17.0113 4.66218 16.6475 4.80718C16.2837 4.95217 15.9728 5.1977 15.754 5.51273C15.5353 5.82776 15.4185 6.19813 15.4185 6.57702C15.4185 7.083 15.6265 7.56844 15.9972 7.92735C16.3678 8.28627 16.871 8.4895 17.3968 8.49268H17.4093ZM14.0788 0.974609L7.61803 9.89027H9.64641L16.0947 0.974609H14.0788ZM5.31419 0.974609H7.05459V9.89027H5.28915V9.61316C4.75529 9.89491 4.15438 10.038 3.54558 10.0284C2.93677 10.0187 2.34107 9.85668 1.81714 9.55818C1.2932 9.25969 0.859081 8.83503 0.557535 8.32603C0.25599 7.81703 0.0974121 7.24123 0.0974121 6.65533C0.0974121 6.06943 0.25599 5.49364 0.557535 4.98463C0.859081 4.47563 1.2932 4.05097 1.81714 3.75248C2.34107 3.45398 2.93677 3.29193 3.54558 3.28229C4.15438 3.27265 4.75529 3.41575 5.28915 3.6975L5.31419 0.974609ZM3.61136 8.49268C4.00456 8.4903 4.38822 8.37593 4.71396 8.16399C5.0397 7.95205 5.29291 7.65204 5.44167 7.3018C5.59044 6.95156 5.62808 6.56677 5.54986 6.19596C5.47163 5.82516 5.28105 5.48494 5.00214 5.21824C4.72322 4.95153 4.36847 4.77028 3.98264 4.69733C3.5968 4.62439 3.19716 4.66302 2.83412 4.80836C2.47107 4.9537 2.16088 5.19923 1.94268 5.51399C1.72447 5.82876 1.60802 6.19865 1.60801 6.57702C1.608 7.083 1.81603 7.56844 2.18668 7.92735C2.55732 8.28627 3.06048 8.4895 3.58631 8.49268H3.61136Z" fill="#364253"/>
</g>
<defs>
<clipPath id="clip0_10518_77299">
<rect width="30" height="9" fill="white" transform="translate(0.0805664 0.974609)"/>
</clipPath>
</defs>
</svg>
