<svg width="209" height="209" viewBox="0 0 209 209" fill="none" xmlns="http://www.w3.org/2000/svg">
<circle cx="104.5" cy="104.5" r="104.5" fill="#DEEAF6"/>
<path d="M60 159.543L73.3157 145.025L68.0642 164.78H64.031L61.6881 164.03L60.4396 162.582L60 161.294V159.543Z" fill="#2865BE"/>
<path d="M73.3157 145.025L85.2425 164.78H68.0642L73.3157 145.025Z" fill="#01449F"/>
<path d="M85.2425 164.78L102.231 145.025H73.3157L85.2425 164.78Z" fill="#1F4EAA"/>
<path d="M60 100.79L73.3157 145.025L60 159.543V100.79Z" fill="#2256AA"/>
<path d="M67.2482 56.0215L60 100.79L67.2319 125.733L67.2482 56.0215Z" fill="#2865BE"/>
<path d="M85.0181 50.4985L64.031 50.2109L67.2483 56.0212H85.0181V50.4985Z" fill="#3A73C3"/>
<path d="M60 100.79V54.7259L60.6827 51.9949L62.3335 50.585L64.031 50.2109L67.2482 56.0212L60 100.79Z" fill="#3A73C3"/>
<path d="M143.939 56.0212L149.913 51.3028L148.529 50.2109H147.157H126.169V56.0212H143.939Z" fill="#3A73C3"/>
<path d="M151.187 80.8077L143.939 56.0211L149.913 51.3027L150.746 52.4063L151.187 54.2418V80.8077Z" fill="#3A73C3"/>
<path d="M143.939 104.147L151.187 80.8081L143.939 56.0215V104.147Z" fill="#3A73C3"/>
<path d="M143.939 157.401L151.187 127.83L143.939 104.147V157.401Z" fill="#2256AA"/>
<path d="M151.187 80.8076V127.83L143.939 104.147L151.187 80.8076Z" fill="#2865BE"/>
<path d="M143.939 157.401H131.489L141.477 164.78H147.156L149.057 164.305L149.929 163.671L150.937 162.152L151.187 160.749V127.83L143.939 157.401Z" fill="#01449F"/>
<path d="M85.2427 164.78H120.266L102.232 145.025L85.2427 164.78Z" fill="#01449F"/>
<path d="M131.489 157.4H113.529L120.265 164.78H141.477" fill="#1F4EAA"/>
<path d="M67.2483 157.4H104.009L74.5246 133.025L67.2483 157.4Z" fill="#85A0C1"/>
<path d="M67.2483 56.0215V157.401L74.5246 133.026L85.0181 115.508L67.2483 56.0215Z" fill="#99AFC9"/>
<path d="M104.008 157.401L127.097 128.224L85.018 115.509L74.5244 133.026L104.008 157.401Z" fill="#93ACC6"/>
<path d="M143.939 157.4H104.009L127.098 128.223L143.939 157.4Z" fill="#8DAAC6"/>
<path d="M143.939 127.83V157.401L127.098 128.223L143.939 127.83Z" fill="#99AFC9"/>
<path d="M67.2483 56.0215L67.5803 66.0544L69.715 80.8081L111.299 56.0215H67.2483Z" fill="#E6F0FE"/>
<path d="M111.299 56.0215L149.768 90.8785L146.514 80.0856L144.687 67.9016L144.213 56.0215H111.299Z" fill="#DEEAF9"/>
<path d="M111.299 56.0215L113.24 93.759L69.7151 80.8081L111.299 56.0215Z" fill="#DEEAF9"/>
<path d="M113.24 93.7586L82.3621 114.264L79.0185 105.201L76.2666 99.0194L73.082 91.5911L70.7953 84.9181L69.7151 80.8076L113.24 93.7586Z" fill="#D3E2F2"/>
<path d="M113.239 93.759L149.768 90.8785L111.299 56.0215L113.239 93.759Z" fill="#E6F0FE"/>
<path d="M82.3621 114.265L83.5826 118.747L84.9176 124.489L85.7103 131.932L86.0844 137.157L122.667 121.092L82.3621 114.265Z" fill="#C4D2E8"/>
<path d="M113.24 93.7588L122.667 121.092L82.3621 114.264L113.24 93.7588Z" fill="#D3DEF2"/>
<path d="M149.768 90.8789L122.667 121.092L113.24 93.7595L149.768 90.8789Z" fill="#DEEAF9"/>
<path d="M161.908 125.71L160.178 117.288L157.454 108.843L154.414 101.646L151.152 94.3136L149.768 90.8789L122.667 121.092L161.908 125.71Z" fill="#D3E2F2"/>
<path d="M86.0842 137.157L86.283 145.235L102.514 145.025L121.778 145.212L122.667 121.092L86.0842 137.157Z" fill="#B2C1D6"/>
<path d="M163.245 145.191L122.667 121.092L161.908 125.71L162.626 131.452L163.278 138.081L163.245 145.191Z" fill="#C4D2E8"/>
<path d="M121.778 145.212L163.245 145.191L122.667 121.092L121.778 145.212Z" fill="#BAC8DD"/>
<path d="M85.0181 59.7978L99.9751 47.1719L87.6742 47.2397L85.8621 48.2872L85.0181 50.499V59.7978Z" fill="#065AB0"/>
<path d="M99.9751 47.1719L118.603 59.6762L85.0181 59.7978L99.9751 47.1719Z" fill="#003F9C"/>
<path d="M126.169 59.7978L118.603 59.6762L99.9751 47.1719H111.212H122.842L125.552 48.5701L126.169 50.499V59.7978Z" fill="#01449F"/>
<path d="M99.9751 47.1716V42.1633L100.857 38.6L103.277 36.5004L105.594 36L108.629 39.7808L106.777 38.4597L105.025 38.2937L103.108 39.3529L102.271 41.2328L102.631 43.129L104.001 44.5249L106.005 47.1716H99.9751Z" fill="#003F9C"/>
<path d="M111.116 40.5851L108.629 39.7808L105.594 36L107.745 36.4279L109.566 37.646L110.805 39.5236L111.116 40.5851Z" fill="#01449F"/>
<path d="M111.212 47.1711L108.629 39.7803L111.116 40.5846L111.212 41.6204V47.1711Z" fill="#0454AB"/>
<path d="M106.005 47.1711H111.212L108.629 39.7803L108.935 41.5853L108.61 43.0256L107.752 44.1362L106.569 44.7816L104.773 44.8236L104.001 44.5244L106.005 47.1711Z" fill="#065AB0"/>
</svg>
