<svg width="72" height="72" viewBox="0 0 72 72" fill="none" xmlns="http://www.w3.org/2000/svg">
<path d="M22.6075 32.1828C23.0028 33.0278 23.9812 34.698 23.9812 34.698L35.2919 16L24.253 23.7085C23.5952 24.1473 23.0555 24.7412 22.6816 25.4379C22.1788 26.489 21.9117 27.6371 21.8989 28.8022C21.8861 29.9672 22.1279 31.121 22.6075 32.1828Z" fill="url(#paint0_linear_7877_39719)"/>
<path d="M18.126 38.3391C18.2506 40.1276 18.7559 41.8689 19.6081 43.4463C20.4603 45.0237 21.6397 46.4008 23.0673 47.4855L35.2773 55.9994C35.2773 55.9994 27.638 44.9901 21.1945 34.0352C20.5422 32.8778 20.1037 31.6124 19.8999 30.2996C19.8097 29.7051 19.8097 29.1004 19.8999 28.5059C19.7319 28.8172 19.4058 29.4546 19.4058 29.4546C18.7524 30.7871 18.3075 32.2119 18.0864 33.6794C17.9592 35.2307 17.9725 36.7902 18.126 38.3391Z" fill="#A0A8D4"/>
<path d="M49.2762 39.8179C48.8809 38.9729 47.9025 37.3027 47.9025 37.3027L36.5918 56.0007L47.6307 48.2972C48.2885 47.8584 48.8281 47.2644 49.202 46.5677C49.7056 45.516 49.9731 44.3669 49.9859 43.201C49.9987 42.035 49.7565 40.8804 49.2762 39.8179Z" fill="url(#paint1_linear_7877_39719)"/>
<path d="M53.7578 33.6603C53.6331 31.8717 53.1278 30.1305 52.2756 28.5531C51.4234 26.9756 50.244 25.5985 48.8165 24.5139L36.6064 16C36.6064 16 44.2408 27.0093 50.6892 37.9642C51.3398 39.1219 51.7767 40.3873 51.9789 41.6998C52.0691 42.2943 52.0691 42.899 51.9789 43.4935C52.1469 43.1822 52.473 42.5448 52.473 42.5448C53.1264 41.2123 53.5713 39.7874 53.7924 38.32C53.9212 36.7689 53.9097 35.2093 53.7578 33.6603Z" fill="#A0A8D4"/>
<path style="mix-blend-mode:color" d="M22.6819 25.4379C23.0558 24.7412 23.5954 24.1473 24.2532 23.7085L35.2921 16L23.9814 34.7029C23.9814 34.7029 22.9932 33.0327 22.6078 32.1878C22.1275 31.1253 21.8852 29.9706 21.898 28.8046C21.9108 27.6387 22.1784 26.4896 22.6819 25.4379ZM18.126 38.3397C18.2506 40.1283 18.7559 41.8695 19.6081 43.4469C20.4603 45.0244 21.6397 46.4015 23.0673 47.4861L35.2773 56C35.2773 56 27.638 44.9907 21.1945 34.0358C20.5422 32.8784 20.1037 31.613 19.8999 30.3002C19.8097 29.7057 19.8097 29.101 19.8999 28.5065C19.7319 28.8178 19.4058 29.4552 19.4058 29.4552C18.7524 30.7877 18.3075 32.2126 18.0864 33.68C17.9592 35.2313 17.9725 36.7909 18.126 38.3397ZM49.2563 39.8221C48.861 38.9771 47.8826 37.307 47.8826 37.307L36.5917 56L47.6306 48.2965C48.2884 47.8577 48.828 47.2637 49.202 46.567C49.7055 45.5153 49.973 44.3662 49.9858 43.2003C49.9986 42.0343 49.7564 40.8797 49.2761 39.8172L49.2563 39.8221ZM53.7381 33.6652C53.6134 31.8767 53.1081 30.1354 52.2559 28.558C51.4037 26.9806 50.2244 25.6035 48.7968 24.5188L36.6065 16C36.6065 16 44.2409 27.0093 50.6893 37.9642C51.3399 39.1219 51.7768 40.3873 51.979 41.6998C52.0692 42.2943 52.0692 42.899 51.979 43.4935C52.147 43.1822 52.4731 42.5448 52.4731 42.5448C53.1264 41.2123 53.5714 39.7874 53.7924 38.32C53.9213 36.7689 53.9097 35.2093 53.7578 33.6603L53.7381 33.6652Z" fill="url(#paint2_linear_7877_39719)"/>
<defs>
<linearGradient id="paint0_linear_7877_39719" x1="35.786" y1="16.4595" x2="21.2684" y2="32.1977" gradientUnits="userSpaceOnUse">
<stop offset="0.58" stop-color="#A0A8D4"/>
<stop offset="0.73" stop-color="#8791C7"/>
<stop offset="0.91" stop-color="#6470B4"/>
</linearGradient>
<linearGradient id="paint1_linear_7877_39719" x1="36.0927" y1="55.5412" x2="50.6153" y2="39.803" gradientUnits="userSpaceOnUse">
<stop offset="0.58" stop-color="#A0A8D4"/>
<stop offset="0.73" stop-color="#8791C7"/>
<stop offset="0.91" stop-color="#6470B4"/>
</linearGradient>
<linearGradient id="paint2_linear_7877_39719" x1="35.9394" y1="15.8023" x2="35.9394" y2="56.1235" gradientUnits="userSpaceOnUse">
<stop stop-color="#364253"/>
<stop offset="0.18" stop-color="#364253"/>
<stop offset="0.57" stop-color="#686F78"/>
<stop offset="1" stop-color="#8D98A8"/>
</linearGradient>
</defs>
</svg>
