<svg width="72" height="72" viewBox="0 0 72 72" fill="none" xmlns="http://www.w3.org/2000/svg">
<path d="M36 10C21.6661 10 10 21.6209 10 36C10 50.3339 21.6209 62 36 62C50.3791 62 62 50.3791 62 36C62 21.6661 50.3339 10 36 10ZM55.0365 37.4017H42.9635C42.1496 41.3809 38.3061 43.9583 34.327 43.1443C30.3478 42.3304 27.7704 38.4869 28.5843 34.5078C29.3983 30.5287 33.2417 27.9513 37.2209 28.7652C40.2504 29.353 42.5565 31.7948 43.0539 34.8696H55.0365C55.76 34.8696 56.3026 35.4574 56.3026 36.1356C56.3026 36.8591 55.7148 37.4017 55.0365 37.4017Z" fill="#364253"/>
</svg>
