<svg width="128" height="128" viewBox="0 0 128 128" fill="none" xmlns="http://www.w3.org/2000/svg">
<g clip-path="url(#clip0_9494_69197)">
<path d="M64 0.00012207C28.7165 0.00012207 0 28.6053 0 64.0001C0 99.2836 28.6052 128 64 128C99.3948 128 128 99.3949 128 64.0001C128 28.7166 99.2835 0.00012207 64 0.00012207ZM110.859 67.4506H81.1409C79.1374 77.2453 69.6765 83.5897 59.8817 81.5862C50.087 79.5827 43.7426 70.1218 45.7461 60.3271C47.7496 50.5323 57.2104 44.1879 67.0052 46.1914C74.4626 47.6384 80.1391 53.6488 81.3635 61.2175H110.859C112.64 61.2175 113.976 62.6645 113.976 64.334C113.976 66.1149 112.529 67.4506 110.859 67.4506Z" fill="#364253"/>
</g>
<defs>
<clipPath id="clip0_9494_69197">
<rect width="128" height="128" fill="white"/>
</clipPath>
</defs>
</svg>
