<svg width="72" height="72" viewBox="0 0 72 72" fill="none" xmlns="http://www.w3.org/2000/svg">
<rect width="72" height="72" rx="36" fill="#DEEAF6"/>
<path d="M53.8659 49.8265L49.1857 29.5121C48.7374 27.5552 47.2179 26.103 45.3413 25.7303C45.3261 25.7303 45.2881 25.7225 45.2425 25.7148C44.7182 25.6604 44.3156 25.21 44.2928 24.6742V24.6664C44.08 19.9062 40.2736 16.0312 35.5554 16.0002C30.7993 15.9691 26.9017 19.8208 26.7193 24.6276C26.7193 24.6354 26.7193 24.6509 26.7193 24.6587C26.7117 25.2022 26.3014 25.6604 25.7696 25.7148C25.7012 25.7225 25.648 25.7303 25.6253 25.7303C23.7638 26.1263 22.2671 27.5707 21.8188 29.5121L17.131 49.8265C16.7891 51.3252 17.1234 52.8705 18.0504 54.0819C18.9925 55.3089 20.4588 56 21.9936 56H49.0869C50.5989 56 52.0044 55.3089 52.9389 54.0975C53.8735 52.8861 54.2154 51.333 53.8659 49.8265ZM30.0243 24.9848C30.0243 21.8631 32.5315 19.3393 35.5934 19.3859C38.6021 19.4325 40.9878 21.9951 40.9878 25.0702C40.9878 25.3886 40.7371 25.6449 40.4255 25.6449H30.5789C30.2674 25.6449 30.0167 25.3886 30.0167 25.0702V24.9848H30.0243ZM20.6944 52.0396C20.3601 51.6358 20.2385 51.1155 20.3525 50.603L25.0402 30.2886C25.215 29.5431 25.8532 29.0306 26.5978 29.0306H34.5069C35.054 29.0306 35.4946 29.481 35.4946 30.0401V36.3457C35.4946 36.9048 35.054 37.3552 34.5069 37.3552H31.8933V36.1049C31.8933 35.3284 31.0652 34.8392 30.4042 35.2274L25.4201 38.1705C24.7591 38.5588 24.7591 39.5373 25.4201 39.9255L30.4042 42.8686C31.0652 43.2569 31.8933 42.7677 31.8933 41.9911V40.7409H39.1035V39.6537C39.1035 38.8772 39.9317 38.388 40.5927 38.7762L45.5768 41.7193C46.2378 42.1076 46.2378 43.0861 45.5768 43.4743L40.5927 46.4174C39.9317 46.8057 39.1035 46.3165 39.1035 45.5399V44.1266H36.4899C35.9429 44.1266 35.5022 44.577 35.5022 45.1361V51.6048C35.5022 52.1639 35.0616 52.6143 34.5145 52.6143H21.9632C21.4769 52.6143 21.0059 52.4201 20.6944 52.0396Z" fill="#364253"/>
</svg>
