<svg width="128" height="128" viewBox="0 0 128 128" fill="none" xmlns="http://www.w3.org/2000/svg">
<path d="M78.4933 39.3746C78.4933 21.0099 69.4335 5.19026 62.5254 0.0555675C62.5254 0.0555675 61.9911 -0.233815 62.0504 0.508193C61.4865 35.991 43.1219 45.6074 33.0306 58.548C9.74642 88.4435 31.3832 121.218 53.4654 127.273C65.7678 130.671 50.6086 121.27 48.6497 101.443C46.253 77.5137 78.4933 59.2158 78.4933 39.3671V39.3746Z" fill="#364253"/>
<path d="M89.0743 51.4618C88.9259 51.3728 88.7257 51.2986 88.5995 51.536C88.2137 56.0029 83.5983 65.5451 77.7439 74.3305C57.8803 104.085 69.196 118.435 75.5624 126.152C79.2576 130.619 75.5624 126.152 84.7929 121.582C96.1976 114.748 103.595 102.927 104.694 89.8013C106.504 68.6541 93.6525 55.3277 89.0743 51.4618Z" fill="#A0ABB7"/>
</svg>
