<svg width="72" height="72" viewBox="0 0 72 72" fill="none" xmlns="http://www.w3.org/2000/svg">
<g clip-path="url(#clip0_8034_39466)">
<path d="M33.1702 35.996L53.383 47.5289C53.5454 47.6261 53.7309 47.6785 53.9205 47.6807C54.11 47.6829 54.2966 47.6348 54.4613 47.5413C54.626 47.4478 54.7626 47.3123 54.8573 47.1488C54.952 46.9852 55.0013 46.7995 55 46.6107V25.3651C55.0024 25.176 54.9537 24.9897 54.8591 24.8258C54.7644 24.6619 54.6273 24.5263 54.462 24.4332C54.2967 24.3402 54.1093 24.2932 53.9195 24.297C53.7297 24.3008 53.5444 24.3554 53.383 24.455L33.1702 35.996Z" fill="#364253"/>
<path d="M52.9545 19.35L39.137 9.2265C38.9939 9.11709 38.8261 9.04442 38.6481 9.01489C38.4702 8.98537 38.2877 8.99989 38.1168 9.05718C37.9458 9.11447 37.7917 9.21278 37.6678 9.34343C37.544 9.47408 37.4544 9.63306 37.4068 9.80637L32.3617 32.3567L52.8332 21.0815C52.989 21.0017 53.1214 20.8832 53.2178 20.7375C53.3142 20.5918 53.3712 20.4239 53.3834 20.2498C53.3956 20.0757 53.3626 19.9015 53.2874 19.7438C53.2123 19.5862 53.0976 19.4506 52.9545 19.35Z" fill="#364253"/>
<path d="M39.1208 62.7584L52.9545 52.6349C53.0995 52.5333 53.2159 52.3964 53.2926 52.2371C53.3692 52.0779 53.4035 51.9017 53.3922 51.7254C53.3808 51.5492 53.3242 51.3788 53.2277 51.2306C53.1312 51.0824 52.9982 50.9614 52.8413 50.8792L32.3617 39.604L37.4068 62.1544C37.4487 62.3296 37.5335 62.4917 37.6538 62.6261C37.7741 62.7606 37.9261 62.8631 38.096 62.9246C38.266 62.9861 38.4486 63.0046 38.6275 62.9784C38.8063 62.9522 38.9759 62.8821 39.1208 62.7745" fill="#364253"/>
<path d="M27.9149 35.5772L33.1702 11.094C33.2104 10.8911 33.1888 10.6809 33.1083 10.4903C33.0278 10.2997 32.8921 10.1373 32.7184 10.024C32.5447 9.9107 32.3411 9.85159 32.1335 9.85425C31.9259 9.85691 31.7239 9.92121 31.5532 10.0389L18.0915 20.3235C17.7506 20.584 17.4748 20.9194 17.2854 21.3036C17.0961 21.6877 16.9984 22.1103 17 22.5383V48.6322C16.9934 49.0656 17.0887 49.4945 17.2782 49.8847C17.4677 50.2748 17.7462 50.6154 18.0915 50.8792L31.4885 61.1315C31.6592 61.2493 31.8613 61.3136 32.0688 61.3162C32.2764 61.3189 32.4801 61.2598 32.6537 61.1465C32.8274 61.0332 32.9631 60.8708 33.0436 60.6802C33.1241 60.4896 33.1457 60.2794 33.1055 60.0765L27.9149 35.5772Z" fill="#364253"/>
</g>
<defs>
<clipPath id="clip0_8034_39466">
<rect width="38" height="54" fill="white" transform="translate(17 9)"/>
</clipPath>
</defs>
</svg>
