<svg width="128" height="128" viewBox="0 0 128 128" fill="none" xmlns="http://www.w3.org/2000/svg">
<path d="M57.5703 63.9834L105.373 91.3882C107.024 92.3423 109.152 91.1315 109.152 89.2239V38.7428C109.152 36.8351 107.061 35.6246 105.373 36.5784L57.5703 63.9834Z" fill="#364253"/>
<path d="M102.591 24.7641L70.8565 0.514138C69.389 -0.586463 67.2613 0.183958 66.8577 1.98161L55.2646 55.9845L102.334 28.9464C103.911 28.0293 104.058 25.8646 102.591 24.7641Z" fill="#364253"/>
<path d="M70.8565 127.487L102.664 103.2C104.095 102.1 103.948 99.9349 102.407 99.0178L55.2646 72.0162L66.8944 126.019C67.2246 127.817 69.3525 128.587 70.8565 127.487Z" fill="#364253"/>
<path d="M45.321 63.9821L57.8311 5.79695C58.308 3.52236 55.7032 1.83477 53.8322 3.30223L21.8047 27.7723C20.1538 29.0196 19.2 31.0008 19.2 33.0552V95.019C19.2 97.0734 20.1538 99.0546 21.8047 100.302L53.8322 124.735C55.6664 126.129 58.308 124.478 57.8311 122.241L45.321 63.9821Z" fill="#364253"/>
</svg>
