<svg width="72" height="72" viewBox="0 0 72 72" fill="none" xmlns="http://www.w3.org/2000/svg">
<path d="M36.048 56C47.1202 56 56.096 47.0457 56.096 36C56.096 24.9543 47.1202 16 36.048 16C24.9758 16 16 24.9543 16 36C16 47.0457 24.9758 56 36.048 56Z" fill="#364253"/>
<path d="M26.1806 41.9989V32.5856L33.3364 37.9582V41.9989H35.1627V37.5789C35.1621 37.2462 35.0048 36.9324 34.7384 36.7322L26.0603 30.2142C25.876 30.0776 25.6524 30.0039 25.4227 30.0039C24.8381 30.0039 24.3563 30.4823 24.3535 31.0656V41.9989H26.1806ZM45.9706 41.9989V32.5856L38.8148 37.9582V41.9989H36.9884V37.5789C36.9891 37.2462 37.1464 36.9324 37.4128 36.7322L46.0909 30.2169C46.2752 30.0803 46.4988 30.0065 46.7284 30.0065C47.3121 30.0065 47.7935 30.4833 47.7977 31.0656V41.9989H45.9706Z" fill="white"/>
</svg>
