<svg width="128" height="128" viewBox="0 0 128 128" fill="none" xmlns="http://www.w3.org/2000/svg">
<g clip-path="url(#clip0_9494_69193)">
<path d="M64.1537 128C99.5848 128 128.307 99.3464 128.307 64.0001C128.307 28.6539 99.5848 0.00012207 64.1537 0.00012207C28.7226 0.00012207 0 28.6539 0 64.0001C0 99.3464 28.7226 128 64.1537 128Z" fill="#364253"/>
<path d="M32.5777 83.1966V53.074L55.4763 70.2665V83.1966H61.3207V69.0526C61.3186 67.9879 60.8152 66.9839 59.9628 66.3433L32.1928 45.4857C31.603 45.0486 30.8875 44.8126 30.1527 44.8126C28.2818 44.8126 26.74 46.3435 26.7312 48.21V83.1966H32.5777ZM95.906 83.1966V53.074L73.0074 70.2665V83.1966H67.163V69.0526C67.1651 67.9879 67.6685 66.9839 68.5209 66.3433L96.2909 45.4942C96.8807 45.0571 97.5962 44.8209 98.331 44.8209C100.199 44.8209 101.739 46.3467 101.752 48.21V83.1966H95.906Z" fill="white"/>
</g>
<defs>
<clipPath id="clip0_9494_69193">
<rect width="128" height="128" fill="white"/>
</clipPath>
</defs>
</svg>
