<svg width="72" height="72" viewBox="0 0 72 72" fill="none" xmlns="http://www.w3.org/2000/svg">
<rect x="16" y="16" width="40" height="40" rx="20" fill="#364253"/>
<path d="M24.5744 39.1766C26.3076 39.1766 27.6942 37.79 27.6942 36.0568C27.6942 34.2889 26.273 32.8677 24.5051 32.9024C22.6679 32.937 21.2813 34.3236 21.316 36.0568C21.316 37.8594 22.7372 39.1766 24.5744 39.1766ZM35.9443 27.5987C37.6775 27.5641 39.0641 26.1775 39.0641 24.4443C39.0641 22.711 37.5389 21.2551 35.8057 21.2898C34.0031 21.3591 32.5819 22.7804 32.6512 24.5136C32.6859 26.2815 34.1418 27.6334 35.9443 27.5987ZM47.3489 38.934C49.0821 39.0033 50.538 37.6861 50.6074 35.9528C50.6767 34.185 49.2901 32.6944 47.5569 32.6597C45.7197 32.6251 44.2638 33.9423 44.2291 35.7102C44.1944 37.5127 45.5117 38.8993 47.3489 38.934ZM36.1176 50.5465C37.8509 50.5465 39.2374 49.16 39.2721 47.4614C39.3068 45.7629 37.8855 44.307 36.187 44.2723C34.3498 44.2376 32.8592 45.6589 32.8592 47.4267C32.8592 49.1253 34.3498 50.5119 36.1176 50.5465ZM47.4876 41.1178C45.9623 41.0832 44.6451 40.6325 43.5358 39.4886C42.2532 38.206 40.6933 38.0327 39.5494 39.038C38.3362 40.0779 38.2668 41.6725 39.4801 43.1284C40.7973 44.7229 41.8026 46.3868 41.2826 48.5707C40.7973 50.6159 39.1681 52.2451 37.1576 52.5917C34.9391 53.0077 32.7205 52.1064 31.5766 50.2346C30.3634 48.2934 30.4327 46.3175 31.6459 44.3763C31.9233 43.9256 32.3046 43.5443 32.6165 43.1284C33.7258 41.7418 33.6911 40.1819 32.4432 39.142C31.2646 38.1367 29.7047 38.2754 28.5261 39.4886C27.0702 41.0485 25.2677 41.6378 23.1878 41.1525C21.004 40.6325 19.4441 38.8993 19.1321 36.6808C18.8548 34.6009 19.9987 32.3824 21.8359 31.3771C23.8465 30.3025 26.2383 30.5452 27.9715 32.0011C28.1795 32.1744 28.3875 32.4171 28.5955 32.5904C29.7741 33.665 31.4033 33.665 32.4779 32.6251C33.5178 31.6198 33.5871 30.0599 32.6165 28.8466C31.7846 27.8414 30.918 26.9401 30.6407 25.5882C30.1207 23.127 31.2646 20.6658 33.5178 19.6259C35.8403 18.5513 38.5788 19.1753 40.0694 21.1511C41.5946 23.127 41.56 25.8655 39.9307 27.8067C39.6534 28.1187 39.3761 28.4653 39.0988 28.7773C38.1628 30.0252 38.2668 31.5505 39.3414 32.5557C40.4507 33.561 42.0799 33.561 43.1892 32.3824C44.3678 31.1692 45.7197 30.4412 47.4529 30.4412C50.3994 30.4412 52.7565 32.7984 52.7565 35.7795C52.7912 38.726 50.3994 41.0832 47.4876 41.1178Z" fill="white"/>
<path d="M36.1173 49.5064C37.2959 49.5064 38.1972 48.6052 38.2319 47.4266C38.2319 46.248 37.2613 45.2427 36.0827 45.2774C34.9734 45.312 33.9335 46.3173 33.8988 47.3572C33.8988 48.5012 34.9734 49.5411 36.1173 49.5064ZM36.152 50.5464C34.3495 50.5464 32.8936 49.1598 32.8936 47.4266C32.8936 45.6587 34.3841 44.2374 36.2213 44.2721C37.9199 44.3068 39.3065 45.728 39.3065 47.4612C39.2718 49.1598 37.8506 50.5464 36.152 50.5464Z" fill="#364253"/>
<path d="M47.453 37.8942C48.6316 37.9288 49.5675 37.0276 49.6022 35.849C49.6368 34.6704 48.6662 33.6651 47.4876 33.6304C46.309 33.6304 45.2691 34.6357 45.2691 35.745C45.2691 36.9582 46.205 37.8942 47.453 37.8942ZM47.349 38.9341C45.5118 38.8648 44.1945 37.5129 44.2292 35.7103C44.2638 33.9424 45.7198 32.6252 47.557 32.6598C49.3248 32.6945 50.7114 34.2197 50.6074 35.953C50.5381 37.6862 49.0822 39.0034 47.349 38.9341Z" fill="#364253"/>
<path d="M38.024 24.4795C38.024 23.3009 37.088 22.365 35.9095 22.365C34.6962 22.365 33.6909 23.3356 33.6909 24.4795C33.6909 25.5888 34.8349 26.6634 35.9441 26.6287C37.0881 26.5941 38.024 25.6235 38.024 24.4795ZM35.9441 27.5993C34.1416 27.634 32.6857 26.2821 32.651 24.5142C32.6163 22.781 34.0376 21.3597 35.8055 21.2904C37.5387 21.2211 39.0639 22.7116 39.0639 24.4449C39.0639 26.1781 37.6773 27.5647 35.9441 27.5993Z" fill="#364253"/>
<path d="M24.5398 33.9078C23.3612 33.9078 22.3213 34.8784 22.3213 36.0223C22.3213 37.0969 23.4999 38.1715 24.6785 38.1715C25.7531 38.1715 26.6544 37.2009 26.6544 36.0916C26.689 34.8784 25.7531 33.9078 24.5398 33.9078ZM24.5745 39.1767C22.7373 39.1767 21.3161 37.8595 21.3161 36.0916C21.2814 34.3584 22.7026 32.9718 24.5052 32.9372C26.2731 32.9025 27.6943 34.2891 27.6943 36.0916C27.6943 37.7902 26.3077 39.1767 24.5745 39.1767Z" fill="#364253"/>
<path d="M36.1179 49.5063C34.974 49.5063 33.8994 48.4664 33.8994 47.3571C33.8994 46.2825 34.9394 45.2772 36.0833 45.2772C37.2619 45.2426 38.2671 46.2478 38.2325 47.4264C38.2325 48.6397 37.3312 49.5063 36.1179 49.5063Z" fill="white"/>
<path d="M47.4524 37.8941C46.2392 37.8594 45.2686 36.9582 45.2686 35.7796C45.2686 34.6703 46.3085 33.665 47.4871 33.665C48.6657 33.665 49.6363 34.705 49.6016 35.8836C49.5669 37.0275 48.631 37.9288 47.4524 37.8941Z" fill="white"/>
<path d="M38.0245 24.4788C38.0245 25.6574 37.0885 26.5933 35.9446 26.628C34.8353 26.6626 33.6914 25.588 33.6914 24.4788C33.6914 23.3349 34.6967 22.3643 35.9099 22.3643C37.0885 22.3643 38.0245 23.3002 38.0245 24.4788Z" fill="white"/>
<path d="M24.5398 33.9082C25.7531 33.9082 26.689 34.8441 26.6543 36.0921C26.6543 37.236 25.7531 38.1719 24.6785 38.1719C23.4999 38.1719 22.3213 37.0973 22.3213 36.0227C22.3213 34.9135 23.3612 33.9082 24.5398 33.9082Z" fill="white"/>
</svg>
