<svg width="128" height="128" viewBox="0 0 128 128" fill="none" xmlns="http://www.w3.org/2000/svg">
<rect width="128" height="128" rx="64" fill="#364253"/>
<path d="M27.5475 74.2308C33.0938 74.2308 37.5308 69.7938 37.5308 64.2475C37.5308 58.5902 32.9829 54.0423 27.3256 54.1532C21.4466 54.2642 17.0095 58.7012 17.1204 64.2475C17.1204 70.0156 21.6684 74.2308 27.5475 74.2308ZM63.9312 37.1815C69.4775 37.0706 73.9146 32.6336 73.9146 27.0873C73.9146 21.541 69.0338 16.8821 63.4875 16.993C57.7193 17.2149 53.1714 21.7628 53.3932 27.3091C53.5042 32.9664 58.1631 37.2925 63.9312 37.1815ZM100.426 73.4543C105.972 73.6762 110.631 69.461 110.853 63.9147C111.075 58.2575 106.638 53.4877 101.091 53.3767C95.2124 53.2658 90.5535 57.481 90.4425 63.1382C90.3316 68.9064 94.5468 73.3434 100.426 73.4543ZM64.4859 110.615C70.0322 110.615 74.4692 106.178 74.5801 100.742C74.691 95.3068 70.1431 90.6479 64.7077 90.5369C58.8286 90.426 54.0588 94.974 54.0588 100.631C54.0588 106.067 58.8286 110.504 64.4859 110.615ZM100.87 80.4427C95.9888 80.3317 91.7736 78.8897 88.224 75.2292C84.1198 71.1249 79.1281 70.5703 75.4675 73.7871C71.5851 77.1149 71.3632 82.2175 75.2457 86.8764C79.4608 91.979 82.6777 97.3034 81.0138 104.292C79.4609 110.836 74.2473 116.05 67.8136 117.159C60.7144 118.49 53.6151 115.606 49.9545 109.616C46.0721 103.404 46.294 97.0816 50.1764 90.8697C51.0638 89.4277 52.284 88.2075 53.2823 86.8764C56.8319 82.4394 56.721 77.4477 52.7277 74.1199C48.9562 70.9031 43.9645 71.3468 40.193 75.2292C35.5341 80.2208 29.766 82.1066 23.1104 80.5536C16.1221 78.8897 11.1304 73.3434 10.1321 66.2442C9.24471 59.5886 12.9052 52.4893 18.7843 49.2725C25.218 45.8338 32.8719 46.6103 38.4182 51.2691C39.0838 51.8238 39.7493 52.6002 40.4149 53.1549C44.1864 56.5936 49.3999 56.5936 52.8386 53.2658C56.1664 50.049 56.3882 45.0573 53.2823 41.1749C50.6201 37.958 47.8469 35.074 46.9595 30.7478C45.2956 22.8721 48.9562 14.9963 56.1664 11.6686C63.5984 8.22986 72.3616 10.2265 77.1314 16.5493C82.0122 22.8721 81.9012 31.6352 76.6877 37.8471C75.8003 38.8454 74.9129 39.9547 74.0255 40.953C71.0305 44.9464 71.3632 49.8271 74.802 53.044C78.3516 56.2608 83.5651 56.2608 87.1148 52.4893C90.8862 48.6069 95.2123 46.2775 100.759 46.2775C110.187 46.2775 117.73 53.8204 117.73 63.3601C117.841 72.7888 110.187 80.3317 100.87 80.4427Z" fill="white"/>
<path d="M64.4848 107.289C68.2563 107.289 71.1404 104.405 71.2513 100.634C71.2513 96.8622 68.1454 93.6454 64.3739 93.7563C60.8243 93.8672 57.4965 97.0841 57.3855 100.412C57.3855 104.072 60.8243 107.4 64.4848 107.289ZM64.5957 110.617C58.8276 110.617 54.1687 106.18 54.1687 100.634C54.1687 94.9765 58.9385 90.4285 64.8176 90.5395C70.253 90.6504 74.69 95.1984 74.69 100.745C74.5791 106.18 70.0311 110.617 64.5957 110.617Z" fill="#364253"/>
<path d="M100.756 70.127C104.527 70.2379 107.522 67.3538 107.633 63.5823C107.744 59.8109 104.638 56.594 100.867 56.4831C97.0952 56.4831 93.7674 59.6999 93.7674 63.2495C93.7674 67.132 96.7624 70.127 100.756 70.127ZM100.423 73.4547C94.5439 73.2329 90.3287 68.9068 90.4396 63.1386C90.5506 57.4814 95.2095 53.2662 101.089 53.3771C106.746 53.4881 111.183 58.3688 110.85 63.9151C110.628 69.4614 105.969 73.6766 100.423 73.4547Z" fill="#364253"/>
<path d="M70.5893 27.2002C70.5893 23.4287 67.5943 20.4337 63.8228 20.4337C59.9404 20.4337 56.7236 23.5396 56.7236 27.2002C56.7236 30.7498 60.3841 34.1885 63.9338 34.0776C67.5943 33.9667 70.5893 30.8607 70.5893 27.2002ZM63.9338 37.1835C58.1656 37.2944 53.5067 32.9683 53.3958 27.3111C53.2849 21.7648 57.8328 17.2168 63.49 16.995C69.0363 16.7731 73.9171 21.5429 73.9171 27.0892C73.9171 32.6355 69.4801 37.0726 63.9338 37.1835Z" fill="#364253"/>
<path d="M27.4367 57.3704C23.6653 57.3704 20.3375 60.4764 20.3375 64.1369C20.3375 67.5756 24.109 71.0143 27.8805 71.0143C31.3192 71.0143 34.2032 67.9084 34.2032 64.3588C34.3142 60.4763 31.3192 57.3704 27.4367 57.3704ZM27.5477 74.2312C21.6686 74.2312 17.1206 70.016 17.1206 64.3588C17.0097 58.8125 21.5577 54.3754 27.3258 54.2645C32.9831 54.1536 37.531 58.5906 37.531 64.3588C37.531 69.7941 33.094 74.2312 27.5477 74.2312Z" fill="#364253"/>
<path d="M64.4867 107.286C60.8262 107.286 57.3875 103.958 57.3875 100.408C57.3875 96.9696 60.7153 93.7528 64.3758 93.7528C68.1473 93.6419 71.3641 96.8587 71.2532 100.63C71.2532 104.513 68.3692 107.286 64.4867 107.286Z" fill="white"/>
<path d="M100.757 70.1267C96.8747 70.0158 93.7688 67.1317 93.7688 63.3602C93.7688 59.8106 97.0966 56.5938 100.868 56.5938C104.64 56.5938 107.745 59.9215 107.635 63.693C107.524 67.3536 104.529 70.2377 100.757 70.1267Z" fill="white"/>
<path d="M70.5845 27.1978C70.5845 30.9693 67.5895 33.9643 63.9289 34.0752C60.3793 34.1861 56.7188 30.7474 56.7188 27.1978C56.7188 23.5372 59.9356 20.4313 63.818 20.4313C67.5895 20.4313 70.5845 23.4263 70.5845 27.1978Z" fill="white"/>
<path d="M27.4364 57.3688C31.3188 57.3688 34.3138 60.3638 34.2029 64.3571C34.2029 68.0177 31.3189 71.0127 27.8801 71.0127C24.1087 71.0127 20.3372 67.574 20.3372 64.1353C20.3372 60.5856 23.6649 57.3688 27.4364 57.3688Z" fill="white"/>
</svg>
