<svg width="72" height="72" viewBox="0 0 72 72" fill="none" xmlns="http://www.w3.org/2000/svg">
<rect x="16" y="16" width="40" height="40" rx="20" fill="#364253"/>
<path d="M24.5734 39.1766C26.3066 39.1766 27.6932 37.79 27.6932 36.0568C27.6932 34.2889 26.272 32.8677 24.5041 32.9024C22.6669 32.937 21.2803 34.3236 21.315 36.0568C21.315 37.8594 22.7362 39.1766 24.5734 39.1766ZM35.9433 27.5987C37.6766 27.5641 39.0631 26.1775 39.0631 24.4443C39.0631 22.711 37.5379 21.2551 35.8047 21.2898C34.0021 21.3591 32.5809 22.7804 32.6502 24.5136C32.6849 26.2815 34.1408 27.6334 35.9433 27.5987ZM47.3479 38.934C49.0811 39.0033 50.537 37.6861 50.6064 35.9528C50.6757 34.185 49.2891 32.6944 47.5559 32.6597C45.7187 32.6251 44.2628 33.9423 44.2281 35.7102C44.1935 37.5127 45.5107 38.8993 47.3479 38.934ZM36.1167 50.5465C37.8499 50.5465 39.2365 49.16 39.2711 47.4614C39.3058 45.7629 37.8845 44.307 36.186 44.2723C34.3488 44.2376 32.8582 45.6589 32.8582 47.4267C32.8582 49.1253 34.3488 50.5119 36.1167 50.5465ZM47.4866 41.1178C45.9614 41.0832 44.6441 40.6325 43.5348 39.4886C42.2523 38.206 40.6924 38.0327 39.5484 39.038C38.3352 40.0779 38.2659 41.6725 39.4791 43.1284C40.7964 44.7229 41.8016 46.3868 41.2817 48.5707C40.7964 50.6159 39.1671 52.2451 37.1566 52.5917C34.9381 53.0077 32.7196 52.1064 31.5756 50.2346C30.3624 48.2934 30.4317 46.3175 31.645 44.3763C31.9223 43.9256 32.3036 43.5443 32.6156 43.1284C33.7248 41.7418 33.6902 40.1819 32.4422 39.142C31.2637 38.1367 29.7038 38.2754 28.5252 39.4886C27.0693 41.0485 25.2667 41.6378 23.1869 41.1525C21.003 40.6325 19.4431 38.8993 19.1311 36.6808C18.8538 34.6009 19.9977 32.3824 21.8349 31.3771C23.8455 30.3025 26.2373 30.5452 27.9705 32.0011C28.1785 32.1744 28.3865 32.4171 28.5945 32.5904C29.7731 33.665 31.4023 33.665 32.4769 32.6251C33.5168 31.6198 33.5862 30.0599 32.6156 28.8466C31.7836 27.8414 30.917 26.9401 30.6397 25.5882C30.1197 23.127 31.2637 20.6658 33.5168 19.6259C35.8394 18.5513 38.5778 19.1753 40.0684 21.1511C41.5936 23.127 41.559 25.8655 39.9298 27.8067C39.6524 28.1187 39.3751 28.4653 39.0978 28.7773C38.1619 30.0252 38.2659 31.5505 39.3405 32.5557C40.4497 33.561 42.0789 33.561 43.1882 32.3824C44.3668 31.1692 45.7187 30.4412 47.4519 30.4412C50.3984 30.4412 52.7556 32.7984 52.7556 35.7795C52.7902 38.726 50.3984 41.0832 47.4866 41.1178Z" fill="white"/>
<path d="M36.1164 49.5064C37.295 49.5064 38.1962 48.6052 38.2309 47.4266C38.2309 46.248 37.2603 45.2427 36.0817 45.2774C34.9724 45.312 33.9325 46.3173 33.8978 47.3572C33.8978 48.5012 34.9724 49.5411 36.1164 49.5064ZM36.151 50.5464C34.3485 50.5464 32.8926 49.1598 32.8926 47.4266C32.8926 45.6587 34.3831 44.2374 36.2204 44.2721C37.9189 44.3068 39.3055 45.728 39.3055 47.4612C39.2708 49.1598 37.8496 50.5464 36.151 50.5464Z" fill="#364253"/>
<path d="M47.451 37.8942C48.6296 37.9288 49.5655 37.0276 49.6002 35.849C49.6349 34.6704 48.6643 33.6651 47.4857 33.6304C46.3071 33.6304 45.2672 34.6357 45.2672 35.745C45.2672 36.9582 46.2031 37.8942 47.451 37.8942ZM47.347 38.9341C45.5098 38.8648 44.1926 37.5129 44.2272 35.7103C44.2619 33.9424 45.7178 32.6252 47.555 32.6598C49.3229 32.6945 50.7095 34.2197 50.6055 35.953C50.5361 37.6862 49.0802 39.0034 47.347 38.9341Z" fill="#364253"/>
<path d="M38.024 24.4795C38.024 23.3009 37.088 22.365 35.9095 22.365C34.6962 22.365 33.6909 23.3356 33.6909 24.4795C33.6909 25.5888 34.8349 26.6634 35.9441 26.6287C37.0881 26.5941 38.024 25.6235 38.024 24.4795ZM35.9441 27.5993C34.1416 27.634 32.6857 26.2821 32.651 24.5142C32.6163 22.781 34.0376 21.3597 35.8055 21.2904C37.5387 21.2211 39.0639 22.7116 39.0639 24.4449C39.0639 26.1781 37.6773 27.5647 35.9441 27.5993Z" fill="#364253"/>
<path d="M24.5389 33.9078C23.3603 33.9078 22.3203 34.8784 22.3203 36.0223C22.3203 37.0969 23.4989 38.1715 24.6775 38.1715C25.7521 38.1715 26.6534 37.2009 26.6534 36.0916C26.688 34.8784 25.7521 33.9078 24.5389 33.9078ZM24.5735 39.1767C22.7363 39.1767 21.3151 37.8595 21.3151 36.0916C21.2804 34.3584 22.7017 32.9718 24.5042 32.9372C26.2721 32.9025 27.6933 34.2891 27.6933 36.0916C27.6933 37.7902 26.3067 39.1767 24.5735 39.1767Z" fill="#364253"/>
<path d="M36.117 49.5063C34.973 49.5063 33.8984 48.4664 33.8984 47.3571C33.8984 46.2825 34.9384 45.2772 36.0823 45.2772C37.2609 45.2426 38.2661 46.2478 38.2315 47.4264C38.2315 48.6397 37.3302 49.5063 36.117 49.5063Z" fill="white"/>
<path d="M47.4514 37.8941C46.2382 37.8594 45.2676 36.9582 45.2676 35.7796C45.2676 34.6703 46.3075 33.665 47.4861 33.665C48.6647 33.665 49.6353 34.705 49.6006 35.8836C49.566 37.0275 48.63 37.9288 47.4514 37.8941Z" fill="white"/>
<path d="M38.0225 24.4788C38.0225 25.6574 37.0866 26.5933 35.9426 26.628C34.8334 26.6626 33.6895 25.588 33.6895 24.4788C33.6895 23.3349 34.6947 22.3643 35.908 22.3643C37.0866 22.3643 38.0225 23.3002 38.0225 24.4788Z" fill="white"/>
<path d="M24.5388 33.9082C25.7521 33.9082 26.688 34.8441 26.6534 36.0921C26.6534 37.236 25.7521 38.1719 24.6775 38.1719C23.4989 38.1719 22.3203 37.0973 22.3203 36.0227C22.3203 34.9135 23.3602 33.9082 24.5388 33.9082Z" fill="white"/>
</svg>
