<svg width="72" height="72" viewBox="0 0 72 72" fill="none" xmlns="http://www.w3.org/2000/svg">
<rect width="72" height="72" rx="36" fill="#DEEAF6"/>
<path d="M24.3923 37.6723C24.2943 37.6178 24.1635 37.6396 24.0873 37.7267C23.6734 38.2387 23.6516 39.3934 24.2071 39.9598C24.3487 40.1014 24.5557 40.1777 24.7518 40.1559C25.2311 40.1123 26.1897 40.1341 26.974 40.4064C27.0829 40.4391 27.1701 40.3302 27.1374 40.2322C26.5927 38.9141 24.9152 37.9446 24.3923 37.6723Z" fill="white"/>
<path d="M43.9237 55.9384C43.684 56.1563 43.379 56.3851 43.0522 56.5158C40.5577 55.5245 38.3355 55.1214 36.6035 54.9907C36.037 54.9472 35.5251 54.9254 35.0676 54.9254C33.2484 54.9254 30.3944 55.2086 27.0829 56.5158C26.7561 56.3851 26.4511 56.1563 26.2114 55.9384C26.9848 55.5027 27.8018 55.1323 28.6406 54.8273L29.2615 54.6095C29.4031 54.5659 29.8933 54.4243 30.0458 54.3807C30.1221 54.3589 30.4489 54.2827 30.5251 54.2609C30.8519 54.1737 31.3203 54.0866 31.6798 54.0212C31.7234 54.0103 31.7669 54.0103 31.7996 53.9994C32.878 53.8252 33.9782 53.7598 35.0676 53.7707C36.1569 53.7598 37.268 53.8252 38.3355 53.9994C38.7059 54.0648 39.2505 54.1628 39.61 54.2609C39.708 54.2827 39.9913 54.348 40.0893 54.3807C40.2091 54.4134 40.7429 54.5768 40.8736 54.6095L41.4945 54.8273C42.3224 55.1214 43.1503 55.4918 43.9237 55.9384Z" fill="#8D98A8"/>
<path d="M45.7425 37.6723C45.2196 37.9555 43.5421 38.9141 42.9974 40.2322C42.9538 40.3302 43.0519 40.4391 43.1608 40.4064C43.9451 40.1341 44.9146 40.1123 45.383 40.1559C45.59 40.1777 45.7861 40.1014 45.9277 39.9598C46.4832 39.4043 46.4615 38.2496 46.0475 37.7267C45.9713 37.6396 45.8405 37.6178 45.7425 37.6723Z" fill="white"/>
<path d="M52.9432 36.9858C52.6381 34.524 51.2002 32.792 50.3615 31.9641C50.9061 31.4957 51.3092 30.951 51.5706 30.341C52.2569 28.7506 51.7885 27.0513 51.124 25.9946C50.7754 25.45 50.5793 22.5524 50.9715 17.4762C51.0042 17.1058 50.8081 16.7572 50.4813 16.583C50.1545 16.4087 49.7515 16.4522 49.4682 16.681L42.5402 22.3128C42.1807 22.6069 42.05 23.0971 42.2243 23.5219C42.5947 24.4587 42.867 25.8095 42.4204 26.5066C42.1916 26.8661 41.745 27.0731 41.0696 27.1166C39.7842 27.1929 39.5664 26.5175 39.501 26.2997C39.0871 24.9707 40.2635 22.4979 42.6055 21.0818L43.0195 20.8313L42.965 20.3411C42.4857 16.0056 37.0827 12.7921 35.4378 11.9207L35.0784 11.7246L34.7189 11.9207C33.074 12.803 27.671 16.0056 27.1917 20.3411L27.1373 20.8313L27.5512 21.0818C29.9041 22.4979 31.0697 24.9707 30.6557 26.2997C30.5904 26.5175 30.3725 27.2038 29.0871 27.1166C28.4118 27.0731 27.9651 26.877 27.7364 26.5066C27.2898 25.8095 27.5621 24.4587 27.9325 23.5219C28.1067 23.0862 27.976 22.6069 27.6166 22.3128L20.6885 16.681C20.4053 16.4522 20.0022 16.4087 19.6754 16.583C19.3486 16.7572 19.1526 17.1058 19.1852 17.4762C19.512 21.8226 19.4576 25.3302 19.0327 25.9946C18.3683 27.0513 17.8999 28.7397 18.5861 30.341C18.8476 30.951 19.2506 31.4957 19.7953 31.9641C18.9565 32.7811 17.5186 34.5131 17.2136 36.9858C16.9304 39.2189 17.6384 41.5174 19.316 43.805C19.0219 44.0555 18.7495 44.3278 18.5208 44.622C17.7582 45.6023 17.2245 46.9204 17.475 48.184C17.6384 49.001 18.2158 49.6873 18.8258 50.1666C19.3813 50.6459 20.0458 51.0053 20.3835 51.55C20.6014 51.8986 20.6014 52.3016 20.5469 52.7047C20.0676 55.3953 21.9521 56.8659 24.4793 56.7569C24.5883 56.7569 24.7299 56.7351 24.8606 56.7243C25.2745 57.1709 26.0044 57.8354 26.9521 58.075L27.1917 58.1404L27.4205 58.0423C30.7756 56.6698 33.6623 56.4628 35.0784 56.4628C36.4945 56.4628 39.3812 56.6698 42.7363 58.0423L42.965 58.1404L43.2047 58.075C44.1524 57.8354 44.8931 57.1709 45.2962 56.7243C45.4269 56.7351 45.5685 56.746 45.6774 56.7569C48.1502 56.8768 50.0456 55.4389 49.6207 52.8027C49.5663 52.4868 49.5336 52.1709 49.6316 51.8659C49.7624 51.4629 49.9911 51.2341 50.3724 50.9073C50.6447 50.6785 50.9715 50.4607 51.331 50.1666C52.148 49.5239 52.7689 48.6197 52.7471 47.5304C52.7253 46.4738 52.2787 45.4498 51.636 44.622C51.3963 44.3278 51.1349 44.0555 50.8408 43.805C52.5074 41.5065 53.2155 39.2189 52.9432 36.9858ZM21.1024 28.7724C21.8976 29.2953 22.7909 29.6656 23.7059 29.8944C24.5229 30.0796 25.4052 30.1885 26.2222 30.0687C25.6667 29.7201 25.1002 29.4151 24.5665 29.0556C24.305 28.8922 23.9347 28.6199 23.5316 28.3149C21.8541 27.0295 20.8955 25.0252 20.9282 22.9119C20.9499 21.6047 20.8955 20.1559 20.8083 18.7507L26.3965 23.2931C26.0588 24.2626 25.634 26.0491 26.451 27.3345C26.9521 28.1297 27.8126 28.5763 29 28.6417C30.5795 28.7397 31.7233 28.0535 32.1263 26.7572C32.4531 25.7223 32.2461 24.3934 31.5599 23.0971C30.939 21.9206 29.9695 20.8531 28.793 20.047C29.4793 16.888 33.586 14.3063 35.0784 13.4675C36.5707 14.3172 40.6775 16.888 41.3637 20.047C40.1873 20.8531 39.2178 21.9206 38.5969 23.0971C37.9106 24.3934 37.7036 25.7223 38.0304 26.7572C38.4335 28.0535 39.5772 28.7506 41.1567 28.6417C42.3441 28.5654 43.1938 28.1297 43.7058 27.3345C44.5227 26.0491 44.0979 24.2626 43.7602 23.2931L49.3484 18.7507C49.2613 20.1668 49.2068 21.6374 49.2286 22.9446C49.2613 25.1341 48.2264 27.2038 46.4508 28.4674C46.4181 28.4892 46.3855 28.511 46.3528 28.5328C45.5685 29.0883 44.7515 29.5458 43.9236 30.0578V30.0687C44.087 30.0905 44.2613 30.1014 44.4247 30.1014C45.9497 30.1449 47.66 29.6765 49.0216 28.7724C49.6534 28.3476 50.4704 28.9903 50.1763 29.6983C50.1763 29.7092 50.1654 29.7092 50.1654 29.7201C49.6316 30.9728 48.0303 31.8878 45.5467 32.3671C40.9825 33.2604 37.0282 33.4129 35.0675 33.4238C33.1176 33.4129 29.1634 33.2604 24.5883 32.3671C22.1046 31.8878 20.5033 30.9619 19.9696 29.7201C19.9696 29.7092 19.9587 29.7092 19.9587 29.6983C19.6645 29.0121 20.4706 28.3585 21.1024 28.7724ZM43.0522 56.5173C39.7406 55.2101 36.8975 54.9269 35.0675 54.9269C33.2483 54.9269 30.3943 55.2101 27.0828 56.5173C26.756 56.3866 26.451 56.1578 26.2113 55.9399C26.9848 55.5042 27.8017 55.1339 28.6405 54.8288L29.2614 54.6219C29.403 54.5783 29.8932 54.4367 30.0457 54.3931C30.122 54.3713 30.4488 54.2951 30.525 54.2842C30.8845 54.1861 31.4292 54.099 31.7995 54.0227C32.8779 53.8485 33.9782 53.7831 35.0675 53.794C36.1568 53.7831 37.2679 53.8485 38.3354 54.0227C38.7058 54.0881 39.2505 54.1861 39.6099 54.2842C39.708 54.306 39.9912 54.3713 40.0892 54.3931C40.209 54.4258 40.7428 54.5892 40.8735 54.6219L41.4944 54.8288C42.3332 55.1339 43.1502 55.5042 43.9236 55.9399C43.6731 56.1578 43.379 56.3866 43.0522 56.5173ZM49.5445 42.9771C48.6839 42.5958 47.7253 42.476 46.8103 42.8137C47.4639 43.3692 48.0848 43.7832 48.7493 44.2516C49.3266 44.6437 49.8931 45.0686 50.2743 45.6459C50.6338 46.1579 50.8735 46.7897 50.9061 47.4106V47.5086L50.8952 47.5958C50.8952 47.6611 50.8735 47.7047 50.8626 47.7592C50.7427 48.1513 50.514 48.3474 50.1218 48.6633C49.8386 48.8812 49.5009 49.1099 49.1523 49.3932C48.5423 49.8725 47.9759 50.5369 47.7689 51.3212C47.6164 51.8441 47.6273 52.4215 47.7144 52.9443C47.7362 53.0968 47.7798 53.282 47.7798 53.4345C47.9105 54.611 46.9083 55.0031 45.9171 55.1339C45.819 55.1447 45.6992 55.1556 45.5903 55.1665C44.0434 54.099 42.2787 53.3909 40.4705 52.8899C40.3833 52.8681 40.0348 52.7809 39.9585 52.77C39.5663 52.6611 38.9672 52.5631 38.5642 52.4868C37.4095 52.3016 36.2221 52.2363 35.0566 52.2472C33.6514 52.2363 32.2244 52.3452 30.8518 52.6175C28.8802 53.0097 26.9521 53.7068 25.2201 54.7308C24.9804 54.8724 24.7517 55.014 24.5229 55.1774C24.414 55.1665 24.305 55.1556 24.207 55.1447C23.2157 55.014 22.2135 54.6219 22.3443 53.4454C22.3878 53.0206 22.4968 52.6175 22.475 52.1709C22.4859 51.3321 22.1046 50.4825 21.5164 49.8942C21.0698 49.4258 20.4489 49.0228 20.0022 48.6633C19.5338 48.2929 19.2615 48.0315 19.2288 47.4977C19.2506 46.4956 19.7844 45.537 20.536 44.8834C21.4401 44.1427 22.4096 43.6089 23.3246 42.8137C22.4096 42.476 21.451 42.5958 20.5905 42.9771C19.1199 40.9836 18.4772 39.0447 18.7059 37.1928C18.9892 34.9161 20.5033 33.3584 21.0807 32.8356C21.9521 33.2822 23.0305 33.6308 24.2941 33.8813C28.9891 34.7963 33.0522 34.9488 35.0566 34.9597C37.0609 34.9488 41.1241 34.7963 45.819 33.8813C47.0826 33.6308 48.1502 33.2822 49.0325 32.8356C49.6098 33.3475 51.124 34.8835 51.4072 37.171C51.6469 39.0338 51.0151 40.9836 49.5445 42.9771Z" fill="#364253"/>
<path d="M39.1418 42.7276C37.7911 42.4009 36.4076 42.2919 35.0242 42.2266C32.3118 42.3682 29.4578 42.7385 27.2247 44.4379C26.5057 45.0043 25.8086 45.7015 25.4927 46.5838L25.5145 46.5947C25.9175 46.2897 26.3423 46.0719 26.7672 45.8431C27.8129 45.342 29.0112 44.9172 30.1332 44.634C31.7345 44.2091 33.3902 43.9041 35.046 43.7952C35.4599 43.8279 35.863 43.8605 36.2769 43.9041C36.6909 43.9586 37.1157 44.0239 37.5296 44.0893C39.5231 44.4706 41.5056 44.9607 43.3357 45.854C43.7714 46.0718 44.1854 46.3006 44.5884 46.6056L44.6102 46.5947C44.425 46.0501 44.0546 45.5708 43.6625 45.1459C42.4642 43.8714 40.8194 43.1416 39.1418 42.7276Z" fill="#364253"/>
<path d="M28.1509 42.0069C28.4232 42.0505 31.0812 42.4099 31.9308 42.2247C31.9526 42.2247 31.9744 42.203 31.9853 42.1921C32.835 41.2226 32.726 39.85 32.5953 39.1638C32.5735 39.0548 32.421 39.0439 32.3883 39.1529C32.3121 39.4034 32.1923 39.7302 32.0289 40.0461C31.6694 40.7651 30.7653 41.0265 30.0899 40.6017C29.2293 40.0679 28.2272 39.0984 27.737 38.1398C27.018 36.7455 23.957 33.7717 21.1357 34.7085C21.0377 34.7412 21.0377 34.8937 21.1466 34.9155C21.9636 35.1442 22.3448 35.8523 22.4538 36.081C22.4756 36.1246 22.4647 36.1791 22.4211 36.2117C22.0507 36.5385 20.09 38.4339 22.018 40.4601C22.0943 40.5363 22.225 40.471 22.2032 40.3729C22.127 39.85 22.1379 39.3054 22.2468 38.9132C22.2795 38.7934 22.4538 38.8152 22.4647 38.9459C22.4865 39.8065 23.1291 40.8086 23.9244 41.2008C23.9352 41.2117 23.957 41.2117 23.9788 41.2117C26.7239 41.2008 27.9548 41.9088 28.1182 42.0069C28.1182 41.996 28.1291 42.0069 28.1509 42.0069ZM26.9744 40.4056C26.1901 40.1333 25.2206 40.1115 24.7522 40.155C24.5453 40.1768 24.3492 40.1006 24.2076 39.959C23.652 39.4034 23.6738 38.2488 24.0877 37.7259C24.164 37.6387 24.2838 37.617 24.3928 37.6714C24.9156 37.9546 26.5932 38.9132 27.1378 40.2313C27.1814 40.3293 27.0834 40.4383 26.9744 40.4056Z" fill="#364253"/>
<path d="M48.9994 34.6984C46.178 33.7725 43.1171 36.7354 42.3981 38.1297C41.897 39.0992 40.9058 40.0578 40.0452 40.5916C39.3589 41.0164 38.4657 40.755 38.1062 40.0361C37.9428 39.7201 37.823 39.3825 37.7467 39.1428C37.7141 39.0339 37.5616 39.0448 37.5398 39.1537C37.409 39.84 37.3001 41.2125 38.1498 42.182C38.1607 42.2038 38.1825 42.2147 38.2043 42.2147C39.0539 42.3999 41.7118 42.0404 41.9842 41.9968C41.9951 41.9968 42.0169 41.9859 42.0278 41.9859C42.1911 41.8879 43.4221 41.1798 46.1672 41.1907C46.1889 41.1907 46.1998 41.1907 46.2216 41.1798C47.0168 40.7877 47.6595 39.7855 47.6813 38.925C47.6813 38.8051 47.8665 38.7724 47.8992 38.8923C48.0081 39.2844 48.019 39.8291 47.9427 40.352C47.9319 40.4609 48.0517 40.5154 48.1279 40.4391C50.056 38.413 48.1061 36.5285 47.7249 36.1908C47.6922 36.1581 47.6813 36.1036 47.6922 36.0601C47.8011 35.8313 48.1824 35.1123 48.9994 34.8945C49.0974 34.8836 49.0974 34.7311 48.9994 34.6984ZM45.9275 39.9598C45.7859 40.1014 45.5789 40.1777 45.3828 40.1559C44.9035 40.1123 43.945 40.1341 43.1606 40.4064C43.0517 40.4391 42.9646 40.3302 42.9972 40.2321C43.5419 38.925 45.2194 37.9555 45.7423 37.6722C45.8404 37.6178 45.9711 37.6396 46.0473 37.7267C46.4613 38.2387 46.4722 39.3934 45.9275 39.9598Z" fill="#364253"/>
</svg>
