<svg width="128" height="128" viewBox="0 0 128 128" fill="none" xmlns="http://www.w3.org/2000/svg">
<path d="M89.7527 57.0929V45.5864C89.7527 45.2606 90.0247 45 90.3498 45H102.068C102.4 45 102.665 45.2671 102.665 45.5864V57.0929C102.699 57.4187 102.426 57.6793 102.068 57.6793H90.3498C90.018 57.6793 89.7527 57.4122 89.7527 57.0929ZM127.403 45.0261H115.684C115.353 45.0261 115.087 45.2932 115.087 45.6125V57.119C115.087 57.4448 115.359 57.7054 115.684 57.7054H127.403C127.735 57.7054 128 57.4383 128 57.119V45.6125C128 45.2867 127.728 45.0261 127.403 45.0261ZM102.075 69.9286H90.3564C90.0247 69.9286 89.7593 70.1958 89.7593 70.515V82.0216C89.7593 82.3474 90.0313 82.608 90.3564 82.608H102.075C102.433 82.608 102.705 82.3148 102.672 82.0216V70.515C102.672 70.1893 102.4 69.9286 102.075 69.9286ZM127.403 69.9286H115.684C115.353 69.9286 115.087 70.1958 115.087 70.515V82.0216C115.087 82.3474 115.359 82.608 115.684 82.608H127.403C127.735 82.608 128 82.3408 128 82.0216V70.515C128 70.1893 127.728 69.9286 127.403 69.9286ZM115.353 69.6354V58.1289C115.353 57.8031 115.081 57.5425 114.755 57.5425H103.037C102.705 57.5425 102.44 57.8096 102.44 58.1289V69.6354C102.44 69.9612 102.712 70.2218 103.037 70.2218H114.755C115.087 70.1893 115.353 69.9286 115.353 69.6354ZM82.5264 45.0261H70.8081C70.4763 45.0261 70.2108 45.2932 70.2108 45.6125V57.119C70.2108 57.4448 70.483 57.7054 70.8081 57.7054H82.5264C82.8582 57.7054 83.1237 57.4383 83.1237 57.119V45.6125C83.1237 45.2867 82.8251 45.0261 82.5264 45.0261ZM82.5264 69.9286H70.8081C70.4763 69.9286 70.2108 70.1958 70.2108 70.515V82.0216C70.2108 82.3474 70.483 82.608 70.8081 82.608H82.5264C82.8582 82.608 83.1237 82.3408 83.1237 82.0216V70.515C83.1237 70.1893 82.8251 69.9286 82.5264 69.9286ZM70.4431 69.6354V58.1289C70.4431 57.8031 70.1711 57.5425 69.846 57.5425H58.1275C57.9748 57.5425 57.8554 57.6011 57.7691 57.6924V45.6255C57.7691 45.2997 57.4971 45.0391 57.172 45.0391H45.48C45.1483 45.0391 44.8829 45.3062 44.8829 45.6255V82.0346C44.8829 82.3604 45.1549 82.621 45.48 82.621H57.1985C57.5569 82.621 57.8289 82.3539 57.7957 82.0346V70.085C57.8886 70.1762 58.0346 70.2349 58.154 70.2349H69.8724C70.2042 70.2023 70.4697 69.9417 70.4431 69.6485V69.6354ZM38.0682 45.202C38.1876 45.3193 38.2805 45.4691 38.2805 45.645V57.1516C38.2805 57.2102 38.2805 57.2689 38.2473 57.3014V70.3717C38.2805 70.4303 38.2805 70.489 38.2805 70.5216V82.0281C38.2805 82.1193 38.2473 82.204 38.2208 82.2626C38.1279 82.4711 37.9223 82.6471 37.6502 82.6471H25.9317C25.872 82.6471 25.8123 82.6471 25.7791 82.6145H12.4681C12.4084 82.6471 12.3488 82.6471 12.2891 82.6471H0.597136C0.504238 82.6471 0.417905 82.6145 0.358184 82.5884C0.145846 82.4972 7.78818e-09 82.2952 7.78818e-09 82.0281V70.5216C7.78818e-09 70.4629 -0.000129594 70.4043 0.0330482 70.3717V57.2754C0.0330482 57.2167 7.78818e-09 57.1581 7.78818e-09 57.0995V45.619C7.78818e-09 45.4431 0.059733 45.2932 0.179173 45.2085C0.298613 45.0912 0.451154 45.0326 0.597136 45.0326H12.3155C12.3752 45.0326 12.4349 45.0326 12.4681 45.0652H25.7791C25.8388 45.0652 25.872 45.0326 25.9317 45.0326H37.6502C37.8028 45 37.9487 45.0912 38.0682 45.2085V45.202ZM25.3279 57.7119H12.8862V69.9286H25.3279V57.7119Z" fill="#364253"/>
</svg>
