<svg width="72" height="72" viewBox="0 0 72 72" fill="none" xmlns="http://www.w3.org/2000/svg">
<path fill-rule="evenodd" clip-rule="evenodd" d="M23.2182 22.25C22.5885 19 25.1072 16 28.3815 16C31.2779 16 33.6706 18.375 33.6706 21.25V27.75C34.4262 27.75 35.1818 27.625 35.9374 27.625C36.693 27.625 37.3227 27.625 38.0783 27.75V21.25C38.0783 18.375 40.471 16 43.3675 16C46.6417 16 49.1604 19 48.6566 22.25L47.2714 29.875C52.1828 32 55.9608 35.75 55.9608 40.375V43.25C55.9608 47.125 53.4421 50.375 49.79 52.5C46.138 54.75 41.3525 56 35.9374 56C30.5223 56 25.7369 54.75 22.0848 52.5C18.5587 50.375 16.04 47.125 16.04 43.25V40.375C16.04 35.75 19.6921 32 24.6035 29.875L23.2182 22.25ZM45.3824 30.875L47.0195 21.875C47.3973 19.625 45.7602 17.5 43.3675 17.5C41.3525 17.5 39.7154 19.125 39.7154 21.125V29.375C39.2117 29.25 38.582 29.25 38.0783 29.25C37.3227 29.25 36.693 29.125 35.9374 29.125C35.1818 29.125 34.4262 29.125 33.6706 29.25C33.1669 29.25 32.5372 29.375 32.0335 29.375V21.25C32.0335 19.25 30.3964 17.625 28.3815 17.625C26.1147 17.625 24.3516 19.75 24.8553 22L26.4925 31C21.2033 33 17.6772 36.5 17.6772 40.5V43.375C17.6772 49.5 25.8628 54.5 35.9374 54.5C46.0121 54.5 54.1977 49.5 54.1977 43.375V40.5C54.3236 36.375 50.7975 32.875 45.3824 30.875Z" fill="#364253"/>
<path d="M54.3233 43.25C54.3233 49.375 46.1376 54.375 36.063 54.375C25.9884 54.375 17.8027 49.375 17.8027 43.25V40.375H54.4492V43.25H54.3233Z" fill="#F2F5F8"/>
<path fill-rule="evenodd" clip-rule="evenodd" d="M24.855 22C24.3512 19.75 26.1143 17.625 28.3811 17.625C30.396 17.625 32.0331 19.25 32.0331 21.25V29.5C33.2925 29.375 34.5518 29.25 35.9371 29.25C37.1964 29.25 38.4557 29.375 39.715 29.5V21.25C39.715 19.25 41.3522 17.625 43.3671 17.625C45.6339 17.625 47.397 19.75 47.0192 22L45.382 31C50.6712 33 54.3233 36.5 54.3233 40.5C54.3233 46.625 46.1376 51.625 36.063 51.625C25.9884 51.625 17.8027 46.625 17.8027 40.5C17.8027 36.5 21.3289 33 26.618 31L24.855 22Z" fill="#8D98A8"/>
<path d="M30.9 39.625C30.9 41.25 30.0184 42.625 28.885 42.625C27.7516 42.625 26.8701 41.25 26.8701 39.625C26.8701 38 27.7516 36.625 28.885 36.625C30.0184 36.625 30.9 38 30.9 39.625Z" fill="#364253"/>
<path d="M44.8785 39.625C44.8785 41.25 43.997 42.625 42.8636 42.625C41.7302 42.625 40.8486 41.25 40.8486 39.625C40.8486 38 41.7302 36.625 42.8636 36.625C43.997 36.625 44.8785 38 44.8785 39.625Z" fill="#364253"/>
</svg>
