<svg width="128" height="128" viewBox="0 0 128 128" fill="none" xmlns="http://www.w3.org/2000/svg">
<g clip-path="url(#clip0_13525_138101)">
<path d="M64 128C99.3462 128 128 99.3462 128 64C128 28.6538 99.3462 0 64 0C28.6538 0 0 28.6538 0 64C0 99.3462 28.6538 128 64 128Z" fill="#364253"/>
<path fill-rule="evenodd" clip-rule="evenodd" d="M48.764 24.8704C43.377 24.8704 40.8972 28.9302 40.8972 34.545C40.8972 39.0078 43.7786 47.9458 44.9607 51.4253C45.2266 52.2078 44.8087 53.0653 44.0468 53.3688C39.7294 55.0885 26.988 61.3853 26.988 75.8061C26.988 90.9969 39.936 102.451 63.8134 102.469H63.8419H63.8704C87.7476 102.451 100.696 90.9969 100.696 75.8061C100.696 61.3853 87.9544 55.0885 83.637 53.3688C82.875 53.0653 82.4572 52.2078 82.7231 51.4253C83.9052 47.9458 86.7864 39.0078 86.7864 34.545C86.7864 28.9302 84.3067 24.8704 78.9198 24.8704C71.1654 24.8704 69.2324 35.9668 69.0946 47.876C69.0854 48.671 68.4491 49.3161 67.662 49.3161H60.0218C59.2346 49.3161 58.5984 48.671 58.5892 47.876C58.4514 35.9668 56.5183 24.8704 48.764 24.8704ZM54.1225 72.0629C54.1225 76.2092 52.1828 78.3686 49.7901 78.3686C47.3973 78.3686 45.4577 76.2092 45.4577 72.0629C45.4577 67.9166 47.3973 65.7572 49.7901 65.7572C52.1828 65.7572 54.1225 67.9166 54.1225 72.0629ZM77.9506 78.3686C80.3434 78.3686 82.283 76.2092 82.283 72.0629C82.283 67.9166 80.3434 65.7572 77.9506 65.7572C75.5579 65.7572 73.6182 67.9166 73.6182 72.0629C73.6182 76.2092 75.5579 78.3686 77.9506 78.3686Z" fill="white"/>
</g>
<defs>
<clipPath id="clip0_13525_138101">
<rect width="128" height="128" fill="white"/>
</clipPath>
</defs>
</svg>
