<svg width="72" height="72" viewBox="0 0 72 72" fill="none" xmlns="http://www.w3.org/2000/svg">
<rect width="72" height="72" rx="36" fill="#DEEAF6"/>
<path d="M39.735 16.8485C37.8514 18.5761 36.6674 21.0977 36.6674 23.9099C36.6674 26.6663 36.6674 35.7573 36.6674 35.7573C36.6674 37.1327 35.5911 38.2509 34.2672 38.2509C33.6107 38.2509 33.0079 37.9713 32.5774 37.524L32.5935 37.5073C30.6777 35.5169 28.1214 34.6055 25.6189 34.7677C21.4212 35.3659 20.1296 38.2061 21.5611 39.3747C22.9334 39.2908 24.3973 39.8611 25.6135 41.1246C25.9257 41.4489 26.5661 42.1143 27.3679 42.9473C29.1493 44.7979 31.5549 46 34.2726 46C39.7135 46 44.0672 41.4154 44.0672 35.7629C44.0672 35.7629 44.0672 22.7806 44.0672 21.3437C44.0672 19.5601 44.713 18.0841 45.7409 17.1336C46.9518 14.5786 43.7443 14.1201 39.735 16.8485Z" fill="#8D98A8"/>
<path d="M19.6707 50.7884C23.4204 54.5991 28.5572 57 34.2793 57C45.7234 57 55 47.5724 55 35.9422V23.8383H54.9296C54.7074 18.9208 50.7139 15 45.8155 15C43.5017 15 41.383 15.8756 39.7737 17.3183C43.6372 15 47.4952 17.4505 47.4952 21.7348C47.4952 22.0046 47.4952 35.9367 47.4952 35.9367C47.4952 39.5271 46.1189 42.8972 43.6209 45.4358C41.123 47.9744 37.8068 49.3731 34.2738 49.3731C29.3483 49.3731 25.4307 46.6859 23.1603 43.6461C20.6135 40.2319 21.2042 36.1074 25.5499 34.973C23.4095 35.1107 21.3017 36.0083 19.6653 37.6713C16.1107 41.2947 16.1107 47.1649 19.6707 50.7884Z" fill="#364253"/>
</svg>
