<svg width="72" height="72" viewBox="0 0 72 72" fill="none" xmlns="http://www.w3.org/2000/svg">
<path d="M22.0377 35.1696C22.1281 35.5869 22.1825 36.0107 22.2725 36.4287C22.3276 36.6849 22.4114 36.6226 22.5428 36.5123C22.7944 36.3008 23.0362 36.0767 23.3198 35.9062C23.3993 35.922 23.4403 35.9855 23.4842 36.0429C24.2251 37.0104 25.2105 37.603 26.3716 37.926C26.9078 38.0748 27.456 38.1766 28.0099 38.2302C27.8367 38.0358 27.6917 37.8179 27.5794 37.5829C27.3941 37.1653 27.4582 36.7916 27.7717 36.4618C28.1535 36.059 28.6577 35.8923 29.1693 35.7589C30.2416 35.4794 31.3341 35.4517 32.4349 35.5297C33.3191 35.5897 34.195 35.7391 35.0492 35.9755C35.7623 36.1747 36.4624 36.413 37.0947 36.8133C37.1834 36.8844 37.2445 36.9824 37.3298 37.057C38.143 37.9294 38.6171 38.9606 38.6493 40.1515C38.6716 40.9742 38.4439 41.7597 38.0316 42.4823C37.2882 43.7857 36.2036 44.7316 34.9102 45.4568C33.5927 46.1932 32.1387 46.653 30.6372 46.8078C27.9537 47.099 25.4673 46.5171 23.1805 45.0927C21.2793 43.9085 19.8189 42.2892 18.6269 40.412C18.0731 39.5206 17.5834 38.591 17.1616 37.6301C17.1088 37.513 17.0965 37.3824 17.0427 37.2858C17.0769 37.3999 17.1398 37.5284 17.0151 37.6502C16.9769 37.1653 17.0202 36.6809 17.0456 36.1982C17.1099 34.8667 17.3168 33.546 17.6627 32.2586C18.4351 29.3989 19.8635 26.7586 21.8344 24.5473C23.8054 22.3361 26.2647 20.6146 29.017 19.5197C30.6943 18.8522 32.4594 18.4314 34.2575 18.2706C37.093 18.0094 39.8403 18.3829 42.5194 19.3343C42.112 20.1075 39.785 22.1792 37.9775 23.3785C37.9258 22.8553 37.8068 22.341 37.6234 21.8483C37.6141 21.7172 37.7316 21.6762 37.8046 21.6134C38.1804 21.2904 38.5585 20.97 38.9388 20.6522C38.9774 20.6224 39.014 20.5901 39.0484 20.5555C39.0914 20.5091 39.1636 20.471 39.1487 20.3991C39.1324 20.3209 39.048 20.3242 38.9878 20.3146C38.8129 20.2767 38.6349 20.2543 38.4561 20.2479C38.2085 20.2183 37.9645 20.1627 37.7142 20.1579C37.5224 20.1463 37.3337 20.0975 37.1398 20.1132C37.0417 20.114 36.9437 20.1069 36.8468 20.0922C36.6842 20.0407 36.5172 20.0635 36.3515 20.0644C36.2528 20.0595 36.1539 20.06 36.0553 20.0657C35.7718 20.0817 35.487 20.0345 35.2047 20.0876C35.1361 20.1032 35.0659 20.1102 34.9955 20.1086C34.9137 20.11 34.8319 20.1124 34.7501 20.1111C34.6435 20.1001 34.5358 20.1103 34.4333 20.1413C34.1344 20.1683 33.8352 20.1922 33.5396 20.2466C33.1835 20.3219 32.818 20.3402 32.4641 20.4279C32.1391 20.5124 31.8052 20.5609 31.4866 20.6711C31.0628 20.7879 30.6442 20.9214 30.2271 21.0597C29.6195 21.3013 29.0028 21.5217 28.4245 21.8316C27.1143 22.4665 25.8958 23.2751 24.8018 24.2356C23.7879 25.1133 22.8792 26.1056 22.0939 27.1926C21.7011 27.7377 21.3417 28.3062 21.0179 28.8949C20.8118 29.2787 20.6129 29.666 20.4338 30.0631C20.3016 30.3696 20.1462 30.6662 20.0448 30.9857C19.915 31.3048 19.8078 31.6317 19.7054 31.9604C19.5829 32.2897 19.5118 32.6336 19.4157 32.9705C19.3743 33.1025 19.3484 33.2383 19.3163 33.3727C19.2752 33.5348 19.2504 33.6999 19.2207 33.8642C19.1701 34.1406 19.1238 34.4177 19.0841 34.6959C19.034 34.982 19 35.2708 18.9821 35.5607C18.9341 35.7522 18.9692 35.9507 18.9342 36.1432C18.8806 36.3835 18.9159 36.628 18.9002 36.8697C18.8932 37.0395 18.89 37.2098 18.8943 37.38C18.896 37.45 18.8627 37.5475 18.9361 37.5814C19.0203 37.6202 19.0809 37.5314 19.1416 37.4818C19.3486 37.3126 19.5507 37.1373 19.7532 36.9631C20.4347 36.3763 21.1245 35.7996 21.8085 35.2159C21.8677 35.1654 21.932 35.0341 22.0377 35.1695" fill="#8D98A8"/>
<path d="M37.0902 36.8746C36.2855 36.3965 35.4055 36.1181 34.5024 35.904C33.3164 35.622 32.0964 35.5101 30.8789 35.5716C30.0188 35.6148 29.1664 35.7343 28.3747 36.1121C28.2795 36.158 28.1878 36.2107 28.1003 36.2699C27.4594 36.6998 27.3621 37.2723 27.8256 37.8915C27.9214 38.0195 28.0282 38.1394 28.1573 38.2963C27.7415 38.2979 27.373 38.2185 27.0057 38.1457C26.0223 37.9507 25.0981 37.6094 24.3056 36.9767C23.9241 36.6722 23.5753 36.3305 23.3203 35.9062C23.4244 35.7368 23.5985 35.6573 23.7613 35.5633C24.0752 35.4317 24.3596 35.2436 24.67 35.1019C26.0553 34.4664 27.5382 34.07 29.0559 33.9295C29.6626 33.8727 30.2699 33.8151 30.8799 33.8377C32.6775 33.9081 34.4577 34.2176 36.1736 34.7579C36.6156 34.8955 37.0533 35.0472 37.5135 35.2028C37.5128 35.075 37.4391 34.9955 37.3899 34.9115C37.2047 34.5957 36.9922 34.2966 36.7549 34.0178C36.6688 33.9166 36.5482 33.8274 36.5507 33.6707C36.7934 33.7261 37.0364 33.7804 37.2786 33.8377C37.3416 33.8526 37.4196 33.8917 37.4613 33.8383C37.5166 33.7678 37.4334 33.7067 37.3976 33.6534C37.04 33.1207 36.595 32.6665 36.1173 32.2423C36.3703 32.0956 36.6306 32.2153 36.8772 32.2467C39.4069 32.5693 41.7117 33.4708 43.7222 35.048C46.3838 37.136 48.1039 39.8335 48.8287 43.1508C49.064 44.2582 49.1381 45.3938 49.0487 46.5224C48.9061 48.4821 48.2903 50.2901 47.1321 51.8963C47.0562 52.0015 46.953 52.0858 46.897 52.206C46.634 52.597 46.2489 52.8622 45.8928 53.1511C43.9694 54.7108 41.7271 55.5234 39.3106 55.9026C37.4308 56.2035 35.5179 56.2372 33.6286 56.0025C30.6547 55.6357 27.8121 54.5616 25.3388 52.87C24.7353 52.4604 24.1437 52.0333 23.6138 51.5281C23.6091 51.5239 23.6053 51.5187 23.6028 51.5129C23.6003 51.5071 23.5992 51.5007 23.5995 51.4944C23.5998 51.4881 23.6015 51.4819 23.6044 51.4763C23.6074 51.4708 23.6116 51.4659 23.6167 51.4622C23.7304 51.4173 23.8019 51.4992 23.8765 51.5556C25.1407 52.5054 26.5761 53.2027 28.1041 53.6093C28.616 53.7398 29.1345 53.8429 29.6573 53.918C29.7756 53.9613 29.9016 53.9411 30.0227 53.961C30.0475 53.9643 30.0721 53.9694 30.0962 53.9763C31.2835 54.1167 32.4632 54.0343 33.6337 53.8276C36.2071 53.3733 38.4927 52.2953 40.4505 50.5644C41.7847 49.3848 42.838 47.9916 43.3951 46.2726C43.9494 44.5621 43.8734 42.8816 43.091 41.2301C42.9305 41.9712 42.5418 42.5838 42.0556 43.1423C41.5669 43.6891 40.9942 44.1545 40.3592 44.5213C40.2851 44.5641 40.2031 44.6453 40.1178 44.58C40.0444 44.5236 40.0883 44.4258 40.1109 44.3513C40.2646 43.837 40.3723 43.3101 40.4328 42.7767C40.66 40.5305 39.7933 38.7829 38.0055 37.4569C37.7141 37.242 37.4082 37.0475 37.0902 36.8746Z" fill="#686F78"/>
<path d="M29.6694 53.9648C29.0101 53.8986 28.3592 53.7656 27.7267 53.568C26.5306 53.206 25.3935 52.6719 24.3512 51.9826C24.1014 51.8197 23.891 51.6014 23.6198 51.4695C23.4642 51.447 23.3992 51.2949 23.2744 51.2283C20.6466 48.8922 18.8518 46.0234 17.8192 42.672C17.3181 41.0437 17.0476 39.3532 17.0156 37.6498C17.0221 37.5216 17.0286 37.3937 17.0387 37.1942C17.166 37.4779 17.2656 37.703 17.3678 37.927C18.3134 40.0001 19.5235 41.8918 21.1903 43.4664C22.9633 45.1412 25.0233 46.257 27.4485 46.6513C30.2932 47.1138 32.9549 46.618 35.4021 45.0852C36.6224 44.3208 37.6241 43.3319 38.1996 41.9845C38.8974 40.3504 38.6347 38.8321 37.5719 37.4326C37.4788 37.31 37.3797 37.192 37.2834 37.0718C37.41 36.9637 37.4769 37.0886 37.5487 37.149C38.1802 37.6773 38.683 38.3426 39.0189 39.0944C39.346 39.8142 39.52 40.5941 39.5299 41.3846C39.5417 42.1924 39.3646 42.9918 39.0127 43.719C39.0894 43.7174 39.1635 43.6904 39.2233 43.6423C39.5612 43.4478 39.8805 43.2224 40.177 42.9691C40.2691 42.8893 40.3506 42.7686 40.5026 42.7868C40.4227 43.399 40.2901 44.0031 40.1064 44.5925C40.5001 44.3736 40.8759 44.124 41.2304 43.8459C41.5124 43.6259 41.7398 43.3496 42.0164 43.1257C42.1343 43.176 42.1342 43.2928 42.1614 43.3911C42.6118 45.016 42.2858 46.5334 41.4833 47.966C40.51 49.7037 39.0784 50.997 37.4087 52.0435C36.0627 52.8872 34.5819 53.4936 33.0307 53.836C32.056 54.0544 31.0524 54.1137 30.0588 54.0115L30.059 54.0117C29.9352 53.9446 29.794 54.0244 29.6694 53.9648Z" fill="#364253"/>
<path d="M54.2733 41.9042C54.1889 40.0449 53.7292 38.2218 52.9217 36.5449C52.3943 35.4508 51.7291 34.4287 50.9424 33.5035C50.2326 32.6631 49.4179 31.946 48.563 31.2659C48.6432 31.187 48.7427 31.2021 48.8388 31.2138C50.0342 31.3532 51.2091 31.6323 52.3396 32.0453C52.6217 32.1488 52.8945 32.2763 53.1548 32.4265C53.2483 32.4736 53.3387 32.5266 53.4254 32.5851C53.4479 32.5977 53.4602 32.6298 53.4934 32.6228C53.4827 32.6109 53.4757 32.5961 53.4731 32.5803C53.4706 32.5644 53.4727 32.5482 53.4792 32.5336C52.7091 31.53 51.7778 30.6931 50.8001 29.8979C49.6338 28.956 48.3637 28.1504 47.0145 27.4967C45.1416 26.5732 43.1274 25.9695 41.0553 25.7106C40.8709 25.6877 40.6811 25.7128 40.5016 25.6474C40.486 25.5243 40.5894 25.4833 40.6608 25.4237C41.8757 24.4112 42.8529 23.2106 43.5425 21.7829C43.7501 21.3506 43.9271 20.9043 44.0723 20.4472C44.1135 20.3185 44.1379 20.1756 44.2665 20.0928C46.4441 21.1397 48.3989 22.5974 50.0237 24.3856C52.1495 26.7228 53.6593 29.5529 54.4165 32.6202C55.1737 35.6874 55.1545 38.895 54.3606 41.953C54.3057 41.983 54.2937 41.936 54.2733 41.9042" fill="#8D98A8"/>
<path d="M46.8955 52.2051C46.8936 52.0137 47.0482 51.9062 47.1422 51.7721C48.0315 50.5022 48.5732 49.0959 48.8544 47.5759C49.0287 46.6339 49.0434 45.6835 48.9814 44.7405C48.8857 43.2862 48.5142 41.8883 47.9282 40.5482C47.5006 39.5656 46.9606 38.6359 46.3189 37.7776C45.6336 36.8717 44.8436 36.05 43.9653 35.3296C42.6098 34.213 41.0494 33.3715 39.3717 32.8523C38.4786 32.5641 37.5566 32.3744 36.6222 32.2866C36.4536 32.2715 36.287 32.2312 36.1158 32.2415C35.522 31.8037 34.919 31.3804 34.2422 31.0745C34.2437 31.0525 34.2452 31.0306 34.2468 31.0086C34.4905 31.0086 34.7342 31.0124 34.9777 31.008C38.3896 30.9468 41.5341 31.7832 44.2813 33.8611C47.1292 36.0154 48.9085 38.8613 49.5749 42.374C50.1434 45.3707 49.7025 48.2012 48.0419 50.7979C47.7152 51.3088 47.3568 51.8006 46.8955 52.2051Z" fill="#364253"/>
<path d="M44.2669 20.0928C43.9254 21.1379 43.4962 22.1409 42.8826 23.0601C42.2615 23.9848 41.5067 24.8123 40.6428 25.5156C40.5932 25.5564 40.5487 25.6034 40.5019 25.6476C40.2037 25.7993 39.9585 26.0281 39.6822 26.212C38.6715 26.8761 37.5944 27.433 36.4683 27.8738C36.4408 27.8828 36.4128 27.8897 36.3843 27.8946C36.3351 27.8216 36.3932 27.795 36.4235 27.7662C37.0626 27.1581 37.4586 26.405 37.7225 25.5758C37.7338 25.5219 37.7587 25.4718 37.7948 25.4302C37.8308 25.3887 37.8769 25.357 37.9287 25.3382C39.9141 24.5522 41.4986 23.2461 42.796 21.5703C42.914 21.4179 43.0295 21.2636 43.1751 21.0722C42.7732 21.0638 42.4657 21.2662 42.1259 21.3205C42.0619 21.3242 41.9785 21.3777 41.9634 21.2568C43.1943 19.8167 44.1205 18.1419 44.6859 16.3338C44.7219 16.2177 44.6858 16.0584 44.8472 16C44.8527 16.0025 44.8572 16.0066 44.8601 16.0119C44.8631 16.0171 44.8644 16.0231 44.8637 16.029C44.8617 16.0405 44.8588 16.0463 44.8552 16.0463C44.8386 17.3346 44.6559 18.6153 44.3116 19.8567C44.2899 19.9335 44.2815 20.0141 44.2669 20.0928" fill="#364253"/>
<path d="M36.5511 33.6699C36.9546 34.1138 37.3054 34.603 37.5964 35.1276C37.624 35.1788 37.6963 35.2364 37.632 35.297C37.5834 35.3429 37.5267 35.2866 37.4755 35.2675C36.1557 34.7721 34.7927 34.4007 33.404 34.1583C32.7044 34.038 31.9944 33.9849 31.2838 33.9338C30.6452 33.8943 30.0046 33.9035 29.3675 33.9613C27.9086 34.0782 26.4887 34.3903 25.1385 34.974C24.7221 35.154 24.2964 35.3157 23.9096 35.559C23.8655 35.5868 23.8124 35.6326 23.7617 35.5625C24.9349 34.7378 26.2366 34.1131 27.6139 33.7136C29.511 33.1475 31.4491 33.0087 33.4155 33.1634C34.4172 33.2439 35.4119 33.395 36.3924 33.6153C36.4463 33.6304 36.4993 33.6486 36.5511 33.6699Z" fill="#364253"/>
<path d="M36.0615 19.9936C36.1591 19.9935 36.2567 19.9933 36.3543 19.9932C36.5119 20.0612 36.6847 19.975 36.8425 20.0412C36.9399 20.0415 37.0373 20.0417 37.1347 20.0419C37.1592 20.1835 37.043 20.2429 36.9623 20.311C35.61 21.4533 34.2678 22.6075 32.9145 23.7487C32.4676 24.1255 32.0245 24.5071 31.578 24.8845C31.5093 24.9287 31.4558 24.993 31.4249 25.0687C30.8401 25.2876 30.2953 25.5634 29.8661 26.0406C29.6622 26.2672 29.529 26.529 29.3813 26.7865C28.9799 27.0488 28.6422 27.3893 28.2774 27.6959C27.3161 28.5038 26.3672 29.3263 25.4035 30.1314C25.3224 30.1991 25.2686 30.2942 25.1743 30.3468C25.0087 30.0995 25.0446 29.829 25.0837 29.5581C25.2049 29.3591 25.3961 29.2302 25.5682 29.0842C26.5028 28.2917 27.4364 27.498 28.3689 26.7031C29.2793 25.9319 30.1883 25.1592 31.096 24.3849C32.142 23.4977 33.1869 22.6091 34.2306 21.7194C34.8114 21.2246 35.3889 20.726 35.9781 20.2414C36.0675 20.1679 36.1301 20.1092 36.0615 19.9936" fill="#8D98A8"/>
<path d="M53.1899 32.4908C52.043 31.9338 50.8296 31.5941 49.5757 31.3905C49.2405 31.3361 48.9057 31.2693 48.5638 31.2664C48.1263 30.99 47.6976 30.6986 47.2498 30.4401C45.8003 29.5976 44.208 29.0296 42.5526 28.7645C42.5157 28.7537 42.4798 28.7397 42.4453 28.7228C42.9435 28.6318 44.6376 28.8859 45.8111 29.2088C46.9038 29.5077 47.9613 29.9231 48.9654 30.4479C48.8597 30.1321 48.6671 29.9188 48.5495 29.6662C48.5381 29.5986 48.4437 29.5397 48.5068 29.4683C48.5743 29.3918 48.6414 29.4734 48.7009 29.5004C48.87 29.5773 49.0318 29.6699 49.2018 29.7458C50.6231 30.4802 51.9625 31.3633 53.1974 32.3804C53.2659 32.4719 53.2659 32.4719 53.1899 32.4908Z" fill="#364253"/>
<path d="M36.0618 19.9937C36.0922 20.0648 36.1869 20.0128 36.2321 20.0927C35.9597 20.3286 35.6876 20.5681 35.4114 20.8028C34.9123 21.2271 34.4119 21.6498 33.9102 22.0709C33.1995 22.6707 32.489 23.2707 31.7785 23.8709C31.2852 24.29 30.7993 24.7178 30.3061 25.137C29.7084 25.645 29.1052 26.1464 28.5069 26.6536C28.0316 27.0565 27.5614 27.4652 27.0868 27.8688C26.5879 28.2931 26.0876 28.7159 25.5859 29.1371C25.419 29.278 25.2517 29.4184 25.084 29.5582C25.1316 29.3466 25.1793 29.135 25.227 28.9233C25.1458 28.7157 25.3149 28.6221 25.4303 28.526C25.8859 28.1463 26.3338 27.7577 26.7858 27.3741C27.8386 26.4807 28.8906 25.5864 29.9418 24.6913C30.8453 23.9233 31.7489 23.1556 32.6528 22.3882C33.4932 21.6716 34.3399 20.9622 35.1723 20.2361C35.2361 20.1804 35.3577 20.1145 35.1821 20.041C35.4706 19.9361 35.7691 20.0192 36.0618 19.9937Z" fill="#8D98A8"/>
<path d="M35.183 20.0407C35.2512 20.0527 35.326 20.0166 35.3976 20.0722C35.2251 20.3266 34.9716 20.4925 34.7488 20.6868C34.1097 21.2439 33.461 21.7902 32.8134 22.3376C32.2215 22.8379 31.6234 23.3311 31.0327 23.8328C30.4354 24.3401 29.8464 24.8571 29.2492 25.3644C28.6584 25.8662 28.0593 26.3581 27.4686 26.8599C26.8713 27.3672 26.2793 27.8805 25.6862 28.3927C25.5079 28.5468 25.2722 28.6527 25.2279 28.923C24.9129 28.9588 24.7464 29.2246 24.5158 29.389C24.1517 29.6483 23.8751 30.0051 23.5393 30.2969C23.2017 30.5366 22.9036 30.824 22.5888 31.0907C21.6528 31.884 20.7214 32.6825 19.7819 33.4716C19.6513 33.5812 19.5365 33.7099 19.3902 33.8008C19.3245 33.8417 19.2662 33.9173 19.1744 33.8536C19.1691 33.6854 19.2027 33.5183 19.2726 33.3652C19.7404 33.0665 20.1293 32.6709 20.5517 32.317C21.7157 31.3419 22.8693 30.3545 24.0255 29.3703C25.1754 28.3912 26.3249 27.4118 27.474 26.4319C28.6004 25.4754 29.727 24.5193 30.8541 23.5634C32.0046 22.5854 33.1605 21.6135 34.302 20.6249C34.529 20.4283 34.7682 20.2458 34.9888 20.0416C35.0535 20.0413 35.1183 20.041 35.183 20.0407Z" fill="#8D98A8"/>
<path d="M37.721 20.091C37.9857 20.0874 38.2417 20.1554 38.5019 20.1885C38.5726 20.344 38.439 20.4048 38.3565 20.477C38.0312 20.7613 37.691 21.0284 37.3742 21.3227C37.3401 21.2776 37.3037 21.234 37.2722 21.187C37.2001 21.0793 37.1493 21.1082 37.1027 21.2082C36.7186 22.032 36.0582 22.6045 35.3391 23.1151C34.5301 23.6838 33.6596 24.1594 32.7441 24.5331C32.695 24.4394 32.6906 24.4351 32.7748 24.3482C32.9501 24.1671 33.1507 24.0138 33.3423 23.8509C34.7278 22.6731 36.1176 21.5002 37.4947 20.3125C37.5749 20.2433 37.6438 20.163 37.721 20.091Z" fill="#8D98A8"/>
<path d="M37.7207 20.0905C37.7165 20.1305 37.7041 20.1692 37.6845 20.2043C37.6648 20.2394 37.6383 20.2702 37.6064 20.2947C36.7129 21.0509 35.8208 21.8086 34.93 22.5681C34.2479 23.1492 33.5676 23.7325 32.889 24.3179C32.8278 24.3711 32.7131 24.4088 32.7438 24.5326C32.3149 24.7366 31.8746 24.9156 31.425 25.0687C31.2735 25.0273 31.3988 24.9733 31.4272 24.9481C31.6932 24.7126 31.9618 24.4802 32.2331 24.2507C32.731 23.8274 33.2297 23.4051 33.7293 22.9838C34.2223 22.5671 34.7173 22.1529 35.2088 21.7346C35.7006 21.316 36.1923 20.8971 36.6774 20.471C36.8341 20.3334 37.0262 20.2315 37.1347 20.042C37.3337 20.0139 37.5248 20.0812 37.7207 20.0905Z" fill="#8D98A8"/>
<path d="M34.2595 25.9542C34.7751 25.6993 35.3135 25.4852 35.7632 25.1125C35.8567 25.1089 35.8464 25.1625 35.8241 25.2228C35.409 26.9423 34.1045 28.0713 32.3414 28.2361C32.0018 28.2678 31.6624 28.3067 31.3203 28.2743C31.3642 28.1488 31.4836 28.1595 31.5803 28.1331C31.9657 28.04 32.3401 27.9063 32.6973 27.7341C33.3625 27.3905 33.8494 26.8834 34.1265 26.1823C34.1512 26.0964 34.1969 26.018 34.2595 25.9542Z" fill="#364253"/>
<path d="M34.2596 25.9541C34.0475 26.7739 33.5248 27.3411 32.8029 27.747C32.339 28.0078 31.8256 28.1286 31.3207 28.2743C31.1969 27.91 31.3312 27.6027 31.5498 27.3262C31.8061 27.002 32.1553 26.7998 32.5264 26.6303C33.0922 26.3753 33.6707 26.1496 34.2596 25.9541" fill="#8D98A8"/>
<path d="M19.173 33.8536C19.4623 33.7464 19.6487 33.5014 19.8762 33.3147C20.611 32.7119 21.3327 32.093 22.0568 31.4773C22.4375 31.1535 22.8127 30.8234 23.1903 30.4961C23.2932 30.4069 23.3882 30.3045 23.5378 30.2969C23.1459 30.7859 22.7741 31.2883 22.4961 31.8536C21.7481 32.4874 21.0011 33.1224 20.2551 33.7587C19.9102 34.0537 19.5581 34.3403 19.2185 34.6416C19.1663 34.6879 19.1076 34.7462 19.0273 34.6833C19.0424 34.4019 19.0913 34.1233 19.173 33.8536Z" fill="#8D98A8"/>
<path d="M22.0374 35.1693C21.8069 35.1869 21.7028 35.3934 21.5503 35.5164C20.9092 36.0339 20.2845 36.5718 19.6605 37.1101C19.4524 37.2897 19.2505 37.4759 19.0302 37.6412C18.8848 37.7504 18.83 37.7083 18.8321 37.5382C18.8346 37.3352 18.8327 37.132 18.8327 36.9289C19.0584 36.6853 19.328 36.4915 19.5797 36.278C20.3071 35.6612 21.0267 35.035 21.7632 34.429C21.8266 34.3768 21.8797 34.2817 21.9887 34.3434C22.005 34.6186 22.0212 34.8939 22.0374 35.1693Z" fill="#8D98A8"/>
<path d="M25.1758 30.3472C25.18 30.3066 25.1934 30.2675 25.2149 30.2328C25.2365 30.1981 25.2656 30.1687 25.3001 30.147C25.8858 29.6524 26.4743 29.1611 27.0592 28.6657C27.5398 28.2588 28.0184 27.8496 28.4951 27.4381C28.7463 27.2224 28.9956 27.0045 29.2449 26.7867C29.2926 26.7451 29.3368 26.7141 29.3828 26.7869C29.329 27.0089 29.2646 27.2289 29.2711 27.4609C29.0085 27.7491 28.6926 27.9769 28.398 28.2287C27.488 29.0064 26.579 29.7855 25.6627 30.5558C25.6271 30.5889 25.5947 30.6254 25.5662 30.6647C25.4794 30.6496 25.3979 30.6124 25.3296 30.5568C25.2612 30.5013 25.2083 30.4291 25.1758 30.3472Z" fill="#8D98A8"/>
<path d="M19.028 34.6842C19.2383 34.6195 19.3614 34.4362 19.5194 34.3055C20.3765 33.5968 21.2204 32.8721 22.0689 32.153C22.2021 32.0401 22.2961 31.8708 22.4967 31.8545C22.3416 32.2374 22.2106 32.6297 22.1046 33.0291C21.9524 33.0136 21.8747 33.1358 21.7813 33.216C20.8977 33.9758 20.0058 34.7257 19.1181 35.4806C19.0647 35.526 19.0175 35.5921 18.9303 35.5627C18.9178 35.2666 18.9507 34.9703 19.028 34.6842Z" fill="#8D98A8"/>
<path d="M25.5653 30.6647C25.5048 30.5555 25.608 30.5199 25.6613 30.4744C26.4076 29.8359 27.1556 29.1995 27.9054 28.5651C28.3291 28.2058 28.7541 27.8481 29.1805 27.4919C29.2084 27.4764 29.2388 27.4659 29.2703 27.4609C29.2704 27.6597 29.3006 27.8573 29.3599 28.047C29.1045 28.3436 28.7828 28.5655 28.489 28.8188C27.8319 29.3852 27.1714 29.9476 26.5073 30.5059C26.4582 30.5357 26.4224 30.5832 26.4072 30.6386C26.1295 30.741 25.8499 30.7824 25.5653 30.6647Z" fill="#8D98A8"/>
<path d="M21.9898 34.3433C21.7157 34.5005 21.4968 34.7285 21.2559 34.927C20.6211 35.45 19.9956 35.9844 19.3725 36.5213C19.2008 36.6692 19.0452 36.8351 18.8336 36.9289C18.8596 36.6692 18.7795 36.403 18.8822 36.1481C19.8442 35.3264 20.8085 34.5074 21.7751 33.6911C21.8415 33.6351 21.9093 33.5669 22.0121 33.6106C22.0047 33.8548 21.9972 34.0991 21.9898 34.3433Z" fill="#8D98A8"/>
<path d="M22.0119 33.6101C21.7026 33.7764 21.464 34.0336 21.197 34.2531C20.5674 34.7706 19.9513 35.3048 19.3277 35.8296C19.188 35.9471 19.0905 36.126 18.882 36.1476C18.9068 35.9531 18.8297 35.7501 18.9308 35.562C19.5394 35.043 20.1481 34.524 20.7568 34.0051C21.1694 33.6547 21.5856 33.3086 21.9977 32.9576C22.1294 32.8455 22.0933 32.9686 22.1052 33.0283L22.0119 33.6101Z" fill="#8D98A8"/>
<path d="M26.4069 30.6385C26.3171 30.5748 26.3797 30.5252 26.4272 30.4854C27.0012 30.0037 27.5782 29.5256 28.1515 29.0431C28.5093 28.742 28.8624 28.4355 29.2168 28.1303C29.2599 28.0932 29.297 28.0492 29.3596 28.0469L29.5061 28.3393C29.3937 28.5126 29.2131 28.6209 29.0865 28.7806C28.3817 29.5589 27.5927 30.2219 26.5946 30.5972C26.5331 30.6156 26.4704 30.6294 26.4069 30.6385Z" fill="#8D98A8"/>
<path d="M37.375 21.3228C37.463 21.046 37.7505 20.9669 37.9203 20.7718C38.1013 20.5639 38.3973 20.4713 38.5027 20.1885C38.7148 20.1874 38.9178 20.2443 39.124 20.2829C39.3023 20.3163 39.3099 20.3935 39.1869 20.5034C38.9213 20.7405 38.6537 20.9754 38.3839 21.2079C38.1327 21.4239 37.8775 21.6351 37.624 21.8484L37.375 21.3228Z" fill="#8D98A8"/>
<path d="M25.3281 32.4511C25.3711 32.5592 25.2416 32.6136 25.2567 32.713C25.1889 32.4164 25.028 32.301 24.7303 32.3603C24.4125 32.4287 24.1245 32.5963 23.908 32.8388C23.8471 32.9031 23.7803 32.9618 23.7163 33.0231C23.6626 32.956 23.7174 32.9019 23.7375 32.8435C23.87 32.4203 24.1536 32.1185 24.5136 31.879C24.5939 31.8235 24.6834 31.7826 24.778 31.7584C25.196 31.6585 25.4249 31.8629 25.3674 32.2867C25.363 32.3432 25.3498 32.3987 25.3281 32.4511Z" fill="#428AC9"/>
<path d="M25.3289 32.4504C25.3305 32.3859 25.3326 32.3214 25.3336 32.2568C25.3407 31.8312 25.0993 31.6692 24.7041 31.85C24.2484 32.0585 23.9612 32.4303 23.7609 32.8777C23.715 32.8862 23.6909 32.8731 23.7053 32.8218C23.849 32.2904 24.1261 31.8506 24.5875 31.5377C24.7022 31.4616 24.832 31.411 24.968 31.3895C25.0717 31.3665 25.1802 31.3851 25.2704 31.4411C25.3606 31.4971 25.4254 31.5862 25.4508 31.6894C25.4835 31.8178 25.4896 31.9516 25.4687 32.0825C25.4477 32.2134 25.4002 32.3386 25.3289 32.4504Z" fill="#364253"/>
<path d="M29.0862 28.7802C29.0043 28.714 29.0762 28.6894 29.1198 28.659C29.2575 28.5631 29.3329 28.392 29.5058 28.3389C29.7273 28.6886 30.0808 28.8429 30.449 28.9743C30.5231 29.0008 30.6007 29.0178 30.7214 29.0517C30.1538 29.1993 29.665 29.1424 29.2149 28.8349C29.1803 28.8012 29.1344 28.7817 29.0862 28.7802Z" fill="#8D98A8"/>
<path d="M49.2017 29.7459C49.0224 29.7246 48.8863 29.6024 48.7239 29.5421C48.6611 29.5188 48.601 29.4352 48.534 29.4898C48.4783 29.5353 48.5691 29.6035 48.5494 29.6663C48.4499 29.5793 48.4153 29.4543 48.3633 29.3271C48.6538 29.4477 48.9433 29.5644 49.2017 29.7459" fill="#63657D"/>
<path d="M53.1895 32.4903C53.2426 32.4569 53.193 32.4165 53.197 32.3799C53.2912 32.431 53.3854 32.4822 53.4796 32.5335C53.5235 32.5897 53.5673 32.6459 53.632 32.7287C53.4464 32.6794 53.3212 32.5784 53.1895 32.4903Z" fill="#263154"/>
<path d="M41.9766 28.6404C42.1069 28.6226 42.2395 28.6326 42.3657 28.67C42.3071 28.71 42.2367 28.7289 42.1659 28.7235C42.0952 28.7182 42.0284 28.6889 41.9766 28.6404Z" fill="#A09AA9"/>
<path d="M23.2734 51.2285C23.4255 51.2561 23.4944 51.4027 23.6188 51.4698C23.6168 51.4891 23.6148 51.5083 23.6128 51.5276C23.4767 51.4576 23.36 51.3548 23.2734 51.2285Z" fill="#424A7F"/>
<path d="M54.2734 41.9043C54.3025 41.9205 54.3316 41.9367 54.3608 41.953C54.3733 42.0511 54.3317 42.1318 54.2734 42.2519V41.9043Z" fill="#8CB7DE"/>
<path d="M41.9634 21.2568C41.9966 21.3315 42.071 21.301 42.1259 21.3205C42.0413 21.3531 41.9567 21.3858 41.8649 21.4212C41.8446 21.3178 41.9151 21.2947 41.9634 21.2568Z" fill="#5A5D76"/>
<path d="M23.7048 32.8223C23.7234 32.8409 23.7419 32.8595 23.7604 32.8782C23.7458 32.9265 23.7312 32.9748 23.7166 33.023C23.6944 33.0515 23.6721 33.08 23.6113 33.158C23.6432 33.0005 23.6451 32.9043 23.7048 32.8223Z" fill="#4F668A"/>
<path d="M35.8226 25.2226C35.8086 25.1824 35.8143 25.1313 35.7617 25.1124C35.7773 25.0749 35.8192 25.0222 35.8388 25.0411C35.8976 25.0977 35.873 25.1656 35.8226 25.2226" fill="#555A73"/>
<path d="M19.3691 32.9745C19.4316 32.6227 19.5074 32.2746 19.6615 31.9488C20.236 31.5485 20.741 31.0634 21.2749 30.6142C22.2012 29.8349 23.1237 29.051 24.0423 28.2626C24.8823 27.5449 25.7239 26.8289 26.5669 26.1148C27.4779 25.3426 28.3879 24.5692 29.2967 23.7943C30.1261 23.0894 30.9574 22.3866 31.7832 21.6773C32.3625 21.1798 32.9542 20.697 33.5238 20.1883C33.8268 20.1139 34.1385 20.0807 34.4504 20.0897C34.4641 20.0783 34.4809 20.0711 34.4986 20.069C34.5163 20.0669 34.5343 20.0699 34.5504 20.0778C34.6197 20.1956 34.5314 20.2627 34.4602 20.3229C33.6731 20.9887 32.888 21.657 32.1051 22.3277C31.2709 23.0382 30.4364 23.7484 29.6016 24.4583C28.8294 25.1166 28.0562 25.7738 27.2819 26.4296C26.3403 27.2269 25.3998 28.0255 24.4604 28.8254C23.2903 29.8177 22.1256 30.8163 20.953 31.8056C20.5001 32.1876 20.0543 32.5783 19.5948 32.9525C19.5376 32.999 19.4601 33.1458 19.3691 32.9745" fill="#8D98A8"/>
<path d="M33.5245 20.1885C33.4424 20.4628 33.1776 20.5655 32.9896 20.7327C32.3732 21.2807 31.7363 21.8058 31.1057 22.3379C30.4011 22.9326 29.6924 23.5225 28.9901 24.12C28.3799 24.6391 27.7785 25.1686 27.1687 25.6883C26.5776 26.1918 25.9789 26.6864 25.3871 27.1888C24.7948 27.6915 24.2083 28.201 23.6164 28.7042C23.0248 29.207 22.4284 29.7043 21.8364 30.2068C21.3491 30.6205 20.8657 31.0389 20.3792 31.4536C20.1823 31.6216 19.9816 31.7852 19.7832 31.9514C19.7407 31.9871 19.7015 32.0046 19.6621 31.949C19.7325 31.61 19.8474 31.2818 20.0039 30.973C20.4531 30.6903 20.8285 30.3156 21.2313 29.9762C22.1567 29.1962 23.0789 28.4123 23.998 27.6247C24.9488 26.8116 25.9013 26.0006 26.8556 25.1917C27.6415 24.5231 28.428 23.8552 29.215 23.1879C30.2388 22.3225 31.2536 21.4466 32.2817 20.5862C32.3569 20.5368 32.4155 20.4659 32.4499 20.3827C32.7955 20.2483 33.167 20.2573 33.5245 20.1885Z" fill="#8D98A8"/>
<path d="M32.4499 20.3828C32.6017 20.4227 32.4777 20.4776 32.4489 20.5033C32.1718 20.7516 31.893 20.9982 31.6096 21.2392C31.1171 21.6578 30.6205 22.0715 30.1263 22.4884C29.4037 23.098 28.6815 23.7082 27.96 24.3191C27.3688 24.8219 26.7836 25.3318 26.1927 25.8351C25.5838 26.3537 24.9697 26.8666 24.3604 27.385C23.7693 27.8879 23.183 28.3965 22.5918 28.8992C22.0008 29.4016 21.4064 29.9001 20.8134 30.4001C20.5971 30.5824 20.3816 30.7656 20.1628 30.9448C20.1197 30.9801 20.0733 31.0594 20.0039 30.9731C20.0709 30.6377 20.2459 30.3479 20.3936 30.0466C21.1962 29.3604 22.0027 28.6788 22.8055 27.993C23.6332 27.2861 24.462 26.5806 25.2921 25.8765C26.084 25.2028 26.8764 24.5296 27.6694 23.8571C28.5047 23.1469 29.3402 22.4369 30.1759 21.727C30.6091 21.3601 31.0281 20.9762 31.4741 20.6243C31.7837 20.4803 32.1189 20.4398 32.4499 20.3828Z" fill="#8D98A8"/>
<path d="M31.4731 20.624C31.1632 21.0268 30.7432 21.3106 30.3669 21.6408C29.8747 22.0728 29.3697 22.4905 28.8697 22.9135C28.382 23.3261 27.8926 23.7367 27.4057 24.1503C26.9187 24.5641 26.4351 24.982 25.9478 25.3956C25.4547 25.8143 24.9579 26.2286 24.4649 26.6475C23.9839 27.056 23.507 27.4693 23.0262 27.878C22.4163 28.3966 21.8053 28.9139 21.1931 29.4298C20.977 29.6126 20.7599 29.7941 20.5434 29.9765C20.5042 30.0186 20.45 30.0436 20.3926 30.0463C20.548 29.6371 20.7446 29.2447 20.9792 28.8752C22.0934 27.9695 23.1766 27.0268 24.2697 26.0961C25.5359 25.0181 26.8078 23.9466 28.0666 22.8597C28.7786 22.2449 29.518 21.6619 30.2041 21.0171C30.6144 20.8482 31.0392 20.7166 31.4731 20.624Z" fill="#8D98A8"/>
<path d="M30.2054 21.0176C30.2544 21.1045 30.1668 21.1309 30.1285 21.1645C29.5873 21.6385 29.0439 22.11 28.498 22.5787C28.0196 22.989 27.537 23.3944 27.0559 23.8017C26.4578 24.3082 25.8596 24.8145 25.2613 25.3208C24.7747 25.7343 24.2912 26.1514 23.8044 26.5648C23.1946 27.0825 22.584 27.5991 21.9724 28.1147C21.7195 28.329 21.4685 28.5456 21.2173 28.7618C21.1527 28.8242 21.0696 28.8641 20.9805 28.8756C21.282 28.2726 21.642 27.7006 22.0553 27.1679C22.433 26.8896 22.7779 26.5714 23.1353 26.2687C24.0633 25.4827 24.9898 24.695 25.9148 23.9057C26.6307 23.2956 27.3463 22.6852 28.0614 22.0744C28.1716 21.9798 28.3105 21.9195 28.3951 21.795C28.9623 21.4516 29.5861 21.2399 30.2054 21.0176Z" fill="#8D98A8"/>
<path d="M40.5023 42.7869C40.0113 43.1879 39.5295 43.603 38.8731 43.881C39.0598 43.5022 39.2046 43.1041 39.3048 42.6939C39.6897 41.0014 39.3328 39.4621 38.3366 38.0579C38.0907 37.7115 37.7601 37.4439 37.4674 37.1412C37.4202 37.0925 37.3683 37.0312 37.2831 37.072C37.1955 37.0287 37.1523 36.9419 37.0898 36.874C37.1323 36.82 37.1761 36.85 37.2178 36.8737C38.3974 37.5426 39.3806 38.4108 39.9815 39.6514C40.277 40.2643 40.4574 40.9263 40.5136 41.6043C40.5514 41.9978 40.5476 42.3942 40.5023 42.7869Z" fill="#364253"/>
<path d="M19.3689 32.9748C19.5637 33.0452 19.6322 32.8507 19.7289 32.7707C20.719 31.9513 21.6952 31.1152 22.6726 30.2807C23.5948 29.4932 24.5109 28.6985 25.435 27.9132C26.4636 27.0393 27.5008 26.1756 28.5293 25.3017C29.4534 24.5164 30.3699 23.7223 31.2915 22.9341C32.2868 22.083 33.2833 21.2333 34.2809 20.385C34.3831 20.298 34.5298 20.2532 34.5483 20.0908C34.604 20.0374 34.6872 20.0959 34.7432 20.0431C34.8247 20.0427 34.9063 20.0423 34.9879 20.042C34.913 20.301 34.6614 20.3924 34.4862 20.55C33.9813 21.0041 33.4552 21.4346 32.9363 21.8732C32.3434 22.3743 31.7482 22.8728 31.156 23.3748C30.6747 23.7829 30.1978 24.1963 29.7165 24.6046C29.0072 25.2061 28.2947 25.8039 27.5856 26.4057C27.1044 26.814 26.6282 27.2281 26.1473 27.6369C25.5373 28.1555 24.9239 28.67 24.3139 29.1886C23.8331 29.5975 23.3566 30.0113 22.8758 30.4202C22.383 30.8393 21.886 31.2535 21.3934 31.6729C20.9006 32.0925 20.4119 32.5171 19.9194 32.9371C19.7471 33.0839 19.5687 33.2234 19.3935 33.3667C19.3518 33.4007 19.3119 33.4218 19.2717 33.3657C19.2683 33.229 19.3019 33.0939 19.3689 32.9748Z" fill="#8D98A8"/>
<path d="M28.3944 21.7949C28.3534 22.0259 28.1281 22.0866 27.985 22.2154C27.487 22.6637 26.9682 23.089 26.4563 23.5219C25.8581 24.0276 25.2576 24.5307 24.6602 25.0375C24.1796 25.4453 23.7022 25.8567 23.2237 26.2668C22.874 26.5666 22.5246 26.8667 22.1756 27.1671C22.1346 27.2024 22.0954 27.2238 22.0547 27.1678C22.311 26.7753 22.5969 26.4029 22.9099 26.0539C24.0587 24.7204 25.3634 23.5619 26.8621 22.6314C27.3568 22.3244 27.8469 22.0064 28.3944 21.7949Z" fill="#8D98A8"/>
<path d="M36.8437 20.041C36.6815 20.0196 36.5101 20.0913 36.3555 19.993C36.5177 20.0139 36.6891 19.9424 36.8437 20.041Z" fill="#5591CD"/>
<path d="M34.7441 20.0428C34.6923 20.1125 34.6163 20.083 34.5493 20.0905C34.5166 20.0903 34.4839 20.09 34.4512 20.0897C34.5377 20.0046 34.646 20.0554 34.7441 20.0428Z" fill="#689AD1"/>
<path d="M30.0586 54.0116C31.65 54.0826 33.2394 53.8321 34.7319 53.2753C36.1842 52.7508 37.5391 51.9883 38.7412 51.019C39.9183 50.0639 40.9318 48.9671 41.6084 47.5958C41.9739 46.862 42.1995 46.0666 42.2734 45.2502C42.3401 44.5141 42.2162 43.82 42.0163 43.1259C42.0383 42.9561 42.1932 42.8786 42.284 42.7594C42.6338 42.2998 42.8923 41.8038 42.9994 41.2328C43.0208 41.1568 43.0473 41.0823 43.0785 41.0098C43.2988 41.4498 43.4736 41.9111 43.6003 42.3866C43.7712 43.0576 43.8679 43.7403 43.8168 44.4299C43.7283 45.6288 43.3712 46.7925 42.772 47.8348C42.176 48.8857 41.407 49.7897 40.5199 50.5925C39.7413 51.2908 38.8811 51.8925 37.9582 52.3846C36.846 52.9883 35.6586 53.4415 34.427 53.7322C33.6564 53.9132 32.8715 54.0264 32.0812 54.0704C31.7005 54.0917 31.3191 54.1248 30.9407 54.1005C30.6472 54.0816 30.3461 54.1014 30.0586 54.0116Z" fill="#364253"/>
</svg>
