<svg width="128" height="128" viewBox="0 0 128 128" fill="none" xmlns="http://www.w3.org/2000/svg">
<path d="M64 126.952C99.3462 126.952 128 98.7569 128 63.9762C128 29.1954 99.3462 1 64 1C28.6538 1 0 29.1954 0 63.9762C0 98.7569 28.6538 126.952 64 126.952Z" fill="#364253"/>
<path d="M78.2248 69.6335L115.111 63.5557L78.2248 57.4779L100.011 27.1003L69.6335 48.8865L63.5557 12L57.4778 48.8865L27.1003 27.1003L48.8865 57.4779L12 63.5557L48.8865 69.6335L27.1003 100.011L57.4778 78.2248L63.5557 115.111L69.6335 78.2248L100.011 100.011L78.2248 69.6335Z" fill="white"/>
</svg>
