<svg width="128" height="128" viewBox="0 0 128 128" fill="none" xmlns="http://www.w3.org/2000/svg">
<path d="M64 128C99.3462 128 128 99.3462 128 64C128 28.6538 99.3462 0 64 0C28.6538 0 0 28.6538 0 64C0 99.3462 28.6538 128 64 128Z" fill="#8D98A8"/>
<path d="M64 122.527C96.3236 122.527 122.527 96.3237 122.527 64.0001C122.527 31.6765 96.3236 5.47302 64 5.47302C31.6764 5.47302 5.4729 31.6765 5.4729 64.0001C5.4729 96.3237 31.6764 122.527 64 122.527Z" fill="#364253"/>
<path d="M95.0146 32.5669C95.0146 32.5669 78.1113 29.4382 60.3119 50.8928L51.5348 52.8439L44.8916 60.6464L53.7913 63.5118C53.7913 63.5118 53.7309 67.1086 55.0713 68.2057L51.8402 71.9232L55.0713 74.9093L58.4852 71.4953C58.4852 71.4953 59.7634 72.4096 64.0002 71.9836L66.8966 81.1264L74.5766 74.2382L76.4655 65.7061C76.4655 65.7061 95.9087 50.7721 95.0146 32.5669Z" fill="white"/>
<path d="M78.7968 49.5507C77.8697 48.3128 76.3922 47.5101 74.7264 47.5101C71.9213 47.5101 69.6484 49.7848 69.6484 52.5898C69.6484 53.548 69.9136 54.444 70.3744 55.2083C69.7398 54.3599 69.365 53.3084 69.365 52.1692C69.365 49.3642 71.6397 47.0913 74.4448 47.0913C76.2916 47.0913 77.9081 48.0769 78.7968 49.5507Z" fill="#8D98A8"/>
<path d="M79.5245 52.1692C79.5245 53.7052 78.8425 55.0821 77.7636 56.0129C78.4896 55.1827 78.9284 54.0984 78.9284 52.9098C78.9284 51.8547 78.5828 50.8819 77.9959 50.0956C77.994 50.0938 77.9922 50.092 77.9904 50.0883C77.1309 48.9381 75.7577 48.1921 74.2125 48.1921C72.2999 48.1921 70.6523 49.3313 69.9136 50.9697C70.5883 48.9582 72.4882 47.51 74.7264 47.51C76.3922 47.51 77.8697 48.3128 78.7968 49.5507C78.7986 49.5544 78.8004 49.558 78.8023 49.5598C79.2612 50.3224 79.5245 51.2147 79.5245 52.1692Z" fill="#A7B5C6"/>
<path d="M78.9284 52.9097C78.9284 54.0983 78.4896 55.1826 77.7636 56.0128C76.8731 56.7826 75.7138 57.2489 74.4448 57.2489C72.7808 57.2489 71.3033 56.448 70.3762 55.2119C70.3762 55.2119 70.3756 55.2107 70.3744 55.2082C69.9136 54.4439 69.6484 53.5479 69.6484 52.5897C69.6484 52.0229 69.7417 51.478 69.9136 50.9696C70.6523 49.3312 72.2999 48.192 74.2126 48.192C75.7577 48.192 77.131 48.9381 77.9904 50.0882C77.9922 50.0919 77.994 50.0937 77.9959 50.0956C78.5828 50.8818 78.9284 51.8546 78.9284 52.9097Z" fill="#364253"/>
<path d="M42.1922 75.8921L43.0065 76.7629C43.2413 77.014 43.2281 77.4094 42.977 77.6442L29.7573 90.0063L28.0925 88.226L41.3121 75.8639C41.5632 75.6291 41.9587 75.6423 42.1935 75.8934L42.1922 75.8921Z" fill="white"/>
<path d="M50.7398 75.0201L51.3181 75.6384C51.6178 75.959 51.6009 76.463 51.2804 76.7627L31.0155 95.713L29.3506 93.9327L49.6156 74.9824C49.9361 74.6826 50.4401 74.6995 50.7398 75.0201Z" fill="white"/>
<path d="M49.4445 82.5595L50.1039 83.2647C50.3812 83.5612 50.3656 84.0264 50.0691 84.3037L33.0417 100.227L31.3768 98.4462L48.4043 82.5233C48.7008 82.246 49.166 82.2616 49.4432 82.5581L49.4445 82.5595Z" fill="white"/>
<path d="M112.975 95.9453C112.975 95.9837 112.975 96.0221 112.971 96.0586C112.933 97.0991 112.351 97.8232 111.501 98.1944C111.06 98.3882 110.546 98.487 110 98.487C109.345 98.487 108.74 98.2749 108.25 97.9128C108.191 97.8708 108.135 97.8269 108.08 97.7775C108.065 97.9384 108.038 98.092 107.999 98.2438C107.835 98.9002 107.451 99.4689 106.935 99.8694C107.661 100.37 108.25 101.056 108.636 101.857C106.549 104.315 104.263 106.599 101.804 108.679C101.647 108.603 101.495 108.517 101.347 108.423C100.69 108.731 99.9627 108.903 99.1928 108.903C98.6424 108.903 98.114 108.817 97.6203 108.654C96.8065 108.389 96.0843 107.922 95.5083 107.315C95.2797 107.352 95.0383 107.37 94.7896 107.37C94.6488 107.37 94.5117 107.365 94.3745 107.354C94.3745 107.359 94.3764 107.365 94.3764 107.37C94.3764 109.941 92.5551 112.108 90.0609 112.805C89.9073 113.148 89.7245 113.474 89.5087 113.777C88.4884 115.229 86.8079 116.177 84.9044 116.177C84.6776 116.177 84.4545 116.164 84.2333 116.136C83.1032 116.005 82.0756 115.531 81.2527 114.827C80.2196 116.133 78.6251 116.97 76.8367 116.97C74.348 116.97 72.236 115.348 71.4881 113.099C71.1297 113.17 70.7604 113.209 70.38 113.209C69.8516 113.209 69.3432 113.134 68.8568 112.999C68.9976 113.54 69.0744 114.105 69.0744 114.686C69.0744 116.597 68.2717 118.343 66.9551 119.665C65.4209 121.203 63.1919 122.171 60.7087 122.171C57.6422 122.171 54.9633 120.695 53.506 118.493C53.3688 118.287 53.2445 118.076 53.1311 117.859C52.9592 118.011 52.7782 118.155 52.5917 118.289C51.3665 119.177 49.8635 119.704 48.2379 119.704C44.7873 119.704 41.8872 117.345 41.0443 114.143C40.9217 113.684 40.8431 113.209 40.8102 112.721C40.4573 112.995 40.0769 113.24 39.6765 113.445C38.6525 113.979 37.4932 114.28 36.2625 114.28C32.1483 114.28 28.8148 110.929 28.8148 106.796C28.8148 106.492 28.8349 106.193 28.8696 105.898C28.9812 104.951 29.2683 104.059 29.6998 103.254C28.9921 102.111 28.5825 100.758 28.5825 99.3117C28.5825 98.3315 28.7709 97.3935 29.1128 96.5359C28.2333 96.8943 27.2733 97.0936 26.2657 97.0936C22.0801 97.0936 18.6863 93.6851 18.6863 89.4776C18.6863 87.8593 19.191 86.3599 20.0468 85.1274C19.0209 84.5935 18.2895 83.5677 18.1688 82.3572C17.2747 82.9624 16.1976 83.3153 15.0383 83.3153C14.5958 83.3153 14.1679 83.2641 13.7565 83.1672C11.2678 82.5839 9.41363 80.3421 9.41363 77.6632C9.41363 76.2113 9.95854 74.8874 10.8545 73.8872C9.06254 73.7354 7.65454 72.2269 7.65454 70.3891C7.65454 69.2079 8.2342 68.1638 9.12471 67.5256C9.6038 67.1837 10.1707 66.9587 10.7869 66.8929C10.9076 66.8801 11.0301 66.8728 11.1544 66.8728C13.0836 66.8728 14.6507 68.4472 14.6507 70.3891C14.6507 70.9981 14.4952 71.5722 14.2228 72.0714C14.4897 72.033 14.7604 72.0111 15.0383 72.0111C18.1432 72.0111 20.6612 74.5418 20.6612 77.6632C20.6612 78.0033 20.6301 78.3379 20.5716 78.6616C20.9117 78.5519 21.2719 78.4897 21.6486 78.4897C23.5613 78.4897 25.1101 80.033 25.143 81.9457C25.5105 81.8927 25.8836 81.8634 26.2657 81.8634C30.4513 81.8634 33.8433 85.2719 33.8433 89.4776C33.8433 90.4961 33.644 91.4671 33.282 92.3558C34.1323 92.0157 35.0575 91.8273 36.0285 91.8273C40.1428 91.8273 43.4763 95.1773 43.4763 99.3117C43.4763 100.592 43.1563 101.797 42.5912 102.854C43.2166 103.865 43.6079 105.037 43.692 106.295C44.9501 105.317 46.5263 104.735 48.2379 104.735C51.2733 104.735 53.8845 106.562 55.042 109.179C56.5341 107.952 58.5236 107.2 60.7087 107.2C61.8918 107.2 63.0164 107.421 64.0367 107.82C64.2891 107.917 64.5341 108.025 64.7736 108.144C64.7517 107.946 64.7407 107.745 64.7407 107.54C64.7407 106.946 64.8321 106.374 65.0004 105.836C65.719 103.539 67.8566 101.873 70.38 101.873C72.9035 101.873 74.9825 103.495 75.7286 105.745C76.0888 105.673 76.4582 105.635 76.8367 105.635C78.2301 105.635 79.5046 106.143 80.4884 106.984C81.1101 106.202 81.9329 105.585 82.8783 105.22C83.7414 103.155 85.8205 101.703 88.3421 101.703C89.0552 101.703 89.7409 101.82 90.3773 102.036C90.8308 100.105 92.5899 98.6662 94.7896 98.6662C95.6107 98.6662 96.3128 98.8673 96.8888 99.2202C97.58 98.8673 98.3627 98.6662 99.1928 98.6662C99.7926 98.6662 100.367 98.7722 100.901 98.9624C101.148 98.5693 101.623 98.2639 102.208 98.1341C102.164 97.9311 102.14 97.7226 102.14 97.5069C102.14 95.8557 103.474 94.5153 105.117 94.5153C105.849 94.5153 106.52 94.7841 107.037 95.2248C107.175 93.7016 108.447 92.5057 110 92.5057C110.548 92.5057 111.062 92.705 111.501 93.0323C111.644 93.1384 111.779 93.2573 111.901 93.3871C112.56 94.0582 112.975 95.0237 112.975 95.9453Z" fill="#A0ABB7"/>
<path d="M114.359 93.8405C113.913 94.592 113.45 95.3307 112.971 96.0585C112.497 96.7826 112.007 97.4939 111.501 98.1943C111.287 98.496 111.067 98.7941 110.844 99.0903C110.755 99.2091 110.665 99.328 110.574 99.4469C109.948 100.268 109.303 101.071 108.635 101.857C106.549 104.315 104.263 106.598 101.804 108.679C101.007 109.356 100.189 110.011 99.3554 110.643C96.6126 112.728 93.6796 114.575 90.5874 116.153C88.7424 117.096 86.8389 117.945 84.886 118.691C79.051 120.92 72.768 122.244 66.2089 122.487C65.4757 122.512 64.7406 122.527 64 122.527C59.7724 122.527 55.6471 122.079 51.6736 121.225C51.3426 121.156 51.0135 121.083 50.6844 121.006C46.3159 119.989 42.134 118.484 38.2025 116.548C37.7052 116.304 37.2133 116.054 36.725 115.796C32.4992 113.567 28.5788 110.833 25.0441 107.679C17.6933 101.12 12.0101 92.7323 8.70768 83.2311C6.79134 77.7253 5.67591 71.8446 5.49854 65.728C5.62836 65.7134 5.76185 65.7061 5.89534 65.7061C7.26311 65.7061 8.46265 66.4338 9.12459 67.5255C9.47385 68.0978 9.67499 68.7689 9.67499 69.4875C9.67499 70.1422 9.50676 70.7602 9.21236 71.2978C9.50128 71.2558 9.79385 71.232 10.0937 71.232C13.451 71.232 16.1719 73.9547 16.1719 77.312C16.1719 77.6777 16.1372 78.0361 16.075 78.3854C16.4425 78.2665 16.832 78.2007 17.238 78.2007C19.3061 78.2007 20.981 79.8592 21.0158 81.9182C21.4126 81.8597 21.8167 81.8286 22.23 81.8286C26.7538 81.8286 30.4201 85.4949 30.4201 90.0187C30.4201 91.1141 30.2044 92.1582 29.813 93.1127C30.7328 92.747 31.733 92.5458 32.7826 92.5458C37.2279 92.5458 40.832 96.1481 40.832 100.595C40.832 101.972 40.4864 103.269 39.8757 104.404C40.5522 105.492 40.9746 106.752 41.0643 108.105C42.4247 107.054 44.1289 106.428 45.9795 106.428C49.2599 106.428 52.0814 108.392 53.334 111.208C54.9449 109.888 57.0953 109.08 59.4578 109.08C61.0524 109.08 62.55 109.449 63.8519 110.095C63.8281 109.883 63.8172 109.665 63.8172 109.445C63.8172 108.882 63.894 108.337 64.0366 107.82C64.2359 107.096 64.5669 106.425 65.0002 105.836C66.1102 104.329 67.8967 103.351 69.9118 103.351C72.6034 103.351 74.8855 105.095 75.6937 107.515C76.0814 107.438 76.4818 107.396 76.8914 107.396C78.3964 107.396 79.7751 107.942 80.8375 108.848C81.5086 108.005 82.3991 107.343 83.4213 106.949C84.3538 104.73 86.6012 103.168 89.3257 103.168C90.0974 103.168 90.838 103.294 91.5255 103.525C92.0156 101.449 93.9173 99.9003 96.2944 99.9003C97.1831 99.9003 97.942 100.118 98.5637 100.496C99.3116 100.116 100.158 99.9003 101.054 99.9003C102.129 99.9003 103.131 100.209 103.98 100.741C104.238 100.621 104.507 100.52 104.784 100.44C104.443 99.9296 104.241 99.3152 104.241 98.6533C104.241 96.8777 105.682 95.4368 107.458 95.4368C108.25 95.4368 108.974 95.7257 109.533 96.1993C109.656 94.8425 110.621 93.7289 111.901 93.387C112.166 93.3138 112.446 93.2754 112.735 93.2754C113.328 93.2754 113.883 93.4894 114.359 93.8405Z" fill="white"/>
</svg>
