<svg width="72" height="72" viewBox="0 0 72 72" fill="none" xmlns="http://www.w3.org/2000/svg">
<rect width="72" height="72" rx="36" fill="#DEEAF6"/>
<path fill-rule="evenodd" clip-rule="evenodd" d="M61.0002 35.7664C61.0002 49.7094 49.6937 60.9997 35.7669 60.9997C21.824 60.9997 10.5337 49.6932 10.5337 35.7664C10.5337 21.8235 21.8401 10.5332 35.7669 10.5332C49.7099 10.5332 61.0002 21.8235 61.0002 35.7664Z" stroke="#122C33" stroke-miterlimit="10"/>
<path fill-rule="evenodd" clip-rule="evenodd" d="M54.4603 35.4255C54.4603 45.9479 45.9305 54.4603 35.4255 54.4603C24.903 54.4603 16.3906 45.9305 16.3906 35.4255C16.3906 24.903 24.9205 16.3906 35.4255 16.3906C45.9479 16.3906 54.4603 24.903 54.4603 35.4255Z" stroke="#122C33" stroke-miterlimit="10"/>
<path fill-rule="evenodd" clip-rule="evenodd" d="M29.949 27.8401C29.9975 27.646 29.949 27.468 29.8843 27.2739C29.7711 26.9181 29.8358 26.5784 29.9652 26.2387C29.9975 26.1417 30.1593 26.0285 30.2078 26.077C30.2725 26.1255 30.3372 26.1902 30.3534 26.2549C30.3857 26.4167 30.4181 26.5784 30.4181 26.7402C30.4343 27.1122 30.5798 27.4195 30.8063 27.7107C31.0651 28.018 31.3401 28.3253 31.6312 28.6165C31.6636 28.6488 31.7283 28.6327 31.7768 28.6327V28.6812L31.7606 28.6488C31.8253 28.2283 31.6474 27.8563 31.5018 27.468C31.4695 27.371 31.4371 27.2578 31.4209 27.1607C31.4048 27.096 31.518 26.999 31.5827 27.0151C31.6636 27.0313 31.7445 27.0475 31.8092 27.0798C32.0194 27.2254 32.1488 27.4357 32.2297 27.6621C32.3591 28.0504 32.4723 28.4386 32.5856 28.8268C32.6341 28.9885 32.6503 29.1503 32.6826 29.2958C32.812 29.7164 32.9899 30.1046 33.3134 30.4119C33.459 30.5413 33.5722 30.6869 33.7016 30.8325C33.7663 30.8972 33.831 30.9295 33.9119 30.8972C33.9443 30.881 33.9766 30.8163 33.9928 30.7678C34.106 30.2987 33.9766 29.862 33.7825 29.4252C33.7178 29.2797 33.6208 29.1341 33.5561 28.9885C33.2326 28.3739 33.184 27.743 33.4105 27.096C33.5237 26.7887 33.6046 26.4814 33.6693 26.1579C33.7663 25.6564 33.9604 25.1712 34.3487 24.7991C34.656 24.4918 34.9148 24.1198 35.2545 23.861C35.5941 23.6022 35.8529 23.3272 36.0956 23.0037C36.322 22.6802 36.694 22.5346 36.9852 22.292C37.0822 22.2111 37.3572 22.2435 37.4381 22.3567C37.8425 22.8905 38.1175 23.4728 38.0204 24.1683C37.9881 24.3948 37.9881 24.5889 38.1013 24.7991C38.166 24.9124 38.2145 25.0579 38.1983 25.1873C38.1336 25.6726 38.2307 26.174 38.0689 26.6431C38.0042 26.8534 37.9557 27.0475 38.0042 27.2739C38.0689 27.5489 38.0204 27.8077 37.891 28.0665C37.8263 28.2121 37.7454 28.3577 37.7131 28.5194C37.6322 29.0856 37.2602 29.4414 36.8234 29.7326C36.4676 29.9752 36.0632 30.1531 35.6265 30.234C35.4971 30.2663 35.3515 30.2825 35.2221 30.331C34.8663 30.4443 34.5589 30.881 34.5589 31.2692C34.5589 31.431 34.5751 31.5927 34.6075 31.7545C34.6236 31.8353 34.6722 31.9 34.8016 31.9C34.8824 31.7221 34.9471 31.5118 35.0442 31.3177C35.1251 31.156 35.2383 30.9942 35.3677 30.8487C35.4162 30.784 35.4971 30.7516 35.578 30.7354C35.6265 30.7193 35.6912 30.7516 35.7235 30.7678C35.7559 30.8001 35.8044 30.8648 35.7882 30.8972C35.6912 31.1236 35.578 31.3339 35.4809 31.5604C35.2383 32.1588 35.1574 32.7735 35.3677 33.3882C35.5456 33.9058 35.7074 34.4234 35.8529 34.941C35.9015 35.1189 35.9176 35.313 36.1117 35.41C36.2735 35.2321 36.2735 35.0057 36.2573 34.7954C36.2573 34.6336 36.2088 34.4719 36.1764 34.3101C36.0794 33.9058 35.9985 33.5176 36.1926 33.1455C36.0794 32.9352 35.9985 32.7573 35.9176 32.5794C35.8044 32.2882 35.7882 31.9971 35.8529 31.7059C35.9015 31.4795 36.047 31.3177 36.2573 31.2369C36.4999 31.1398 36.7264 31.1236 36.969 31.2369C37.0661 31.2854 37.1469 31.3339 37.244 31.3986C37.4219 31.3016 37.5837 31.1883 37.7454 31.1236C37.9881 31.0266 38.2307 31.0751 38.4248 31.2854C38.5542 31.4148 38.6351 31.5927 38.7645 31.7706C38.8615 31.7545 38.9747 31.7383 39.0718 31.7383C39.185 31.7383 39.2821 31.7221 39.3953 31.7383C39.6541 31.7868 39.8644 31.9 39.9614 32.1427C40.0746 32.4015 39.9614 32.6279 39.7835 32.8058C39.6379 32.9676 39.4438 33.0808 39.2659 33.2264C39.2012 33.5014 39.2982 33.8087 39.1203 34.0837C38.9586 34.3425 38.6998 34.5042 38.5057 34.7145C38.3924 34.9086 38.538 35.038 38.5704 35.1998C38.6189 35.5395 38.4895 35.7821 38.2307 35.9762C37.9072 36.2026 37.5352 36.2997 37.1469 36.2512C36.9528 36.235 36.7749 36.1865 36.5808 36.1541C36.4514 36.1379 36.322 36.2188 36.2897 36.3644C36.2573 36.4938 36.2088 36.6394 36.225 36.7526C36.3058 37.3996 36.2735 38.0466 36.2735 38.7098C36.2735 38.7583 36.3058 38.8068 36.322 38.8554C36.3705 38.8392 36.4352 38.8392 36.4514 38.8068C36.6617 38.5157 36.872 38.2407 37.0499 37.9334C37.4704 37.2217 38.0851 36.6717 38.7321 36.1865C39.1688 35.8468 39.5409 35.4586 39.8967 35.0542C40.2364 34.6822 40.382 34.2131 40.3658 33.6955C40.3658 33.5014 40.3173 33.3235 40.3335 33.1294C40.3335 33.0647 40.4143 32.9838 40.479 32.9676C40.5437 32.9514 40.6408 33 40.6893 33.0485C40.7378 33.097 40.7702 33.1941 40.7864 33.2588C40.8349 33.4367 40.8834 33.6146 40.9319 33.8087C40.9966 33.7925 41.0613 33.7925 41.0937 33.7602C41.401 33.4529 41.5466 33.097 41.5304 32.6603C41.5304 32.4823 41.4495 32.3368 41.2716 32.2721C41.0452 32.175 40.8025 32.1103 40.5761 32.0294C40.4305 31.9809 40.2687 31.9162 40.1232 31.8353C39.832 31.6574 39.6217 31.3986 39.6056 31.0589C39.6056 30.7678 39.4923 30.5413 39.3306 30.3149C39.2982 30.2663 39.2659 30.2178 39.2497 30.1693C39.088 29.7973 39.1041 29.3605 38.7968 29.0532C38.6836 28.6974 38.538 28.3415 38.4571 27.9695C38.3601 27.4842 38.3439 26.9828 38.6674 26.5622C38.7806 26.4167 38.813 26.2711 38.8453 26.1255C38.9586 25.705 39.1041 25.3006 39.2335 24.88C39.2659 24.7668 39.46 24.6859 39.5732 24.7506C39.7188 24.8315 39.8482 24.9124 39.9614 25.0256C40.1232 25.1873 40.2687 25.3168 40.5276 25.2521C40.5761 25.2359 40.6246 25.2682 40.6731 25.3006C40.7217 25.3329 40.7702 25.3653 40.8025 25.3976C40.9319 25.527 41.1099 25.6564 41.1746 25.8182C41.4172 26.3358 41.951 26.6593 42.0965 27.2416C42.1127 27.2901 42.1127 27.3548 42.1451 27.4033C42.5171 28.018 42.5333 28.6974 42.5818 29.3605C42.6141 29.7811 42.5171 30.1693 42.323 30.5413C42.1936 30.784 42.0804 31.0266 41.951 31.2692C41.8054 31.528 41.8054 31.7868 41.951 32.0456C41.9833 32.0941 42.0157 32.1427 42.0318 32.175C42.1936 32.1427 42.2259 32.0133 42.2745 31.9C42.5818 31.0589 42.8244 30.2016 42.9377 29.2958C42.9538 29.1826 42.9538 29.0856 42.97 28.9723C42.9862 28.8753 43.1318 28.7621 43.2126 28.8106C43.2773 28.8429 43.3744 28.9076 43.3744 28.9723C43.4391 29.312 43.4553 29.6679 43.4067 30.0237C43.3744 30.2663 43.342 30.509 43.3097 30.7516C43.2935 30.8325 43.3097 30.9295 43.3906 30.9457C43.4553 30.9619 43.5361 30.9134 43.617 30.8648C43.7141 30.8163 43.7626 30.7031 43.7626 30.5899C43.7626 30.1208 44.0052 29.7649 44.3125 29.4414C44.4419 29.312 44.5875 29.1664 44.7331 29.0532C44.814 28.9885 44.9434 28.9238 45.0242 28.94C45.3477 29.0047 45.6065 28.9076 45.8653 28.7459C45.9139 28.7135 45.9624 28.6974 46.0109 28.6812C46.1889 28.6165 46.383 28.6812 46.4962 28.8753C46.5771 28.9885 46.6256 29.1179 46.6741 29.215C46.8359 29.3282 46.9976 29.2473 47.1594 29.2473C47.3535 29.2473 47.5314 29.2797 47.7093 29.3605C47.9843 29.5061 48.0813 29.7487 47.9196 30.0399C47.8225 30.2016 47.7093 30.3634 47.5476 30.4605C47.3696 30.5899 47.2079 30.7031 47.1755 30.9619C47.1594 31.0751 47.0461 31.2045 46.9329 31.2692C46.7873 31.3824 46.6094 31.4795 46.4315 31.528C46.2212 31.5927 46.0271 31.6898 45.8977 31.8677C45.8492 31.9324 45.7845 31.9809 45.7198 32.0294C45.461 32.2074 45.1698 32.2559 44.8787 32.1103C44.6199 31.9809 44.3611 31.8192 44.1023 31.6574C43.989 31.5927 43.892 31.4957 43.7788 31.3986C43.5038 31.5118 43.3259 31.7221 43.1318 31.9C42.9862 32.0294 42.8891 32.1912 42.8406 32.3853C42.8244 32.4338 42.8568 32.4823 42.8568 32.547C43.1965 32.5794 43.5523 32.4176 43.892 32.5309C43.9243 32.547 43.9729 32.5956 43.9729 32.6441C43.9729 32.6926 43.9405 32.7411 43.9082 32.7735C43.8758 32.8059 43.8111 32.822 43.7626 32.8382C43.5523 32.9029 43.342 32.9514 43.1479 33.0323C42.7112 33.2102 42.323 33.4367 41.9995 33.7764C41.3848 34.4234 40.7702 35.0704 40.1555 35.7336C40.0585 35.8306 39.9776 35.9438 39.8967 36.0409C39.8644 36.0732 39.8644 36.1541 39.8805 36.1865C39.9129 36.2188 39.9776 36.235 40.0261 36.235C40.2364 36.1865 40.4305 36.0732 40.5761 35.9115C40.6731 35.8144 40.754 35.7012 40.8349 35.6042C40.9805 35.4424 41.1099 35.2645 41.2554 35.1027C41.6922 34.6175 42.2421 34.3587 42.8891 34.3101C43.1318 34.294 43.3744 34.2616 43.6008 34.1807C43.7788 34.1322 43.989 34.0837 44.167 34.1322C44.7493 34.3101 45.3477 34.2616 45.9139 34.4557C46.0595 34.5042 46.1403 34.5851 46.1889 34.7145C46.2212 34.7792 46.2859 34.8601 46.3506 34.8763C46.9006 34.9733 47.3373 35.3292 47.774 35.6203C47.9034 35.7174 48.049 35.7983 48.1784 35.8953C48.324 35.9924 48.3078 36.1865 48.1622 36.2997C47.9843 36.4291 47.7902 36.51 47.5799 36.5747C47.2079 36.6717 46.852 36.7526 46.4477 36.7526C46.1727 37.2378 45.7198 37.4643 45.2022 37.5452C45.0081 37.5775 44.8301 37.626 44.6846 37.7554C44.5552 37.8525 44.4258 37.9496 44.2802 38.0304C44.1184 38.1275 43.9405 38.2084 43.7464 38.2084C43.52 38.2084 43.3259 38.2731 43.1318 38.3701C42.7921 38.5642 42.4524 38.5319 42.1127 38.3863C41.7407 38.2245 41.3848 38.0142 41.0775 37.7393C40.9805 37.6584 40.8834 37.5452 40.7864 37.4643C40.1879 36.9143 39.4762 36.8335 38.7806 37.2702C38.5057 37.4481 38.263 37.6746 38.0366 37.901C37.8748 38.0466 37.7616 38.2245 37.6322 38.4025C37.5513 38.5157 37.5028 38.6289 37.4381 38.7421C37.616 38.9039 37.8263 38.7907 37.9881 38.9039C38.0528 38.9362 38.0851 39.0171 38.1175 39.098C38.1336 39.1303 38.0689 39.195 38.0204 39.2112C37.9234 39.2597 37.8263 39.2921 37.7131 39.3083C37.4381 39.3568 37.1955 39.4862 36.9852 39.6479C36.9043 39.7126 36.8073 39.7935 36.7749 39.8906C36.3544 40.764 35.95 41.6537 35.7559 42.6242C35.7397 42.6727 35.7882 42.7212 35.8206 42.7697C35.9985 42.705 36.0309 42.5433 36.0632 42.3815C36.1279 42.0257 36.3058 41.7345 36.5323 41.4434C36.8073 41.0875 37.1955 40.8934 37.616 40.764C37.7293 40.6023 37.8263 40.4405 37.9395 40.2949C38.2792 39.8744 38.7483 39.7773 39.2659 39.8582C39.3629 39.8744 39.4762 39.9391 39.557 39.9876C39.6703 40.0685 39.7511 40.1655 39.8482 40.2626C40.0099 40.3273 40.1717 40.2464 40.3335 40.2626C40.4952 40.2626 40.657 40.2788 40.8187 40.3111C41.2069 40.4082 41.4172 40.8287 41.2716 41.2169C41.2069 41.3949 41.0937 41.5566 40.9966 41.7184C40.9643 41.8639 41.0937 41.961 41.1099 42.0904C41.2393 42.6242 40.9319 43.0447 40.4467 43.255C40.2202 43.3521 39.9776 43.4006 39.735 43.4815C39.6864 43.53 39.6379 43.5947 39.5894 43.6594C39.1527 44.1932 38.5865 44.2417 37.9719 44.0799C37.8101 44.0314 37.6807 43.9667 37.5028 43.9667C36.694 43.9344 36.694 43.9344 36.0309 43.5462C35.95 43.5947 35.8691 43.6594 35.7882 43.7241C35.7235 43.7726 35.6912 43.8535 35.7397 43.9505C35.95 43.9829 36.1926 44.0152 36.4191 44.0638C36.5161 44.0799 36.6132 44.1608 36.6779 44.2417C36.7102 44.2902 36.7102 44.3873 36.694 44.4681C36.694 44.5005 36.6132 44.5328 36.5646 44.5328C36.5161 44.549 36.4514 44.5328 36.4029 44.5167C36.1764 44.4358 35.9662 44.5005 35.7559 44.549C35.4971 44.6137 35.3192 44.7755 35.2868 45.0504C35.2221 45.4548 35.1736 45.8592 35.1251 46.2636C35.0765 46.6194 35.0118 46.9591 34.931 47.2988C34.8177 47.7679 34.6883 48.2531 34.5589 48.7222C34.4295 49.1913 34.2678 49.6604 33.9928 50.0647C33.8796 50.2265 33.7502 50.275 33.5722 50.2427C33.4105 50.2103 33.2487 50.178 33.1032 50.1133C32.8282 50.0162 32.715 49.7251 32.8444 49.4339C32.8929 49.3369 32.9414 49.2398 33.0061 49.1428C33.4752 48.2531 33.7825 47.2988 34.0575 46.3283C34.0737 46.2474 34.0898 46.1665 34.106 46.0857C34.1384 45.5195 34.2354 44.9534 34.381 44.4034C34.4295 44.2093 34.3972 44.0314 34.3325 43.8535C34.2192 43.5462 34.0575 43.2712 33.7987 43.0447C33.7178 42.98 33.6369 42.8991 33.5884 42.8021C33.5722 42.7697 33.5884 42.6889 33.6046 42.6565C33.6369 42.6242 33.7016 42.5918 33.734 42.5918C33.8149 42.5918 33.8957 42.6242 33.9604 42.6565C34.0737 42.705 34.1707 42.8021 34.3163 42.8183C34.4133 42.5918 34.3001 42.4301 34.2192 42.2683C34.2031 42.236 34.1384 42.2036 34.0898 42.1874C34.0413 42.1713 33.9766 42.1874 33.9281 42.2036C33.5237 42.333 33.1193 42.3168 32.7311 42.1713C32.4885 42.0742 32.2621 42.0742 32.0194 42.1389C31.7445 42.2036 31.4857 42.2036 31.2107 42.1389C30.6931 42.0257 30.3049 41.7669 30.2078 41.2008C30.1916 41.1037 30.1593 40.9905 30.1431 40.8934C29.9005 40.7479 29.6579 40.6184 29.4799 40.4082C29.0917 39.9391 29.0432 39.4538 29.3344 38.9039C29.3829 38.8068 29.4476 38.726 29.5123 38.6289C29.3991 38.4672 29.2858 38.3216 29.1888 38.1598C28.9947 37.8687 28.9785 37.5452 29.0432 37.2217C29.0917 36.9467 29.3344 36.7526 29.6255 36.7364C29.8843 36.7202 30.1108 36.7849 30.321 36.9305C30.5151 37.0761 30.7092 37.2217 30.9195 37.3834C30.9842 37.3672 31.0651 37.3511 31.1298 37.3025C31.518 37.0599 31.8577 37.157 32.1812 37.4319C32.3106 37.529 32.4076 37.6584 32.5047 37.804C32.6017 37.9657 32.6826 38.1436 32.7635 38.3054C32.9414 38.4348 33.1355 38.3701 33.3134 38.3863C33.7663 38.4186 34.0737 38.6289 34.2839 39.0333C34.5913 39.6641 34.6075 40.2788 34.2031 40.8934C34.2354 41.1361 34.3648 41.3463 34.5428 41.5081C34.5589 41.5243 34.656 41.5081 34.6883 41.4919C34.7207 41.4596 34.7369 41.3949 34.753 41.3463C34.8501 40.6508 34.9471 39.9553 35.0442 39.2436C35.0765 39.0495 35.0604 38.8715 34.9957 38.6774C34.8177 38.079 34.6075 37.4966 34.1707 37.0114C34.1384 36.979 34.0898 36.9305 34.0575 36.882C33.9766 36.7688 33.9766 36.6394 34.0575 36.5908C34.1707 36.5261 34.2678 36.5423 34.3648 36.607C34.5751 36.7688 34.7692 36.9467 34.9795 37.1246C35.028 37.0761 35.0765 37.0437 35.0765 37.0114C35.0927 36.6879 35.028 36.3644 34.8986 36.0409C34.6398 35.7983 34.3487 35.6203 34.0251 35.4747C33.8957 35.41 33.7502 35.4262 33.6369 35.5071C33.4752 35.6365 33.3134 35.7983 33.1679 35.9438C32.9899 36.1218 32.812 36.2673 32.5856 36.3806C32.2459 36.5423 31.9224 36.5908 31.5665 36.4129C31.3724 36.3159 31.1621 36.235 30.968 36.1541C30.7739 36.0732 30.5798 35.9762 30.4181 35.8144C30.1916 35.5718 29.9005 35.4262 29.577 35.3453C29.4799 35.313 29.3667 35.2806 29.2697 35.2321C29.0432 35.1189 28.8329 34.9895 28.7197 34.763C28.558 34.4234 28.3153 34.116 28.0889 33.8249C27.9109 33.5823 27.9271 33.469 28.1859 33.2102C28.2021 33.1941 28.2183 33.1617 28.2344 33.1455C28.283 32.9999 28.2021 32.8867 28.1374 32.7573C27.9595 32.4176 27.8948 32.0456 27.8139 31.6736C27.7977 31.5927 27.7977 31.5118 27.7815 31.431C27.733 31.0266 27.9271 30.8325 28.3477 30.8325C28.655 30.8325 28.9623 30.8487 29.2211 30.9942C29.7387 31.2854 30.3049 31.3016 30.871 31.3824C31.3724 31.4471 31.8092 31.6251 32.1974 31.9486C32.3915 32.0941 32.6017 32.2235 32.812 32.3368C33.3943 32.6603 33.734 33.1617 33.8957 33.7925C33.9443 33.9705 33.9604 34.1646 34.009 34.3587C34.0898 34.666 34.2678 34.8924 34.5428 35.038C34.5913 35.0542 34.656 35.0704 34.7045 35.0542C34.7369 35.038 34.7854 34.9733 34.7854 34.9248C34.7854 34.7954 34.7692 34.6498 34.7207 34.5204C34.5104 33.9705 34.3001 33.4043 34.0413 32.8705C33.7663 32.2721 33.3781 31.7545 32.8605 31.3339C32.5047 31.0428 32.165 30.7193 31.9062 30.3472C31.7445 30.1208 31.518 29.959 31.243 29.9105C31.146 29.8943 31.0166 29.9105 30.9357 29.9752C30.7901 30.0884 30.6607 30.234 30.5151 30.3634C30.1755 30.7031 29.7873 30.8001 29.3182 30.7193C28.8815 30.6384 28.4932 30.4928 28.1859 30.1531C28.008 29.959 27.7815 29.7811 27.5713 29.6193C27.3286 29.4252 27.1669 29.1826 27.0375 28.9076C27.0213 28.8591 26.989 28.8106 26.9728 28.7621C26.9081 28.5356 27.1022 28.3092 26.9566 28.0504C26.8434 27.8724 26.8434 27.6298 26.8272 27.4195C26.811 27.1769 26.811 26.9343 26.811 26.6916C26.811 26.5299 26.989 26.4005 27.1669 26.449C27.5874 26.5622 27.9918 26.724 28.2991 27.0637C28.3638 27.1445 28.4609 27.2578 28.5418 27.2578C29.0756 27.2254 29.4314 27.6298 29.8843 27.7592C29.8843 27.7754 29.8843 27.8077 29.9005 27.8239C29.9005 27.8401 29.9328 27.8401 29.9328 27.8401C29.9975 27.8886 29.9652 27.8724 29.949 27.8401ZM40.1879 28.3577L40.2202 28.3415L40.1717 28.39C40.2688 28.2445 40.2041 28.1151 40.0908 28.0504C39.7673 27.8562 39.4438 27.6621 39.1203 27.4842C39.0556 27.4519 38.9586 27.5166 38.9586 27.5974C38.9586 28.0504 39.0718 28.2121 39.4762 28.293C39.7026 28.3092 39.9452 28.3253 40.1879 28.3577ZM31.6474 33.4852L31.6312 33.5014C31.5342 33.1941 31.4371 32.8867 31.3239 32.5794C31.1945 32.2397 31.0166 31.9486 30.6607 31.8192C30.6445 31.803 30.6122 31.8192 30.5798 31.8192C30.5637 31.8353 30.5313 31.8515 30.5313 31.8677C30.5798 32.547 30.9195 33.0808 31.4209 33.5014C31.4695 33.5499 31.5827 33.5014 31.6474 33.4852ZM47.4182 36.2673C47.4343 36.2026 47.4667 36.1379 47.4505 36.1056C47.0138 35.5556 46.3668 35.3615 45.7359 35.5395C45.6874 35.5556 45.6551 35.6042 45.6065 35.6203C45.5418 35.6689 45.5257 35.7821 45.5742 35.8144C45.7198 35.8953 45.8815 35.9438 45.9948 36.0571C46.3183 36.3806 46.7065 36.3967 47.1108 36.3159C47.2079 36.2997 47.3211 36.2835 47.4182 36.2673ZM43.8596 36.5423C44.0537 36.8335 44.3449 36.9143 44.5875 37.0599C44.9434 37.2702 45.2992 37.254 45.6551 37.0761C45.7198 37.0437 45.7521 36.9143 45.7198 36.882C45.5742 36.7688 45.4286 36.6555 45.2669 36.5423C45.0889 36.4129 44.911 36.3159 44.6846 36.3159C44.3934 36.332 44.1184 36.3644 43.8596 36.5423ZM34.6236 25.155C34.3972 25.3653 34.381 25.6241 34.4942 25.8829C34.5589 26.0285 34.656 26.1579 34.753 26.2873C34.9795 26.6269 35.2059 26.9504 35.4324 27.2901C35.4647 27.3225 35.5133 27.3548 35.5618 27.371C35.6103 27.3872 35.6588 27.2739 35.6588 27.1931C35.675 26.999 35.6265 26.821 35.5294 26.6431C35.2706 26.174 35.0118 25.705 34.7369 25.2359C34.7369 25.2035 34.6722 25.1873 34.6236 25.155ZM31.5665 34.2778C31.3562 34.1484 31.1621 34.0675 30.9357 34.1646C30.6931 34.2778 30.4504 34.4072 30.2078 34.5042C29.9652 34.6013 29.7064 34.666 29.4314 34.7469C29.5446 35.0057 29.7387 35.0865 29.9652 35.0865C30.596 35.0704 31.1298 34.8116 31.5665 34.2778ZM37.0175 24.7021C37.4219 24.5727 37.4705 24.5242 37.5028 24.2492C37.519 24.1198 37.5352 23.9742 37.5028 23.861C37.4381 23.6345 37.3572 23.4081 37.2602 23.1816C37.2278 23.1169 37.1631 23.0684 37.0984 23.0199C37.0499 22.9714 36.9205 23.0684 36.8558 23.1816C36.7426 23.3434 36.7264 23.5213 36.7264 23.7154C36.7587 24.0551 36.872 24.3786 37.0175 24.7021ZM42.5656 36.1056C42.7112 36.2188 42.8729 36.2026 43.0185 36.1218C43.1965 36.0085 43.3744 35.8791 43.5038 35.7174C43.7464 35.4262 43.9567 35.1189 44.167 34.8116C44.1831 34.7792 44.167 34.7145 44.1508 34.666C44.1508 34.6498 44.1023 34.6175 44.0861 34.6175C43.7626 34.6336 43.4391 34.7145 43.245 35.0057C43.0023 35.3615 42.7921 35.7336 42.5656 36.1056ZM44.2317 37.529C44.1508 37.3349 43.9567 37.2702 43.8111 37.1731C43.6332 37.0437 43.4553 36.9305 43.2612 36.8335C43.0347 36.7041 42.7921 36.7202 42.5494 36.7688C42.5171 36.7688 42.4686 36.8335 42.4524 36.8658C42.4362 36.882 42.4362 36.9305 42.4524 36.9467C42.7597 37.2055 43.067 37.4643 43.3906 37.7231C43.52 37.8202 43.6979 37.8201 43.8596 37.7878C44.0214 37.7554 44.1831 37.7069 44.2317 37.529ZM33.4752 35.1027C33.3458 34.9086 33.2164 34.8601 33.087 34.9086C32.9576 34.941 32.8282 35.0057 32.7311 35.0865C32.6017 35.1836 32.4885 35.2968 32.3753 35.4262C32.2135 35.6365 31.9871 35.8144 31.8739 36.0571C31.9386 36.1056 31.9709 36.1541 32.0033 36.1541C32.2621 36.2026 32.4885 36.1379 32.6826 35.96C32.9576 35.685 33.2002 35.41 33.4752 35.1027ZM30.8063 40.3273C30.7578 40.1817 30.7092 40.0523 30.6931 39.9229C30.6769 39.7612 30.6931 39.5994 30.6931 39.4377C30.6931 39.2921 30.6122 39.195 30.4666 39.1465C30.3857 39.1303 30.3049 39.098 30.224 39.098C29.9652 39.0818 29.7549 39.3083 29.8034 39.5671C29.8843 40.0038 30.1431 40.2949 30.5798 40.4082C30.6445 40.4243 30.7254 40.3596 30.8063 40.3273ZM27.4742 27.1607C27.4257 27.1931 27.361 27.2092 27.361 27.2416C27.2639 27.8886 27.6521 28.4062 28.2991 28.5033C28.3315 28.5033 28.3638 28.5194 28.38 28.5033C28.4124 28.4709 28.4933 28.4224 28.4771 28.39C28.3638 27.8401 28.1212 27.371 27.5713 27.1607C27.5227 27.1607 27.4904 27.1607 27.4742 27.1607ZM34.1545 26.4652C34.1384 26.4814 34.106 26.5137 34.106 26.5299C34.1222 26.6593 34.1384 26.7887 34.1869 26.9181C34.3972 27.5004 34.7692 28.0018 34.9633 28.6003C34.9633 28.6327 35.0442 28.6327 35.0927 28.6327C35.1089 28.6327 35.1412 28.6165 35.1574 28.5841C35.1898 28.4871 35.2545 28.3739 35.2383 28.2768C35.1251 27.5651 34.7207 26.999 34.2354 26.4814C34.2192 26.4814 34.1869 26.4814 34.1545 26.4652ZM39.6541 25.4462C39.4115 25.7211 39.4115 25.9961 39.3791 26.2711C39.3468 26.5946 39.46 26.8534 39.7188 27.0475C39.7997 27.1122 39.8967 27.1607 40.0261 27.0798C40.0585 26.8534 40.0908 26.6269 40.107 26.3843C40.1232 25.9961 39.9776 25.705 39.6541 25.4462ZM31.0004 38.8392C30.968 38.0466 30.5637 37.626 29.9652 37.3511C29.8843 37.3187 29.8034 37.3349 29.7549 37.4158C29.7226 37.4643 29.7064 37.5128 29.7226 37.5613C29.7549 37.7878 29.8681 37.9819 30.0299 38.1275C30.2887 38.3863 30.5798 38.6289 31.0004 38.8392ZM42.7921 38.0466C42.7759 37.9981 42.7921 37.9334 42.7597 37.901C42.42 37.5452 42.0157 37.2702 41.6113 36.9952C41.4981 36.9143 41.3687 36.882 41.2393 36.8496C41.1422 36.8335 41.0452 36.8011 40.9643 36.9305C41.3363 37.3996 41.7892 37.7716 42.3392 38.0466C42.4847 38.1113 42.6465 38.1437 42.7921 38.0466ZM36.9852 28.8429C36.5161 28.94 36.1764 28.9885 35.8368 29.1017C35.5133 29.1988 35.2706 29.4091 35.0927 29.6679C35.0765 29.684 35.0765 29.7326 35.0927 29.7487C35.1251 29.7811 35.1736 29.8296 35.2059 29.8296C35.4162 29.8134 35.6427 29.7973 35.8368 29.7487C36.2735 29.6032 36.6617 29.3767 36.9852 28.8429ZM32.7797 40.3596C32.7797 40.2949 32.7958 40.2626 32.7797 40.2464C32.5209 39.7935 32.0841 39.5994 31.6151 39.47C31.5827 39.47 31.5665 39.47 31.5342 39.47C31.4533 39.47 31.2915 39.5671 31.2915 39.6479C31.2915 39.7288 31.2915 39.8097 31.3239 39.8744C31.4371 40.1008 31.6474 40.2302 31.8739 40.3273C32.165 40.4405 32.4723 40.4405 32.7797 40.3596ZM38.7483 33.6793C38.7645 33.5176 38.5542 33.372 38.4086 33.4529C37.9881 33.6631 37.6484 33.9543 37.4866 34.4072C37.4705 34.4557 37.4866 34.5204 37.519 34.5528C37.5513 34.5851 37.616 34.6175 37.6646 34.6013C38.1498 34.5204 38.4895 34.2454 38.7321 33.8411C38.7483 33.7925 38.7321 33.7278 38.7483 33.6793ZM32.7311 41.0067C32.6503 41.0228 32.6179 41.0228 32.6017 41.0228C32.537 41.0552 32.4562 41.0875 32.4076 41.1361C32.3591 41.2008 32.4076 41.3463 32.4885 41.4272C32.8282 41.7184 33.2002 41.8801 33.6693 41.8154C33.7502 41.7992 33.8149 41.7669 33.8796 41.7184C33.9119 41.7022 33.9281 41.6375 33.9281 41.589C33.9281 41.5728 33.9119 41.5404 33.8957 41.5243C33.5399 41.2169 33.1517 40.9905 32.7311 41.0067ZM38.4248 42.7212C38.6189 42.6889 38.813 42.6727 38.9909 42.6242C39.1688 42.5756 39.3306 42.4786 39.4438 42.3168C39.4923 42.236 39.4762 42.0904 39.3953 42.0419C39.3306 42.0095 39.2497 41.961 39.1688 41.9448C38.7159 41.8801 38.3277 42.0419 38.0528 42.4139C38.0204 42.4624 38.0528 42.5918 38.1336 42.6242C38.2307 42.6565 38.3439 42.6889 38.4248 42.7212ZM32.4885 34.5528C32.4723 34.5366 32.44 34.5204 32.4238 34.5204C32.3268 34.5204 32.1974 34.5204 32.1165 34.5689C31.6959 34.8439 31.2754 35.1351 30.8548 35.4262C30.8386 35.4424 30.8386 35.5394 30.871 35.5556C31.0651 35.7174 31.3724 35.7497 31.5342 35.588C31.8739 35.2806 32.1812 34.9571 32.4885 34.6336C32.5047 34.6175 32.4885 34.5851 32.4885 34.5528ZM38.6836 41.3463C38.7159 41.3463 38.7321 41.3302 38.7645 41.3302C39.1203 41.3302 39.2982 41.1199 39.3953 40.8125C39.46 40.6346 39.2982 40.4243 39.1041 40.4243C38.8292 40.4405 38.5704 40.5214 38.3924 40.7479C38.3277 40.8287 38.2792 40.9258 38.2954 41.039C38.3116 41.2493 38.4571 41.3625 38.6836 41.3463ZM36.322 27.4842C36.6779 27.3386 37.0822 27.2578 37.4058 26.999C37.5352 26.9019 37.5999 26.7563 37.616 26.5784C37.616 26.4975 37.5513 26.3843 37.4866 26.4167C37.1469 26.5622 36.7911 26.6916 36.4514 26.8696C36.2735 26.9504 36.2088 27.1445 36.1926 27.3386C36.2088 27.3872 36.2735 27.4357 36.322 27.4842ZM33.7987 40.4729C33.9604 40.3435 34.0413 40.1655 33.9928 39.9714C33.9281 39.7126 33.8149 39.47 33.7016 39.2274C33.6369 39.0818 33.3781 38.9686 33.2973 39.0333C33.184 39.1303 33.1679 39.2597 33.184 39.4053C33.184 39.4862 33.2002 39.5671 33.2326 39.6479C33.362 39.9067 33.5237 40.1655 33.6693 40.4082C33.6855 40.4405 33.7502 40.4405 33.7987 40.4729ZM34.5104 29.2311C34.5428 28.665 34.3001 28.1959 33.9928 27.743C33.9604 27.7107 33.9119 27.6945 33.8634 27.6783C33.7987 27.6621 33.734 27.743 33.7502 27.8562C33.7825 28.4386 34.0251 28.94 34.3325 29.4252C34.3486 29.4414 34.381 29.4414 34.4134 29.4252C34.4295 29.4252 34.4619 29.4091 34.4781 29.4091C34.4781 29.3444 34.4942 29.2958 34.5104 29.2311ZM45.4933 34.9086C45.2022 34.7792 44.9595 34.9248 44.7331 35.0542C44.4581 35.2159 44.2155 35.4262 44.1346 35.7659C44.6037 35.8953 44.9434 35.7821 45.186 35.3777C45.2992 35.2321 45.4771 35.1189 45.4933 34.9086ZM40.8834 41.0228C40.8511 40.9743 40.8349 40.9258 40.7864 40.8934C40.6731 40.8287 40.5437 40.7964 40.3982 40.8287C40.0585 40.9096 39.832 41.1199 39.6864 41.411C39.6379 41.4919 39.7188 41.5728 39.7673 41.6051C39.832 41.6537 39.9129 41.686 39.9938 41.686C40.3658 41.6537 40.6408 41.4919 40.8511 41.1846C40.8834 41.1361 40.8834 41.0714 40.8834 41.0228ZM28.6227 32.0941C28.655 32.5794 28.7197 32.7735 28.8976 32.9676C29.0109 33.097 29.1564 33.1617 29.3182 33.1941C29.4799 33.2264 29.6417 33.2102 29.7873 33.1294C29.8196 32.9514 29.674 32.9029 29.577 32.822C29.4799 32.7411 29.3667 32.6603 29.2697 32.5632C29.1726 32.4823 29.0594 32.3853 28.9623 32.3044C28.8491 32.2235 28.7682 32.0941 28.6227 32.0941ZM39.2335 28.8915C39.3306 29.1503 39.557 29.2311 39.7835 29.2958C40.107 29.3929 40.4467 29.5061 40.7864 29.6032C40.8672 29.6193 40.9319 29.6193 40.9805 29.5223C40.8025 29.2473 40.5761 29.037 40.2526 28.9238C39.8644 28.7944 39.6864 28.7782 39.2335 28.8915ZM31.8739 41.589C31.8253 41.3625 31.7768 41.1361 31.7283 40.9096C31.5989 40.8773 31.5018 40.8287 31.3886 40.8125C31.3077 40.7964 31.2268 40.8126 31.146 40.8287C30.8548 40.8773 30.7578 41.1361 30.9357 41.3625C31.0651 41.5243 31.2107 41.6051 31.4048 41.6698C31.5503 41.7022 31.7121 41.7184 31.8739 41.589ZM28.8815 31.5118C29.0917 32.0618 29.5285 32.3853 29.9975 32.6764C30.0137 32.6764 30.0461 32.6764 30.0622 32.6603C30.0784 32.6441 30.1108 32.6117 30.1108 32.5956C30.0784 32.4662 30.0461 32.3368 29.9975 32.2235C29.8196 31.803 29.4799 31.5604 29.0432 31.4633C28.9785 31.4471 28.93 31.4957 28.8815 31.5118ZM31.8577 32.3044C31.7445 32.3529 31.7283 32.45 31.7606 32.5147C31.9224 32.8867 32.0841 33.2426 32.2621 33.5984C32.3106 33.6793 32.4076 33.744 32.4885 33.8087C32.5047 33.8249 32.537 33.8249 32.5694 33.8087C32.5856 33.8087 32.6179 33.7764 32.6179 33.7602C32.6664 33.1132 32.3591 32.6441 31.8577 32.3044ZM42.598 35.0704C42.5818 35.0542 42.5818 35.0218 42.5656 35.0057C42.5494 34.9895 42.5171 34.9733 42.5009 34.9733C41.9024 35.1027 41.5466 35.5233 41.2554 36.0085C41.2554 36.0247 41.2716 36.0571 41.2716 36.0732C41.2878 36.0894 41.3201 36.1056 41.3363 36.1056C41.8863 35.96 42.2583 35.5718 42.5818 35.1512C42.598 35.1189 42.598 35.0865 42.598 35.0704ZM31.8092 37.901C31.6798 37.8687 31.5989 37.9496 31.5989 38.0304C31.5665 38.548 31.7768 38.8392 32.3106 39.0333C32.3429 39.0495 32.4076 39.0009 32.4562 38.9848C32.4723 38.9686 32.4885 38.9362 32.4885 38.9201C32.44 38.5319 32.2782 38.2084 31.9709 37.9657C31.9062 37.9334 31.8253 37.9172 31.8092 37.901ZM45.3477 30.5575C45.93 30.3472 46.1727 29.9267 46.1889 29.3605C46.1889 29.3444 46.1727 29.2958 46.1565 29.2958C46.108 29.2797 46.0433 29.2473 46.0109 29.2635C45.8815 29.3605 45.7521 29.4576 45.6551 29.587C45.5742 29.684 45.5418 29.8296 45.4933 29.959C45.4448 30.1369 45.283 30.2663 45.3477 30.5575ZM29.1241 27.9857C29.1079 28.0342 29.0594 28.0665 29.0594 28.1151C29.1403 28.5356 29.3505 28.8591 29.7064 29.0856C29.7873 29.1341 29.9005 29.1664 30.0137 29.1826C30.0299 29.1826 30.0784 29.1179 30.0946 29.0694C30.1108 29.0532 30.0946 29.0209 30.0946 28.9885C29.8843 28.6165 29.674 28.2445 29.2858 28.018C29.2373 28.0018 29.1726 28.0018 29.1241 27.9857ZM37.3734 43.5462C37.4381 43.53 37.5999 43.5138 37.7454 43.4653C37.8101 43.4491 37.891 43.4006 37.9072 43.3035C37.9072 43.2227 37.8425 43.0609 37.7616 43.0447C37.5837 42.9962 37.4057 42.9477 37.2116 42.9315C36.969 42.9315 36.7264 42.9477 36.5808 43.1741C36.4999 43.3035 36.8558 43.5138 37.2116 43.53C37.2278 43.5462 37.244 43.5462 37.3734 43.5462ZM41.5951 27.468C41.3525 27.5813 41.1746 27.7107 41.1746 27.9533C41.1584 28.1959 41.1746 28.4386 41.1907 28.6812C41.1907 28.7135 41.2069 28.7459 41.2231 28.7621C41.2716 28.8106 41.3363 28.8753 41.401 28.9076C41.4172 28.9238 41.4981 28.8753 41.5142 28.8268C41.7569 28.4062 41.773 27.9695 41.5951 27.468ZM36.694 34.4234C36.7264 34.4072 36.7426 34.4072 36.7587 34.391C37.0175 34.0837 37.0984 33.7278 37.0499 33.3396C37.0499 33.3073 37.0337 33.2911 37.0175 33.2588C36.9852 33.1617 36.8234 33.1294 36.7426 33.1779C36.5485 33.3073 36.4514 33.4852 36.4676 33.7278C36.5161 33.9705 36.5646 34.2131 36.694 34.4234ZM37.5028 32.9029C37.519 32.9838 37.519 33.0485 37.5513 33.0808C37.5837 33.1132 37.6322 33.1617 37.6646 33.1617C37.7131 33.1617 37.7778 33.1294 37.794 33.097C37.9719 32.7411 38.1175 32.3529 38.1013 31.9486C38.1013 31.9 38.0689 31.803 38.0366 31.803C37.9719 31.803 37.8587 31.8192 37.8263 31.8515C37.5675 32.175 37.5513 32.5632 37.5028 32.9029ZM37.6646 25.2521C37.3734 25.3491 37.1146 25.4785 36.8881 25.6564C36.7587 25.7535 36.6455 25.8667 36.6455 26.0608C36.6455 26.0932 36.694 26.174 36.7264 26.174C37.0337 26.1579 37.3087 26.0446 37.5352 25.8667C37.7293 25.7211 37.794 25.5109 37.6646 25.2521ZM40.5761 27.5813C40.6408 27.5651 40.7055 27.5813 40.7217 27.5489C40.8187 27.4195 40.9158 27.2901 40.9805 27.1445C41.126 26.8372 41.0937 26.5137 40.9158 26.2226C40.8834 26.174 40.8025 26.1255 40.7378 26.1093C40.7217 26.1093 40.657 26.174 40.6408 26.2226C40.5923 26.5946 40.5437 26.9666 40.4952 27.3386C40.5276 27.4195 40.5599 27.5004 40.5761 27.5813ZM37.0337 32.1103C37.0175 32.0294 37.0014 31.9162 36.9528 31.8353C36.9043 31.7545 36.8073 31.6898 36.7102 31.6412C36.6132 31.5927 36.4352 31.7221 36.3867 31.8192C36.3705 31.8677 36.3382 31.9162 36.3382 31.9647C36.3058 32.1912 36.3382 32.3853 36.4838 32.5632C36.5323 32.6279 36.5808 32.6764 36.6779 32.6603C36.7911 32.6441 36.9043 32.6117 36.9367 32.5147C36.9852 32.4015 36.9852 32.2559 37.0337 32.1103ZM37.1308 35.7659C37.3734 35.7174 37.6322 35.685 37.891 35.6203C37.9881 35.588 38.0528 35.4909 38.1336 35.41C38.1983 35.3453 38.1336 35.1836 38.0366 35.1512C37.5837 35.0704 37.1793 35.1998 36.8558 35.5233C36.8396 35.5395 36.8558 35.6365 36.872 35.6527C36.9367 35.7174 37.0175 35.7336 37.1308 35.7659ZM35.7559 25.7697C35.8368 25.6564 35.8206 25.5109 35.7882 25.3815C35.7074 25.0741 35.5941 24.783 35.4324 24.508C35.4 24.4595 35.3515 24.4433 35.2868 24.4756C35.2706 24.4918 35.2383 24.4918 35.2221 24.508C35.1089 24.6697 35.0765 24.8638 35.1736 25.0418C35.303 25.2682 35.4647 25.4947 35.6103 25.705C35.6427 25.7373 35.7074 25.7373 35.7559 25.7697ZM28.7682 33.9058C28.8006 34.0513 28.8815 34.1322 28.9785 34.1646C29.3991 34.3101 29.7711 34.1646 30.1108 33.9219C30.1269 33.9058 30.1269 33.8572 30.1269 33.8572C30.0946 33.8249 30.0622 33.7602 30.0299 33.7602C29.5932 33.6631 29.1726 33.7602 28.7682 33.9058ZM36.047 28.39C36.0632 28.4062 36.0956 28.4386 36.1117 28.4224C36.5161 28.39 36.9043 28.293 37.2764 28.1312C37.3411 28.0989 37.4058 28.0342 37.4381 27.9695C37.4705 27.9048 37.4704 27.8077 37.4543 27.743C37.4219 27.646 37.3249 27.6621 37.2602 27.6783C36.9367 27.8077 36.6132 27.9371 36.2897 28.0665C36.1441 28.1474 36.047 28.2445 36.047 28.39ZM47.4829 29.8296C47.3049 29.8134 47.127 29.7973 46.9329 29.7973C46.7873 29.7973 46.6741 29.862 46.6094 29.9914C46.5447 30.1046 46.48 30.2178 46.4315 30.331C46.7226 30.5252 46.9653 30.3796 47.1917 30.2663C47.3373 30.1855 47.5152 30.0884 47.4829 29.8296ZM36.1926 25.1388C36.3705 24.9771 36.4352 24.8315 36.4029 24.6536C36.3544 24.3624 36.3058 24.0713 36.2411 23.7963C36.2411 23.7801 36.1441 23.7639 36.1117 23.7801C35.8853 23.9742 35.8206 24.1683 35.9015 24.4109C35.9985 24.6374 36.0956 24.8638 36.1926 25.1388ZM39.7188 29.8296C39.6864 29.8458 39.6541 29.862 39.6379 29.8781C39.6217 29.9267 39.6056 30.0075 39.6217 30.0237C39.7188 30.1046 39.832 30.2178 39.9452 30.2502C40.2688 30.3634 40.6084 30.4766 40.8996 30.6707C40.9158 30.6869 40.9805 30.6222 40.9966 30.5899C41.0128 30.5737 41.0128 30.5252 40.9966 30.509C40.9319 30.4281 40.8672 30.3311 40.7864 30.2663C40.5276 30.0722 40.2364 29.9428 39.9129 29.8458C39.8805 29.8296 39.7997 29.8458 39.7188 29.8296ZM41.9833 29.2958C41.9348 29.312 41.8701 29.312 41.8539 29.3444C41.676 29.7326 41.5628 30.1369 41.5628 30.5737C41.5628 30.606 41.5789 30.6222 41.5951 30.6546C41.6113 30.6707 41.6275 30.6869 41.6436 30.6869C41.676 30.6869 41.7083 30.6707 41.7245 30.6546C41.9995 30.234 42.048 29.9428 41.9833 29.2958ZM36.969 42.3654C37.0175 42.3654 37.0822 42.3654 37.1308 42.3492C37.4219 42.2198 37.6484 41.9933 37.8101 41.7184C37.8263 41.686 37.8101 41.6051 37.794 41.5728C37.7616 41.5404 37.6969 41.5081 37.6646 41.5243C37.2925 41.6537 37.0337 41.8963 36.9043 42.2683C36.872 42.2845 36.9367 42.3168 36.969 42.3654ZM40.1717 42.2198C40.0099 42.4948 39.8805 42.6889 39.7673 42.8991C39.8158 42.9315 39.8644 42.98 39.8967 42.98C40.204 42.9639 40.4467 42.8021 40.6246 42.5433C40.6731 42.4624 40.6246 42.333 40.5114 42.2845C40.4143 42.2683 40.3011 42.2521 40.1717 42.2198ZM28.9623 29.3929C28.7035 29.1179 28.38 29.037 28.008 29.1017C27.9918 29.1017 27.9433 29.1341 27.9433 29.1503C27.9433 29.1988 27.9271 29.2635 27.9595 29.2958C28.0403 29.3929 28.1374 29.5061 28.2506 29.5708C28.4771 29.7002 28.7359 29.6355 28.9623 29.3929ZM29.9975 29.7487C29.6417 29.684 29.3667 29.8458 29.1079 30.0237C29.0917 30.0399 29.1079 30.1208 29.1241 30.1531C29.1564 30.1855 29.205 30.2178 29.2535 30.234C29.577 30.2987 29.8843 30.2178 30.1431 30.0237C30.1755 29.9914 30.1916 29.9428 30.2078 29.8943C30.224 29.8458 30.1916 29.7973 30.1269 29.7811C30.0946 29.7811 30.0299 29.7649 29.9975 29.7487ZM41.1746 31.7221C41.1099 31.6736 41.1584 31.6736 41.1746 31.6089C41.1907 31.5604 41.1746 31.4957 41.1422 31.4633C40.8672 31.2207 40.5761 30.9781 40.204 30.8648C40.1717 30.8487 40.1232 30.8972 40.0746 30.9295C40.0585 30.9457 40.0746 30.9781 40.0746 31.0104C40.107 31.1722 40.2364 31.2854 40.382 31.3663C40.5923 31.4795 40.8187 31.5604 41.1746 31.7221ZM46.6256 31.0589C46.5932 31.0104 46.5771 30.9619 46.5285 30.9295C46.2536 30.7678 45.9624 30.8163 45.7036 30.9781C45.6712 30.9942 45.6551 31.0589 45.6389 31.1075C45.6227 31.1722 45.6551 31.2045 45.7198 31.2207C46.0595 31.3177 46.3506 31.253 46.6256 31.0589ZM38.6351 32.822C38.6836 32.8544 38.7321 32.9029 38.7645 32.9029C39.088 32.8705 39.2982 32.6926 39.4438 32.4176C39.4762 32.3529 39.3953 32.2559 39.3144 32.2559C39.2174 32.2721 39.088 32.2721 39.0071 32.3206C38.813 32.4338 38.6674 32.5956 38.6351 32.822ZM38.538 43.7079C38.6998 43.7241 38.8615 43.6756 39.0071 43.5947C39.0718 43.5623 39.1527 43.4976 39.185 43.4329C39.2174 43.3682 39.2335 43.2874 39.2174 43.2065C39.2174 43.1741 39.1365 43.1418 39.088 43.1256C39.0071 43.1094 38.9262 43.1256 38.8453 43.1256C38.7321 43.1418 38.6189 43.1418 38.5542 43.2388C38.4733 43.4006 38.4086 43.5623 38.538 43.7079ZM33.1355 33.372C33.1193 33.4205 33.0708 33.4529 33.0708 33.5014C33.0546 33.8249 33.2002 34.116 33.362 34.3748C33.3781 34.4072 33.4428 34.4072 33.4914 34.4072C33.5075 34.4072 33.5237 34.3748 33.5237 34.3425C33.5561 34.1322 33.4914 33.9219 33.3943 33.7278C33.3458 33.5984 33.3134 33.4367 33.1355 33.372ZM44.8787 29.7002C44.4743 29.9752 44.4258 30.0399 44.3125 30.3957C44.3125 30.4119 44.3125 30.4443 44.3125 30.4766C44.3287 30.4928 44.3449 30.5252 44.3611 30.5413C44.3772 30.5575 44.4096 30.5575 44.4258 30.5413C44.7169 30.3634 44.8625 30.1046 44.911 29.7649C44.9272 29.7487 44.8948 29.7164 44.8787 29.7002ZM45.4286 31.6574C45.0889 31.4148 45.0889 31.3986 44.5875 31.3986C44.911 31.7059 45.1213 31.7706 45.4286 31.6574ZM31.0166 29.2311C30.9357 29.0209 30.7901 28.8591 30.6284 28.7297C30.6122 28.7135 30.5475 28.7297 30.5151 28.7297C30.499 28.7297 30.4828 28.7782 30.499 28.7944C30.5475 28.9238 30.5798 29.037 30.6445 29.1503C30.6769 29.215 30.7578 29.2635 30.8225 29.2797C30.871 29.2958 30.9519 29.2473 31.0166 29.2311Z" fill="#122C33"/>
</svg>
