<svg width="128" height="128" viewBox="0 0 128 128" fill="none" xmlns="http://www.w3.org/2000/svg">
<g clip-path="url(#clip0_15628_89746)">
<path d="M64 128C99.3462 128 128 99.3462 128 64C128 28.6538 99.3462 0 64 0C28.6538 0 0 28.6538 0 64C0 99.3462 28.6538 128 64 128Z" fill="#364253"/>
<path d="M63.5927 24.0079C69.4172 24.0079 75.2417 23.9901 81.0662 24.0168C85.0184 24.0346 86.8048 25.8814 86.8167 29.8714C86.8226 32.2903 86.8463 34.7122 86.8107 37.1311C86.7604 40.5401 84.8436 42.4046 81.4366 42.4046C70.2823 42.4046 59.1251 42.4046 47.9709 42.4046C44.3624 42.4046 42.4723 44.2485 42.4575 47.8413C42.4426 51.6445 42.4812 55.4478 42.4663 59.251C42.4515 62.6926 40.4844 64.6224 37.024 64.6343C34.4584 64.6402 31.8898 64.6461 29.3242 64.6343C26.0801 64.6195 24.0567 62.6452 24.03 59.3755C23.9915 54.7838 23.9885 50.189 24.03 45.5972C24.0596 42.2416 26.0772 40.2703 29.4042 40.2466C31.478 40.2318 33.5518 40.2673 35.6227 40.2377C38.3365 40.1992 40.2444 38.2546 40.2622 35.5362C40.274 33.5116 40.2622 31.4869 40.2622 29.4623C40.2711 26.0088 42.2175 24.0227 45.6749 24.0109C51.6475 23.9901 57.6201 24.0049 63.5927 24.0079Z" fill="white"/>
<path d="M64.8281 86.5587C70.2556 86.5587 75.6861 86.5617 81.1136 86.5587C84.9442 86.5587 86.5766 84.9076 86.5796 81.048C86.5796 77.3929 86.6388 73.7379 86.5529 70.0858C86.4789 67.0177 88.3216 64.2016 92.2026 64.4358C94.9075 64.5988 97.6301 64.4476 100.344 64.4862C103.07 64.5247 104.96 66.4308 104.974 69.1817C105.001 74.1203 105.001 79.0589 104.963 83.9945C104.942 86.7425 103.07 88.6278 100.323 88.699C98.2019 88.7523 96.0777 88.699 93.9565 88.7286C90.5288 88.7731 88.8697 90.4123 88.8193 93.8125C88.7897 95.7867 88.843 97.7639 88.7956 99.7382C88.7127 103.209 86.8699 104.988 83.4037 104.991C71.5088 104.991 59.6169 104.994 47.722 104.991C44.1846 104.991 42.3359 103.144 42.3241 99.6137C42.3152 96.8983 42.3033 94.183 42.3359 91.4647C42.3685 88.8146 43.9743 87.0271 46.6169 86.6713C47.3457 86.5735 48.0923 86.5617 48.83 86.5617C54.1597 86.5528 59.4895 86.5557 64.8192 86.5587H64.8281Z" fill="white"/>
<path d="M73.8582 64.4979C73.8582 65.7815 73.8671 67.065 73.8582 68.3486C73.8286 71.5797 71.8999 73.6607 68.6766 73.7645C65.9658 73.8534 63.2491 73.8623 60.5383 73.7556C57.3357 73.6311 55.3952 71.4967 55.3863 68.2804C55.3804 65.6659 55.3715 63.0483 55.3952 60.4308C55.4219 57.3864 57.4038 55.2966 60.4553 55.2165C63.2639 55.1424 66.0813 55.1424 68.8899 55.2284C71.891 55.3203 73.8138 57.3627 73.8582 60.3508C73.8789 61.7322 73.8612 63.1136 73.8582 64.4979Z" fill="white"/>
</g>
<defs>
<clipPath id="clip0_15628_89746">
<rect width="128" height="128" fill="white"/>
</clipPath>
</defs>
</svg>
