<svg width="72" height="72" viewBox="0 0 72 72" fill="none" xmlns="http://www.w3.org/2000/svg">
<path d="M23.8034 18.2988L56.9477 41.3973L48.7507 53.7649L15.6064 30.4846L23.8034 18.2988Z" fill="#8D98A8"/>
<path d="M56.9476 41.3975C54.0965 45.5807 44.474 43.9438 35.386 37.3962C26.1199 31.0305 21.1304 22.4823 23.8034 18.2991C26.6545 14.1159 36.277 15.7528 45.365 22.3004C54.6311 28.4842 59.6206 37.2143 56.9476 41.3975Z" fill="#8D98A8"/>
<path d="M48.7511 53.5833C45.9 57.7665 36.2775 56.1296 27.1895 49.582C18.1016 43.0344 12.9339 34.6681 15.7851 30.303C18.6362 26.1198 28.2587 27.7567 37.3466 34.3043C46.4346 40.8519 51.424 49.4001 48.7511 53.5833Z" fill="#8D98A8"/>
<path d="M56.9482 41.3971L48.7512 53.7647C45.9001 57.9479 36.2776 56.1291 27.1897 49.7634C25.4077 48.4903 23.804 47.2171 22.2002 45.7621C23.4476 45.5802 25.0513 44.8527 26.6551 43.0339C29.5062 39.942 30.9317 39.2145 32.1791 39.3964C33.4265 39.3964 34.852 40.6695 37.1686 43.7615C39.4851 46.8534 42.6926 47.7628 44.6528 46.1259C44.831 45.944 45.0092 45.944 45.1873 45.7621C46.7911 44.489 47.3257 43.9433 50.355 38.1233C51.0678 36.6682 53.5625 34.3038 56.9482 35.3951C57.8392 37.7595 57.8392 39.7602 56.9482 41.3971Z" fill="#364253"/>
<path fill-rule="evenodd" clip-rule="evenodd" d="M55.7009 40.6703C53.2061 44.3078 44.4746 42.4891 36.0994 36.4871C27.5461 30.4852 22.5566 22.8463 25.0513 19.2088C27.5461 15.5712 36.2776 17.39 44.6528 23.3919C53.028 29.3939 58.0174 37.0327 55.7009 40.6703ZM47.8603 35.214C46.6129 37.0327 42.3363 36.1234 38.0596 33.2133C33.9611 30.3033 31.4664 26.4839 32.7137 24.6651C33.9611 22.8463 38.2378 23.7557 42.5144 26.6657C46.6129 29.5758 49.1077 33.3952 47.8603 35.214Z" fill="white"/>
<path d="M23.0907 22.4828C23.0907 22.3009 22.9125 22.119 22.7343 22.3009C22.5561 22.4828 22.3779 22.4828 22.3779 22.6647C22.5561 23.2103 22.7343 23.5741 22.7343 23.9378C22.7343 24.1197 22.9125 24.3016 23.0907 24.1197C23.2689 24.1197 23.4471 23.9378 23.2689 23.7559C23.2689 23.3922 23.2689 23.0284 23.0907 22.4828Z" fill="white"/>
<path d="M23.9819 25.393C23.9819 25.2111 23.8037 25.0292 23.6255 25.2111C23.4473 25.393 23.4473 25.393 23.4473 25.5748C25.4074 30.1218 29.5059 35.0325 34.8517 38.67C35.0299 38.8519 35.2081 38.67 35.3863 38.67C35.5645 38.4881 35.3863 38.3063 35.3863 38.1244C29.8623 34.4868 25.942 29.758 23.9819 25.393Z" fill="white"/>
<path d="M45.5429 43.2168C45.3647 43.2168 45.1865 43.2168 45.1865 43.3987C45.1865 43.5806 45.1865 43.7624 45.3647 43.7624C45.8993 43.9443 46.6121 44.1262 47.1467 44.3081C47.3249 44.3081 47.5031 44.3081 47.5031 44.1262C47.5031 43.9443 47.5031 43.7624 47.3249 43.7624C46.7903 43.5806 46.0775 43.3987 45.5429 43.2168Z" fill="white"/>
<path d="M48.7509 43.9443C48.5727 43.9443 48.3945 44.1262 48.3945 44.3081C48.3945 44.49 48.5727 44.6718 48.7509 44.6718C50.1765 44.8537 51.7802 45.0356 53.0276 44.8537C53.2058 44.8537 53.384 44.6718 53.384 44.49C53.384 44.3081 53.2058 44.1262 53.0276 44.1262C51.602 44.3081 50.1765 44.1262 48.7509 43.9443Z" fill="white"/>
</svg>
