<svg width="128" height="128" viewBox="0 0 128 128" fill="none" xmlns="http://www.w3.org/2000/svg">
<path d="M27.3654 11.7783L125.096 79.8877L100.926 116.356L3.19531 47.71L27.3654 11.7783Z" fill="#8D98A8"/>
<path d="M125.096 79.8886C116.689 92.2234 88.3158 87.3967 61.5185 68.0901C34.1958 49.3198 19.4836 24.114 27.3652 11.7792C35.7721 -0.555545 64.1457 4.2711 90.9429 23.5777C118.266 41.8117 132.978 67.5538 125.096 79.8886Z" fill="#8D98A8"/>
<path d="M100.925 115.821C92.5179 128.156 64.1443 123.329 37.3471 104.022C10.5498 84.7158 -4.68782 60.0463 3.71916 47.1752C12.1261 34.8404 40.4997 39.6671 67.2969 58.9737C94.0942 78.2803 108.806 103.486 100.925 115.821Z" fill="#8D98A8"/>
<path d="M125.092 79.8904L100.922 116.358C92.5153 128.693 64.1418 123.33 37.3445 104.56C32.0902 100.806 27.3612 97.0518 22.6323 92.7615C26.3104 92.2252 31.0393 90.08 35.7682 84.7171C44.1752 75.6001 48.3787 73.4549 52.0567 73.9912C55.7348 73.9912 59.9383 77.7452 66.769 86.8622C73.5996 95.9792 83.0575 98.6607 88.8373 93.8341C89.3627 93.2978 89.8882 93.2978 90.4136 92.7615C95.1425 89.0074 96.7188 87.3985 105.651 70.2371C107.753 65.9468 115.109 58.9749 125.092 62.1927C127.72 69.1645 127.72 75.0638 125.092 79.8904Z" fill="#364253"/>
<path fill-rule="evenodd" clip-rule="evenodd" d="M121.417 77.7445C114.061 88.4703 88.3147 83.1074 63.6192 65.4097C38.3982 47.712 23.686 25.1876 31.0421 14.4617C38.3982 3.73583 64.1446 9.09877 88.8401 26.7965C113.536 44.4942 128.248 67.0186 121.417 77.7445ZM98.298 61.6556C94.6199 67.0186 82.0094 64.3371 69.399 55.7564C57.3139 47.1757 49.9578 35.9135 53.6359 30.5505C57.3139 25.1876 69.9244 27.8691 82.5349 36.4498C94.6199 45.0305 101.976 56.2927 98.298 61.6556Z" fill="white"/>
<path d="M25.2639 24.1126C25.2639 23.5763 24.7384 23.04 24.213 23.5763C23.6875 24.1126 23.1621 24.1126 23.1621 24.6489C23.6875 26.2577 24.213 27.3303 24.213 28.4029C24.213 28.9392 24.7384 29.4755 25.2639 28.9392C25.7893 28.9392 26.3147 28.4029 25.7893 27.8666C25.7893 26.794 25.7893 25.7214 25.2639 24.1126Z" fill="white"/>
<path d="M27.8888 32.6935C27.8888 32.1572 27.3634 31.6209 26.8379 32.1572C26.3125 32.6935 26.3125 32.6935 26.3125 33.2298C32.0923 46.6371 44.1773 61.1171 59.9404 71.843C60.4658 72.3793 60.9913 71.843 61.5167 71.843C62.0421 71.3067 61.5167 70.7704 61.5167 70.2341C45.2282 59.5082 33.6686 45.5646 27.8888 32.6935Z" fill="white"/>
<path d="M91.4676 85.2534C90.9422 85.2534 90.4167 85.2534 90.4167 85.7897C90.4167 86.326 90.4168 86.8623 90.9422 86.8623C92.5185 87.3986 94.6202 87.9349 96.1965 88.4712C96.722 88.4712 97.2474 88.4712 97.2474 87.9349C97.2474 87.3986 97.2474 86.8623 96.722 86.8623C95.1457 86.326 93.0439 85.7897 91.4676 85.2534Z" fill="white"/>
<path d="M100.924 87.3954C100.399 87.3954 99.8733 87.9317 99.8733 88.468C99.8733 89.0043 100.399 89.5406 100.924 89.5406C105.128 90.0769 109.857 90.6132 113.535 90.0769C114.06 90.0769 114.586 89.5406 114.586 89.0043C114.586 88.468 114.06 87.9317 113.535 87.9317C109.331 88.468 105.128 87.9317 100.924 87.3954Z" fill="white"/>
</svg>
