<svg width="128" height="128" viewBox="0 0 128 128" fill="none" xmlns="http://www.w3.org/2000/svg">
<g clip-path="url(#clip0_9494_69138)">
<g clip-path="url(#clip1_9494_69138)">
<path d="M63.9931 127.986C99.3355 127.986 127.986 99.3355 127.986 63.9931C127.986 28.6507 99.3355 0 63.9931 0C28.6507 0 0 28.6507 0 63.9931C0 99.3355 28.6507 127.986 63.9931 127.986Z" fill="#364253"/>
<path d="M42.9149 48.0831C42.4033 47.4481 41.6272 47.0953 40.7982 47.0953H23.7063C23.5652 47.0953 23.4418 47.0424 23.3359 46.9542C23.2477 46.866 23.1948 46.7602 23.1948 46.6367V35.1186C23.1948 34.9952 23.2477 34.8893 23.3359 34.8011C23.4418 34.6953 23.5652 34.6424 23.7063 34.66H41.7683C46.3191 34.66 50.2525 36.5297 53.5686 40.2515L57.9606 45.6136L49.4059 56.0381L42.9149 48.0831ZM74.4881 40.1986C77.7865 36.5121 81.7376 34.66 86.3413 34.66H104.35C104.474 34.6424 104.597 34.6953 104.685 34.7659C104.774 34.8541 104.809 34.9775 104.791 35.1186V46.6367C104.791 46.7602 104.756 46.866 104.685 46.9542C104.597 47.06 104.474 47.1129 104.35 47.0953H87.2585C86.4471 47.0777 85.671 47.4481 85.1418 48.0831L72.5478 63.4111L85.1947 78.8449C85.7063 79.427 86.4647 79.7797 87.2408 79.7621H104.333C104.456 79.7445 104.597 79.815 104.668 79.9032C104.738 80.009 104.791 80.1502 104.774 80.2736V91.7917C104.774 91.9151 104.738 92.021 104.668 92.1092C104.58 92.215 104.456 92.2679 104.333 92.2503H86.3413C81.7376 92.2503 77.8218 90.3806 74.541 86.6588L64.0636 73.8708L53.5862 86.6588C50.2878 90.3806 46.3368 92.2503 41.7331 92.2503H23.7063C23.5829 92.2679 23.4418 92.1974 23.3712 92.1092C23.283 92.0033 23.2477 91.8622 23.2654 91.7388V80.2207C23.2654 80.0972 23.3007 79.9914 23.3712 79.9032C23.4594 79.7974 23.5829 79.7445 23.7063 79.7621H40.7982C41.6096 79.7621 42.3857 79.3917 42.9149 78.7743L55.2796 63.6756L74.4881 40.1986Z" fill="white"/>
</g>
</g>
<defs>
<clipPath id="clip0_9494_69138">
<rect width="128" height="128" fill="white"/>
</clipPath>
<clipPath id="clip1_9494_69138">
<rect width="128" height="128" fill="white"/>
</clipPath>
</defs>
</svg>
