<svg width="72" height="72" viewBox="0 0 72 72" fill="none" xmlns="http://www.w3.org/2000/svg">
<path d="M36 56C47.0457 56 56 47.0457 56 36C56 24.9543 47.0457 16 36 16C24.9543 16 16 24.9543 16 36C16 47.0457 24.9543 56 36 56Z" fill="#364253"/>
<path d="M29.4132 31.0282C29.2533 30.8298 29.0108 30.7195 28.7517 30.7195H23.4099C23.3658 30.7195 23.3272 30.703 23.2941 30.6754C23.2665 30.6479 23.25 30.6148 23.25 30.5762V26.9764C23.25 26.9378 23.2665 26.9048 23.2941 26.8772C23.3272 26.8441 23.3658 26.8276 23.4099 26.8331H29.0549C30.4771 26.8331 31.7065 27.4174 32.7428 28.5806L34.1155 30.2565L31.4418 33.5145L29.4132 31.0282ZM39.2809 28.5641C40.3117 27.4119 41.5466 26.8331 42.9854 26.8331H48.6138C48.6524 26.8276 48.691 26.8441 48.7186 26.8662C48.7461 26.8937 48.7572 26.9323 48.7517 26.9764V30.5762C48.7517 30.6148 48.7406 30.6479 48.7186 30.6754C48.691 30.7085 48.6524 30.7251 48.6138 30.7195H43.2721C43.0185 30.714 42.7759 30.8298 42.6105 31.0282L38.6745 35.8188L42.6271 40.6424C42.7869 40.8243 43.024 40.9345 43.2665 40.929H48.6083C48.6469 40.9235 48.691 40.9456 48.7131 40.9731C48.7351 41.0062 48.7517 41.0503 48.7461 41.0889V44.6887C48.7461 44.7273 48.7351 44.7603 48.7131 44.7879C48.6855 44.821 48.6469 44.8375 48.6083 44.832H42.9854C41.5466 44.832 40.3228 44.2477 39.2974 43.0845L36.0229 39.0878L32.7483 43.0845C31.7175 44.2477 30.4826 44.832 29.0438 44.832H23.4099C23.3713 44.8375 23.3272 44.8155 23.3051 44.7879C23.2776 44.7548 23.2665 44.7107 23.2721 44.6721V41.0723C23.2721 41.0338 23.2831 41.0007 23.3051 40.9731C23.3327 40.94 23.3713 40.9235 23.4099 40.929H28.7517C29.0052 40.929 29.2478 40.8133 29.4132 40.6203L33.2776 35.9015L39.2809 28.5641Z" fill="white"/>
</svg>
