<svg width="128" height="128" viewBox="0 0 128 128" fill="none" xmlns="http://www.w3.org/2000/svg">
<g clip-path="url(#clip0_7887_40959)">
<path d="M51.945 29.1242C50.5517 28.9195 50.4743 28.8684 51.1451 28.7916C52.4094 28.5869 55.3508 28.8684 57.4149 29.329C62.214 30.4548 66.5229 33.3463 71.1156 38.4384L72.3025 39.8202L74.0312 39.5643C81.4104 38.3873 88.9961 39.3084 95.3433 42.1999C97.072 42.9932 99.807 44.5797 100.142 44.9635C100.271 45.0914 100.478 45.9614 100.607 46.8058C101.071 49.902 100.865 52.2306 99.8844 53.9962C99.3425 54.9941 99.3425 55.25 99.6779 56.12C99.936 56.7853 100.736 57.2459 101.484 57.2459C103.084 57.2459 104.735 54.7383 105.535 51.2326L105.87 49.8509L106.464 50.5162C109.87 54.2777 112.527 59.4977 112.914 63.1824L113.043 64.1804L112.45 63.3104C111.443 61.8007 110.515 60.8027 109.25 59.9327C106.98 58.423 104.58 57.9624 98.2589 57.6298C92.5309 57.2971 89.2799 56.8365 86.0805 55.7874C80.6106 53.9962 77.824 51.6932 71.3736 43.1723C68.5096 39.4108 66.7035 37.3637 64.9232 35.6493C61.0014 31.8878 57.0537 29.9175 51.945 29.1242Z" fill="#364253"/>
<path d="M101.533 37.4918C101.662 34.9842 101.997 33.3209 102.72 31.8112C102.978 31.2227 103.261 30.6853 103.313 30.6853C103.39 30.6853 103.236 31.1459 103.055 31.6833C102.513 33.1418 102.462 35.1889 102.797 37.4918C103.261 40.4601 103.468 40.8695 106.667 44.0936C108.138 45.6034 109.867 47.5225 110.537 48.3157L111.673 49.7743L110.537 48.7251C109.144 47.3945 105.945 44.8869 105.222 44.5542C104.758 44.2983 104.681 44.2983 104.345 44.631C104.087 44.8869 104.01 45.2963 104.01 47.2154C103.932 50.1837 103.545 52.0261 102.539 53.9452C101.997 54.9431 101.946 54.7384 102.41 53.6125C102.745 52.7425 102.797 52.3587 102.797 49.5184C102.797 43.7866 102.126 42.3792 98.0753 40.0763C97.069 39.4877 95.3403 38.6177 94.3599 38.1571C93.302 37.6965 92.5022 37.2871 92.5538 37.2871C92.6828 37.1592 96.6046 38.2851 98.1527 38.9248C100.475 39.846 100.888 39.9227 101.146 39.846C101.326 39.6924 101.455 39.1551 101.533 37.4918Z" fill="#364253"/>
<path d="M54.6744 47.3445C51.8878 43.5062 50.0817 37.5697 50.4687 33.1429L50.5977 31.7611L51.2686 31.8891C52.4554 32.0938 54.5196 32.887 55.5258 33.4755C58.1834 35.062 59.3961 37.237 60.5055 42.6618C60.841 44.2483 61.3054 46.0906 61.5118 46.6792C61.8472 47.6771 63.1115 49.9801 64.1694 51.4386C64.8918 52.4877 64.4274 53.0251 62.7761 52.8971C60.2475 52.6157 56.8675 50.3127 54.6744 47.3445Z" fill="#364253"/>
<path d="M98.1252 76.0542C84.9406 70.783 80.2963 66.2283 80.2963 58.5006C80.2963 57.3747 80.3737 56.4535 80.3737 56.4535C80.4511 56.4535 80.9155 56.8373 81.5089 57.3235C84.1665 59.4473 87.1595 60.3685 95.4934 61.5456C100.344 62.2621 103.156 62.7994 105.685 63.6694C113.735 66.305 118.741 71.7298 119.928 79.0481C120.263 81.1719 120.057 85.1893 119.541 87.2875C119.076 88.9252 117.734 91.9702 117.399 92.047C117.322 92.047 117.193 91.7143 117.193 91.177C117.064 88.4134 115.67 85.7522 113.322 83.7052C110.51 81.351 106.924 79.5598 98.1252 76.0542Z" fill="#364253"/>
<path d="M88.8138 78.2265C88.6848 77.2285 88.3494 75.9747 88.1429 75.4629L87.8075 74.465L88.401 75.1814C89.2782 76.1794 89.9232 77.3565 90.5425 79.0197C91.0069 80.2735 91.0069 80.6574 91.0069 82.7044C91.0069 84.6748 90.9295 85.1353 90.5425 86.2612C89.8716 88.0524 89.0718 89.3063 87.7559 90.688C85.3564 93.1189 82.2344 94.4495 77.7707 95.0381C76.9708 95.1148 74.7003 95.2939 72.7136 95.4219C67.7339 95.6778 64.4055 96.2151 61.3867 97.2643C60.9997 97.3922 60.5868 97.5201 60.5094 97.469C60.3804 97.341 62.4445 96.1384 64.0958 95.3451C66.418 94.2192 68.8175 93.6307 74.0811 92.7095C76.687 92.3257 79.3446 91.7883 80.0154 91.5324C86.6206 89.511 89.8716 84.4445 88.8138 78.2265Z" fill="#364253"/>
<path d="M94.8784 88.8699C93.1497 85.1084 92.7369 81.5516 93.6915 78.174C93.8205 77.8413 93.9495 77.5087 94.0785 77.5087C94.2075 77.5087 94.6204 77.7134 95.0074 77.9693C95.8072 78.5066 97.4586 79.4278 101.742 81.7308C107.134 84.6478 110.205 86.874 112.32 89.4585C114.178 91.7102 115.313 94.2691 115.855 97.442C116.191 99.2332 115.984 103.507 115.52 105.298C114.049 110.902 110.721 115.405 105.87 117.964C105.147 118.348 104.528 118.629 104.477 118.629C104.425 118.629 104.683 117.964 105.07 117.171C106.67 113.793 106.876 110.569 105.663 106.935C104.941 104.684 103.393 101.997 100.348 97.4165C96.6587 92.1708 95.8072 90.7635 94.8784 88.8699Z" fill="#364253"/>
<path d="M45.2853 109.065C50.2134 104.971 56.2767 102.079 61.8499 101.133C64.2494 100.749 68.2487 100.877 70.4418 101.465C73.9766 102.386 77.176 104.382 78.8273 106.813C80.427 109.193 81.1495 111.24 81.8977 115.795C82.1557 117.586 82.4912 119.428 82.5686 119.812C83.1104 122.192 84.1683 124.034 85.5099 125.032C87.5741 126.542 91.1605 126.619 94.6953 125.288C95.2888 125.083 95.8306 124.904 95.8306 124.955C95.9596 125.083 94.1793 126.286 92.9666 126.875C91.3153 127.745 89.9736 128 88.1675 128C84.9681 128 82.2332 126.363 80.04 123.062C79.5756 122.397 78.6467 120.477 77.8469 118.712C75.5247 113.364 74.3121 111.777 71.5771 109.986C69.1775 108.476 66.1071 108.144 63.785 109.27C60.7146 110.728 59.9148 114.618 62.0563 116.997C62.9335 117.995 64.5075 118.789 65.8491 118.968C68.3003 119.3 70.4418 117.381 70.4418 114.95C70.4418 113.364 69.8484 112.443 68.2487 111.726C66.1071 110.805 63.785 111.854 63.8624 113.901C63.8624 114.771 64.2494 115.283 65.1267 115.692C65.6685 115.948 65.6685 115.948 65.2557 115.897C63.3206 115.513 62.8561 113.134 64.3784 111.598C66.2362 109.756 70.158 110.549 71.4997 113.108C72.0415 114.157 72.0931 116.281 71.6287 117.586C70.4934 120.503 67.294 122.013 64.043 121.143C61.8499 120.554 60.921 119.966 58.2635 117.253C53.5934 112.494 51.8131 111.573 45.1562 110.575L43.892 110.37L45.2853 109.065Z" fill="#364253"/>
<path fill-rule="evenodd" clip-rule="evenodd" d="M10.2744 2.84044C25.7812 21.52 49.6735 50.5629 50.8862 52.1493C51.8924 53.4799 51.4796 54.7338 49.8283 55.6549C48.8994 56.1923 46.9643 56.7041 46.0355 56.7041C44.9776 56.7041 43.7133 56.1667 42.8361 55.3223C42.2426 54.7338 39.6367 50.9723 33.7797 41.914C29.316 34.9795 25.5232 29.2477 25.4716 29.1709C25.2136 29.043 25.2136 29.043 33.3153 43.4237C38.4498 52.4564 40.1011 55.7061 40.1011 56.09C40.1011 56.96 39.8431 57.4206 38.7594 58.5976C36.9533 60.5679 36.1535 62.8197 35.56 67.5024C34.8892 72.7224 33.1089 76.4072 27.9743 82.6763C24.9814 86.3611 24.5169 87.0264 23.7687 88.5617C22.8398 90.404 22.5818 91.4787 22.427 93.8329C22.298 96.3405 22.556 97.927 23.3043 100.307C23.9751 102.431 24.6975 103.812 26.5037 106.525C28.0259 108.904 28.9548 110.696 28.9548 111.335C28.9548 111.873 29.0838 111.873 31.4834 111.335C37.2113 110.005 41.933 107.779 44.539 104.989C46.1387 103.275 46.5257 102.354 46.5257 99.9741C46.5257 98.4644 46.4483 98.1317 46.0613 97.2105C45.3904 95.752 44.1262 94.5749 41.3912 92.7326C37.8048 90.3017 36.2567 88.3058 35.8696 85.6702C35.5342 83.4184 35.947 81.9087 37.9338 77.7378C39.9979 73.4389 40.5397 71.6733 40.8751 67.2977C41.0816 64.5341 41.417 63.4082 42.2168 62.5382C43.0941 61.6171 43.8165 61.2844 45.8807 61.0285C49.2865 60.5679 51.4796 59.6979 53.2083 58.0603C54.7306 56.6785 55.4014 55.2967 55.4789 53.2496L55.5563 51.7399L54.679 50.8187C51.5312 47.2619 8.21032 0.00012207 8.00391 0.00012207C7.9265 0.00012207 9.01017 1.25396 10.2744 2.84044ZM30.7093 96.7244C31.4318 95.4705 31.0447 93.8841 29.8321 93.0908C28.6968 92.3743 26.9681 92.707 26.9681 93.6794C26.9681 93.9352 27.0971 94.2167 27.5099 94.3447C28.1034 94.6773 28.1808 95.0099 27.7163 95.7264C27.2519 96.4429 27.2519 97.1082 27.8453 97.5688C28.7742 98.3109 30.0385 97.9014 30.7093 96.7244Z" fill="#364253"/>
<path fill-rule="evenodd" clip-rule="evenodd" d="M57.6713 62.0033C56.0716 62.4639 54.5493 64.1783 54.0848 65.8927C53.8268 66.9418 53.9558 68.861 54.4203 69.4495C55.1427 70.3707 55.8135 70.6266 57.6713 70.6266C61.3351 70.6266 64.4571 69.0401 64.7925 67.1209C65.1279 65.5345 63.7346 63.3594 61.7995 62.3615C60.7933 61.8497 58.7291 61.6706 57.6713 62.0033ZM61.9285 65.3042C62.4704 64.5109 62.264 63.6665 61.2577 63.0524C59.4516 61.9265 56.7424 62.8477 56.7424 64.5621C56.7424 65.4321 58.1357 66.3533 59.4774 66.3533C60.3288 66.3533 61.5157 65.8159 61.9285 65.3042Z" fill="#364253"/>
</g>
<defs>
<clipPath id="clip0_7887_40959">
<rect width="128" height="128" fill="white"/>
</clipPath>
</defs>
</svg>
