<svg width="72" height="72" viewBox="0 0 72 72" fill="none" xmlns="http://www.w3.org/2000/svg">
<path d="M31.7335 25.1017C31.2981 25.0377 31.2739 25.0218 31.4835 24.9978C31.8786 24.9338 32.7979 25.0218 33.4429 25.1657C34.9427 25.5176 36.2893 26.4212 37.7246 28.0126L38.0955 28.4444L38.6358 28.3644C40.9419 27.9966 43.3126 28.2844 45.2962 29.1881C45.8364 29.436 46.6911 29.9318 46.796 30.0517C46.8363 30.0917 46.9008 30.3636 46.9411 30.6275C47.0863 31.5951 47.0217 32.3228 46.7153 32.8746C46.546 33.1865 46.546 33.2665 46.6508 33.5383C46.7315 33.7463 46.9814 33.8902 47.2153 33.8902C47.7152 33.8902 48.2313 33.1065 48.4812 32.011L48.5861 31.5791L48.7715 31.787C49.8359 32.9626 50.6664 34.5939 50.7874 35.7455L50.8277 36.0573L50.6422 35.7854C50.3277 35.3136 50.0375 35.0018 49.6424 34.7299C48.9328 34.2581 48.1829 34.1141 46.2073 34.0102C44.4173 33.9062 43.4013 33.7623 42.4014 33.4344C40.692 32.8746 39.8211 32.1549 37.8053 29.492C36.9102 28.3164 36.3458 27.6767 35.7894 27.1409C34.5638 25.9654 33.3301 25.3496 31.7335 25.1017Z" fill="#364253"/>
<path d="M47.2306 27.717C47.271 26.9333 47.3758 26.4135 47.6016 25.9417C47.6822 25.7578 47.7709 25.5898 47.787 25.5898C47.8112 25.5898 47.7628 25.7338 47.7064 25.9017C47.537 26.3575 47.5209 26.9973 47.6257 27.717C47.7709 28.6446 47.8354 28.7726 48.8353 29.7802C49.2949 30.252 49.8351 30.8517 50.0448 31.0996L50.3996 31.5555L50.0448 31.2276C49.6093 30.8118 48.6095 30.0281 48.3837 29.9241C48.2386 29.8441 48.2144 29.8441 48.1095 29.9481C48.0289 30.0281 48.0047 30.156 48.0047 30.7558C47.9805 31.6834 47.8596 32.2592 47.5451 32.8589C47.3758 33.1708 47.3597 33.1068 47.5048 32.755C47.6096 32.4831 47.6257 32.3631 47.6257 31.4755C47.6257 29.6842 47.4161 29.2444 46.1501 28.5247C45.8357 28.3407 45.2954 28.0689 44.989 27.9249C44.6584 27.781 44.4084 27.653 44.4246 27.653C44.4649 27.613 45.6905 27.9649 46.1743 28.1648C46.9 28.4527 47.0291 28.4767 47.1097 28.4527C47.1661 28.4047 47.2064 28.2368 47.2306 27.717Z" fill="#364253"/>
<path d="M32.5865 30.7958C31.7156 29.5963 31.1512 27.7411 31.2721 26.3576L31.3125 25.9258L31.5221 25.9658C31.893 26.0297 32.5381 26.2776 32.8526 26.4616C33.6831 26.9574 34.0621 27.6371 34.4088 29.3324C34.5136 29.8282 34.6588 30.404 34.7233 30.5879C34.8281 30.8998 35.2232 31.6195 35.5538 32.0753C35.7796 32.4032 35.6344 32.5711 35.1184 32.5311C34.3282 32.4432 33.2719 31.7235 32.5865 30.7958Z" fill="#364253"/>
<path d="M46.1656 39.7681C42.0452 38.1208 40.5938 36.6974 40.5938 34.2823C40.5938 33.9305 40.6179 33.6426 40.6179 33.6426C40.6421 33.6426 40.7873 33.7625 40.9727 33.9145C41.8033 34.5782 42.7386 34.8661 45.3431 35.2339C46.859 35.4579 47.7379 35.6258 48.5282 35.8977C51.0439 36.7213 52.6082 38.4167 52.9792 40.7038C53.084 41.3675 53.0195 42.623 52.8582 43.2787C52.7131 43.7905 52.2938 44.7421 52.1889 44.7661C52.1648 44.7661 52.1244 44.6622 52.1244 44.4942C52.0841 43.6306 51.6487 42.7989 50.9149 42.1592C50.036 41.4235 48.9152 40.8637 46.1656 39.7681Z" fill="#364253"/>
<path d="M43.2556 40.447C43.2153 40.1351 43.1104 39.7433 43.0459 39.5834L42.9411 39.2715L43.1266 39.4954C43.4007 39.8073 43.6023 40.1751 43.7958 40.6949C43.941 41.0868 43.941 41.2067 43.941 41.8465C43.941 42.4622 43.9168 42.6062 43.7958 42.958C43.5862 43.5178 43.3362 43.9096 42.925 44.3415C42.1751 45.1012 41.1994 45.517 39.8044 45.7009C39.5545 45.7249 38.8449 45.7809 38.224 45.8209C36.6678 45.9008 35.6276 46.0688 34.6842 46.3966C34.5632 46.4366 34.4342 46.4766 34.41 46.4606C34.3697 46.4206 35.0148 46.0448 35.5308 45.7969C36.2565 45.445 37.0064 45.2611 38.6514 44.9732C39.4658 44.8533 40.2963 44.6853 40.506 44.6054C42.5702 43.9736 43.5862 42.3902 43.2556 40.447Z" fill="#364253"/>
<path d="M45.1509 43.7732C44.6106 42.5977 44.4816 41.4862 44.7799 40.4306C44.8203 40.3266 44.8606 40.2227 44.9009 40.2227C44.9412 40.2227 45.0702 40.2866 45.1912 40.3666C45.4412 40.5345 45.9572 40.8224 47.2957 41.5421C48.981 42.4538 49.9405 43.1495 50.6017 43.9572C51.1823 44.6609 51.5371 45.4606 51.7064 46.4522C51.8113 47.0119 51.7467 48.3474 51.6016 48.9072C51.142 50.6585 50.1018 52.0659 48.5859 52.8656C48.3601 52.9855 48.1666 53.0735 48.1505 53.0735C48.1343 53.0735 48.215 52.8656 48.3359 52.6177C48.8359 51.5621 48.9004 50.5545 48.5214 49.419C48.2956 48.7153 47.8118 47.8756 46.8603 46.4442C45.7072 44.8048 45.4412 44.365 45.1509 43.7732Z" fill="#364253"/>
<path d="M29.6522 50.0845C31.1923 48.805 33.0872 47.9013 34.8289 47.6055C35.5788 47.4855 36.8287 47.5255 37.5141 47.7094C38.6187 47.9973 39.6186 48.621 40.1347 49.3807C40.6346 50.1244 40.8604 50.7642 41.0942 52.1876C41.1749 52.7474 41.2797 53.3232 41.3039 53.4431C41.4732 54.1868 41.8038 54.7626 42.2231 55.0745C42.8682 55.5463 43.989 55.5703 45.0937 55.1544C45.2791 55.0905 45.4485 55.0345 45.4485 55.0505C45.4888 55.0905 44.9324 55.4663 44.5534 55.6502C44.0374 55.9221 43.6181 56.0021 43.0536 56.0021C42.0538 56.0021 41.199 55.4903 40.5137 54.4587C40.3685 54.2508 40.0782 53.651 39.8283 53.0993C39.1026 51.4279 38.7236 50.9321 37.8688 50.3723C37.1189 49.9005 36.1594 49.7966 35.4337 50.1484C34.4741 50.6043 34.2242 51.8198 34.8934 52.5635C35.1676 52.8753 35.6595 53.1232 36.0788 53.1792C36.8448 53.2832 37.5141 52.6834 37.5141 51.9237C37.5141 51.4279 37.3286 51.14 36.8287 50.9161C36.1594 50.6282 35.4337 50.9561 35.4579 51.5959C35.4579 51.8677 35.5788 52.0277 35.853 52.1556C36.0223 52.2356 36.0223 52.2356 35.8933 52.2196C35.2886 52.0997 35.1434 51.3559 35.6192 50.8761C36.1997 50.3004 37.4254 50.5483 37.8447 51.348C38.014 51.6758 38.0301 52.3396 37.885 52.7474C37.5302 53.659 36.5303 54.1308 35.5143 53.8589C34.8289 53.675 34.5387 53.4911 33.7081 52.6434C32.2486 51.156 31.6923 50.8681 29.6119 50.5563L29.2168 50.4923L29.6522 50.0845Z" fill="#364253"/>
<path fill-rule="evenodd" clip-rule="evenodd" d="M18.7108 16.8876C23.5569 22.7253 31.0236 31.8017 31.4026 32.2975C31.7171 32.7133 31.5881 33.1052 31.072 33.393C30.7817 33.561 30.177 33.7209 29.8867 33.7209C29.5561 33.7209 29.161 33.553 28.8868 33.2891C28.7014 33.1052 27.887 31.9296 26.0566 29.0988C24.6616 26.9316 23.4763 25.1403 23.4602 25.1164C23.3795 25.0764 23.3795 25.0764 25.9114 29.5706C27.5161 32.3934 28.0321 33.409 28.0321 33.529C28.0321 33.8009 27.9515 33.9448 27.6128 34.3127C27.0484 34.9284 26.7984 35.6321 26.613 37.0956C26.4033 38.7269 25.8469 39.8784 24.2423 41.8377C23.307 42.9892 23.1618 43.1971 22.928 43.6769C22.6377 44.2527 22.5571 44.5886 22.5087 45.3243C22.4684 46.108 22.549 46.6038 22.7828 47.3475C22.9925 48.0112 23.2183 48.443 23.7827 49.2907C24.2584 50.0344 24.5487 50.5942 24.5487 50.7941C24.5487 50.962 24.589 50.962 25.3389 50.7941C27.129 50.3783 28.6046 49.6825 29.419 48.8109C29.919 48.2751 30.0399 47.9872 30.0399 47.2435C30.0399 46.7717 30.0157 46.6677 29.8948 46.3798C29.6851 45.924 29.29 45.5562 28.4353 44.9804C27.3145 44.2207 26.8307 43.597 26.7097 42.7733C26.6049 42.0696 26.7339 41.5978 27.3548 40.2943C27.9999 38.9508 28.1692 38.399 28.274 37.0316C28.3385 36.1679 28.4434 35.8161 28.6933 35.5442C28.9675 35.2563 29.1933 35.1523 29.8383 35.0724C30.9027 34.9284 31.5881 34.6565 32.1283 34.1447C32.6041 33.7129 32.8137 33.2811 32.8379 32.6413L32.8621 32.1695L32.588 31.8816C31.6042 30.7701 18.0657 16 18.0012 16C17.977 16 18.3157 16.3918 18.7108 16.8876ZM25.097 46.2279C25.3228 45.8361 25.2019 45.3403 24.8229 45.0924C24.4681 44.8685 23.9278 44.9724 23.9278 45.2763C23.9278 45.3563 23.9682 45.4442 24.0972 45.4842C24.2826 45.5882 24.3068 45.6921 24.1617 45.916C24.0165 46.1399 24.0165 46.3479 24.202 46.4918C24.4923 46.7237 24.8874 46.5958 25.097 46.2279Z" fill="#364253"/>
<path fill-rule="evenodd" clip-rule="evenodd" d="M33.5231 35.377C33.0231 35.5209 32.5474 36.0567 32.4023 36.5925C32.3216 36.9204 32.3619 37.5201 32.5071 37.7041C32.7329 37.992 32.9425 38.0719 33.5231 38.0719C34.6681 38.0719 35.6438 37.5761 35.7486 36.9764C35.8534 36.4806 35.418 35.8008 34.8132 35.489C34.4988 35.329 33.8537 35.273 33.5231 35.377ZM34.8535 36.4086C35.0229 36.1607 34.9584 35.8968 34.6439 35.7049C34.0795 35.353 33.2328 35.6409 33.2328 36.1767C33.2328 36.4486 33.6682 36.7365 34.0875 36.7365C34.3536 36.7365 34.7245 36.5685 34.8535 36.4086Z" fill="#364253"/>
</svg>
